<?xml version="1.0" encoding="UTF-8"?>
<svg width="456px" height="31px" viewBox="0 0 456 31" version="1.1" xmlns="http://www.w3.org/2000/svg" xmlns:xlink="http://www.w3.org/1999/xlink">
    <title>1,789 minutes for Georgetown</title>
    <defs>
        <polygon points="0 0.972 25.3593967 0.972 25.3593967 25.94 0 25.94"></polygon>
    </defs>
    <g stroke="none" stroke-width="1" fill="none" fill-rule="evenodd">
        <g transform="translate(0.000000, 5.000000)">
            <path d="M3.158,7.769 C3.158,6.671 3.158,5.366 3.09,4.954 C3.021,4.062 2.678,3.649 1.51,3.649 L0.137,3.649 C0.068,3.649 0,3.581 0,3.478 L0,2.654 C0,2.517 0.068,2.379 0.274,2.379 C0.618,2.379 3.914,2.482 5.012,2.482 C6.317,2.482 9.201,2.379 9.544,2.379 C9.75,2.379 9.819,2.448 9.819,2.585 L9.819,3.375 C9.819,3.581 9.75,3.649 9.544,3.649 L8.034,3.649 C7.141,3.649 6.729,3.924 6.66,5.023 C6.592,5.435 6.523,6.877 6.523,8.559 L6.523,14.121 C6.592,15.22 7.21,15.631 8.377,15.631 L9.613,15.631 C9.75,15.631 9.819,15.7 9.819,15.837 L9.819,16.627 C9.819,16.833 9.75,16.902 9.613,16.902 C9.338,16.902 6.18,16.799 5.012,16.799 C3.708,16.799 0.48,16.902 0.206,16.902 C0.068,16.902 0,16.833 0,16.627 L0,15.837 C0,15.631 0.068,15.631 0.274,15.631 L1.167,15.631 C2.06,15.631 2.815,15.288 3.021,14.327 C3.158,13.777 3.158,10.893 3.158,9.246 L3.158,7.769" fill="#FFFFFE"></path>
            <path d="M12.491,24.764 C12.491,24.009 13.04,22.91 13.52,22.018 C14.619,19.957 21.143,7.804 22.31,5.641 L16.13,5.641 C14.139,5.641 13.246,6.534 12.765,7.289 C12.491,7.632 12.422,7.701 11.941,7.701 C11.529,7.701 11.461,7.357 11.667,7.014 C12.148,5.984 14.139,2.208 14.413,1.384 C14.482,1.109 14.688,0.972 14.825,0.972 C14.962,0.972 15.443,1.041 15.443,1.246 C15.443,1.452 15.306,1.59 15.306,1.864 C15.169,2.414 15.649,2.482 16.336,2.482 L24.988,2.482 C25.399,2.482 25.434,2.688 25.262,2.997 C23.958,5.4 21.486,10.55 20.524,12.748 C19.769,14.258 16.816,21.399 16.13,23.528 C15.512,25.176 15.031,26 13.864,26 C12.903,26 12.491,25.451 12.491,24.764" fill="#FFFFFE"></path>
        </g>
        <path d="M36.93,5.697 C36.93,3.294 35.763,1.646 33.978,1.646 C32.467,1.646 31.025,3.019 31.025,5.663 C31.025,7.448 31.918,8.341 34.87,9.783 C36.107,8.615 36.93,7.104 36.93,5.697 Z M30.751,16.924 C30.751,18.503 32.124,20.906 33.909,20.906 C35.763,20.906 37.067,19.67 36.999,16.786 C36.93,14.589 35.351,13.696 32.879,12.392 C32.192,12.941 30.751,14.589 30.751,16.924 Z M28.141,17.061 C28.141,14.521 29.995,13.01 31.849,11.774 C28.828,10.057 27.867,8.821 27.798,6.178 C27.798,3.568 30.819,0.479 34.253,0.479 C36.381,0.479 39.746,1.783 39.746,5.182 C39.746,6.967 37.411,9.302 36.038,10.4 C38.784,11.98 40.089,13.49 40.158,16.58 C40.158,19.533 37.205,22.211 33.909,22.211 C30.544,22.211 28.141,20.288 28.141,17.061 L28.141,17.061 Z" fill="#FFFFFE"></path>
        <path d="M51.979,17.885 C52.528,16.992 52.666,15.481 52.666,12.976 C52.666,10.572 51.91,8.306 49.85,8.306 C47.035,8.306 46.417,11.945 46.417,14.727 C46.417,18.023 48.202,19.258 49.37,19.258 C50.812,19.258 51.567,18.572 51.979,17.885 Z M52.116,19.327 C51.704,19.808 50.193,20.563 48.751,20.563 C46.28,20.563 42.778,18.709 42.778,14.349 C42.778,10.572 45.937,7.07 49.85,7.07 C54.451,7.07 56.511,11.739 56.511,15.07 C56.511,23.516 50.056,28.597 46.005,29.42 C45.662,29.489 45.662,29.558 45.387,29.558 C45.044,29.558 44.906,29.352 44.906,29.009 C44.906,28.734 45.044,28.597 45.593,28.391 C49.232,26.949 51.224,24.065 52.253,19.396 L52.116,19.327 L52.116,19.327 Z" fill="#FFFFFE"></path>
        <path d="M66.814,6.418 C66.814,6.315 66.883,6.246 66.986,6.246 C67.192,6.246 69.114,6.349 69.939,6.349 C70.865,6.349 72.067,6.246 72.513,6.246 C72.719,6.246 72.891,6.349 72.994,6.624 L77.869,17.164 C78.247,16.272 79.448,13.765 80.032,12.46 C80.513,11.362 82.539,7.07 82.676,6.692 C82.779,6.452 82.985,6.349 83.259,6.349 C87.448,6.349 88.169,6.246 88.409,6.246 C88.546,6.246 88.581,6.349 88.581,6.555 L88.581,7.276 C88.581,7.414 88.512,7.517 88.34,7.517 L87.517,7.517 C86.967,7.517 86.83,7.894 86.795,8.238 C86.795,8.546 86.727,13.731 86.727,14.143 C86.727,14.589 86.795,19.121 86.795,19.43 C86.795,20.082 87.002,20.631 87.551,20.631 L88.753,20.631 C88.855,20.631 88.924,20.7 88.924,20.803 L88.924,21.662 C88.924,21.799 88.855,21.902 88.684,21.902 C88.409,21.902 86.486,21.799 85.251,21.799 C83.706,21.799 81.577,21.902 81.337,21.902 C81.199,21.902 81.131,21.799 81.131,21.593 L81.131,20.837 C81.131,20.7 81.199,20.631 81.337,20.631 L82.264,20.631 C82.95,20.631 83.19,20.254 83.19,19.945 C83.225,19.43 83.259,14.795 83.259,14.486 L83.259,8.958 L83.053,8.958 C82.779,9.577 80.753,13.902 80.204,15.035 C79.757,15.893 77.492,20.803 77.354,21.043 C77.251,21.249 76.977,21.559 76.736,21.559 C76.427,21.559 76.255,21.387 76.118,21.181 C76.015,21.009 72.788,14.074 72.548,13.593 C72.067,12.632 71.003,10.091 70.557,9.13 L70.385,9.13 C70.351,9.714 70.316,13.525 70.316,13.765 C70.316,14.039 70.282,18.675 70.316,19.052 C70.454,20.288 70.934,20.631 71.655,20.631 L72.479,20.631 C72.616,20.631 72.651,20.734 72.651,20.906 L72.651,21.696 C72.651,21.799 72.616,21.902 72.445,21.902 C72.239,21.902 70.625,21.799 69.561,21.799 C68.153,21.799 66.849,21.902 66.643,21.902 C66.471,21.902 66.437,21.833 66.437,21.593 L66.437,20.837 C66.437,20.7 66.505,20.631 66.608,20.631 L67.329,20.631 C68.05,20.631 68.565,20.185 68.668,19.705 C69.011,18.16 69.08,12.563 69.08,12.185 C69.08,11.877 69.046,8.615 69.046,8.306 C69.046,7.791 69.046,7.517 67.604,7.517 L66.986,7.517 C66.883,7.517 66.814,7.448 66.814,7.345 L66.814,6.418" fill="#FFFFFE"></path>
        <path d="M94.147,12.701 C94.147,12.151 94.078,9.508 94.078,8.546 C94.078,7.86 93.77,7.517 92.945,7.517 L91.813,7.517 C91.641,7.517 91.607,7.414 91.607,7.276 L91.607,6.452 C91.607,6.315 91.675,6.246 91.813,6.246 C92.019,6.246 94.147,6.384 95.967,6.349 C97.649,6.349 99.4,6.246 99.674,6.246 C99.812,6.246 99.88,6.315 99.88,6.452 L99.88,7.276 C99.88,7.414 99.846,7.517 99.674,7.517 L98.954,7.517 C98.164,7.517 97.855,7.654 97.82,8.341 C97.82,8.684 97.786,11.842 97.786,13.01 L97.786,14.727 C97.786,15.756 97.786,18.88 97.82,19.361 C97.889,20.151 98.301,20.631 98.954,20.631 L99.812,20.631 C99.983,20.631 100.018,20.7 100.018,20.803 L100.018,21.662 C100.018,21.799 99.983,21.902 99.812,21.902 C99.537,21.902 97.752,21.799 95.829,21.799 C93.975,21.799 91.984,21.902 91.778,21.902 C91.641,21.902 91.572,21.799 91.572,21.593 L91.572,20.837 C91.572,20.734 91.641,20.631 91.778,20.631 L92.533,20.631 C93.46,20.631 94.01,20.597 94.078,20.014 C94.113,19.705 94.147,15.344 94.147,14.177 L94.147,12.701" fill="#FFFFFE"></path>
        <path d="M105.272,9.336 C105.272,8.1 104.449,7.517 103.487,7.517 L103.178,7.517 C103.041,7.517 102.972,7.448 102.972,7.311 L102.972,6.452 C102.972,6.349 103.041,6.246 103.178,6.246 C103.247,6.246 103.625,6.281 104.14,6.281 C104.654,6.315 105.341,6.349 105.994,6.349 C106.543,6.349 107.264,6.281 107.676,6.281 C108.156,6.281 108.431,6.349 108.568,6.555 C108.671,6.692 112.654,11.328 113.341,12.048 C113.924,12.666 116.911,16.1 117.426,16.649 L117.563,16.649 L117.563,15.481 C117.563,14.039 117.563,12.426 117.529,11.362 C117.529,10.538 117.357,8.546 117.186,8.135 C117.014,7.723 116.534,7.517 115.984,7.517 L115.4,7.517 C115.229,7.517 115.16,7.448 115.16,7.276 L115.16,6.418 C115.16,6.315 115.229,6.246 115.4,6.246 C115.641,6.246 117.117,6.349 118.216,6.349 C118.937,6.349 120.138,6.246 120.379,6.246 C120.55,6.246 120.619,6.315 120.619,6.555 L120.619,7.276 C120.619,7.414 120.55,7.517 120.413,7.517 L120.07,7.517 C119.314,7.517 119.143,7.757 119.074,8.238 C118.834,9.817 118.902,11.98 118.902,13.353 L118.902,21.387 C118.902,21.868 118.765,22.211 118.422,22.211 C118.113,22.211 117.838,22.005 117.667,21.833 C115.366,19.499 113.135,16.992 110.903,14.555 C110.079,13.662 107.161,10.194 106.68,9.68 L106.611,9.68 L106.611,13.662 C106.611,15.722 106.714,19.155 106.783,19.464 C106.886,20.254 107.264,20.631 107.779,20.631 L108.465,20.631 C108.637,20.631 108.637,20.7 108.637,20.837 L108.637,21.696 C108.637,21.833 108.637,21.902 108.465,21.902 C108.225,21.902 106.852,21.799 105.685,21.799 C105.204,21.799 103.659,21.902 103.384,21.902 C103.315,21.902 103.281,21.833 103.281,21.627 L103.281,20.734 C103.281,20.666 103.315,20.631 103.418,20.631 L104.208,20.631 C104.552,20.631 105.066,20.391 105.169,19.602 C105.204,19.189 105.272,16.752 105.272,12.907 L105.272,9.336" fill="#FFFFFE"></path>
        <path d="M125.6,8.615 C125.6,7.997 125.462,7.517 124.433,7.517 L123.814,7.517 C123.677,7.517 123.608,7.448 123.608,7.311 L123.608,6.418 C123.608,6.315 123.677,6.246 123.814,6.246 C124.021,6.246 126.218,6.349 127.9,6.349 C129.239,6.349 131.265,6.246 131.471,6.246 C131.642,6.246 131.711,6.315 131.711,6.487 L131.711,7.311 C131.711,7.414 131.642,7.517 131.505,7.517 L131.024,7.517 C129.857,7.517 129.48,7.86 129.445,8.135 C129.376,8.581 129.411,9.748 129.411,11.018 L129.411,12.392 C129.411,13.525 129.48,16.272 129.48,16.752 C129.514,17.713 129.72,18.777 130.269,19.499 C131.059,20.46 132.294,20.769 133.222,20.769 C134.251,20.769 135.247,20.426 135.934,19.773 C136.826,18.949 137.067,17.645 137.032,16.272 L136.964,11.568 C136.929,9.886 136.895,8.821 136.826,8.443 C136.758,7.86 136.415,7.517 135.316,7.517 L134.938,7.517 C134.801,7.517 134.732,7.414 134.732,7.242 L134.732,6.452 C134.732,6.349 134.801,6.246 134.938,6.246 C135.11,6.246 137.032,6.349 138.097,6.349 C139.023,6.349 140.397,6.246 140.603,6.246 C140.774,6.246 140.843,6.349 140.843,6.521 L140.843,7.276 C140.843,7.414 140.774,7.517 140.637,7.517 L140.328,7.517 C139.058,7.517 138.989,8.066 138.886,8.443 C138.817,8.718 138.852,11.328 138.852,11.705 C138.852,12.014 138.783,15.825 138.749,16.683 C138.612,18.469 138.131,19.876 136.861,20.906 C135.934,21.73 134.526,22.211 132.191,22.211 C130.543,22.211 129.445,22.073 128.655,21.765 C127.11,21.146 126.321,20.22 125.943,18.846 C125.703,17.851 125.6,16.374 125.6,13.456 L125.6,8.615" fill="#FFFFFE"></path>
        <path d="M153.035,13.284 C153.035,16.889 153.035,19.464 153.069,19.739 C153.138,20.288 153.344,20.631 153.79,20.631 L155.129,20.631 C155.3,20.631 155.369,20.734 155.369,20.94 L155.369,21.696 C155.369,21.799 155.3,21.902 155.129,21.902 C154.889,21.902 152.76,21.799 151.043,21.799 C149.739,21.799 147.507,21.902 147.232,21.902 C147.026,21.902 146.958,21.799 146.958,21.559 L146.958,20.872 C146.958,20.7 147.026,20.631 147.164,20.631 L148.468,20.631 C148.983,20.631 149.258,20.357 149.292,20.082 C149.396,18.777 149.396,16.958 149.396,14.933 L149.396,7.654 C148.674,7.654 146.958,7.62 145.688,7.963 C144.829,8.512 144.108,9.611 143.662,10.503 C143.593,10.641 143.49,10.744 143.353,10.709 L142.563,10.435 C142.392,10.366 142.392,10.229 142.426,10.091 C142.666,9.336 143.49,6.555 143.627,5.937 C143.696,5.697 143.799,5.594 143.937,5.594 C144.04,5.594 144.108,5.628 144.211,5.697 L144.486,5.903 C144.932,6.212 145.172,6.246 145.825,6.281 C147.026,6.349 148.331,6.418 150.322,6.418 L152.039,6.418 C153.412,6.418 155.472,6.349 156.88,6.281 C157.429,6.246 157.738,6.212 158.116,5.972 L158.528,5.697 C158.631,5.628 158.734,5.594 158.802,5.594 C158.939,5.594 159.008,5.697 159.111,6.349 C159.18,6.83 159.764,9.302 159.936,10.229 C159.97,10.366 159.901,10.435 159.764,10.503 L159.008,10.675 C158.802,10.744 158.699,10.709 158.631,10.538 C158.219,9.68 157.635,8.546 156.914,7.997 C156.056,7.688 153.721,7.654 153.035,7.654 L153.035,13.284" fill="#FFFFFE"></path>
        <path d="M168.419,13.182 C169.415,13.182 170.547,13.079 170.822,13.01 C171.543,12.838 171.886,12.357 172.024,11.293 C172.058,11.156 172.092,11.122 172.23,11.122 L172.985,11.156 C173.123,11.156 173.226,11.225 173.191,11.362 C173.123,11.671 173.123,13.49 173.123,13.799 C173.123,14.555 173.226,15.619 173.26,16.065 C173.26,16.203 173.191,16.237 173.088,16.237 L172.367,16.34 C172.264,16.374 172.195,16.306 172.161,16.168 C171.818,15.31 171.612,14.795 170.891,14.589 C169.861,14.349 169.346,14.349 168.419,14.349 L168.419,15.481 C168.419,16.683 168.487,18.675 168.487,19.121 C168.487,20.631 169.552,20.734 170.856,20.734 C172.367,20.734 173.363,20.734 174.324,19.876 C174.599,19.67 175.8,18.125 176.315,17.473 C176.453,17.301 176.556,17.267 176.659,17.335 L177.311,17.679 C177.379,17.713 177.448,17.816 177.414,17.919 L176.178,21.559 C176.109,21.73 175.938,21.902 175.8,21.902 C175.56,21.902 173.74,21.799 166.256,21.799 C164.951,21.799 163.063,21.902 162.651,21.902 C162.48,21.902 162.445,21.799 162.445,21.627 L162.445,20.837 C162.445,20.7 162.514,20.631 162.686,20.631 L162.994,20.631 C164.608,20.631 164.711,20.494 164.711,19.258 L164.711,11.362 C164.711,10.263 164.78,9.508 164.642,8.375 C164.539,7.654 164.334,7.517 162.96,7.517 L162.617,7.517 C162.514,7.517 162.48,7.448 162.48,7.276 L162.48,6.418 C162.48,6.349 162.514,6.246 162.651,6.246 C163.166,6.246 165.054,6.349 166.531,6.349 L174.221,6.315 C174.564,6.315 175.011,6.246 175.148,6.246 C175.217,6.246 175.285,6.315 175.354,6.727 C175.423,7.036 176.384,9.988 176.453,10.229 C176.487,10.366 176.487,10.435 176.418,10.469 L175.869,10.709 C175.731,10.778 175.628,10.744 175.525,10.606 C175.388,10.469 173.672,8.546 173.054,8.032 C172.676,7.723 172.127,7.585 171.783,7.585 L168.419,7.517 L168.419,13.182" fill="#FFFFFE"></path>
        <path d="M181.979,16.718 C182.082,16.752 182.219,16.821 182.185,17.027 C182.185,17.438 182.254,18.16 182.769,19.292 C183.284,20.22 184.417,20.906 186.03,20.906 C187.163,20.906 188.605,20.048 188.605,18.606 C188.605,17.027 187.472,16.306 185.618,15.722 C184.932,15.481 183.284,14.795 182.254,13.936 C181.121,12.976 180.709,12.048 180.709,9.954 C180.709,8.787 181.499,7.688 182.356,6.967 C183.215,6.246 184.623,5.937 185.996,5.937 C187.369,5.937 188.09,6.178 188.502,6.384 C188.846,6.59 189.017,6.624 189.086,6.452 L189.223,6.212 C189.292,6.109 189.395,6.109 189.704,6.109 C190.047,6.109 190.082,6.246 190.082,6.418 C190.082,7.551 190.391,9.783 190.425,10.263 C190.425,10.366 190.391,10.435 190.288,10.469 L189.601,10.606 C189.532,10.641 189.395,10.606 189.36,10.469 C189.223,10.023 188.88,8.855 188.228,8.066 C187.747,7.551 186.992,7.208 185.652,7.208 C183.799,7.208 183.353,8.581 183.353,9.199 C183.353,9.645 183.353,9.988 183.627,10.503 C183.97,11.122 184.794,11.431 186.099,11.842 C187.678,12.392 188.948,12.769 189.876,13.628 C190.837,14.486 191.283,15.344 191.283,17.438 C191.283,20.014 189.601,22.211 185.893,22.211 C184.142,22.211 182.94,21.627 182.151,21.009 C181.91,20.837 181.705,20.803 181.636,21.078 L181.533,21.352 C181.464,21.524 181.292,21.593 180.983,21.524 C180.709,21.456 180.606,21.318 180.64,21.146 C180.743,20.185 180.983,17.438 181.018,16.889 C181.052,16.752 181.121,16.649 181.258,16.649 L181.979,16.718" fill="#FFFFFE"></path>
        <path d="M208.042,13.834 C208.522,13.834 210.067,13.731 210.342,13.696 C211.234,13.593 211.646,12.941 211.853,12.185 C211.921,11.945 211.955,11.774 212.127,11.808 L212.607,11.877 C212.711,11.877 212.745,11.911 212.745,12.048 C212.711,12.392 212.711,14.211 212.711,14.555 C212.711,15.31 212.779,16.374 212.813,16.752 C212.813,16.889 212.745,16.924 212.642,16.958 L212.195,17.027 C212.059,17.061 211.955,16.958 211.921,16.786 C211.681,15.859 211.338,15.447 210.41,15.241 C209.518,15.035 208.557,15.035 208.042,15.035 L208.042,19.945 C208.042,20.528 208.419,20.631 208.969,20.631 L209.861,20.631 C209.964,20.631 210.033,20.7 210.033,20.837 L210.033,21.627 C210.033,21.765 209.998,21.902 209.861,21.902 C209.655,21.902 207.87,21.799 205.707,21.799 C204.299,21.799 202.583,21.902 202.445,21.902 C202.273,21.902 202.239,21.799 202.239,21.593 L202.239,20.837 C202.239,20.734 202.308,20.631 202.445,20.631 L203.406,20.631 C203.99,20.631 204.196,20.357 204.23,20.082 C204.265,19.705 204.299,17.301 204.299,13.593 L204.299,12.083 C204.299,11.156 204.299,8.752 204.265,8.478 C204.196,8.135 203.99,7.517 203.338,7.517 L201.999,7.517 C201.861,7.517 201.827,7.414 201.827,7.276 L201.827,6.487 C201.827,6.349 201.896,6.246 202.033,6.246 C202.205,6.246 204.643,6.349 206.325,6.349 C206.702,6.349 214.702,6.349 215.08,6.246 C215.183,6.967 215.835,9.92 215.938,10.4 C215.973,10.538 215.973,10.641 215.903,10.675 L215.285,10.95 C215.183,10.984 215.045,10.95 214.942,10.744 C214.771,10.366 214.222,9.474 213.363,8.409 C213.054,7.997 212.573,7.826 212.093,7.723 C211.509,7.585 208.488,7.551 208.042,7.551 L208.042,13.834" fill="#FFFFFE"></path>
        <path d="M231.047,14.349 C231.047,9.851 228.541,7.311 226.721,7.311 C226.068,7.311 224.661,7.448 223.871,8.478 C222.842,9.851 222.155,11.911 222.155,13.662 C222.155,19.121 225.279,20.837 226.756,20.837 C230.635,20.837 231.047,16.203 231.047,14.349 Z M221.193,20.666 C219.992,19.876 218.207,17.473 218.207,14.246 C218.207,12.838 218.447,10.778 220.095,8.855 C222.155,6.384 224.353,5.937 226.824,5.937 C228.507,5.937 230.704,6.178 232.386,7.791 C233.76,9.062 235.063,11.19 235.063,14.28 C235.063,15.928 234.721,17.61 233.725,19.018 C232.283,21.112 230.12,22.211 226.55,22.211 C225.245,22.211 223.22,22.005 221.193,20.666 L221.193,20.666 Z" fill="#FFFFFE"></path>
        <path d="M243.036,14.108 C243.345,14.177 243.825,14.177 244.271,14.177 C246.95,14.177 247.533,11.499 247.533,10.606 C247.533,9.577 247.019,8.649 246.606,8.203 C246.16,7.723 245.199,7.448 244.203,7.448 C243.62,7.448 243.036,7.585 243.036,8.1 L243.036,14.108 Z M239.603,8.581 C239.603,7.894 239.26,7.517 238.298,7.517 L237.955,7.517 C237.852,7.517 237.817,7.414 237.817,7.276 L237.817,6.418 C237.817,6.315 237.886,6.246 238.023,6.246 C238.195,6.246 240.324,6.349 241.217,6.349 C241.869,6.349 244.684,6.246 245.302,6.246 C247.293,6.246 248.666,6.83 249.971,7.585 C250.727,8.306 251.173,9.302 251.173,10.091 C251.173,12.46 249.834,13.765 247.225,14.624 L247.225,14.761 C248.083,15.035 248.77,16.1 250.04,18.057 C250.486,18.777 251.275,19.808 251.757,20.254 C252.237,20.597 252.855,20.631 253.473,20.631 C253.61,20.631 253.645,20.734 253.645,20.94 L253.645,21.662 C253.645,21.799 253.576,21.902 253.438,21.902 C253.37,21.902 253.061,21.868 252.649,21.833 C252.237,21.833 251.722,21.799 251.173,21.799 C250.28,21.799 249.182,21.833 248.666,21.868 C248.015,21.387 246.504,18.606 246.194,18.091 C245.027,15.997 244.443,15.31 243.895,15.31 C243.654,15.31 243.414,15.31 243.036,15.379 L243.036,19.773 C243.105,20.254 243.311,20.631 243.825,20.631 L244.787,20.631 C244.924,20.631 244.993,20.7 244.993,20.803 L244.993,21.662 C244.993,21.833 244.924,21.902 244.719,21.902 C244.478,21.902 242.624,21.799 241.285,21.799 C239.912,21.799 238.161,21.902 237.921,21.902 C237.783,21.902 237.715,21.799 237.715,21.593 L237.715,20.803 C237.715,20.7 237.783,20.631 237.921,20.631 L238.332,20.631 C239.156,20.631 239.568,20.494 239.568,19.739 C239.603,18.057 239.603,16.031 239.603,13.971 L239.603,8.581 L239.603,8.581 Z" fill="#FFFFFE"></path>
        <path d="M274.316,17.267 C274.316,16.477 273.458,16.237 273.081,16.237 L272.429,16.237 C272.291,16.237 272.257,16.168 272.257,16.065 L272.257,15.207 C272.257,15.104 272.291,15.035 272.429,15.035 C272.635,15.035 274.316,15.104 276.067,15.104 C277.682,15.104 279.227,15.035 279.363,15.035 C279.501,15.035 279.569,15.104 279.569,15.241 L279.569,16.065 C279.569,16.168 279.501,16.272 279.397,16.272 L278.917,16.272 C278.574,16.272 277.922,16.409 277.922,16.958 L277.922,19.773 C277.922,20.082 278.024,20.288 278.024,20.46 C278.024,20.631 277.887,20.734 277.647,20.837 C275.827,21.73 273.974,22.211 271.433,22.211 C269.476,22.211 266.66,21.696 264.841,19.705 C263.468,18.194 262.781,16.34 262.781,13.662 C262.781,11.568 263.674,9.474 265.321,8.032 C267.176,6.418 269.304,5.937 272.017,5.937 C273.802,5.937 275.415,6.555 276.067,7.036 C276.342,7.276 276.48,7.276 276.548,7.173 L276.72,6.864 C276.788,6.727 276.892,6.624 277.27,6.624 C277.578,6.624 277.647,6.761 277.647,7.001 C277.647,7.173 278.093,10.366 278.162,10.984 C278.162,11.156 278.128,11.225 277.853,11.259 L277.2,11.465 C277.098,11.499 277.029,11.465 276.926,11.19 C276.686,10.641 276.102,9.577 275.278,8.752 C274.351,7.963 273.39,7.276 271.776,7.276 C270.574,7.276 269.167,7.826 268.171,9.062 C267.416,9.988 266.798,11.808 266.798,13.353 C266.798,15.997 267.553,17.954 268.515,19.121 C269.441,20.288 270.54,20.803 271.776,20.803 C272.6,20.803 273.287,20.597 273.802,20.323 C274.18,20.117 274.316,19.773 274.316,19.361 L274.316,17.267" fill="#FFFFFE"></path>
        <path d="M288.087,13.182 C289.083,13.182 290.216,13.079 290.49,13.01 C291.212,12.838 291.555,12.357 291.692,11.293 C291.727,11.156 291.761,11.122 291.898,11.122 L292.653,11.156 C292.791,11.156 292.894,11.225 292.859,11.362 C292.791,11.671 292.791,13.49 292.791,13.799 C292.791,14.555 292.894,15.619 292.928,16.065 C292.928,16.203 292.859,16.237 292.757,16.237 L292.035,16.34 C291.933,16.374 291.864,16.306 291.829,16.168 C291.486,15.31 291.28,14.795 290.56,14.589 C289.529,14.349 289.015,14.349 288.087,14.349 L288.087,15.481 C288.087,16.683 288.156,18.675 288.156,19.121 C288.156,20.631 289.221,20.734 290.524,20.734 C292.035,20.734 293.031,20.734 293.992,19.876 C294.268,19.67 295.469,18.125 295.983,17.473 C296.121,17.301 296.224,17.267 296.327,17.335 L296.98,17.679 C297.048,17.713 297.116,17.816 297.082,17.919 L295.847,21.559 C295.777,21.73 295.606,21.902 295.469,21.902 C295.229,21.902 293.409,21.799 285.925,21.799 C284.62,21.799 282.731,21.902 282.319,21.902 C282.147,21.902 282.113,21.799 282.113,21.627 L282.113,20.837 C282.113,20.7 282.182,20.631 282.354,20.631 L282.663,20.631 C284.276,20.631 284.379,20.494 284.379,19.258 L284.379,11.362 C284.379,10.263 284.448,9.508 284.311,8.375 C284.208,7.654 284.002,7.517 282.629,7.517 L282.285,7.517 C282.182,7.517 282.147,7.448 282.147,7.276 L282.147,6.418 C282.147,6.349 282.182,6.246 282.319,6.246 C282.834,6.246 284.723,6.349 286.199,6.349 L293.89,6.315 C294.232,6.315 294.679,6.246 294.816,6.246 C294.885,6.246 294.954,6.315 295.022,6.727 C295.091,7.036 296.053,9.988 296.121,10.229 C296.155,10.366 296.155,10.435 296.087,10.469 L295.537,10.709 C295.4,10.778 295.297,10.744 295.194,10.606 C295.057,10.469 293.34,8.546 292.722,8.032 C292.345,7.723 291.795,7.585 291.452,7.585 L288.087,7.517 L288.087,13.182" fill="#FFFFFE"></path>
        <path d="M312.055,14.349 C312.055,9.851 309.549,7.311 307.729,7.311 C307.076,7.311 305.669,7.448 304.879,8.478 C303.85,9.851 303.163,11.911 303.163,13.662 C303.163,19.121 306.287,20.837 307.764,20.837 C311.643,20.837 312.055,16.203 312.055,14.349 Z M302.201,20.666 C301,19.876 299.215,17.473 299.215,14.246 C299.215,12.838 299.455,10.778 301.103,8.855 C303.163,6.384 305.36,5.937 307.832,5.937 C309.515,5.937 311.712,6.178 313.394,7.791 C314.768,9.062 316.071,11.19 316.071,14.28 C316.071,15.928 315.729,17.61 314.732,19.018 C313.291,21.112 311.128,22.211 307.558,22.211 C306.253,22.211 304.228,22.005 302.201,20.666 L302.201,20.666 Z" fill="#FFFFFE"></path>
        <path d="M324.044,14.108 C324.353,14.177 324.833,14.177 325.279,14.177 C327.958,14.177 328.541,11.499 328.541,10.606 C328.541,9.577 328.026,8.649 327.614,8.203 C327.168,7.723 326.207,7.448 325.211,7.448 C324.628,7.448 324.044,7.585 324.044,8.1 L324.044,14.108 Z M320.61,8.581 C320.61,7.894 320.268,7.517 319.306,7.517 L318.963,7.517 C318.859,7.517 318.825,7.414 318.825,7.276 L318.825,6.418 C318.825,6.315 318.894,6.246 319.031,6.246 C319.203,6.246 321.332,6.349 322.225,6.349 C322.877,6.349 325.691,6.246 326.31,6.246 C328.301,6.246 329.674,6.83 330.979,7.585 C331.734,8.306 332.181,9.302 332.181,10.091 C332.181,12.46 330.842,13.765 328.232,14.624 L328.232,14.761 C329.091,15.035 329.777,16.1 331.048,18.057 C331.494,18.777 332.283,19.808 332.765,20.254 C333.245,20.597 333.863,20.631 334.48,20.631 C334.618,20.631 334.652,20.734 334.652,20.94 L334.652,21.662 C334.652,21.799 334.584,21.902 334.446,21.902 C334.378,21.902 334.068,21.868 333.657,21.833 C333.245,21.833 332.73,21.799 332.181,21.799 C331.288,21.799 330.189,21.833 329.674,21.868 C329.022,21.387 327.512,18.606 327.202,18.091 C326.035,15.997 325.451,15.31 324.902,15.31 C324.662,15.31 324.422,15.31 324.044,15.379 L324.044,19.773 C324.112,20.254 324.318,20.631 324.833,20.631 L325.795,20.631 C325.932,20.631 326.001,20.7 326.001,20.803 L326.001,21.662 C326.001,21.833 325.932,21.902 325.727,21.902 C325.485,21.902 323.632,21.799 322.293,21.799 C320.92,21.799 319.169,21.902 318.929,21.902 C318.791,21.902 318.723,21.799 318.723,21.593 L318.723,20.803 C318.723,20.7 318.791,20.631 318.929,20.631 L319.34,20.631 C320.164,20.631 320.576,20.494 320.576,19.739 C320.61,18.057 320.61,16.031 320.61,13.971 L320.61,8.581 L320.61,8.581 Z" fill="#FFFFFE"></path>
        <path d="M348.281,17.267 C348.281,16.477 347.423,16.237 347.046,16.237 L346.394,16.237 C346.256,16.237 346.222,16.168 346.222,16.065 L346.222,15.207 C346.222,15.104 346.256,15.035 346.394,15.035 C346.6,15.035 348.281,15.104 350.032,15.104 C351.647,15.104 353.191,15.035 353.328,15.035 C353.466,15.035 353.534,15.104 353.534,15.241 L353.534,16.065 C353.534,16.168 353.466,16.272 353.362,16.272 L352.882,16.272 C352.539,16.272 351.887,16.409 351.887,16.958 L351.887,19.773 C351.887,20.082 351.989,20.288 351.989,20.46 C351.989,20.631 351.852,20.734 351.611,20.837 C349.792,21.73 347.939,22.211 345.397,22.211 C343.44,22.211 340.625,21.696 338.806,19.705 C337.433,18.194 336.746,16.34 336.746,13.662 C336.746,11.568 337.639,9.474 339.286,8.032 C341.141,6.418 343.269,5.937 345.981,5.937 C347.767,5.937 349.38,6.555 350.032,7.036 C350.307,7.276 350.444,7.276 350.513,7.173 L350.685,6.864 C350.753,6.727 350.856,6.624 351.234,6.624 C351.543,6.624 351.611,6.761 351.611,7.001 C351.611,7.173 352.058,10.366 352.127,10.984 C352.127,11.156 352.093,11.225 351.817,11.259 L351.165,11.465 C351.063,11.499 350.994,11.465 350.891,11.19 C350.65,10.641 350.066,9.577 349.243,8.752 C348.315,7.963 347.355,7.276 345.741,7.276 C344.539,7.276 343.132,7.826 342.136,9.062 C341.381,9.988 340.763,11.808 340.763,13.353 C340.763,15.997 341.518,17.954 342.48,19.121 C343.406,20.288 344.505,20.803 345.741,20.803 C346.564,20.803 347.252,20.597 347.767,20.323 C348.145,20.117 348.281,19.773 348.281,19.361 L348.281,17.267" fill="#FFFFFE"></path>
        <path d="M362.052,13.182 C363.048,13.182 364.181,13.079 364.455,13.01 C365.177,12.838 365.52,12.357 365.657,11.293 C365.691,11.156 365.726,11.122 365.863,11.122 L366.618,11.156 C366.756,11.156 366.858,11.225 366.824,11.362 C366.756,11.671 366.756,13.49 366.756,13.799 C366.756,14.555 366.858,15.619 366.893,16.065 C366.893,16.203 366.824,16.237 366.722,16.237 L366,16.34 C365.897,16.374 365.829,16.306 365.794,16.168 C365.451,15.31 365.245,14.795 364.524,14.589 C363.494,14.349 362.98,14.349 362.052,14.349 L362.052,15.481 C362.052,16.683 362.121,18.675 362.121,19.121 C362.121,20.631 363.186,20.734 364.489,20.734 C366,20.734 366.996,20.734 367.957,19.876 C368.232,19.67 369.434,18.125 369.948,17.473 C370.086,17.301 370.189,17.267 370.292,17.335 L370.944,17.679 C371.013,17.713 371.081,17.816 371.047,17.919 L369.812,21.559 C369.742,21.73 369.571,21.902 369.434,21.902 C369.193,21.902 367.374,21.799 359.89,21.799 C358.585,21.799 356.696,21.902 356.284,21.902 C356.112,21.902 356.078,21.799 356.078,21.627 L356.078,20.837 C356.078,20.7 356.147,20.631 356.318,20.631 L356.628,20.631 C358.241,20.631 358.344,20.494 358.344,19.258 L358.344,11.362 C358.344,10.263 358.413,9.508 358.275,8.375 C358.173,7.654 357.967,7.517 356.594,7.517 L356.25,7.517 C356.147,7.517 356.112,7.448 356.112,7.276 L356.112,6.418 C356.112,6.349 356.147,6.246 356.284,6.246 C356.799,6.246 358.688,6.349 360.164,6.349 L367.855,6.315 C368.197,6.315 368.644,6.246 368.781,6.246 C368.85,6.246 368.919,6.315 368.987,6.727 C369.056,7.036 370.018,9.988 370.086,10.229 C370.12,10.366 370.12,10.435 370.052,10.469 L369.502,10.709 C369.365,10.778 369.262,10.744 369.159,10.606 C369.022,10.469 367.305,8.546 366.687,8.032 C366.31,7.723 365.76,7.585 365.417,7.585 L362.052,7.517 L362.052,13.182" fill="#FFFFFE"></path>
        <path d="M383.612,13.284 C383.612,16.889 383.612,19.464 383.647,19.739 C383.715,20.288 383.921,20.631 384.367,20.631 L385.706,20.631 C385.878,20.631 385.947,20.734 385.947,20.94 L385.947,21.696 C385.947,21.799 385.878,21.902 385.706,21.902 C385.466,21.902 383.338,21.799 381.621,21.799 C380.316,21.799 378.085,21.902 377.81,21.902 C377.605,21.902 377.535,21.799 377.535,21.559 L377.535,20.872 C377.535,20.7 377.605,20.631 377.741,20.631 L379.046,20.631 C379.561,20.631 379.836,20.357 379.87,20.082 C379.973,18.777 379.973,16.958 379.973,14.933 L379.973,7.654 C379.252,7.654 377.535,7.62 376.265,7.963 C375.407,8.512 374.686,9.611 374.239,10.503 C374.171,10.641 374.067,10.744 373.931,10.709 L373.141,10.435 C372.969,10.366 372.969,10.229 373.004,10.091 C373.244,9.336 374.067,6.555 374.205,5.937 C374.273,5.697 374.377,5.594 374.514,5.594 C374.617,5.594 374.686,5.628 374.789,5.697 L375.064,5.903 C375.51,6.212 375.75,6.246 376.402,6.281 C377.605,6.349 378.908,6.418 380.9,6.418 L382.616,6.418 C383.99,6.418 386.05,6.349 387.457,6.281 C388.007,6.246 388.315,6.212 388.693,5.972 L389.105,5.697 C389.208,5.628 389.312,5.594 389.38,5.594 C389.518,5.594 389.586,5.697 389.689,6.349 C389.758,6.83 390.342,9.302 390.513,10.229 C390.547,10.366 390.479,10.435 390.342,10.503 L389.586,10.675 C389.38,10.744 389.277,10.709 389.208,10.538 C388.796,9.68 388.213,8.546 387.492,7.997 C386.634,7.688 384.299,7.654 383.612,7.654 L383.612,13.284" fill="#FFFFFE"></path>
        <path d="M405.592,14.349 C405.592,9.851 403.086,7.311 401.266,7.311 C400.613,7.311 399.206,7.448 398.416,8.478 C397.387,9.851 396.7,11.911 396.7,13.662 C396.7,19.121 399.824,20.837 401.301,20.837 C405.18,20.837 405.592,16.203 405.592,14.349 Z M395.738,20.666 C394.537,19.876 392.752,17.473 392.752,14.246 C392.752,12.838 392.992,10.778 394.64,8.855 C396.7,6.384 398.897,5.937 401.369,5.937 C403.052,5.937 405.249,6.178 406.931,7.791 C408.305,9.062 409.608,11.19 409.608,14.28 C409.608,15.928 409.266,17.61 408.27,19.018 C406.828,21.112 404.665,22.211 401.095,22.211 C399.79,22.211 397.765,22.005 395.738,20.666 L395.738,20.666 Z" fill="#FFFFFE"></path>
        <path d="M419.848,17.232 L419.984,17.232 C420.328,16.34 423.074,9.439 423.074,8.821 C423.074,8.478 422.972,8.169 422.766,7.894 C422.525,7.62 422.216,7.517 421.77,7.517 L421.289,7.517 C421.187,7.517 421.152,7.448 421.152,7.311 L421.152,6.418 C421.152,6.315 421.221,6.246 421.323,6.246 C421.495,6.246 423.418,6.349 425.203,6.349 C425.89,6.349 427.984,6.246 428.225,6.246 C428.327,6.246 428.397,6.315 428.397,6.555 L428.397,7.311 C428.397,7.448 428.361,7.517 428.225,7.517 L427.538,7.517 C426.92,7.517 426.816,7.791 426.954,8.238 L429.735,17.232 L429.941,17.232 C430.422,15.997 432.825,8.993 432.825,8.203 C432.825,7.826 432.516,7.517 432.069,7.517 L431.555,7.517 C431.417,7.517 431.383,7.414 431.383,7.276 L431.383,6.418 C431.383,6.315 431.417,6.246 431.589,6.246 C431.829,6.246 433.408,6.349 434.198,6.349 C434.885,6.349 436.121,6.246 436.327,6.246 C436.43,6.246 436.464,6.315 436.464,6.555 L436.464,7.311 C436.464,7.448 436.43,7.517 436.292,7.517 L435.881,7.517 C435.503,7.517 435.193,7.654 435.057,7.791 C434.816,8.066 429.976,20.426 429.46,21.559 C429.323,21.868 429.049,22.211 428.705,22.211 C428.397,22.211 428.121,21.936 428.019,21.627 L424.036,10.812 L423.83,10.812 C423.555,11.431 419.916,20.837 419.538,21.696 C419.401,22.005 419.16,22.211 418.886,22.211 C418.646,22.211 418.371,22.073 418.233,21.696 L412.878,8.272 C412.604,7.551 411.951,7.517 411.642,7.517 L411.059,7.517 C410.955,7.517 410.921,7.448 410.921,7.345 L410.921,6.418 C410.921,6.281 410.955,6.246 411.093,6.246 C411.265,6.246 413.016,6.349 414.903,6.349 C415.418,6.349 417.513,6.246 417.719,6.246 C417.891,6.246 417.925,6.315 417.925,6.521 L417.925,7.311 C417.925,7.414 417.891,7.517 417.719,7.517 L417.341,7.517 C417.066,7.517 416.758,7.791 416.895,8.169 L419.848,17.232" fill="#FFFFFE"></path>
        <path d="M440.006,9.336 C440.006,8.1 439.182,7.517 438.22,7.517 L437.911,7.517 C437.773,7.517 437.705,7.448 437.705,7.311 L437.705,6.452 C437.705,6.349 437.773,6.246 437.911,6.246 C437.98,6.246 438.357,6.281 438.872,6.281 C439.388,6.315 440.074,6.349 440.727,6.349 C441.275,6.349 441.997,6.281 442.408,6.281 C442.89,6.281 443.164,6.349 443.302,6.555 C443.404,6.692 447.387,11.328 448.073,12.048 C448.657,12.666 451.645,16.1 452.159,16.649 L452.297,16.649 L452.297,15.481 C452.297,14.039 452.297,12.426 452.262,11.362 C452.262,10.538 452.091,8.546 451.919,8.135 C451.747,7.723 451.267,7.517 450.717,7.517 L450.134,7.517 C449.962,7.517 449.894,7.448 449.894,7.276 L449.894,6.418 C449.894,6.315 449.962,6.246 450.134,6.246 C450.374,6.246 451.85,6.349 452.948,6.349 C453.67,6.349 454.871,6.246 455.111,6.246 C455.283,6.246 455.352,6.315 455.352,6.555 L455.352,7.276 C455.352,7.414 455.283,7.517 455.146,7.517 L454.803,7.517 C454.047,7.517 453.876,7.757 453.807,8.238 C453.566,9.817 453.636,11.98 453.636,13.353 L453.636,21.387 C453.636,21.868 453.498,22.211 453.154,22.211 C452.846,22.211 452.571,22.005 452.399,21.833 C450.1,19.499 447.867,16.992 445.636,14.555 C444.812,13.662 441.894,10.194 441.413,9.68 L441.345,9.68 L441.345,13.662 C441.345,15.722 441.447,19.155 441.516,19.464 C441.619,20.254 441.997,20.631 442.512,20.631 L443.198,20.631 C443.37,20.631 443.37,20.7 443.37,20.837 L443.37,21.696 C443.37,21.833 443.37,21.902 443.198,21.902 C442.958,21.902 441.585,21.799 440.417,21.799 C439.937,21.799 438.392,21.902 438.117,21.902 C438.049,21.902 438.014,21.833 438.014,21.627 L438.014,20.734 C438.014,20.666 438.049,20.631 438.151,20.631 L438.941,20.631 C439.284,20.631 439.8,20.391 439.902,19.602 C439.937,19.189 440.006,16.752 440.006,12.907 L440.006,9.336" fill="#FFFFFE"></path>
    </g>
</svg>