<?xml version="1.0" encoding="UTF-8"?>
<svg width="300px" height="19px" viewBox="0 0 300 19" version="1.1" xmlns="http://www.w3.org/2000/svg" xmlns:xlink="http://www.w3.org/1999/xlink">
    <title>90 Days with Georgetown</title>
    <defs>
        <path d="M5.51538462,17.1692308 C6.66923077,17.1692308 7.64615385,16.9192308 8.44615385,16.4192308 C9.24615385,15.9192308 9.9,15.2653846 10.4076923,14.4576923 C10.9153846,13.65 11.2846154,12.7461538 11.5153846,11.7461538 C11.7461538,10.7461538 11.8615385,9.74615385 11.8615385,8.74615385 C11.8615385,7.73076923 11.7692308,6.72307692 11.5846154,5.72307692 C11.4,4.72307692 11.0692308,3.82692308 10.5923077,3.03461538 C10.1153846,2.24230769 9.48076923,1.60384615 8.68846154,1.11923077 C7.89615385,0.634615385 6.88461538,0.392307692 5.65384615,0.392307692 C4.80769231,0.392307692 4.03846154,0.546153846 3.34615385,0.853846154 C2.65384615,1.16153846 2.05769231,1.58076923 1.55769231,2.11153846 C1.05769231,2.64230769 0.673076923,3.26538462 0.403846154,3.98076923 C0.134615385,4.69615385 8.19857003e-16,5.46923077 8.19857003e-16,6.3 C8.19857003e-16,6.94615385 0.1,7.58461538 0.3,8.21538462 C0.5,8.84615385 0.815384615,9.40769231 1.24615385,9.9 C1.70769231,10.4076923 2.26923077,10.8115385 2.93076923,11.1115385 C3.59230769,11.4115385 4.26923077,11.5615385 4.96153846,11.5615385 C5.74615385,11.5615385 6.43846154,11.4230769 7.03846154,11.1461538 C7.63846154,10.8692308 8.16153846,10.4076923 8.60769231,9.76153846 L8.65384615,9.80769231 C8.62307692,10.2538462 8.55769231,10.7615385 8.45769231,11.3307692 C8.35769231,11.9 8.19230769,12.4346154 7.96153846,12.9346154 C7.73076923,13.4346154 7.42307692,13.8576923 7.03846154,14.2038462 C6.65384615,14.55 6.16153846,14.7230769 5.56153846,14.7230769 C4.99230769,14.7230769 4.51538462,14.5230769 4.13076923,14.1230769 C3.74615385,13.7230769 3.5,13.2538462 3.39230769,12.7153846 L0.276923077,12.7153846 C0.369230769,13.4230769 0.561538462,14.0538462 0.853846154,14.6076923 C1.14615385,15.1615385 1.52307692,15.6307692 1.98461538,16.0153846 C2.44615385,16.4 2.97692308,16.6884615 3.57692308,16.8807692 C4.17692308,17.0730769 4.82307692,17.1692308 5.51538462,17.1692308 Z M5.74615385,9.09230769 C5.33076923,9.09230769 4.96538462,9.00384615 4.65,8.82692308 C4.33461538,8.65 4.07692308,8.41923077 3.87692308,8.13461538 C3.67692308,7.85 3.52692308,7.52692308 3.42692308,7.16538462 C3.32692308,6.80384615 3.27692308,6.43076923 3.27692308,6.04615385 C3.27692308,5.67692308 3.33076923,5.31538462 3.43846154,4.96153846 C3.54615385,4.60769231 3.70769231,4.29230769 3.92307692,4.01538462 C4.13846154,3.73846154 4.4,3.51538462 4.70769231,3.34615385 C5.01538462,3.17692308 5.36153846,3.09230769 5.74615385,3.09230769 C6.16153846,3.09230769 6.53076923,3.17692308 6.85384615,3.34615385 C7.17692308,3.51538462 7.45,3.74230769 7.67307692,4.02692308 C7.89615385,4.31153846 8.06538462,4.63461538 8.18076923,4.99615385 C8.29615385,5.35769231 8.35384615,5.72307692 8.35384615,6.09230769 C8.35384615,6.49230769 8.3,6.87307692 8.19230769,7.23461538 C8.08461538,7.59615385 7.92307692,7.91538462 7.70769231,8.19230769 C7.49230769,8.46923077 7.22307692,8.68846154 6.9,8.85 C6.57692308,9.01153846 6.19230769,9.09230769 5.74615385,9.09230769 Z" id="path-1"></path>
        <path d="M18.6461538,17.1692308 C19.4615385,17.1692308 20.2269231,17.0307692 20.9423077,16.7538462 C21.6576923,16.4769231 22.2884615,16.0153846 22.8346154,15.3692308 C23.3807692,14.7230769 23.8115385,13.8576923 24.1269231,12.7730769 C24.4423077,11.6884615 24.6,10.3384615 24.6,8.72307692 C24.6,7.15384615 24.4423077,5.83461538 24.1269231,4.76538462 C23.8115385,3.69615385 23.3807692,2.83846154 22.8346154,2.19230769 C22.2884615,1.54615385 21.6576923,1.08461538 20.9423077,0.807692308 C20.2269231,0.530769231 19.4615385,0.392307692 18.6461538,0.392307692 C17.8461538,0.392307692 17.0884615,0.530769231 16.3730769,0.807692308 C15.6576923,1.08461538 15.0307692,1.54615385 14.4923077,2.19230769 C13.9538462,2.83846154 13.5269231,3.69615385 13.2115385,4.76538462 C12.8961538,5.83461538 12.7384615,7.15384615 12.7384615,8.72307692 C12.7384615,10.3384615 12.8961538,11.6884615 13.2115385,12.7730769 C13.5269231,13.8576923 13.9538462,14.7230769 14.4923077,15.3692308 C15.0307692,16.0153846 15.6576923,16.4769231 16.3730769,16.7538462 C17.0884615,17.0307692 17.8461538,17.1692308 18.6461538,17.1692308 Z M18.6461538,14.4923077 C17.9846154,14.4923077 17.4769231,14.2769231 17.1230769,13.8461538 C16.7692308,13.4153846 16.5115385,12.8961538 16.35,12.2884615 C16.1884615,11.6807692 16.0923077,11.05 16.0615385,10.3961538 C16.0307692,9.74230769 16.0153846,9.18461538 16.0153846,8.72307692 C16.0153846,8.44615385 16.0192308,8.11153846 16.0269231,7.71923077 C16.0346154,7.32692308 16.0615385,6.92307692 16.1076923,6.50769231 C16.1538462,6.09230769 16.2307692,5.68076923 16.3384615,5.27307692 C16.4461538,4.86538462 16.5961538,4.5 16.7884615,4.17692308 C16.9807692,3.85384615 17.2269231,3.59230769 17.5269231,3.39230769 C17.8269231,3.19230769 18.2,3.09230769 18.6461538,3.09230769 C19.0923077,3.09230769 19.4692308,3.19230769 19.7769231,3.39230769 C20.0846154,3.59230769 20.3384615,3.85384615 20.5384615,4.17692308 C20.7384615,4.5 20.8884615,4.86538462 20.9884615,5.27307692 C21.0884615,5.68076923 21.1653846,6.09230769 21.2192308,6.50769231 C21.2730769,6.92307692 21.3038462,7.32692308 21.3115385,7.71923077 C21.3192308,8.11153846 21.3230769,8.44615385 21.3230769,8.72307692 C21.3230769,9.18461538 21.3076923,9.74230769 21.2769231,10.3961538 C21.2461538,11.05 21.15,11.6807692 20.9884615,12.2884615 C20.8269231,12.8961538 20.5653846,13.4153846 20.2038462,13.8461538 C19.8423077,14.2769231 19.3230769,14.4923077 18.6461538,14.4923077 Z" id="path-2"></path>
        <path d="M36.5076923,16.8692308 C37.7692308,16.8692308 38.8653846,16.6576923 39.7961538,16.2346154 C40.7269231,15.8115385 41.5038462,15.2307692 42.1269231,14.4923077 C42.75,13.7538462 43.2153846,12.8769231 43.5230769,11.8615385 C43.8307692,10.8461538 43.9846154,9.73846154 43.9846154,8.53846154 C43.9846154,7.16923077 43.7961538,5.97692308 43.4192308,4.96153846 C43.0423077,3.94615385 42.5192308,3.1 41.85,2.42307692 C41.1807692,1.74615385 40.3884615,1.23846154 39.4730769,0.9 C38.5576923,0.561538462 37.5692308,0.392307692 36.5076923,0.392307692 L29.4,0.392307692 L29.4,16.8692308 L36.5076923,16.8692308 Z M36.2538462,13.8230769 L33.0230769,13.8230769 L33.0230769,3.43846154 L35.6076923,3.43846154 C36.5,3.43846154 37.25,3.56538462 37.8576923,3.81923077 C38.4653846,4.07307692 38.9538462,4.43846154 39.3230769,4.91538462 C39.6923077,5.39230769 39.9576923,5.96538462 40.1192308,6.63461538 C40.2807692,7.30384615 40.3615385,8.05384615 40.3615385,8.88461538 C40.3615385,9.79230769 40.2461538,10.5615385 40.0153846,11.1923077 C39.7846154,11.8230769 39.4769231,12.3346154 39.0923077,12.7269231 C38.7076923,13.1192308 38.2692308,13.4 37.7769231,13.5692308 C37.2846154,13.7384615 36.7769231,13.8230769 36.2538462,13.8230769 Z" id="path-3"></path>
        <path d="M47.5384615,16.8692308 L48.8307692,13.2 L54.9923077,13.2 L56.2384615,16.8692308 L60,16.8692308 L53.8384615,0.392307692 L50.1230769,0.392307692 L43.8923077,16.8692308 L47.5384615,16.8692308 Z M54.0461538,10.5 L49.7769231,10.5 L51.9230769,4.45384615 L51.9692308,4.45384615 L54.0461538,10.5 Z" id="path-4"></path>
        <polygon id="path-5" points="67.3153846 16.8692308 67.3153846 10.5461538 73.4307692 0.392307692 69.3923077 0.392307692 65.5615385 6.9 61.7076923 0.392307692 57.6461538 0.392307692 63.6923077 10.4538462 63.6923077 16.8692308"></polygon>
        <path d="M80.1,17.2384615 C81.2230769,17.2384615 82.2115385,17.1076923 83.0653846,16.8461538 C83.9192308,16.5846154 84.6346154,16.2192308 85.2115385,15.75 C85.7884615,15.2807692 86.2230769,14.7230769 86.5153846,14.0769231 C86.8076923,13.4307692 86.9538462,12.7307692 86.9538462,11.9769231 C86.9538462,11.0538462 86.7576923,10.2961538 86.3653846,9.70384615 C85.9730769,9.11153846 85.5076923,8.63846154 84.9692308,8.28461538 C84.4307692,7.93076923 83.8884615,7.67307692 83.3423077,7.51153846 C82.7961538,7.35 82.3692308,7.23846154 82.0615385,7.17692308 C81.0307692,6.91538462 80.1961538,6.7 79.5576923,6.53076923 C78.9192308,6.36153846 78.4192308,6.19230769 78.0576923,6.02307692 C77.6961538,5.85384615 77.4538462,5.66923077 77.3307692,5.46923077 C77.2076923,5.26923077 77.1461538,5.00769231 77.1461538,4.68461538 C77.1461538,4.33076923 77.2230769,4.03846154 77.3769231,3.80769231 C77.5307692,3.57692308 77.7269231,3.38461538 77.9653846,3.23076923 C78.2038462,3.07692308 78.4692308,2.96923077 78.7615385,2.90769231 C79.0538462,2.84615385 79.3461538,2.81538462 79.6384615,2.81538462 C80.0846154,2.81538462 80.4961538,2.85384615 80.8730769,2.93076923 C81.25,3.00769231 81.5846154,3.13846154 81.8769231,3.32307692 C82.1692308,3.50769231 82.4038462,3.76153846 82.5807692,4.08461538 C82.7576923,4.40769231 82.8615385,4.81538462 82.8923077,5.30769231 L86.4,5.30769231 C86.4,4.35384615 86.2192308,3.54230769 85.8576923,2.87307692 C85.4961538,2.20384615 85.0076923,1.65384615 84.3923077,1.22307692 C83.7769231,0.792307692 83.0730769,0.480769231 82.2807692,0.288461538 C81.4884615,0.0961538462 80.6615385,-1.63971401e-15 79.8,-1.63971401e-15 C79.0615385,-1.63971401e-15 78.3230769,0.1 77.5846154,0.3 C76.8461538,0.5 76.1846154,0.807692308 75.6,1.22307692 C75.0153846,1.63846154 74.5423077,2.15769231 74.1807692,2.78076923 C73.8192308,3.40384615 73.6384615,4.13846154 73.6384615,4.98461538 C73.6384615,5.73846154 73.7807692,6.38076923 74.0653846,6.91153846 C74.35,7.44230769 74.7230769,7.88461538 75.1846154,8.23846154 C75.6461538,8.59230769 76.1692308,8.88076923 76.7538462,9.10384615 C77.3384615,9.32692308 77.9384615,9.51538462 78.5538462,9.66923077 C79.1538462,9.83846154 79.7461538,9.99230769 80.3307692,10.1307692 C80.9153846,10.2692308 81.4384615,10.4307692 81.9,10.6153846 C82.3615385,10.8 82.7346154,11.0307692 83.0192308,11.3076923 C83.3038462,11.5846154 83.4461538,11.9461538 83.4461538,12.3923077 C83.4461538,12.8076923 83.3384615,13.15 83.1230769,13.4192308 C82.9076923,13.6884615 82.6384615,13.9 82.3153846,14.0538462 C81.9923077,14.2076923 81.6461538,14.3115385 81.2769231,14.3653846 C80.9076923,14.4192308 80.5615385,14.4461538 80.2384615,14.4461538 C79.7615385,14.4461538 79.3,14.3884615 78.8538462,14.2730769 C78.4076923,14.1576923 78.0192308,13.9807692 77.6884615,13.7423077 C77.3576923,13.5038462 77.0923077,13.1923077 76.8923077,12.8076923 C76.6923077,12.4230769 76.5923077,11.9538462 76.5923077,11.4 L73.0846154,11.4 C73.0692308,12.4153846 73.2538462,13.2923077 73.6384615,14.0307692 C74.0230769,14.7692308 74.5423077,15.3769231 75.1961538,15.8538462 C75.85,16.3307692 76.6038462,16.6807692 77.4576923,16.9038462 C78.3115385,17.1269231 79.1923077,17.2384615 80.1,17.2384615 Z" id="path-6"></path>
        <path d="M11.0307692,15.8076923 C12.8076923,15.8076923 13.7538462,14.7230769 14.4923077,13.6846154 C15.6,12.1615385 16.2461538,10.0384615 16.2461538,8.33076923 C16.2461538,6.57692308 15.5769231,5.97692308 14.7,5.97692308 C14.1,5.97692308 13.6384615,6.43846154 13.6384615,6.99230769 C13.6384615,7.45384615 14.0538462,7.96153846 14.2384615,8.14615385 C14.4692308,8.37692308 14.7230769,9.20769231 14.7230769,9.99230769 C14.7230769,12.2769231 13.2923077,13.9615385 11.7692308,13.9615385 C10.7076923,13.9615385 10.1076923,13.1307692 10.1076923,12.2538462 C10.1076923,11.6538462 10.3846154,10.6846154 10.6384615,9.85384615 C11.0538462,8.56153846 11.6076923,7.40769231 11.6076923,6.9 C11.6076923,6.53076923 11.3307692,6.25384615 10.8692308,6.25384615 C10.4076923,6.25384615 9.80769231,6.48461538 9.66923077,7.03846154 C9.43846154,7.96153846 9.41538462,9.06923077 9.27692308,9.85384615 C9.09230769,10.9615385 8.72307692,12.2307692 8.4,12.6923077 C7.75384615,13.5923077 6.92307692,14.0076923 6.13846154,14.0076923 C5.35384615,13.9615385 4.82307692,13.3153846 4.82307692,12.3461538 C4.82307692,10.3153846 6.6,7.31538462 7.24615385,6.53076923 C7.52307692,6.25384615 7.33846154,6.02307692 7.06153846,6.06923077 L4.84615385,6.20769231 L3,6.20769231 C2.03076923,6.20769231 1.43076923,6.53076923 1.01538462,6.99230769 C0.461538462,7.59230769 -6.55885602e-15,8.23846154 -6.55885602e-15,9.20769231 C-6.55885602e-15,10.3153846 0.646153846,10.9153846 1.2,10.9153846 C1.84615385,10.9153846 2.16923077,10.5 2.16923077,10.0384615 C2.16923077,9.43846154 1.8,9.25384615 1.66153846,9.16153846 C1.43076923,9.06923077 0.969230769,8.88461538 1.01538462,8.46923077 C1.01538462,8.1 1.43076923,7.86923077 1.84615385,7.86923077 L3.69230769,7.86923077 C4.61538462,7.86923077 5.49230769,7.26923077 5.76923077,7.13076923 L5.88461538,7.26923077 C4.84615385,8.46923077 2.76923077,11.5153846 2.76923077,13.5 C2.76923077,14.9307692 3.73846154,15.8076923 4.98461538,15.8076923 C6.73846154,15.8076923 8.21538462,14.2846154 8.76923077,13.5461538 C8.90769231,14.4692308 9.55384615,15.8076923 11.0307692,15.8076923 Z" id="path-7"></path>
        <path d="M22.2692308,3.18461538 C23.1,3.18461538 23.6307692,2.37692308 23.6307692,1.84615385 C23.6307692,1.26923077 23.1461538,0.692307692 22.2230769,0.692307692 C21.5076923,0.692307692 20.9307692,1.31538462 20.9307692,1.93846154 C20.9307692,2.51538462 21.3461538,3.18461538 22.2692308,3.18461538 Z" id="path-8"></path>
        <path d="M18.4384615,15.8076923 C20.9538462,15.8076923 22.5692308,13.5923077 22.7076923,13.4076923 C22.8,13.3153846 22.7538462,13.2692308 22.6615385,13.1769231 L22.4076923,12.9230769 C22.3384615,12.8538462 22.2461538,12.8538462 22.2,12.9461538 C22.0615385,13.1307692 20.8615385,14.3769231 20.4,14.4230769 C20.2153846,14.4230769 20.1230769,14.2846154 20.1230769,14.1 C20.1230769,13.8692308 20.2153846,13.5 20.5384615,12.6230769 L21.8307692,9.11538462 C22.2230769,8.03076923 22.5230769,7.17692308 22.5230769,6.71538462 C22.5230769,6.25384615 22.2461538,5.97692308 21.6923077,5.97692308 C19.6615385,5.97692308 17.5846154,8.65384615 17.4461538,8.79230769 C17.4,8.88461538 17.4461538,8.93076923 17.5384615,9 L17.7692308,9.20769231 C17.8615385,9.3 17.9538462,9.3 18.0461538,9.20769231 C18.3692308,8.83846154 19.4307692,7.63846154 19.8,7.63846154 C19.9846154,7.63846154 20.0769231,7.73076923 20.0769231,7.91538462 C20.0769231,8.19230769 19.9384615,8.63076923 19.7076923,9.25384615 L19.0615385,11.0538462 C18.1384615,13.6153846 17.7692308,14.7 17.7692308,15.1615385 C17.7692308,15.5307692 17.9538462,15.8076923 18.4384615,15.8076923 Z" id="path-9"></path>
        <path d="M24.9923077,15.8076923 C27.0692308,15.8076923 29.1461538,13.8692308 29.4230769,13.5 C29.4692308,13.4076923 29.4692308,13.3615385 29.3769231,13.3153846 L29.1230769,13.0384615 C29.0307692,12.9461538 28.9846154,12.9461538 28.8923077,13.0384615 C28.7538462,13.1769231 27.3230769,14.3307692 26.7923077,14.3307692 C26.5153846,14.3307692 26.3769231,14.1461538 26.3769231,13.9153846 C26.3769231,13.6384615 26.6076923,13.0846154 26.7923077,12.5769231 L28.8230769,7.5 L31.2230769,7.5 C31.3615385,7.5 31.4307692,7.47692308 31.4538462,7.38461538 L31.6384615,6.71538462 C31.6846154,6.57692308 31.6384615,6.48461538 31.5461538,6.48461538 L29.1692308,6.48461538 L30.6692308,3.43846154 C30.7615385,3.20769231 30.6692308,2.97692308 30.5307692,2.97692308 C30.4384615,2.97692308 30.3,3.06923077 30.1615385,3.11538462 C29.9769231,3.25384615 29.0538462,3.66923077 28.5923077,3.71538462 C28.1769231,3.76153846 28.0846154,3.80769231 27.9923077,4.03846154 L27.0461538,6.48461538 L25.2692308,6.48461538 C25.1307692,6.48461538 25.0846154,6.53076923 25.0384615,6.66923077 L24.8538462,7.26923077 C24.8076923,7.45384615 24.8538462,7.5 24.9923077,7.5 L26.7,7.5 L24.2538462,13.8230769 C24.1153846,14.2384615 24.0230769,14.7 24.0230769,15.1153846 C24.0230769,15.4384615 24.3,15.8076923 24.9923077,15.8076923 Z" id="path-10"></path>
        <path d="M34.7538462,16.3153846 C36.2769231,16.3153846 37.5692308,15.0692308 38.5846154,13.2230769 C39.4153846,11.7461538 40.1076923,9.80769231 40.1076923,8.12307692 C40.1076923,7.08461538 39.6923077,5.97692308 38.2615385,5.97692308 C36.5076923,5.97692308 34.9846154,7.68461538 33.8769231,9.34615385 L33.7384615,9.20769231 L37.2461538,0.946153846 C37.3846154,0.6 37.4769231,0.369230769 37.4769231,0.230769231 C37.4769231,0.0923076923 37.3846154,-1.63971401e-15 37.2,-1.63971401e-15 L33.5538462,-1.63971401e-15 C33.3230769,-1.63971401e-15 33.2769231,0.0461538462 33.2307692,0.184615385 L33.1384615,0.6 C33.0923077,0.738461538 33.1846154,0.830769231 33.2769231,0.830769231 L33.9692308,0.830769231 C34.3846154,0.830769231 34.6846154,1.01538462 34.6846154,1.29230769 C34.6846154,1.5 34.5692308,1.89230769 34.3846154,2.37692308 L29.4461538,15.2538462 C29.3769231,15.4384615 29.4230769,15.5769231 29.6307692,15.5769231 L31.1076923,15.5769231 C31.2692308,15.5769231 31.3384615,15.5307692 31.3846154,15.3923077 L32.5846154,12.5769231 C32.8615385,11.7923077 33.3230769,10.9615385 33.8769231,10.2230769 C34.5230769,9.39230769 36.2307692,7.45384615 37.2461538,7.45384615 C37.8,7.45384615 37.9384615,8.00769231 37.9384615,8.53846154 C37.9384615,9.62307692 37.5230769,11.3307692 37.0615385,12.6692308 C36.6923077,13.8692308 36.1846154,15.3230769 35.6769231,15.3230769 C35.3538462,15.3230769 35.2615385,15.0230769 35.2153846,14.7 C35.1692308,14.3307692 34.9384615,13.9153846 34.3846154,13.9153846 C33.7846154,13.9153846 33.4153846,14.5153846 33.4153846,15.0692308 C33.4153846,15.8076923 34.0153846,16.3153846 34.7538462,16.3153846 Z" id="path-11"></path>
        <path d="M8.1,17.2384615 C8.9,17.2384615 9.69230769,17.0730769 10.4769231,16.7423077 C11.2615385,16.4115385 11.9769231,15.8307692 12.6230769,15 L12.9923077,16.8692308 L15.3,16.8692308 L15.3,7.96153846 L8.37692308,7.96153846 L8.37692308,10.6615385 L12.0230769,10.6615385 C11.9153846,11.8153846 11.5346154,12.6961538 10.8807692,13.3038462 C10.2269231,13.9115385 9.3,14.2153846 8.1,14.2153846 C7.28461538,14.2153846 6.59230769,14.0576923 6.02307692,13.7423077 C5.45384615,13.4269231 4.99230769,13.0076923 4.63846154,12.4846154 C4.28461538,11.9615385 4.02692308,11.3730769 3.86538462,10.7192308 C3.70384615,10.0653846 3.62307692,9.39230769 3.62307692,8.7 C3.62307692,7.97692308 3.70384615,7.27692308 3.86538462,6.6 C4.02692308,5.92307692 4.28461538,5.31923077 4.63846154,4.78846154 C4.99230769,4.25769231 5.45384615,3.83461538 6.02307692,3.51923077 C6.59230769,3.20384615 7.28461538,3.04615385 8.1,3.04615385 C8.97692308,3.04615385 9.72307692,3.27692308 10.3384615,3.73846154 C10.9538462,4.2 11.3692308,4.89230769 11.5846154,5.81538462 L15.0461538,5.81538462 C14.9538462,4.87692308 14.7,4.04615385 14.2846154,3.32307692 C13.8692308,2.6 13.3423077,1.99230769 12.7038462,1.5 C12.0653846,1.00769231 11.35,0.634615385 10.5576923,0.380769231 C9.76538462,0.126923077 8.94615385,-1.63971401e-15 8.1,-1.63971401e-15 C6.83846154,-1.63971401e-15 5.70384615,0.223076923 4.69615385,0.669230769 C3.68846154,1.11538462 2.83846154,1.73076923 2.14615385,2.51538462 C1.45384615,3.3 0.923076923,4.21923077 0.553846154,5.27307692 C0.184615385,6.32692308 -8.19857003e-15,7.46923077 -8.19857003e-15,8.7 C-8.19857003e-15,9.9 0.184615385,11.0192308 0.553846154,12.0576923 C0.923076923,13.0961538 1.45384615,14 2.14615385,14.7692308 C2.83846154,15.5384615 3.68846154,16.1423077 4.69615385,16.5807692 C5.70384615,17.0192308 6.83846154,17.2384615 8.1,17.2384615 Z" id="path-12"></path>
        <polygon id="path-13" points="30.6230769 16.8692308 30.6230769 13.8230769 21.7384615 13.8230769 21.7384615 9.78461538 29.7230769 9.78461538 29.7230769 6.96923077 21.7384615 6.96923077 21.7384615 3.43846154 30.4384615 3.43846154 30.4384615 0.392307692 18.1153846 0.392307692 18.1153846 16.8692308"></polygon>
        <path d="M40.0153846,17.2384615 C41.2923077,17.2384615 42.4307692,17.0192308 43.4307692,16.5807692 C44.4307692,16.1423077 45.2769231,15.5384615 45.9692308,14.7692308 C46.6615385,14 47.1923077,13.0961538 47.5615385,12.0576923 C47.9307692,11.0192308 48.1153846,9.9 48.1153846,8.7 C48.1153846,7.46923077 47.9307692,6.32692308 47.5615385,5.27307692 C47.1923077,4.21923077 46.6615385,3.3 45.9692308,2.51538462 C45.2769231,1.73076923 44.4307692,1.11538462 43.4307692,0.669230769 C42.4307692,0.223076923 41.2923077,-1.63971401e-15 40.0153846,-1.63971401e-15 C38.7538462,-1.63971401e-15 37.6192308,0.223076923 36.6115385,0.669230769 C35.6038462,1.11538462 34.7538462,1.73076923 34.0615385,2.51538462 C33.3692308,3.3 32.8384615,4.21923077 32.4692308,5.27307692 C32.1,6.32692308 31.9153846,7.46923077 31.9153846,8.7 C31.9153846,9.9 32.1,11.0192308 32.4692308,12.0576923 C32.8384615,13.0961538 33.3692308,14 34.0615385,14.7692308 C34.7538462,15.5384615 35.6038462,16.1423077 36.6115385,16.5807692 C37.6192308,17.0192308 38.7538462,17.2384615 40.0153846,17.2384615 Z M40.0153846,14.2153846 C39.2,14.2153846 38.5076923,14.0576923 37.9384615,13.7423077 C37.3692308,13.4269231 36.9076923,13.0076923 36.5538462,12.4846154 C36.2,11.9615385 35.9423077,11.3730769 35.7807692,10.7192308 C35.6192308,10.0653846 35.5384615,9.39230769 35.5384615,8.7 C35.5384615,7.97692308 35.6192308,7.27692308 35.7807692,6.6 C35.9423077,5.92307692 36.2,5.31923077 36.5538462,4.78846154 C36.9076923,4.25769231 37.3692308,3.83461538 37.9384615,3.51923077 C38.5076923,3.20384615 39.2,3.04615385 40.0153846,3.04615385 C40.8307692,3.04615385 41.5230769,3.20384615 42.0923077,3.51923077 C42.6615385,3.83461538 43.1230769,4.25769231 43.4769231,4.78846154 C43.8307692,5.31923077 44.0884615,5.92307692 44.25,6.6 C44.4115385,7.27692308 44.4923077,7.97692308 44.4923077,8.7 C44.4923077,9.39230769 44.4115385,10.0653846 44.25,10.7192308 C44.0884615,11.3730769 43.8307692,11.9615385 43.4769231,12.4846154 C43.1230769,13.0076923 42.6615385,13.4269231 42.0923077,13.7423077 C41.5230769,14.0576923 40.8307692,14.2153846 40.0153846,14.2153846 Z" id="path-14"></path>
        <path d="M53.4923077,16.8692308 L53.4923077,10.4307692 L57.1153846,10.4307692 C58.0230769,10.4307692 58.6769231,10.6307692 59.0769231,11.0307692 C59.4769231,11.4307692 59.7384615,12.0615385 59.8615385,12.9230769 C59.9538462,13.5846154 60.0230769,14.2769231 60.0692308,15 C60.1153846,15.7230769 60.2384615,16.3461538 60.4384615,16.8692308 L64.0615385,16.8692308 C63.8923077,16.6384615 63.7653846,16.3576923 63.6807692,16.0269231 C63.5961538,15.6961538 63.5346154,15.3461538 63.4961538,14.9769231 C63.4576923,14.6076923 63.4307692,14.2461538 63.4153846,13.8923077 C63.4,13.5384615 63.3846154,13.2307692 63.3692308,12.9692308 C63.3384615,12.5538462 63.2807692,12.1384615 63.1961538,11.7230769 C63.1115385,11.3076923 62.9769231,10.9269231 62.7923077,10.5807692 C62.6076923,10.2346154 62.3692308,9.93461538 62.0769231,9.68076923 C61.7846154,9.42692308 61.4153846,9.23846154 60.9692308,9.11538462 L60.9692308,9.06923077 C61.8923077,8.7 62.5576923,8.16153846 62.9653846,7.45384615 C63.3730769,6.74615385 63.5769231,5.90769231 63.5769231,4.93846154 C63.5769231,4.30769231 63.4653846,3.71923077 63.2423077,3.17307692 C63.0192308,2.62692308 62.6961538,2.14615385 62.2730769,1.73076923 C61.85,1.31538462 61.3423077,0.988461538 60.75,0.75 C60.1576923,0.511538462 59.4923077,0.392307692 58.7538462,0.392307692 L49.8692308,0.392307692 L49.8692308,16.8692308 L53.4923077,16.8692308 Z M57.4615385,7.84615385 L53.4923077,7.84615385 L53.4923077,3.20769231 L57.4615385,3.20769231 C58.2923077,3.20769231 58.9153846,3.38846154 59.3307692,3.75 C59.7461538,4.11153846 59.9538462,4.69230769 59.9538462,5.49230769 C59.9538462,6.32307692 59.7461538,6.92307692 59.3307692,7.29230769 C58.9153846,7.66153846 58.2923077,7.84615385 57.4615385,7.84615385 Z" id="path-15"></path>
        <path d="M73.4538462,17.2384615 C74.2538462,17.2384615 75.0461538,17.0730769 75.8307692,16.7423077 C76.6153846,16.4115385 77.3307692,15.8307692 77.9769231,15 L78.3461538,16.8692308 L80.6538462,16.8692308 L80.6538462,7.96153846 L73.7307692,7.96153846 L73.7307692,10.6615385 L77.3769231,10.6615385 C77.2692308,11.8153846 76.8884615,12.6961538 76.2346154,13.3038462 C75.5807692,13.9115385 74.6538462,14.2153846 73.4538462,14.2153846 C72.6384615,14.2153846 71.9461538,14.0576923 71.3769231,13.7423077 C70.8076923,13.4269231 70.3461538,13.0076923 69.9923077,12.4846154 C69.6384615,11.9615385 69.3807692,11.3730769 69.2192308,10.7192308 C69.0576923,10.0653846 68.9769231,9.39230769 68.9769231,8.7 C68.9769231,7.97692308 69.0576923,7.27692308 69.2192308,6.6 C69.3807692,5.92307692 69.6384615,5.31923077 69.9923077,4.78846154 C70.3461538,4.25769231 70.8076923,3.83461538 71.3769231,3.51923077 C71.9461538,3.20384615 72.6384615,3.04615385 73.4538462,3.04615385 C74.3307692,3.04615385 75.0769231,3.27692308 75.6923077,3.73846154 C76.3076923,4.2 76.7230769,4.89230769 76.9384615,5.81538462 L80.4,5.81538462 C80.3076923,4.87692308 80.0538462,4.04615385 79.6384615,3.32307692 C79.2230769,2.6 78.6961538,1.99230769 78.0576923,1.5 C77.4192308,1.00769231 76.7038462,0.634615385 75.9115385,0.380769231 C75.1192308,0.126923077 74.3,-1.63971401e-15 73.4538462,-1.63971401e-15 C72.1923077,-1.63971401e-15 71.0576923,0.223076923 70.05,0.669230769 C69.0423077,1.11538462 68.1923077,1.73076923 67.5,2.51538462 C66.8076923,3.3 66.2769231,4.21923077 65.9076923,5.27307692 C65.5384615,6.32692308 65.3538462,7.46923077 65.3538462,8.7 C65.3538462,9.9 65.5384615,11.0192308 65.9076923,12.0576923 C66.2769231,13.0961538 66.8076923,14 67.5,14.7692308 C68.1923077,15.5384615 69.0423077,16.1423077 70.05,16.5807692 C71.0576923,17.0192308 72.1923077,17.2384615 73.4538462,17.2384615 Z" id="path-16"></path>
        <polygon id="path-17" points="95.9769231 16.8692308 95.9769231 13.8230769 87.0923077 13.8230769 87.0923077 9.78461538 95.0769231 9.78461538 95.0769231 6.96923077 87.0923077 6.96923077 87.0923077 3.43846154 95.7923077 3.43846154 95.7923077 0.392307692 83.4692308 0.392307692 83.4692308 16.8692308"></polygon>
        <polygon id="path-18" points="105.669231 16.8692308 105.669231 3.43846154 110.607692 3.43846154 110.607692 0.392307692 97.1076923 0.392307692 97.1076923 3.43846154 102.046154 3.43846154 102.046154 16.8692308"></polygon>
        <path d="M118.8,17.2384615 C120.076923,17.2384615 121.215385,17.0192308 122.215385,16.5807692 C123.215385,16.1423077 124.061538,15.5384615 124.753846,14.7692308 C125.446154,14 125.976923,13.0961538 126.346154,12.0576923 C126.715385,11.0192308 126.9,9.9 126.9,8.7 C126.9,7.46923077 126.715385,6.32692308 126.346154,5.27307692 C125.976923,4.21923077 125.446154,3.3 124.753846,2.51538462 C124.061538,1.73076923 123.215385,1.11538462 122.215385,0.669230769 C121.215385,0.223076923 120.076923,-1.63971401e-15 118.8,-1.63971401e-15 C117.538462,-1.63971401e-15 116.403846,0.223076923 115.396154,0.669230769 C114.388462,1.11538462 113.538462,1.73076923 112.846154,2.51538462 C112.153846,3.3 111.623077,4.21923077 111.253846,5.27307692 C110.884615,6.32692308 110.7,7.46923077 110.7,8.7 C110.7,9.9 110.884615,11.0192308 111.253846,12.0576923 C111.623077,13.0961538 112.153846,14 112.846154,14.7692308 C113.538462,15.5384615 114.388462,16.1423077 115.396154,16.5807692 C116.403846,17.0192308 117.538462,17.2384615 118.8,17.2384615 Z M118.8,14.2153846 C117.984615,14.2153846 117.292308,14.0576923 116.723077,13.7423077 C116.153846,13.4269231 115.692308,13.0076923 115.338462,12.4846154 C114.984615,11.9615385 114.726923,11.3730769 114.565385,10.7192308 C114.403846,10.0653846 114.323077,9.39230769 114.323077,8.7 C114.323077,7.97692308 114.403846,7.27692308 114.565385,6.6 C114.726923,5.92307692 114.984615,5.31923077 115.338462,4.78846154 C115.692308,4.25769231 116.153846,3.83461538 116.723077,3.51923077 C117.292308,3.20384615 117.984615,3.04615385 118.8,3.04615385 C119.615385,3.04615385 120.307692,3.20384615 120.876923,3.51923077 C121.446154,3.83461538 121.907692,4.25769231 122.261538,4.78846154 C122.615385,5.31923077 122.873077,5.92307692 123.034615,6.6 C123.196154,7.27692308 123.276923,7.97692308 123.276923,8.7 C123.276923,9.39230769 123.196154,10.0653846 123.034615,10.7192308 C122.873077,11.3730769 122.615385,11.9615385 122.261538,12.4846154 C121.907692,13.0076923 121.446154,13.4269231 120.876923,13.7423077 C120.307692,14.0576923 119.615385,14.2153846 118.8,14.2153846 Z" id="path-19"></path>
        <polygon id="path-20" points="135.184615 16.8692308 137.930769 5.65384615 137.976923 5.65384615 140.769231 16.8692308 144.369231 16.8692308 148.8 0.392307692 145.246154 0.392307692 142.546154 11.7461538 142.5 11.7461538 139.684615 0.392307692 136.292308 0.392307692 133.430769 11.6076923 133.384615 11.6076923 130.776923 0.392307692 127.153846 0.392307692 131.515385 16.8692308"></polygon>
        <polygon id="path-21" points="153.669231 16.8692308 153.669231 5.83846154 153.715385 5.83846154 160.569231 16.8692308 164.192308 16.8692308 164.192308 0.392307692 160.8 0.392307692 160.8 11.4461538 160.753846 11.4461538 153.876923 0.392307692 150.276923 0.392307692 150.276923 16.8692308"></polygon>
    </defs>
    <g id="Page-1" stroke="none" stroke-width="1" fill="none" fill-rule="evenodd">
        <g id="desktop/giving-and-events/footer" transform="translate(-77.000000, -42.000000)" fill="#FFFFFF" fill-rule="nonzero">
            <g id="90Days_oneline" transform="translate(77.000000, 42.000000)">
                <g id="Group-3">
                    <g id="9">
                        <use xlink:href="#path-1"></use>
                        <use xlink:href="#path-1"></use>
                    </g>
                    <g id="0">
                        <use xlink:href="#path-2"></use>
                        <use xlink:href="#path-2"></use>
                    </g>
                    <g id="D">
                        <use xlink:href="#path-3"></use>
                        <use xlink:href="#path-3"></use>
                    </g>
                    <g id="A">
                        <use xlink:href="#path-4"></use>
                        <use xlink:href="#path-4"></use>
                    </g>
                    <g id="Y">
                        <use xlink:href="#path-5"></use>
                        <use xlink:href="#path-5"></use>
                    </g>
                    <g id="S">
                        <use xlink:href="#path-6"></use>
                        <use xlink:href="#path-6"></use>
                    </g>
                </g>
                <g id="Group-4" transform="translate(90.784615, 1.292308)">
                    <g id="Path">
                        <use xlink:href="#path-7"></use>
                        <use xlink:href="#path-7"></use>
                    </g>
                    <g id="Path">
                        <use xlink:href="#path-8"></use>
                        <use xlink:href="#path-8"></use>
                    </g>
                    <g id="Path">
                        <use xlink:href="#path-9"></use>
                        <use xlink:href="#path-9"></use>
                    </g>
                    <g id="Path">
                        <use xlink:href="#path-10"></use>
                        <use xlink:href="#path-10"></use>
                    </g>
                    <g id="h">
                        <use xlink:href="#path-11"></use>
                        <use xlink:href="#path-11"></use>
                    </g>
                </g>
                <g id="Group-2" transform="translate(134.492308, 0.000000)">
                    <g id="G">
                        <use xlink:href="#path-12"></use>
                        <use xlink:href="#path-12"></use>
                    </g>
                    <g id="E">
                        <use xlink:href="#path-13"></use>
                        <use xlink:href="#path-13"></use>
                    </g>
                    <g id="O">
                        <use xlink:href="#path-14"></use>
                        <use xlink:href="#path-14"></use>
                    </g>
                    <g id="R">
                        <use xlink:href="#path-15"></use>
                        <use xlink:href="#path-15"></use>
                    </g>
                    <g id="G">
                        <use xlink:href="#path-16"></use>
                        <use xlink:href="#path-16"></use>
                    </g>
                    <g id="E">
                        <use xlink:href="#path-17"></use>
                        <use xlink:href="#path-17"></use>
                    </g>
                    <g id="T">
                        <use xlink:href="#path-18"></use>
                        <use xlink:href="#path-18"></use>
                    </g>
                    <g id="O">
                        <use xlink:href="#path-19"></use>
                        <use xlink:href="#path-19"></use>
                    </g>
                    <g id="W">
                        <use xlink:href="#path-20"></use>
                        <use xlink:href="#path-20"></use>
                    </g>
                    <g id="N">
                        <use xlink:href="#path-21"></use>
                        <use xlink:href="#path-21"></use>
                    </g>
                </g>
            </g>
        </g>
    </g>
</svg>