<?xml version="1.0" encoding="UTF-8"?>
<svg width="559px" height="30px" viewBox="0 0 559 30" version="1.1" xmlns="http://www.w3.org/2000/svg" xmlns:xlink="http://www.w3.org/1999/xlink">
    <title>Georgetown University 90 Days with Georgetown</title>
    <defs>
        <path d="M326.354251,22.5546559 C327.265182,22.5546559 328.036437,22.3572874 328.668016,21.9625506 C329.299595,21.5678138 329.815789,21.0516194 330.216599,20.4139676 C330.617409,19.7763158 330.908907,19.062753 331.091093,18.2732794 C331.273279,17.4838057 331.364372,16.694332 331.364372,15.9048583 C331.364372,15.1032389 331.291498,14.3076923 331.145749,13.5182186 C331,12.7287449 330.738866,12.0212551 330.362348,11.395749 C329.98583,10.7702429 329.484818,10.2661943 328.859312,9.88360324 C328.233806,9.50101215 327.435223,9.3097166 326.463563,9.3097166 C325.795547,9.3097166 325.188259,9.43117409 324.6417,9.67408907 C324.095142,9.91700405 323.624494,10.2479757 323.229757,10.667004 C322.83502,11.0860324 322.531377,11.5779352 322.318826,12.1427126 C322.106275,12.7074899 322,13.3178138 322,13.9736842 C322,14.4838057 322.078947,14.9878543 322.236842,15.48583 C322.394737,15.9838057 322.643725,16.4271255 322.983806,16.8157895 C323.348178,17.2165992 323.791498,17.5354251 324.313765,17.7722672 C324.836032,18.0091093 325.370445,18.1275304 325.917004,18.1275304 C326.536437,18.1275304 327.082996,18.0182186 327.55668,17.7995951 C328.030364,17.5809717 328.44332,17.2165992 328.795547,16.7064777 L328.831984,16.742915 C328.807692,17.0951417 328.756073,17.4959514 328.677126,17.9453441 C328.598178,18.3947368 328.467611,18.8168016 328.285425,19.2115385 C328.103239,19.6062753 327.860324,19.9402834 327.55668,20.2135628 C327.253036,20.4868421 326.864372,20.6234818 326.390688,20.6234818 C325.941296,20.6234818 325.564777,20.465587 325.261134,20.1497976 C324.95749,19.8340081 324.763158,19.4635628 324.678138,19.0384615 L322.218623,19.0384615 C322.291498,19.597166 322.44332,20.0951417 322.674089,20.5323887 C322.904858,20.9696356 323.202429,21.340081 323.566802,21.6437247 C323.931174,21.9473684 324.350202,22.1751012 324.823887,22.3269231 C325.297571,22.4787449 325.807692,22.5546559 326.354251,22.5546559 Z M326.536437,16.1781377 C326.208502,16.1781377 325.92004,16.1082996 325.671053,15.9686235 C325.422065,15.8289474 325.218623,15.6467611 325.060729,15.4220648 C324.902834,15.1973684 324.784413,14.9423077 324.705466,14.6568826 C324.626518,14.3714575 324.587045,14.0769231 324.587045,13.7732794 C324.587045,13.4817814 324.629555,13.1963563 324.714575,12.917004 C324.799595,12.6376518 324.927126,12.388664 325.097166,12.1700405 C325.267206,11.951417 325.473684,11.7753036 325.716599,11.6417004 C325.959514,11.5080972 326.232794,11.4412955 326.536437,11.4412955 C326.864372,11.4412955 327.15587,11.5080972 327.410931,11.6417004 C327.665992,11.7753036 327.881579,11.9544534 328.057692,12.1791498 C328.233806,12.4038462 328.367409,12.6589069 328.458502,12.944332 C328.549595,13.2297571 328.595142,13.5182186 328.595142,13.8097166 C328.595142,14.1255061 328.552632,14.4261134 328.467611,14.7115385 C328.382591,14.9969636 328.255061,15.2489879 328.08502,15.4676113 C327.91498,15.6862348 327.702429,15.8593117 327.447368,15.9868421 C327.192308,16.1143725 326.888664,16.1781377 326.536437,16.1781377 Z" id="path-1"></path>
        <path d="M336.720648,22.5546559 C337.364372,22.5546559 337.968623,22.4453441 338.533401,22.2267206 C339.098178,22.0080972 339.596154,21.6437247 340.027328,21.1336032 C340.458502,20.6234818 340.798583,19.9402834 341.047571,19.0840081 C341.296559,18.2277328 341.421053,17.1619433 341.421053,15.8866397 C341.421053,14.6477733 341.296559,13.6062753 341.047571,12.7621457 C340.798583,11.9180162 340.458502,11.2408907 340.027328,10.7307692 C339.596154,10.2206478 339.098178,9.8562753 338.533401,9.63765182 C337.968623,9.41902834 337.364372,9.3097166 336.720648,9.3097166 C336.089069,9.3097166 335.490891,9.41902834 334.926113,9.63765182 C334.361336,9.8562753 333.866397,10.2206478 333.441296,10.7307692 C333.016194,11.2408907 332.67915,11.9180162 332.430162,12.7621457 C332.181174,13.6062753 332.05668,14.6477733 332.05668,15.8866397 C332.05668,17.1619433 332.181174,18.2277328 332.430162,19.0840081 C332.67915,19.9402834 333.016194,20.6234818 333.441296,21.1336032 C333.866397,21.6437247 334.361336,22.0080972 334.926113,22.2267206 C335.490891,22.4453441 336.089069,22.5546559 336.720648,22.5546559 Z M336.720648,20.4412955 C336.198381,20.4412955 335.797571,20.2712551 335.518219,19.9311741 C335.238866,19.5910931 335.035425,19.1811741 334.907895,18.701417 C334.780364,18.2216599 334.704453,17.7236842 334.680162,17.2074899 C334.65587,16.6912955 334.643725,16.2510121 334.643725,15.8866397 C334.643725,15.6680162 334.646761,15.4038462 334.652834,15.0941296 C334.658907,14.784413 334.680162,14.465587 334.716599,14.1376518 C334.753036,13.8097166 334.813765,13.4848178 334.898785,13.1629555 C334.983806,12.8410931 335.102227,12.5526316 335.254049,12.2975709 C335.40587,12.0425101 335.600202,11.8360324 335.837045,11.6781377 C336.073887,11.5202429 336.368421,11.4412955 336.720648,11.4412955 C337.072874,11.4412955 337.370445,11.5202429 337.61336,11.6781377 C337.856275,11.8360324 338.05668,12.0425101 338.214575,12.2975709 C338.37247,12.5526316 338.490891,12.8410931 338.569838,13.1629555 C338.648785,13.4848178 338.709514,13.8097166 338.752024,14.1376518 C338.794534,14.465587 338.818826,14.784413 338.824899,15.0941296 C338.830972,15.4038462 338.834008,15.6680162 338.834008,15.8866397 C338.834008,16.2510121 338.821862,16.6912955 338.797571,17.2074899 C338.773279,17.7236842 338.697368,18.2216599 338.569838,18.701417 C338.442308,19.1811741 338.23583,19.5910931 337.950405,19.9311741 C337.66498,20.2712551 337.255061,20.4412955 336.720648,20.4412955 Z" id="path-2"></path>
        <path d="M350.821862,22.3178138 C351.817814,22.3178138 352.683198,22.1508097 353.418016,21.8168016 C354.152834,21.4827935 354.766194,21.0242915 355.258097,20.4412955 C355.75,19.8582996 356.117409,19.1659919 356.360324,18.3643725 C356.603239,17.562753 356.724696,16.6882591 356.724696,15.7408907 C356.724696,14.659919 356.575911,13.7186235 356.27834,12.917004 C355.980769,12.1153846 355.567814,11.4473684 355.039474,10.9129555 C354.511134,10.3785425 353.885628,9.97773279 353.162955,9.71052632 C352.440283,9.44331984 351.659919,9.3097166 350.821862,9.3097166 L345.210526,9.3097166 L345.210526,22.3178138 L350.821862,22.3178138 Z M350.621457,19.9129555 L348.07085,19.9129555 L348.07085,11.7145749 L350.111336,11.7145749 C350.815789,11.7145749 351.407895,11.8147773 351.887652,12.0151822 C352.367409,12.215587 352.753036,12.5040486 353.044534,12.8805668 C353.336032,13.257085 353.545547,13.7095142 353.673077,14.2378543 C353.800607,14.7661943 353.864372,15.3582996 353.864372,16.01417 C353.864372,16.7307692 353.773279,17.3380567 353.591093,17.8360324 C353.408907,18.3340081 353.165992,18.7378543 352.862348,19.0475709 C352.558704,19.3572874 352.212551,19.5789474 351.823887,19.7125506 C351.435223,19.8461538 351.034413,19.9129555 350.621457,19.9129555 Z" id="path-3"></path>
        <path d="M359.530364,22.3178138 L360.550607,19.4210526 L365.41498,19.4210526 L366.398785,22.3178138 L369.368421,22.3178138 L364.504049,9.3097166 L361.57085,9.3097166 L356.651822,22.3178138 L359.530364,22.3178138 Z M364.668016,17.2894737 L361.297571,17.2894737 L362.991903,12.5161943 L363.02834,12.5161943 L364.668016,17.2894737 Z" id="path-4"></path>
        <polygon id="path-5" points="375.143725 22.3178138 375.143725 17.3259109 379.97166 9.3097166 376.783401 9.3097166 373.759109 14.4473684 370.716599 9.3097166 367.510121 9.3097166 372.283401 17.2530364 372.283401 22.3178138"></polygon>
        <path d="M385.236842,22.6093117 C386.123482,22.6093117 386.903846,22.5060729 387.577935,22.2995951 C388.252024,22.0931174 388.816802,21.8046559 389.272267,21.4342105 C389.727733,21.0637652 390.07085,20.6234818 390.301619,20.1133603 C390.532389,19.6032389 390.647773,19.0506073 390.647773,18.4554656 C390.647773,17.7267206 390.492915,17.1285425 390.183198,16.6609312 C389.873482,16.1933198 389.506073,15.8198381 389.080972,15.5404858 C388.65587,15.2611336 388.227733,15.0576923 387.796559,14.9301619 C387.365385,14.8026316 387.02834,14.7145749 386.785425,14.6659919 C385.97166,14.4595142 385.312753,14.2894737 384.808704,14.1558704 C384.304656,14.0222672 383.909919,13.888664 383.624494,13.7550607 C383.339069,13.6214575 383.147773,13.4757085 383.050607,13.3178138 C382.953441,13.159919 382.904858,12.9534413 382.904858,12.6983806 C382.904858,12.4190283 382.965587,12.1882591 383.087045,12.0060729 C383.208502,11.8238866 383.36336,11.6720648 383.551619,11.5506073 C383.739879,11.4291498 383.949393,11.3441296 384.180162,11.2955466 C384.410931,11.2469636 384.6417,11.2226721 384.87247,11.2226721 C385.224696,11.2226721 385.549595,11.2530364 385.847166,11.3137652 C386.144737,11.3744939 386.408907,11.4777328 386.639676,11.6234818 C386.870445,11.7692308 387.055668,11.9696356 387.195344,12.2246964 C387.33502,12.4797571 387.417004,12.8016194 387.441296,13.1902834 L390.210526,13.1902834 C390.210526,12.437247 390.067814,11.7965587 389.782389,11.2682186 C389.496964,10.7398785 389.111336,10.305668 388.625506,9.96558704 C388.139676,9.62550607 387.584008,9.37955466 386.958502,9.22773279 C386.332996,9.07591093 385.680162,9 385,9 C384.417004,9 383.834008,9.07894737 383.251012,9.23684211 C382.668016,9.39473684 382.145749,9.63765182 381.684211,9.96558704 C381.222672,10.2935223 380.84919,10.7034413 380.563765,11.1953441 C380.27834,11.687247 380.135628,12.2672065 380.135628,12.9352227 C380.135628,13.5303644 380.247976,14.0374494 380.472672,14.4564777 C380.697368,14.8755061 380.991903,15.2246964 381.356275,15.5040486 C381.720648,15.7834008 382.133603,16.0111336 382.595142,16.187247 C383.05668,16.3633603 383.530364,16.5121457 384.016194,16.6336032 C384.489879,16.7672065 384.95749,16.888664 385.419028,16.9979757 C385.880567,17.1072874 386.293522,17.2348178 386.657895,17.3805668 C387.022267,17.5263158 387.316802,17.708502 387.541498,17.9271255 C387.766194,18.145749 387.878543,18.4311741 387.878543,18.7834008 C387.878543,19.111336 387.793522,19.3815789 387.623482,19.5941296 C387.453441,19.8066802 387.240891,19.9736842 386.98583,20.0951417 C386.730769,20.2165992 386.45749,20.298583 386.165992,20.3410931 C385.874494,20.3836032 385.601215,20.4048583 385.346154,20.4048583 C384.969636,20.4048583 384.605263,20.3593117 384.253036,20.2682186 C383.90081,20.1771255 383.59413,20.0374494 383.332996,19.8491903 C383.071862,19.6609312 382.862348,19.4149798 382.704453,19.111336 C382.546559,18.8076923 382.467611,18.437247 382.467611,18 L379.698381,18 C379.686235,18.8016194 379.831984,19.4939271 380.135628,20.0769231 C380.439271,20.659919 380.84919,21.1396761 381.365385,21.5161943 C381.881579,21.8927126 382.476721,22.1690283 383.15081,22.3451417 C383.824899,22.5212551 384.520243,22.6093117 385.236842,22.6093117 Z" id="path-6"></path>
        <path d="M402.380567,22.5 C403.783401,22.5 404.530364,21.6437247 405.11336,20.8238866 C405.987854,19.6214575 406.497976,17.9453441 406.497976,16.597166 C406.497976,15.2125506 405.969636,14.7388664 405.277328,14.7388664 C404.803644,14.7388664 404.439271,15.1032389 404.439271,15.5404858 C404.439271,15.9048583 404.767206,16.305668 404.912955,16.451417 C405.095142,16.6336032 405.295547,17.2894737 405.295547,17.9089069 C405.295547,19.7125506 404.165992,21.0425101 402.963563,21.0425101 C402.125506,21.0425101 401.651822,20.3866397 401.651822,19.694332 C401.651822,19.2206478 401.870445,18.4554656 402.07085,17.7995951 C402.398785,16.7793522 402.836032,15.8684211 402.836032,15.4676113 C402.836032,15.1761134 402.617409,14.9574899 402.253036,14.9574899 C401.888664,14.9574899 401.41498,15.1396761 401.305668,15.5769231 C401.123482,16.305668 401.105263,17.1801619 400.995951,17.7995951 C400.850202,18.6740891 400.558704,19.6761134 400.303644,20.0404858 C399.793522,20.7510121 399.137652,21.0789474 398.518219,21.0789474 C397.898785,21.0425101 397.479757,20.5323887 397.479757,19.7672065 C397.479757,18.1639676 398.882591,15.7955466 399.392713,15.1761134 C399.611336,14.9574899 399.465587,14.7753036 399.246964,14.8117409 L397.497976,14.9210526 L396.040486,14.9210526 C395.275304,14.9210526 394.801619,15.1761134 394.473684,15.5404858 C394.036437,16.01417 393.672065,16.5242915 393.672065,17.2894737 C393.672065,18.1639676 394.182186,18.6376518 394.619433,18.6376518 C395.129555,18.6376518 395.384615,18.3097166 395.384615,17.9453441 C395.384615,17.4716599 395.093117,17.3259109 394.983806,17.2530364 C394.801619,17.1801619 394.437247,17.034413 394.473684,16.7064777 C394.473684,16.4149798 394.801619,16.2327935 395.129555,16.2327935 L396.587045,16.2327935 C397.315789,16.2327935 398.008097,15.7591093 398.226721,15.6497976 L398.317814,15.7591093 C397.497976,16.7064777 395.8583,19.111336 395.8583,20.6781377 C395.8583,21.8076923 396.623482,22.5 397.607287,22.5 C398.991903,22.5 400.157895,21.2975709 400.595142,20.7145749 C400.704453,21.4433198 401.214575,22.5 402.380567,22.5 Z" id="path-7"></path>
        <path d="M411.253036,12.534413 C411.908907,12.534413 412.327935,11.8967611 412.327935,11.4777328 C412.327935,11.0222672 411.945344,10.5668016 411.216599,10.5668016 C410.651822,10.5668016 410.196356,11.0587045 410.196356,11.5506073 C410.196356,12.0060729 410.524291,12.534413 411.253036,12.534413 Z" id="path-8"></path>
        <path d="M408.228745,22.5 C410.214575,22.5 411.489879,20.7510121 411.59919,20.6052632 C411.672065,20.5323887 411.635628,20.4959514 411.562753,20.4230769 L411.362348,20.2226721 C411.307692,20.1680162 411.234818,20.1680162 411.198381,20.2408907 C411.089069,20.3866397 410.1417,21.3704453 409.777328,21.4068826 C409.631579,21.4068826 409.558704,21.2975709 409.558704,21.1518219 C409.558704,20.9696356 409.631579,20.6781377 409.88664,19.98583 L410.906883,17.2165992 C411.216599,16.3603239 411.453441,15.6862348 411.453441,15.3218623 C411.453441,14.9574899 411.234818,14.7388664 410.797571,14.7388664 C409.194332,14.7388664 407.554656,16.8522267 407.445344,16.9615385 C407.408907,17.034413 407.445344,17.0708502 407.518219,17.1255061 L407.700405,17.2894737 C407.773279,17.3623482 407.846154,17.3623482 407.919028,17.2894737 C408.174089,16.9979757 409.012146,16.0506073 409.303644,16.0506073 C409.449393,16.0506073 409.522267,16.1234818 409.522267,16.2692308 C409.522267,16.4878543 409.412955,16.8340081 409.230769,17.3259109 L408.720648,18.7469636 C407.991903,20.7692308 407.700405,21.6255061 407.700405,21.9898785 C407.700405,22.2813765 407.846154,22.5 408.228745,22.5 Z" id="path-9"></path>
        <path d="M413.402834,22.5 C415.04251,22.5 416.682186,20.9696356 416.90081,20.6781377 C416.937247,20.6052632 416.937247,20.5688259 416.864372,20.5323887 L416.663968,20.3137652 C416.591093,20.2408907 416.554656,20.2408907 416.481781,20.3137652 C416.37247,20.4230769 415.242915,21.3340081 414.823887,21.3340081 C414.605263,21.3340081 414.495951,21.1882591 414.495951,21.0060729 C414.495951,20.7874494 414.678138,20.3502024 414.823887,19.9493927 L416.427126,15.9412955 L418.321862,15.9412955 C418.431174,15.9412955 418.48583,15.9230769 418.504049,15.8502024 L418.649798,15.3218623 C418.686235,15.2125506 418.649798,15.1396761 418.576923,15.1396761 L416.700405,15.1396761 L417.884615,12.7348178 C417.95749,12.5526316 417.884615,12.3704453 417.775304,12.3704453 C417.702429,12.3704453 417.593117,12.4433198 417.483806,12.4797571 C417.338057,12.5890688 416.609312,12.917004 416.244939,12.9534413 C415.917004,12.9898785 415.84413,13.0263158 415.771255,13.208502 L415.024291,15.1396761 L413.621457,15.1396761 C413.512146,15.1396761 413.475709,15.1761134 413.439271,15.2854251 L413.293522,15.7591093 C413.257085,15.9048583 413.293522,15.9412955 413.402834,15.9412955 L414.751012,15.9412955 L412.819838,20.9331984 C412.710526,21.2611336 412.637652,21.6255061 412.637652,21.9534413 C412.637652,22.208502 412.856275,22.5 413.402834,22.5 Z" id="path-10"></path>
        <path d="M421.109312,22.9008097 C422.311741,22.9008097 423.331984,21.917004 424.133603,20.4595142 C424.789474,19.2935223 425.336032,17.7631579 425.336032,16.4331984 C425.336032,15.6133603 425.008097,14.7388664 423.878543,14.7388664 C422.493927,14.7388664 421.291498,16.0870445 420.417004,17.3987854 L420.307692,17.2894737 L423.076923,10.7672065 C423.186235,10.4939271 423.259109,10.3117409 423.259109,10.2024291 C423.259109,10.0931174 423.186235,10.0202429 423.040486,10.0202429 L420.161943,10.0202429 C419.979757,10.0202429 419.94332,10.0566802 419.906883,10.1659919 L419.834008,10.4939271 C419.797571,10.6032389 419.870445,10.6761134 419.94332,10.6761134 L420.489879,10.6761134 C420.817814,10.6761134 421.054656,10.8218623 421.054656,11.0404858 C421.054656,11.2044534 420.963563,11.51417 420.817814,11.8967611 L416.919028,22.062753 C416.864372,22.208502 416.90081,22.3178138 417.064777,22.3178138 L418.230769,22.3178138 C418.3583,22.3178138 418.412955,22.2813765 418.449393,22.1720648 L419.396761,19.9493927 C419.615385,19.3299595 419.979757,18.6740891 420.417004,18.0910931 C420.927126,17.4352227 422.275304,15.9048583 423.076923,15.9048583 C423.51417,15.9048583 423.623482,16.3421053 423.623482,16.7611336 C423.623482,17.6174089 423.295547,18.965587 422.931174,20.0222672 C422.639676,20.9696356 422.238866,22.1174089 421.838057,22.1174089 C421.582996,22.1174089 421.510121,21.8805668 421.473684,21.6255061 C421.437247,21.3340081 421.255061,21.0060729 420.817814,21.0060729 C420.34413,21.0060729 420.052632,21.4797571 420.052632,21.917004 C420.052632,22.5 420.526316,22.9008097 421.109312,22.9008097 Z" id="path-11"></path>
        <path d="M434.572874,22.6093117 C435.204453,22.6093117 435.82996,22.4787449 436.449393,22.2176113 C437.068826,21.9564777 437.633603,21.4979757 438.143725,20.8421053 L438.435223,22.3178138 L440.257085,22.3178138 L440.257085,15.2854251 L434.791498,15.2854251 L434.791498,17.417004 L437.67004,17.417004 C437.58502,18.3279352 437.284413,19.0232794 436.768219,19.5030364 C436.252024,19.9827935 435.520243,20.2226721 434.572874,20.2226721 C433.92915,20.2226721 433.382591,20.0981781 432.933198,19.8491903 C432.483806,19.6002024 432.119433,19.2692308 431.840081,18.8562753 C431.560729,18.4433198 431.357287,17.9787449 431.229757,17.4625506 C431.102227,16.9463563 431.038462,16.4149798 431.038462,15.8684211 C431.038462,15.2975709 431.102227,14.7449393 431.229757,14.2105263 C431.357287,13.6761134 431.560729,13.1993927 431.840081,12.7803644 C432.119433,12.361336 432.483806,12.0273279 432.933198,11.7783401 C433.382591,11.5293522 433.92915,11.4048583 434.572874,11.4048583 C435.265182,11.4048583 435.854251,11.5870445 436.340081,11.951417 C436.825911,12.3157895 437.153846,12.8623482 437.323887,13.5910931 L440.05668,13.5910931 C439.983806,12.8502024 439.783401,12.194332 439.455466,11.6234818 C439.12753,11.0526316 438.711538,10.5728745 438.20749,10.1842105 C437.703441,9.79554656 437.138664,9.50101215 436.513158,9.30060729 C435.887652,9.10020243 435.240891,9 434.572874,9 C433.576923,9 432.681174,9.17611336 431.885628,9.52834008 C431.090081,9.8805668 430.419028,10.3663968 429.87247,10.98583 C429.325911,11.6052632 428.906883,12.3309717 428.615385,13.1629555 C428.323887,13.9949393 428.178138,14.8967611 428.178138,15.8684211 C428.178138,16.8157895 428.323887,17.6993927 428.615385,18.5192308 C428.906883,19.3390688 429.325911,20.0526316 429.87247,20.659919 C430.419028,21.2672065 431.090081,21.7439271 431.885628,22.090081 C432.681174,22.4362348 433.576923,22.6093117 434.572874,22.6093117 Z" id="path-12"></path>
        <polygon id="path-13" points="452.354251 22.3178138 452.354251 19.9129555 445.340081 19.9129555 445.340081 16.7246964 451.643725 16.7246964 451.643725 14.5020243 445.340081 14.5020243 445.340081 11.7145749 452.208502 11.7145749 452.208502 9.3097166 442.479757 9.3097166 442.479757 22.3178138"></polygon>
        <path d="M459.769231,22.6093117 C460.777328,22.6093117 461.676113,22.4362348 462.465587,22.090081 C463.255061,21.7439271 463.923077,21.2672065 464.469636,20.659919 C465.016194,20.0526316 465.435223,19.3390688 465.726721,18.5192308 C466.018219,17.6993927 466.163968,16.8157895 466.163968,15.8684211 C466.163968,14.8967611 466.018219,13.9949393 465.726721,13.1629555 C465.435223,12.3309717 465.016194,11.6052632 464.469636,10.98583 C463.923077,10.3663968 463.255061,9.8805668 462.465587,9.52834008 C461.676113,9.17611336 460.777328,9 459.769231,9 C458.773279,9 457.87753,9.17611336 457.081984,9.52834008 C456.286437,9.8805668 455.615385,10.3663968 455.068826,10.98583 C454.522267,11.6052632 454.103239,12.3309717 453.811741,13.1629555 C453.520243,13.9949393 453.374494,14.8967611 453.374494,15.8684211 C453.374494,16.8157895 453.520243,17.6993927 453.811741,18.5192308 C454.103239,19.3390688 454.522267,20.0526316 455.068826,20.659919 C455.615385,21.2672065 456.286437,21.7439271 457.081984,22.090081 C457.87753,22.4362348 458.773279,22.6093117 459.769231,22.6093117 Z M459.769231,20.2226721 C459.125506,20.2226721 458.578947,20.0981781 458.129555,19.8491903 C457.680162,19.6002024 457.315789,19.2692308 457.036437,18.8562753 C456.757085,18.4433198 456.553644,17.9787449 456.426113,17.4625506 C456.298583,16.9463563 456.234818,16.4149798 456.234818,15.8684211 C456.234818,15.2975709 456.298583,14.7449393 456.426113,14.2105263 C456.553644,13.6761134 456.757085,13.1993927 457.036437,12.7803644 C457.315789,12.361336 457.680162,12.0273279 458.129555,11.7783401 C458.578947,11.5293522 459.125506,11.4048583 459.769231,11.4048583 C460.412955,11.4048583 460.959514,11.5293522 461.408907,11.7783401 C461.8583,12.0273279 462.222672,12.361336 462.502024,12.7803644 C462.781377,13.1993927 462.984818,13.6761134 463.112348,14.2105263 C463.239879,14.7449393 463.303644,15.2975709 463.303644,15.8684211 C463.303644,16.4149798 463.239879,16.9463563 463.112348,17.4625506 C462.984818,17.9787449 462.781377,18.4433198 462.502024,18.8562753 C462.222672,19.2692308 461.8583,19.6002024 461.408907,19.8491903 C460.959514,20.0981781 460.412955,20.2226721 459.769231,20.2226721 Z" id="path-14"></path>
        <path d="M470.408907,22.3178138 L470.408907,17.2348178 L473.269231,17.2348178 C473.98583,17.2348178 474.502024,17.3927126 474.817814,17.708502 C475.133603,18.0242915 475.340081,18.5222672 475.437247,19.2024291 C475.510121,19.7246964 475.564777,20.2712551 475.601215,20.8421053 C475.637652,21.4129555 475.734818,21.9048583 475.892713,22.3178138 L478.753036,22.3178138 C478.619433,22.1356275 478.519231,21.9139676 478.452429,21.652834 C478.385628,21.3917004 478.337045,21.1153846 478.30668,20.8238866 C478.276316,20.5323887 478.255061,20.2469636 478.242915,19.9676113 C478.230769,19.6882591 478.218623,19.4453441 478.206478,19.2388664 C478.182186,18.9109312 478.13664,18.582996 478.069838,18.2550607 C478.003036,17.9271255 477.896761,17.6265182 477.751012,17.3532389 C477.605263,17.0799595 477.417004,16.8431174 477.186235,16.6427126 C476.955466,16.4423077 476.663968,16.2935223 476.311741,16.1963563 L476.311741,16.159919 C477.040486,15.8684211 477.565789,15.4433198 477.887652,14.8846154 C478.209514,14.3259109 478.370445,13.6639676 478.370445,12.8987854 C478.370445,12.4008097 478.282389,11.9362348 478.106275,11.5050607 C477.930162,11.0738866 477.675101,10.694332 477.341093,10.3663968 C477.007085,10.0384615 476.606275,9.78036437 476.138664,9.59210526 C475.671053,9.40384615 475.145749,9.3097166 474.562753,9.3097166 L467.548583,9.3097166 L467.548583,22.3178138 L470.408907,22.3178138 Z M473.54251,15.194332 L470.408907,15.194332 L470.408907,11.5323887 L473.54251,11.5323887 C474.198381,11.5323887 474.690283,11.6751012 475.018219,11.9605263 C475.346154,12.2459514 475.510121,12.7044534 475.510121,13.3360324 C475.510121,13.9919028 475.346154,14.465587 475.018219,14.757085 C474.690283,15.048583 474.198381,15.194332 473.54251,15.194332 Z" id="path-15"></path>
        <path d="M486.168016,22.6093117 C486.799595,22.6093117 487.425101,22.4787449 488.044534,22.2176113 C488.663968,21.9564777 489.228745,21.4979757 489.738866,20.8421053 L490.030364,22.3178138 L491.852227,22.3178138 L491.852227,15.2854251 L486.38664,15.2854251 L486.38664,17.417004 L489.265182,17.417004 C489.180162,18.3279352 488.879555,19.0232794 488.36336,19.5030364 C487.847166,19.9827935 487.115385,20.2226721 486.168016,20.2226721 C485.524291,20.2226721 484.977733,20.0981781 484.52834,19.8491903 C484.078947,19.6002024 483.714575,19.2692308 483.435223,18.8562753 C483.15587,18.4433198 482.952429,17.9787449 482.824899,17.4625506 C482.697368,16.9463563 482.633603,16.4149798 482.633603,15.8684211 C482.633603,15.2975709 482.697368,14.7449393 482.824899,14.2105263 C482.952429,13.6761134 483.15587,13.1993927 483.435223,12.7803644 C483.714575,12.361336 484.078947,12.0273279 484.52834,11.7783401 C484.977733,11.5293522 485.524291,11.4048583 486.168016,11.4048583 C486.860324,11.4048583 487.449393,11.5870445 487.935223,11.951417 C488.421053,12.3157895 488.748988,12.8623482 488.919028,13.5910931 L491.651822,13.5910931 C491.578947,12.8502024 491.378543,12.194332 491.050607,11.6234818 C490.722672,11.0526316 490.30668,10.5728745 489.802632,10.1842105 C489.298583,9.79554656 488.733806,9.50101215 488.1083,9.30060729 C487.482794,9.10020243 486.836032,9 486.168016,9 C485.172065,9 484.276316,9.17611336 483.480769,9.52834008 C482.685223,9.8805668 482.01417,10.3663968 481.467611,10.98583 C480.921053,11.6052632 480.502024,12.3309717 480.210526,13.1629555 C479.919028,13.9949393 479.773279,14.8967611 479.773279,15.8684211 C479.773279,16.8157895 479.919028,17.6993927 480.210526,18.5192308 C480.502024,19.3390688 480.921053,20.0526316 481.467611,20.659919 C482.01417,21.2672065 482.685223,21.7439271 483.480769,22.090081 C484.276316,22.4362348 485.172065,22.6093117 486.168016,22.6093117 Z" id="path-16"></path>
        <polygon id="path-17" points="503.949393 22.3178138 503.949393 19.9129555 496.935223 19.9129555 496.935223 16.7246964 503.238866 16.7246964 503.238866 14.5020243 496.935223 14.5020243 496.935223 11.7145749 503.803644 11.7145749 503.803644 9.3097166 494.074899 9.3097166 494.074899 22.3178138"></polygon>
        <polygon id="path-18" points="511.601215 22.3178138 511.601215 11.7145749 515.5 11.7145749 515.5 9.3097166 504.842105 9.3097166 504.842105 11.7145749 508.740891 11.7145749 508.740891 22.3178138"></polygon>
        <path d="M521.967611,22.6093117 C522.975709,22.6093117 523.874494,22.4362348 524.663968,22.090081 C525.453441,21.7439271 526.121457,21.2672065 526.668016,20.659919 C527.214575,20.0526316 527.633603,19.3390688 527.925101,18.5192308 C528.216599,17.6993927 528.362348,16.8157895 528.362348,15.8684211 C528.362348,14.8967611 528.216599,13.9949393 527.925101,13.1629555 C527.633603,12.3309717 527.214575,11.6052632 526.668016,10.98583 C526.121457,10.3663968 525.453441,9.8805668 524.663968,9.52834008 C523.874494,9.17611336 522.975709,9 521.967611,9 C520.97166,9 520.075911,9.17611336 519.280364,9.52834008 C518.484818,9.8805668 517.813765,10.3663968 517.267206,10.98583 C516.720648,11.6052632 516.301619,12.3309717 516.010121,13.1629555 C515.718623,13.9949393 515.572874,14.8967611 515.572874,15.8684211 C515.572874,16.8157895 515.718623,17.6993927 516.010121,18.5192308 C516.301619,19.3390688 516.720648,20.0526316 517.267206,20.659919 C517.813765,21.2672065 518.484818,21.7439271 519.280364,22.090081 C520.075911,22.4362348 520.97166,22.6093117 521.967611,22.6093117 Z M521.967611,20.2226721 C521.323887,20.2226721 520.777328,20.0981781 520.327935,19.8491903 C519.878543,19.6002024 519.51417,19.2692308 519.234818,18.8562753 C518.955466,18.4433198 518.752024,17.9787449 518.624494,17.4625506 C518.496964,16.9463563 518.433198,16.4149798 518.433198,15.8684211 C518.433198,15.2975709 518.496964,14.7449393 518.624494,14.2105263 C518.752024,13.6761134 518.955466,13.1993927 519.234818,12.7803644 C519.51417,12.361336 519.878543,12.0273279 520.327935,11.7783401 C520.777328,11.5293522 521.323887,11.4048583 521.967611,11.4048583 C522.611336,11.4048583 523.157895,11.5293522 523.607287,11.7783401 C524.05668,12.0273279 524.421053,12.361336 524.700405,12.7803644 C524.979757,13.1993927 525.183198,13.6761134 525.310729,14.2105263 C525.438259,14.7449393 525.502024,15.2975709 525.502024,15.8684211 C525.502024,16.4149798 525.438259,16.9463563 525.310729,17.4625506 C525.183198,17.9787449 524.979757,18.4433198 524.700405,18.8562753 C524.421053,19.2692308 524.05668,19.6002024 523.607287,19.8491903 C523.157895,20.0981781 522.611336,20.2226721 521.967611,20.2226721 Z" id="path-19"></path>
        <polygon id="path-20" points="534.902834 22.3178138 537.07085 13.4635628 537.107287 13.4635628 539.311741 22.3178138 542.153846 22.3178138 545.651822 9.3097166 542.846154 9.3097166 540.714575 18.2732794 540.678138 18.2732794 538.455466 9.3097166 535.777328 9.3097166 533.518219 18.1639676 533.481781 18.1639676 531.423077 9.3097166 528.562753 9.3097166 532.006073 22.3178138"></polygon>
        <polygon id="path-21" points="549.495951 22.3178138 549.495951 13.6093117 549.532389 13.6093117 554.94332 22.3178138 557.803644 22.3178138 557.803644 9.3097166 555.125506 9.3097166 555.125506 18.0364372 555.089069 18.0364372 549.659919 9.3097166 546.817814 9.3097166 546.817814 22.3178138"></polygon>
    </defs>
    <g id="Page-1" stroke="none" stroke-width="1" fill="none" fill-rule="evenodd">
        <g id="desktop/nav/event/dark/long-logo" transform="translate(-50.000000, -23.000000)" fill="#FFFFFF">
            <g id="Group-3">
                <g id="dark-no-links">
                    <g id="Group-2" transform="translate(50.000000, 23.000000)">
                        <g id="logo/one-line">
                            <path d="M172.660633,11.3132037 C172.660633,11.3132037 167.474982,15.4826385 169.12488,20.8001204 C169.12488,20.8001204 170.338619,24.5722747 175.016162,22.9903026 C175.016162,22.9903026 176.328663,22.3847737 177.10222,21.6107693 C177.876672,20.8367649 177.784167,21.646967 178.029953,22.1519468 C178.195301,22.4902385 178.583643,23.5623151 180.097689,23.4273559 C181.612181,23.2928436 182.79151,21.6764614 182.352223,21.1393059 C182.049682,20.7692853 181.578218,21.677802 181.208198,21.9133103 C180.838177,22.1483717 180.001162,22.1979759 179.833133,21.1218774 C179.665105,20.0448851 182.150231,13.5681842 182.150231,13.5681842 C182.150231,13.5681842 182.897422,11.6689239 183.78136,10.3063723 C184.296171,9.51270493 184.741269,9.36076411 185.246248,9.22669868 C186.784426,8.81869289 185.818261,8.35169831 185.381208,8.35169831 C184.943707,8.35169831 183.025231,8.0147472 182.183747,9.12570273 C181.342263,10.2362114 177.842708,19.2212765 177.842708,19.2212765 C177.842708,19.2212765 176.227667,22.5523555 173.131649,21.5432897 C170.036078,20.533777 171.099217,16.2722839 171.65112,15.116193 C171.91791,14.5584808 173.437318,11.8271211 175.352667,9.4286906 C176.656676,7.79577366 175.261502,8.61804163 173.78142,8.48263555 C172.300444,8.34812323 168.709725,7.59333486 167.219811,8.67300846 C165.474279,9.93813923 165.021585,12.0872081 166.536077,13.0967208 C168.050123,14.1062334 168.925123,12.2552367 168.35311,11.6161915 C167.766351,10.9597178 167.678314,11.63362 166.873028,11.5487119 C166.233089,11.4816792 166.334085,9.89970714 167.848578,9.73167847 C169.36307,9.56320291 171.54923,10.0704171 172.880053,10.0489667 C174.230539,10.0270693 172.660633,11.3132037 172.660633,11.3132037 L172.660633,11.3132037 Z M292.491889,18.4897261 C292.706841,17.5459055 292.920898,17.1168961 293.221652,16.6449858 C293.521958,16.1301746 297.425944,10.6813086 297.769151,10.2098452 C298.198161,9.63068251 298.62717,9.28747501 299.356486,9.28747501 L299.742594,9.28747501 C299.871297,9.28747501 299.914198,9.24412719 299.914198,9.07297032 L300,8.64396095 C300,8.51525814 299.956652,8.42900938 299.785048,8.42900938 C299.485189,8.42945626 298.841228,8.49380767 297.511746,8.49380767 C296.310072,8.49380767 295.494955,8.42945626 295.194648,8.42945626 C294.98059,8.42900938 294.937689,8.4723572 294.937689,8.60106001 L294.894342,9.07297032 C294.851441,9.20167314 294.894342,9.28747501 295.023044,9.28747501 L295.495402,9.28747501 C296.224717,9.28747501 296.503574,9.60923204 296.224717,10.4243499 C296.010213,11.067417 292.964246,15.5724624 292.66394,16.0443727 C292.491889,16.3446792 292.320285,16.3446792 292.234483,16.0014717 L290.518446,10.2308488 C290.389743,9.80183938 290.389743,9.28747501 291.076158,9.28747501 L291.63387,9.28747501 C291.762573,9.28747501 291.805921,9.24412719 291.848822,9.11542438 L291.891276,8.60106001 C291.891276,8.4723572 291.848822,8.42900938 291.677218,8.42900938 C291.419812,8.42945626 290.69005,8.49380767 288.845309,8.49380767 C287.129272,8.49380767 286.57156,8.42945626 286.271253,8.42945626 C286.14255,8.42900938 286.099649,8.4723572 286.057195,8.60106001 L285.970947,9.11542438 C285.970947,9.24412719 286.013847,9.28747501 286.14255,9.28747501 L286.614907,9.28747501 C287.344223,9.28747501 287.773233,9.58778157 287.94439,10.1021459 L290.175685,16.6878867 C290.26104,16.9452924 290.304388,17.5030046 290.218139,17.8033111 L289.531724,20.9779805 C289.403022,21.6000441 289.102715,22.0719544 288.115993,22.0719544 L287.64453,22.0719544 C287.472926,22.0719544 287.429578,22.1577563 287.429578,22.2435582 L287.344223,22.7154685 C287.344223,22.8866253 287.386677,22.9295263 287.51538,22.9295263 C287.773233,22.9295263 288.4163,22.8656218 290.346842,22.8656218 C292.063327,22.8656218 292.749295,22.9295263 293.092502,22.9295263 C293.264553,22.9295263 293.307007,22.8441713 293.307007,22.7154685 L293.393256,22.2435582 C293.393256,22.1577563 293.349908,22.0719544 293.221652,22.0719544 L292.749295,22.0719544 C292.020426,22.0719544 291.741123,21.9861525 291.977525,20.8707282 L292.491889,18.4897261 Z M276.751714,8.49336078 C274.520418,8.49336078 273.491243,8.32220392 273.062233,8.1935011 C272.890629,8.06435141 272.804381,8.02145047 272.718579,8.02145047 C272.589876,8.02145047 272.546975,8.10725234 272.504521,8.23595516 C272.46162,8.36465797 271.131244,11.3681705 270.873392,11.8396339 C270.830938,11.9258827 270.830938,12.0112377 270.917186,12.0541386 L271.259947,12.2690902 C271.346196,12.2690902 271.431551,12.2690902 271.517799,12.1828414 C272.032164,11.5826752 273.147588,10.3381011 273.898801,9.78038891 C274.391715,9.41528405 275.335983,9.30892548 277.309426,9.30892548 L277.867138,9.30892548 L274.563319,19.9054571 C274.070405,21.5137953 273.662399,22.0715075 272.46162,22.0715075 L271.903908,22.0715075 C271.731857,22.0715075 271.667953,22.1148553 271.646502,22.2435582 L271.603154,22.7154685 C271.581257,22.8441713 271.646502,22.9295263 271.796656,22.9295263 C272.010713,22.9295263 273.147588,22.8656218 275.249734,22.8656218 C277.266525,22.8656218 278.124544,22.9295263 278.42485,22.9295263 C278.575004,22.9295263 278.660806,22.8656218 278.682256,22.7154685 L278.767611,22.2864591 C278.789508,22.1577563 278.746161,22.0715075 278.638908,22.0715075 L277.780889,22.0715075 C276.665465,22.0715075 276.451407,21.6000441 276.880417,20.2482177 L280.269591,9.30892548 L280.6986,9.30892548 C281.685322,9.30892548 283.229755,9.50153281 283.701219,9.86619078 C284.001972,10.423903 284.387634,11.753832 284.559238,12.440247 C284.645486,12.6980995 284.731288,12.7839014 284.859991,12.7839014 L285.203199,12.7191031 C285.331901,12.6980995 285.374355,12.6547517 285.374355,12.5260489 C285.331901,11.6680302 285.545959,8.5367086 285.589307,8.1935011 C285.589307,8.06435141 285.503505,8.02145047 285.417703,8.02145047 C285.331901,8.02145047 285.289,8.06435141 285.203199,8.10725234 C284.816643,8.32220392 284.044873,8.49336078 282.114331,8.49336078 L276.751714,8.49336078 Z M263.414438,20.5489711 C263.114131,21.6420513 262.985429,22.0715075 261.741301,22.0715075 L260.926184,22.0715075 C260.797481,22.0715075 260.75458,22.1148553 260.75458,22.2435582 L260.625877,22.7154685 C260.625877,22.8441713 260.668778,22.9295263 260.797481,22.9295263 C261.054886,22.9295263 262.170311,22.8656218 263.97215,22.8656218 C266.160098,22.8656218 267.14682,22.9295263 267.404225,22.9295263 C267.61873,22.9295263 267.61873,22.8866253 267.661631,22.7154685 L267.704532,22.2864591 C267.747433,22.1577563 267.704532,22.0715075 267.575829,22.0715075 L266.803612,22.0715075 C265.902692,22.0715075 265.580935,21.6420513 265.859791,20.6133225 L268.520096,10.7246564 C268.841407,9.5019797 269.334767,9.28747501 270.235687,9.28747501 L270.793399,9.28747501 C270.965003,9.28747501 271.007904,9.20167314 271.007904,9.11542438 L271.136607,8.686415 C271.179508,8.51525814 271.093706,8.42900938 270.879201,8.42900938 C270.578895,8.42945626 269.677975,8.49380767 267.832788,8.49380767 C266.117197,8.49380767 264.958872,8.42945626 264.701466,8.42945626 C264.529862,8.42900938 264.44406,8.4723572 264.44406,8.55771219 L264.315358,9.11542438 C264.315358,9.24412719 264.358259,9.28747501 264.529862,9.28747501 L265.516584,9.28747501 C266.074296,9.28747501 266.41795,9.63068251 266.117197,10.703206 L263.414438,20.5489711 Z M261.613045,8.60106001 C261.613045,8.51525814 261.569698,8.4723572 261.441442,8.4723572 L261.184036,8.42900938 C261.011985,8.42900938 260.969085,8.42900938 260.969085,8.51525814 C260.88373,8.94426751 260.755027,9.24412719 260.626324,9.24412719 C260.497174,9.24412719 260.411372,9.20167314 260.326017,9.1587722 C259.982363,8.90136657 258.95274,8.17205064 257.794862,8.17205064 C255.005854,8.17205064 253.804628,10.4024525 253.804628,11.9468863 C253.804628,14.1567314 254.920052,15.2721558 256.250428,16.7303408 C257.193802,17.7604102 258.266772,18.575528 258.266772,19.9479111 C258.266772,21.1281338 257.322505,22.2002103 255.950122,22.2002103 C254.619746,22.2002103 252.946609,20.7420253 253.547669,17.6531578 C253.547669,17.524455 253.504321,17.4815541 253.418966,17.4382063 L253.075312,17.3528513 C252.946609,17.3528513 252.904155,17.3528513 252.861254,17.4382063 L251.273473,22.1148553 C251.230572,22.2864591 251.230572,22.2864591 251.359274,22.3289131 L251.61668,22.457616 C251.745383,22.5005169 251.788284,22.457616 251.831185,22.3718141 C252.002789,22.0719544 252.217293,21.7287469 252.346443,21.5571432 C252.475146,21.4284403 252.689204,21.3850925 252.904155,21.6000441 C253.590123,22.3718141 254.576845,23.1869319 255.950122,23.1869319 C258.180524,23.1869319 260.153967,21.7287469 260.153967,18.98264 C260.153967,16.6020849 258.738236,15.4008586 257.751514,14.4141371 C256.764793,13.4274155 255.821419,12.7410005 255.821419,11.2390208 C255.821419,10.3170975 256.507387,9.1587722 257.751514,9.1587722 C259.939462,9.1587722 260.197315,11.7328285 260.068165,12.5908472 C260.068165,12.71955 260.111066,12.8053519 260.28267,12.8053519 L260.669225,12.8053519 C260.755027,12.8053519 260.797928,12.762451 260.840382,12.6766491 L261.613045,8.60106001 Z M243.334118,9.20122625 C243.591523,9.1587722 243.849376,9.1587722 244.235484,9.1587722 C246.33763,9.1587722 246.980698,10.5530527 246.980698,11.4535255 C246.980698,12.9984061 245.993976,14.1991855 244.878552,14.6715427 C243.420367,15.2717089 242.304495,15.185907 241.446923,15.185907 L243.334118,9.20122625 Z M241.210968,15.9371203 C241.789684,15.9371203 242.733505,15.8084175 243.248763,16.9877464 C243.506168,17.5030046 245.39381,21.7072964 245.693669,22.2216608 C245.993976,22.7154685 246.080225,22.9295263 246.294283,22.9295263 C246.637937,22.9295263 247.023598,22.8656218 248.267726,22.8656218 C249.426051,22.8656218 249.769705,22.9295263 249.983763,22.9295263 C250.112913,22.9295263 250.155814,22.8441713 250.198715,22.7154685 L250.241169,22.2864591 C250.284517,22.1577563 250.241169,22.0715075 250.112913,22.0715075 L249.555201,22.0715075 C248.782984,22.0715075 248.267726,21.7287469 247.688563,20.8278272 C247.324352,20.2482177 245.86572,17.202698 245.73657,16.9877464 C245.522513,16.558737 245.179305,15.9156699 244.49289,15.7436192 L244.49289,15.6582642 C247.281451,15.3579577 249.555201,13.6414733 249.555201,11.5397742 C249.555201,8.57960954 246.33763,8.42900938 244.49289,8.42900938 C243.892277,8.42900938 241.661428,8.49336078 239.430579,8.49336078 C239.215628,8.49336078 239.173174,8.53626172 239.130273,8.66496453 L239.044471,9.11542438 C239.00157,9.24412719 239.044471,9.28747501 239.215628,9.28747501 L239.945391,9.28747501 C240.674707,9.28747501 240.803409,9.67313657 240.588905,10.3595516 L237.15683,21.0633355 C236.984779,21.600491 236.599118,22.0715075 236.084306,22.0715075 L235.526594,22.0715075 C235.35499,22.0715075 235.311643,22.1148553 235.311643,22.2435582 L235.226288,22.7154685 C235.183387,22.8441713 235.226288,22.9295263 235.35499,22.9295263 C235.612396,22.9295263 236.427067,22.8656218 237.929047,22.8656218 C239.77334,22.8656218 240.717608,22.9295263 240.975013,22.9295263 C241.103716,22.9295263 241.189071,22.8866253 241.231972,22.7579225 L241.27532,22.2435582 C241.317774,22.1577563 241.27532,22.0715075 241.146617,22.0715075 L240.245697,22.0715075 C239.644637,22.0715075 239.409129,21.685846 239.77334,20.5270738 L241.210968,15.9371203 Z M234.494737,19.0045374 C234.366034,18.9187355 234.280232,18.9616364 234.237332,19.0474383 C233.894124,19.4335467 232.735799,20.8921786 232.263888,21.2782871 C231.706176,21.771201 231.105563,22.0934049 230.376247,22.0934049 L225.571342,22.0934049 L227.673488,15.5934659 L228.746012,15.5934659 C230.290445,15.5934659 231.105563,15.829868 231.105563,17.3743017 C231.105563,17.5030046 231.105563,17.5459055 231.234266,17.5888064 L231.620374,17.5888064 C231.706176,17.5888064 231.749077,17.5888064 231.791978,17.4601036 C231.87778,16.6449858 232.564642,13.9851277 232.907402,13.1700099 C232.950303,13.1271089 232.907402,13.0408602 232.821601,13.0408602 L232.435939,12.9121574 C232.34969,12.9121574 232.306789,12.9555052 232.263888,13.0408602 C231.491672,14.7144436 230.655103,14.821696 229.732733,14.821696 L227.887993,14.821696 L229.689832,9.26557766 L233.036105,9.26557766 C233.164808,9.26557766 233.293511,9.30892548 233.422661,9.43762829 L235.610162,11.9687836 C235.738864,12.0974864 235.781765,12.1403874 235.867567,12.0974864 L236.124973,11.9687836 C236.253676,11.8829817 236.253676,11.8829817 236.210775,11.7323816 L235.567261,8.85846564 C235.481459,8.51525814 235.439005,8.42900938 235.09535,8.42900938 C234.859395,8.42900938 234.344584,8.45090673 233.486565,8.4723572 C232.628546,8.49380767 231.449218,8.49380767 229.904337,8.49380767 L228.359903,8.49380767 C227.845092,8.49380767 227.137226,8.4723572 226.515163,8.45090673 C225.91455,8.45090673 225.399738,8.42900938 225.271036,8.42900938 C225.099432,8.42900938 225.056531,8.4723572 225.01363,8.60106001 L224.884927,9.07297032 C224.842026,9.20167314 224.906378,9.28747501 225.01363,9.28747501 L225.700045,9.28747501 C226.343559,9.28747501 227.115329,9.58778157 226.751118,10.74566 L223.469196,20.9341858 C223.254692,21.6424981 222.825682,22.0715075 221.967663,22.0715075 L221.281248,22.0715075 C221.195447,22.0715075 221.152546,22.1148553 221.131095,22.2002103 L221.045293,22.7579225 C221.023843,22.8866253 221.066744,22.9295263 221.173996,22.9295263 C221.302699,22.9295263 221.645906,22.9080758 222.117817,22.8866253 C222.611177,22.8866253 223.233241,22.8656218 223.898206,22.8656218 L226.687213,22.8656218 C228.166849,22.8656218 229.711283,22.8656218 230.933959,22.8866253 C232.156636,22.9080758 233.036105,22.9295263 233.207709,22.9295263 C233.465562,22.9295263 233.593817,22.8866253 233.679619,22.5438647 L234.795044,19.4116494 C234.837945,19.2614961 234.795044,19.2190421 234.752143,19.1761411 L234.494737,19.0045374 Z M214.245495,18.9611895 C213.945635,19.347298 213.687782,19.3048439 213.773584,18.7471317 L215.253667,10.1664973 C215.361366,9.54443375 215.747027,9.28747501 216.433442,9.28747501 L217.034056,9.28747501 C217.205659,9.28747501 217.24856,9.24412719 217.270011,9.11542438 L217.334809,8.62206359 C217.377263,8.47191031 217.334809,8.42900938 217.119857,8.42900938 C216.862452,8.42945626 215.961532,8.49336078 214.416652,8.49336078 C212.572358,8.49336078 211.671438,8.42945626 211.371132,8.42945626 C211.199528,8.42900938 211.199528,8.47191031 211.156627,8.64351406 L211.027477,9.09397391 C210.98547,9.24412719 211.070825,9.28747501 211.242429,9.28747501 L211.928844,9.28747501 C212.615259,9.28747501 212.829764,9.80183938 212.743962,10.4453534 L211.049375,22.4790664 C210.963573,22.9943246 211.006474,23.2946311 211.349681,23.2946311 C211.649988,23.2946311 211.907394,23.0801264 212.036096,22.9080758 L221.195447,11.4110714 C222.032015,10.3595516 223.125989,9.28747501 223.855305,9.28747501 L224.327215,9.28747501 C224.455918,9.28747501 224.499266,9.20122625 224.54172,9.07252344 L224.606071,8.62206359 C224.627522,8.51481125 224.584621,8.42900938 224.370563,8.42900938 C224.11271,8.42945626 223.554551,8.49336078 222.310871,8.49336078 C221.152099,8.49336078 220.42323,8.42945626 220.122923,8.42945626 C219.908418,8.42900938 219.865964,8.47191031 219.865964,8.60061313 L219.758265,9.07252344 C219.736815,9.20122625 219.779269,9.28747501 219.994667,9.28747501 L220.423677,9.28747501 C221.023843,9.28747501 220.938041,10.0377945 220.165824,11.067417 L214.245495,18.9611895 Z M202.74849,20.5489711 C202.447737,21.6420513 202.319034,22.0715075 201.075354,22.0715075 L200.260236,22.0715075 C200.131086,22.0715075 200.088632,22.1148553 200.088632,22.2435582 L199.959929,22.7154685 C199.959929,22.8441713 200.002383,22.9295263 200.131086,22.9295263 C200.388939,22.9295263 201.504363,22.8656218 203.305756,22.8656218 C205.493703,22.8656218 206.480425,22.9295263 206.738277,22.9295263 C206.952335,22.9295263 206.952335,22.8866253 206.995683,22.7154685 L207.038137,22.2864591 C207.080591,22.1577563 207.038137,22.0715075 206.909434,22.0715075 L206.137664,22.0715075 C205.236298,22.0715075 204.914988,21.6420513 205.193844,20.6133225 L207.853702,10.7246564 C208.175012,9.5019797 208.66882,9.28747501 209.569739,9.28747501 L210.127452,9.28747501 C210.298608,9.28747501 210.341509,9.20167314 210.341509,9.11542438 L210.470212,8.686415 C210.51356,8.51525814 210.427311,8.42900938 210.212807,8.42900938 C209.9125,8.42945626 209.01158,8.49380767 207.167287,8.49380767 C205.451249,8.49380767 204.292477,8.42945626 204.035518,8.42945626 C203.863468,8.42900938 203.778113,8.4723572 203.778113,8.55771219 L203.648963,9.11542438 C203.648963,9.24412719 203.691417,9.28747501 203.863468,9.28747501 L204.850189,9.28747501 C205.407902,9.28747501 205.751556,9.63068251 205.451249,10.703206 L202.74849,20.5489711 Z M195.584034,22.4366124 C195.712737,22.7364721 195.927241,22.8656218 196.141746,22.8656218 C196.270449,22.8227208 196.442052,22.6506702 196.570755,22.3079096 L200.517642,11.0245161 C200.946651,9.80183938 201.37566,9.28747501 201.890472,9.28747501 L202.448184,9.28747501 C202.576887,9.28747501 202.619787,9.24412719 202.619787,9.11542438 L202.705589,8.72976282 C202.74849,8.55771219 202.705589,8.42900938 202.491085,8.42900938 C202.190778,8.42945626 201.761769,8.49380767 200.646344,8.49380767 C199.144365,8.49380767 198.45795,8.42945626 198.200991,8.42945626 C198.072288,8.42900938 198.029387,8.51525814 197.986486,8.60106001 L197.943585,9.07297032 C197.900237,9.24412719 197.943585,9.28747501 198.15809,9.28747501 L198.801604,9.28747501 C199.53092,9.28747501 199.702077,9.97344313 199.144812,11.711378 L196.871062,18.6613299 C196.699458,19.1761411 196.613656,19.2190421 196.442052,18.9616364 L191.680048,9.05151986 C191.551346,8.75121329 191.422643,8.49380767 191.036534,8.49380767 C188.505379,8.49380767 187.64736,8.42900938 187.389955,8.42900938 C187.218351,8.42900938 187.175003,8.51525814 187.132549,8.64396095 L187.046747,9.03006939 C187.003399,9.20167314 187.046747,9.28747501 187.218351,9.28747501 L188.033469,9.28747501 C188.934388,9.28747501 189.384848,9.88808814 188.976842,11.1536658 L186.360332,19.4335467 C185.716818,21.3421916 185.202007,22.0715075 184.214391,22.0715075 L183.743375,22.0715075 C183.614225,22.0715075 183.571771,22.1577563 183.52887,22.2435582 L183.464519,22.694018 C183.443068,22.8441713 183.485522,22.9295263 183.614225,22.9295263 C183.872078,22.9295263 184.558493,22.8656218 186.060026,22.8656218 C187.518657,22.8656218 188.41913,22.9295263 188.634082,22.9295263 C188.84814,22.9295263 188.84814,22.8866253 188.891487,22.7364721 L188.976842,22.2864591 C188.976842,22.1577563 188.934388,22.0715075 188.762785,22.0715075 L187.947667,22.0715075 C187.046747,22.0715075 186.960945,21.0633355 187.690261,18.6184289 L189.834861,11.4539724 C189.878209,11.1965667 190.049813,11.1965667 190.178516,11.4110714 L195.584034,22.4366124 Z M133.442473,20.7205749 C133.442473,22.4790664 134.922555,23.4233339 136.445538,23.4233339 C139.577307,23.4233339 141.507849,21.0208814 142.623273,19.0474383 C143.717247,17.1812475 144.639617,14.3926866 145.132978,11.6680302 C145.197329,11.3252695 145.326032,11.3462731 145.368933,11.5397742 C146.420006,15.7869671 148.371999,20.5270738 150.795902,23.7236405 C152.061926,25.3967771 154.871491,28.8503025 159.225936,28.8503025 C161.693187,28.8503025 162.830062,27.6490763 163.194273,27.2415174 C163.580381,26.8335116 163.838234,26.1904444 163.838234,25.9115883 C163.838234,25.5893844 163.68808,25.1818255 163.21617,25.1818255 C162.787161,25.1818255 162.507858,25.6112818 162.2938,26.5546555 C162.122196,27.262521 161.349532,27.7348782 160.256005,27.7348782 C156.523177,27.7348782 153.391855,23.7665414 152.297435,21.8999038 C152.08293,21.5356927 151.718272,21.0852328 152.061926,19.5189017 C153.434309,13.3630641 155.107446,11.0888675 156.587528,10.016791 C157.273943,9.52298328 157.702953,9.43762829 158.110512,9.43762829 C158.410818,9.43762829 158.775476,9.67313657 158.883175,9.93098908 C159.054332,10.1883947 159.376089,10.5311553 159.826549,10.5311553 C160.362811,10.5311553 160.878069,10.0596919 160.878069,9.45907876 C160.878069,8.75121329 160.277456,8 158.990428,8 C158.110512,8 157.080889,8.21495157 155.986915,9.07297032 C153.605913,10.8962602 152.233083,15.0357538 151.289263,19.2833935 C151.203461,19.6905055 151.096208,19.8840066 150.946055,19.626601 C149.78773,17.7604102 147.792836,12.2690902 147.06352,8.98672156 C146.977718,8.64396095 146.849016,8.49380767 146.441457,8.49380767 C142.580372,8.49380767 140.435325,8.32220392 138.890892,9.41573094 C137.88272,10.1454938 137.410809,11.3038191 137.410809,12.397793 C137.410809,13.4274155 138.054323,14.2425333 138.80509,14.2425333 C139.470054,14.2425333 139.877613,13.7920735 139.877613,13.3201631 C139.877613,12.8482528 139.577307,12.4621444 138.912342,12.3544452 C138.461882,12.2257424 138.311729,11.7542789 138.311729,11.4964264 C138.311729,10.982062 139.148297,10.4024525 140.027766,10.1454938 C141.250443,9.75938532 142.47312,9.78083579 143.781598,9.78083579 C144.253509,9.78083579 144.510914,9.93098908 144.510914,10.4243499 C144.510914,12.5479463 142.816327,17.2241485 141.293344,19.3477449 C140.349523,20.6343261 138.612036,22.2650086 136.55279,22.2650086 C135.351564,22.2650086 135.029807,21.7930983 135.115609,21.3850925 C135.222861,20.9131822 135.823475,20.6133225 135.823475,19.9912589 C135.823475,19.2614961 135.330114,18.9616364 134.772402,18.9616364 C134.193239,18.9616364 133.442473,19.5622496 133.442473,20.7205749 L133.442473,20.7205749 Z M122.82449,10.4243499 C122.975091,9.54443375 123.27495,9.28747501 123.961812,9.28747501 L124.30502,9.28747501 C124.476177,9.28747501 124.519524,9.20122625 124.519524,9.11542438 L124.605326,8.62206359 C124.64778,8.4723572 124.605326,8.42900938 124.390822,8.42900938 C124.132969,8.42945626 123.317851,8.49336078 121.987922,8.49336078 C120.572191,8.49336078 119.714173,8.42945626 119.499668,8.42945626 C119.328064,8.42900938 119.285163,8.4723572 119.242709,8.60106001 L119.178358,9.09397391 C119.15646,9.24412719 119.199361,9.28747501 119.371412,9.28747501 L119.886223,9.28747501 C120.358133,9.28747501 120.443935,9.67313657 120.358133,10.4024525 L118.834703,22.3937114 C118.749348,22.9943246 118.856154,23.2946311 119.13501,23.2946311 C119.478217,23.2946311 119.692722,23.0367786 119.950575,22.7364721 C120.743795,21.8145488 126.535422,13.7701761 126.749926,13.4698695 C126.921977,13.2558117 127.093134,13.2558117 127.05068,13.5132174 L126.428616,22.5224143 C126.385268,22.9943246 126.47107,23.2946311 126.814278,23.2946311 C127.157485,23.2946311 127.415338,22.9514236 127.694194,22.6077692 C128.616564,21.4708944 131.426575,17.3314008 132.026742,16.3446792 C132.542,15.4866605 135.75957,10.1669442 135.974075,9.86663767 C136.317282,9.41573094 136.703391,9.28747501 137.089499,9.28747501 L137.475608,9.28747501 C137.561409,9.28747501 137.603863,9.24412719 137.647211,9.11542438 L137.733013,8.57960954 C137.754464,8.4723572 137.690112,8.42900938 137.518508,8.42900938 C137.217755,8.42945626 136.660043,8.49336078 135.373015,8.49336078 C134.25759,8.49336078 133.742779,8.42945626 133.442473,8.42945626 C133.314217,8.42900938 133.227968,8.4723572 133.227968,8.64351406 L133.142613,9.09397391 C133.099265,9.24412719 133.185514,9.28747501 133.314217,9.28747501 L133.656977,9.28747501 C134.300938,9.28747501 134.343839,9.8451872 134.150338,10.4024525 C133.957731,10.982062 133.013463,12.9979592 131.984288,14.7139967 C131.554831,15.4433127 129.453132,18.9182886 129.024123,19.3901989 C128.809618,19.6476045 128.680915,19.6051505 128.723369,19.2185952 L129.79634,10.295647 C129.882142,9.54443375 130.096646,9.28747501 130.482308,9.28747501 L130.825515,9.28747501 C130.997566,9.28747501 131.04002,9.24412719 131.083368,9.11542438 L131.147719,8.60106001 C131.16917,8.4723572 131.125822,8.42900938 130.954665,8.42900938 C130.696813,8.42945626 130.1391,8.49336078 128.894973,8.49336078 C127.565044,8.49336078 127.007779,8.42945626 126.792827,8.42945626 C126.621223,8.42900938 126.578769,8.4723572 126.535422,8.55771219 L126.44962,9.13687485 C126.44962,9.24412719 126.492968,9.28747501 126.621223,9.28747501 L126.921977,9.28747501 C127.307638,9.28747501 127.479689,9.58778157 127.479689,10.016791 C127.479689,10.4668039 127.222283,11.3248227 126.707472,12.0974864 C126.621223,12.2257424 121.859666,19.0898924 121.730517,19.2185952 C121.516012,19.4764477 121.344855,19.3901989 121.387309,19.1327933 L122.82449,10.4243499 Z M108.088465,10.7885609 C108.860682,9.88764125 109.890305,9.20122625 111.177333,9.20122625 C113.107875,9.20122625 114.179952,10.6169572 114.179952,12.7620041 C114.137498,17.3953053 111.348937,22.2002103 108.217168,22.2002103 C106.45823,22.2002103 105.042499,20.9560831 105.042499,18.2966719 C105.042499,15.9366734 106.329527,12.7620041 108.088465,10.7885609 L108.088465,10.7885609 Z M116.497049,14.4351406 C116.497049,10.4882544 114.094597,8.17205064 110.662075,8.17205064 C106.115022,8.17205064 102.854551,12.3758956 102.854551,16.8375931 C102.854551,18.7681353 103.412263,20.4841728 104.741745,21.771201 C106.071674,23.0582291 107.745258,23.1869319 108.60283,23.1869319 C113.451083,23.1869319 116.497049,18.7256813 116.497049,14.4351406 L116.497049,14.4351406 Z M94.2976014,8.49336078 C92.0671996,8.49336078 91.0371302,8.32220392 90.6081208,8.1935011 C90.4369639,8.06435141 90.3507152,8.02145047 90.2649133,8.02145047 C90.1362105,8.02145047 90.0937564,8.10725234 90.0504086,8.23595516 C90.0075077,8.36465797 88.6780255,11.3681705 88.420173,11.8396339 C88.377272,11.9258827 88.377272,12.0112377 88.4630739,12.0541386 L88.8062814,12.2690902 C88.8925302,12.2690902 88.9778852,12.2690902 89.063687,12.1828414 C89.5784983,11.5826752 90.6939227,10.3381011 91.4446891,9.78038891 C91.9380499,9.41528405 92.8818705,9.30892548 94.8553136,9.30892548 L95.4130258,9.30892548 L92.1096536,19.9054571 C91.6162928,21.5137953 91.2087339,22.0715075 90.0075077,22.0715075 L89.4502424,22.0715075 C89.2781917,22.0715075 89.2138403,22.1148553 89.1923899,22.2435582 L89.1494889,22.7154685 C89.1280384,22.8441713 89.1923899,22.9295263 89.3425431,22.9295263 C89.5570478,22.9295263 90.6939227,22.8656218 92.7960686,22.8656218 C94.8124127,22.8656218 95.6704314,22.9295263 95.970738,22.9295263 C96.1208913,22.9295263 96.2066931,22.8656218 96.2285905,22.7154685 L96.3139455,22.2864591 C96.335396,22.1577563 96.2929419,22.0715075 96.1852427,22.0715075 L95.3272239,22.0715075 C94.2117995,22.0715075 93.9972949,21.6000441 94.4263042,20.2482177 L97.8154783,9.30892548 L98.2444877,9.30892548 C99.2312092,9.30892548 100.775643,9.50153281 101.247553,9.86619078 C101.54786,10.423903 101.934415,11.753832 102.105572,12.440247 C102.191374,12.6980995 102.277623,12.7839014 102.406326,12.7839014 L102.749086,12.7191031 C102.877789,12.6980995 102.921137,12.6547517 102.921137,12.5260489 C102.877789,11.6680302 103.092294,8.5367086 103.135641,8.1935011 C103.135641,8.06435141 103.04984,8.02145047 102.963591,8.02145047 C102.877789,8.02145047 102.835335,8.06435141 102.749086,8.10725234 C102.363425,8.32220392 101.591208,8.49336078 99.6606655,8.49336078 L94.2976014,8.49336078 Z M86.1231853,19.0045374 C85.9944825,18.9187355 85.9086806,18.9616364 85.8657797,19.0474383 C85.5225721,19.4335467 84.3642468,20.8921786 83.8923365,21.2782871 C83.3346243,21.771201 82.7340112,22.0934049 82.0046953,22.0934049 L77.1997903,22.0934049 L79.3019362,15.5934659 L80.3744596,15.5934659 C81.9188934,15.5934659 82.7340112,15.829868 82.7340112,17.3743017 C82.7340112,17.5030046 82.7340112,17.5459055 82.862714,17.5888064 L83.2488225,17.5888064 C83.3346243,17.5888064 83.3775253,17.5888064 83.4204262,17.4601036 C83.5062281,16.6449858 84.1926431,13.9851277 84.5358506,13.1700099 C84.5787515,13.1271089 84.5358506,13.0408602 84.4500487,13.0408602 L84.0639403,12.9121574 C83.9781384,12.9121574 83.9352375,12.9555052 83.8923365,13.0408602 C83.1201196,14.7144436 82.2835514,14.821696 81.3611812,14.821696 L79.5164409,14.821696 L81.3182803,9.26557766 L84.6645534,9.26557766 C84.7932562,9.26557766 84.921959,9.30892548 85.0506618,9.43762829 L87.2386097,11.9687836 C87.3673125,12.0974864 87.4102134,12.1403874 87.4960153,12.0974864 L87.7534209,11.9687836 C87.8821237,11.8829817 87.8821237,11.8829817 87.8392228,11.7323816 L87.1957087,8.85846564 C87.1099068,8.51525814 87.0670059,8.42900938 86.7237984,8.42900938 C86.4878432,8.42900938 85.973032,8.45090673 85.1150132,8.4723572 C84.2569945,8.49380767 83.0772187,8.49380767 81.532785,8.49380767 L79.9883512,8.49380767 C79.47354,8.49380767 78.7656745,8.4723572 78.1436109,8.45090673 C77.5429978,8.45090673 77.0281865,8.42900938 76.8994837,8.42900938 C76.7278799,8.42900938 76.684979,8.4723572 76.6420781,8.60106001 L76.5133753,9.07297032 C76.4704743,9.20167314 76.5348257,9.28747501 76.6420781,9.28747501 L77.3284931,9.28747501 C77.9720071,9.28747501 78.744224,9.58778157 78.379566,10.74566 L75.0976443,20.9341858 C74.8831396,21.6424981 74.4541303,22.0715075 73.5961115,22.0715075 L72.9096965,22.0715075 C72.8238946,22.0715075 72.7809937,22.1148553 72.7595432,22.2002103 L72.6737413,22.7579225 C72.6522909,22.8866253 72.6951918,22.9295263 72.8024442,22.9295263 C72.931147,22.9295263 73.2743545,22.9080758 73.7462648,22.8866253 C74.2396256,22.8866253 74.8616892,22.8656218 75.5266537,22.8656218 L78.3152146,22.8656218 C79.795297,22.8656218 81.3397307,22.8656218 82.5624075,22.8866253 C83.7850842,22.9080758 84.6645534,22.9295263 84.8361571,22.9295263 C85.0935628,22.9295263 85.2222656,22.8866253 85.3080675,22.5438647 L86.4234918,19.4116494 C86.4663928,19.2614961 86.4234918,19.2190421 86.3805909,19.1761411 L86.1231853,19.0045374 Z M70.9796012,18.897285 C71.2580104,17.7604102 71.558317,17.5888064 71.9663228,17.5888064 L72.4163357,17.5888064 C72.5450385,17.5888064 72.5879395,17.5459055 72.6093899,17.4167558 L72.6741882,16.9023914 C72.6951918,16.7951391 72.6308404,16.7303408 72.4806871,16.7303408 C72.1803806,16.7307877 71.6655693,16.7951391 70.2069374,16.7951391 C68.3192962,16.7951391 67.5685298,16.7307877 67.2467727,16.7307877 C67.075169,16.7303408 67.0322681,16.7736886 67.0108176,16.9023914 L66.9250157,17.3743017 C66.8821148,17.524455 66.9035652,17.5888064 67.075169,17.5888064 L67.8259354,17.5888064 C68.4050981,17.5888064 68.6410532,17.7604102 68.5767018,18.575528 C68.4908999,19.8411057 67.2467727,22.0496102 64.6727165,22.0496102 C63.7288959,22.0496102 61.5623985,21.491898 61.5623985,17.974468 C61.5623985,15.3794081 62.270264,13.0623106 63.5143912,11.4964264 C65.015924,9.52298328 66.5603577,9.05151986 67.9331877,9.05151986 C70.7217487,9.05151986 71.7728217,11.3038191 71.4086106,13.1485594 C71.3867132,13.2772622 71.4510646,13.3411667 71.558317,13.3630641 L71.9019714,13.405965 C72.0516778,13.4274155 72.0945787,13.405965 72.1374796,13.2772622 L73.3601564,8.9652711 C73.3820537,8.85846564 73.3172554,8.81511781 73.2319004,8.79366734 L72.9096965,8.70786547 C72.8024442,8.686415 72.7380928,8.70786547 72.7166423,8.81511781 C72.5879395,9.28747501 72.4596835,9.50153281 72.201831,9.50153281 C72.0945787,9.50153281 71.9019714,9.45907876 71.6226684,9.24412719 C71.1941059,8.90136657 70.0567842,8.17205064 67.8259354,8.17205064 C64.8443202,8.17205064 62.9781295,9.48052923 61.7769032,10.6813086 C60.1895685,12.2905406 58.9239909,14.6286417 58.9239909,17.3957522 C58.9239909,21.1066833 60.9403349,23.1869319 63.9004996,23.1869319 C66.7963129,23.1869319 68.0189896,21.4498908 68.3192962,21.0423319 L68.447999,21.084786 C67.6543317,24.0449506 67.2682232,25.7395377 67.0108176,26.7481566 C66.6247092,28.2282389 66.024096,29.1287118 64.9086716,29.1287118 C64.4582118,29.1287118 63.964851,28.8932035 63.964851,28.4641941 C63.964851,28.2925904 64.007752,28.185338 64.0935538,28.0995361 C64.2008062,27.9918369 64.2866081,27.6276258 64.2866081,27.3702202 C64.2866081,27.1338182 64.1579052,26.4693005 63.3642379,26.4693005 C62.6134715,26.4693005 62.2059126,27.0484632 62.2059126,27.7992296 C62.2059126,28.8279583 62.9781295,29.8151268 64.9730231,29.8151268 C66.6032587,29.8151268 68.1476924,28.3783922 68.7054046,27.2415174 C68.9842607,26.6194538 69.4132701,25.3967771 69.5634234,24.6674611 L70.9796012,18.897285 Z M50.9658669,9.20122625 C51.2232726,9.1587722 51.4806782,9.1587722 51.8667866,9.1587722 C53.9689326,9.1587722 54.6128935,10.5530527 54.6128935,11.4535255 C54.6128935,12.9984061 53.626172,14.1991855 52.5103007,14.6715427 C51.0516688,15.2717089 49.9362444,15.185907 49.0782257,15.185907 L50.9658669,9.20122625 Z M48.8422705,15.9371203 C49.4214332,15.9371203 50.3652538,15.8084175 50.8800651,16.9877464 C51.1374707,17.5030046 53.0251119,21.7072964 53.3254185,22.2216608 C53.626172,22.7154685 53.7115269,22.9295263 53.9260316,22.9295263 C54.2692391,22.9295263 54.6553476,22.8656218 55.8994748,22.8656218 C57.0578001,22.8656218 57.4010076,22.9295263 57.6155123,22.9295263 C57.7442151,22.9295263 57.7875629,22.8441713 57.830017,22.7154685 L57.8729179,22.2864591 C57.9158188,22.1577563 57.8729179,22.0715075 57.7442151,22.0715075 L57.1865029,22.0715075 C56.414286,22.0715075 55.8994748,21.7287469 55.320759,20.8278272 C54.9556541,20.2482177 53.4970223,17.202698 53.3683194,16.9877464 C53.1538148,16.558737 52.8106073,15.9156699 52.1241923,15.7436192 L52.1241923,15.6582642 C54.9127532,15.3579577 57.1865029,13.6414733 57.1865029,11.5397742 C57.1865029,8.57960954 53.9689326,8.42900938 52.1241923,8.42900938 C51.5235791,8.42900938 49.2927304,8.49336078 47.0618816,8.49336078 C46.8473769,8.49336078 46.804476,8.53626172 46.7615751,8.66496453 L46.6757732,9.11542438 C46.6328722,9.24412719 46.6757732,9.28747501 46.8473769,9.28747501 L47.5766929,9.28747501 C48.3060088,9.28747501 48.4347116,9.67313657 48.2202069,10.3595516 L44.7881319,21.0633355 C44.6165282,21.600491 44.2304197,22.0715075 43.7156085,22.0715075 L43.1578963,22.0715075 C42.9862926,22.0715075 42.9433916,22.1148553 42.9433916,22.2435582 L42.8575897,22.7154685 C42.8146888,22.8441713 42.8575897,22.9295263 42.9862926,22.9295263 C43.2436982,22.9295263 44.058816,22.8656218 45.5603488,22.8656218 C47.4050891,22.8656218 48.3489098,22.9295263 48.6063154,22.9295263 C48.7350182,22.9295263 48.8208201,22.8866253 48.863721,22.7579225 L48.9066219,22.2435582 C48.9495229,22.1577563 48.9066219,22.0715075 48.7779191,22.0715075 L47.8769994,22.0715075 C47.2763863,22.0715075 47.0404312,21.685846 47.4050891,20.5270738 L48.8422705,15.9371203 Z M35.0067182,10.7885609 C35.778935,9.88764125 36.8085575,9.20122625 38.0955857,9.20122625 C40.0261279,9.20122625 41.0990982,10.6169572 41.0990982,12.7620041 C41.0557504,17.3953053 38.2676363,22.2002103 35.135421,22.2002103 C33.3764825,22.2002103 31.9607516,20.9560831 31.9607516,18.2966719 C31.9607516,15.9366734 33.2477797,12.7620041 35.0067182,10.7885609 L35.0067182,10.7885609 Z M43.4157488,14.4351406 C43.4157488,10.4882544 41.0128494,8.17205064 37.5807744,8.17205064 C33.033275,8.17205064 29.7728038,12.3758956 29.7728038,16.8375931 C29.7728038,18.7681353 30.330516,20.4841728 31.660445,21.771201 C32.9903741,23.0582291 34.6635107,23.1869319 35.5219763,23.1869319 C40.3693354,23.1869319 43.4157488,18.7256813 43.4157488,14.4351406 L43.4157488,14.4351406 Z M27.134843,19.0045374 C27.0061402,18.9187355 26.9203383,18.9616364 26.8774374,19.0474383 C26.5342299,19.4335467 25.3759046,20.8921786 24.9039943,21.2782871 C24.3462821,21.771201 23.7456689,22.0934049 23.016353,22.0934049 L18.211448,22.0934049 L20.3135939,15.5934659 L21.3861174,15.5934659 C22.9305511,15.5934659 23.7456689,15.829868 23.7456689,17.3743017 C23.7456689,17.5030046 23.7456689,17.5459055 23.8743718,17.5888064 L24.2604802,17.5888064 C24.3462821,17.5888064 24.389183,17.5888064 24.4320839,17.4601036 C24.5178858,16.6449858 25.2043008,13.9851277 25.5475083,13.1700099 C25.5904093,13.1271089 25.5475083,13.0408602 25.4617064,13.0408602 L25.075598,12.9121574 C24.9897961,12.9121574 24.9468952,12.9555052 24.9039943,13.0408602 C24.1317774,14.7144436 23.2952091,14.821696 22.3728389,14.821696 L20.5280986,14.821696 L22.329938,9.26557766 L25.6762111,9.26557766 C25.8049139,9.26557766 25.9336168,9.30892548 26.0623196,9.43762829 L28.2502674,11.9687836 C28.3789702,12.0974864 28.4218711,12.1403874 28.507673,12.0974864 L28.7650786,11.9687836 C28.8937814,11.8829817 28.8937814,11.8829817 28.8508805,11.7323816 L28.2073664,8.85846564 C28.1215646,8.51525814 28.0786636,8.42900938 27.7354561,8.42900938 C27.499501,8.42900938 26.9846897,8.45090673 26.126671,8.4723572 C25.2686522,8.49380767 24.0888764,8.49380767 22.5444427,8.49380767 L21.0000089,8.49380767 C20.4851977,8.49380767 19.7773322,8.4723572 19.1552686,8.45090673 C18.5546555,8.45090673 18.0398442,8.42900938 17.9111414,8.42900938 C17.7395377,8.42900938 17.6966367,8.4723572 17.6537358,8.60106001 L17.525033,9.07297032 C17.4821321,9.20167314 17.5464835,9.28747501 17.6537358,9.28747501 L18.3401508,9.28747501 C18.9836649,9.28747501 19.7558817,9.58778157 19.3912238,10.74566 L16.1093021,20.9341858 C15.8947974,21.6424981 15.465788,22.0715075 14.6077692,22.0715075 L13.9213542,22.0715075 C13.8355524,22.0715075 13.7926514,22.1148553 13.771201,22.2002103 L13.6853991,22.7579225 C13.6639486,22.8866253 13.7068496,22.9295263 13.8141019,22.9295263 C13.9428047,22.9295263 14.2860122,22.9080758 14.7579225,22.8866253 C15.2512833,22.8866253 15.8733469,22.8656218 16.5383114,22.8656218 L19.3268724,22.8656218 C20.8069547,22.8656218 22.3513885,22.8656218 23.5740652,22.8866253 C24.7967419,22.9080758 25.6762111,22.9295263 25.8478149,22.9295263 C26.1052205,22.9295263 26.2339233,22.8866253 26.3197252,22.5438647 L27.4351496,19.4116494 C27.4780505,19.2614961 27.4351496,19.2190421 27.3922486,19.1761411 L27.134843,19.0045374 Z M10.6394325,24.6674611 C10.4892792,25.3967771 10.0602699,26.6194538 9.78141376,27.2415174 C9.22325469,28.3783922 7.67971471,29.8151268 6.0490322,29.8151268 C4.05458548,29.8151268 3.28192172,28.8279583 3.28192172,27.7992296 C3.28192172,27.0484632 3.68992752,26.4693005 4.44024704,26.4693005 C5.23436127,26.4693005 5.36306408,27.1338182 5.36306408,27.3702202 C5.36306408,27.6276258 5.27681532,27.9918369 5.17000986,28.0995361 C5.08420799,28.185338 5.04130705,28.2925904 5.04130705,28.4641941 C5.04130705,28.8932035 5.53466783,29.1287118 5.98423391,29.1287118 C7.10010517,29.1287118 7.70116518,28.2282389 8.08682673,26.7481566 C8.34467924,25.7395377 8.73034079,24.0449506 9.52445502,21.084786 L9.39575221,21.0423319 C9.09544565,21.4498908 7.87232204,23.1869319 4.97650876,23.1869319 C2.01634407,23.1869319 0,21.1066833 0,17.3957522 C0,14.6286417 1.26557766,12.2905406 2.85335923,10.6813086 C4.05458548,9.48052923 5.92077627,8.17205064 8.90239143,8.17205064 C11.1327933,8.17205064 12.270115,8.90136657 12.6991244,9.24412719 C12.9779805,9.45907876 13.1705878,9.50153281 13.2782871,9.50153281 C13.5356927,9.50153281 13.6639486,9.28747501 13.7930983,8.81511781 C13.8141019,8.70786547 13.8784533,8.686415 13.9861525,8.70786547 L14.3074627,8.79366734 C14.3937114,8.81511781 14.4580628,8.85846564 14.4361655,8.9652711 L13.2139357,13.2772622 C13.1705878,13.405965 13.1281338,13.4274155 12.9779805,13.405965 L12.634773,13.3630641 C12.5270738,13.3411667 12.4627224,13.2772622 12.4846197,13.1485594 C12.8492777,11.3038191 11.7982047,9.05151986 9.00919689,9.05151986 C7.63681377,9.05151986 6.09238002,9.52298328 4.5908472,11.4964264 C3.34672001,13.0623106 2.63885454,15.3794081 2.63885454,17.974468 C2.63885454,21.491898 4.80535189,22.0496102 5.74917252,22.0496102 C8.32322877,22.0496102 9.56690908,19.8411057 9.65271095,18.575528 C9.71706236,17.7604102 9.48155409,17.5888064 8.90239143,17.5888064 L8.15117814,17.5888064 C7.98002127,17.5888064 7.95812392,17.524455 8.00147174,17.3743017 L8.08682673,16.9023914 C8.10872408,16.7736886 8.15117814,16.7303408 8.32278189,16.7307877 C8.64453892,16.7307877 9.39530533,16.7951391 11.2829466,16.7951391 C12.7415785,16.7951391 13.2568366,16.7307877 13.5571432,16.7303408 C13.7072964,16.7303408 13.7716478,16.7951391 13.7501974,16.9023914 L13.685846,17.4167558 C13.6639486,17.5459055 13.6214946,17.5888064 13.4927917,17.5888064 L13.0423319,17.5888064 C12.634773,17.5888064 12.3340195,17.7604102 12.0556103,18.897285 L10.6394325,24.6674611 Z" id="logo-one-line"></path>
                        </g>
                        <rect id="Rectangle" x="310" y="4" width="2" height="22"></rect>
                        <g id="9" fill-rule="nonzero">
                            <use xlink:href="#path-1"></use>
                            <use xlink:href="#path-1"></use>
                        </g>
                        <g id="0" fill-rule="nonzero">
                            <use xlink:href="#path-2"></use>
                            <use xlink:href="#path-2"></use>
                        </g>
                        <g id="D" fill-rule="nonzero">
                            <use xlink:href="#path-3"></use>
                            <use xlink:href="#path-3"></use>
                        </g>
                        <g id="A" fill-rule="nonzero">
                            <use xlink:href="#path-4"></use>
                            <use xlink:href="#path-4"></use>
                        </g>
                        <g id="Y" fill-rule="nonzero">
                            <use xlink:href="#path-5"></use>
                            <use xlink:href="#path-5"></use>
                        </g>
                        <g id="S" fill-rule="nonzero">
                            <use xlink:href="#path-6"></use>
                            <use xlink:href="#path-6"></use>
                        </g>
                        <g id="Path" fill-rule="nonzero">
                            <use xlink:href="#path-7"></use>
                            <use xlink:href="#path-7"></use>
                        </g>
                        <g id="Path" fill-rule="nonzero">
                            <use xlink:href="#path-8"></use>
                            <use xlink:href="#path-8"></use>
                        </g>
                        <g id="Path" fill-rule="nonzero">
                            <use xlink:href="#path-9"></use>
                            <use xlink:href="#path-9"></use>
                        </g>
                        <g id="Path" fill-rule="nonzero">
                            <use xlink:href="#path-10"></use>
                            <use xlink:href="#path-10"></use>
                        </g>
                        <g id="h" fill-rule="nonzero">
                            <use xlink:href="#path-11"></use>
                            <use xlink:href="#path-11"></use>
                        </g>
                        <g id="G" fill-rule="nonzero">
                            <use xlink:href="#path-12"></use>
                            <use xlink:href="#path-12"></use>
                        </g>
                        <g id="E" fill-rule="nonzero">
                            <use xlink:href="#path-13"></use>
                            <use xlink:href="#path-13"></use>
                        </g>
                        <g id="O" fill-rule="nonzero">
                            <use xlink:href="#path-14"></use>
                            <use xlink:href="#path-14"></use>
                        </g>
                        <g id="R" fill-rule="nonzero">
                            <use xlink:href="#path-15"></use>
                            <use xlink:href="#path-15"></use>
                        </g>
                        <g id="G" fill-rule="nonzero">
                            <use xlink:href="#path-16"></use>
                            <use xlink:href="#path-16"></use>
                        </g>
                        <g id="E" fill-rule="nonzero">
                            <use xlink:href="#path-17"></use>
                            <use xlink:href="#path-17"></use>
                        </g>
                        <g id="T" fill-rule="nonzero">
                            <use xlink:href="#path-18"></use>
                            <use xlink:href="#path-18"></use>
                        </g>
                        <g id="O" fill-rule="nonzero">
                            <use xlink:href="#path-19"></use>
                            <use xlink:href="#path-19"></use>
                        </g>
                        <g id="W" fill-rule="nonzero">
                            <use xlink:href="#path-20"></use>
                            <use xlink:href="#path-20"></use>
                        </g>
                        <g id="N" fill-rule="nonzero">
                            <use xlink:href="#path-21"></use>
                            <use xlink:href="#path-21"></use>
                        </g>
                    </g>
                </g>
            </g>
        </g>
    </g>
</svg>