<?xml version="1.0" encoding="UTF-8"?>
<svg width="289px" height="25px" viewBox="0 0 289 25" version="1.1" xmlns="http://www.w3.org/2000/svg" xmlns:xlink="http://www.w3.org/1999/xlink">
    <title>Georgetown University 90 Days with Georgetown</title>
    <defs>
        <path d="M56.354251,17.5546559 C57.2651822,17.5546559 58.0364372,17.3572874 58.6680162,16.9625506 C59.2995951,16.5678138 59.8157895,16.0516194 60.2165992,15.4139676 C60.6174089,14.7763158 60.9089069,14.062753 61.0910931,13.2732794 C61.2732794,12.4838057 61.3643725,11.694332 61.3643725,10.9048583 C61.3643725,10.1032389 61.291498,9.30769231 61.145749,8.51821862 C61,7.72874494 60.7388664,7.02125506 60.3623482,6.39574899 C59.98583,5.77024291 59.4848178,5.26619433 58.8593117,4.88360324 C58.2338057,4.50101215 57.4352227,4.3097166 56.4635628,4.3097166 C55.7955466,4.3097166 55.1882591,4.43117409 54.6417004,4.67408907 C54.0951417,4.91700405 53.6244939,5.24797571 53.2297571,5.66700405 C52.8350202,6.08603239 52.5313765,6.57793522 52.3188259,7.14271255 C52.1062753,7.70748988 52,8.31781377 52,8.97368421 C52,9.48380567 52.0789474,9.98785425 52.2368421,10.48583 C52.3947368,10.9838057 52.6437247,11.4271255 52.9838057,11.8157895 C53.3481781,12.2165992 53.791498,12.5354251 54.3137652,12.7722672 C54.8360324,13.0091093 55.3704453,13.1275304 55.917004,13.1275304 C56.5364372,13.1275304 57.082996,13.0182186 57.5566802,12.7995951 C58.0303644,12.5809717 58.4433198,12.2165992 58.7955466,11.7064777 L58.8319838,11.742915 C58.8076923,12.0951417 58.7560729,12.4959514 58.6771255,12.9453441 C58.5981781,13.3947368 58.4676113,13.8168016 58.2854251,14.2115385 C58.1032389,14.6062753 57.8603239,14.9402834 57.5566802,15.2135628 C57.2530364,15.4868421 56.8643725,15.6234818 56.3906883,15.6234818 C55.9412955,15.6234818 55.5647773,15.465587 55.2611336,15.1497976 C54.9574899,14.8340081 54.7631579,14.4635628 54.6781377,14.0384615 L52.2186235,14.0384615 C52.291498,14.597166 52.4433198,15.0951417 52.6740891,15.5323887 C52.9048583,15.9696356 53.2024291,16.340081 53.5668016,16.6437247 C53.9311741,16.9473684 54.3502024,17.1751012 54.8238866,17.3269231 C55.2975709,17.4787449 55.8076923,17.5546559 56.354251,17.5546559 Z M56.5364372,11.1781377 C56.208502,11.1781377 55.9200405,11.1082996 55.6710526,10.9686235 C55.4220648,10.8289474 55.2186235,10.6467611 55.0607287,10.4220648 C54.902834,10.1973684 54.784413,9.94230769 54.7054656,9.65688259 C54.6265182,9.37145749 54.5870445,9.07692308 54.5870445,8.77327935 C54.5870445,8.48178138 54.6295547,8.19635628 54.7145749,7.91700405 C54.7995951,7.63765182 54.9271255,7.38866397 55.097166,7.17004049 C55.2672065,6.951417 55.4736842,6.77530364 55.7165992,6.6417004 C55.9595142,6.50809717 56.2327935,6.44129555 56.5364372,6.44129555 C56.8643725,6.44129555 57.1558704,6.50809717 57.4109312,6.6417004 C57.6659919,6.77530364 57.8815789,6.95445344 58.0576923,7.1791498 C58.2338057,7.40384615 58.3674089,7.65890688 58.458502,7.94433198 C58.5495951,8.22975709 58.5951417,8.51821862 58.5951417,8.8097166 C58.5951417,9.12550607 58.5526316,9.42611336 58.4676113,9.71153846 C58.3825911,9.99696356 58.2550607,10.2489879 58.0850202,10.4676113 C57.9149798,10.6862348 57.7024291,10.8593117 57.4473684,10.9868421 C57.1923077,11.1143725 56.888664,11.1781377 56.5364372,11.1781377 Z" id="path-1"></path>
        <path d="M66.7206478,17.5546559 C67.3643725,17.5546559 67.9686235,17.4453441 68.5334008,17.2267206 C69.0981781,17.0080972 69.5961538,16.6437247 70.0273279,16.1336032 C70.458502,15.6234818 70.798583,14.9402834 71.0475709,14.0840081 C71.2965587,13.2277328 71.4210526,12.1619433 71.4210526,10.8866397 C71.4210526,9.64777328 71.2965587,8.6062753 71.0475709,7.76214575 C70.798583,6.91801619 70.458502,6.24089069 70.0273279,5.73076923 C69.5961538,5.22064777 69.0981781,4.8562753 68.5334008,4.63765182 C67.9686235,4.41902834 67.3643725,4.3097166 66.7206478,4.3097166 C66.0890688,4.3097166 65.4908907,4.41902834 64.9261134,4.63765182 C64.361336,4.8562753 63.8663968,5.22064777 63.4412955,5.73076923 C63.0161943,6.24089069 62.6791498,6.91801619 62.4301619,7.76214575 C62.1811741,8.6062753 62.0566802,9.64777328 62.0566802,10.8866397 C62.0566802,12.1619433 62.1811741,13.2277328 62.4301619,14.0840081 C62.6791498,14.9402834 63.0161943,15.6234818 63.4412955,16.1336032 C63.8663968,16.6437247 64.361336,17.0080972 64.9261134,17.2267206 C65.4908907,17.4453441 66.0890688,17.5546559 66.7206478,17.5546559 Z M66.7206478,15.4412955 C66.1983806,15.4412955 65.7975709,15.2712551 65.5182186,14.9311741 C65.2388664,14.5910931 65.0354251,14.1811741 64.9078947,13.701417 C64.7803644,13.2216599 64.7044534,12.7236842 64.6801619,12.2074899 C64.6558704,11.6912955 64.6437247,11.2510121 64.6437247,10.8866397 C64.6437247,10.6680162 64.6467611,10.4038462 64.652834,10.0941296 C64.6589069,9.78441296 64.6801619,9.46558704 64.7165992,9.13765182 C64.7530364,8.8097166 64.8137652,8.48481781 64.8987854,8.16295547 C64.9838057,7.84109312 65.1022267,7.55263158 65.2540486,7.29757085 C65.4058704,7.04251012 65.6002024,6.83603239 65.8370445,6.67813765 C66.0738866,6.52024291 66.3684211,6.44129555 66.7206478,6.44129555 C67.0728745,6.44129555 67.3704453,6.52024291 67.6133603,6.67813765 C67.8562753,6.83603239 68.0566802,7.04251012 68.2145749,7.29757085 C68.3724696,7.55263158 68.4908907,7.84109312 68.5698381,8.16295547 C68.6487854,8.48481781 68.7095142,8.8097166 68.7520243,9.13765182 C68.7945344,9.46558704 68.8188259,9.78441296 68.8248988,10.0941296 C68.8309717,10.4038462 68.8340081,10.6680162 68.8340081,10.8866397 C68.8340081,11.2510121 68.8218623,11.6912955 68.7975709,12.2074899 C68.7732794,12.7236842 68.6973684,13.2216599 68.5698381,13.701417 C68.4423077,14.1811741 68.23583,14.5910931 67.9504049,14.9311741 C67.6649798,15.2712551 67.2550607,15.4412955 66.7206478,15.4412955 Z" id="path-2"></path>
        <path d="M80.8218623,17.3178138 C81.8178138,17.3178138 82.6831984,17.1508097 83.4180162,16.8168016 C84.152834,16.4827935 84.7661943,16.0242915 85.2580972,15.4412955 C85.75,14.8582996 86.1174089,14.1659919 86.3603239,13.3643725 C86.6032389,12.562753 86.7246964,11.6882591 86.7246964,10.7408907 C86.7246964,9.65991903 86.5759109,8.71862348 86.2783401,7.91700405 C85.9807692,7.11538462 85.5678138,6.44736842 85.0394737,5.91295547 C84.5111336,5.37854251 83.8856275,4.97773279 83.1629555,4.71052632 C82.4402834,4.44331984 81.659919,4.3097166 80.8218623,4.3097166 L75.2105263,4.3097166 L75.2105263,17.3178138 L80.8218623,17.3178138 Z M80.6214575,14.9129555 L78.0708502,14.9129555 L78.0708502,6.7145749 L80.111336,6.7145749 C80.8157895,6.7145749 81.4078947,6.81477733 81.8876518,7.01518219 C82.3674089,7.21558704 82.7530364,7.50404858 83.0445344,7.8805668 C83.3360324,8.25708502 83.5455466,8.70951417 83.6730769,9.23785425 C83.8006073,9.76619433 83.8643725,10.3582996 83.8643725,11.01417 C83.8643725,11.7307692 83.7732794,12.3380567 83.5910931,12.8360324 C83.4089069,13.3340081 83.1659919,13.7378543 82.8623482,14.0475709 C82.5587045,14.3572874 82.2125506,14.5789474 81.8238866,14.7125506 C81.4352227,14.8461538 81.034413,14.9129555 80.6214575,14.9129555 Z" id="path-3"></path>
        <path d="M89.5303644,17.3178138 L90.5506073,14.4210526 L95.4149798,14.4210526 L96.3987854,17.3178138 L99.3684211,17.3178138 L94.5040486,4.3097166 L91.5708502,4.3097166 L86.6518219,17.3178138 L89.5303644,17.3178138 Z M94.6680162,12.2894737 L91.2975709,12.2894737 L92.9919028,7.51619433 L93.0283401,7.51619433 L94.6680162,12.2894737 Z" id="path-4"></path>
        <polygon id="path-5" points="105.143725 17.3178138 105.143725 12.3259109 109.97166 4.3097166 106.783401 4.3097166 103.759109 9.44736842 100.716599 4.3097166 97.5101215 4.3097166 102.283401 12.2530364 102.283401 17.3178138"></polygon>
        <path d="M115.236842,17.6093117 C116.123482,17.6093117 116.903846,17.5060729 117.577935,17.2995951 C118.252024,17.0931174 118.816802,16.8046559 119.272267,16.4342105 C119.727733,16.0637652 120.07085,15.6234818 120.301619,15.1133603 C120.532389,14.6032389 120.647773,14.0506073 120.647773,13.4554656 C120.647773,12.7267206 120.492915,12.1285425 120.183198,11.6609312 C119.873482,11.1933198 119.506073,10.8198381 119.080972,10.5404858 C118.65587,10.2611336 118.227733,10.0576923 117.796559,9.93016194 C117.365385,9.80263158 117.02834,9.7145749 116.785425,9.6659919 C115.97166,9.45951417 115.312753,9.28947368 114.808704,9.15587045 C114.304656,9.02226721 113.909919,8.88866397 113.624494,8.75506073 C113.339069,8.62145749 113.147773,8.4757085 113.050607,8.31781377 C112.953441,8.15991903 112.904858,7.9534413 112.904858,7.69838057 C112.904858,7.41902834 112.965587,7.18825911 113.087045,7.00607287 C113.208502,6.82388664 113.36336,6.67206478 113.551619,6.55060729 C113.739879,6.4291498 113.949393,6.34412955 114.180162,6.29554656 C114.410931,6.24696356 114.6417,6.22267206 114.87247,6.22267206 C115.224696,6.22267206 115.549595,6.25303644 115.847166,6.31376518 C116.144737,6.37449393 116.408907,6.47773279 116.639676,6.62348178 C116.870445,6.76923077 117.055668,6.96963563 117.195344,7.22469636 C117.33502,7.47975709 117.417004,7.80161943 117.441296,8.1902834 L120.210526,8.1902834 C120.210526,7.43724696 120.067814,6.7965587 119.782389,6.26821862 C119.496964,5.73987854 119.111336,5.30566802 118.625506,4.96558704 C118.139676,4.62550607 117.584008,4.37955466 116.958502,4.22773279 C116.332996,4.07591093 115.680162,4 115,4 C114.417004,4 113.834008,4.07894737 113.251012,4.23684211 C112.668016,4.39473684 112.145749,4.63765182 111.684211,4.96558704 C111.222672,5.29352227 110.84919,5.7034413 110.563765,6.19534413 C110.27834,6.68724696 110.135628,7.26720648 110.135628,7.93522267 C110.135628,8.53036437 110.247976,9.03744939 110.472672,9.45647773 C110.697368,9.87550607 110.991903,10.2246964 111.356275,10.5040486 C111.720648,10.7834008 112.133603,11.0111336 112.595142,11.187247 C113.05668,11.3633603 113.530364,11.5121457 114.016194,11.6336032 C114.489879,11.7672065 114.95749,11.888664 115.419028,11.9979757 C115.880567,12.1072874 116.293522,12.2348178 116.657895,12.3805668 C117.022267,12.5263158 117.316802,12.708502 117.541498,12.9271255 C117.766194,13.145749 117.878543,13.4311741 117.878543,13.7834008 C117.878543,14.111336 117.793522,14.3815789 117.623482,14.5941296 C117.453441,14.8066802 117.240891,14.9736842 116.98583,15.0951417 C116.730769,15.2165992 116.45749,15.298583 116.165992,15.3410931 C115.874494,15.3836032 115.601215,15.4048583 115.346154,15.4048583 C114.969636,15.4048583 114.605263,15.3593117 114.253036,15.2682186 C113.90081,15.1771255 113.59413,15.0374494 113.332996,14.8491903 C113.071862,14.6609312 112.862348,14.4149798 112.704453,14.111336 C112.546559,13.8076923 112.467611,13.437247 112.467611,13 L109.698381,13 C109.686235,13.8016194 109.831984,14.4939271 110.135628,15.0769231 C110.439271,15.659919 110.84919,16.1396761 111.365385,16.5161943 C111.881579,16.8927126 112.476721,17.1690283 113.15081,17.3451417 C113.824899,17.5212551 114.520243,17.6093117 115.236842,17.6093117 Z" id="path-6"></path>
        <path d="M132.380567,17.5 C133.783401,17.5 134.530364,16.6437247 135.11336,15.8238866 C135.987854,14.6214575 136.497976,12.9453441 136.497976,11.597166 C136.497976,10.2125506 135.969636,9.7388664 135.277328,9.7388664 C134.803644,9.7388664 134.439271,10.1032389 134.439271,10.5404858 C134.439271,10.9048583 134.767206,11.305668 134.912955,11.451417 C135.095142,11.6336032 135.295547,12.2894737 135.295547,12.9089069 C135.295547,14.7125506 134.165992,16.0425101 132.963563,16.0425101 C132.125506,16.0425101 131.651822,15.3866397 131.651822,14.694332 C131.651822,14.2206478 131.870445,13.4554656 132.07085,12.7995951 C132.398785,11.7793522 132.836032,10.8684211 132.836032,10.4676113 C132.836032,10.1761134 132.617409,9.95748988 132.253036,9.95748988 C131.888664,9.95748988 131.41498,10.1396761 131.305668,10.5769231 C131.123482,11.305668 131.105263,12.1801619 130.995951,12.7995951 C130.850202,13.6740891 130.558704,14.6761134 130.303644,15.0404858 C129.793522,15.7510121 129.137652,16.0789474 128.518219,16.0789474 C127.898785,16.0425101 127.479757,15.5323887 127.479757,14.7672065 C127.479757,13.1639676 128.882591,10.7955466 129.392713,10.1761134 C129.611336,9.95748988 129.465587,9.77530364 129.246964,9.81174089 L127.497976,9.92105263 L126.040486,9.92105263 C125.275304,9.92105263 124.801619,10.1761134 124.473684,10.5404858 C124.036437,11.01417 123.672065,11.5242915 123.672065,12.2894737 C123.672065,13.1639676 124.182186,13.6376518 124.619433,13.6376518 C125.129555,13.6376518 125.384615,13.3097166 125.384615,12.9453441 C125.384615,12.4716599 125.093117,12.3259109 124.983806,12.2530364 C124.801619,12.1801619 124.437247,12.034413 124.473684,11.7064777 C124.473684,11.4149798 124.801619,11.2327935 125.129555,11.2327935 L126.587045,11.2327935 C127.315789,11.2327935 128.008097,10.7591093 128.226721,10.6497976 L128.317814,10.7591093 C127.497976,11.7064777 125.8583,14.111336 125.8583,15.6781377 C125.8583,16.8076923 126.623482,17.5 127.607287,17.5 C128.991903,17.5 130.157895,16.2975709 130.595142,15.7145749 C130.704453,16.4433198 131.214575,17.5 132.380567,17.5 Z" id="path-7"></path>
        <path d="M141.253036,7.53441296 C141.908907,7.53441296 142.327935,6.89676113 142.327935,6.47773279 C142.327935,6.02226721 141.945344,5.56680162 141.216599,5.56680162 C140.651822,5.56680162 140.196356,6.05870445 140.196356,6.55060729 C140.196356,7.00607287 140.524291,7.53441296 141.253036,7.53441296 Z" id="path-8"></path>
        <path d="M138.228745,17.5 C140.214575,17.5 141.489879,15.7510121 141.59919,15.6052632 C141.672065,15.5323887 141.635628,15.4959514 141.562753,15.4230769 L141.362348,15.2226721 C141.307692,15.1680162 141.234818,15.1680162 141.198381,15.2408907 C141.089069,15.3866397 140.1417,16.3704453 139.777328,16.4068826 C139.631579,16.4068826 139.558704,16.2975709 139.558704,16.1518219 C139.558704,15.9696356 139.631579,15.6781377 139.88664,14.98583 L140.906883,12.2165992 C141.216599,11.3603239 141.453441,10.6862348 141.453441,10.3218623 C141.453441,9.95748988 141.234818,9.7388664 140.797571,9.7388664 C139.194332,9.7388664 137.554656,11.8522267 137.445344,11.9615385 C137.408907,12.034413 137.445344,12.0708502 137.518219,12.1255061 L137.700405,12.2894737 C137.773279,12.3623482 137.846154,12.3623482 137.919028,12.2894737 C138.174089,11.9979757 139.012146,11.0506073 139.303644,11.0506073 C139.449393,11.0506073 139.522267,11.1234818 139.522267,11.2692308 C139.522267,11.4878543 139.412955,11.8340081 139.230769,12.3259109 L138.720648,13.7469636 C137.991903,15.7692308 137.700405,16.6255061 137.700405,16.9898785 C137.700405,17.2813765 137.846154,17.5 138.228745,17.5 Z" id="path-9"></path>
        <path d="M143.402834,17.5 C145.04251,17.5 146.682186,15.9696356 146.90081,15.6781377 C146.937247,15.6052632 146.937247,15.5688259 146.864372,15.5323887 L146.663968,15.3137652 C146.591093,15.2408907 146.554656,15.2408907 146.481781,15.3137652 C146.37247,15.4230769 145.242915,16.3340081 144.823887,16.3340081 C144.605263,16.3340081 144.495951,16.1882591 144.495951,16.0060729 C144.495951,15.7874494 144.678138,15.3502024 144.823887,14.9493927 L146.427126,10.9412955 L148.321862,10.9412955 C148.431174,10.9412955 148.48583,10.9230769 148.504049,10.8502024 L148.649798,10.3218623 C148.686235,10.2125506 148.649798,10.1396761 148.576923,10.1396761 L146.700405,10.1396761 L147.884615,7.73481781 C147.95749,7.55263158 147.884615,7.37044534 147.775304,7.37044534 C147.702429,7.37044534 147.593117,7.44331984 147.483806,7.47975709 C147.338057,7.58906883 146.609312,7.91700405 146.244939,7.9534413 C145.917004,7.98987854 145.84413,8.02631579 145.771255,8.20850202 L145.024291,10.1396761 L143.621457,10.1396761 C143.512146,10.1396761 143.475709,10.1761134 143.439271,10.2854251 L143.293522,10.7591093 C143.257085,10.9048583 143.293522,10.9412955 143.402834,10.9412955 L144.751012,10.9412955 L142.819838,15.9331984 C142.710526,16.2611336 142.637652,16.6255061 142.637652,16.9534413 C142.637652,17.208502 142.856275,17.5 143.402834,17.5 Z" id="path-10"></path>
        <path d="M151.109312,17.9008097 C152.311741,17.9008097 153.331984,16.917004 154.133603,15.4595142 C154.789474,14.2935223 155.336032,12.7631579 155.336032,11.4331984 C155.336032,10.6133603 155.008097,9.7388664 153.878543,9.7388664 C152.493927,9.7388664 151.291498,11.0870445 150.417004,12.3987854 L150.307692,12.2894737 L153.076923,5.76720648 C153.186235,5.49392713 153.259109,5.31174089 153.259109,5.20242915 C153.259109,5.09311741 153.186235,5.02024291 153.040486,5.02024291 L150.161943,5.02024291 C149.979757,5.02024291 149.94332,5.05668016 149.906883,5.1659919 L149.834008,5.49392713 C149.797571,5.60323887 149.870445,5.67611336 149.94332,5.67611336 L150.489879,5.67611336 C150.817814,5.67611336 151.054656,5.82186235 151.054656,6.04048583 C151.054656,6.20445344 150.963563,6.51417004 150.817814,6.89676113 L146.919028,17.062753 C146.864372,17.208502 146.90081,17.3178138 147.064777,17.3178138 L148.230769,17.3178138 C148.3583,17.3178138 148.412955,17.2813765 148.449393,17.1720648 L149.396761,14.9493927 C149.615385,14.3299595 149.979757,13.6740891 150.417004,13.0910931 C150.927126,12.4352227 152.275304,10.9048583 153.076923,10.9048583 C153.51417,10.9048583 153.623482,11.3421053 153.623482,11.7611336 C153.623482,12.6174089 153.295547,13.965587 152.931174,15.0222672 C152.639676,15.9696356 152.238866,17.1174089 151.838057,17.1174089 C151.582996,17.1174089 151.510121,16.8805668 151.473684,16.6255061 C151.437247,16.3340081 151.255061,16.0060729 150.817814,16.0060729 C150.34413,16.0060729 150.052632,16.4797571 150.052632,16.917004 C150.052632,17.5 150.526316,17.9008097 151.109312,17.9008097 Z" id="path-11"></path>
        <path d="M164.572874,17.6093117 C165.204453,17.6093117 165.82996,17.4787449 166.449393,17.2176113 C167.068826,16.9564777 167.633603,16.4979757 168.143725,15.8421053 L168.435223,17.3178138 L170.257085,17.3178138 L170.257085,10.2854251 L164.791498,10.2854251 L164.791498,12.417004 L167.67004,12.417004 C167.58502,13.3279352 167.284413,14.0232794 166.768219,14.5030364 C166.252024,14.9827935 165.520243,15.2226721 164.572874,15.2226721 C163.92915,15.2226721 163.382591,15.0981781 162.933198,14.8491903 C162.483806,14.6002024 162.119433,14.2692308 161.840081,13.8562753 C161.560729,13.4433198 161.357287,12.9787449 161.229757,12.4625506 C161.102227,11.9463563 161.038462,11.4149798 161.038462,10.8684211 C161.038462,10.2975709 161.102227,9.74493927 161.229757,9.21052632 C161.357287,8.67611336 161.560729,8.19939271 161.840081,7.78036437 C162.119433,7.36133603 162.483806,7.02732794 162.933198,6.77834008 C163.382591,6.52935223 163.92915,6.4048583 164.572874,6.4048583 C165.265182,6.4048583 165.854251,6.58704453 166.340081,6.951417 C166.825911,7.31578947 167.153846,7.86234818 167.323887,8.59109312 L170.05668,8.59109312 C169.983806,7.85020243 169.783401,7.19433198 169.455466,6.62348178 C169.12753,6.05263158 168.711538,5.57287449 168.20749,5.18421053 C167.703441,4.79554656 167.138664,4.50101215 166.513158,4.30060729 C165.887652,4.10020243 165.240891,4 164.572874,4 C163.576923,4 162.681174,4.17611336 161.885628,4.52834008 C161.090081,4.8805668 160.419028,5.36639676 159.87247,5.98582996 C159.325911,6.60526316 158.906883,7.33097166 158.615385,8.16295547 C158.323887,8.99493927 158.178138,9.89676113 158.178138,10.8684211 C158.178138,11.8157895 158.323887,12.6993927 158.615385,13.5192308 C158.906883,14.3390688 159.325911,15.0526316 159.87247,15.659919 C160.419028,16.2672065 161.090081,16.7439271 161.885628,17.090081 C162.681174,17.4362348 163.576923,17.6093117 164.572874,17.6093117 Z" id="path-12"></path>
        <polygon id="path-13" points="182.354251 17.3178138 182.354251 14.9129555 175.340081 14.9129555 175.340081 11.7246964 181.643725 11.7246964 181.643725 9.50202429 175.340081 9.50202429 175.340081 6.7145749 182.208502 6.7145749 182.208502 4.3097166 172.479757 4.3097166 172.479757 17.3178138"></polygon>
        <path d="M189.769231,17.6093117 C190.777328,17.6093117 191.676113,17.4362348 192.465587,17.090081 C193.255061,16.7439271 193.923077,16.2672065 194.469636,15.659919 C195.016194,15.0526316 195.435223,14.3390688 195.726721,13.5192308 C196.018219,12.6993927 196.163968,11.8157895 196.163968,10.8684211 C196.163968,9.89676113 196.018219,8.99493927 195.726721,8.16295547 C195.435223,7.33097166 195.016194,6.60526316 194.469636,5.98582996 C193.923077,5.36639676 193.255061,4.8805668 192.465587,4.52834008 C191.676113,4.17611336 190.777328,4 189.769231,4 C188.773279,4 187.87753,4.17611336 187.081984,4.52834008 C186.286437,4.8805668 185.615385,5.36639676 185.068826,5.98582996 C184.522267,6.60526316 184.103239,7.33097166 183.811741,8.16295547 C183.520243,8.99493927 183.374494,9.89676113 183.374494,10.8684211 C183.374494,11.8157895 183.520243,12.6993927 183.811741,13.5192308 C184.103239,14.3390688 184.522267,15.0526316 185.068826,15.659919 C185.615385,16.2672065 186.286437,16.7439271 187.081984,17.090081 C187.87753,17.4362348 188.773279,17.6093117 189.769231,17.6093117 Z M189.769231,15.2226721 C189.125506,15.2226721 188.578947,15.0981781 188.129555,14.8491903 C187.680162,14.6002024 187.315789,14.2692308 187.036437,13.8562753 C186.757085,13.4433198 186.553644,12.9787449 186.426113,12.4625506 C186.298583,11.9463563 186.234818,11.4149798 186.234818,10.8684211 C186.234818,10.2975709 186.298583,9.74493927 186.426113,9.21052632 C186.553644,8.67611336 186.757085,8.19939271 187.036437,7.78036437 C187.315789,7.36133603 187.680162,7.02732794 188.129555,6.77834008 C188.578947,6.52935223 189.125506,6.4048583 189.769231,6.4048583 C190.412955,6.4048583 190.959514,6.52935223 191.408907,6.77834008 C191.8583,7.02732794 192.222672,7.36133603 192.502024,7.78036437 C192.781377,8.19939271 192.984818,8.67611336 193.112348,9.21052632 C193.239879,9.74493927 193.303644,10.2975709 193.303644,10.8684211 C193.303644,11.4149798 193.239879,11.9463563 193.112348,12.4625506 C192.984818,12.9787449 192.781377,13.4433198 192.502024,13.8562753 C192.222672,14.2692308 191.8583,14.6002024 191.408907,14.8491903 C190.959514,15.0981781 190.412955,15.2226721 189.769231,15.2226721 Z" id="path-14"></path>
        <path d="M200.408907,17.3178138 L200.408907,12.2348178 L203.269231,12.2348178 C203.98583,12.2348178 204.502024,12.3927126 204.817814,12.708502 C205.133603,13.0242915 205.340081,13.5222672 205.437247,14.2024291 C205.510121,14.7246964 205.564777,15.2712551 205.601215,15.8421053 C205.637652,16.4129555 205.734818,16.9048583 205.892713,17.3178138 L208.753036,17.3178138 C208.619433,17.1356275 208.519231,16.9139676 208.452429,16.652834 C208.385628,16.3917004 208.337045,16.1153846 208.30668,15.8238866 C208.276316,15.5323887 208.255061,15.2469636 208.242915,14.9676113 C208.230769,14.6882591 208.218623,14.4453441 208.206478,14.2388664 C208.182186,13.9109312 208.13664,13.582996 208.069838,13.2550607 C208.003036,12.9271255 207.896761,12.6265182 207.751012,12.3532389 C207.605263,12.0799595 207.417004,11.8431174 207.186235,11.6427126 C206.955466,11.4423077 206.663968,11.2935223 206.311741,11.1963563 L206.311741,11.159919 C207.040486,10.8684211 207.565789,10.4433198 207.887652,9.88461538 C208.209514,9.32591093 208.370445,8.66396761 208.370445,7.89878543 C208.370445,7.40080972 208.282389,6.93623482 208.106275,6.50506073 C207.930162,6.07388664 207.675101,5.69433198 207.341093,5.36639676 C207.007085,5.03846154 206.606275,4.78036437 206.138664,4.59210526 C205.671053,4.40384615 205.145749,4.3097166 204.562753,4.3097166 L197.548583,4.3097166 L197.548583,17.3178138 L200.408907,17.3178138 Z M203.54251,10.194332 L200.408907,10.194332 L200.408907,6.53238866 L203.54251,6.53238866 C204.198381,6.53238866 204.690283,6.67510121 205.018219,6.96052632 C205.346154,7.24595142 205.510121,7.70445344 205.510121,8.33603239 C205.510121,8.99190283 205.346154,9.46558704 205.018219,9.75708502 C204.690283,10.048583 204.198381,10.194332 203.54251,10.194332 Z" id="path-15"></path>
        <path d="M216.168016,17.6093117 C216.799595,17.6093117 217.425101,17.4787449 218.044534,17.2176113 C218.663968,16.9564777 219.228745,16.4979757 219.738866,15.8421053 L220.030364,17.3178138 L221.852227,17.3178138 L221.852227,10.2854251 L216.38664,10.2854251 L216.38664,12.417004 L219.265182,12.417004 C219.180162,13.3279352 218.879555,14.0232794 218.36336,14.5030364 C217.847166,14.9827935 217.115385,15.2226721 216.168016,15.2226721 C215.524291,15.2226721 214.977733,15.0981781 214.52834,14.8491903 C214.078947,14.6002024 213.714575,14.2692308 213.435223,13.8562753 C213.15587,13.4433198 212.952429,12.9787449 212.824899,12.4625506 C212.697368,11.9463563 212.633603,11.4149798 212.633603,10.8684211 C212.633603,10.2975709 212.697368,9.74493927 212.824899,9.21052632 C212.952429,8.67611336 213.15587,8.19939271 213.435223,7.78036437 C213.714575,7.36133603 214.078947,7.02732794 214.52834,6.77834008 C214.977733,6.52935223 215.524291,6.4048583 216.168016,6.4048583 C216.860324,6.4048583 217.449393,6.58704453 217.935223,6.951417 C218.421053,7.31578947 218.748988,7.86234818 218.919028,8.59109312 L221.651822,8.59109312 C221.578947,7.85020243 221.378543,7.19433198 221.050607,6.62348178 C220.722672,6.05263158 220.30668,5.57287449 219.802632,5.18421053 C219.298583,4.79554656 218.733806,4.50101215 218.1083,4.30060729 C217.482794,4.10020243 216.836032,4 216.168016,4 C215.172065,4 214.276316,4.17611336 213.480769,4.52834008 C212.685223,4.8805668 212.01417,5.36639676 211.467611,5.98582996 C210.921053,6.60526316 210.502024,7.33097166 210.210526,8.16295547 C209.919028,8.99493927 209.773279,9.89676113 209.773279,10.8684211 C209.773279,11.8157895 209.919028,12.6993927 210.210526,13.5192308 C210.502024,14.3390688 210.921053,15.0526316 211.467611,15.659919 C212.01417,16.2672065 212.685223,16.7439271 213.480769,17.090081 C214.276316,17.4362348 215.172065,17.6093117 216.168016,17.6093117 Z" id="path-16"></path>
        <polygon id="path-17" points="233.949393 17.3178138 233.949393 14.9129555 226.935223 14.9129555 226.935223 11.7246964 233.238866 11.7246964 233.238866 9.50202429 226.935223 9.50202429 226.935223 6.7145749 233.803644 6.7145749 233.803644 4.3097166 224.074899 4.3097166 224.074899 17.3178138"></polygon>
        <polygon id="path-18" points="241.601215 17.3178138 241.601215 6.7145749 245.5 6.7145749 245.5 4.3097166 234.842105 4.3097166 234.842105 6.7145749 238.740891 6.7145749 238.740891 17.3178138"></polygon>
        <path d="M251.967611,17.6093117 C252.975709,17.6093117 253.874494,17.4362348 254.663968,17.090081 C255.453441,16.7439271 256.121457,16.2672065 256.668016,15.659919 C257.214575,15.0526316 257.633603,14.3390688 257.925101,13.5192308 C258.216599,12.6993927 258.362348,11.8157895 258.362348,10.8684211 C258.362348,9.89676113 258.216599,8.99493927 257.925101,8.16295547 C257.633603,7.33097166 257.214575,6.60526316 256.668016,5.98582996 C256.121457,5.36639676 255.453441,4.8805668 254.663968,4.52834008 C253.874494,4.17611336 252.975709,4 251.967611,4 C250.97166,4 250.075911,4.17611336 249.280364,4.52834008 C248.484818,4.8805668 247.813765,5.36639676 247.267206,5.98582996 C246.720648,6.60526316 246.301619,7.33097166 246.010121,8.16295547 C245.718623,8.99493927 245.572874,9.89676113 245.572874,10.8684211 C245.572874,11.8157895 245.718623,12.6993927 246.010121,13.5192308 C246.301619,14.3390688 246.720648,15.0526316 247.267206,15.659919 C247.813765,16.2672065 248.484818,16.7439271 249.280364,17.090081 C250.075911,17.4362348 250.97166,17.6093117 251.967611,17.6093117 Z M251.967611,15.2226721 C251.323887,15.2226721 250.777328,15.0981781 250.327935,14.8491903 C249.878543,14.6002024 249.51417,14.2692308 249.234818,13.8562753 C248.955466,13.4433198 248.752024,12.9787449 248.624494,12.4625506 C248.496964,11.9463563 248.433198,11.4149798 248.433198,10.8684211 C248.433198,10.2975709 248.496964,9.74493927 248.624494,9.21052632 C248.752024,8.67611336 248.955466,8.19939271 249.234818,7.78036437 C249.51417,7.36133603 249.878543,7.02732794 250.327935,6.77834008 C250.777328,6.52935223 251.323887,6.4048583 251.967611,6.4048583 C252.611336,6.4048583 253.157895,6.52935223 253.607287,6.77834008 C254.05668,7.02732794 254.421053,7.36133603 254.700405,7.78036437 C254.979757,8.19939271 255.183198,8.67611336 255.310729,9.21052632 C255.438259,9.74493927 255.502024,10.2975709 255.502024,10.8684211 C255.502024,11.4149798 255.438259,11.9463563 255.310729,12.4625506 C255.183198,12.9787449 254.979757,13.4433198 254.700405,13.8562753 C254.421053,14.2692308 254.05668,14.6002024 253.607287,14.8491903 C253.157895,15.0981781 252.611336,15.2226721 251.967611,15.2226721 Z" id="path-19"></path>
        <polygon id="path-20" points="264.902834 17.3178138 267.07085 8.46356275 267.107287 8.46356275 269.311741 17.3178138 272.153846 17.3178138 275.651822 4.3097166 272.846154 4.3097166 270.714575 13.2732794 270.678138 13.2732794 268.455466 4.3097166 265.777328 4.3097166 263.518219 13.1639676 263.481781 13.1639676 261.423077 4.3097166 258.562753 4.3097166 262.006073 17.3178138"></polygon>
        <polygon id="path-21" points="279.495951 17.3178138 279.495951 8.60931174 279.532389 8.60931174 284.94332 17.3178138 287.803644 17.3178138 287.803644 4.3097166 285.125506 4.3097166 285.125506 13.0364372 285.089069 13.0364372 279.659919 4.3097166 276.817814 4.3097166 276.817814 17.3178138"></polygon>
    </defs>
    <g id="Page-1" stroke="none" stroke-width="1" fill="none" fill-rule="evenodd">
        <g id="desktop/nav/event/dark/links-short-logo" transform="translate(-50.000000, -27.000000)" fill="#FFFFFF">
            <g id="Group-2">
                <g id="dark-abrv.-with-links">
                    <g id="Group-4" transform="translate(50.000000, 27.000000)">
                        <rect id="Rectangle" x="40" y="0" width="2" height="22"></rect>
                        <g id="logo/abbreviated-" transform="translate(0.000000, 3.000000)">
                            <path d="M17.5711604,2.47405132 C17.8738045,1.49756332 17.5711604,1.12829223 16.9878827,1.12829223 L16.2097475,1.12829223 C16.1016372,1.12829223 16.0365768,1.0850589 16.0585873,0.955033871 L16.1663739,0.434283612 C16.1883844,0.303933516 16.2311106,0.260050067 16.4473312,0.260050067 C16.7066017,0.260050067 17.4633738,0.325387646 19.4083882,0.325387646 C21.1591924,0.325387646 21.893954,0.260050067 22.1101746,0.260050067 C22.2830216,0.260050067 22.3260715,0.325387646 22.3043847,0.477191873 L22.2182849,0.955033871 C22.1965981,1.06327971 22.1318614,1.12829223 22.0017406,1.12829223 L21.3967761,1.12829223 C21.0073848,1.12829223 20.4244308,1.21508394 20.0997762,2.3004679 L18.3279325,8.09568364 C18.1981354,8.57352564 17.7009575,10.1793348 17.7009575,11.1561479 C17.7009575,13.7829786 19.9919896,14.0644828 20.6189646,14.0644828 C21.6563703,14.0644828 22.7585127,13.6744077 23.4499007,13.0879948 C24.4659433,12.2418569 25.1793418,11.0696812 25.849043,8.65999229 L27.4270002,3.10369755 C27.837431,1.67082168 27.5998473,1.12829223 26.9081356,1.12829223 L26.2167475,1.12829223 C26.0222137,1.12829223 26.0005269,1.06327971 26.0222137,0.955033871 L26.1083135,0.477191873 C26.1300003,0.325387646 26.1730503,0.260050067 26.3679077,0.260050067 C26.6275019,0.260050067 27.448687,0.325387646 28.8317868,0.325387646 C30.0850894,0.325387646 30.5822673,0.260050067 30.7984879,0.260050067 C30.9933454,0.260050067 31.0147085,0.325387646 30.9933454,0.477191873 L30.9286087,0.955033871 C30.9069219,1.06327971 30.8632246,1.12829223 30.6907013,1.12829223 L30.3663704,1.12829223 C29.6749824,1.12829223 29.2205307,1.77971765 28.8965235,2.84332242 L27.037609,8.81212158 C25.8707298,12.6761405 24.1416124,15.1937502 20.1434735,15.1937502 C17.3552635,15.1937502 15.2587653,13.9130036 15.2587653,11.2211604 C15.2587653,10.3096849 15.5827725,8.96392581 15.7125696,8.50818806 L17.5711604,2.47405132 Z M10.7200748,16.6913135 C10.5689146,17.4295307 10.1367971,18.6663938 9.85551613,19.2963651 C9.29360152,20.4464365 7.73765479,21.9004414 6.09463719,21.9004414 C4.08488615,21.9004414 3.30707463,20.9021743 3.30707463,19.8596985 C3.30707463,19.1006774 3.71750534,18.5145896 4.47427744,18.5145896 C5.27409944,18.5145896 5.40324917,19.1871441 5.40324917,19.42574 C5.40324917,19.6864402 5.31714935,20.0553862 5.20903905,20.1636321 C5.12229187,20.2510739 5.07924196,20.3593197 5.07924196,20.5329032 C5.07924196,20.9668617 5.57641986,21.2064328 6.02990048,21.2064328 C7.15405338,21.2064328 7.7590179,20.2939822 8.14840919,18.797069 C8.4076797,17.7763724 8.79642362,16.0619924 9.59592194,13.0662156 L9.46677221,13.0229823 C9.16412811,13.4351616 7.93218859,15.1937502 5.01450525,15.1937502 C2.03176152,15.1937502 0,13.0879948 0,9.3331969 C0,6.53310781 1.27563679,4.16730232 2.87495712,2.53906384 C4.08488615,1.3239799 5.96548746,0 8.96959431,0 C11.2175764,0 12.3624451,0.737892065 12.7948863,1.0850589 C13.0761673,1.30220071 13.2707011,1.34543403 13.3788114,1.34543403 C13.6380819,1.34543403 13.767879,1.12829223 13.8973524,0.651100355 C13.9190392,0.542529452 13.9837759,0.520750259 14.0918862,0.542529452 L14.4162171,0.629321162 C14.5026406,0.651100355 14.5673773,0.694333679 14.5456905,0.802904581 L13.3140746,5.16556952 C13.2707011,5.29591961 13.2270038,5.31737374 13.0761673,5.29591961 L12.7304732,5.25236123 C12.6220393,5.23058203 12.5573026,5.16556952 12.579313,5.03554448 C12.9463702,3.16871006 11.8872776,0.889696291 9.0777046,0.889696291 C7.6942812,0.889696291 6.13833447,1.36721323 4.62511396,3.36439774 C3.37148765,4.94842771 2.65841283,7.292454 2.65841283,9.91863461 C2.65841283,13.4790451 4.84165824,14.0436788 5.79231677,14.0436788 C8.3859929,14.0436788 9.6399429,11.8075733 9.72571903,10.5271518 C9.79077942,9.70214293 9.55319571,9.52855951 8.96959431,9.52855951 L8.2131459,9.52855951 C8.04062257,9.52855951 8.01861209,9.463547 8.061662,9.31109264 L8.14840919,8.83357571 C8.1697723,8.70387574 8.2131459,8.65999229 8.3859929,8.65999229 C8.7103238,8.65999229 9.46677221,8.72532987 11.3687366,8.72532987 C12.8382599,8.72532987 13.3568009,8.65999229 13.659445,8.65999229 C13.8112526,8.65999229 13.8759893,8.72532987 13.8543025,8.83357571 L13.7892421,9.35530116 C13.767879,9.48467606 13.7241817,9.52855951 13.5947083,9.52855951 L13.140904,9.52855951 C12.7304732,9.52855951 12.4275055,9.70214293 12.1468718,10.8522144 L10.7200748,16.6913135 Z" id="logo-abbreviated-"></path>
                        </g>
                        <g id="9" fill-rule="nonzero">
                            <use xlink:href="#path-1"></use>
                            <use xlink:href="#path-1"></use>
                        </g>
                        <g id="0" fill-rule="nonzero">
                            <use xlink:href="#path-2"></use>
                            <use xlink:href="#path-2"></use>
                        </g>
                        <g id="D" fill-rule="nonzero">
                            <use xlink:href="#path-3"></use>
                            <use xlink:href="#path-3"></use>
                        </g>
                        <g id="A" fill-rule="nonzero">
                            <use xlink:href="#path-4"></use>
                            <use xlink:href="#path-4"></use>
                        </g>
                        <g id="Y" fill-rule="nonzero">
                            <use xlink:href="#path-5"></use>
                            <use xlink:href="#path-5"></use>
                        </g>
                        <g id="S" fill-rule="nonzero">
                            <use xlink:href="#path-6"></use>
                            <use xlink:href="#path-6"></use>
                        </g>
                        <g id="Path" fill-rule="nonzero">
                            <use xlink:href="#path-7"></use>
                            <use xlink:href="#path-7"></use>
                        </g>
                        <g id="Path" fill-rule="nonzero">
                            <use xlink:href="#path-8"></use>
                            <use xlink:href="#path-8"></use>
                        </g>
                        <g id="Path" fill-rule="nonzero">
                            <use xlink:href="#path-9"></use>
                            <use xlink:href="#path-9"></use>
                        </g>
                        <g id="Path" fill-rule="nonzero">
                            <use xlink:href="#path-10"></use>
                            <use xlink:href="#path-10"></use>
                        </g>
                        <g id="h" fill-rule="nonzero">
                            <use xlink:href="#path-11"></use>
                            <use xlink:href="#path-11"></use>
                        </g>
                        <g id="G" fill-rule="nonzero">
                            <use xlink:href="#path-12"></use>
                            <use xlink:href="#path-12"></use>
                        </g>
                        <g id="E" fill-rule="nonzero">
                            <use xlink:href="#path-13"></use>
                            <use xlink:href="#path-13"></use>
                        </g>
                        <g id="O" fill-rule="nonzero">
                            <use xlink:href="#path-14"></use>
                            <use xlink:href="#path-14"></use>
                        </g>
                        <g id="R" fill-rule="nonzero">
                            <use xlink:href="#path-15"></use>
                            <use xlink:href="#path-15"></use>
                        </g>
                        <g id="G" fill-rule="nonzero">
                            <use xlink:href="#path-16"></use>
                            <use xlink:href="#path-16"></use>
                        </g>
                        <g id="E" fill-rule="nonzero">
                            <use xlink:href="#path-17"></use>
                            <use xlink:href="#path-17"></use>
                        </g>
                        <g id="T" fill-rule="nonzero">
                            <use xlink:href="#path-18"></use>
                            <use xlink:href="#path-18"></use>
                        </g>
                        <g id="O" fill-rule="nonzero">
                            <use xlink:href="#path-19"></use>
                            <use xlink:href="#path-19"></use>
                        </g>
                        <g id="W" fill-rule="nonzero">
                            <use xlink:href="#path-20"></use>
                            <use xlink:href="#path-20"></use>
                        </g>
                        <g id="N" fill-rule="nonzero">
                            <use xlink:href="#path-21"></use>
                            <use xlink:href="#path-21"></use>
                        </g>
                    </g>
                </g>
            </g>
        </g>
    </g>
</svg>