<?xml version="1.0" encoding="UTF-8"?>
<svg width="117px" height="25px" viewBox="0 0 117 25" version="1.1" xmlns="http://www.w3.org/2000/svg" xmlns:xlink="http://www.w3.org/1999/xlink">
    <title>Georgetown University Alumni</title>
    <g id="Page-1" stroke="none" stroke-width="1" fill="none" fill-rule="evenodd">
        <g id="Artboard-Copy-4" transform="translate(-25.000000, -25.000000)" fill="#FFFFFF">
            <g id="Group-4" transform="translate(25.000000, 25.000000)">
                <rect id="Rectangle" x="40" y="0" width="2" height="22"></rect>
                <g id="logo/abbreviated-" transform="translate(0.000000, 3.000000)">
                    <path d="M17.5711604,2.47405132 C17.8738045,1.49756332 17.5711604,1.12829223 16.9878827,1.12829223 L16.2097475,1.12829223 C16.1016372,1.12829223 16.0365768,1.0850589 16.0585873,0.955033871 L16.1663739,0.434283612 C16.1883844,0.303933516 16.2311106,0.260050067 16.4473312,0.260050067 C16.7066017,0.260050067 17.4633738,0.325387646 19.4083882,0.325387646 C21.1591924,0.325387646 21.893954,0.260050067 22.1101746,0.260050067 C22.2830216,0.260050067 22.3260715,0.325387646 22.3043847,0.477191873 L22.2182849,0.955033871 C22.1965981,1.06327971 22.1318614,1.12829223 22.0017406,1.12829223 L21.3967761,1.12829223 C21.0073848,1.12829223 20.4244308,1.21508394 20.0997762,2.3004679 L18.3279325,8.09568364 C18.1981354,8.57352564 17.7009575,10.1793348 17.7009575,11.1561479 C17.7009575,13.7829786 19.9919896,14.0644828 20.6189646,14.0644828 C21.6563703,14.0644828 22.7585127,13.6744077 23.4499007,13.0879948 C24.4659433,12.2418569 25.1793418,11.0696812 25.849043,8.65999229 L27.4270002,3.10369755 C27.837431,1.67082168 27.5998473,1.12829223 26.9081356,1.12829223 L26.2167475,1.12829223 C26.0222137,1.12829223 26.0005269,1.06327971 26.0222137,0.955033871 L26.1083135,0.477191873 C26.1300003,0.325387646 26.1730503,0.260050067 26.3679077,0.260050067 C26.6275019,0.260050067 27.448687,0.325387646 28.8317868,0.325387646 C30.0850894,0.325387646 30.5822673,0.260050067 30.7984879,0.260050067 C30.9933454,0.260050067 31.0147085,0.325387646 30.9933454,0.477191873 L30.9286087,0.955033871 C30.9069219,1.06327971 30.8632246,1.12829223 30.6907013,1.12829223 L30.3663704,1.12829223 C29.6749824,1.12829223 29.2205307,1.77971765 28.8965235,2.84332242 L27.037609,8.81212158 C25.8707298,12.6761405 24.1416124,15.1937502 20.1434735,15.1937502 C17.3552635,15.1937502 15.2587653,13.9130036 15.2587653,11.2211604 C15.2587653,10.3096849 15.5827725,8.96392581 15.7125696,8.50818806 L17.5711604,2.47405132 Z M10.7200748,16.6913135 C10.5689146,17.4295307 10.1367971,18.6663938 9.85551613,19.2963651 C9.29360152,20.4464365 7.73765479,21.9004414 6.09463719,21.9004414 C4.08488615,21.9004414 3.30707463,20.9021743 3.30707463,19.8596985 C3.30707463,19.1006774 3.71750534,18.5145896 4.47427744,18.5145896 C5.27409944,18.5145896 5.40324917,19.1871441 5.40324917,19.42574 C5.40324917,19.6864402 5.31714935,20.0553862 5.20903905,20.1636321 C5.12229187,20.2510739 5.07924196,20.3593197 5.07924196,20.5329032 C5.07924196,20.9668617 5.57641986,21.2064328 6.02990048,21.2064328 C7.15405338,21.2064328 7.7590179,20.2939822 8.14840919,18.797069 C8.4076797,17.7763724 8.79642362,16.0619924 9.59592194,13.0662156 L9.46677221,13.0229823 C9.16412811,13.4351616 7.93218859,15.1937502 5.01450525,15.1937502 C2.03176152,15.1937502 0,13.0879948 0,9.3331969 C0,6.53310781 1.27563679,4.16730232 2.87495712,2.53906384 C4.08488615,1.3239799 5.96548746,0 8.96959431,0 C11.2175764,0 12.3624451,0.737892065 12.7948863,1.0850589 C13.0761673,1.30220071 13.2707011,1.34543403 13.3788114,1.34543403 C13.6380819,1.34543403 13.767879,1.12829223 13.8973524,0.651100355 C13.9190392,0.542529452 13.9837759,0.520750259 14.0918862,0.542529452 L14.4162171,0.629321162 C14.5026406,0.651100355 14.5673773,0.694333679 14.5456905,0.802904581 L13.3140746,5.16556952 C13.2707011,5.29591961 13.2270038,5.31737374 13.0761673,5.29591961 L12.7304732,5.25236123 C12.6220393,5.23058203 12.5573026,5.16556952 12.579313,5.03554448 C12.9463702,3.16871006 11.8872776,0.889696291 9.0777046,0.889696291 C7.6942812,0.889696291 6.13833447,1.36721323 4.62511396,3.36439774 C3.37148765,4.94842771 2.65841283,7.292454 2.65841283,9.91863461 C2.65841283,13.4790451 4.84165824,14.0436788 5.79231677,14.0436788 C8.3859929,14.0436788 9.6399429,11.8075733 9.72571903,10.5271518 C9.79077942,9.70214293 9.55319571,9.52855951 8.96959431,9.52855951 L8.2131459,9.52855951 C8.04062257,9.52855951 8.01861209,9.463547 8.061662,9.31109264 L8.14840919,8.83357571 C8.1697723,8.70387574 8.2131459,8.65999229 8.3859929,8.65999229 C8.7103238,8.65999229 9.46677221,8.72532987 11.3687366,8.72532987 C12.8382599,8.72532987 13.3568009,8.65999229 13.659445,8.65999229 C13.8112526,8.65999229 13.8759893,8.72532987 13.8543025,8.83357571 L13.7892421,9.35530116 C13.767879,9.48467606 13.7241817,9.52855951 13.5947083,9.52855951 L13.140904,9.52855951 C12.7304732,9.52855951 12.4275055,9.70214293 12.1468718,10.8522144 L10.7200748,16.6913135 Z" id="logo-abbreviated-"></path>
                </g>
                <path d="M53.415,17 C54.654,17 55.515,17.063 55.809,17.063 C55.914,17.063 55.977,17.021 55.977,16.874 L55.977,16.391 C55.977,16.286 55.914,16.244 55.767,16.244 L54.78,16.244 C54.318,16.244 54.066,16.076 54.066,15.782 C54.066,15.677 54.108,15.467 54.129,15.32 C54.234,14.879 55.389,11.687 55.599,11.162 L60.765,11.162 C61.059,12.002 61.92,14.69 62.088,15.446 C62.235,16.034 62.046,16.244 61.458,16.244 L60.933,16.244 C60.807,16.244 60.744,16.265 60.744,16.391 L60.744,16.874 C60.744,17 60.807,17.063 60.912,17.063 C61.395,17.063 62.13,17 63.873,17 C65.574,17 66.015,17.063 66.393,17.063 C66.54,17.063 66.603,17.021 66.603,16.916 L66.603,16.391 C66.603,16.307 66.561,16.244 66.435,16.244 L65.742,16.244 C65.217,16.244 64.671,15.992 64.314,15.299 C64.1112414,14.879 63.3990892,12.8908668 62.8181601,11.1600136 L62.6484586,10.6503014 C62.4565612,10.0689013 62.2885862,9.54137931 62.172,9.146 C61.773,7.802 60.135,3.098 59.736,1.775 C59.673,1.544 59.631,1.418 59.505,1.418 C59.4,1.418 59.337,1.502 59.232,1.607 C59.001,1.901 58.077,2.531 57.489,2.657 C57.342,2.699 57.3,2.783 57.3,2.846 C57.3,2.93 57.384,3.035 57.447,3.119 C57.594,3.35 57.489,3.623 57.426,3.833 C57.237,4.4 55.536,8.915 55.389,9.335 C54.78,11.057 53.247,14.942 53.1,15.278 C52.806,15.95 52.512,16.244 51.882,16.244 L51.147,16.244 C51.063,16.244 50.979,16.286 50.979,16.391 L50.979,16.895 C50.979,17.021 51.021,17.063 51.126,17.063 C51.42,17.063 51.882,17 53.415,17 Z M60.513,10.406 L55.872,10.406 C56.0100909,9.91281818 57.7789697,5.13881818 58.0799148,4.33565189 L58.119,4.232 L58.119,4.232 C58.182,4.064 58.266,3.917 58.35,3.917 C58.413,3.917 58.455,4.064 58.518,4.211 C58.5705,4.3685 59.022,5.75975 59.484,7.190375 L59.6569834,7.72637231 C60.0582187,8.97045313 60.4303125,10.130375 60.513,10.406 Z M69.375,17 C70.677,17 71.601,17.063 71.748,17.063 C71.832,17.063 71.874,16.979 71.874,16.853 L71.874,16.496 C71.874,16.37 71.832,16.307 71.643,16.307 L70.698,16.307 C70.257,16.307 70.173,16.013 70.152,15.656 C70.1383043,15.2314348 70.1335406,13.7350359 70.1318837,12.4425185 L70.131,8.873 C70.131,7.718 70.194,3.35 70.215,2.195 C70.236,1.922 70.194,1.817 70.047,1.817 C69.921,1.817 69.795,1.859 69.606,1.985 C68.829,2.489 67.884,2.867 67.149,3.203 C67.023,3.245 66.96,3.287 66.96,3.35 L66.96,3.518 C66.96,3.56 66.981,3.581 67.086,3.623 L67.506,3.77 C68.178,3.98 68.514,4.316 68.556,5.03 C68.598,5.576 68.619,7.487 68.619,8.978 L68.619,10.301 L68.6189987,10.4583085 L68.6189987,10.4583085 L68.6180202,12.2973843 C68.6162784,13.7358944 68.61144,15.36536 68.598,15.782 C68.577,16.16 68.367,16.307 68.136,16.307 L67.128,16.307 C66.897,16.307 66.855,16.349 66.855,16.496 L66.855,16.853 C66.855,16.979 66.897,17.063 67.002,17.063 C67.191,17.063 68.031,17 69.375,17 Z M76.347,17.252 C77.397,17.252 78.615,16.601 79.203,15.782 L79.245,15.782 L79.413,17 C79.434,17.21 79.518,17.252 79.602,17.252 C79.77,17.252 79.896,17.21 80.022,17.168 L82.227,16.433 C82.311,16.412 82.353,16.37 82.332,16.244 L82.269,15.971 C82.248,15.887 82.185,15.845 82.017,15.887 C81.765,15.95 81.45,15.95 81.324,15.95 C81.072,15.95 80.841,15.866 80.778,15.215 C80.7456923,14.8757692 80.7382367,14.1886095 80.7365162,13.4307169 L80.736,11.162 C80.736,9.104 80.841,8.558 80.862,8.369 C80.883,8.264 80.799,8.159 80.673,8.159 C80.61,8.159 80.526,8.18 80.421,8.18 C80.316,8.201 80.211,8.222 80.064,8.222 L78.111,8.222 C77.901,8.222 77.859,8.243 77.859,8.411 L77.859,8.768 C77.859,8.873 77.964,8.915 78.321,8.915 C78.846,8.957 79.182,9.062 79.224,9.65 L79.224,14.669 C79.224,14.858 79.098,15.131 79.014,15.236 C78.615,15.74 77.775,16.286 77.208,16.286 C76.641,16.286 76.053,16.244 75.528,15.488 C74.856,14.522 75.066,13.178 75.066,12.338 L75.066,10.826 C75.066,9.9741875 75.0957773,9.24148437 75.1212122,8.80531396 L75.13445,8.59787744 C75.1406484,8.50992969 75.1460625,8.4464375 75.15,8.411 C75.171,8.264 75.066,8.159 74.919,8.159 C74.856,8.159 74.772,8.18 74.688,8.18 C74.604,8.201 74.52,8.222 74.394,8.222 L72.525,8.222 C72.336,8.222 72.294,8.264 72.294,8.39 L72.294,8.768 C72.294,8.873 72.399,8.894 72.756,8.915 C73.239,8.978 73.533,9.125 73.554,9.713 L73.554,12.17 L73.5538496,12.4504755 L73.5538496,12.4504755 L73.553877,12.9644316 C73.5576094,14.6598125 73.619625,15.312125 74.373,16.286 C75.066,17.189 75.759,17.252 76.347,17.252 Z M85.482,17 C86.637,17 87.204,17.063 87.393,17.063 C87.54,17.063 87.561,16.979 87.561,16.832 L87.561,16.496 C87.561,16.349 87.54,16.307 87.351,16.307 L86.595,16.307 C86.301,16.307 86.175,16.097 86.175,15.761 L86.175,11.603 C86.175,11.015 86.217,10.616 86.469,10.196 C87.057,9.251 87.939,8.978 88.485,8.978 C88.947,8.978 89.556,9.104 89.829,9.356 C90.165,9.671 90.459,10.07 90.459,11.624 L90.459,15.95 C90.459,16.223 90.333,16.307 89.997,16.307 L89.388,16.307 C89.199,16.307 89.178,16.349 89.178,16.517 L89.178,16.853 C89.178,17 89.22,17.063 89.325,17.063 C89.451,17.063 90.165,17 91.299,17 C92.475,17 93.021,17.063 93.168,17.063 C93.273,17.063 93.315,17 93.315,16.832 L93.315,16.496 C93.315,16.349 93.273,16.307 93.084,16.307 L92.37,16.307 C92.055,16.307 91.95,16.097 91.95,15.824 L91.95,12.191 C91.95,11.246 91.929,10.679 92.244,10.07 C92.58,9.461 93.441,8.978 94.071,8.978 C94.701,8.978 95.247,9.125 95.625,9.419 C96.108,9.797 96.234,10.406 96.234,11.099 L96.234,14.207 C96.234,14.669 96.234,15.425 96.192,15.908 C96.171,16.202 96.003,16.307 95.772,16.307 L95.247,16.307 C95.016,16.307 94.974,16.349 94.974,16.496 L94.974,16.853 C94.974,17 95.016,17.063 95.142,17.063 C95.289,17.063 96.045,17 97.095,17 C98.103,17 98.691,17.063 98.838,17.063 C98.943,17.063 98.985,17 98.985,16.853 L98.985,16.496 C98.985,16.349 98.943,16.307 98.754,16.307 L98.187,16.307 C97.935,16.307 97.746,16.202 97.746,15.887 L97.746,11.204 C97.746,9.587 97.221,9.125 96.738,8.621 C96.234,8.117 95.583,7.991 94.848,7.991 C93.588,7.991 92.391,8.789 91.761,9.608 L91.656,9.608 C91.215,8.621 90.375,7.991 89.283,7.991 C88.065,7.991 86.826,8.726 86.196,9.587 L86.133,9.587 L86.049,8.369 C86.049,8.222 85.986,8.075 85.86,8.075 C85.776,8.075 85.629,8.117 85.461,8.201 L83.613,9.146 C83.571,9.167 83.487,9.251 83.487,9.314 L83.487,9.482 C83.487,9.545 83.529,9.587 83.634,9.65 L84.075,9.881 C84.579,10.154 84.663,10.532 84.663,10.952 L84.663,14.69 C84.663,15.047 84.663,15.425 84.642,15.782 C84.621,16.181 84.516,16.307 84.327,16.307 L83.613,16.307 C83.403,16.307 83.361,16.328 83.361,16.496 L83.361,16.874 C83.361,17.021 83.403,17.063 83.529,17.063 C83.697,17.063 84.369,17 85.482,17 Z M102.366,17 C103.479,17 104.046,17.063 104.193,17.063 C104.298,17.063 104.34,17 104.34,16.874 L104.34,16.517 C104.34,16.37 104.298,16.307 104.13,16.307 L103.605,16.307 C103.164,16.307 103.101,16.181 103.101,15.614 L103.101,11.267 C103.101,10.868 103.164,10.301 103.584,9.839 C104.214,9.167 104.949,9.02 105.285,9.02 C105.81,9.02 106.314,9.02 106.818,9.398 C107.427,9.839 107.427,10.448 107.427,11.288 L107.427,14.06 C107.427,14.606 107.406,15.278 107.385,15.824 C107.364,16.202 107.196,16.307 106.965,16.307 L106.356,16.307 C106.146,16.307 106.083,16.349 106.083,16.496 L106.083,16.832 C106.083,17 106.125,17.063 106.251,17.063 C106.398,17.063 107.07,17 108.141,17 C109.338,17 109.989,17.063 110.136,17.063 C110.262,17.063 110.304,16.979 110.304,16.832 L110.304,16.496 C110.304,16.37 110.262,16.307 110.073,16.307 L109.401,16.307 C109.128,16.307 108.939,16.202 108.939,15.866 L108.939,10.448 C108.939,9.923 108.414,8.873 107.784,8.453 C107.28,8.117 106.629,7.991 105.999,7.991 C104.949,7.991 103.731,8.768 103.122,9.524 L103.08,9.524 L102.933,8.243 C102.912,8.075 102.87,7.991 102.765,7.991 C102.681,7.991 102.555,8.054 102.387,8.138 L100.581,9.146 C100.476,9.188 100.392,9.251 100.392,9.356 L100.392,9.461 C100.392,9.524 100.413,9.587 100.56,9.65 L100.728,9.734 C101.253,9.986 101.589,10.343 101.589,10.973 L101.589,15.887 C101.589,16.244 101.442,16.307 101.169,16.307 L100.56,16.307 C100.392,16.307 100.35,16.37 100.35,16.496 L100.35,16.874 C100.35,17 100.392,17.063 100.497,17.063 C100.623,17.063 101.295,17 102.366,17 Z M113.055,5.618 C113.937,5.618 114.315,4.946 114.315,4.379 C114.315,3.896 113.958,3.266 113.181,3.266 C112.32,3.266 111.858,3.896 111.858,4.442 C111.858,5.135 112.572,5.618 113.055,5.618 Z M113.685,17 C114.567,17 115.533,17.063 115.701,17.063 C115.848,17.063 115.89,17 115.89,16.853 L115.89,16.496 C115.89,16.37 115.848,16.307 115.68,16.307 L114.714,16.307 C114.483,16.307 114.42,16.16 114.378,15.761 C114.364,15.607 114.359333,15.2196667 114.357778,14.7358889 L114.357765,10.3871554 C114.359909,9.29358172 114.368053,8.50605263 114.399,8.243 C114.42,8.096 114.399,7.991 114.294,7.991 C114.168,7.991 114.063,8.033 113.895,8.117 C113.097,8.558 112.299,8.894 111.627,9.146 C111.522,9.188 111.48,9.23 111.48,9.293 L111.48,9.482 C111.48,9.566 111.522,9.608 111.669,9.629 C112.719,9.797 112.845,10.175 112.845,10.889 L112.845,13.976 C112.845,14.606 112.845,15.257 112.824,15.887 C112.803,16.223 112.719,16.307 112.488,16.307 L111.459,16.307 C111.312,16.307 111.249,16.349 111.249,16.475 L111.249,16.895 C111.249,17.021 111.312,17.063 111.417,17.063 C111.648,17.063 112.467,17 113.685,17 Z" id="Alumni" fill-rule="nonzero"></path>
            </g>
        </g>
    </g>
</svg>