<?xml version="1.0" encoding="UTF-8"?>
<svg width="311px" height="21px" viewBox="0 0 311 21" version="1.1" xmlns="http://www.w3.org/2000/svg" xmlns:xlink="http://www.w3.org/1999/xlink">
    <title>Group Copy</title>
    <defs>
        <polygon id="path-1" points="0.012375 0.146025 16.0134563 0.146025 16.0134563 19.6694437 0.012375 19.6694437"></polygon>
    </defs>
    <g id="Black-Alumni-Summit" stroke="none" stroke-width="1" fill="none" fill-rule="evenodd">
        <g id="desktop/Footer" transform="translate(-77.000000, -42.000000)">
            <g id="Group-Copy" transform="translate(77.000000, 42.000000)">
                <g id="Group-3" transform="translate(0.000000, 0.225019)">
                    <mask id="mask-2" fill="white">
                        <use xlink:href="#path-1"></use>
                    </mask>
                    <g id="Clip-2"></g>
                    <path d="M3.89420625,11.0733563 L3.89420625,16.2786937 L8.6340375,16.2786937 C9.4804875,16.2786937 10.1396625,16.1640188 10.61115,15.9342563 C11.466675,15.5104125 11.8942312,14.6979938 11.8942312,13.4972063 C11.8942312,12.4818375 11.4794625,11.7843 10.6503375,11.4045938 C10.1877187,11.1925688 9.5374125,11.082225 8.69941875,11.0733563 L3.89420625,11.0733563 Z M3.89420625,3.536775 L3.89420625,7.84141875 L8.63919375,7.84141875 C9.4870875,7.84141875 10.1749312,7.6803375 10.7039625,7.35796875 C11.232375,7.03580625 11.4969937,6.463875 11.4969937,5.64279375 C11.4969937,4.73323125 11.1474,4.1328375 10.4484187,3.84140625 C9.8451375,3.63845625 9.07603125,3.536775 8.1411,3.536775 L3.89420625,3.536775 Z M14.4948375,2.2254375 C15.0921375,3.05559375 15.3912,4.0491 15.3912,5.20575 C15.3912,6.39766875 15.0894562,7.3561125 14.4867938,8.07984375 C14.1499875,8.48615625 13.6535437,8.85699375 12.997875,9.19235625 C13.9940625,9.5547375 14.7458438,10.128525 15.2528063,10.9143375 C15.759975,11.7003563 16.0134563,12.6540563 16.0134563,13.7752312 C16.0134563,14.9322938 15.723675,15.9697313 15.1443188,16.8879562 C14.7753375,17.4972187 14.314575,18.0095437 13.7616187,18.4243125 C13.138125,18.9011625 12.4028437,19.2280687 11.5555688,19.4044125 C10.7085,19.581375 9.7890375,19.6694437 8.796975,19.6694437 L0,19.6694437 L0,0.146025 L9.43490625,0.146025 C11.81565,0.1815 13.5021563,0.8745 14.4948375,2.2254375 L14.4948375,2.2254375 Z" id="Fill-1" fill="#FFFFFF" mask="url(#mask-2)"></path>
                </g>
                <polyline id="Fill-4" fill="#FFFFFF" points="18.4385438 0.37104375 22.5179625 0.37104375 22.5179625 16.3845 32.266575 16.3845 32.266575 19.8944625 18.4385438 19.8944625 18.4385438 0.37104375"></polyline>
                <path d="M41.3001188,12.5169 L46.3000313,12.5169 L43.8339,4.83470625 L41.3001188,12.5169 Z M41.5690687,0.37104375 L46.18515,0.37104375 L53.09205,19.8944625 L48.6684,19.8944625 L47.3801625,15.8810438 L40.1904938,15.8810438 L38.8669875,19.8944625 L34.5998813,19.8944625 L41.5690687,0.37104375 L41.5690687,0.37104375 Z" id="Fill-5" fill="#FFFFFF"></path>
                <path d="M56.40855,2.41085625 C57.9814125,0.8039625 59.9814188,0 62.410425,0 C65.6601,0 68.0358937,1.07745 69.538425,3.23214375 C70.3687875,4.44200625 70.813875,5.65599375 70.8755438,6.8743125 L66.7959187,6.8743125 C66.53625,5.93855625 66.2027437,5.23194375 65.7966375,4.7553 C65.0698125,3.90740625 63.992775,3.4835625 62.5657312,3.4835625 C61.1122875,3.4835625 59.9657437,4.08189375 59.126925,5.27855625 C58.2879,6.4750125 57.8681812,8.16811875 57.8681812,10.3580813 C57.8681812,12.5478375 58.3114125,14.1879375 59.1966375,15.2783813 C60.0818625,16.3690313 61.20675,16.9143563 62.5713,16.9143563 C63.9707062,16.9143563 65.0374312,16.446375 65.7718875,15.5104125 C66.1775813,15.0069563 66.5145938,14.251875 66.7825125,13.2451688 L70.8351187,13.2451688 C70.4857313,15.3734625 69.592875,17.1043125 68.155725,18.4373063 C66.718575,19.7707125 64.878,20.4375188 62.6329688,20.4375188 C59.8549875,20.4375188 57.6705938,19.536825 56.081025,17.7356438 C54.4910437,15.9255938 53.6961563,13.4439938 53.6961563,10.2916688 C53.6961563,6.88318125 54.6005625,4.2565875 56.40855,2.41085625" id="Fill-7" fill="#FFFFFF"></path>
                <polyline id="Fill-9" fill="#FFFFFF" points="73.1678062 0.37104375 77.1814312 0.37104375 77.1814312 8.41520625 84.7244062 0.37104375 89.9957437 0.37104375 81.9841687 8.4005625 90.4068 19.8944625 85.1612437 19.8944625 79.1461687 11.3722125 77.1814312 13.3645875 77.1814312 19.8944625 73.1678062 19.8944625 73.1678062 0.37104375"></polyline>
                <path d="M105.927525,12.621675 L110.8569,12.621675 L108.425213,5.048175 L105.927525,12.621675 Z M106.192556,0.647625 L110.743256,0.647625 L117.552806,19.894875 L113.19165,19.894875 L111.92115,15.9383812 L104.833575,15.9383812 L103.528631,19.894875 L99.3219563,19.894875 L106.192556,0.647625 L106.192556,0.647625 Z" id="Fill-10" fill="#00B3D6"></path>
                <polyline id="Fill-11" fill="#00B3D6" points="119.990887 0.647625 124.012762 0.647625 124.012762 16.4344125 133.623188 16.4344125 133.623188 19.894875 119.990887 19.894875 119.990887 0.647625"></polyline>
                <path d="M134.7291,0.647625 L138.816769,0.647625 L138.816769,12.4684313 C138.816769,13.7907 138.972281,14.7563625 139.284338,15.3648 C139.770881,16.4436937 140.828738,16.9828313 142.459556,16.9828313 C144.081506,16.9828313 145.135031,16.4436937 145.621369,15.3648 C145.933631,14.7563625 146.089763,13.7907 146.089763,12.4684313 L146.089763,0.647625 L150.1764,0.647625 L150.1764,12.4779188 C150.1764,14.5239187 149.8596,16.1167875 149.224763,17.2571438 C148.043363,19.3464562 145.788225,20.3911125 142.459556,20.3911125 C139.130888,20.3911125 136.871625,19.3464562 135.68115,17.2571438 C135.046313,16.1167875 134.7291,14.5239187 134.7291,12.4779188 L134.7291,0.647625" id="Fill-12" fill="#00B3D6"></path>
                <path d="M166.264519,0.647625 L172.051688,0.647625 L172.051688,19.894875 L168.304331,19.894875 L168.304331,6.87616875 C168.304331,6.50203125 168.30825,5.97733125 168.316913,5.3026875 C168.325781,4.62804375 168.330319,4.10788125 168.330319,3.74240625 L164.682788,19.894875 L160.773731,19.894875 L157.152806,3.74240625 C157.152806,4.10788125 157.156931,4.62804375 157.1658,5.3026875 C157.174463,5.97733125 157.179,6.50203125 157.179,6.87616875 L157.179,19.894875 L153.431025,19.894875 L153.431025,0.647625 L159.283781,0.647625 L162.786937,15.781425 L166.264519,0.647625" id="Fill-13" fill="#00B3D6"></path>
                <polyline id="Fill-14" fill="#00B3D6" points="175.186894 0.647625 179.40285 0.647625 187.043381 14.0681063 187.043381 0.647625 190.790738 0.647625 190.790738 19.894875 186.7701 19.894875 178.934663 6.2382375 178.934663 19.894875 175.186894 19.894875 175.186894 0.647625"></polyline>
                <polygon id="Fill-15" fill="#00B3D6" points="194.238206 19.8946688 198.233681 19.8946688 198.233681 0.647625 194.238206 0.647625"></polygon>
                <path d="M211.67025,13.9253813 C211.791938,14.79885 212.035313,15.4510125 212.398313,15.8835188 C213.058312,16.6697438 214.192688,17.0632688 215.799375,17.0632688 C216.7605,17.0632688 217.542188,16.9597313 218.142375,16.7522437 C219.280875,16.3545937 219.850125,15.6153938 219.850125,14.5350563 C219.850125,13.9041375 219.571687,13.4159438 219.014813,13.0700625 C218.455875,12.7326375 217.571063,12.4344 216.360375,12.17535 L214.291687,11.7216 C212.258063,11.2723875 210.86175,10.7839875 210.100688,10.2566063 C208.811625,9.3748875 208.168125,7.99651875 208.168125,6.12046875 C208.168125,4.4092125 208.79925,2.98711875 210.059438,1.8550125 C211.319625,0.7227 213.169688,0.15654375 215.609625,0.15654375 C217.649438,0.15654375 219.388125,0.69031875 220.82775,1.75745625 C222.267375,2.82541875 223.02225,4.37435625 223.092375,6.40550625 L219.254063,6.40550625 C219.183938,5.25628125 218.668313,4.4397375 217.711312,3.95566875 C217.074,3.635775 216.282,3.47551875 215.33325,3.47551875 C214.27725,3.47551875 213.43575,3.6828 212.806688,4.09798125 C212.177625,4.51275 211.864125,5.0919 211.864125,5.835225 C211.864125,6.5179125 212.1735,7.028175 212.794313,7.36498125 C213.192375,7.59 214.038,7.85338125 215.33325,8.15615625 L218.686875,8.9467125 C220.157438,9.29300625 221.258813,9.75541875 221.993063,10.3345688 C223.131563,11.2334063 223.700813,12.5340188 223.700813,14.237025 C223.700813,15.9831375 223.026375,17.4328688 221.675437,18.5870438 C220.326562,19.7403938 218.41875,20.317275 215.956125,20.317275 C213.439875,20.317275 211.461938,19.7492625 210.02025,18.612825 C208.578563,17.475975 207.856688,15.9140438 207.856688,13.9253813 L211.67025,13.9253813" id="Fill-16" fill="#FFFFFF"></path>
                <path d="M225.971625,0.7140375 L230.028562,0.7140375 L230.028562,12.4511063 C230.028562,13.7643 230.18325,14.7227438 230.494687,15.3272625 C230.97525,16.3983188 232.027125,16.9337438 233.646187,16.9337438 C235.257,16.9337438 236.302688,16.3983188 236.785313,15.3272625 C237.094687,14.7227438 237.251437,13.7643 237.251437,12.4511063 L237.251437,0.7140375 L241.308375,0.7140375 L241.308375,12.4603875 C241.308375,14.4921563 240.992813,16.0736813 240.36375,17.2059938 C239.190188,19.2804563 236.950313,20.317275 233.646187,20.317275 C230.342062,20.317275 228.098062,19.2804563 226.91625,17.2059938 C226.285125,16.0736813 225.971625,14.4921563 225.971625,12.4603875 L225.971625,0.7140375" id="Fill-17" fill="#FFFFFF"></path>
                <path d="M257.29275,0.7140375 L263.038875,0.7140375 L263.038875,19.82475 L259.318125,19.82475 L259.318125,6.89844375 C259.318125,6.52678125 259.32225,6.00579375 259.3305,5.3361 C259.33875,4.6662 259.342875,4.14995625 259.342875,3.78654375 L255.721125,19.82475 L251.841562,19.82475 L248.244563,3.78654375 C248.244563,4.14995625 248.248688,4.6662 248.256937,5.3361 C248.26725,6.00579375 248.271375,6.52678125 248.271375,6.89844375 L248.271375,19.82475 L244.550625,19.82475 L244.550625,0.7140375 L250.360688,0.7140375 L253.840125,15.741 L257.29275,0.7140375" id="Fill-18" fill="#FFFFFF"></path>
                <path d="M279.411,0.7140375 L285.157125,0.7140375 L285.157125,19.82475 L281.436375,19.82475 L281.436375,6.89844375 C281.436375,6.52678125 281.4405,6.00579375 281.44875,5.3361 C281.457,4.6662 281.461125,4.14995625 281.461125,3.78654375 L277.839375,19.82475 L273.959812,19.82475 L270.362813,3.78654375 C270.362813,4.14995625 270.369,4.6662 270.37725,5.3361 C270.3855,6.00579375 270.389625,6.52678125 270.389625,6.89844375 L270.389625,19.82475 L266.668875,19.82475 L266.668875,0.7140375 L272.478938,0.7140375 L275.958375,15.741 L279.411,0.7140375" id="Fill-19" fill="#FFFFFF"></path>
                <polygon id="Fill-20" fill="#FFFFFF" points="287.997187 19.8249562 291.963375 19.8249562 291.963375 0.7140375 287.997187 0.7140375"></polygon>
                <polyline id="Fill-21" fill="#FFFFFF" points="310.1175 0.7140375 310.1175 4.09798125 304.398188 4.09798125 304.398188 19.82475 300.380438 19.82475 300.380438 4.09798125 294.636375 4.09798125 294.636375 0.7140375 310.1175 0.7140375"></polyline>
            </g>
        </g>
    </g>
</svg>