<?xml version="1.0" encoding="UTF-8"?>
<svg width="292px" height="26px" viewBox="0 0 292 26" version="1.1" xmlns="http://www.w3.org/2000/svg" xmlns:xlink="http://www.w3.org/1999/xlink">
    <title>Group 4</title>
    <defs>
        <polygon id="path-1" points="0.0095625 0.1128375 12.3740344 0.1128375 12.3740344 15.1991156 0.0095625 15.1991156"></polygon>
    </defs>
    <g id="Black-Alumni-Summit" stroke="none" stroke-width="1" fill="none" fill-rule="evenodd">
        <g id="mobile/nav/no-links" transform="translate(-25.000000, -20.000000)">
            <g id="Group-4" transform="translate(25.000000, 20.000000)">
                <rect id="Rectangle" fill="#FFFFFF" x="40" y="1" width="2" height="22"></rect>
                <g id="logo/abbreviated-" transform="translate(0.000000, 4.000000)" fill="#FFFFFF">
                    <path d="M17.5711604,2.47405132 C17.8738045,1.49756332 17.5711604,1.12829223 16.9878827,1.12829223 L16.2097475,1.12829223 C16.1016372,1.12829223 16.0365768,1.0850589 16.0585873,0.955033871 L16.1663739,0.434283612 C16.1883844,0.303933516 16.2311106,0.260050067 16.4473312,0.260050067 C16.7066017,0.260050067 17.4633738,0.325387646 19.4083882,0.325387646 C21.1591924,0.325387646 21.893954,0.260050067 22.1101746,0.260050067 C22.2830216,0.260050067 22.3260715,0.325387646 22.3043847,0.477191873 L22.2182849,0.955033871 C22.1965981,1.06327971 22.1318614,1.12829223 22.0017406,1.12829223 L21.3967761,1.12829223 C21.0073848,1.12829223 20.4244308,1.21508394 20.0997762,2.3004679 L18.3279325,8.09568364 C18.1981354,8.57352564 17.7009575,10.1793348 17.7009575,11.1561479 C17.7009575,13.7829786 19.9919896,14.0644828 20.6189646,14.0644828 C21.6563703,14.0644828 22.7585127,13.6744077 23.4499007,13.0879948 C24.4659433,12.2418569 25.1793418,11.0696812 25.849043,8.65999229 L27.4270002,3.10369755 C27.837431,1.67082168 27.5998473,1.12829223 26.9081356,1.12829223 L26.2167475,1.12829223 C26.0222137,1.12829223 26.0005269,1.06327971 26.0222137,0.955033871 L26.1083135,0.477191873 C26.1300003,0.325387646 26.1730503,0.260050067 26.3679077,0.260050067 C26.6275019,0.260050067 27.448687,0.325387646 28.8317868,0.325387646 C30.0850894,0.325387646 30.5822673,0.260050067 30.7984879,0.260050067 C30.9933454,0.260050067 31.0147085,0.325387646 30.9933454,0.477191873 L30.9286087,0.955033871 C30.9069219,1.06327971 30.8632246,1.12829223 30.6907013,1.12829223 L30.3663704,1.12829223 C29.6749824,1.12829223 29.2205307,1.77971765 28.8965235,2.84332242 L27.037609,8.81212158 C25.8707298,12.6761405 24.1416124,15.1937502 20.1434735,15.1937502 C17.3552635,15.1937502 15.2587653,13.9130036 15.2587653,11.2211604 C15.2587653,10.3096849 15.5827725,8.96392581 15.7125696,8.50818806 L17.5711604,2.47405132 Z M10.7200748,16.6913135 C10.5689146,17.4295307 10.1367971,18.6663938 9.85551613,19.2963651 C9.29360152,20.4464365 7.73765479,21.9004414 6.09463719,21.9004414 C4.08488615,21.9004414 3.30707463,20.9021743 3.30707463,19.8596985 C3.30707463,19.1006774 3.71750534,18.5145896 4.47427744,18.5145896 C5.27409944,18.5145896 5.40324917,19.1871441 5.40324917,19.42574 C5.40324917,19.6864402 5.31714935,20.0553862 5.20903905,20.1636321 C5.12229187,20.2510739 5.07924196,20.3593197 5.07924196,20.5329032 C5.07924196,20.9668617 5.57641986,21.2064328 6.02990048,21.2064328 C7.15405338,21.2064328 7.7590179,20.2939822 8.14840919,18.797069 C8.4076797,17.7763724 8.79642362,16.0619924 9.59592194,13.0662156 L9.46677221,13.0229823 C9.16412811,13.4351616 7.93218859,15.1937502 5.01450525,15.1937502 C2.03176152,15.1937502 0,13.0879948 0,9.3331969 C0,6.53310781 1.27563679,4.16730232 2.87495712,2.53906384 C4.08488615,1.3239799 5.96548746,0 8.96959431,0 C11.2175764,0 12.3624451,0.737892065 12.7948863,1.0850589 C13.0761673,1.30220071 13.2707011,1.34543403 13.3788114,1.34543403 C13.6380819,1.34543403 13.767879,1.12829223 13.8973524,0.651100355 C13.9190392,0.542529452 13.9837759,0.520750259 14.0918862,0.542529452 L14.4162171,0.629321162 C14.5026406,0.651100355 14.5673773,0.694333679 14.5456905,0.802904581 L13.3140746,5.16556952 C13.2707011,5.29591961 13.2270038,5.31737374 13.0761673,5.29591961 L12.7304732,5.25236123 C12.6220393,5.23058203 12.5573026,5.16556952 12.579313,5.03554448 C12.9463702,3.16871006 11.8872776,0.889696291 9.0777046,0.889696291 C7.6942812,0.889696291 6.13833447,1.36721323 4.62511396,3.36439774 C3.37148765,4.94842771 2.65841283,7.292454 2.65841283,9.91863461 C2.65841283,13.4790451 4.84165824,14.0436788 5.79231677,14.0436788 C8.3859929,14.0436788 9.6399429,11.8075733 9.72571903,10.5271518 C9.79077942,9.70214293 9.55319571,9.52855951 8.96959431,9.52855951 L8.2131459,9.52855951 C8.04062257,9.52855951 8.01861209,9.463547 8.061662,9.31109264 L8.14840919,8.83357571 C8.1697723,8.70387574 8.2131459,8.65999229 8.3859929,8.65999229 C8.7103238,8.65999229 9.46677221,8.72532987 11.3687366,8.72532987 C12.8382599,8.72532987 13.3568009,8.65999229 13.659445,8.65999229 C13.8112526,8.65999229 13.8759893,8.72532987 13.8543025,8.83357571 L13.7892421,9.35530116 C13.767879,9.48467606 13.7241817,9.52855951 13.5947083,9.52855951 L13.140904,9.52855951 C12.7304732,9.52855951 12.4275055,9.70214293 12.1468718,10.8522144 L10.7200748,16.6913135 Z" id="logo-abbreviated-"></path>
                </g>
                <g id="Group-Copy" transform="translate(52.000000, 4.000000)">
                    <g id="Group-3" transform="translate(0.000000, 0.173878)">
                        <mask id="mask-2" fill="white">
                            <use xlink:href="#path-1"></use>
                        </mask>
                        <g id="Clip-2"></g>
                        <path d="M3.00915937,8.55668438 L3.00915937,12.5789906 L6.67175625,12.5789906 C7.32583125,12.5789906 7.83519375,12.4903781 8.199525,12.3128344 C8.8606125,11.9853188 9.19099687,11.3575406 9.19099687,10.4296594 C9.19099687,9.64505625 8.87049375,9.10605 8.22980625,8.81264063 C7.87232812,8.64880313 7.36981875,8.5635375 6.72227812,8.55668438 L3.00915937,8.55668438 Z M3.00915938,2.7329625 L3.00915938,6.05927812 L6.67574062,6.05927812 C7.33093125,6.05927812 7.86244687,5.93480625 8.27124375,5.68570312 C8.6795625,5.43675937 8.88404063,4.9948125 8.88404063,4.36034062 C8.88404063,3.65749688 8.6139,3.19355625 8.07377813,2.96835938 C7.60760625,2.81153438 7.01329688,2.7329625 6.29085,2.7329625 L3.00915938,2.7329625 Z M11.2005563,1.71965625 C11.6621063,2.36114062 11.8932,3.12885 11.8932,4.022625 C11.8932,4.94365312 11.6600344,5.68426875 11.1943406,6.24351562 C10.9340812,6.55748437 10.5504656,6.84404062 10.0438125,7.10318437 C10.8135937,7.38320625 11.3945156,7.8265875 11.7862594,8.43380625 C12.1781625,9.04118437 12.3740344,9.77813437 12.3740344,10.6444969 C12.3740344,11.5385906 12.1501125,12.3402469 11.7024281,13.0497844 C11.4173063,13.5205781 11.0612625,13.9164656 10.6339781,14.2369687 C10.1521875,14.6054437 9.58401562,14.8580531 8.92930313,14.9943187 C8.27475,15.1310625 7.56425625,15.1991156 6.7976625,15.1991156 L0,15.1991156 L0,0.1128375 L7.29060937,0.1128375 C9.130275,0.14025 10.4334844,0.67575 11.2005563,1.71965625 L11.2005563,1.71965625 Z" id="Fill-1" fill="#FFFFFF" mask="url(#mask-2)"></path>
                    </g>
                    <polyline id="Fill-4" fill="#FFFFFF" points="14.2479656 0.286715625 17.4002438 0.286715625 17.4002438 12.66075 24.9332625 12.66075 24.9332625 15.3729938 14.2479656 15.3729938 14.2479656 0.286715625"></polyline>
                    <path d="M31.9137281,9.67215 L35.7772969,9.67215 L33.87165,3.73590938 L31.9137281,9.67215 Z M32.1215531,0.286715625 L35.688525,0.286715625 L41.025675,15.3729938 L37.6074,15.3729938 L36.6119438,12.2717156 L31.0562906,12.2717156 L30.0335812,15.3729938 L26.7362719,15.3729938 L32.1215531,0.286715625 L32.1215531,0.286715625 Z" id="Fill-5" fill="#FFFFFF"></path>
                    <path d="M43.588425,1.86293438 C44.8038187,0.62124375 46.3492781,0 48.2262375,0 C50.73735,0 52.5731906,0.832575 53.7342375,2.49756563 C54.3758812,3.43245938 54.7198125,4.37054063 54.7674656,5.31196875 L51.6150281,5.31196875 C51.414375,4.58888438 51.1566656,4.04286563 50.8428562,3.67455 C50.2812187,3.01935938 49.4489625,2.69184375 48.3462469,2.69184375 C47.2231312,2.69184375 46.3371656,3.15419062 45.6889875,4.07888438 C45.04065,5.00341875 44.7163219,6.31172813 44.7163219,8.00397188 C44.7163219,9.69605625 45.0588187,10.9634063 45.7428562,11.8060219 C46.4268937,12.6487969 47.296125,13.0701844 48.35055,13.0701844 C49.4319094,13.0701844 50.2561969,12.7085625 50.8237312,11.9853188 C51.1372219,11.5962844 51.3976406,11.0128125 51.6046687,10.2349031 L54.7362281,10.2349031 C54.4662469,11.8794938 53.7763125,13.2169688 52.6657875,14.2470094 C51.5552625,15.2773688 50.133,15.7926281 48.3982031,15.7926281 C46.2515812,15.7926281 44.5636406,15.0966375 43.3353375,13.7048156 C42.1067156,12.3061406 41.4924844,10.3885406 41.4924844,7.95265313 C41.4924844,5.31882188 42.1913437,3.28918125 43.588425,1.86293438" id="Fill-7" fill="#FFFFFF"></path>
                    <polyline id="Fill-9" fill="#FFFFFF" points="56.5387594 0.286715625 59.6401969 0.286715625 59.6401969 6.50265938 65.4688594 0.286715625 69.5421656 0.286715625 63.3514031 6.49134375 69.8598 15.3729938 65.8064156 15.3729938 61.1584031 8.78761875 59.6401969 10.3271813 59.6401969 15.3729938 56.5387594 15.3729938 56.5387594 0.286715625"></polyline>
                    <path d="M81.8530875,9.7531125 L85.66215,9.7531125 L83.7831187,3.9008625 L81.8530875,9.7531125 Z M82.0578844,0.5004375 L85.5743344,0.5004375 L90.8362594,15.3733125 L87.466275,15.3733125 L86.484525,12.3160219 L81.0077625,12.3160219 L79.9993969,15.3733125 L76.7487844,15.3733125 L82.0578844,0.5004375 L82.0578844,0.5004375 Z" id="Fill-10" fill="#00B3D6"></path>
                    <polyline id="Fill-11" fill="#00B3D6" points="92.7202312 0.5004375 95.8280437 0.5004375 95.8280437 12.6993187 103.254281 12.6993187 103.254281 15.3733125 92.7202312 15.3733125 92.7202312 0.5004375"></polyline>
                    <path d="M104.10885,0.5004375 L107.267503,0.5004375 L107.267503,9.63469688 C107.267503,10.65645 107.387672,11.4026438 107.628806,11.8728 C108.004772,12.7064906 108.822206,13.1230969 110.082384,13.1230969 C111.335709,13.1230969 112.149797,12.7064906 112.525603,11.8728 C112.766897,11.4026438 112.887544,10.65645 112.887544,9.63469688 L112.887544,0.5004375 L116.0454,0.5004375 L116.0454,9.64202813 C116.0454,11.2230281 115.8006,12.4538813 115.310044,13.3350656 C114.397144,14.9495344 112.654538,15.7567688 110.082384,15.7567688 C107.510231,15.7567688 105.764438,14.9495344 104.844525,13.3350656 C104.353969,12.4538813 104.10885,11.2230281 104.10885,9.64202813 L104.10885,0.5004375" id="Fill-12" fill="#00B3D6"></path>
                    <path d="M128.477128,0.5004375 L132.949031,0.5004375 L132.949031,15.3733125 L130.053347,15.3733125 L130.053347,5.31340313 C130.053347,5.02429688 130.056375,4.61884688 130.063069,4.09753125 C130.069922,3.57621563 130.073428,3.17427188 130.073428,2.89185938 L127.254881,15.3733125 L124.234247,15.3733125 L121.436259,2.89185938 C121.436259,3.17427188 121.439447,3.57621563 121.4463,4.09753125 C121.452994,4.61884688 121.4565,5.02429688 121.4565,5.31340313 L121.4565,15.3733125 L118.560338,15.3733125 L118.560338,0.5004375 L123.082922,0.5004375 L125.789906,12.1947375 L128.477128,0.5004375" id="Fill-13" fill="#00B3D6"></path>
                    <polyline id="Fill-14" fill="#00B3D6" points="135.371691 0.5004375 138.629475 0.5004375 144.533522 10.8708094 144.533522 0.5004375 147.429206 0.5004375 147.429206 15.3733125 144.32235 15.3733125 138.267694 4.82045625 138.267694 15.3733125 135.371691 15.3733125 135.371691 0.5004375"></polyline>
                    <polygon id="Fill-15" fill="#00B3D6" points="150.093159 15.3731531 153.180572 15.3731531 153.180572 0.5004375 150.093159 0.5004375"></polygon>
                    <path d="M163.563375,10.7605219 C163.657406,11.435475 163.845469,11.9394187 164.125969,12.2736281 C164.635969,12.8811656 165.512531,13.1852531 166.754063,13.1852531 C167.49675,13.1852531 168.100781,13.1052469 168.564563,12.9449156 C169.444312,12.6376406 169.884187,12.0664406 169.884187,11.2316344 C169.884187,10.7441062 169.669031,10.3668656 169.238719,10.0995938 C168.806813,9.83885625 168.123094,9.6084 167.187562,9.408225 L165.589031,9.0576 C164.017594,8.71048125 162.938625,8.33308125 162.350531,7.92555938 C161.354438,7.24423125 160.857188,6.17912813 160.857188,4.72945313 C160.857188,3.40711875 161.344875,2.30822813 162.318656,1.43341875 C163.292437,0.55845 164.722031,0.120965625 166.607438,0.120965625 C168.183656,0.120965625 169.527187,0.533428125 170.639625,1.35803438 C171.752063,2.18327813 172.335375,3.38018438 172.389563,4.94970938 L169.423594,4.94970938 C169.369406,4.06167188 168.970969,3.43070625 168.231469,3.05665313 C167.739,2.8094625 167.127,2.68562813 166.393875,2.68562813 C165.577875,2.68562813 164.927625,2.8458 164.441531,3.16662187 C163.955437,3.487125 163.713188,3.93465 163.713188,4.5090375 C163.713188,5.03656875 163.95225,5.4308625 164.431969,5.69112188 C164.739563,5.865 165.393,6.06852188 166.393875,6.30248438 L168.985312,6.91336875 C170.121656,7.18095938 170.972719,7.53827813 171.540094,7.98580313 C172.419844,8.68035938 172.859719,9.68537812 172.859719,11.0013375 C172.859719,12.3506063 172.338562,13.4708531 171.294656,14.3627156 C170.252344,15.2539406 168.778125,15.6997125 166.875187,15.6997125 C164.930813,15.6997125 163.402406,15.2607937 162.288375,14.3826375 C161.174344,13.5041625 160.616531,12.2972156 160.616531,10.7605219 L163.563375,10.7605219" id="Fill-16" fill="#FFFFFF"></path>
                    <path d="M174.614438,0.55175625 L177.749344,0.55175625 L177.749344,9.62130937 C177.749344,10.63605 177.868875,11.3766656 178.109531,11.8437937 C178.480875,12.6714281 179.293688,13.0851656 180.544781,13.0851656 C181.7895,13.0851656 182.597531,12.6714281 182.970469,11.8437937 C183.209531,11.3766656 183.330656,10.63605 183.330656,9.62130937 L183.330656,0.55175625 L186.465563,0.55175625 L186.465563,9.62848125 C186.465563,11.1984844 186.221719,12.4205719 185.735625,13.2955406 C184.828781,14.8985344 183.097969,15.6997125 180.544781,15.6997125 C177.991594,15.6997125 176.257594,14.8985344 175.344375,13.2955406 C174.856687,12.4205719 174.614438,11.1984844 174.614438,9.62848125 L174.614438,0.55175625" id="Fill-17" fill="#FFFFFF"></path>
                    <path d="M198.817125,0.55175625 L203.257312,0.55175625 L203.257312,15.319125 L200.382188,15.319125 L200.382188,5.33061563 C200.382188,5.04342188 200.385375,4.64084062 200.39175,4.12335 C200.398125,3.6057 200.401312,3.20678438 200.401312,2.92596563 L197.602688,15.319125 L194.604844,15.319125 L191.825344,2.92596563 C191.825344,3.20678438 191.828531,3.6057 191.834906,4.12335 C191.842875,4.64084062 191.846062,5.04342188 191.846062,5.33061563 L191.846062,15.319125 L188.970937,15.319125 L188.970937,0.55175625 L193.460531,0.55175625 L196.149187,12.1635 L198.817125,0.55175625" id="Fill-18" fill="#FFFFFF"></path>
                    <path d="M215.9085,0.55175625 L220.348687,0.55175625 L220.348687,15.319125 L217.473562,15.319125 L217.473562,5.33061563 C217.473562,5.04342188 217.47675,4.64084062 217.483125,4.12335 C217.4895,3.6057 217.492687,3.20678438 217.492687,2.92596563 L214.694063,15.319125 L211.696219,15.319125 L208.916719,2.92596563 C208.916719,3.20678438 208.9215,3.6057 208.927875,4.12335 C208.93425,4.64084062 208.937437,5.04342188 208.937437,5.33061563 L208.937437,15.319125 L206.062312,15.319125 L206.062312,0.55175625 L210.551906,0.55175625 L213.240562,12.1635 L215.9085,0.55175625" id="Fill-19" fill="#FFFFFF"></path>
                    <polygon id="Fill-20" fill="#FFFFFF" points="222.543281 15.3192844 225.608063 15.3192844 225.608063 0.55175625 222.543281 0.55175625"></polygon>
                    <polyline id="Fill-21" fill="#FFFFFF" points="239.63625 0.55175625 239.63625 3.16662187 235.216781 3.16662187 235.216781 15.319125 232.112156 15.319125 232.112156 3.16662187 227.673563 3.16662187 227.673563 0.55175625 239.63625 0.55175625"></polyline>
                </g>
            </g>
        </g>
    </g>
</svg>