<?xml version="1.0" encoding="UTF-8"?>
<svg width="198px" height="22px" viewBox="0 0 198 22" version="1.1" xmlns="http://www.w3.org/2000/svg" xmlns:xlink="http://www.w3.org/1999/xlink">
    <title>Blue and Gray Day</title>
    <g stroke="none" stroke-width="1" fill="none" fill-rule="evenodd">
        <g transform="translate(-50.000000, -41.000000)" fill="#FFFFFF" fill-rule="nonzero">
            <g transform="translate(50.000000, 40.000000)">
                <path d="M5.64609375,15.5 C5.64609375,17.5222222 6.11015625,18.3777778 7.2703125,18.3777778 C8.8171875,18.3777778 10.209375,17.6 10.209375,14.9555556 C10.209375,13.2444444 9.4359375,12.0777778 8.27578125,11.6111111 C7.19296875,11.2222222 6.1875,11.2222222 5.64609375,11.2222222 L5.64609375,15.5 L5.64609375,15.5 Z M5.64609375,10.4444444 C6.496875,10.5222222 7.8890625,10.3666667 8.5078125,9.82222222 C9.20390625,9.2 9.51328125,8.18888889 9.51328125,7.25555556 C9.51328125,6.4 9.28125,5.54444444 8.6625,5.07777778 C7.96640625,4.53333333 6.88359375,4.3 6.6515625,4.3 C6.1875,4.3 5.7234375,4.3 5.7234375,4.68888889 C5.64609375,5.15555556 5.64609375,7.02222222 5.64609375,8.81111111 L5.64609375,10.4444444 L5.64609375,10.4444444 Z M2.475,9.58888889 C2.475,8.81111111 2.39765625,6.16666667 2.39765625,5.85555556 C2.3203125,4.61111111 2.0109375,4.53333333 1.31484375,4.53333333 L0.61875,4.53333333 C0.4640625,4.53333333 0.4640625,4.53333333 0.4640625,4.37777778 L0.4640625,3.91111111 C0.4640625,3.75555556 0.4640625,3.75555556 0.61875,3.75555556 C0.928125,3.75555556 1.93359375,3.83333333 3.94453125,3.83333333 C4.640625,3.83333333 5.878125,3.75555556 7.34765625,3.75555556 C8.89453125,3.75555556 10.2867188,3.91111111 10.9828125,4.3 C12.2203125,5 12.6070313,5.93333333 12.6070313,7.25555556 C12.6070313,8.65555556 11.75625,10.0555556 9.51328125,10.8333333 L9.51328125,10.9111111 C12.1429687,11.6111111 13.5351563,12.8555556 13.5351563,15.1888889 C13.5351563,16.3555556 12.9164062,17.9111111 11.8335938,18.4555556 C10.9828125,18.9222222 9.4359375,19.2333333 6.80625,19.2333333 C6.6515625,19.2333333 6.0328125,19.1555556 5.49140625,19.1555556 C4.87265625,19.0777778 4.1765625,19.0777778 3.78984375,19.0777778 C2.70703125,19.0777778 2.0109375,19.0777778 1.546875,19.0777778 C1.0828125,19.0777778 0.85078125,19.1555556 0.69609375,19.1555556 C0.4640625,19.1555556 0.4640625,19.0777778 0.4640625,18.9222222 L0.4640625,18.4555556 C0.4640625,18.3 0.4640625,18.3 0.69609375,18.3 L1.46953125,18.3 C2.08828125,18.3 2.24296875,18.0666667 2.3203125,17.3666667 C2.39765625,16.9 2.39765625,14.0222222 2.39765625,12.2333333 L2.39765625,9.58888889 L2.475,9.58888889 L2.475,9.58888889 Z"></path>
                <path d="M21.2695312,12.2333333 C21.2695312,12.6222222 21.2695312,17.2888889 21.346875,18.1444444 L22.584375,18.1444444 C23.5898438,18.1444444 24.5179688,18.1444444 25.678125,18.0666667 C26.8382813,17.9888889 28.3078125,15.3444444 28.6171875,14.5666667 C28.6945313,14.4111111 28.771875,14.4111111 28.8492188,14.4111111 L29.3132813,14.5666667 C29.390625,14.6444444 29.390625,14.6444444 29.390625,14.7222222 C29.3132813,14.8777778 28.4625,18.4555556 28.3078125,19 C27.7664063,18.9222222 21.5789063,18.9222222 19.6453125,18.9222222 C17.5570313,18.9222222 16.7835938,19 16.4742188,19 C16.3195313,19 16.3195313,18.9222222 16.3195313,18.8444444 L16.3195313,18.3 C16.3195313,18.2222222 16.3195313,18.1444444 16.4742188,18.1444444 L17.1703125,18.1444444 C17.94375,18.1444444 18.0984375,17.8333333 18.0984375,17.6 C18.0984375,17.2111111 18.1757813,11.8444444 18.1757813,10.5222222 L18.1757813,9.27777778 C18.1757813,7.87777778 18.0984375,5.62222222 18.0984375,5.23333333 C18.0210938,4.68888889 17.94375,4.45555556 17.4796875,4.45555556 L16.70625,4.45555556 C16.5515625,4.45555556 16.5515625,4.37777778 16.5515625,4.22222222 L16.5515625,3.67777778 C16.5515625,3.6 16.5515625,3.52222222 16.70625,3.52222222 C16.9382813,3.52222222 17.7117188,3.6 19.6453125,3.6 C22.1203125,3.6 23.0484375,3.52222222 23.2804688,3.52222222 C23.4351563,3.52222222 23.4351563,3.6 23.4351563,3.75555556 L23.4351563,4.22222222 C23.4351563,4.3 23.3578125,4.37777778 23.203125,4.37777778 L22.1976563,4.37777778 C21.5015625,4.37777778 21.4242188,4.61111111 21.4242188,5.15555556 C21.4242188,5.46666667 21.346875,8.65555556 21.346875,10.2111111 L21.2695312,12.2333333 L21.2695312,12.2333333 Z"></path>
                <path d="M31.55625,5.62222222 C31.55625,4.84444444 31.4015625,4.53333333 30.9375,4.53333333 L29.9320312,4.53333333 C29.7773438,4.53333333 29.7773438,4.45555556 29.7773438,4.37777778 L29.7773438,3.83333333 C29.7773438,3.67777778 29.7773438,3.67777778 29.9320312,3.67777778 C30.1640625,3.67777778 31.1695313,3.75555556 33.4125,3.75555556 C35.26875,3.75555556 36.3515625,3.67777778 36.5835938,3.67777778 C36.7382812,3.67777778 36.7382812,3.75555556 36.7382812,3.83333333 L36.7382812,4.37777778 C36.7382812,4.45555556 36.7382812,4.53333333 36.5835938,4.53333333 L35.8875,4.53333333 C35.1914063,4.53333333 34.8046875,4.92222222 34.7273438,5.38888889 C34.7273438,5.62222222 34.65,7.1 34.65,8.18888889 L34.65,9.58888889 C34.65,10.7555556 34.7273438,13.4777778 34.7273438,14.1777778 C34.7273438,15.1888889 34.959375,16.1222222 35.4234375,16.7444444 C36.1195312,17.6 37.125,17.9888889 38.1304688,17.9888889 C38.9039063,17.9888889 40.0640625,17.6 40.6828125,17.0555556 C41.5335938,16.2777778 41.9976563,15.1111111 41.9976563,13.5555556 L41.9976563,10.2111111 C41.9976563,8.42222222 41.765625,6.01111111 41.6882813,5.54444444 C41.6109375,5 41.2242188,4.61111111 40.9148438,4.61111111 L40.21875,4.61111111 C40.0640625,4.61111111 40.0640625,4.53333333 40.0640625,4.45555556 L40.0640625,3.91111111 C40.0640625,3.83333333 40.0640625,3.75555556 40.21875,3.75555556 C40.4507813,3.75555556 41.45625,3.83333333 42.8484375,3.83333333 C44.0085937,3.83333333 44.7046875,3.75555556 44.859375,3.75555556 C45.0140625,3.75555556 45.0914063,3.83333333 45.0914063,3.91111111 L45.0914063,4.37777778 C45.0914063,4.53333333 45.0914063,4.61111111 44.9367188,4.61111111 L44.240625,4.61111111 C43.3898438,4.61111111 43.3898438,5.23333333 43.3125,5.46666667 C43.2351563,5.77777778 43.2351563,8.73333333 43.2351563,9.04444444 C43.2351563,9.35555556 43.1578125,13.0888889 43.1578125,13.9444444 C43.003125,15.7333333 42.4617188,17.0555556 41.3015625,18.0666667 C40.3734375,18.9222222 38.9039063,19.3888889 37.5117188,19.3888889 C36.50625,19.3888889 35.1140625,19.2333333 34.2632813,18.8444444 C33.2578125,18.3777778 32.3296875,17.3666667 31.7882813,15.9666667 C31.4015625,15.0333333 31.3242188,13.6333333 31.3242188,10.7555556 L31.3242188,5.62222222 L31.55625,5.62222222 Z"></path>
                <path d="M52.0523438,10.6777778 C53.0578125,10.6777778 53.9859375,10.6 54.2179688,10.5222222 C54.6046875,10.4444444 54.9140625,10.2111111 55.2234375,9.82222222 C55.4554688,9.51111111 55.6875,8.88888889 55.6875,8.5 C55.6875,8.34444444 55.7648438,8.34444444 55.8421875,8.34444444 L56.3835938,8.42222222 C56.4609375,8.42222222 56.5382813,8.5 56.5382813,8.57777778 C56.4609375,8.96666667 56.4609375,10.0555556 56.4609375,10.8333333 C56.4609375,11.7666667 56.5382813,12.8555556 56.615625,13.3222222 C56.615625,13.4777778 56.5382812,13.4777778 56.4609375,13.4777778 L55.9195313,13.5555556 C55.8421875,13.5555556 55.7648438,13.5555556 55.7648438,13.4 C55.6875,13.0888889 55.4554688,12.5444444 55.3007812,12.3111111 C55.06875,11.9222222 54.5273438,11.6111111 54.140625,11.5333333 C53.5992188,11.4555556 52.903125,11.3777778 51.975,11.3777778 L51.975,12.7 C51.975,13.8666667 52.0523438,15.9666667 52.0523438,16.3555556 C52.0523438,17.4444444 52.284375,17.8333333 52.59375,17.9888889 C52.903125,18.1444444 53.2898437,18.1444444 54.3726563,18.1444444 C54.759375,18.1444444 55.6101563,18.1444444 56.0742188,18.0666667 C56.5382813,17.9888889 57.1570312,17.8333333 57.6984375,17.3666667 C58.2398438,16.9 59.4773438,15.5777778 59.8640625,15.0333333 C59.9414063,14.9555556 60.01875,14.9555556 60.0960938,14.9555556 L60.4828125,15.1888889 C60.5601563,15.2666667 60.5601563,15.2666667 60.5601563,15.3444444 L59.6320313,18.6111111 C59.5546875,18.7666667 59.4,18.9222222 59.1679688,18.9222222 C58.9359375,18.9222222 57.234375,18.8444444 49.809375,18.8444444 C48.1851563,18.8444444 47.4890625,18.9222222 47.1023438,18.9222222 C46.9476563,18.9222222 46.9476563,18.8444444 46.9476563,18.6888889 L46.9476563,18.2222222 C46.9476563,18.0666667 47.025,18.0666667 47.1796875,18.0666667 L47.7984375,18.0666667 C48.8039063,18.0666667 48.88125,17.9111111 48.88125,17.1333333 L48.88125,9.9 C48.88125,8.11111111 48.8039063,5.46666667 48.8039063,5.23333333 C48.7265625,4.53333333 48.4945313,4.37777778 47.953125,4.37777778 L47.1023437,4.37777778 C47.025,4.37777778 47.025,4.3 47.025,4.14444444 L47.025,3.6 C47.025,3.52222222 47.025,3.44444444 47.1796875,3.44444444 C47.64375,3.44444444 48.4171875,3.52222222 50.3507812,3.52222222 L57.853125,3.52222222 C58.1625,3.52222222 58.6265625,3.44444444 58.7039062,3.44444444 C58.78125,3.44444444 58.8585937,3.52222222 58.8585937,3.52222222 C58.9359375,3.83333333 59.6320312,6.78888889 59.709375,7.02222222 C59.7867188,7.1 59.7867188,7.17777778 59.6320312,7.25555556 L59.3226562,7.41111111 C59.2453125,7.48888889 59.1679687,7.41111111 59.090625,7.33333333 C59.0132812,7.17777778 57.0796875,5.23333333 56.5382812,4.92222222 C56.0742187,4.61111111 55.4554687,4.37777778 54.9140625,4.37777778 L52.0523437,4.3 L52.0523438,10.6777778 L52.0523438,10.6777778 Z"></path>
                <path d="M95.0554687,16.9 C95.0554687,17.2111111 95.1328125,17.4444444 95.1328125,17.6 C95.1328125,17.7555556 94.978125,17.8333333 94.8234375,17.9111111 C93.121875,18.7666667 91.265625,19.3111111 88.5585937,19.3111111 C86.315625,19.3111111 83.840625,18.6111111 82.3710937,16.8222222 C81.05625,15.3444444 80.4375,13.4777778 80.4375,10.9111111 C80.4375,8.96666667 81.365625,6.86666667 82.9125,5.46666667 C84.459375,4.06666667 86.3929687,3.36666667 88.9453125,3.36666667 C91.1109375,3.36666667 92.7351562,3.98888889 93.43125,4.45555556 C93.6632813,4.61111111 93.8179688,4.53333333 93.9726562,4.37777778 L94.2046875,4.06666667 C94.2820313,3.91111111 94.359375,3.83333333 94.5140625,3.83333333 C94.7460937,3.83333333 94.8234375,3.98888889 94.8234375,4.22222222 L95.1328125,8.65555556 C95.1328125,8.88888889 95.1328125,9.04444444 95.0554687,9.04444444 L94.4367187,9.2 C94.2820312,9.2 94.2820312,9.2 94.2046875,8.96666667 C93.8953125,7.87777778 93.1992187,6.55555556 92.2710937,5.7 C91.4203125,4.92222222 90.3375,4.37777778 88.8679687,4.37777778 C87.7078125,4.37777778 86.625,4.76666667 85.6195312,6.01111111 C84.6140625,7.17777778 83.9179687,8.96666667 83.9179687,10.9111111 C83.9179687,13.4777778 84.6140625,15.6555556 85.7742187,16.8222222 C86.7796875,17.8333333 87.6304687,18.3 89.0226562,18.3 C90.1054687,18.3 90.7242187,18.2222222 91.4203125,17.8333333 C91.884375,17.6 91.884375,16.9 91.884375,15.8111111 L91.884375,14.2555556 C91.884375,13.4777778 91.6523437,13.2444444 91.1109375,13.2444444 L90.1828125,13.2444444 C90.028125,13.2444444 90.028125,13.1666667 90.028125,13.0888889 L90.028125,12.5444444 C90.028125,12.4666667 90.028125,12.3888889 90.1828125,12.3888889 C90.3375,12.3888889 91.4203125,12.4666667 93.3539062,12.4666667 C95.2875,12.4666667 96.1382813,12.3888889 96.2929687,12.3888889 C96.4476562,12.3888889 96.4476562,12.4666667 96.4476562,12.5444444 L96.4476562,13.0888889 C96.4476562,13.2444444 96.4476562,13.2444444 96.2929687,13.2444444 L95.6742187,13.2444444 C95.2875,13.2444444 94.978125,13.4 94.978125,14.0222222 L94.978125,16.9 L95.0554687,16.9 L95.0554687,16.9 Z"></path>
                <path d="M103.717969,11.4555556 C104.104688,11.4555556 104.414063,11.4555556 104.56875,11.4555556 C107.430469,11.4555556 108.049219,8.73333333 108.049219,7.72222222 C108.049219,6.71111111 107.739844,5.77777778 107.198438,5.31111111 C106.425,4.61111111 105.496875,4.37777778 104.800781,4.37777778 C104.414063,4.37777778 104.182031,4.45555556 103.95,4.53333333 C103.795313,4.61111111 103.795313,4.84444444 103.717969,5.07777778 L103.717969,11.4555556 L103.717969,11.4555556 Z M100.701563,9.12222222 C100.701563,7.48888889 100.701563,6.16666667 100.701563,5.54444444 C100.701563,4.84444444 100.392188,4.45555556 100.082813,4.45555556 L99.2320313,4.45555556 C99.1546875,4.45555556 99.0773438,4.37777778 99.0773438,4.3 L99.0773438,3.75555556 C99.0773438,3.67777778 99.0773438,3.6 99.2320313,3.6 C99.3867188,3.6 100.082813,3.67777778 102.403125,3.67777778 C103.640625,3.67777778 105.496875,3.6 106.347656,3.6 C108.049219,3.6 109.286719,4.22222222 110.1375,5 C110.910938,5.7 111.375,6.55555556 111.375,7.33333333 C111.375,10.0555556 109.364063,11.3 107.430469,11.4555556 L107.430469,11.6111111 C108.126563,11.8444444 108.435938,12.2333333 108.822656,12.7777778 C109.132031,13.0888889 110.292188,15.0333333 110.446875,15.2666667 C110.601563,15.4222222 111.761719,17.1333333 112.148438,17.6 C112.380469,17.9111111 113.23125,18.0666667 113.695313,18.0666667 C113.85,18.0666667 113.85,18.1444444 113.85,18.2222222 L113.85,18.7666667 C113.85,18.9222222 113.85,18.9222222 113.695313,18.9222222 C113.540625,18.9222222 112.999219,18.8444444 111.297656,18.8444444 C110.678906,18.8444444 109.905469,18.9222222 109.286719,18.9222222 C108.667969,18.4555556 107.353125,15.8888889 106.966406,15.1888889 C106.270313,13.7111111 105.342187,12.1555556 104.336719,12.1555556 L103.640625,12.1555556 L103.640625,13.2444444 C103.640625,14.4888889 103.717969,16.9 103.717969,17.2111111 C103.795313,17.6777778 103.95,18.0666667 104.259375,18.0666667 L105.110156,18.0666667 C105.264844,18.0666667 105.264844,18.1444444 105.264844,18.2222222 L105.264844,18.7666667 C105.264844,18.9222222 105.264844,18.9222222 104.955469,18.9222222 C104.955469,18.9222222 104.414063,18.8444444 102.171094,18.8444444 C99.928125,18.8444444 99.3867188,18.9222222 99.1546875,18.9222222 C99,18.9222222 99,18.8444444 99,18.6888889 L99,18.2222222 C99,18.1444444 99,18.0666667 99.0773438,18.0666667 L99.6960938,18.0666667 C100.160156,18.0666667 100.546875,17.9111111 100.546875,17.3666667 C100.624219,15.2666667 100.624219,13.2444444 100.624219,11.1444444 L100.624219,9.12222222 L100.701563,9.12222222 Z"></path>
                <path d="M123.13125,12.2333333 C122.976562,11.6111111 121.661719,7.1 121.507031,6.55555556 C121.429687,6.24444444 121.352344,6.08888889 121.275,6.08888889 C121.120312,6.08888889 121.120312,6.16666667 121.042969,6.4 C120.965625,6.71111111 119.109375,11.7666667 118.954687,12.3111111 L123.13125,12.3111111 L123.13125,12.2333333 L123.13125,12.2333333 Z M118.645312,13.0888889 C118.490625,13.5555556 117.407812,16.5111111 117.407812,17.2111111 C117.407812,17.6777778 117.5625,18.2222222 118.258594,18.2222222 L119.032031,18.2222222 C119.264062,18.2222222 119.264062,18.3 119.264062,18.3777778 L119.264062,18.8444444 C119.264062,19 119.264062,19.0777778 119.109375,19.0777778 C118.8,19.0777778 117.949219,19 116.170312,19 C114.623437,19 114.159375,19.0777778 113.85,19.0777778 C113.695312,19.0777778 113.695312,18.9222222 113.695312,18.7666667 L113.695312,18.3777778 C113.695312,18.2222222 113.695312,18.2222222 113.85,18.2222222 L114.391406,18.2222222 C114.932812,18.2222222 115.396875,17.9111111 115.860937,17.2888889 C116.170312,16.8222222 117.717187,13.0888889 118.413281,11.2222222 C118.567969,10.7555556 120.346875,6.16666667 120.501562,5.54444444 C120.578906,5.31111111 120.65625,5.07777778 120.501562,4.84444444 C120.424219,4.76666667 120.346875,4.68888889 120.346875,4.53333333 C120.346875,4.45555556 120.424219,4.37777778 120.578906,4.37777778 C121.275,4.22222222 122.667187,3.67777778 122.976562,3.28888889 C123.053906,3.21111111 123.13125,3.13333333 123.285937,3.13333333 C123.440625,3.13333333 123.440625,3.28888889 123.517969,3.52222222 C123.904687,4.84444444 125.60625,9.74444444 125.992969,11.0666667 C126.457031,12.7777778 127.849219,16.7444444 128.158594,17.3666667 C128.545312,18.0666667 129.086719,18.3 129.396094,18.3 L130.092187,18.3 C130.246875,18.3 130.246875,18.3777778 130.246875,18.4555556 L130.246875,18.8444444 C130.246875,19 130.246875,19.1555556 130.092187,19.1555556 C129.705469,19.1555556 129.241406,19.0777778 126.457031,19.0777778 C124.678125,19.0777778 123.904687,19.1555556 123.517969,19.1555556 C123.285937,19.1555556 123.285937,19 123.285937,18.8444444 L123.285937,18.4555556 C123.285937,18.3777778 123.285937,18.3 123.440625,18.3 L124.059375,18.3 C124.600781,18.3 124.832812,18.0666667 124.678125,17.5222222 C124.523437,16.7444444 123.672656,14.0222222 123.363281,13.2444444 L118.645312,13.2444444 L118.645312,13.0888889 Z"></path>
                <path d="M138.058594,14.9555556 C138.058594,15.8111111 138.135938,17.2111111 138.135938,17.3666667 C138.213281,18.0666667 138.522656,18.1444444 138.832031,18.1444444 L139.450781,18.1444444 C139.605469,18.1444444 139.605469,18.2222222 139.605469,18.3 L139.605469,18.8444444 C139.605469,19 139.605469,19 139.450781,19 C139.21875,19 138.367969,18.9222222 136.357031,18.9222222 C134.114063,18.9222222 133.495313,19 133.263281,19 C133.185937,19 133.108594,18.9222222 133.108594,18.7666667 L133.108594,18.2222222 C133.108594,18.1444444 133.108594,18.0666667 133.263281,18.0666667 L134.036719,18.0666667 C134.578125,18.0666667 134.732812,17.8333333 134.810156,17.6 C134.810156,17.2888889 134.8875,15.5777778 134.8875,13.5555556 L134.8875,12.6222222 C134.578125,11.9222222 131.097656,5.7 130.55625,4.92222222 C130.324219,4.61111111 129.782813,4.45555556 129.473438,4.45555556 L129.164062,4.45555556 C129.009375,4.45555556 129.009375,4.37777778 129.009375,4.3 L129.009375,3.67777778 C129.009375,3.6 129.009375,3.52222222 129.164062,3.52222222 C129.31875,3.52222222 130.401563,3.6 132.257812,3.6 C134.500781,3.6 135.274219,3.52222222 135.428906,3.52222222 C135.583594,3.52222222 135.583594,3.6 135.583594,3.67777778 L135.583594,4.22222222 C135.583594,4.3 135.583594,4.37777778 135.428906,4.37777778 L134.964844,4.37777778 C134.655469,4.37777778 134.423438,4.61111111 134.423438,4.92222222 C134.423438,5.31111111 136.975781,10.2111111 137.517188,11.5333333 C138.135938,10.3666667 140.765625,5.77777778 140.765625,5.15555556 C140.765625,4.76666667 140.378906,4.45555556 139.914844,4.45555556 L139.373437,4.45555556 C139.21875,4.45555556 139.21875,4.37777778 139.21875,4.3 L139.21875,3.75555556 C139.21875,3.67777778 139.21875,3.6 139.373437,3.6 C139.605469,3.6 140.45625,3.67777778 142.080469,3.67777778 C143.55,3.67777778 144.014062,3.6 144.246094,3.6 C144.400781,3.6 144.400781,3.67777778 144.400781,3.75555556 L144.400781,4.3 C144.400781,4.45555556 144.400781,4.45555556 144.246094,4.45555556 L143.859375,4.45555556 C143.627344,4.45555556 142.93125,4.61111111 142.621875,5 C142.3125,5.31111111 138.986719,10.8333333 138.135937,12.5444444 L138.058594,14.9555556 L138.058594,14.9555556 Z"></path>
                <path d="M154.996875,11.1444444 C154.996875,11.4555556 154.996875,15.1111111 155.074219,16.4333333 C155.074219,16.9 155.151563,17.2111111 155.460938,17.6 C155.692969,17.9888889 156.466406,18.1444444 157.1625,18.1444444 C158.4,18.1444444 160.024219,17.5222222 161.184375,16.0444444 C162.035156,14.8777778 162.73125,13.1666667 162.73125,11.1444444 C162.73125,9.35555556 162.035156,7.56666667 161.029687,6.47777778 C159.869531,5.23333333 158.013281,4.53333333 156.775781,4.53333333 C156.157031,4.53333333 155.847656,4.53333333 155.538281,4.68888889 C155.228906,4.84444444 155.151562,5.15555556 155.074219,5.62222222 C155.074219,6.55555556 155.074219,9.35555556 155.074219,9.66666667 L155.074219,11.1444444 L154.996875,11.1444444 L154.996875,11.1444444 Z M151.825781,9.04444444 C151.825781,8.5 151.748437,5.38888889 151.748437,5.07777778 C151.671094,4.53333333 151.439063,4.45555556 151.052344,4.45555556 L149.969531,4.45555556 C149.892188,4.45555556 149.814844,4.45555556 149.814844,4.3 L149.814844,3.67777778 C149.814844,3.6 149.892188,3.6 149.969531,3.6 C150.278906,3.6 151.207031,3.67777778 153.295313,3.67777778 C153.836719,3.67777778 156.002344,3.6 156.466406,3.6 C159.405469,3.6 161.725781,3.83333333 163.736719,5.54444444 C165.128906,6.71111111 166.134375,8.5 166.134375,10.9888889 C166.134375,13.4777778 165.438281,15.1111111 164.046094,16.6666667 C161.957812,18.9222222 158.322656,18.9222222 156.930469,18.9222222 C156.621094,18.9222222 154.06875,18.8444444 152.908594,18.8444444 C151.052344,18.8444444 150.201563,18.9222222 149.892188,18.9222222 C149.814844,18.9222222 149.7375,18.8444444 149.7375,18.7666667 L149.7375,18.2222222 C149.7375,18.1444444 149.814844,18.0666667 149.892188,18.0666667 L150.975,18.0666667 C151.361719,18.0666667 151.59375,17.9111111 151.671094,17.5222222 C151.748438,17.0555556 151.825781,12.2333333 151.825781,10.6 L151.825781,9.04444444 L151.825781,9.04444444 Z"></path>
                <path d="M176.111719,12.2333333 C175.957031,11.6111111 174.642188,7.1 174.4875,6.55555556 C174.410156,6.24444444 174.332812,6.08888889 174.255469,6.08888889 C174.100781,6.08888889 174.100781,6.16666667 174.023438,6.4 C173.946094,6.71111111 172.089844,11.7666667 171.935156,12.3111111 L176.111719,12.3111111 L176.111719,12.2333333 Z M171.625781,13.0888889 C171.471094,13.5555556 170.388281,16.5111111 170.388281,17.2111111 C170.388281,17.6777778 170.542969,18.2222222 171.239062,18.2222222 L172.0125,18.2222222 C172.244531,18.2222222 172.244531,18.3 172.244531,18.3777778 L172.244531,18.8444444 C172.244531,19 172.244531,19.0777778 172.089844,19.0777778 C171.780469,19.0777778 170.929687,19 169.150781,19 C167.603906,19 167.139844,19.0777778 166.830469,19.0777778 C166.675781,19.0777778 166.675781,18.9222222 166.675781,18.7666667 L166.675781,18.3777778 C166.675781,18.2222222 166.675781,18.2222222 166.830469,18.2222222 L167.371875,18.2222222 C167.913281,18.2222222 168.377344,17.9111111 168.841406,17.2888889 C169.150781,16.8222222 170.697656,13.0888889 171.39375,11.2222222 C171.548437,10.7555556 173.327344,6.16666667 173.482031,5.54444444 C173.559375,5.31111111 173.636719,5.07777778 173.482031,4.84444444 C173.404687,4.76666667 173.327344,4.68888889 173.327344,4.53333333 C173.327344,4.45555556 173.404687,4.37777778 173.559375,4.37777778 C174.255469,4.22222222 175.647656,3.67777778 175.957031,3.28888889 C176.034375,3.21111111 176.111719,3.13333333 176.266406,3.13333333 C176.421094,3.13333333 176.421094,3.28888889 176.498437,3.52222222 C176.885156,4.84444444 178.586719,9.74444444 178.973437,11.0666667 C179.4375,12.7777778 180.829687,16.7444444 181.139062,17.3666667 C181.525781,18.0666667 182.067187,18.3 182.376562,18.3 L183.072656,18.3 C183.227344,18.3 183.227344,18.3777778 183.227344,18.4555556 L183.227344,18.8444444 C183.227344,19 183.227344,19.1555556 183.072656,19.1555556 C182.685937,19.1555556 182.221875,19.0777778 179.4375,19.0777778 C177.658594,19.0777778 176.885156,19.1555556 176.498437,19.1555556 C176.266406,19.1555556 176.266406,19 176.266406,18.8444444 L176.266406,18.4555556 C176.266406,18.3777778 176.266406,18.3 176.421094,18.3 L177.039844,18.3 C177.58125,18.3 177.813281,18.0666667 177.658594,17.5222222 C177.503906,16.7444444 176.653125,14.0222222 176.34375,13.2444444 L171.625781,13.2444444 L171.625781,13.0888889 L171.625781,13.0888889 Z"></path>
                <path d="M191.039063,14.9555556 C191.039063,15.8111111 191.116406,17.2111111 191.116406,17.3666667 C191.19375,18.0666667 191.503125,18.1444444 191.8125,18.1444444 L192.43125,18.1444444 C192.585938,18.1444444 192.585938,18.2222222 192.585938,18.3 L192.585938,18.8444444 C192.585938,19 192.585938,19 192.43125,19 C192.199219,19 191.348438,18.9222222 189.3375,18.9222222 C187.094531,18.9222222 186.475781,19 186.24375,19 C186.166406,19 186.089062,18.9222222 186.089062,18.7666667 L186.089062,18.2222222 C186.089062,18.1444444 186.089062,18.0666667 186.24375,18.0666667 L187.017188,18.0666667 C187.558594,18.0666667 187.713281,17.8333333 187.790625,17.6 C187.790625,17.2888889 187.867969,15.5777778 187.867969,13.5555556 L187.867969,12.6222222 C187.558594,11.9222222 184.078125,5.7 183.536719,4.92222222 C183.304688,4.61111111 182.763281,4.45555556 182.453906,4.45555556 L182.144531,4.45555556 C181.989844,4.45555556 181.989844,4.37777778 181.989844,4.3 L181.989844,3.67777778 C181.989844,3.6 181.989844,3.52222222 182.144531,3.52222222 C182.299219,3.52222222 183.382031,3.6 185.238281,3.6 C187.48125,3.6 188.254688,3.52222222 188.409375,3.52222222 C188.564063,3.52222222 188.564063,3.6 188.564063,3.67777778 L188.564063,4.22222222 C188.564063,4.3 188.564063,4.37777778 188.409375,4.37777778 L187.945313,4.37777778 C187.635938,4.37777778 187.403906,4.61111111 187.403906,4.92222222 C187.403906,5.31111111 189.95625,10.2111111 190.497656,11.5333333 C191.116406,10.3666667 193.746094,5.77777778 193.746094,5.15555556 C193.746094,4.76666667 193.359375,4.45555556 192.895313,4.45555556 L192.353906,4.45555556 C192.199219,4.45555556 192.199219,4.37777778 192.199219,4.3 L192.199219,3.75555556 C192.199219,3.67777778 192.199219,3.6 192.353906,3.6 C192.585937,3.6 193.436719,3.67777778 195.060937,3.67777778 C196.530469,3.67777778 196.994531,3.6 197.226562,3.6 C197.38125,3.6 197.38125,3.67777778 197.38125,3.75555556 L197.38125,4.3 C197.38125,4.45555556 197.38125,4.45555556 197.226562,4.45555556 L196.839844,4.45555556 C196.607812,4.45555556 195.911719,4.61111111 195.602344,5 C195.292969,5.31111111 191.967187,10.8333333 191.116406,12.5444444 L191.039063,14.9555556 L191.039063,14.9555556 Z"></path>
                <path d="M58.9359375,15.1111111 C58.9359375,11.5333333 61.1789062,9.51111111 62.4164062,8.96666667 C61.6429687,7.87777778 61.3335938,6.71111111 61.3335938,5.38888889 C61.3335938,3.13333333 63.0351562,1.03333333 65.8195313,1.03333333 C67.44375,1.03333333 68.68125,1.96666667 68.68125,3.44444444 C68.68125,4.76666667 67.5984375,5.46666667 67.2890625,5.46666667 C67.134375,5.46666667 67.134375,5.23333333 67.2117187,4.92222222 C67.44375,3.67777778 66.4382812,2.9 65.4328125,2.9 C63.8085937,2.9 62.5710937,4.3 62.5710937,6.32222222 C62.5710937,7.17777778 62.803125,8.03333333 63.3445312,8.73333333 C63.5765625,8.65555556 63.9632812,8.57777778 64.4273437,8.57777778 C64.96875,8.57777778 65.9742187,8.81111111 65.9742187,9.27777778 C65.9742187,9.97777778 65.5875,10.6777778 65.1234375,10.6777778 C64.659375,10.6777778 63.6539062,10.2888889 63.421875,10.0555556 C63.0351562,9.74444444 62.8804687,9.66666667 62.49375,9.9 C61.4882812,10.6 60.7921875,12.1555556 60.7921875,13.9444444 C60.7921875,17.6777778 64.040625,20.6333333 69.5320312,20.6333333 C75.0234375,20.6333333 77.8851562,17.0555556 77.8851562,14.1777778 C77.8851562,11.7666667 76.0289063,9.51111111 73.3992187,9.51111111 C71.0015625,9.51111111 70.6148437,11.6888889 70.6148437,12.3111111 C70.6148437,13.7111111 71.3109375,14.4888889 71.5429687,14.4888889 C71.6976562,14.4888889 71.775,14.3333333 71.775,14.0222222 C71.775,13.6333333 72.1617187,12.8555556 73.0898437,12.8555556 C73.940625,12.8555556 74.4820312,13.4777778 74.4820312,14.4111111 C74.4820312,14.9555556 74.0179687,15.8888889 72.6257812,15.8888889 C71.465625,15.8888889 69.4546875,14.7222222 69.4546875,12.1555556 C69.4546875,10.1333333 70.9242187,7.87777778 74.0179687,7.87777778 C75.178125,7.87777778 76.6476562,8.11111111 77.1890625,8.11111111 C80.4375,8.11111111 81.984375,7.17777778 81.984375,5.46666667 C81.984375,4.37777778 81.05625,3.36666667 80.2828125,3.36666667 C79.8960937,3.36666667 79.8960937,3.75555556 79.9734375,4.06666667 C80.0507812,4.45555556 79.7414062,5.31111111 78.7359375,5.31111111 C77.7304687,5.31111111 77.4210937,4.61111111 77.4210937,4.22222222 C77.4210937,2.97777778 78.58125,2.35555556 79.6640625,2.35555556 C81.675,2.35555556 83.0671875,3.91111111 83.0671875,5.54444444 C83.0671875,8.34444444 81.2109375,9.74444444 78.1945312,10.1333333 C77.4984375,10.2111111 77.4210937,10.4444444 77.8078125,10.9111111 C78.1945312,11.5333333 78.890625,12.7 78.890625,14.8 C78.890625,19.9333333 74.4046875,22.9666667 69.3,22.9666667 C61.0242187,22.8888889 58.9359375,18.2222222 58.9359375,15.1111111 L58.9359375,15.1111111 Z"></path>
            </g>
        </g>
    </g>
</svg>