<?xml version="1.0" encoding="UTF-8"?>
<svg width="215px" height="25px" viewBox="0 0 215 25" version="1.1" xmlns="http://www.w3.org/2000/svg" xmlns:xlink="http://www.w3.org/1999/xlink">
    <title>Georgetown University Blue and Gray Day</title>
    <g stroke="none" stroke-width="1" fill="none" fill-rule="evenodd">
        <g fill="#FFFFFF">
            <path d="M56.6480469,15.375 C56.6480469,17.0361111 57.0300781,17.7388889 57.9851563,17.7388889 C59.2585938,17.7388889 60.4046875,17.1 60.4046875,14.9277778 C60.4046875,13.5222222 59.7679688,12.5638889 58.8128906,12.1805556 C57.9214844,11.8611111 57.09375,11.8611111 56.6480469,11.8611111 L56.6480469,15.375 L56.6480469,15.375 Z M56.6480469,11.2222222 C57.3484375,11.2861111 58.4945312,11.1583333 59.0039062,10.7111111 C59.5769531,10.2 59.8316406,9.36944444 59.8316406,8.60277778 C59.8316406,7.9 59.640625,7.19722222 59.13125,6.81388889 C58.5582031,6.36666667 57.6667969,6.175 57.4757812,6.175 C57.09375,6.175 56.7117187,6.175 56.7117187,6.49444444 C56.6480469,6.87777778 56.6480469,8.41111111 56.6480469,9.88055556 L56.6480469,11.2222222 L56.6480469,11.2222222 Z M54.0375,10.5194444 C54.0375,9.88055556 53.9738281,7.70833333 53.9738281,7.45277778 C53.9101562,6.43055556 53.6554687,6.36666667 53.0824219,6.36666667 L52.509375,6.36666667 C52.3820313,6.36666667 52.3820313,6.36666667 52.3820313,6.23888889 L52.3820313,5.85555556 C52.3820313,5.72777778 52.3820313,5.72777778 52.509375,5.72777778 C52.7640625,5.72777778 53.5917969,5.79166667 55.2472656,5.79166667 C55.8203125,5.79166667 56.8390625,5.72777778 58.0488281,5.72777778 C59.3222656,5.72777778 60.4683594,5.85555556 61.0414062,6.175 C62.0601563,6.75 62.3785156,7.51666667 62.3785156,8.60277778 C62.3785156,9.75277778 61.678125,10.9027778 59.8316406,11.5416667 L59.8316406,11.6055556 C61.9964844,12.1805556 63.1425781,13.2027778 63.1425781,15.1194444 C63.1425781,16.0777778 62.6332031,17.3555556 61.7417969,17.8027778 C61.0414062,18.1861111 59.7679687,18.4416667 57.603125,18.4416667 C57.4757813,18.4416667 56.9664063,18.3777778 56.5207031,18.3777778 C56.0113281,18.3138889 55.4382813,18.3138889 55.1199219,18.3138889 C54.2285156,18.3138889 53.6554688,18.3138889 53.2734375,18.3138889 C52.8914063,18.3138889 52.7003906,18.3777778 52.5730469,18.3777778 C52.3820313,18.3777778 52.3820313,18.3138889 52.3820313,18.1861111 L52.3820313,17.8027778 C52.3820313,17.675 52.3820313,17.675 52.5730469,17.675 L53.2097656,17.675 C53.7191406,17.675 53.8464844,17.4833333 53.9101563,16.9083333 C53.9738281,16.525 53.9738281,14.1611111 53.9738281,12.6916667 L53.9738281,10.5194444 L54.0375,10.5194444 L54.0375,10.5194444 Z" fill-rule="nonzero"></path>
            <path d="M69.5097656,12.6916667 C69.5097656,13.0111111 69.5097656,16.8444444 69.5734375,17.5472222 L70.5921875,17.5472222 C71.4199219,17.5472222 72.1839844,17.5472222 73.1390625,17.4833333 C74.0941406,17.4194444 75.3039063,15.2472222 75.5585938,14.6083333 C75.6222656,14.4805556 75.6859375,14.4805556 75.7496094,14.4805556 L76.1316406,14.6083333 C76.1953125,14.6722222 76.1953125,14.6722222 76.1953125,14.7361111 C76.1316406,14.8638889 75.43125,17.8027778 75.3039063,18.25 C74.8582031,18.1861111 69.7644531,18.1861111 68.1726563,18.1861111 C66.4535156,18.1861111 65.8167969,18.25 65.5621094,18.25 C65.4347656,18.25 65.4347656,18.1861111 65.4347656,18.1222222 L65.4347656,17.675 C65.4347656,17.6111111 65.4347656,17.5472222 65.5621094,17.5472222 L66.1351563,17.5472222 C66.771875,17.5472222 66.8992188,17.2916667 66.8992188,17.1 C66.8992188,16.7805556 66.9628906,12.3722222 66.9628906,11.2861111 L66.9628906,10.2638889 C66.9628906,9.11388889 66.8992188,7.26111111 66.8992188,6.94166667 C66.8355469,6.49444444 66.771875,6.30277778 66.3898438,6.30277778 L65.753125,6.30277778 C65.6257813,6.30277778 65.6257813,6.23888889 65.6257813,6.11111111 L65.6257813,5.66388889 C65.6257813,5.6 65.6257813,5.53611111 65.753125,5.53611111 C65.9441406,5.53611111 66.5808594,5.6 68.1726563,5.6 C70.2101563,5.6 70.9742188,5.53611111 71.1652344,5.53611111 C71.2925781,5.53611111 71.2925781,5.6 71.2925781,5.72777778 L71.2925781,6.11111111 C71.2925781,6.175 71.2289063,6.23888889 71.1015625,6.23888889 L70.2738281,6.23888889 C69.7007813,6.23888889 69.6371094,6.43055556 69.6371094,6.87777778 C69.6371094,7.13333333 69.5734375,9.75277778 69.5734375,11.0305556 L69.5097656,12.6916667 L69.5097656,12.6916667 Z" fill-rule="nonzero"></path>
            <path d="M77.978125,7.26111111 C77.978125,6.62222222 77.8507813,6.36666667 77.46875,6.36666667 L76.6410156,6.36666667 C76.5136719,6.36666667 76.5136719,6.30277778 76.5136719,6.23888889 L76.5136719,5.79166667 C76.5136719,5.66388889 76.5136719,5.66388889 76.6410156,5.66388889 C76.8320312,5.66388889 77.6597656,5.72777778 79.50625,5.72777778 C81.034375,5.72777778 81.9257812,5.66388889 82.1167969,5.66388889 C82.2441406,5.66388889 82.2441406,5.72777778 82.2441406,5.79166667 L82.2441406,6.23888889 C82.2441406,6.30277778 82.2441406,6.36666667 82.1167969,6.36666667 L81.54375,6.36666667 C80.9707031,6.36666667 80.6523438,6.68611111 80.5886719,7.06944444 C80.5886719,7.26111111 80.525,8.475 80.525,9.36944444 L80.525,10.5194444 C80.525,11.4777778 80.5886719,13.7138889 80.5886719,14.2888889 C80.5886719,15.1194444 80.7796875,15.8861111 81.1617188,16.3972222 C81.7347656,17.1 82.5625,17.4194444 83.3902344,17.4194444 C84.0269531,17.4194444 84.9820313,17.1 85.4914063,16.6527778 C86.1917969,16.0138889 86.5738281,15.0555556 86.5738281,13.7777778 L86.5738281,11.0305556 C86.5738281,9.56111111 86.3828125,7.58055556 86.3191406,7.19722222 C86.2554688,6.75 85.9371094,6.43055556 85.6824219,6.43055556 L85.109375,6.43055556 C84.9820313,6.43055556 84.9820313,6.36666667 84.9820313,6.30277778 L84.9820313,5.85555556 C84.9820313,5.79166667 84.9820313,5.72777778 85.109375,5.72777778 C85.3003906,5.72777778 86.128125,5.79166667 87.2742187,5.79166667 C88.2292969,5.79166667 88.8023437,5.72777778 88.9296875,5.72777778 C89.0570312,5.72777778 89.1207031,5.79166667 89.1207031,5.85555556 L89.1207031,6.23888889 C89.1207031,6.36666667 89.1207031,6.43055556 88.9933594,6.43055556 L88.4203125,6.43055556 C87.7199219,6.43055556 87.7199219,6.94166667 87.65625,7.13333333 C87.5925781,7.38888889 87.5925781,9.81666667 87.5925781,10.0722222 C87.5925781,10.3277778 87.5289063,13.3944444 87.5289063,14.0972222 C87.4015625,15.5666667 86.9558594,16.6527778 86.0007813,17.4833333 C85.2367188,18.1861111 84.0269531,18.5694444 82.8808594,18.5694444 C82.053125,18.5694444 80.9070313,18.4416667 80.2066406,18.1222222 C79.3789063,17.7388889 78.6148438,16.9083333 78.1691406,15.7583333 C77.8507813,14.9916667 77.7871094,13.8416667 77.7871094,11.4777778 L77.7871094,7.26111111 L77.978125,7.26111111 Z" fill-rule="nonzero"></path>
            <path d="M94.8511719,11.4138889 C95.6789063,11.4138889 96.4429688,11.35 96.6339844,11.2861111 C96.9523438,11.2222222 97.2070312,11.0305556 97.4617188,10.7111111 C97.6527344,10.4555556 97.84375,9.94444444 97.84375,9.625 C97.84375,9.49722222 97.9074219,9.49722222 97.9710938,9.49722222 L98.4167969,9.56111111 C98.4804688,9.56111111 98.5441406,9.625 98.5441406,9.68888889 C98.4804688,10.0083333 98.4804688,10.9027778 98.4804688,11.5416667 C98.4804688,12.3083333 98.5441406,13.2027778 98.6078125,13.5861111 C98.6078125,13.7138889 98.5441406,13.7138889 98.4804688,13.7138889 L98.0347656,13.7777778 C97.9710937,13.7777778 97.9074219,13.7777778 97.9074219,13.65 C97.84375,13.3944444 97.6527344,12.9472222 97.5253906,12.7555556 C97.334375,12.4361111 96.8886719,12.1805556 96.5703125,12.1166667 C96.1246094,12.0527778 95.5515625,11.9888889 94.7875,11.9888889 L94.7875,13.075 C94.7875,14.0333333 94.8511719,15.7583333 94.8511719,16.0777778 C94.8511719,16.9722222 95.0421875,17.2916667 95.296875,17.4194444 C95.5515625,17.5472222 95.8699219,17.5472222 96.7613281,17.5472222 C97.0796875,17.5472222 97.7800781,17.5472222 98.1621094,17.4833333 C98.5441406,17.4194444 99.0535156,17.2916667 99.4992188,16.9083333 C99.9449219,16.525 100.963672,15.4388889 101.282031,14.9916667 C101.345703,14.9277778 101.409375,14.9277778 101.473047,14.9277778 L101.791406,15.1194444 C101.855078,15.1833333 101.855078,15.1833333 101.855078,15.2472222 L101.091016,17.9305556 C101.027344,18.0583333 100.9,18.1861111 100.708984,18.1861111 C100.517969,18.1861111 99.1171875,18.1222222 93.0046875,18.1222222 C91.6675781,18.1222222 91.0945313,18.1861111 90.7761719,18.1861111 C90.6488281,18.1861111 90.6488281,18.1222222 90.6488281,17.9944444 L90.6488281,17.6111111 C90.6488281,17.4833333 90.7125,17.4833333 90.8398438,17.4833333 L91.3492188,17.4833333 C92.1769531,17.4833333 92.240625,17.3555556 92.240625,16.7166667 L92.240625,10.775 C92.240625,9.30555556 92.1769531,7.13333333 92.1769531,6.94166667 C92.1132813,6.36666667 91.9222656,6.23888889 91.4765625,6.23888889 L90.7761719,6.23888889 C90.7125,6.23888889 90.7125,6.175 90.7125,6.04722222 L90.7125,5.6 C90.7125,5.53611111 90.7125,5.47222222 90.8398437,5.47222222 C91.221875,5.47222222 91.8585937,5.53611111 93.4503906,5.53611111 L99.6265625,5.53611111 C99.88125,5.53611111 100.263281,5.47222222 100.326953,5.47222222 C100.390625,5.47222222 100.454297,5.53611111 100.454297,5.53611111 C100.517969,5.79166667 101.091016,8.21944444 101.154687,8.41111111 C101.218359,8.475 101.218359,8.53888889 101.091016,8.60277778 L100.836328,8.73055556 C100.772656,8.79444444 100.708984,8.73055556 100.645312,8.66666667 C100.581641,8.53888889 98.9898437,6.94166667 98.5441406,6.68611111 C98.1621094,6.43055556 97.6527344,6.23888889 97.2070312,6.23888889 L94.8511719,6.175 L94.8511719,11.4138889 L94.8511719,11.4138889 Z" fill-rule="nonzero"></path>
            <path d="M130.252734,16.525 C130.252734,16.7805556 130.316406,16.9722222 130.316406,17.1 C130.316406,17.2277778 130.189063,17.2916667 130.061719,17.3555556 C128.660938,18.0583333 127.132812,18.5055556 124.904297,18.5055556 C123.057813,18.5055556 121.020312,17.9305556 119.810547,16.4611111 C118.728125,15.2472222 118.21875,13.7138889 118.21875,11.6055556 C118.21875,10.0083333 118.982812,8.28333333 120.25625,7.13333333 C121.529687,5.98333333 123.121484,5.40833333 125.222656,5.40833333 C127.005469,5.40833333 128.342578,5.91944444 128.915625,6.30277778 C129.106641,6.43055556 129.233984,6.36666667 129.361328,6.23888889 L129.552344,5.98333333 C129.616016,5.85555556 129.679688,5.79166667 129.807031,5.79166667 C129.998047,5.79166667 130.061719,5.91944444 130.061719,6.11111111 L130.316406,9.75277778 C130.316406,9.94444444 130.316406,10.0722222 130.252734,10.0722222 L129.743359,10.2 C129.616016,10.2 129.616016,10.2 129.552344,10.0083333 C129.297656,9.11388889 128.724609,8.02777778 127.960547,7.325 C127.260156,6.68611111 126.36875,6.23888889 125.158984,6.23888889 C124.203906,6.23888889 123.3125,6.55833333 122.484766,7.58055556 C121.657031,8.53888889 121.083984,10.0083333 121.083984,11.6055556 C121.083984,13.7138889 121.657031,15.5027778 122.612109,16.4611111 C123.439844,17.2916667 124.140234,17.675 125.286328,17.675 C126.177734,17.675 126.687109,17.6111111 127.260156,17.2916667 C127.642187,17.1 127.642187,16.525 127.642187,15.6305556 L127.642187,14.3527778 C127.642187,13.7138889 127.451172,13.5222222 127.005469,13.5222222 L126.241406,13.5222222 C126.114062,13.5222222 126.114062,13.4583333 126.114062,13.3944444 L126.114062,12.9472222 C126.114062,12.8833333 126.114062,12.8194444 126.241406,12.8194444 C126.36875,12.8194444 127.260156,12.8833333 128.851953,12.8833333 C130.44375,12.8833333 131.144141,12.8194444 131.271484,12.8194444 C131.398828,12.8194444 131.398828,12.8833333 131.398828,12.9472222 L131.398828,13.3944444 C131.398828,13.5222222 131.398828,13.5222222 131.271484,13.5222222 L130.762109,13.5222222 C130.44375,13.5222222 130.189063,13.65 130.189063,14.1611111 L130.189063,16.525 L130.252734,16.525 L130.252734,16.525 Z" fill-rule="nonzero"></path>
            <path d="M137.383984,12.0527778 C137.702344,12.0527778 137.957031,12.0527778 138.084375,12.0527778 C140.440234,12.0527778 140.949609,9.81666667 140.949609,8.98611111 C140.949609,8.15555556 140.694922,7.38888889 140.249219,7.00555556 C139.6125,6.43055556 138.848438,6.23888889 138.275391,6.23888889 C137.957031,6.23888889 137.766016,6.30277778 137.575,6.36666667 C137.447656,6.43055556 137.447656,6.62222222 137.383984,6.81388889 L137.383984,12.0527778 L137.383984,12.0527778 Z M134.900781,10.1361111 C134.900781,8.79444444 134.900781,7.70833333 134.900781,7.19722222 C134.900781,6.62222222 134.646094,6.30277778 134.391406,6.30277778 L133.691016,6.30277778 C133.627344,6.30277778 133.563672,6.23888889 133.563672,6.175 L133.563672,5.72777778 C133.563672,5.66388889 133.563672,5.6 133.691016,5.6 C133.818359,5.6 134.391406,5.66388889 136.301563,5.66388889 C137.320313,5.66388889 138.848438,5.6 139.548828,5.6 C140.949609,5.6 141.968359,6.11111111 142.66875,6.75 C143.305469,7.325 143.6875,8.02777778 143.6875,8.66666667 C143.6875,10.9027778 142.032031,11.925 140.440234,12.0527778 L140.440234,12.1805556 C141.013281,12.3722222 141.267969,12.6916667 141.586328,13.1388889 C141.841016,13.3944444 142.796094,14.9916667 142.923438,15.1833333 C143.050781,15.3111111 144.005859,16.7166667 144.324219,17.1 C144.515234,17.3555556 145.215625,17.4833333 145.597656,17.4833333 C145.725,17.4833333 145.725,17.5472222 145.725,17.6111111 L145.725,18.0583333 C145.725,18.1861111 145.725,18.1861111 145.597656,18.1861111 C145.470313,18.1861111 145.024609,18.1222222 143.623828,18.1222222 C143.114453,18.1222222 142.477734,18.1861111 141.968359,18.1861111 C141.458984,17.8027778 140.376562,15.6944444 140.058203,15.1194444 C139.485156,13.9055556 138.721094,12.6277778 137.893359,12.6277778 L137.320313,12.6277778 L137.320313,13.5222222 C137.320313,14.5444444 137.383984,16.525 137.383984,16.7805556 C137.447656,17.1638889 137.575,17.4833333 137.829688,17.4833333 L138.530078,17.4833333 C138.657422,17.4833333 138.657422,17.5472222 138.657422,17.6111111 L138.657422,18.0583333 C138.657422,18.1861111 138.657422,18.1861111 138.402734,18.1861111 C138.402734,18.1861111 137.957031,18.1222222 136.110547,18.1222222 C134.264063,18.1222222 133.818359,18.1861111 133.627344,18.1861111 C133.5,18.1861111 133.5,18.1222222 133.5,17.9944444 L133.5,17.6111111 C133.5,17.5472222 133.5,17.4833333 133.563672,17.4833333 L134.073047,17.4833333 C134.455078,17.4833333 134.773438,17.3555556 134.773438,16.9083333 C134.837109,15.1833333 134.837109,13.5222222 134.837109,11.7972222 L134.837109,10.1361111 L134.900781,10.1361111 Z" fill-rule="nonzero"></path>
            <path d="M153.365625,12.6916667 C153.238281,12.1805556 152.155859,8.475 152.028516,8.02777778 C151.964844,7.77222222 151.901172,7.64444444 151.8375,7.64444444 C151.710156,7.64444444 151.710156,7.70833333 151.646484,7.9 C151.582812,8.15555556 150.054687,12.3083333 149.927344,12.7555556 L153.365625,12.7555556 L153.365625,12.6916667 L153.365625,12.6916667 Z M149.672656,13.3944444 C149.545312,13.7777778 148.653906,16.2055556 148.653906,16.7805556 C148.653906,17.1638889 148.78125,17.6111111 149.354297,17.6111111 L149.991016,17.6111111 C150.182031,17.6111111 150.182031,17.675 150.182031,17.7388889 L150.182031,18.1222222 C150.182031,18.25 150.182031,18.3138889 150.054688,18.3138889 C149.8,18.3138889 149.099609,18.25 147.635156,18.25 C146.361719,18.25 145.979687,18.3138889 145.725,18.3138889 C145.597656,18.3138889 145.597656,18.1861111 145.597656,18.0583333 L145.597656,17.7388889 C145.597656,17.6111111 145.597656,17.6111111 145.725,17.6111111 L146.170703,17.6111111 C146.616406,17.6111111 146.998437,17.3555556 147.380469,16.8444444 C147.635156,16.4611111 148.908594,13.3944444 149.481641,11.8611111 C149.608984,11.4777778 151.073437,7.70833333 151.200781,7.19722222 C151.264453,7.00555556 151.328125,6.81388889 151.200781,6.62222222 C151.137109,6.55833333 151.073437,6.49444444 151.073437,6.36666667 C151.073437,6.30277778 151.137109,6.23888889 151.264453,6.23888889 C151.8375,6.11111111 152.983594,5.66388889 153.238281,5.34444444 C153.301953,5.28055556 153.365625,5.21666667 153.492969,5.21666667 C153.620312,5.21666667 153.620312,5.34444444 153.683984,5.53611111 C154.002344,6.62222222 155.403125,10.6472222 155.721484,11.7333333 C156.103516,13.1388889 157.249609,16.3972222 157.504297,16.9083333 C157.822656,17.4833333 158.268359,17.675 158.523047,17.675 L159.096094,17.675 C159.223437,17.675 159.223437,17.7388889 159.223437,17.8027778 L159.223437,18.1222222 C159.223437,18.25 159.223437,18.3777778 159.096094,18.3777778 C158.777734,18.3777778 158.395703,18.3138889 156.103516,18.3138889 C154.639062,18.3138889 154.002344,18.3777778 153.683984,18.3777778 C153.492969,18.3777778 153.492969,18.25 153.492969,18.1222222 L153.492969,17.8027778 C153.492969,17.7388889 153.492969,17.675 153.620312,17.675 L154.129687,17.675 C154.575391,17.675 154.766406,17.4833333 154.639062,17.0361111 C154.511719,16.3972222 153.811328,14.1611111 153.556641,13.5222222 L149.672656,13.5222222 L149.672656,13.3944444 Z" fill-rule="nonzero"></path>
            <path d="M165.654297,14.9277778 C165.654297,15.6305556 165.717969,16.7805556 165.717969,16.9083333 C165.781641,17.4833333 166.036328,17.5472222 166.291016,17.5472222 L166.800391,17.5472222 C166.927734,17.5472222 166.927734,17.6111111 166.927734,17.675 L166.927734,18.1222222 C166.927734,18.25 166.927734,18.25 166.800391,18.25 C166.609375,18.25 165.908984,18.1861111 164.253516,18.1861111 C162.407031,18.1861111 161.897656,18.25 161.706641,18.25 C161.642969,18.25 161.579297,18.1861111 161.579297,18.0583333 L161.579297,17.6111111 C161.579297,17.5472222 161.579297,17.4833333 161.706641,17.4833333 L162.343359,17.4833333 C162.789062,17.4833333 162.916406,17.2916667 162.980078,17.1 C162.980078,16.8444444 163.04375,15.4388889 163.04375,13.7777778 L163.04375,13.0111111 C162.789063,12.4361111 159.923828,7.325 159.478125,6.68611111 C159.287109,6.43055556 158.841406,6.30277778 158.586719,6.30277778 L158.332031,6.30277778 C158.204688,6.30277778 158.204688,6.23888889 158.204688,6.175 L158.204688,5.66388889 C158.204688,5.6 158.204688,5.53611111 158.332031,5.53611111 C158.459375,5.53611111 159.350781,5.6 160.878906,5.6 C162.725391,5.6 163.362109,5.53611111 163.489453,5.53611111 C163.616797,5.53611111 163.616797,5.6 163.616797,5.66388889 L163.616797,6.11111111 C163.616797,6.175 163.616797,6.23888889 163.489453,6.23888889 L163.107422,6.23888889 C162.852734,6.23888889 162.661719,6.43055556 162.661719,6.68611111 C162.661719,7.00555556 164.762891,11.0305556 165.208594,12.1166667 C165.717969,11.1583333 167.882812,7.38888889 167.882812,6.87777778 C167.882812,6.55833333 167.564453,6.30277778 167.182422,6.30277778 L166.736719,6.30277778 C166.609375,6.30277778 166.609375,6.23888889 166.609375,6.175 L166.609375,5.72777778 C166.609375,5.66388889 166.609375,5.6 166.736719,5.6 C166.927734,5.6 167.628125,5.66388889 168.965234,5.66388889 C170.175,5.66388889 170.557031,5.6 170.748047,5.6 C170.875391,5.6 170.875391,5.66388889 170.875391,5.72777778 L170.875391,6.175 C170.875391,6.30277778 170.875391,6.30277778 170.748047,6.30277778 L170.429688,6.30277778 C170.238672,6.30277778 169.665625,6.43055556 169.410937,6.75 C169.15625,7.00555556 166.418359,11.5416667 165.717969,12.9472222 L165.654297,14.9277778 L165.654297,14.9277778 Z" fill-rule="nonzero"></path>
            <path d="M179.598437,11.7972222 C179.598437,12.0527778 179.598437,15.0555556 179.662109,16.1416667 C179.662109,16.525 179.725781,16.7805556 179.980469,17.1 C180.171484,17.4194444 180.808203,17.5472222 181.38125,17.5472222 C182.4,17.5472222 183.737109,17.0361111 184.692188,15.8222222 C185.392578,14.8638889 185.965625,13.4583333 185.965625,11.7972222 C185.965625,10.3277778 185.392578,8.85833333 184.564844,7.96388889 C183.609766,6.94166667 182.081641,6.36666667 181.062891,6.36666667 C180.553516,6.36666667 180.298828,6.36666667 180.044141,6.49444444 C179.789453,6.62222222 179.725781,6.87777778 179.662109,7.26111111 C179.662109,8.02777778 179.662109,10.3277778 179.662109,10.5833333 L179.662109,11.7972222 L179.598437,11.7972222 L179.598437,11.7972222 Z M176.987891,10.0722222 C176.987891,9.625 176.924219,7.06944444 176.924219,6.81388889 C176.860547,6.36666667 176.669531,6.30277778 176.351172,6.30277778 L175.459766,6.30277778 C175.396094,6.30277778 175.332422,6.30277778 175.332422,6.175 L175.332422,5.66388889 C175.332422,5.6 175.396094,5.6 175.459766,5.6 C175.714453,5.6 176.478516,5.66388889 178.197656,5.66388889 C178.643359,5.66388889 180.426172,5.6 180.808203,5.6 C183.227734,5.6 185.137891,5.79166667 186.793359,7.19722222 C187.939453,8.15555556 188.767188,9.625 188.767188,11.6694444 C188.767188,13.7138889 188.194141,15.0555556 187.048047,16.3333333 C185.328906,18.1861111 182.336328,18.1861111 181.190234,18.1861111 C180.935547,18.1861111 178.834375,18.1222222 177.879297,18.1222222 C176.351172,18.1222222 175.650781,18.1861111 175.396094,18.1861111 C175.332422,18.1861111 175.26875,18.1222222 175.26875,18.0583333 L175.26875,17.6111111 C175.26875,17.5472222 175.332422,17.4833333 175.396094,17.4833333 L176.2875,17.4833333 C176.605859,17.4833333 176.796875,17.3555556 176.860547,17.0361111 C176.924219,16.6527778 176.987891,12.6916667 176.987891,11.35 L176.987891,10.0722222 L176.987891,10.0722222 Z" fill-rule="nonzero"></path>
            <path d="M196.980859,12.6916667 C196.853516,12.1805556 195.771094,8.475 195.64375,8.02777778 C195.580078,7.77222222 195.516406,7.64444444 195.452734,7.64444444 C195.325391,7.64444444 195.325391,7.70833333 195.261719,7.9 C195.198047,8.15555556 193.669922,12.3083333 193.542578,12.7555556 L196.980859,12.7555556 L196.980859,12.6916667 Z M193.287891,13.3944444 C193.160547,13.7777778 192.269141,16.2055556 192.269141,16.7805556 C192.269141,17.1638889 192.396484,17.6111111 192.969531,17.6111111 L193.60625,17.6111111 C193.797266,17.6111111 193.797266,17.675 193.797266,17.7388889 L193.797266,18.1222222 C193.797266,18.25 193.797266,18.3138889 193.669922,18.3138889 C193.415234,18.3138889 192.714844,18.25 191.250391,18.25 C189.976953,18.25 189.594922,18.3138889 189.340234,18.3138889 C189.212891,18.3138889 189.212891,18.1861111 189.212891,18.0583333 L189.212891,17.7388889 C189.212891,17.6111111 189.212891,17.6111111 189.340234,17.6111111 L189.785937,17.6111111 C190.231641,17.6111111 190.613672,17.3555556 190.995703,16.8444444 C191.250391,16.4611111 192.523828,13.3944444 193.096875,11.8611111 C193.224219,11.4777778 194.688672,7.70833333 194.816016,7.19722222 C194.879687,7.00555556 194.943359,6.81388889 194.816016,6.62222222 C194.752344,6.55833333 194.688672,6.49444444 194.688672,6.36666667 C194.688672,6.30277778 194.752344,6.23888889 194.879687,6.23888889 C195.452734,6.11111111 196.598828,5.66388889 196.853516,5.34444444 C196.917187,5.28055556 196.980859,5.21666667 197.108203,5.21666667 C197.235547,5.21666667 197.235547,5.34444444 197.299219,5.53611111 C197.617578,6.62222222 199.018359,10.6472222 199.336719,11.7333333 C199.71875,13.1388889 200.864844,16.3972222 201.119531,16.9083333 C201.437891,17.4833333 201.883594,17.675 202.138281,17.675 L202.711328,17.675 C202.838672,17.675 202.838672,17.7388889 202.838672,17.8027778 L202.838672,18.1222222 C202.838672,18.25 202.838672,18.3777778 202.711328,18.3777778 C202.392969,18.3777778 202.010937,18.3138889 199.71875,18.3138889 C198.254297,18.3138889 197.617578,18.3777778 197.299219,18.3777778 C197.108203,18.3777778 197.108203,18.25 197.108203,18.1222222 L197.108203,17.8027778 C197.108203,17.7388889 197.108203,17.675 197.235547,17.675 L197.744922,17.675 C198.190625,17.675 198.381641,17.4833333 198.254297,17.0361111 C198.126953,16.3972222 197.426562,14.1611111 197.171875,13.5222222 L193.287891,13.5222222 L193.287891,13.3944444 L193.287891,13.3944444 Z" fill-rule="nonzero"></path>
            <path d="M209.269531,14.9277778 C209.269531,15.6305556 209.333203,16.7805556 209.333203,16.9083333 C209.396875,17.4833333 209.651563,17.5472222 209.90625,17.5472222 L210.415625,17.5472222 C210.542969,17.5472222 210.542969,17.6111111 210.542969,17.675 L210.542969,18.1222222 C210.542969,18.25 210.542969,18.25 210.415625,18.25 C210.224609,18.25 209.524219,18.1861111 207.86875,18.1861111 C206.022266,18.1861111 205.512891,18.25 205.321875,18.25 C205.258203,18.25 205.194531,18.1861111 205.194531,18.0583333 L205.194531,17.6111111 C205.194531,17.5472222 205.194531,17.4833333 205.321875,17.4833333 L205.958594,17.4833333 C206.404297,17.4833333 206.531641,17.2916667 206.595313,17.1 C206.595313,16.8444444 206.658984,15.4388889 206.658984,13.7777778 L206.658984,13.0111111 C206.404297,12.4361111 203.539063,7.325 203.093359,6.68611111 C202.902344,6.43055556 202.456641,6.30277778 202.201953,6.30277778 L201.947266,6.30277778 C201.819922,6.30277778 201.819922,6.23888889 201.819922,6.175 L201.819922,5.66388889 C201.819922,5.6 201.819922,5.53611111 201.947266,5.53611111 C202.074609,5.53611111 202.966016,5.6 204.494141,5.6 C206.340625,5.6 206.977344,5.53611111 207.104688,5.53611111 C207.232031,5.53611111 207.232031,5.6 207.232031,5.66388889 L207.232031,6.11111111 C207.232031,6.175 207.232031,6.23888889 207.104688,6.23888889 L206.722656,6.23888889 C206.467969,6.23888889 206.276953,6.43055556 206.276953,6.68611111 C206.276953,7.00555556 208.378125,11.0305556 208.823828,12.1166667 C209.333203,11.1583333 211.498047,7.38888889 211.498047,6.87777778 C211.498047,6.55833333 211.179688,6.30277778 210.797656,6.30277778 L210.351953,6.30277778 C210.224609,6.30277778 210.224609,6.23888889 210.224609,6.175 L210.224609,5.72777778 C210.224609,5.66388889 210.224609,5.6 210.351953,5.6 C210.542969,5.6 211.243359,5.66388889 212.580469,5.66388889 C213.790234,5.66388889 214.172266,5.6 214.363281,5.6 C214.490625,5.6 214.490625,5.66388889 214.490625,5.72777778 L214.490625,6.175 C214.490625,6.30277778 214.490625,6.30277778 214.363281,6.30277778 L214.044922,6.30277778 C213.853906,6.30277778 213.280859,6.43055556 213.026172,6.75 C212.771484,7.00555556 210.033594,11.5416667 209.333203,12.9472222 L209.269531,14.9277778 L209.269531,14.9277778 Z" fill-rule="nonzero"></path>
            <path d="M100.517969,15.0555556 C100.517969,12.1166667 102.364453,10.4555556 103.383203,10.0083333 C102.746484,9.11388889 102.491797,8.15555556 102.491797,7.06944444 C102.491797,5.21666667 103.892578,3.49166667 106.184766,3.49166667 C107.521875,3.49166667 108.540625,4.25833333 108.540625,5.47222222 C108.540625,6.55833333 107.649219,7.13333333 107.394531,7.13333333 C107.267188,7.13333333 107.267188,6.94166667 107.330859,6.68611111 C107.521875,5.66388889 106.694141,5.025 105.866406,5.025 C104.529297,5.025 103.510547,6.175 103.510547,7.83611111 C103.510547,8.53888889 103.701562,9.24166667 104.147266,9.81666667 C104.338281,9.75277778 104.656641,9.68888889 105.038672,9.68888889 C105.484375,9.68888889 106.312109,9.88055556 106.312109,10.2638889 C106.312109,10.8388889 105.99375,11.4138889 105.611719,11.4138889 C105.229687,11.4138889 104.401953,11.0944444 104.210937,10.9027778 C103.892578,10.6472222 103.765234,10.5833333 103.446875,10.775 C102.619141,11.35 102.046094,12.6277778 102.046094,14.0972222 C102.046094,17.1638889 104.720312,19.5916667 109.241016,19.5916667 C113.761719,19.5916667 116.117578,16.6527778 116.117578,14.2888889 C116.117578,12.3083333 114.589453,10.4555556 112.424609,10.4555556 C110.450781,10.4555556 110.132422,12.2444444 110.132422,12.7555556 C110.132422,13.9055556 110.705469,14.5444444 110.896484,14.5444444 C111.023828,14.5444444 111.0875,14.4166667 111.0875,14.1611111 C111.0875,13.8416667 111.405859,13.2027778 112.169922,13.2027778 C112.870312,13.2027778 113.316016,13.7138889 113.316016,14.4805556 C113.316016,14.9277778 112.933984,15.6944444 111.787891,15.6944444 C110.832812,15.6944444 109.177344,14.7361111 109.177344,12.6277778 C109.177344,10.9666667 110.387109,9.11388889 112.933984,9.11388889 C113.889062,9.11388889 115.098828,9.30555556 115.544531,9.30555556 C118.21875,9.30555556 119.492187,8.53888889 119.492187,7.13333333 C119.492187,6.23888889 118.728125,5.40833333 118.091406,5.40833333 C117.773047,5.40833333 117.773047,5.72777778 117.836719,5.98333333 C117.900391,6.30277778 117.645703,7.00555556 116.817969,7.00555556 C115.990234,7.00555556 115.735547,6.43055556 115.735547,6.11111111 C115.735547,5.08888889 116.690625,4.57777778 117.582031,4.57777778 C119.2375,4.57777778 120.383594,5.85555556 120.383594,7.19722222 C120.383594,9.49722222 118.855469,10.6472222 116.372266,10.9666667 C115.799219,11.0305556 115.735547,11.2222222 116.053906,11.6055556 C116.372266,12.1166667 116.945312,13.075 116.945312,14.8 C116.945312,19.0166667 113.252344,21.5083333 109.05,21.5083333 C102.237109,21.4444444 100.517969,17.6111111 100.517969,15.0555556 L100.517969,15.0555556 Z" fill-rule="nonzero"></path>
            <rect x="40" y="0" width="2" height="22"></rect>
            <path d="M17.5711604,5.47405132 C17.8738045,4.49756332 17.5711604,4.12829223 16.9878827,4.12829223 L16.2097475,4.12829223 C16.1016372,4.12829223 16.0365768,4.0850589 16.0585873,3.95503387 L16.1663739,3.43428361 C16.1883844,3.30393352 16.2311106,3.26005007 16.4473312,3.26005007 C16.7066017,3.26005007 17.4633738,3.32538765 19.4083882,3.32538765 C21.1591924,3.32538765 21.893954,3.26005007 22.1101746,3.26005007 C22.2830216,3.26005007 22.3260715,3.32538765 22.3043847,3.47719187 L22.2182849,3.95503387 C22.1965981,4.06327971 22.1318614,4.12829223 22.0017406,4.12829223 L21.3967761,4.12829223 C21.0073848,4.12829223 20.4244308,4.21508394 20.0997762,5.3004679 L18.3279325,11.0956836 C18.1981354,11.5735256 17.7009575,13.1793348 17.7009575,14.1561479 C17.7009575,16.7829786 19.9919896,17.0644828 20.6189646,17.0644828 C21.6563703,17.0644828 22.7585127,16.6744077 23.4499007,16.0879948 C24.4659433,15.2418569 25.1793418,14.0696812 25.849043,11.6599923 L27.4270002,6.10369755 C27.837431,4.67082168 27.5998473,4.12829223 26.9081356,4.12829223 L26.2167475,4.12829223 C26.0222137,4.12829223 26.0005269,4.06327971 26.0222137,3.95503387 L26.1083135,3.47719187 C26.1300003,3.32538765 26.1730503,3.26005007 26.3679077,3.26005007 C26.6275019,3.26005007 27.448687,3.32538765 28.8317868,3.32538765 C30.0850894,3.32538765 30.5822673,3.26005007 30.7984879,3.26005007 C30.9933454,3.26005007 31.0147085,3.32538765 30.9933454,3.47719187 L30.9286087,3.95503387 C30.9069219,4.06327971 30.8632246,4.12829223 30.6907013,4.12829223 L30.3663704,4.12829223 C29.6749824,4.12829223 29.2205307,4.77971765 28.8965235,5.84332242 L27.037609,11.8121216 C25.8707298,15.6761405 24.1416124,18.1937502 20.1434735,18.1937502 C17.3552635,18.1937502 15.2587653,16.9130036 15.2587653,14.2211604 C15.2587653,13.3096849 15.5827725,11.9639258 15.7125696,11.5081881 L17.5711604,5.47405132 Z M10.7200748,19.6913135 C10.5689146,20.4295307 10.1367971,21.6663938 9.85551613,22.2963651 C9.29360152,23.4464365 7.73765479,24.9004414 6.09463719,24.9004414 C4.08488615,24.9004414 3.30707463,23.9021743 3.30707463,22.8596985 C3.30707463,22.1006774 3.71750534,21.5145896 4.47427744,21.5145896 C5.27409944,21.5145896 5.40324917,22.1871441 5.40324917,22.42574 C5.40324917,22.6864402 5.31714935,23.0553862 5.20903905,23.1636321 C5.12229187,23.2510739 5.07924196,23.3593197 5.07924196,23.5329032 C5.07924196,23.9668617 5.57641986,24.2064328 6.02990048,24.2064328 C7.15405338,24.2064328 7.7590179,23.2939822 8.14840919,21.797069 C8.4076797,20.7763724 8.79642362,19.0619924 9.59592194,16.0662156 L9.46677221,16.0229823 C9.16412811,16.4351616 7.93218859,18.1937502 5.01450525,18.1937502 C2.03176152,18.1937502 0,16.0879948 0,12.3331969 C0,9.53310781 1.27563679,7.16730232 2.87495712,5.53906384 C4.08488615,4.3239799 5.96548746,3 8.96959431,3 C11.2175764,3 12.3624451,3.73789206 12.7948863,4.0850589 C13.0761673,4.30220071 13.2707011,4.34543403 13.3788114,4.34543403 C13.6380819,4.34543403 13.767879,4.12829223 13.8973524,3.65110035 C13.9190392,3.54252945 13.9837759,3.52075026 14.0918862,3.54252945 L14.4162171,3.62932116 C14.5026406,3.65110035 14.5673773,3.69433368 14.5456905,3.80290458 L13.3140746,8.16556952 C13.2707011,8.29591961 13.2270038,8.31737374 13.0761673,8.29591961 L12.7304732,8.25236123 C12.6220393,8.23058203 12.5573026,8.16556952 12.579313,8.03554448 C12.9463702,6.16871006 11.8872776,3.88969629 9.0777046,3.88969629 C7.6942812,3.88969629 6.13833447,4.36721323 4.62511396,6.36439774 C3.37148765,7.94842771 2.65841283,10.292454 2.65841283,12.9186346 C2.65841283,16.4790451 4.84165824,17.0436788 5.79231677,17.0436788 C8.3859929,17.0436788 9.6399429,14.8075733 9.72571903,13.5271518 C9.79077942,12.7021429 9.55319571,12.5285595 8.96959431,12.5285595 L8.2131459,12.5285595 C8.04062257,12.5285595 8.01861209,12.463547 8.061662,12.3110926 L8.14840919,11.8335757 C8.1697723,11.7038757 8.2131459,11.6599923 8.3859929,11.6599923 C8.7103238,11.6599923 9.46677221,11.7253299 11.3687366,11.7253299 C12.8382599,11.7253299 13.3568009,11.6599923 13.659445,11.6599923 C13.8112526,11.6599923 13.8759893,11.7253299 13.8543025,11.8335757 L13.7892421,12.3553012 C13.767879,12.4846761 13.7241817,12.5285595 13.5947083,12.5285595 L13.140904,12.5285595 C12.7304732,12.5285595 12.4275055,12.7021429 12.1468718,13.8522144 L10.7200748,19.6913135 Z"></path>
        </g>
    </g>
</svg>