<?xml version="1.0" encoding="UTF-8"?>
<svg width="486px" height="26px" viewBox="0 0 486 26" version="1.1" xmlns="http://www.w3.org/2000/svg" xmlns:xlink="http://www.w3.org/1999/xlink">
    <title>Georgetown University Blue and Gray Day</title>
    <g stroke="none" stroke-width="1" fill="none" fill-rule="evenodd">
        <g fill="#FFFFFF">
            <path d="M326.676563,15.375 C326.676563,17.0361111 327.060938,17.7388889 328.021875,17.7388889 C329.303125,17.7388889 330.45625,17.1 330.45625,14.9277778 C330.45625,13.5222222 329.815625,12.5638889 328.854688,12.1805556 C327.957813,11.8611111 327.125,11.8611111 326.676563,11.8611111 L326.676563,15.375 L326.676563,15.375 Z M326.676562,11.2222222 C327.38125,11.2861111 328.534375,11.1583333 329.046875,10.7111111 C329.623438,10.2 329.879688,9.36944444 329.879688,8.60277778 C329.879688,7.9 329.6875,7.19722222 329.175,6.81388889 C328.598438,6.36666667 327.701563,6.175 327.509375,6.175 C327.125,6.175 326.740625,6.175 326.740625,6.49444444 C326.676562,6.87777778 326.676562,8.41111111 326.676562,9.88055556 L326.676562,11.2222222 L326.676562,11.2222222 Z M324.05,10.5194444 C324.05,9.88055556 323.985937,7.70833333 323.985937,7.45277778 C323.921875,6.43055556 323.665625,6.36666667 323.089063,6.36666667 L322.5125,6.36666667 C322.384375,6.36666667 322.384375,6.36666667 322.384375,6.23888889 L322.384375,5.85555556 C322.384375,5.72777778 322.384375,5.72777778 322.5125,5.72777778 C322.76875,5.72777778 323.601562,5.79166667 325.267188,5.79166667 C325.84375,5.79166667 326.86875,5.72777778 328.085938,5.72777778 C329.367188,5.72777778 330.520313,5.85555556 331.096875,6.175 C332.121875,6.75 332.442188,7.51666667 332.442188,8.60277778 C332.442188,9.75277778 331.7375,10.9027778 329.879688,11.5416667 L329.879688,11.6055556 C332.057813,12.1805556 333.210938,13.2027778 333.210938,15.1194444 C333.210938,16.0777778 332.698438,17.3555556 331.801563,17.8027778 C331.096875,18.1861111 329.815625,18.4416667 327.6375,18.4416667 C327.509375,18.4416667 326.996875,18.3777778 326.548438,18.3777778 C326.035938,18.3138889 325.459375,18.3138889 325.139063,18.3138889 C324.242188,18.3138889 323.665625,18.3138889 323.28125,18.3138889 C322.896875,18.3138889 322.704688,18.3777778 322.576563,18.3777778 C322.384375,18.3777778 322.384375,18.3138889 322.384375,18.1861111 L322.384375,17.8027778 C322.384375,17.675 322.384375,17.675 322.576563,17.675 L323.217188,17.675 C323.729688,17.675 323.857813,17.4833333 323.921875,16.9083333 C323.985938,16.525 323.985938,14.1611111 323.985938,12.6916667 L323.985938,10.5194444 L324.05,10.5194444 L324.05,10.5194444 Z" fill-rule="nonzero"></path>
            <path d="M339.617188,12.6916667 C339.617188,13.0111111 339.617188,16.8444444 339.68125,17.5472222 L340.70625,17.5472222 C341.539063,17.5472222 342.307813,17.5472222 343.26875,17.4833333 C344.229688,17.4194444 345.446875,15.2472222 345.703125,14.6083333 C345.767188,14.4805556 345.83125,14.4805556 345.895313,14.4805556 L346.279688,14.6083333 C346.34375,14.6722222 346.34375,14.6722222 346.34375,14.7361111 C346.279688,14.8638889 345.575,17.8027778 345.446875,18.25 C344.998438,18.1861111 339.873438,18.1861111 338.271875,18.1861111 C336.542188,18.1861111 335.901563,18.25 335.645313,18.25 C335.517188,18.25 335.517188,18.1861111 335.517188,18.1222222 L335.517188,17.675 C335.517188,17.6111111 335.517188,17.5472222 335.645313,17.5472222 L336.221875,17.5472222 C336.8625,17.5472222 336.990625,17.2916667 336.990625,17.1 C336.990625,16.7805556 337.054688,12.3722222 337.054688,11.2861111 L337.054688,10.2638889 C337.054688,9.11388889 336.990625,7.26111111 336.990625,6.94166667 C336.926563,6.49444444 336.8625,6.30277778 336.478125,6.30277778 L335.8375,6.30277778 C335.709375,6.30277778 335.709375,6.23888889 335.709375,6.11111111 L335.709375,5.66388889 C335.709375,5.6 335.709375,5.53611111 335.8375,5.53611111 C336.029688,5.53611111 336.670313,5.6 338.271875,5.6 C340.321875,5.6 341.090625,5.53611111 341.282813,5.53611111 C341.410938,5.53611111 341.410938,5.6 341.410938,5.72777778 L341.410938,6.11111111 C341.410938,6.175 341.346875,6.23888889 341.21875,6.23888889 L340.385938,6.23888889 C339.809375,6.23888889 339.745313,6.43055556 339.745313,6.87777778 C339.745313,7.13333333 339.68125,9.75277778 339.68125,11.0305556 L339.617188,12.6916667 L339.617188,12.6916667 Z" fill-rule="nonzero"></path>
            <path d="M348.1375,7.26111111 C348.1375,6.62222222 348.009375,6.36666667 347.625,6.36666667 L346.792188,6.36666667 C346.664062,6.36666667 346.664062,6.30277778 346.664062,6.23888889 L346.664062,5.79166667 C346.664062,5.66388889 346.664062,5.66388889 346.792188,5.66388889 C346.984375,5.66388889 347.817187,5.72777778 349.675,5.72777778 C351.2125,5.72777778 352.109375,5.66388889 352.301562,5.66388889 C352.429688,5.66388889 352.429688,5.72777778 352.429688,5.79166667 L352.429688,6.23888889 C352.429688,6.30277778 352.429688,6.36666667 352.301562,6.36666667 L351.725,6.36666667 C351.148438,6.36666667 350.828125,6.68611111 350.764063,7.06944444 C350.764063,7.26111111 350.7,8.475 350.7,9.36944444 L350.7,10.5194444 C350.7,11.4777778 350.764063,13.7138889 350.764063,14.2888889 C350.764063,15.1194444 350.95625,15.8861111 351.340625,16.3972222 C351.917188,17.1 352.75,17.4194444 353.582812,17.4194444 C354.223437,17.4194444 355.184375,17.1 355.696875,16.6527778 C356.401563,16.0138889 356.785937,15.0555556 356.785937,13.7777778 L356.785937,11.0305556 C356.785937,9.56111111 356.59375,7.58055556 356.529688,7.19722222 C356.465625,6.75 356.145312,6.43055556 355.889063,6.43055556 L355.3125,6.43055556 C355.184375,6.43055556 355.184375,6.36666667 355.184375,6.30277778 L355.184375,5.85555556 C355.184375,5.79166667 355.184375,5.72777778 355.3125,5.72777778 C355.504687,5.72777778 356.3375,5.79166667 357.490625,5.79166667 C358.451562,5.79166667 359.028125,5.72777778 359.15625,5.72777778 C359.284375,5.72777778 359.348437,5.79166667 359.348437,5.85555556 L359.348437,6.23888889 C359.348437,6.36666667 359.348437,6.43055556 359.220313,6.43055556 L358.64375,6.43055556 C357.939063,6.43055556 357.939063,6.94166667 357.875,7.13333333 C357.810938,7.38888889 357.810938,9.81666667 357.810938,10.0722222 C357.810938,10.3277778 357.746875,13.3944444 357.746875,14.0972222 C357.61875,15.5666667 357.170313,16.6527778 356.209375,17.4833333 C355.440625,18.1861111 354.223437,18.5694444 353.070313,18.5694444 C352.2375,18.5694444 351.084375,18.4416667 350.379688,18.1222222 C349.546875,17.7388889 348.778125,16.9083333 348.329688,15.7583333 C348.009375,14.9916667 347.945313,13.8416667 347.945313,11.4777778 L347.945313,7.26111111 L348.1375,7.26111111 Z" fill-rule="nonzero"></path>
            <path d="M365.114063,11.4138889 C365.946875,11.4138889 366.715625,11.35 366.907813,11.2861111 C367.228125,11.2222222 367.484375,11.0305556 367.740625,10.7111111 C367.932813,10.4555556 368.125,9.94444444 368.125,9.625 C368.125,9.49722222 368.189063,9.49722222 368.253125,9.49722222 L368.701563,9.56111111 C368.765625,9.56111111 368.829688,9.625 368.829688,9.68888889 C368.765625,10.0083333 368.765625,10.9027778 368.765625,11.5416667 C368.765625,12.3083333 368.829688,13.2027778 368.89375,13.5861111 C368.89375,13.7138889 368.829688,13.7138889 368.765625,13.7138889 L368.317188,13.7777778 C368.253125,13.7777778 368.189063,13.7777778 368.189063,13.65 C368.125,13.3944444 367.932813,12.9472222 367.804688,12.7555556 C367.6125,12.4361111 367.164063,12.1805556 366.84375,12.1166667 C366.395313,12.0527778 365.81875,11.9888889 365.05,11.9888889 L365.05,13.075 C365.05,14.0333333 365.114063,15.7583333 365.114063,16.0777778 C365.114063,16.9722222 365.30625,17.2916667 365.5625,17.4194444 C365.81875,17.5472222 366.139063,17.5472222 367.035938,17.5472222 C367.35625,17.5472222 368.060938,17.5472222 368.445313,17.4833333 C368.829688,17.4194444 369.342188,17.2916667 369.790625,16.9083333 C370.239063,16.525 371.264063,15.4388889 371.584375,14.9916667 C371.648438,14.9277778 371.7125,14.9277778 371.776563,14.9277778 L372.096875,15.1194444 C372.160938,15.1833333 372.160938,15.1833333 372.160938,15.2472222 L371.392188,17.9305556 C371.328125,18.0583333 371.2,18.1861111 371.007813,18.1861111 C370.815625,18.1861111 369.40625,18.1222222 363.25625,18.1222222 C361.910938,18.1222222 361.334375,18.1861111 361.014063,18.1861111 C360.885938,18.1861111 360.885938,18.1222222 360.885938,17.9944444 L360.885938,17.6111111 C360.885938,17.4833333 360.95,17.4833333 361.078125,17.4833333 L361.590625,17.4833333 C362.423438,17.4833333 362.4875,17.3555556 362.4875,16.7166667 L362.4875,10.775 C362.4875,9.30555556 362.423438,7.13333333 362.423438,6.94166667 C362.359375,6.36666667 362.167188,6.23888889 361.71875,6.23888889 L361.014063,6.23888889 C360.95,6.23888889 360.95,6.175 360.95,6.04722222 L360.95,5.6 C360.95,5.53611111 360.95,5.47222222 361.078125,5.47222222 C361.4625,5.47222222 362.103125,5.53611111 363.704688,5.53611111 L369.91875,5.53611111 C370.175,5.53611111 370.559375,5.47222222 370.623438,5.47222222 C370.6875,5.47222222 370.751563,5.53611111 370.751563,5.53611111 C370.815625,5.79166667 371.392188,8.21944444 371.45625,8.41111111 C371.520313,8.475 371.520313,8.53888889 371.392188,8.60277778 L371.135938,8.73055556 C371.071875,8.79444444 371.007813,8.73055556 370.94375,8.66666667 C370.879687,8.53888889 369.278125,6.94166667 368.829688,6.68611111 C368.445312,6.43055556 367.932813,6.23888889 367.484375,6.23888889 L365.114062,6.175 L365.114063,11.4138889 L365.114063,11.4138889 Z" fill-rule="nonzero"></path>
            <path d="M400.732812,16.525 C400.732812,16.7805556 400.796875,16.9722222 400.796875,17.1 C400.796875,17.2277778 400.66875,17.2916667 400.540625,17.3555556 C399.13125,18.0583333 397.59375,18.5055556 395.351562,18.5055556 C393.49375,18.5055556 391.44375,17.9305556 390.226562,16.4611111 C389.1375,15.2472222 388.625,13.7138889 388.625,11.6055556 C388.625,10.0083333 389.39375,8.28333333 390.675,7.13333333 C391.95625,5.98333333 393.557813,5.40833333 395.671875,5.40833333 C397.465625,5.40833333 398.810937,5.91944444 399.3875,6.30277778 C399.579688,6.43055556 399.707812,6.36666667 399.835938,6.23888889 L400.028125,5.98333333 C400.092188,5.85555556 400.15625,5.79166667 400.284375,5.79166667 C400.476562,5.79166667 400.540625,5.91944444 400.540625,6.11111111 L400.796875,9.75277778 C400.796875,9.94444444 400.796875,10.0722222 400.732812,10.0722222 L400.220312,10.2 C400.092187,10.2 400.092187,10.2 400.028125,10.0083333 C399.771875,9.11388889 399.195312,8.02777778 398.426562,7.325 C397.721875,6.68611111 396.825,6.23888889 395.607812,6.23888889 C394.646875,6.23888889 393.75,6.55833333 392.917187,7.58055556 C392.084375,8.53888889 391.507812,10.0083333 391.507812,11.6055556 C391.507812,13.7138889 392.084375,15.5027778 393.045312,16.4611111 C393.878125,17.2916667 394.582812,17.675 395.735937,17.675 C396.632812,17.675 397.145312,17.6111111 397.721875,17.2916667 C398.10625,17.1 398.10625,16.525 398.10625,15.6305556 L398.10625,14.3527778 C398.10625,13.7138889 397.914062,13.5222222 397.465625,13.5222222 L396.696875,13.5222222 C396.56875,13.5222222 396.56875,13.4583333 396.56875,13.3944444 L396.56875,12.9472222 C396.56875,12.8833333 396.56875,12.8194444 396.696875,12.8194444 C396.825,12.8194444 397.721875,12.8833333 399.323438,12.8833333 C400.925,12.8833333 401.629687,12.8194444 401.757812,12.8194444 C401.885938,12.8194444 401.885938,12.8833333 401.885938,12.9472222 L401.885938,13.3944444 C401.885938,13.5222222 401.885938,13.5222222 401.757812,13.5222222 L401.245313,13.5222222 C400.925,13.5222222 400.66875,13.65 400.66875,14.1611111 L400.66875,16.525 L400.732812,16.525 L400.732812,16.525 Z" fill-rule="nonzero"></path>
            <path d="M407.907812,12.0527778 C408.228125,12.0527778 408.484375,12.0527778 408.6125,12.0527778 C410.982813,12.0527778 411.495313,9.81666667 411.495313,8.98611111 C411.495313,8.15555556 411.239063,7.38888889 410.790625,7.00555556 C410.15,6.43055556 409.38125,6.23888889 408.804688,6.23888889 C408.484375,6.23888889 408.292188,6.30277778 408.1,6.36666667 C407.971875,6.43055556 407.971875,6.62222222 407.907812,6.81388889 L407.907812,12.0527778 L407.907812,12.0527778 Z M405.409375,10.1361111 C405.409375,8.79444444 405.409375,7.70833333 405.409375,7.19722222 C405.409375,6.62222222 405.153125,6.30277778 404.896875,6.30277778 L404.192187,6.30277778 C404.128125,6.30277778 404.064062,6.23888889 404.064062,6.175 L404.064062,5.72777778 C404.064062,5.66388889 404.064062,5.6 404.192187,5.6 C404.320312,5.6 404.896875,5.66388889 406.81875,5.66388889 C407.84375,5.66388889 409.38125,5.6 410.085938,5.6 C411.495313,5.6 412.520313,6.11111111 413.225,6.75 C413.865625,7.325 414.25,8.02777778 414.25,8.66666667 C414.25,10.9027778 412.584375,11.925 410.982813,12.0527778 L410.982813,12.1805556 C411.559375,12.3722222 411.815625,12.6916667 412.135938,13.1388889 C412.392187,13.3944444 413.353125,14.9916667 413.48125,15.1833333 C413.609375,15.3111111 414.570312,16.7166667 414.890625,17.1 C415.082813,17.3555556 415.7875,17.4833333 416.171875,17.4833333 C416.3,17.4833333 416.3,17.5472222 416.3,17.6111111 L416.3,18.0583333 C416.3,18.1861111 416.3,18.1861111 416.171875,18.1861111 C416.04375,18.1861111 415.595313,18.1222222 414.185938,18.1222222 C413.673437,18.1222222 413.032812,18.1861111 412.520312,18.1861111 C412.007812,17.8027778 410.91875,15.6944444 410.598437,15.1194444 C410.021875,13.9055556 409.253125,12.6277778 408.420313,12.6277778 L407.84375,12.6277778 L407.84375,13.5222222 C407.84375,14.5444444 407.907813,16.525 407.907813,16.7805556 C407.971875,17.1638889 408.1,17.4833333 408.35625,17.4833333 L409.060938,17.4833333 C409.189063,17.4833333 409.189063,17.5472222 409.189063,17.6111111 L409.189063,18.0583333 C409.189063,18.1861111 409.189063,18.1861111 408.932813,18.1861111 C408.932813,18.1861111 408.484375,18.1222222 406.626563,18.1222222 C404.76875,18.1222222 404.320312,18.1861111 404.128125,18.1861111 C404,18.1861111 404,18.1222222 404,17.9944444 L404,17.6111111 C404,17.5472222 404,17.4833333 404.064063,17.4833333 L404.576563,17.4833333 C404.960938,17.4833333 405.28125,17.3555556 405.28125,16.9083333 C405.345313,15.1833333 405.345313,13.5222222 405.345313,11.7972222 L405.345313,10.1361111 L405.409375,10.1361111 Z" fill-rule="nonzero"></path>
            <path d="M423.9875,12.6916667 C423.859375,12.1805556 422.770312,8.475 422.642187,8.02777778 C422.578125,7.77222222 422.514062,7.64444444 422.45,7.64444444 C422.321875,7.64444444 422.321875,7.70833333 422.257812,7.9 C422.19375,8.15555556 420.65625,12.3083333 420.528125,12.7555556 L423.9875,12.7555556 L423.9875,12.6916667 L423.9875,12.6916667 Z M420.271875,13.3944444 C420.14375,13.7777778 419.246875,16.2055556 419.246875,16.7805556 C419.246875,17.1638889 419.375,17.6111111 419.951562,17.6111111 L420.592187,17.6111111 C420.784375,17.6111111 420.784375,17.675 420.784375,17.7388889 L420.784375,18.1222222 C420.784375,18.25 420.784375,18.3138889 420.65625,18.3138889 C420.4,18.3138889 419.695312,18.25 418.221875,18.25 C416.940625,18.25 416.55625,18.3138889 416.3,18.3138889 C416.171875,18.3138889 416.171875,18.1861111 416.171875,18.0583333 L416.171875,17.7388889 C416.171875,17.6111111 416.171875,17.6111111 416.3,17.6111111 L416.748437,17.6111111 C417.196875,17.6111111 417.58125,17.3555556 417.965625,16.8444444 C418.221875,16.4611111 419.503125,13.3944444 420.079687,11.8611111 C420.207812,11.4777778 421.68125,7.70833333 421.809375,7.19722222 C421.873437,7.00555556 421.9375,6.81388889 421.809375,6.62222222 C421.745312,6.55833333 421.68125,6.49444444 421.68125,6.36666667 C421.68125,6.30277778 421.745313,6.23888889 421.873437,6.23888889 C422.45,6.11111111 423.603125,5.66388889 423.859375,5.34444444 C423.923438,5.28055556 423.9875,5.21666667 424.115625,5.21666667 C424.24375,5.21666667 424.24375,5.34444444 424.307813,5.53611111 C424.628125,6.62222222 426.0375,10.6472222 426.357812,11.7333333 C426.742188,13.1388889 427.895312,16.3972222 428.151563,16.9083333 C428.471875,17.4833333 428.920312,17.675 429.176562,17.675 L429.753125,17.675 C429.88125,17.675 429.88125,17.7388889 429.88125,17.8027778 L429.88125,18.1222222 C429.88125,18.25 429.88125,18.3777778 429.753125,18.3777778 C429.432813,18.3777778 429.048437,18.3138889 426.742188,18.3138889 C425.26875,18.3138889 424.628125,18.3777778 424.307813,18.3777778 C424.115625,18.3777778 424.115625,18.25 424.115625,18.1222222 L424.115625,17.8027778 C424.115625,17.7388889 424.115625,17.675 424.24375,17.675 L424.75625,17.675 C425.204687,17.675 425.396875,17.4833333 425.26875,17.0361111 C425.140625,16.3972222 424.435937,14.1611111 424.179688,13.5222222 L420.271875,13.5222222 L420.271875,13.3944444 Z" fill-rule="nonzero"></path>
            <path d="M436.351562,14.9277778 C436.351562,15.6305556 436.415625,16.7805556 436.415625,16.9083333 C436.479688,17.4833333 436.735937,17.5472222 436.992188,17.5472222 L437.504687,17.5472222 C437.632812,17.5472222 437.632812,17.6111111 437.632812,17.675 L437.632812,18.1222222 C437.632812,18.25 437.632812,18.25 437.504687,18.25 C437.3125,18.25 436.607813,18.1861111 434.942187,18.1861111 C433.084375,18.1861111 432.571875,18.25 432.379687,18.25 C432.315625,18.25 432.251562,18.1861111 432.251562,18.0583333 L432.251562,17.6111111 C432.251562,17.5472222 432.251562,17.4833333 432.379687,17.4833333 L433.020312,17.4833333 C433.46875,17.4833333 433.596875,17.2916667 433.660937,17.1 C433.660937,16.8444444 433.725,15.4388889 433.725,13.7777778 L433.725,13.0111111 C433.46875,12.4361111 430.585938,7.325 430.1375,6.68611111 C429.945312,6.43055556 429.496875,6.30277778 429.240625,6.30277778 L428.984375,6.30277778 C428.85625,6.30277778 428.85625,6.23888889 428.85625,6.175 L428.85625,5.66388889 C428.85625,5.6 428.85625,5.53611111 428.984375,5.53611111 C429.1125,5.53611111 430.009375,5.6 431.546875,5.6 C433.404687,5.6 434.045312,5.53611111 434.173437,5.53611111 C434.301562,5.53611111 434.301562,5.6 434.301562,5.66388889 L434.301562,6.11111111 C434.301562,6.175 434.301562,6.23888889 434.173437,6.23888889 L433.789062,6.23888889 C433.532812,6.23888889 433.340625,6.43055556 433.340625,6.68611111 C433.340625,7.00555556 435.454687,11.0305556 435.903125,12.1166667 C436.415625,11.1583333 438.59375,7.38888889 438.59375,6.87777778 C438.59375,6.55833333 438.273438,6.30277778 437.889062,6.30277778 L437.440625,6.30277778 C437.3125,6.30277778 437.3125,6.23888889 437.3125,6.175 L437.3125,5.72777778 C437.3125,5.66388889 437.3125,5.6 437.440625,5.6 C437.632812,5.6 438.3375,5.66388889 439.682812,5.66388889 C440.9,5.66388889 441.284375,5.6 441.476562,5.6 C441.604687,5.6 441.604687,5.66388889 441.604687,5.72777778 L441.604687,6.175 C441.604687,6.30277778 441.604687,6.30277778 441.476562,6.30277778 L441.15625,6.30277778 C440.964062,6.30277778 440.3875,6.43055556 440.13125,6.75 C439.875,7.00555556 437.120312,11.5416667 436.415625,12.9472222 L436.351562,14.9277778 L436.351562,14.9277778 Z" fill-rule="nonzero"></path>
            <path d="M450.38125,11.7972222 C450.38125,12.0527778 450.38125,15.0555556 450.445313,16.1416667 C450.445313,16.525 450.509375,16.7805556 450.765625,17.1 C450.957813,17.4194444 451.598438,17.5472222 452.175,17.5472222 C453.2,17.5472222 454.545313,17.0361111 455.50625,15.8222222 C456.210938,14.8638889 456.7875,13.4583333 456.7875,11.7972222 C456.7875,10.3277778 456.210938,8.85833333 455.378125,7.96388889 C454.417188,6.94166667 452.879688,6.36666667 451.854688,6.36666667 C451.342188,6.36666667 451.085938,6.36666667 450.829687,6.49444444 C450.573438,6.62222222 450.509375,6.87777778 450.445312,7.26111111 C450.445312,8.02777778 450.445312,10.3277778 450.445312,10.5833333 L450.445312,11.7972222 L450.38125,11.7972222 L450.38125,11.7972222 Z M447.754688,10.0722222 C447.754688,9.625 447.690625,7.06944444 447.690625,6.81388889 C447.626563,6.36666667 447.434375,6.30277778 447.114063,6.30277778 L446.217188,6.30277778 C446.153125,6.30277778 446.089063,6.30277778 446.089063,6.175 L446.089063,5.66388889 C446.089063,5.6 446.153125,5.6 446.217188,5.6 C446.473438,5.6 447.242188,5.66388889 448.971875,5.66388889 C449.420313,5.66388889 451.214063,5.6 451.598438,5.6 C454.032813,5.6 455.954688,5.79166667 457.620313,7.19722222 C458.773438,8.15555556 459.60625,9.625 459.60625,11.6694444 C459.60625,13.7138889 459.029688,15.0555556 457.876563,16.3333333 C456.146875,18.1861111 453.135938,18.1861111 451.982813,18.1861111 C451.726563,18.1861111 449.6125,18.1222222 448.651563,18.1222222 C447.114063,18.1222222 446.409375,18.1861111 446.153125,18.1861111 C446.089063,18.1861111 446.025,18.1222222 446.025,18.0583333 L446.025,17.6111111 C446.025,17.5472222 446.089063,17.4833333 446.153125,17.4833333 L447.05,17.4833333 C447.370313,17.4833333 447.5625,17.3555556 447.626563,17.0361111 C447.690625,16.6527778 447.754688,12.6916667 447.754688,11.35 L447.754688,10.0722222 L447.754688,10.0722222 Z" fill-rule="nonzero"></path>
            <path d="M467.870313,12.6916667 C467.742187,12.1805556 466.653125,8.475 466.525,8.02777778 C466.460937,7.77222222 466.396875,7.64444444 466.332812,7.64444444 C466.204687,7.64444444 466.204687,7.70833333 466.140625,7.9 C466.076563,8.15555556 464.539063,12.3083333 464.410937,12.7555556 L467.870313,12.7555556 L467.870313,12.6916667 Z M464.154687,13.3944444 C464.026562,13.7777778 463.129687,16.2055556 463.129687,16.7805556 C463.129687,17.1638889 463.257812,17.6111111 463.834375,17.6111111 L464.475,17.6111111 C464.667187,17.6111111 464.667187,17.675 464.667187,17.7388889 L464.667187,18.1222222 C464.667187,18.25 464.667187,18.3138889 464.539062,18.3138889 C464.282812,18.3138889 463.578125,18.25 462.104687,18.25 C460.823437,18.25 460.439062,18.3138889 460.182812,18.3138889 C460.054687,18.3138889 460.054687,18.1861111 460.054687,18.0583333 L460.054687,17.7388889 C460.054687,17.6111111 460.054687,17.6111111 460.182812,17.6111111 L460.63125,17.6111111 C461.079687,17.6111111 461.464062,17.3555556 461.848437,16.8444444 C462.104687,16.4611111 463.385937,13.3944444 463.9625,11.8611111 C464.090625,11.4777778 465.564062,7.70833333 465.692187,7.19722222 C465.75625,7.00555556 465.820312,6.81388889 465.692187,6.62222222 C465.628125,6.55833333 465.564062,6.49444444 465.564062,6.36666667 C465.564062,6.30277778 465.628125,6.23888889 465.75625,6.23888889 C466.332812,6.11111111 467.485937,5.66388889 467.742187,5.34444444 C467.80625,5.28055556 467.870312,5.21666667 467.998437,5.21666667 C468.126562,5.21666667 468.126562,5.34444444 468.190625,5.53611111 C468.510937,6.62222222 469.920312,10.6472222 470.240625,11.7333333 C470.625,13.1388889 471.778125,16.3972222 472.034375,16.9083333 C472.354687,17.4833333 472.803125,17.675 473.059375,17.675 L473.635937,17.675 C473.764062,17.675 473.764062,17.7388889 473.764062,17.8027778 L473.764062,18.1222222 C473.764062,18.25 473.764062,18.3777778 473.635937,18.3777778 C473.315625,18.3777778 472.93125,18.3138889 470.625,18.3138889 C469.151562,18.3138889 468.510937,18.3777778 468.190625,18.3777778 C467.998437,18.3777778 467.998437,18.25 467.998437,18.1222222 L467.998437,17.8027778 C467.998437,17.7388889 467.998437,17.675 468.126562,17.675 L468.639062,17.675 C469.0875,17.675 469.279687,17.4833333 469.151562,17.0361111 C469.023437,16.3972222 468.31875,14.1611111 468.0625,13.5222222 L464.154687,13.5222222 L464.154687,13.3944444 L464.154687,13.3944444 Z" fill-rule="nonzero"></path>
            <path d="M480.234375,14.9277778 C480.234375,15.6305556 480.298438,16.7805556 480.298438,16.9083333 C480.3625,17.4833333 480.61875,17.5472222 480.875,17.5472222 L481.3875,17.5472222 C481.515625,17.5472222 481.515625,17.6111111 481.515625,17.675 L481.515625,18.1222222 C481.515625,18.25 481.515625,18.25 481.3875,18.25 C481.195313,18.25 480.490625,18.1861111 478.825,18.1861111 C476.967188,18.1861111 476.454688,18.25 476.2625,18.25 C476.198438,18.25 476.134375,18.1861111 476.134375,18.0583333 L476.134375,17.6111111 C476.134375,17.5472222 476.134375,17.4833333 476.2625,17.4833333 L476.903125,17.4833333 C477.351563,17.4833333 477.479688,17.2916667 477.54375,17.1 C477.54375,16.8444444 477.607813,15.4388889 477.607813,13.7777778 L477.607813,13.0111111 C477.351563,12.4361111 474.46875,7.325 474.020313,6.68611111 C473.828125,6.43055556 473.379688,6.30277778 473.123438,6.30277778 L472.867188,6.30277778 C472.739063,6.30277778 472.739063,6.23888889 472.739063,6.175 L472.739063,5.66388889 C472.739063,5.6 472.739063,5.53611111 472.867188,5.53611111 C472.995313,5.53611111 473.892188,5.6 475.429688,5.6 C477.2875,5.6 477.928125,5.53611111 478.05625,5.53611111 C478.184375,5.53611111 478.184375,5.6 478.184375,5.66388889 L478.184375,6.11111111 C478.184375,6.175 478.184375,6.23888889 478.05625,6.23888889 L477.671875,6.23888889 C477.415625,6.23888889 477.223438,6.43055556 477.223438,6.68611111 C477.223438,7.00555556 479.3375,11.0305556 479.785938,12.1166667 C480.298437,11.1583333 482.476563,7.38888889 482.476563,6.87777778 C482.476563,6.55833333 482.15625,6.30277778 481.771875,6.30277778 L481.323438,6.30277778 C481.195312,6.30277778 481.195312,6.23888889 481.195312,6.175 L481.195312,5.72777778 C481.195312,5.66388889 481.195312,5.6 481.323438,5.6 C481.515625,5.6 482.220312,5.66388889 483.565625,5.66388889 C484.782812,5.66388889 485.167188,5.6 485.359375,5.6 C485.4875,5.6 485.4875,5.66388889 485.4875,5.72777778 L485.4875,6.175 C485.4875,6.30277778 485.4875,6.30277778 485.359375,6.30277778 L485.039062,6.30277778 C484.846875,6.30277778 484.270312,6.43055556 484.014062,6.75 C483.757812,7.00555556 481.003125,11.5416667 480.298437,12.9472222 L480.234375,14.9277778 L480.234375,14.9277778 Z" fill-rule="nonzero"></path>
            <path d="M370.815625,15.0555556 C370.815625,12.1166667 372.673437,10.4555556 373.698438,10.0083333 C373.057813,9.11388889 372.801563,8.15555556 372.801563,7.06944444 C372.801563,5.21666667 374.210938,3.49166667 376.517188,3.49166667 C377.8625,3.49166667 378.8875,4.25833333 378.8875,5.47222222 C378.8875,6.55833333 377.990625,7.13333333 377.734375,7.13333333 C377.60625,7.13333333 377.60625,6.94166667 377.670313,6.68611111 C377.8625,5.66388889 377.029688,5.025 376.196875,5.025 C374.851562,5.025 373.826563,6.175 373.826563,7.83611111 C373.826563,8.53888889 374.01875,9.24166667 374.467188,9.81666667 C374.659375,9.75277778 374.979688,9.68888889 375.364062,9.68888889 C375.8125,9.68888889 376.645312,9.88055556 376.645312,10.2638889 C376.645312,10.8388889 376.325,11.4138889 375.940625,11.4138889 C375.55625,11.4138889 374.723437,11.0944444 374.53125,10.9027778 C374.210938,10.6472222 374.082812,10.5833333 373.7625,10.775 C372.929688,11.35 372.353125,12.6277778 372.353125,14.0972222 C372.353125,17.1638889 375.04375,19.5916667 379.592188,19.5916667 C384.140625,19.5916667 386.510938,16.6527778 386.510938,14.2888889 C386.510938,12.3083333 384.973438,10.4555556 382.795313,10.4555556 C380.809375,10.4555556 380.489062,12.2444444 380.489062,12.7555556 C380.489062,13.9055556 381.065625,14.5444444 381.257812,14.5444444 C381.385937,14.5444444 381.45,14.4166667 381.45,14.1611111 C381.45,13.8416667 381.770312,13.2027778 382.539062,13.2027778 C383.24375,13.2027778 383.692187,13.7138889 383.692187,14.4805556 C383.692187,14.9277778 383.307812,15.6944444 382.154688,15.6944444 C381.19375,15.6944444 379.528125,14.7361111 379.528125,12.6277778 C379.528125,10.9666667 380.745312,9.11388889 383.307812,9.11388889 C384.26875,9.11388889 385.485937,9.30555556 385.934375,9.30555556 C388.625,9.30555556 389.90625,8.53888889 389.90625,7.13333333 C389.90625,6.23888889 389.1375,5.40833333 388.496875,5.40833333 C388.176562,5.40833333 388.176562,5.72777778 388.240625,5.98333333 C388.304688,6.30277778 388.048437,7.00555556 387.215625,7.00555556 C386.382812,7.00555556 386.126562,6.43055556 386.126562,6.11111111 C386.126562,5.08888889 387.0875,4.57777778 387.984375,4.57777778 C389.65,4.57777778 390.803125,5.85555556 390.803125,7.19722222 C390.803125,9.49722222 389.265625,10.6472222 386.767187,10.9666667 C386.190625,11.0305556 386.126562,11.2222222 386.446875,11.6055556 C386.767187,12.1166667 387.34375,13.075 387.34375,14.8 C387.34375,19.0166667 383.628125,21.5083333 379.4,21.5083333 C372.545313,21.4444444 370.815625,17.6111111 370.815625,15.0555556 L370.815625,15.0555556 Z" fill-rule="nonzero"></path>
            <rect x="310" y="0" width="2" height="22"></rect>
            <path d="M172.660633,7.31320366 C172.660633,7.31320366 167.474982,11.4826385 169.12488,16.8001204 C169.12488,16.8001204 170.338619,20.5722747 175.016162,18.9903026 C175.016162,18.9903026 176.328663,18.3847737 177.10222,17.6107693 C177.876672,16.8367649 177.784167,17.646967 178.029953,18.1519468 C178.195301,18.4902385 178.583643,19.5623151 180.097689,19.4273559 C181.612181,19.2928436 182.79151,17.6764614 182.352223,17.1393059 C182.049682,16.7692853 181.578218,17.677802 181.208198,17.9133103 C180.838177,18.1483717 180.001162,18.1979759 179.833133,17.1218774 C179.665105,16.0448851 182.150231,9.56818419 182.150231,9.56818419 C182.150231,9.56818419 182.897422,7.66892393 183.78136,6.30637228 C184.296171,5.51270493 184.741269,5.36076411 185.246248,5.22669868 C186.784426,4.81869289 185.818261,4.35169831 185.381208,4.35169831 C184.943707,4.35169831 183.025231,4.0147472 182.183747,5.12570273 C181.342263,6.23621137 177.842708,15.2212765 177.842708,15.2212765 C177.842708,15.2212765 176.227667,18.5523555 173.131649,17.5432897 C170.036078,16.533777 171.099217,12.2722839 171.65112,11.116193 C171.91791,10.5584808 173.437318,7.82712114 175.352667,5.4286906 C176.656676,3.79577366 175.261502,4.61804163 173.78142,4.48263555 C172.300444,4.34812323 168.709725,3.59333486 167.219811,4.67300846 C165.474279,5.93813923 165.021585,8.08720807 166.536077,9.09672076 C168.050123,10.1062334 168.925123,8.25523674 168.35311,7.61619153 C167.766351,6.95971781 167.678314,7.63362003 166.873028,7.54871193 C166.233089,7.48167921 166.334085,5.89970714 167.848578,5.73167847 C169.36307,5.56320291 171.54923,6.07041712 172.880053,6.04896665 C174.230539,6.0270693 172.660633,7.31320366 172.660633,7.31320366 L172.660633,7.31320366 Z M292.491889,14.4897261 C292.706841,13.5459055 292.920898,13.1168961 293.221652,12.6449858 C293.521958,12.1301746 297.425944,6.6813086 297.769151,6.20984517 C298.198161,5.63068251 298.62717,5.28747501 299.356486,5.28747501 L299.742594,5.28747501 C299.871297,5.28747501 299.914198,5.24412719 299.914198,5.07297032 L300,4.64396095 C300,4.51525814 299.956652,4.42900938 299.785048,4.42900938 C299.485189,4.42945626 298.841228,4.49380767 297.511746,4.49380767 C296.310072,4.49380767 295.494955,4.42945626 295.194648,4.42945626 C294.98059,4.42900938 294.937689,4.4723572 294.937689,4.60106001 L294.894342,5.07297032 C294.851441,5.20167314 294.894342,5.28747501 295.023044,5.28747501 L295.495402,5.28747501 C296.224717,5.28747501 296.503574,5.60923204 296.224717,6.42434986 C296.010213,7.06741704 292.964246,11.5724624 292.66394,12.0443727 C292.491889,12.3446792 292.320285,12.3446792 292.234483,12.0014717 L290.518446,6.23084875 C290.389743,5.80183938 290.389743,5.28747501 291.076158,5.28747501 L291.63387,5.28747501 C291.762573,5.28747501 291.805921,5.24412719 291.848822,5.11542438 L291.891276,4.60106001 C291.891276,4.4723572 291.848822,4.42900938 291.677218,4.42900938 C291.419812,4.42945626 290.69005,4.49380767 288.845309,4.49380767 C287.129272,4.49380767 286.57156,4.42945626 286.271253,4.42945626 C286.14255,4.42900938 286.099649,4.4723572 286.057195,4.60106001 L285.970947,5.11542438 C285.970947,5.24412719 286.013847,5.28747501 286.14255,5.28747501 L286.614907,5.28747501 C287.344223,5.28747501 287.773233,5.58778157 287.94439,6.10214594 L290.175685,12.6878867 C290.26104,12.9452924 290.304388,13.5030046 290.218139,13.8033111 L289.531724,16.9779805 C289.403022,17.6000441 289.102715,18.0719544 288.115993,18.0719544 L287.64453,18.0719544 C287.472926,18.0719544 287.429578,18.1577563 287.429578,18.2435582 L287.344223,18.7154685 C287.344223,18.8866253 287.386677,18.9295263 287.51538,18.9295263 C287.773233,18.9295263 288.4163,18.8656218 290.346842,18.8656218 C292.063327,18.8656218 292.749295,18.9295263 293.092502,18.9295263 C293.264553,18.9295263 293.307007,18.8441713 293.307007,18.7154685 L293.393256,18.2435582 C293.393256,18.1577563 293.349908,18.0719544 293.221652,18.0719544 L292.749295,18.0719544 C292.020426,18.0719544 291.741123,17.9861525 291.977525,16.8707282 L292.491889,14.4897261 Z M276.751714,4.49336078 C274.520418,4.49336078 273.491243,4.32220392 273.062233,4.1935011 C272.890629,4.06435141 272.804381,4.02145047 272.718579,4.02145047 C272.589876,4.02145047 272.546975,4.10725234 272.504521,4.23595516 C272.46162,4.36465797 271.131244,7.36817048 270.873392,7.83963391 C270.830938,7.92588267 270.830938,8.01123766 270.917186,8.0541386 L271.259947,8.26909017 C271.346196,8.26909017 271.431551,8.26909017 271.517799,8.18284141 C272.032164,7.58267517 273.147588,6.3381011 273.898801,5.78038891 C274.391715,5.41528405 275.335983,5.30892548 277.309426,5.30892548 L277.867138,5.30892548 L274.563319,15.9054571 C274.070405,17.5137953 273.662399,18.0715075 272.46162,18.0715075 L271.903908,18.0715075 C271.731857,18.0715075 271.667953,18.1148553 271.646502,18.2435582 L271.603154,18.7154685 C271.581257,18.8441713 271.646502,18.9295263 271.796656,18.9295263 C272.010713,18.9295263 273.147588,18.8656218 275.249734,18.8656218 C277.266525,18.8656218 278.124544,18.9295263 278.42485,18.9295263 C278.575004,18.9295263 278.660806,18.8656218 278.682256,18.7154685 L278.767611,18.2864591 C278.789508,18.1577563 278.746161,18.0715075 278.638908,18.0715075 L277.780889,18.0715075 C276.665465,18.0715075 276.451407,17.6000441 276.880417,16.2482177 L280.269591,5.30892548 L280.6986,5.30892548 C281.685322,5.30892548 283.229755,5.50153281 283.701219,5.86619078 C284.001972,6.42390297 284.387634,7.75383204 284.559238,8.44024704 C284.645486,8.69809955 284.731288,8.78390142 284.859991,8.78390142 L285.203199,8.71910313 C285.331901,8.69809955 285.374355,8.65475173 285.374355,8.52604891 C285.331901,7.66803016 285.545959,4.5367086 285.589307,4.1935011 C285.589307,4.06435141 285.503505,4.02145047 285.417703,4.02145047 C285.331901,4.02145047 285.289,4.06435141 285.203199,4.10725234 C284.816643,4.32220392 284.044873,4.49336078 282.114331,4.49336078 L276.751714,4.49336078 Z M263.414438,16.5489711 C263.114131,17.6420513 262.985429,18.0715075 261.741301,18.0715075 L260.926184,18.0715075 C260.797481,18.0715075 260.75458,18.1148553 260.75458,18.2435582 L260.625877,18.7154685 C260.625877,18.8441713 260.668778,18.9295263 260.797481,18.9295263 C261.054886,18.9295263 262.170311,18.8656218 263.97215,18.8656218 C266.160098,18.8656218 267.14682,18.9295263 267.404225,18.9295263 C267.61873,18.9295263 267.61873,18.8866253 267.661631,18.7154685 L267.704532,18.2864591 C267.747433,18.1577563 267.704532,18.0715075 267.575829,18.0715075 L266.803612,18.0715075 C265.902692,18.0715075 265.580935,17.6420513 265.859791,16.6133225 L268.520096,6.72465642 C268.841407,5.5019797 269.334767,5.28747501 270.235687,5.28747501 L270.793399,5.28747501 C270.965003,5.28747501 271.007904,5.20167314 271.007904,5.11542438 L271.136607,4.686415 C271.179508,4.51525814 271.093706,4.42900938 270.879201,4.42900938 C270.578895,4.42945626 269.677975,4.49380767 267.832788,4.49380767 C266.117197,4.49380767 264.958872,4.42945626 264.701466,4.42945626 C264.529862,4.42900938 264.44406,4.4723572 264.44406,4.55771219 L264.315358,5.11542438 C264.315358,5.24412719 264.358259,5.28747501 264.529862,5.28747501 L265.516584,5.28747501 C266.074296,5.28747501 266.41795,5.63068251 266.117197,6.70320595 L263.414438,16.5489711 Z M261.613045,4.60106001 C261.613045,4.51525814 261.569698,4.4723572 261.441442,4.4723572 L261.184036,4.42900938 C261.011985,4.42900938 260.969085,4.42900938 260.969085,4.51525814 C260.88373,4.94426751 260.755027,5.24412719 260.626324,5.24412719 C260.497174,5.24412719 260.411372,5.20167314 260.326017,5.1587722 C259.982363,4.90136657 258.95274,4.17205064 257.794862,4.17205064 C255.005854,4.17205064 253.804628,6.4024525 253.804628,7.94688626 C253.804628,10.1567314 254.920052,11.2721558 256.250428,12.7303408 C257.193802,13.7604102 258.266772,14.575528 258.266772,15.9479111 C258.266772,17.1281338 257.322505,18.2002103 255.950122,18.2002103 C254.619746,18.2002103 252.946609,16.7420253 253.547669,13.6531578 C253.547669,13.524455 253.504321,13.4815541 253.418966,13.4382063 L253.075312,13.3528513 C252.946609,13.3528513 252.904155,13.3528513 252.861254,13.4382063 L251.273473,18.1148553 C251.230572,18.2864591 251.230572,18.2864591 251.359274,18.3289131 L251.61668,18.457616 C251.745383,18.5005169 251.788284,18.457616 251.831185,18.3718141 C252.002789,18.0719544 252.217293,17.7287469 252.346443,17.5571432 C252.475146,17.4284403 252.689204,17.3850925 252.904155,17.6000441 C253.590123,18.3718141 254.576845,19.1869319 255.950122,19.1869319 C258.180524,19.1869319 260.153967,17.7287469 260.153967,14.98264 C260.153967,12.6020849 258.738236,11.4008586 257.751514,10.4141371 C256.764793,9.42741549 255.821419,8.74100049 255.821419,7.23902079 C255.821419,6.31709751 256.507387,5.1587722 257.751514,5.1587722 C259.939462,5.1587722 260.197315,7.73282845 260.068165,8.5908472 C260.068165,8.71955002 260.111066,8.80535189 260.28267,8.80535189 L260.669225,8.80535189 C260.755027,8.80535189 260.797928,8.76245095 260.840382,8.67664908 L261.613045,4.60106001 Z M243.334118,5.20122625 C243.591523,5.1587722 243.849376,5.1587722 244.235484,5.1587722 C246.33763,5.1587722 246.980698,6.55305267 246.980698,7.45352547 C246.980698,8.99840611 245.993976,10.1991855 244.878552,10.6715427 C243.420367,11.2717089 242.304495,11.185907 241.446923,11.185907 L243.334118,5.20122625 Z M241.210968,11.9371203 C241.789684,11.9371203 242.733505,11.8084175 243.248763,12.9877464 C243.506168,13.5030046 245.39381,17.7072964 245.693669,18.2216608 C245.993976,18.7154685 246.080225,18.9295263 246.294283,18.9295263 C246.637937,18.9295263 247.023598,18.8656218 248.267726,18.8656218 C249.426051,18.8656218 249.769705,18.9295263 249.983763,18.9295263 C250.112913,18.9295263 250.155814,18.8441713 250.198715,18.7154685 L250.241169,18.2864591 C250.284517,18.1577563 250.241169,18.0715075 250.112913,18.0715075 L249.555201,18.0715075 C248.782984,18.0715075 248.267726,17.7287469 247.688563,16.8278272 C247.324352,16.2482177 245.86572,13.202698 245.73657,12.9877464 C245.522513,12.558737 245.179305,11.9156699 244.49289,11.7436192 L244.49289,11.6582642 C247.281451,11.3579577 249.555201,9.64147329 249.555201,7.53977423 C249.555201,4.57960954 246.33763,4.42900938 244.49289,4.42900938 C243.892277,4.42900938 241.661428,4.49336078 239.430579,4.49336078 C239.215628,4.49336078 239.173174,4.53626172 239.130273,4.66496453 L239.044471,5.11542438 C239.00157,5.24412719 239.044471,5.28747501 239.215628,5.28747501 L239.945391,5.28747501 C240.674707,5.28747501 240.803409,5.67313657 240.588905,6.35955157 L237.15683,17.0633355 C236.984779,17.600491 236.599118,18.0715075 236.084306,18.0715075 L235.526594,18.0715075 C235.35499,18.0715075 235.311643,18.1148553 235.311643,18.2435582 L235.226288,18.7154685 C235.183387,18.8441713 235.226288,18.9295263 235.35499,18.9295263 C235.612396,18.9295263 236.427067,18.8656218 237.929047,18.8656218 C239.77334,18.8656218 240.717608,18.9295263 240.975013,18.9295263 C241.103716,18.9295263 241.189071,18.8866253 241.231972,18.7579225 L241.27532,18.2435582 C241.317774,18.1577563 241.27532,18.0715075 241.146617,18.0715075 L240.245697,18.0715075 C239.644637,18.0715075 239.409129,17.685846 239.77334,16.5270738 L241.210968,11.9371203 Z M234.494737,15.0045374 C234.366034,14.9187355 234.280232,14.9616364 234.237332,15.0474383 C233.894124,15.4335467 232.735799,16.8921786 232.263888,17.2782871 C231.706176,17.771201 231.105563,18.0934049 230.376247,18.0934049 L225.571342,18.0934049 L227.673488,11.5934659 L228.746012,11.5934659 C230.290445,11.5934659 231.105563,11.829868 231.105563,13.3743017 C231.105563,13.5030046 231.105563,13.5459055 231.234266,13.5888064 L231.620374,13.5888064 C231.706176,13.5888064 231.749077,13.5888064 231.791978,13.4601036 C231.87778,12.6449858 232.564642,9.98512767 232.907402,9.17000986 C232.950303,9.12710892 232.907402,9.04086016 232.821601,9.04086016 L232.435939,8.91215735 C232.34969,8.91215735 232.306789,8.95550517 232.263888,9.04086016 C231.491672,10.7144436 230.655103,10.821696 229.732733,10.821696 L227.887993,10.821696 L229.689832,5.26557766 L233.036105,5.26557766 C233.164808,5.26557766 233.293511,5.30892548 233.422661,5.43762829 L235.610162,7.96878361 C235.738864,8.09748642 235.781765,8.14038736 235.867567,8.09748642 L236.124973,7.96878361 C236.253676,7.88298173 236.253676,7.88298173 236.210775,7.73238157 L235.567261,4.85846564 C235.481459,4.51525814 235.439005,4.42900938 235.09535,4.42900938 C234.859395,4.42900938 234.344584,4.45090673 233.486565,4.4723572 C232.628546,4.49380767 231.449218,4.49380767 229.904337,4.49380767 L228.359903,4.49380767 C227.845092,4.49380767 227.137226,4.4723572 226.515163,4.45090673 C225.91455,4.45090673 225.399738,4.42900938 225.271036,4.42900938 C225.099432,4.42900938 225.056531,4.4723572 225.01363,4.60106001 L224.884927,5.07297032 C224.842026,5.20167314 224.906378,5.28747501 225.01363,5.28747501 L225.700045,5.28747501 C226.343559,5.28747501 227.115329,5.58778157 226.751118,6.74566 L223.469196,16.9341858 C223.254692,17.6424981 222.825682,18.0715075 221.967663,18.0715075 L221.281248,18.0715075 C221.195447,18.0715075 221.152546,18.1148553 221.131095,18.2002103 L221.045293,18.7579225 C221.023843,18.8866253 221.066744,18.9295263 221.173996,18.9295263 C221.302699,18.9295263 221.645906,18.9080758 222.117817,18.8866253 C222.611177,18.8866253 223.233241,18.8656218 223.898206,18.8656218 L226.687213,18.8656218 C228.166849,18.8656218 229.711283,18.8656218 230.933959,18.8866253 C232.156636,18.9080758 233.036105,18.9295263 233.207709,18.9295263 C233.465562,18.9295263 233.593817,18.8866253 233.679619,18.5438647 L234.795044,15.4116494 C234.837945,15.2614961 234.795044,15.2190421 234.752143,15.1761411 L234.494737,15.0045374 Z M214.245495,14.9611895 C213.945635,15.347298 213.687782,15.3048439 213.773584,14.7471317 L215.253667,6.16649735 C215.361366,5.54443375 215.747027,5.28747501 216.433442,5.28747501 L217.034056,5.28747501 C217.205659,5.28747501 217.24856,5.24412719 217.270011,5.11542438 L217.334809,4.62206359 C217.377263,4.47191031 217.334809,4.42900938 217.119857,4.42900938 C216.862452,4.42945626 215.961532,4.49336078 214.416652,4.49336078 C212.572358,4.49336078 211.671438,4.42945626 211.371132,4.42945626 C211.199528,4.42900938 211.199528,4.47191031 211.156627,4.64351406 L211.027477,5.09397391 C210.98547,5.24412719 211.070825,5.28747501 211.242429,5.28747501 L211.928844,5.28747501 C212.615259,5.28747501 212.829764,5.80183938 212.743962,6.44535344 L211.049375,18.4790664 C210.963573,18.9943246 211.006474,19.2946311 211.349681,19.2946311 C211.649988,19.2946311 211.907394,19.0801264 212.036096,18.9080758 L221.195447,7.41107142 C222.032015,6.35955157 223.125989,5.28747501 223.855305,5.28747501 L224.327215,5.28747501 C224.455918,5.28747501 224.499266,5.20122625 224.54172,5.07252344 L224.606071,4.62206359 C224.627522,4.51481125 224.584621,4.42900938 224.370563,4.42900938 C224.11271,4.42945626 223.554551,4.49336078 222.310871,4.49336078 C221.152099,4.49336078 220.42323,4.42945626 220.122923,4.42945626 C219.908418,4.42900938 219.865964,4.47191031 219.865964,4.60061313 L219.758265,5.07252344 C219.736815,5.20122625 219.779269,5.28747501 219.994667,5.28747501 L220.423677,5.28747501 C221.023843,5.28747501 220.938041,6.03779453 220.165824,7.06741704 L214.245495,14.9611895 Z M202.74849,16.5489711 C202.447737,17.6420513 202.319034,18.0715075 201.075354,18.0715075 L200.260236,18.0715075 C200.131086,18.0715075 200.088632,18.1148553 200.088632,18.2435582 L199.959929,18.7154685 C199.959929,18.8441713 200.002383,18.9295263 200.131086,18.9295263 C200.388939,18.9295263 201.504363,18.8656218 203.305756,18.8656218 C205.493703,18.8656218 206.480425,18.9295263 206.738277,18.9295263 C206.952335,18.9295263 206.952335,18.8866253 206.995683,18.7154685 L207.038137,18.2864591 C207.080591,18.1577563 207.038137,18.0715075 206.909434,18.0715075 L206.137664,18.0715075 C205.236298,18.0715075 204.914988,17.6420513 205.193844,16.6133225 L207.853702,6.72465642 C208.175012,5.5019797 208.66882,5.28747501 209.569739,5.28747501 L210.127452,5.28747501 C210.298608,5.28747501 210.341509,5.20167314 210.341509,5.11542438 L210.470212,4.686415 C210.51356,4.51525814 210.427311,4.42900938 210.212807,4.42900938 C209.9125,4.42945626 209.01158,4.49380767 207.167287,4.49380767 C205.451249,4.49380767 204.292477,4.42945626 204.035518,4.42945626 C203.863468,4.42900938 203.778113,4.4723572 203.778113,4.55771219 L203.648963,5.11542438 C203.648963,5.24412719 203.691417,5.28747501 203.863468,5.28747501 L204.850189,5.28747501 C205.407902,5.28747501 205.751556,5.63068251 205.451249,6.70320595 L202.74849,16.5489711 Z M195.584034,18.4366124 C195.712737,18.7364721 195.927241,18.8656218 196.141746,18.8656218 C196.270449,18.8227208 196.442052,18.6506702 196.570755,18.3079096 L200.517642,7.0245161 C200.946651,5.80183938 201.37566,5.28747501 201.890472,5.28747501 L202.448184,5.28747501 C202.576887,5.28747501 202.619787,5.24412719 202.619787,5.11542438 L202.705589,4.72976282 C202.74849,4.55771219 202.705589,4.42900938 202.491085,4.42900938 C202.190778,4.42945626 201.761769,4.49380767 200.646344,4.49380767 C199.144365,4.49380767 198.45795,4.42945626 198.200991,4.42945626 C198.072288,4.42900938 198.029387,4.51525814 197.986486,4.60106001 L197.943585,5.07297032 C197.900237,5.24412719 197.943585,5.28747501 198.15809,5.28747501 L198.801604,5.28747501 C199.53092,5.28747501 199.702077,5.97344313 199.144812,7.71137798 L196.871062,14.6613299 C196.699458,15.1761411 196.613656,15.2190421 196.442052,14.9616364 L191.680048,5.05151986 C191.551346,4.75121329 191.422643,4.49380767 191.036534,4.49380767 C188.505379,4.49380767 187.64736,4.42900938 187.389955,4.42900938 C187.218351,4.42900938 187.175003,4.51525814 187.132549,4.64396095 L187.046747,5.03006939 C187.003399,5.20167314 187.046747,5.28747501 187.218351,5.28747501 L188.033469,5.28747501 C188.934388,5.28747501 189.384848,5.88808814 188.976842,7.1536658 L186.360332,15.4335467 C185.716818,17.3421916 185.202007,18.0715075 184.214391,18.0715075 L183.743375,18.0715075 C183.614225,18.0715075 183.571771,18.1577563 183.52887,18.2435582 L183.464519,18.694018 C183.443068,18.8441713 183.485522,18.9295263 183.614225,18.9295263 C183.872078,18.9295263 184.558493,18.8656218 186.060026,18.8656218 C187.518657,18.8656218 188.41913,18.9295263 188.634082,18.9295263 C188.84814,18.9295263 188.84814,18.8866253 188.891487,18.7364721 L188.976842,18.2864591 C188.976842,18.1577563 188.934388,18.0715075 188.762785,18.0715075 L187.947667,18.0715075 C187.046747,18.0715075 186.960945,17.0633355 187.690261,14.6184289 L189.834861,7.45397236 C189.878209,7.19656673 190.049813,7.19656673 190.178516,7.41107142 L195.584034,18.4366124 Z M133.442473,16.7205749 C133.442473,18.4790664 134.922555,19.4233339 136.445538,19.4233339 C139.577307,19.4233339 141.507849,17.0208814 142.623273,15.0474383 C143.717247,13.1812475 144.639617,10.3926866 145.132978,7.66803016 C145.197329,7.32526955 145.326032,7.34627313 145.368933,7.53977423 C146.420006,11.7869671 148.371999,16.5270738 150.795902,19.7236405 C152.061926,21.3967771 154.871491,24.8503025 159.225936,24.8503025 C161.693187,24.8503025 162.830062,23.6490763 163.194273,23.2415174 C163.580381,22.8335116 163.838234,22.1904444 163.838234,21.9115883 C163.838234,21.5893844 163.68808,21.1818255 163.21617,21.1818255 C162.787161,21.1818255 162.507858,21.6112818 162.2938,22.5546555 C162.122196,23.262521 161.349532,23.7348782 160.256005,23.7348782 C156.523177,23.7348782 153.391855,19.7665414 152.297435,17.8999038 C152.08293,17.5356927 151.718272,17.0852328 152.061926,15.5189017 C153.434309,9.36306408 155.107446,7.0888675 156.587528,6.01679095 C157.273943,5.52298328 157.702953,5.43762829 158.110512,5.43762829 C158.410818,5.43762829 158.775476,5.67313657 158.883175,5.93098908 C159.054332,6.1883947 159.376089,6.53115532 159.826549,6.53115532 C160.362811,6.53115532 160.878069,6.05969189 160.878069,5.45907876 C160.878069,4.75121329 160.277456,4 158.990428,4 C158.110512,4 157.080889,4.21495157 155.986915,5.07297032 C153.605913,6.89626017 152.233083,11.0357538 151.289263,15.2833935 C151.203461,15.6905055 151.096208,15.8840066 150.946055,15.626601 C149.78773,13.7604102 147.792836,8.26909017 147.06352,4.98672156 C146.977718,4.64396095 146.849016,4.49380767 146.441457,4.49380767 C142.580372,4.49380767 140.435325,4.32220392 138.890892,5.41573094 C137.88272,6.14549376 137.410809,7.30381908 137.410809,8.39779299 C137.410809,9.42741549 138.054323,10.2425333 138.80509,10.2425333 C139.470054,10.2425333 139.877613,9.79207346 139.877613,9.32016314 C139.877613,8.84825283 139.577307,8.46214439 138.912342,8.35444516 C138.461882,8.22574235 138.311729,7.75427892 138.311729,7.49642641 C138.311729,6.98206205 139.148297,6.4024525 140.027766,6.14549376 C141.250443,5.75938532 142.47312,5.78083579 143.781598,5.78083579 C144.253509,5.78083579 144.510914,5.93098908 144.510914,6.42434986 C144.510914,8.54794627 142.816327,13.2241485 141.293344,15.3477449 C140.349523,16.6343261 138.612036,18.2650086 136.55279,18.2650086 C135.351564,18.2650086 135.029807,17.7930983 135.115609,17.3850925 C135.222861,16.9131822 135.823475,16.6133225 135.823475,15.9912589 C135.823475,15.2614961 135.330114,14.9616364 134.772402,14.9616364 C134.193239,14.9616364 133.442473,15.5622496 133.442473,16.7205749 L133.442473,16.7205749 Z M122.82449,6.42434986 C122.975091,5.54443375 123.27495,5.28747501 123.961812,5.28747501 L124.30502,5.28747501 C124.476177,5.28747501 124.519524,5.20122625 124.519524,5.11542438 L124.605326,4.62206359 C124.64778,4.4723572 124.605326,4.42900938 124.390822,4.42900938 C124.132969,4.42945626 123.317851,4.49336078 121.987922,4.49336078 C120.572191,4.49336078 119.714173,4.42945626 119.499668,4.42945626 C119.328064,4.42900938 119.285163,4.4723572 119.242709,4.60106001 L119.178358,5.09397391 C119.15646,5.24412719 119.199361,5.28747501 119.371412,5.28747501 L119.886223,5.28747501 C120.358133,5.28747501 120.443935,5.67313657 120.358133,6.4024525 L118.834703,18.3937114 C118.749348,18.9943246 118.856154,19.2946311 119.13501,19.2946311 C119.478217,19.2946311 119.692722,19.0367786 119.950575,18.7364721 C120.743795,17.8145488 126.535422,9.7701761 126.749926,9.46986954 C126.921977,9.25581174 127.093134,9.25581174 127.05068,9.51321736 L126.428616,18.5224143 C126.385268,18.9943246 126.47107,19.2946311 126.814278,19.2946311 C127.157485,19.2946311 127.415338,18.9514236 127.694194,18.6077692 C128.616564,17.4708944 131.426575,13.3314008 132.026742,12.3446792 C132.542,11.4866605 135.75957,6.16694423 135.974075,5.86663767 C136.317282,5.41573094 136.703391,5.28747501 137.089499,5.28747501 L137.475608,5.28747501 C137.561409,5.28747501 137.603863,5.24412719 137.647211,5.11542438 L137.733013,4.57960954 C137.754464,4.4723572 137.690112,4.42900938 137.518508,4.42900938 C137.217755,4.42945626 136.660043,4.49336078 135.373015,4.49336078 C134.25759,4.49336078 133.742779,4.42945626 133.442473,4.42945626 C133.314217,4.42900938 133.227968,4.4723572 133.227968,4.64351406 L133.142613,5.09397391 C133.099265,5.24412719 133.185514,5.28747501 133.314217,5.28747501 L133.656977,5.28747501 C134.300938,5.28747501 134.343839,5.8451872 134.150338,6.4024525 C133.957731,6.98206205 133.013463,8.99795923 131.984288,10.7139967 C131.554831,11.4433127 129.453132,14.9182886 129.024123,15.3901989 C128.809618,15.6476045 128.680915,15.6051505 128.723369,15.2185952 L129.79634,6.29564704 C129.882142,5.54443375 130.096646,5.28747501 130.482308,5.28747501 L130.825515,5.28747501 C130.997566,5.28747501 131.04002,5.24412719 131.083368,5.11542438 L131.147719,4.60106001 C131.16917,4.4723572 131.125822,4.42900938 130.954665,4.42900938 C130.696813,4.42945626 130.1391,4.49336078 128.894973,4.49336078 C127.565044,4.49336078 127.007779,4.42945626 126.792827,4.42945626 C126.621223,4.42900938 126.578769,4.4723572 126.535422,4.55771219 L126.44962,5.13687485 C126.44962,5.24412719 126.492968,5.28747501 126.621223,5.28747501 L126.921977,5.28747501 C127.307638,5.28747501 127.479689,5.58778157 127.479689,6.01679095 C127.479689,6.46680391 127.222283,7.32482266 126.707472,8.09748642 C126.621223,8.22574235 121.859666,15.0898924 121.730517,15.2185952 C121.516012,15.4764477 121.344855,15.3901989 121.387309,15.1327933 L122.82449,6.42434986 Z M108.088465,6.78856094 C108.860682,5.88764125 109.890305,5.20122625 111.177333,5.20122625 C113.107875,5.20122625 114.179952,6.61695719 114.179952,8.76200407 C114.137498,13.3953053 111.348937,18.2002103 108.217168,18.2002103 C106.45823,18.2002103 105.042499,16.9560831 105.042499,14.2966719 C105.042499,11.9366734 106.329527,8.76200407 108.088465,6.78856094 L108.088465,6.78856094 Z M116.497049,10.4351406 C116.497049,6.48825438 114.094597,4.17205064 110.662075,4.17205064 C106.115022,4.17205064 102.854551,8.37589563 102.854551,12.8375931 C102.854551,14.7681353 103.412263,16.4841728 104.741745,17.771201 C106.071674,19.0582291 107.745258,19.1869319 108.60283,19.1869319 C113.451083,19.1869319 116.497049,14.7256813 116.497049,10.4351406 L116.497049,10.4351406 Z M94.2976014,4.49336078 C92.0671996,4.49336078 91.0371302,4.32220392 90.6081208,4.1935011 C90.4369639,4.06435141 90.3507152,4.02145047 90.2649133,4.02145047 C90.1362105,4.02145047 90.0937564,4.10725234 90.0504086,4.23595516 C90.0075077,4.36465797 88.6780255,7.36817048 88.420173,7.83963391 C88.377272,7.92588267 88.377272,8.01123766 88.4630739,8.0541386 L88.8062814,8.26909017 C88.8925302,8.26909017 88.9778852,8.26909017 89.063687,8.18284141 C89.5784983,7.58267517 90.6939227,6.3381011 91.4446891,5.78038891 C91.9380499,5.41528405 92.8818705,5.30892548 94.8553136,5.30892548 L95.4130258,5.30892548 L92.1096536,15.9054571 C91.6162928,17.5137953 91.2087339,18.0715075 90.0075077,18.0715075 L89.4502424,18.0715075 C89.2781917,18.0715075 89.2138403,18.1148553 89.1923899,18.2435582 L89.1494889,18.7154685 C89.1280384,18.8441713 89.1923899,18.9295263 89.3425431,18.9295263 C89.5570478,18.9295263 90.6939227,18.8656218 92.7960686,18.8656218 C94.8124127,18.8656218 95.6704314,18.9295263 95.970738,18.9295263 C96.1208913,18.9295263 96.2066931,18.8656218 96.2285905,18.7154685 L96.3139455,18.2864591 C96.335396,18.1577563 96.2929419,18.0715075 96.1852427,18.0715075 L95.3272239,18.0715075 C94.2117995,18.0715075 93.9972949,17.6000441 94.4263042,16.2482177 L97.8154783,5.30892548 L98.2444877,5.30892548 C99.2312092,5.30892548 100.775643,5.50153281 101.247553,5.86619078 C101.54786,6.42390297 101.934415,7.75383204 102.105572,8.44024704 C102.191374,8.69809955 102.277623,8.78390142 102.406326,8.78390142 L102.749086,8.71910313 C102.877789,8.69809955 102.921137,8.65475173 102.921137,8.52604891 C102.877789,7.66803016 103.092294,4.5367086 103.135641,4.1935011 C103.135641,4.06435141 103.04984,4.02145047 102.963591,4.02145047 C102.877789,4.02145047 102.835335,4.06435141 102.749086,4.10725234 C102.363425,4.32220392 101.591208,4.49336078 99.6606655,4.49336078 L94.2976014,4.49336078 Z M86.1231853,15.0045374 C85.9944825,14.9187355 85.9086806,14.9616364 85.8657797,15.0474383 C85.5225721,15.4335467 84.3642468,16.8921786 83.8923365,17.2782871 C83.3346243,17.771201 82.7340112,18.0934049 82.0046953,18.0934049 L77.1997903,18.0934049 L79.3019362,11.5934659 L80.3744596,11.5934659 C81.9188934,11.5934659 82.7340112,11.829868 82.7340112,13.3743017 C82.7340112,13.5030046 82.7340112,13.5459055 82.862714,13.5888064 L83.2488225,13.5888064 C83.3346243,13.5888064 83.3775253,13.5888064 83.4204262,13.4601036 C83.5062281,12.6449858 84.1926431,9.98512767 84.5358506,9.17000986 C84.5787515,9.12710892 84.5358506,9.04086016 84.4500487,9.04086016 L84.0639403,8.91215735 C83.9781384,8.91215735 83.9352375,8.95550517 83.8923365,9.04086016 C83.1201196,10.7144436 82.2835514,10.821696 81.3611812,10.821696 L79.5164409,10.821696 L81.3182803,5.26557766 L84.6645534,5.26557766 C84.7932562,5.26557766 84.921959,5.30892548 85.0506618,5.43762829 L87.2386097,7.96878361 C87.3673125,8.09748642 87.4102134,8.14038736 87.4960153,8.09748642 L87.7534209,7.96878361 C87.8821237,7.88298173 87.8821237,7.88298173 87.8392228,7.73238157 L87.1957087,4.85846564 C87.1099068,4.51525814 87.0670059,4.42900938 86.7237984,4.42900938 C86.4878432,4.42900938 85.973032,4.45090673 85.1150132,4.4723572 C84.2569945,4.49380767 83.0772187,4.49380767 81.532785,4.49380767 L79.9883512,4.49380767 C79.47354,4.49380767 78.7656745,4.4723572 78.1436109,4.45090673 C77.5429978,4.45090673 77.0281865,4.42900938 76.8994837,4.42900938 C76.7278799,4.42900938 76.684979,4.4723572 76.6420781,4.60106001 L76.5133753,5.07297032 C76.4704743,5.20167314 76.5348257,5.28747501 76.6420781,5.28747501 L77.3284931,5.28747501 C77.9720071,5.28747501 78.744224,5.58778157 78.379566,6.74566 L75.0976443,16.9341858 C74.8831396,17.6424981 74.4541303,18.0715075 73.5961115,18.0715075 L72.9096965,18.0715075 C72.8238946,18.0715075 72.7809937,18.1148553 72.7595432,18.2002103 L72.6737413,18.7579225 C72.6522909,18.8866253 72.6951918,18.9295263 72.8024442,18.9295263 C72.931147,18.9295263 73.2743545,18.9080758 73.7462648,18.8866253 C74.2396256,18.8866253 74.8616892,18.8656218 75.5266537,18.8656218 L78.3152146,18.8656218 C79.795297,18.8656218 81.3397307,18.8656218 82.5624075,18.8866253 C83.7850842,18.9080758 84.6645534,18.9295263 84.8361571,18.9295263 C85.0935628,18.9295263 85.2222656,18.8866253 85.3080675,18.5438647 L86.4234918,15.4116494 C86.4663928,15.2614961 86.4234918,15.2190421 86.3805909,15.1761411 L86.1231853,15.0045374 Z M70.9796012,14.897285 C71.2580104,13.7604102 71.558317,13.5888064 71.9663228,13.5888064 L72.4163357,13.5888064 C72.5450385,13.5888064 72.5879395,13.5459055 72.6093899,13.4167558 L72.6741882,12.9023914 C72.6951918,12.7951391 72.6308404,12.7303408 72.4806871,12.7303408 C72.1803806,12.7307877 71.6655693,12.7951391 70.2069374,12.7951391 C68.3192962,12.7951391 67.5685298,12.7307877 67.2467727,12.7307877 C67.075169,12.7303408 67.0322681,12.7736886 67.0108176,12.9023914 L66.9250157,13.3743017 C66.8821148,13.524455 66.9035652,13.5888064 67.075169,13.5888064 L67.8259354,13.5888064 C68.4050981,13.5888064 68.6410532,13.7604102 68.5767018,14.575528 C68.4908999,15.8411057 67.2467727,18.0496102 64.6727165,18.0496102 C63.7288959,18.0496102 61.5623985,17.491898 61.5623985,13.974468 C61.5623985,11.3794081 62.270264,9.06231063 63.5143912,7.49642641 C65.015924,5.52298328 66.5603577,5.05151986 67.9331877,5.05151986 C70.7217487,5.05151986 71.7728217,7.30381908 71.4086106,9.14855939 C71.3867132,9.27726221 71.4510646,9.34116673 71.558317,9.36306408 L71.9019714,9.40596502 C72.0516778,9.42741549 72.0945787,9.40596502 72.1374796,9.27726221 L73.3601564,4.9652711 C73.3820537,4.85846564 73.3172554,4.81511781 73.2319004,4.79366734 L72.9096965,4.70786547 C72.8024442,4.686415 72.7380928,4.70786547 72.7166423,4.81511781 C72.5879395,5.28747501 72.4596835,5.50153281 72.201831,5.50153281 C72.0945787,5.50153281 71.9019714,5.45907876 71.6226684,5.24412719 C71.1941059,4.90136657 70.0567842,4.17205064 67.8259354,4.17205064 C64.8443202,4.17205064 62.9781295,5.48052923 61.7769032,6.6813086 C60.1895685,8.29054064 58.9239909,10.6286417 58.9239909,13.3957522 C58.9239909,17.1066833 60.9403349,19.1869319 63.9004996,19.1869319 C66.7963129,19.1869319 68.0189896,17.4498908 68.3192962,17.0423319 L68.447999,17.084786 C67.6543317,20.0449506 67.2682232,21.7395377 67.0108176,22.7481566 C66.6247092,24.2282389 66.024096,25.1287118 64.9086716,25.1287118 C64.4582118,25.1287118 63.964851,24.8932035 63.964851,24.4641941 C63.964851,24.2925904 64.007752,24.185338 64.0935538,24.0995361 C64.2008062,23.9918369 64.2866081,23.6276258 64.2866081,23.3702202 C64.2866081,23.1338182 64.1579052,22.4693005 63.3642379,22.4693005 C62.6134715,22.4693005 62.2059126,23.0484632 62.2059126,23.7992296 C62.2059126,24.8279583 62.9781295,25.8151268 64.9730231,25.8151268 C66.6032587,25.8151268 68.1476924,24.3783922 68.7054046,23.2415174 C68.9842607,22.6194538 69.4132701,21.3967771 69.5634234,20.6674611 L70.9796012,14.897285 Z M50.9658669,5.20122625 C51.2232726,5.1587722 51.4806782,5.1587722 51.8667866,5.1587722 C53.9689326,5.1587722 54.6128935,6.55305267 54.6128935,7.45352547 C54.6128935,8.99840611 53.626172,10.1991855 52.5103007,10.6715427 C51.0516688,11.2717089 49.9362444,11.185907 49.0782257,11.185907 L50.9658669,5.20122625 Z M48.8422705,11.9371203 C49.4214332,11.9371203 50.3652538,11.8084175 50.8800651,12.9877464 C51.1374707,13.5030046 53.0251119,17.7072964 53.3254185,18.2216608 C53.626172,18.7154685 53.7115269,18.9295263 53.9260316,18.9295263 C54.2692391,18.9295263 54.6553476,18.8656218 55.8994748,18.8656218 C57.0578001,18.8656218 57.4010076,18.9295263 57.6155123,18.9295263 C57.7442151,18.9295263 57.7875629,18.8441713 57.830017,18.7154685 L57.8729179,18.2864591 C57.9158188,18.1577563 57.8729179,18.0715075 57.7442151,18.0715075 L57.1865029,18.0715075 C56.414286,18.0715075 55.8994748,17.7287469 55.320759,16.8278272 C54.9556541,16.2482177 53.4970223,13.202698 53.3683194,12.9877464 C53.1538148,12.558737 52.8106073,11.9156699 52.1241923,11.7436192 L52.1241923,11.6582642 C54.9127532,11.3579577 57.1865029,9.64147329 57.1865029,7.53977423 C57.1865029,4.57960954 53.9689326,4.42900938 52.1241923,4.42900938 C51.5235791,4.42900938 49.2927304,4.49336078 47.0618816,4.49336078 C46.8473769,4.49336078 46.804476,4.53626172 46.7615751,4.66496453 L46.6757732,5.11542438 C46.6328722,5.24412719 46.6757732,5.28747501 46.8473769,5.28747501 L47.5766929,5.28747501 C48.3060088,5.28747501 48.4347116,5.67313657 48.2202069,6.35955157 L44.7881319,17.0633355 C44.6165282,17.600491 44.2304197,18.0715075 43.7156085,18.0715075 L43.1578963,18.0715075 C42.9862926,18.0715075 42.9433916,18.1148553 42.9433916,18.2435582 L42.8575897,18.7154685 C42.8146888,18.8441713 42.8575897,18.9295263 42.9862926,18.9295263 C43.2436982,18.9295263 44.058816,18.8656218 45.5603488,18.8656218 C47.4050891,18.8656218 48.3489098,18.9295263 48.6063154,18.9295263 C48.7350182,18.9295263 48.8208201,18.8866253 48.863721,18.7579225 L48.9066219,18.2435582 C48.9495229,18.1577563 48.9066219,18.0715075 48.7779191,18.0715075 L47.8769994,18.0715075 C47.2763863,18.0715075 47.0404312,17.685846 47.4050891,16.5270738 L48.8422705,11.9371203 Z M35.0067182,6.78856094 C35.778935,5.88764125 36.8085575,5.20122625 38.0955857,5.20122625 C40.0261279,5.20122625 41.0990982,6.61695719 41.0990982,8.76200407 C41.0557504,13.3953053 38.2676363,18.2002103 35.135421,18.2002103 C33.3764825,18.2002103 31.9607516,16.9560831 31.9607516,14.2966719 C31.9607516,11.9366734 33.2477797,8.76200407 35.0067182,6.78856094 L35.0067182,6.78856094 Z M43.4157488,10.4351406 C43.4157488,6.48825438 41.0128494,4.17205064 37.5807744,4.17205064 C33.033275,4.17205064 29.7728038,8.37589563 29.7728038,12.8375931 C29.7728038,14.7681353 30.330516,16.4841728 31.660445,17.771201 C32.9903741,19.0582291 34.6635107,19.1869319 35.5219763,19.1869319 C40.3693354,19.1869319 43.4157488,14.7256813 43.4157488,10.4351406 L43.4157488,10.4351406 Z M27.134843,15.0045374 C27.0061402,14.9187355 26.9203383,14.9616364 26.8774374,15.0474383 C26.5342299,15.4335467 25.3759046,16.8921786 24.9039943,17.2782871 C24.3462821,17.771201 23.7456689,18.0934049 23.016353,18.0934049 L18.211448,18.0934049 L20.3135939,11.5934659 L21.3861174,11.5934659 C22.9305511,11.5934659 23.7456689,11.829868 23.7456689,13.3743017 C23.7456689,13.5030046 23.7456689,13.5459055 23.8743718,13.5888064 L24.2604802,13.5888064 C24.3462821,13.5888064 24.389183,13.5888064 24.4320839,13.4601036 C24.5178858,12.6449858 25.2043008,9.98512767 25.5475083,9.17000986 C25.5904093,9.12710892 25.5475083,9.04086016 25.4617064,9.04086016 L25.075598,8.91215735 C24.9897961,8.91215735 24.9468952,8.95550517 24.9039943,9.04086016 C24.1317774,10.7144436 23.2952091,10.821696 22.3728389,10.821696 L20.5280986,10.821696 L22.329938,5.26557766 L25.6762111,5.26557766 C25.8049139,5.26557766 25.9336168,5.30892548 26.0623196,5.43762829 L28.2502674,7.96878361 C28.3789702,8.09748642 28.4218711,8.14038736 28.507673,8.09748642 L28.7650786,7.96878361 C28.8937814,7.88298173 28.8937814,7.88298173 28.8508805,7.73238157 L28.2073664,4.85846564 C28.1215646,4.51525814 28.0786636,4.42900938 27.7354561,4.42900938 C27.499501,4.42900938 26.9846897,4.45090673 26.126671,4.4723572 C25.2686522,4.49380767 24.0888764,4.49380767 22.5444427,4.49380767 L21.0000089,4.49380767 C20.4851977,4.49380767 19.7773322,4.4723572 19.1552686,4.45090673 C18.5546555,4.45090673 18.0398442,4.42900938 17.9111414,4.42900938 C17.7395377,4.42900938 17.6966367,4.4723572 17.6537358,4.60106001 L17.525033,5.07297032 C17.4821321,5.20167314 17.5464835,5.28747501 17.6537358,5.28747501 L18.3401508,5.28747501 C18.9836649,5.28747501 19.7558817,5.58778157 19.3912238,6.74566 L16.1093021,16.9341858 C15.8947974,17.6424981 15.465788,18.0715075 14.6077692,18.0715075 L13.9213542,18.0715075 C13.8355524,18.0715075 13.7926514,18.1148553 13.771201,18.2002103 L13.6853991,18.7579225 C13.6639486,18.8866253 13.7068496,18.9295263 13.8141019,18.9295263 C13.9428047,18.9295263 14.2860122,18.9080758 14.7579225,18.8866253 C15.2512833,18.8866253 15.8733469,18.8656218 16.5383114,18.8656218 L19.3268724,18.8656218 C20.8069547,18.8656218 22.3513885,18.8656218 23.5740652,18.8866253 C24.7967419,18.9080758 25.6762111,18.9295263 25.8478149,18.9295263 C26.1052205,18.9295263 26.2339233,18.8866253 26.3197252,18.5438647 L27.4351496,15.4116494 C27.4780505,15.2614961 27.4351496,15.2190421 27.3922486,15.1761411 L27.134843,15.0045374 Z M10.6394325,20.6674611 C10.4892792,21.3967771 10.0602699,22.6194538 9.78141376,23.2415174 C9.22325469,24.3783922 7.67971471,25.8151268 6.0490322,25.8151268 C4.05458548,25.8151268 3.28192172,24.8279583 3.28192172,23.7992296 C3.28192172,23.0484632 3.68992752,22.4693005 4.44024704,22.4693005 C5.23436127,22.4693005 5.36306408,23.1338182 5.36306408,23.3702202 C5.36306408,23.6276258 5.27681532,23.9918369 5.17000986,24.0995361 C5.08420799,24.185338 5.04130705,24.2925904 5.04130705,24.4641941 C5.04130705,24.8932035 5.53466783,25.1287118 5.98423391,25.1287118 C7.10010517,25.1287118 7.70116518,24.2282389 8.08682673,22.7481566 C8.34467924,21.7395377 8.73034079,20.0449506 9.52445502,17.084786 L9.39575221,17.0423319 C9.09544565,17.4498908 7.87232204,19.1869319 4.97650876,19.1869319 C2.01634407,19.1869319 0,17.1066833 0,13.3957522 C0,10.6286417 1.26557766,8.29054064 2.85335923,6.6813086 C4.05458548,5.48052923 5.92077627,4.17205064 8.90239143,4.17205064 C11.1327933,4.17205064 12.270115,4.90136657 12.6991244,5.24412719 C12.9779805,5.45907876 13.1705878,5.50153281 13.2782871,5.50153281 C13.5356927,5.50153281 13.6639486,5.28747501 13.7930983,4.81511781 C13.8141019,4.70786547 13.8784533,4.686415 13.9861525,4.70786547 L14.3074627,4.79366734 C14.3937114,4.81511781 14.4580628,4.85846564 14.4361655,4.9652711 L13.2139357,9.27726221 C13.1705878,9.40596502 13.1281338,9.42741549 12.9779805,9.40596502 L12.634773,9.36306408 C12.5270738,9.34116673 12.4627224,9.27726221 12.4846197,9.14855939 C12.8492777,7.30381908 11.7982047,5.05151986 9.00919689,5.05151986 C7.63681377,5.05151986 6.09238002,5.52298328 4.5908472,7.49642641 C3.34672001,9.06231063 2.63885454,11.3794081 2.63885454,13.974468 C2.63885454,17.491898 4.80535189,18.0496102 5.74917252,18.0496102 C8.32322877,18.0496102 9.56690908,15.8411057 9.65271095,14.575528 C9.71706236,13.7604102 9.48155409,13.5888064 8.90239143,13.5888064 L8.15117814,13.5888064 C7.98002127,13.5888064 7.95812392,13.524455 8.00147174,13.3743017 L8.08682673,12.9023914 C8.10872408,12.7736886 8.15117814,12.7303408 8.32278189,12.7307877 C8.64453892,12.7307877 9.39530533,12.7951391 11.2829466,12.7951391 C12.7415785,12.7951391 13.2568366,12.7307877 13.5571432,12.7303408 C13.7072964,12.7303408 13.7716478,12.7951391 13.7501974,12.9023914 L13.685846,13.4167558 C13.6639486,13.5459055 13.6214946,13.5888064 13.4927917,13.5888064 L13.0423319,13.5888064 C12.634773,13.5888064 12.3340195,13.7604102 12.0556103,14.897285 L10.6394325,20.6674611 Z"></path>
        </g>
    </g>
</svg>