<?xml version="1.0" encoding="UTF-8"?>
<svg width="199px" height="25px" viewBox="0 0 199 25" version="1.1" xmlns="http://www.w3.org/2000/svg" xmlns:xlink="http://www.w3.org/1999/xlink">
    <title>Group 4</title>
    <g id="Board-of-Regents" stroke="none" stroke-width="1" fill="none" fill-rule="evenodd">
        <g id="mobile/nav/jumbo" transform="translate(-115.000000, -20.000000)" fill="#FFFFFF">
            <g id="Group-4" transform="translate(115.000000, 20.000000)">
                <rect id="Rectangle" x="40" y="0" width="2" height="22"></rect>
                <g id="logo/abbreviated-" transform="translate(0.000000, 3.000000)">
                    <path d="M17.5711604,2.47405132 C17.8738045,1.49756332 17.5711604,1.12829223 16.9878827,1.12829223 L16.2097475,1.12829223 C16.1016372,1.12829223 16.0365768,1.0850589 16.0585873,0.955033871 L16.1663739,0.434283612 C16.1883844,0.303933516 16.2311106,0.260050067 16.4473312,0.260050067 C16.7066017,0.260050067 17.4633738,0.325387646 19.4083882,0.325387646 C21.1591924,0.325387646 21.893954,0.260050067 22.1101746,0.260050067 C22.2830216,0.260050067 22.3260715,0.325387646 22.3043847,0.477191873 L22.2182849,0.955033871 C22.1965981,1.06327971 22.1318614,1.12829223 22.0017406,1.12829223 L21.3967761,1.12829223 C21.0073848,1.12829223 20.4244308,1.21508394 20.0997762,2.3004679 L18.3279325,8.09568364 C18.1981354,8.57352564 17.7009575,10.1793348 17.7009575,11.1561479 C17.7009575,13.7829786 19.9919896,14.0644828 20.6189646,14.0644828 C21.6563703,14.0644828 22.7585127,13.6744077 23.4499007,13.0879948 C24.4659433,12.2418569 25.1793418,11.0696812 25.849043,8.65999229 L27.4270002,3.10369755 C27.837431,1.67082168 27.5998473,1.12829223 26.9081356,1.12829223 L26.2167475,1.12829223 C26.0222137,1.12829223 26.0005269,1.06327971 26.0222137,0.955033871 L26.1083135,0.477191873 C26.1300003,0.325387646 26.1730503,0.260050067 26.3679077,0.260050067 C26.6275019,0.260050067 27.448687,0.325387646 28.8317868,0.325387646 C30.0850894,0.325387646 30.5822673,0.260050067 30.7984879,0.260050067 C30.9933454,0.260050067 31.0147085,0.325387646 30.9933454,0.477191873 L30.9286087,0.955033871 C30.9069219,1.06327971 30.8632246,1.12829223 30.6907013,1.12829223 L30.3663704,1.12829223 C29.6749824,1.12829223 29.2205307,1.77971765 28.8965235,2.84332242 L27.037609,8.81212158 C25.8707298,12.6761405 24.1416124,15.1937502 20.1434735,15.1937502 C17.3552635,15.1937502 15.2587653,13.9130036 15.2587653,11.2211604 C15.2587653,10.3096849 15.5827725,8.96392581 15.7125696,8.50818806 L17.5711604,2.47405132 Z M10.7200748,16.6913135 C10.5689146,17.4295307 10.1367971,18.6663938 9.85551613,19.2963651 C9.29360152,20.4464365 7.73765479,21.9004414 6.09463719,21.9004414 C4.08488615,21.9004414 3.30707463,20.9021743 3.30707463,19.8596985 C3.30707463,19.1006774 3.71750534,18.5145896 4.47427744,18.5145896 C5.27409944,18.5145896 5.40324917,19.1871441 5.40324917,19.42574 C5.40324917,19.6864402 5.31714935,20.0553862 5.20903905,20.1636321 C5.12229187,20.2510739 5.07924196,20.3593197 5.07924196,20.5329032 C5.07924196,20.9668617 5.57641986,21.2064328 6.02990048,21.2064328 C7.15405338,21.2064328 7.7590179,20.2939822 8.14840919,18.797069 C8.4076797,17.7763724 8.79642362,16.0619924 9.59592194,13.0662156 L9.46677221,13.0229823 C9.16412811,13.4351616 7.93218859,15.1937502 5.01450525,15.1937502 C2.03176152,15.1937502 0,13.0879948 0,9.3331969 C0,6.53310781 1.27563679,4.16730232 2.87495712,2.53906384 C4.08488615,1.3239799 5.96548746,0 8.96959431,0 C11.2175764,0 12.3624451,0.737892065 12.7948863,1.0850589 C13.0761673,1.30220071 13.2707011,1.34543403 13.3788114,1.34543403 C13.6380819,1.34543403 13.767879,1.12829223 13.8973524,0.651100355 C13.9190392,0.542529452 13.9837759,0.520750259 14.0918862,0.542529452 L14.4162171,0.629321162 C14.5026406,0.651100355 14.5673773,0.694333679 14.5456905,0.802904581 L13.3140746,5.16556952 C13.2707011,5.29591961 13.2270038,5.31737374 13.0761673,5.29591961 L12.7304732,5.25236123 C12.6220393,5.23058203 12.5573026,5.16556952 12.579313,5.03554448 C12.9463702,3.16871006 11.8872776,0.889696291 9.0777046,0.889696291 C7.6942812,0.889696291 6.13833447,1.36721323 4.62511396,3.36439774 C3.37148765,4.94842771 2.65841283,7.292454 2.65841283,9.91863461 C2.65841283,13.4790451 4.84165824,14.0436788 5.79231677,14.0436788 C8.3859929,14.0436788 9.6399429,11.8075733 9.72571903,10.5271518 C9.79077942,9.70214293 9.55319571,9.52855951 8.96959431,9.52855951 L8.2131459,9.52855951 C8.04062257,9.52855951 8.01861209,9.463547 8.061662,9.31109264 L8.14840919,8.83357571 C8.1697723,8.70387574 8.2131459,8.65999229 8.3859929,8.65999229 C8.7103238,8.65999229 9.46677221,8.72532987 11.3687366,8.72532987 C12.8382599,8.72532987 13.3568009,8.65999229 13.659445,8.65999229 C13.8112526,8.65999229 13.8759893,8.72532987 13.8543025,8.83357571 L13.7892421,9.35530116 C13.767879,9.48467606 13.7241817,9.52855951 13.5947083,9.52855951 L13.140904,9.52855951 C12.7304732,9.52855951 12.4275055,9.70214293 12.1468718,10.8522144 L10.7200748,16.6913135 Z" id="logo-abbreviated-"></path>
                </g>
                <path d="M56.087,17.183 C56.969,17.183 57.788,17.246 59.237,17.246 C61.169,17.246 62.366,17.036 63.248,16.49 C64.214,15.881 64.865,14.411 64.865,13.34 C64.865,11.114 63.5,9.854 61.463,9.182 L61.4,9.14 C63.038,8.279 63.962,7.754 63.962,5.675 C63.962,4.436 63.542,3.47 62.345,2.819 C61.61,2.399 60.266,2.252 58.628,2.252 C57.893,2.252 56.633,2.315 55.961,2.315 C54.449,2.315 53.504,2.252 53.168,2.252 C53.042,2.252 53,2.294 53,2.399 L53,2.924 C53,3.029 53.042,3.071 53.168,3.071 L53.819,3.071 C54.785,3.071 55.121,3.113 55.184,4.331 C55.205,4.709 55.247,7.271 55.247,8.048 L55.247,10.526 C55.247,11.00816 55.2437072,11.57264 55.2375826,12.1461423 L55.2316502,12.6382156 C55.2140384,13.9471856 55.18232,15.19388 55.142,15.503 C55.058,16.175 54.953,16.427 54.302,16.427 L53.294,16.427 C53.147,16.427 53.105,16.469 53.105,16.574 L53.105,17.12 C53.105,17.204 53.147,17.246 53.399,17.246 C53.798,17.246 55.037,17.183 56.087,17.183 Z M58.208,8.909 C57.851,8.909 57.494,8.909 57.095,8.867 L57.0955533,6.81400227 C57.099,5.2347619 57.118,3.703 57.137,3.323 C57.137,3.134 57.263,2.987 57.431,2.945 C57.599,2.903 57.83,2.924 58.124,2.924 C59.195,2.924 60.245,3.113 61.001,3.638 C61.778,4.205 62.03,5.045 62.03,5.843 C62.03,6.767 61.715,7.712 60.854,8.363 C60.35,8.72 59.405,8.909 58.208,8.909 Z M59.3,16.574 C57.557,16.574 57.095,15.713 57.095,13.781 L57.095,9.581 L57.767,9.581 C58.733,9.581 59.72,9.602 60.581,9.938 C61.82,10.421 62.681,11.534 62.681,13.235 C62.681,15.734 61.064,16.574 59.3,16.574 Z M71.291,17.435 C73.874,17.435 75.932,15.104 75.932,12.815 C75.932,11.45 75.449,10.358 74.504,9.392 C73.874,8.762 72.719,8.174 71.564,8.174 C70.871,8.174 69.842,8.342 68.75,9.182 C67.511,10.148 66.944,11.492 66.944,12.563 C66.944,14.054 67.133,14.831 68.099,15.986 C68.981,17.036 70.283,17.435 71.291,17.435 Z M71.543,16.805 C70.556,16.805 69.947,16.406 69.464,15.713 C68.792,14.747 68.666,13.949 68.666,12.773 C68.666,11.177 68.96,10.316 69.779,9.476 C70.283,8.93 70.829,8.804 71.396,8.804 C72.467,8.804 74.168,10.274 74.168,12.605 C74.168,14.852 73.139,16.805 71.543,16.805 Z M80.237,17.309 C81.182,16.994 81.875,16.553 82.316,16.028 L82.358,16.028 C82.547,16.889 83.093,17.435 83.849,17.435 C84.92,17.435 85.319,16.721 85.487,16.406 C85.613,16.196 85.571,16.091 85.508,16.028 L85.298,15.86 C85.214,15.797 85.172,15.839 85.088,15.944 C84.983,16.091 84.689,16.259 84.353,16.259 C83.975,16.259 83.723,15.881 83.723,14.684 L83.723,10.232 C83.723,9.665 83.702,9.182 83.261,8.741 C82.967,8.468 82.568,8.174 81.581,8.174 C80.636,8.174 79.901,8.384 79.019,8.909 C78.158,9.413 77.57,10.211 77.57,10.883 C77.57,11.366 77.738,11.555 78.074,11.555 C78.935,11.555 79.187,11.093 79.187,10.358 C79.187,9.98 78.998,9.665 79.292,9.392 C79.586,9.119 80.237,8.951 80.657,8.951 C81.266,8.951 81.686,9.14 81.917,9.413 C82.148,9.686 82.169,10.232 82.211,10.589 L82.211,11.933 C81.875,12.227 80.783,12.731 79.838,13.151 C78.179,13.886 77.738,14.726 77.738,15.692 C77.738,17.015 78.494,17.435 78.998,17.435 C79.46,17.435 79.838,17.435 80.237,17.309 Z M80.468,16.448 C79.838,16.448 79.376,16.07 79.376,15.293 C79.376,13.55 81.434,13.13 82.19,12.563 L82.19,15.146 C82.19,15.713 81.077,16.448 80.468,16.448 Z M88.574,17.183 C89.708,17.183 90.674,17.246 90.8,17.246 C90.884,17.246 90.905,17.183 90.905,17.057 L90.905,16.679 C90.905,16.553 90.884,16.49 90.758,16.49 L89.771,16.49 C89.33,16.49 89.183,16.28 89.183,15.629 L89.183,11.261 C89.183,11.198 89.267,10.82 89.393,10.589 C89.75,9.917 90.296,9.707 90.632,9.707 C90.905,9.707 91.157,9.77 91.325,9.875 C91.493,9.959 91.703,10.043 91.934,10.043 C92.312,10.043 92.816,9.623 92.816,9.014 C92.816,8.531 92.459,8.09 91.745,8.09 C90.842,8.09 89.855,8.951 89.225,9.917 L89.141,9.917 L89.036,8.426 C89.036,8.3 89.015,8.174 88.889,8.174 C88.805,8.174 88.721,8.195 88.595,8.258 L86.516,9.329 C86.39,9.392 86.348,9.434 86.348,9.518 L86.348,9.644 C86.348,9.728 86.39,9.749 86.516,9.791 L86.915,10.001 C87.503,10.316 87.671,10.526 87.671,11.597 L87.671,13.571 L87.670979,13.888205 L87.670979,13.888205 L87.670433,14.465915 C87.66911,15.10022 87.6647,15.6059 87.65,16.091 C87.65,16.364 87.503,16.49 87.188,16.49 L86.369,16.49 C86.18,16.49 86.138,16.532 86.138,16.679 L86.138,17.036 C86.138,17.204 86.18,17.246 86.264,17.246 C86.39,17.246 87.272,17.183 88.574,17.183 Z M97.373,17.435 C98.444,17.435 99.788,16.973 100.46,16.301 L100.733,17.225 C100.775,17.372 100.88,17.435 101.006,17.393 L103.379,16.595 C103.505,16.553 103.547,16.49 103.526,16.364 L103.484,16.196 C103.442,16.091 103.358,16.07 103.064,16.049 C102.77,16.028 102.329,15.902 102.14,15.692 C101.984,15.497 101.936643,14.6863571 101.930673,13.9494362 L101.930943,8.16765094 L101.930943,8.16765094 L101.932688,7.513424 C101.94008,5.3348 101.9636,3.218 102.014,2.378 C102.035,2.147 102.014,2 101.909,2 C101.762,2 101.615,2.042 101.426,2.063 C101.027,2.147 99.935,2.336 99.116,2.504 C98.99,2.525 98.948,2.567 98.948,2.651 L98.948,3.008 C98.948,3.092 98.969,3.134 99.095,3.155 C100.271,3.344 100.418,3.596 100.418,4.394 L100.418,8.489 C99.788,8.3 99.032,8.174 98.171,8.174 C96.995,8.174 95.861,8.615 95.042,9.497 C94.055,10.484 93.572,11.765 93.572,13.067 C93.572,14.474 93.824,15.419 94.895,16.469 C95.882,17.477 96.68,17.435 97.373,17.435 Z M98.003,16.532 C96.785,16.532 95.147,14.81 95.147,12.437 C95.147,11.639 95.294,10.526 96.113,9.644 C96.659,9.077 97.373,8.888 98.024,8.888 C99.263,8.888 99.935,9.455 100.229,10.022 C100.418,10.358 100.418,10.757 100.418,11.051 L100.418,14.663 C100.418,14.894 100.397,15.062 100.292,15.377 C100.082,15.923 99.179,16.532 98.003,16.532 Z M114.152,17.435 C116.735,17.435 118.793,15.104 118.793,12.815 C118.793,11.45 118.31,10.358 117.365,9.392 C116.735,8.762 115.58,8.174 114.425,8.174 C113.732,8.174 112.703,8.342 111.611,9.182 C110.372,10.148 109.805,11.492 109.805,12.563 C109.805,14.054 109.994,14.831 110.96,15.986 C111.842,17.036 113.144,17.435 114.152,17.435 Z M114.404,16.805 C113.417,16.805 112.808,16.406 112.325,15.713 C111.653,14.747 111.527,13.949 111.527,12.773 C111.527,11.177 111.821,10.316 112.64,9.476 C113.144,8.93 113.69,8.804 114.257,8.804 C115.328,8.804 117.029,10.274 117.029,12.605 C117.029,14.852 116,16.805 114.404,16.805 Z M122.615,17.183 C124.232,17.183 125.009,17.246 125.135,17.246 C125.24,17.246 125.282,17.162 125.282,16.994 L125.282,16.658 C125.282,16.532 125.24,16.49 125.051,16.49 L123.854,16.49 C123.413,16.49 123.35,16.301 123.308,15.944 C123.296333,15.8156667 123.291148,15.1623333 123.288844,14.1820453 L123.288067,13.7729619 C123.28796,13.7020316 123.287864,13.6297654 123.287778,13.5562222 L123.287,9.413 L125.597,9.413 C125.765,9.413 125.849,9.392 125.87,9.308 L125.975,8.615 C125.996,8.531 125.975,8.405 125.828,8.405 L123.287,8.405 L123.287,8.006 C123.287,6.536 123.245,4.709 124.022,3.722 C124.484,3.134 125.051,2.987 125.597,2.987 C125.996,2.987 126.29,3.134 126.563,3.47 C126.647,3.575 126.878,3.848 127.067,3.953 C127.235,4.037 127.445,4.079 127.655,4.079 C127.991,4.079 128.537,3.68 128.537,3.176 C128.537,2.378 127.613,2 126.626,2 C125.45,2 124.295,2.441 123.182,3.659 C122.363,4.583 121.775,5.948 121.775,8.027 L121.775,8.405 L120.557,8.405 C120.389,8.405 120.326,8.426 120.305,8.552 L120.221,9.182 C120.179,9.371 120.221,9.413 120.326,9.413 L121.775,9.413 L121.775,15.755 C121.754,16.238 121.67,16.49 121.271,16.49 L120.263,16.49 C120.095,16.49 120.053,16.532 120.053,16.637 L120.053,17.099 C120.053,17.204 120.095,17.246 120.221,17.246 C120.389,17.246 121.46,17.183 122.615,17.183 Z M135.257,17.183 C137.252,17.183 137.777,17.246 138.008,17.246 C138.218,17.246 138.239,17.204 138.239,17.057 L138.239,16.595 C138.239,16.49 138.218,16.427 138.071,16.427 L136.748,16.427 C136.433,16.427 136.265,16.049 136.223,15.608 C136.203826,15.3203913 136.184652,13.3346408 136.181463,12.0483939 L136.181,10.526 C136.475,10.463 136.685,10.463 136.874,10.463 C138.092,10.463 138.596,11.03 139.142,11.681 C139.394,11.975 140.402,13.487 140.486,13.634 C140.591,13.802 141.725,15.797 141.893,16.049 C142.082,16.322 142.544,17.036 142.775,17.246 C143.09,17.225 143.867,17.183 144.476,17.183 C145.4,17.183 145.946,17.246 146.114,17.246 C146.261,17.246 146.282,17.183 146.282,17.057 L146.282,16.595 C146.282,16.511 146.261,16.427 146.114,16.427 C145.526,16.427 145.043,16.385 144.602,16.07 C144.203,15.776 142.859,13.865 142.754,13.655 C142.586,13.382 141.095,11.24 140.843,10.967 C140.675,10.736 140.381,10.358 139.877,10.169 L139.877,10.127 C142.565,9.539 143.762,8.552 143.762,5.927 C143.762,5.15 143.363,4.205 142.67,3.533 C141.872,2.777 140.486,2.252 138.743,2.252 C138.384895,2.252 136.613216,2.30854294 135.427798,2.31449482 L135.236,2.315 C133.472,2.315 132.821,2.252 132.632,2.252 C132.527,2.252 132.506,2.294 132.506,2.399 L132.506,2.924 C132.506,3.008 132.527,3.071 132.632,3.071 L133.472,3.071 C133.997,3.071 134.249,3.428 134.27,4.121 C134.284438,4.5396875 134.288949,5.30577734 134.290359,6.24867017 L134.290995,7.33921411 C134.291,7.43457031 134.291,7.530875 134.291,7.628 L134.291,9.665 C134.291,11.66 134.291,13.634 134.249,15.713 C134.249,16.28 133.892,16.427 133.43,16.427 L132.569,16.427 C132.4815,16.427 132.466917,16.47075 132.464486,16.5460972 L132.464,17.078 C132.464,17.183 132.464,17.246 132.632,17.246 C132.863,17.246 133.346,17.183 135.257,17.183 Z M137.126,9.791 C136.727,9.791 136.496,9.77 136.181,9.707 L136.181,3.764 C136.181,3.428 136.286,3.197 136.433,3.092 C136.622,2.966 136.895,2.924 137.147,2.924 C138.89,2.924 139.814,3.239 140.633,3.89 C141.242,4.394 141.683,5.318 141.683,6.284 C141.683,7.166 140.948,9.791 137.126,9.791 Z M151.007,17.435 C152.876,17.435 153.968,15.986 154.346,15.146 C154.451,14.915 154.409,14.852 154.346,14.831 L154.073,14.684 C154.01,14.663 153.926,14.705 153.884,14.789 C153.527,15.482 152.624,16.217 151.343,16.217 C149.663,16.217 148.361,14.663 148.361,12.605 C148.361,12.122 148.382,11.786 148.424,11.597 L153.611,11.597 C153.947,11.597 154.199,11.555 154.199,11.261 C154.199,10.442 153.527,8.174 151.112,8.174 C150.062,8.174 149.012,8.363 148.109,9.287 C146.996,10.4 146.786,11.807 146.786,12.626 C146.786,14.096 146.975,14.873 147.71,15.944 C148.487,17.078 149.81,17.435 151.007,17.435 Z M151.763,10.967 L148.508,10.967 C148.907,9.413 149.789,8.804 150.713,8.804 C152.078,8.804 152.33,10.19 152.33,10.673 C152.33,10.862 152.162,10.967 151.763,10.967 Z M159.533,22.895 C161.318,22.895 162.578,22.307 163.124,21.908 C164.174,21.131 164.531,20.312 164.531,19.325 C164.51,18.821 164.405,17.981 163.502,17.309 C162.662,16.658 161.612,16.469 159.89,16.553 C158.483,16.637 157.433,16.7 157.433,15.839 C157.433,15.251 158.126,14.831 158.546,14.663 C158.861,14.747 159.155,14.768 159.617,14.768 C160.31,14.768 161.507,14.327 162.053,13.718 C162.599,13.067 162.83,12.269 162.83,11.45 C162.83,10.736 162.683,10.274 162.515,9.854 C162.788,9.728 163.04,9.728 163.187,9.728 C163.355,9.728 163.502,9.833 163.628,9.917 C163.796,10.064 164.006,10.232 164.363,10.232 C164.846,10.232 165.182,9.854 165.182,9.455 C165.224,9.035 164.888,8.573 164.195,8.573 C163.502,8.573 162.788,8.993 162.221,9.392 C162.011,9.14 161.171,8.174 159.575,8.174 C157.202,8.174 155.984,9.854 155.984,11.219 C155.984,13.088 157.118,14.054 157.937,14.411 L157.937,14.453 C157.202,14.726 156.047,15.44 156.047,16.448 C156.047,17.078 156.572,17.729 157.454,17.918 L157.454,18.002 C156.446,18.443 155.249,19.346 155.249,20.522 C155.249,21.215 155.564,21.761 156.32,22.223 C157.328,22.79 158.525,22.895 159.533,22.895 Z M159.407,14.18 C158.903,14.18 158.525,14.012 158.147,13.655 C157.706,13.193 157.475,12.542 157.475,11.828 C157.475,11.03 157.559,10.064 158.231,9.35 C158.735,8.846 159.239,8.762 159.722,8.762 C160.037,8.762 160.457,8.951 160.73,9.224 C161.108,9.644 161.297,10.19 161.297,11.114 C161.297,12.437 160.835,14.18 159.407,14.18 Z M160.268,22.223 C158.777,22.223 158.021,22.118 157.328,21.635 C156.908,21.341 156.509,20.711 156.509,20.186 C156.509,19.052 157.538,18.338 158.189,18.17 L160.205,18.023 C162.305,17.876 163.25,18.821 163.25,20.06 C163.355,21.677 161.045,22.223 160.268,22.223 Z M170.138,17.435 C172.007,17.435 173.099,15.986 173.477,15.146 C173.582,14.915 173.54,14.852 173.477,14.831 L173.204,14.684 C173.141,14.663 173.057,14.705 173.015,14.789 C172.658,15.482 171.755,16.217 170.474,16.217 C168.794,16.217 167.492,14.663 167.492,12.605 C167.492,12.122 167.513,11.786 167.555,11.597 L172.742,11.597 C173.078,11.597 173.33,11.555 173.33,11.261 C173.33,10.442 172.658,8.174 170.243,8.174 C169.193,8.174 168.143,8.363 167.24,9.287 C166.127,10.4 165.917,11.807 165.917,12.626 C165.917,14.096 166.106,14.873 166.841,15.944 C167.618,17.078 168.941,17.435 170.138,17.435 Z M170.894,10.967 L167.639,10.967 C168.038,9.413 168.92,8.804 169.844,8.804 C171.209,8.804 171.461,10.19 171.461,10.673 C171.461,10.862 171.293,10.967 170.894,10.967 Z M176.921,17.183 C178.034,17.183 178.601,17.246 178.748,17.246 C178.853,17.246 178.895,17.183 178.895,17.057 L178.895,16.7 C178.895,16.553 178.853,16.49 178.685,16.49 L178.16,16.49 C177.719,16.49 177.656,16.364 177.656,15.797 L177.656,11.45 C177.656,11.051 177.719,10.484 178.139,10.022 C178.769,9.35 179.504,9.203 179.84,9.203 C180.365,9.203 180.869,9.203 181.373,9.581 C181.982,10.022 181.982,10.631 181.982,11.471 L181.982,14.243 C181.982,14.789 181.961,15.461 181.94,16.007 C181.919,16.385 181.751,16.49 181.52,16.49 L180.911,16.49 C180.701,16.49 180.638,16.532 180.638,16.679 L180.638,17.015 C180.638,17.183 180.68,17.246 180.806,17.246 C180.953,17.246 181.625,17.183 182.696,17.183 C183.893,17.183 184.544,17.246 184.691,17.246 C184.817,17.246 184.859,17.162 184.859,17.015 L184.859,16.679 C184.859,16.553 184.817,16.49 184.628,16.49 L183.956,16.49 C183.683,16.49 183.494,16.385 183.494,16.049 L183.494,10.631 C183.494,10.106 182.969,9.056 182.339,8.636 C181.835,8.3 181.184,8.174 180.554,8.174 C179.504,8.174 178.286,8.951 177.677,9.707 L177.635,9.707 L177.488,8.426 C177.467,8.258 177.425,8.174 177.32,8.174 C177.236,8.174 177.11,8.237 176.942,8.321 L175.136,9.329 C175.031,9.371 174.947,9.434 174.947,9.539 L174.947,9.644 C174.947,9.707 174.968,9.77 175.115,9.833 L175.283,9.917 C175.808,10.169 176.144,10.526 176.144,11.156 L176.144,16.07 C176.144,16.427 175.997,16.49 175.724,16.49 L175.115,16.49 C174.947,16.49 174.905,16.553 174.905,16.679 L174.905,17.057 C174.905,17.183 174.947,17.246 175.052,17.246 C175.178,17.246 175.85,17.183 176.921,17.183 Z M189.269,17.435 C190.529,17.435 191.39,16.805 191.6,16.595 C191.663,16.532 191.705,16.448 191.642,16.364 L191.537,16.175 C191.474,16.091 191.39,16.07 191.285,16.133 C190.991,16.322 190.382,16.406 189.899,16.406 C189.521,16.406 188.807,16.133 188.807,14.558 L188.807,12.458 C188.807,11.492 188.828,10.463 188.87,9.497 L191.579,9.497 C191.705,9.497 191.747,9.434 191.768,9.329 L191.978,8.594 C192.02,8.51 191.957,8.405 191.831,8.405 L188.912,8.405 L189.017,6.347 C189.017,6.179 188.975,6.032 188.807,6.032 C188.681,6.032 188.576,6.074 188.513,6.242 C188.24,6.956 186.623,8.573 186.119,8.867 C185.867,9.014 185.741,9.077 185.741,9.245 C185.741,9.413 185.867,9.497 186.056,9.497 L187.337,9.497 C187.3174,10.3202 187.2978,11.6190267 187.295274,12.0958729 L187.295,12.647 C187.295,12.941 187.232,14.789 187.232,15.65 C187.232,16.448 188.24,17.435 189.269,17.435 Z M195.443,17.435 C197.228,17.435 198.614,16.364 198.635,14.663 C198.614,13.046 197.648,12.416 196.115,11.975 C195.086,11.681 194.099,11.45 194.099,10.232 C194.099,9.329 194.918,8.846 195.716,8.846 C196.535,8.846 196.934,9.266 197.186,9.665 L197.9,10.631 C197.963,10.736 198.005,10.757 198.089,10.736 L198.341,10.652 C198.446,10.61 198.488,10.547 198.488,10.463 L198.173,8.993 C198.152,8.867 198.11,8.762 197.795,8.615 C197.417,8.426 196.871,8.174 195.863,8.174 C194.288,8.174 192.923,9.287 192.923,10.736 C192.923,12.395 194.162,13.046 195.401,13.403 C196.976,13.844 197.438,14.39 197.438,15.335 C197.438,16.322 196.514,16.763 195.779,16.763 C194.666,16.763 194.372,16.238 193.952,15.461 L193.427,14.432 C193.385,14.327 193.322,14.285 193.238,14.306 L192.965,14.369 C192.881,14.39 192.818,14.432 192.839,14.537 L193.196,16.532 C193.217,16.637 193.217,16.763 193.322,16.826 C193.574,17.015 194.414,17.435 195.443,17.435 Z" id="BoardofRegents" fill-rule="nonzero"></path>
            </g>
        </g>
    </g>
</svg>