<?xml version="1.0" encoding="UTF-8"?>
<svg width="472px" height="30px" viewBox="0 0 472 30" version="1.1" xmlns="http://www.w3.org/2000/svg" xmlns:xlink="http://www.w3.org/1999/xlink">
    <title>GU + Lockup</title>
    <g id="Board-of-Regents" stroke="none" stroke-width="1" fill="none" fill-rule="evenodd">
        <g id="desktop/nav/with-caslon-text" transform="translate(-50.000000, -23.000000)" fill="#FFFFFF">
            <g id="GU-+-Lockup" transform="translate(50.000000, 23.000000)">
                <g id="logo/one-line">
                    <path d="M172.660633,11.3132037 C172.660633,11.3132037 167.474982,15.4826385 169.12488,20.8001204 C169.12488,20.8001204 170.338619,24.5722747 175.016162,22.9903026 C175.016162,22.9903026 176.328663,22.3847737 177.10222,21.6107693 C177.876672,20.8367649 177.784167,21.646967 178.029953,22.1519468 C178.195301,22.4902385 178.583643,23.5623151 180.097689,23.4273559 C181.612181,23.2928436 182.79151,21.6764614 182.352223,21.1393059 C182.049682,20.7692853 181.578218,21.677802 181.208198,21.9133103 C180.838177,22.1483717 180.001162,22.1979759 179.833133,21.1218774 C179.665105,20.0448851 182.150231,13.5681842 182.150231,13.5681842 C182.150231,13.5681842 182.897422,11.6689239 183.78136,10.3063723 C184.296171,9.51270493 184.741269,9.36076411 185.246248,9.22669868 C186.784426,8.81869289 185.818261,8.35169831 185.381208,8.35169831 C184.943707,8.35169831 183.025231,8.0147472 182.183747,9.12570273 C181.342263,10.2362114 177.842708,19.2212765 177.842708,19.2212765 C177.842708,19.2212765 176.227667,22.5523555 173.131649,21.5432897 C170.036078,20.533777 171.099217,16.2722839 171.65112,15.116193 C171.91791,14.5584808 173.437318,11.8271211 175.352667,9.4286906 C176.656676,7.79577366 175.261502,8.61804163 173.78142,8.48263555 C172.300444,8.34812323 168.709725,7.59333486 167.219811,8.67300846 C165.474279,9.93813923 165.021585,12.0872081 166.536077,13.0967208 C168.050123,14.1062334 168.925123,12.2552367 168.35311,11.6161915 C167.766351,10.9597178 167.678314,11.63362 166.873028,11.5487119 C166.233089,11.4816792 166.334085,9.89970714 167.848578,9.73167847 C169.36307,9.56320291 171.54923,10.0704171 172.880053,10.0489667 C174.230539,10.0270693 172.660633,11.3132037 172.660633,11.3132037 L172.660633,11.3132037 Z M292.491889,18.4897261 C292.706841,17.5459055 292.920898,17.1168961 293.221652,16.6449858 C293.521958,16.1301746 297.425944,10.6813086 297.769151,10.2098452 C298.198161,9.63068251 298.62717,9.28747501 299.356486,9.28747501 L299.742594,9.28747501 C299.871297,9.28747501 299.914198,9.24412719 299.914198,9.07297032 L300,8.64396095 C300,8.51525814 299.956652,8.42900938 299.785048,8.42900938 C299.485189,8.42945626 298.841228,8.49380767 297.511746,8.49380767 C296.310072,8.49380767 295.494955,8.42945626 295.194648,8.42945626 C294.98059,8.42900938 294.937689,8.4723572 294.937689,8.60106001 L294.894342,9.07297032 C294.851441,9.20167314 294.894342,9.28747501 295.023044,9.28747501 L295.495402,9.28747501 C296.224717,9.28747501 296.503574,9.60923204 296.224717,10.4243499 C296.010213,11.067417 292.964246,15.5724624 292.66394,16.0443727 C292.491889,16.3446792 292.320285,16.3446792 292.234483,16.0014717 L290.518446,10.2308488 C290.389743,9.80183938 290.389743,9.28747501 291.076158,9.28747501 L291.63387,9.28747501 C291.762573,9.28747501 291.805921,9.24412719 291.848822,9.11542438 L291.891276,8.60106001 C291.891276,8.4723572 291.848822,8.42900938 291.677218,8.42900938 C291.419812,8.42945626 290.69005,8.49380767 288.845309,8.49380767 C287.129272,8.49380767 286.57156,8.42945626 286.271253,8.42945626 C286.14255,8.42900938 286.099649,8.4723572 286.057195,8.60106001 L285.970947,9.11542438 C285.970947,9.24412719 286.013847,9.28747501 286.14255,9.28747501 L286.614907,9.28747501 C287.344223,9.28747501 287.773233,9.58778157 287.94439,10.1021459 L290.175685,16.6878867 C290.26104,16.9452924 290.304388,17.5030046 290.218139,17.8033111 L289.531724,20.9779805 C289.403022,21.6000441 289.102715,22.0719544 288.115993,22.0719544 L287.64453,22.0719544 C287.472926,22.0719544 287.429578,22.1577563 287.429578,22.2435582 L287.344223,22.7154685 C287.344223,22.8866253 287.386677,22.9295263 287.51538,22.9295263 C287.773233,22.9295263 288.4163,22.8656218 290.346842,22.8656218 C292.063327,22.8656218 292.749295,22.9295263 293.092502,22.9295263 C293.264553,22.9295263 293.307007,22.8441713 293.307007,22.7154685 L293.393256,22.2435582 C293.393256,22.1577563 293.349908,22.0719544 293.221652,22.0719544 L292.749295,22.0719544 C292.020426,22.0719544 291.741123,21.9861525 291.977525,20.8707282 L292.491889,18.4897261 Z M276.751714,8.49336078 C274.520418,8.49336078 273.491243,8.32220392 273.062233,8.1935011 C272.890629,8.06435141 272.804381,8.02145047 272.718579,8.02145047 C272.589876,8.02145047 272.546975,8.10725234 272.504521,8.23595516 C272.46162,8.36465797 271.131244,11.3681705 270.873392,11.8396339 C270.830938,11.9258827 270.830938,12.0112377 270.917186,12.0541386 L271.259947,12.2690902 C271.346196,12.2690902 271.431551,12.2690902 271.517799,12.1828414 C272.032164,11.5826752 273.147588,10.3381011 273.898801,9.78038891 C274.391715,9.41528405 275.335983,9.30892548 277.309426,9.30892548 L277.867138,9.30892548 L274.563319,19.9054571 C274.070405,21.5137953 273.662399,22.0715075 272.46162,22.0715075 L271.903908,22.0715075 C271.731857,22.0715075 271.667953,22.1148553 271.646502,22.2435582 L271.603154,22.7154685 C271.581257,22.8441713 271.646502,22.9295263 271.796656,22.9295263 C272.010713,22.9295263 273.147588,22.8656218 275.249734,22.8656218 C277.266525,22.8656218 278.124544,22.9295263 278.42485,22.9295263 C278.575004,22.9295263 278.660806,22.8656218 278.682256,22.7154685 L278.767611,22.2864591 C278.789508,22.1577563 278.746161,22.0715075 278.638908,22.0715075 L277.780889,22.0715075 C276.665465,22.0715075 276.451407,21.6000441 276.880417,20.2482177 L280.269591,9.30892548 L280.6986,9.30892548 C281.685322,9.30892548 283.229755,9.50153281 283.701219,9.86619078 C284.001972,10.423903 284.387634,11.753832 284.559238,12.440247 C284.645486,12.6980995 284.731288,12.7839014 284.859991,12.7839014 L285.203199,12.7191031 C285.331901,12.6980995 285.374355,12.6547517 285.374355,12.5260489 C285.331901,11.6680302 285.545959,8.5367086 285.589307,8.1935011 C285.589307,8.06435141 285.503505,8.02145047 285.417703,8.02145047 C285.331901,8.02145047 285.289,8.06435141 285.203199,8.10725234 C284.816643,8.32220392 284.044873,8.49336078 282.114331,8.49336078 L276.751714,8.49336078 Z M263.414438,20.5489711 C263.114131,21.6420513 262.985429,22.0715075 261.741301,22.0715075 L260.926184,22.0715075 C260.797481,22.0715075 260.75458,22.1148553 260.75458,22.2435582 L260.625877,22.7154685 C260.625877,22.8441713 260.668778,22.9295263 260.797481,22.9295263 C261.054886,22.9295263 262.170311,22.8656218 263.97215,22.8656218 C266.160098,22.8656218 267.14682,22.9295263 267.404225,22.9295263 C267.61873,22.9295263 267.61873,22.8866253 267.661631,22.7154685 L267.704532,22.2864591 C267.747433,22.1577563 267.704532,22.0715075 267.575829,22.0715075 L266.803612,22.0715075 C265.902692,22.0715075 265.580935,21.6420513 265.859791,20.6133225 L268.520096,10.7246564 C268.841407,9.5019797 269.334767,9.28747501 270.235687,9.28747501 L270.793399,9.28747501 C270.965003,9.28747501 271.007904,9.20167314 271.007904,9.11542438 L271.136607,8.686415 C271.179508,8.51525814 271.093706,8.42900938 270.879201,8.42900938 C270.578895,8.42945626 269.677975,8.49380767 267.832788,8.49380767 C266.117197,8.49380767 264.958872,8.42945626 264.701466,8.42945626 C264.529862,8.42900938 264.44406,8.4723572 264.44406,8.55771219 L264.315358,9.11542438 C264.315358,9.24412719 264.358259,9.28747501 264.529862,9.28747501 L265.516584,9.28747501 C266.074296,9.28747501 266.41795,9.63068251 266.117197,10.703206 L263.414438,20.5489711 Z M261.613045,8.60106001 C261.613045,8.51525814 261.569698,8.4723572 261.441442,8.4723572 L261.184036,8.42900938 C261.011985,8.42900938 260.969085,8.42900938 260.969085,8.51525814 C260.88373,8.94426751 260.755027,9.24412719 260.626324,9.24412719 C260.497174,9.24412719 260.411372,9.20167314 260.326017,9.1587722 C259.982363,8.90136657 258.95274,8.17205064 257.794862,8.17205064 C255.005854,8.17205064 253.804628,10.4024525 253.804628,11.9468863 C253.804628,14.1567314 254.920052,15.2721558 256.250428,16.7303408 C257.193802,17.7604102 258.266772,18.575528 258.266772,19.9479111 C258.266772,21.1281338 257.322505,22.2002103 255.950122,22.2002103 C254.619746,22.2002103 252.946609,20.7420253 253.547669,17.6531578 C253.547669,17.524455 253.504321,17.4815541 253.418966,17.4382063 L253.075312,17.3528513 C252.946609,17.3528513 252.904155,17.3528513 252.861254,17.4382063 L251.273473,22.1148553 C251.230572,22.2864591 251.230572,22.2864591 251.359274,22.3289131 L251.61668,22.457616 C251.745383,22.5005169 251.788284,22.457616 251.831185,22.3718141 C252.002789,22.0719544 252.217293,21.7287469 252.346443,21.5571432 C252.475146,21.4284403 252.689204,21.3850925 252.904155,21.6000441 C253.590123,22.3718141 254.576845,23.1869319 255.950122,23.1869319 C258.180524,23.1869319 260.153967,21.7287469 260.153967,18.98264 C260.153967,16.6020849 258.738236,15.4008586 257.751514,14.4141371 C256.764793,13.4274155 255.821419,12.7410005 255.821419,11.2390208 C255.821419,10.3170975 256.507387,9.1587722 257.751514,9.1587722 C259.939462,9.1587722 260.197315,11.7328285 260.068165,12.5908472 C260.068165,12.71955 260.111066,12.8053519 260.28267,12.8053519 L260.669225,12.8053519 C260.755027,12.8053519 260.797928,12.762451 260.840382,12.6766491 L261.613045,8.60106001 Z M243.334118,9.20122625 C243.591523,9.1587722 243.849376,9.1587722 244.235484,9.1587722 C246.33763,9.1587722 246.980698,10.5530527 246.980698,11.4535255 C246.980698,12.9984061 245.993976,14.1991855 244.878552,14.6715427 C243.420367,15.2717089 242.304495,15.185907 241.446923,15.185907 L243.334118,9.20122625 Z M241.210968,15.9371203 C241.789684,15.9371203 242.733505,15.8084175 243.248763,16.9877464 C243.506168,17.5030046 245.39381,21.7072964 245.693669,22.2216608 C245.993976,22.7154685 246.080225,22.9295263 246.294283,22.9295263 C246.637937,22.9295263 247.023598,22.8656218 248.267726,22.8656218 C249.426051,22.8656218 249.769705,22.9295263 249.983763,22.9295263 C250.112913,22.9295263 250.155814,22.8441713 250.198715,22.7154685 L250.241169,22.2864591 C250.284517,22.1577563 250.241169,22.0715075 250.112913,22.0715075 L249.555201,22.0715075 C248.782984,22.0715075 248.267726,21.7287469 247.688563,20.8278272 C247.324352,20.2482177 245.86572,17.202698 245.73657,16.9877464 C245.522513,16.558737 245.179305,15.9156699 244.49289,15.7436192 L244.49289,15.6582642 C247.281451,15.3579577 249.555201,13.6414733 249.555201,11.5397742 C249.555201,8.57960954 246.33763,8.42900938 244.49289,8.42900938 C243.892277,8.42900938 241.661428,8.49336078 239.430579,8.49336078 C239.215628,8.49336078 239.173174,8.53626172 239.130273,8.66496453 L239.044471,9.11542438 C239.00157,9.24412719 239.044471,9.28747501 239.215628,9.28747501 L239.945391,9.28747501 C240.674707,9.28747501 240.803409,9.67313657 240.588905,10.3595516 L237.15683,21.0633355 C236.984779,21.600491 236.599118,22.0715075 236.084306,22.0715075 L235.526594,22.0715075 C235.35499,22.0715075 235.311643,22.1148553 235.311643,22.2435582 L235.226288,22.7154685 C235.183387,22.8441713 235.226288,22.9295263 235.35499,22.9295263 C235.612396,22.9295263 236.427067,22.8656218 237.929047,22.8656218 C239.77334,22.8656218 240.717608,22.9295263 240.975013,22.9295263 C241.103716,22.9295263 241.189071,22.8866253 241.231972,22.7579225 L241.27532,22.2435582 C241.317774,22.1577563 241.27532,22.0715075 241.146617,22.0715075 L240.245697,22.0715075 C239.644637,22.0715075 239.409129,21.685846 239.77334,20.5270738 L241.210968,15.9371203 Z M234.494737,19.0045374 C234.366034,18.9187355 234.280232,18.9616364 234.237332,19.0474383 C233.894124,19.4335467 232.735799,20.8921786 232.263888,21.2782871 C231.706176,21.771201 231.105563,22.0934049 230.376247,22.0934049 L225.571342,22.0934049 L227.673488,15.5934659 L228.746012,15.5934659 C230.290445,15.5934659 231.105563,15.829868 231.105563,17.3743017 C231.105563,17.5030046 231.105563,17.5459055 231.234266,17.5888064 L231.620374,17.5888064 C231.706176,17.5888064 231.749077,17.5888064 231.791978,17.4601036 C231.87778,16.6449858 232.564642,13.9851277 232.907402,13.1700099 C232.950303,13.1271089 232.907402,13.0408602 232.821601,13.0408602 L232.435939,12.9121574 C232.34969,12.9121574 232.306789,12.9555052 232.263888,13.0408602 C231.491672,14.7144436 230.655103,14.821696 229.732733,14.821696 L227.887993,14.821696 L229.689832,9.26557766 L233.036105,9.26557766 C233.164808,9.26557766 233.293511,9.30892548 233.422661,9.43762829 L235.610162,11.9687836 C235.738864,12.0974864 235.781765,12.1403874 235.867567,12.0974864 L236.124973,11.9687836 C236.253676,11.8829817 236.253676,11.8829817 236.210775,11.7323816 L235.567261,8.85846564 C235.481459,8.51525814 235.439005,8.42900938 235.09535,8.42900938 C234.859395,8.42900938 234.344584,8.45090673 233.486565,8.4723572 C232.628546,8.49380767 231.449218,8.49380767 229.904337,8.49380767 L228.359903,8.49380767 C227.845092,8.49380767 227.137226,8.4723572 226.515163,8.45090673 C225.91455,8.45090673 225.399738,8.42900938 225.271036,8.42900938 C225.099432,8.42900938 225.056531,8.4723572 225.01363,8.60106001 L224.884927,9.07297032 C224.842026,9.20167314 224.906378,9.28747501 225.01363,9.28747501 L225.700045,9.28747501 C226.343559,9.28747501 227.115329,9.58778157 226.751118,10.74566 L223.469196,20.9341858 C223.254692,21.6424981 222.825682,22.0715075 221.967663,22.0715075 L221.281248,22.0715075 C221.195447,22.0715075 221.152546,22.1148553 221.131095,22.2002103 L221.045293,22.7579225 C221.023843,22.8866253 221.066744,22.9295263 221.173996,22.9295263 C221.302699,22.9295263 221.645906,22.9080758 222.117817,22.8866253 C222.611177,22.8866253 223.233241,22.8656218 223.898206,22.8656218 L226.687213,22.8656218 C228.166849,22.8656218 229.711283,22.8656218 230.933959,22.8866253 C232.156636,22.9080758 233.036105,22.9295263 233.207709,22.9295263 C233.465562,22.9295263 233.593817,22.8866253 233.679619,22.5438647 L234.795044,19.4116494 C234.837945,19.2614961 234.795044,19.2190421 234.752143,19.1761411 L234.494737,19.0045374 Z M214.245495,18.9611895 C213.945635,19.347298 213.687782,19.3048439 213.773584,18.7471317 L215.253667,10.1664973 C215.361366,9.54443375 215.747027,9.28747501 216.433442,9.28747501 L217.034056,9.28747501 C217.205659,9.28747501 217.24856,9.24412719 217.270011,9.11542438 L217.334809,8.62206359 C217.377263,8.47191031 217.334809,8.42900938 217.119857,8.42900938 C216.862452,8.42945626 215.961532,8.49336078 214.416652,8.49336078 C212.572358,8.49336078 211.671438,8.42945626 211.371132,8.42945626 C211.199528,8.42900938 211.199528,8.47191031 211.156627,8.64351406 L211.027477,9.09397391 C210.98547,9.24412719 211.070825,9.28747501 211.242429,9.28747501 L211.928844,9.28747501 C212.615259,9.28747501 212.829764,9.80183938 212.743962,10.4453534 L211.049375,22.4790664 C210.963573,22.9943246 211.006474,23.2946311 211.349681,23.2946311 C211.649988,23.2946311 211.907394,23.0801264 212.036096,22.9080758 L221.195447,11.4110714 C222.032015,10.3595516 223.125989,9.28747501 223.855305,9.28747501 L224.327215,9.28747501 C224.455918,9.28747501 224.499266,9.20122625 224.54172,9.07252344 L224.606071,8.62206359 C224.627522,8.51481125 224.584621,8.42900938 224.370563,8.42900938 C224.11271,8.42945626 223.554551,8.49336078 222.310871,8.49336078 C221.152099,8.49336078 220.42323,8.42945626 220.122923,8.42945626 C219.908418,8.42900938 219.865964,8.47191031 219.865964,8.60061313 L219.758265,9.07252344 C219.736815,9.20122625 219.779269,9.28747501 219.994667,9.28747501 L220.423677,9.28747501 C221.023843,9.28747501 220.938041,10.0377945 220.165824,11.067417 L214.245495,18.9611895 Z M202.74849,20.5489711 C202.447737,21.6420513 202.319034,22.0715075 201.075354,22.0715075 L200.260236,22.0715075 C200.131086,22.0715075 200.088632,22.1148553 200.088632,22.2435582 L199.959929,22.7154685 C199.959929,22.8441713 200.002383,22.9295263 200.131086,22.9295263 C200.388939,22.9295263 201.504363,22.8656218 203.305756,22.8656218 C205.493703,22.8656218 206.480425,22.9295263 206.738277,22.9295263 C206.952335,22.9295263 206.952335,22.8866253 206.995683,22.7154685 L207.038137,22.2864591 C207.080591,22.1577563 207.038137,22.0715075 206.909434,22.0715075 L206.137664,22.0715075 C205.236298,22.0715075 204.914988,21.6420513 205.193844,20.6133225 L207.853702,10.7246564 C208.175012,9.5019797 208.66882,9.28747501 209.569739,9.28747501 L210.127452,9.28747501 C210.298608,9.28747501 210.341509,9.20167314 210.341509,9.11542438 L210.470212,8.686415 C210.51356,8.51525814 210.427311,8.42900938 210.212807,8.42900938 C209.9125,8.42945626 209.01158,8.49380767 207.167287,8.49380767 C205.451249,8.49380767 204.292477,8.42945626 204.035518,8.42945626 C203.863468,8.42900938 203.778113,8.4723572 203.778113,8.55771219 L203.648963,9.11542438 C203.648963,9.24412719 203.691417,9.28747501 203.863468,9.28747501 L204.850189,9.28747501 C205.407902,9.28747501 205.751556,9.63068251 205.451249,10.703206 L202.74849,20.5489711 Z M195.584034,22.4366124 C195.712737,22.7364721 195.927241,22.8656218 196.141746,22.8656218 C196.270449,22.8227208 196.442052,22.6506702 196.570755,22.3079096 L200.517642,11.0245161 C200.946651,9.80183938 201.37566,9.28747501 201.890472,9.28747501 L202.448184,9.28747501 C202.576887,9.28747501 202.619787,9.24412719 202.619787,9.11542438 L202.705589,8.72976282 C202.74849,8.55771219 202.705589,8.42900938 202.491085,8.42900938 C202.190778,8.42945626 201.761769,8.49380767 200.646344,8.49380767 C199.144365,8.49380767 198.45795,8.42945626 198.200991,8.42945626 C198.072288,8.42900938 198.029387,8.51525814 197.986486,8.60106001 L197.943585,9.07297032 C197.900237,9.24412719 197.943585,9.28747501 198.15809,9.28747501 L198.801604,9.28747501 C199.53092,9.28747501 199.702077,9.97344313 199.144812,11.711378 L196.871062,18.6613299 C196.699458,19.1761411 196.613656,19.2190421 196.442052,18.9616364 L191.680048,9.05151986 C191.551346,8.75121329 191.422643,8.49380767 191.036534,8.49380767 C188.505379,8.49380767 187.64736,8.42900938 187.389955,8.42900938 C187.218351,8.42900938 187.175003,8.51525814 187.132549,8.64396095 L187.046747,9.03006939 C187.003399,9.20167314 187.046747,9.28747501 187.218351,9.28747501 L188.033469,9.28747501 C188.934388,9.28747501 189.384848,9.88808814 188.976842,11.1536658 L186.360332,19.4335467 C185.716818,21.3421916 185.202007,22.0715075 184.214391,22.0715075 L183.743375,22.0715075 C183.614225,22.0715075 183.571771,22.1577563 183.52887,22.2435582 L183.464519,22.694018 C183.443068,22.8441713 183.485522,22.9295263 183.614225,22.9295263 C183.872078,22.9295263 184.558493,22.8656218 186.060026,22.8656218 C187.518657,22.8656218 188.41913,22.9295263 188.634082,22.9295263 C188.84814,22.9295263 188.84814,22.8866253 188.891487,22.7364721 L188.976842,22.2864591 C188.976842,22.1577563 188.934388,22.0715075 188.762785,22.0715075 L187.947667,22.0715075 C187.046747,22.0715075 186.960945,21.0633355 187.690261,18.6184289 L189.834861,11.4539724 C189.878209,11.1965667 190.049813,11.1965667 190.178516,11.4110714 L195.584034,22.4366124 Z M133.442473,20.7205749 C133.442473,22.4790664 134.922555,23.4233339 136.445538,23.4233339 C139.577307,23.4233339 141.507849,21.0208814 142.623273,19.0474383 C143.717247,17.1812475 144.639617,14.3926866 145.132978,11.6680302 C145.197329,11.3252695 145.326032,11.3462731 145.368933,11.5397742 C146.420006,15.7869671 148.371999,20.5270738 150.795902,23.7236405 C152.061926,25.3967771 154.871491,28.8503025 159.225936,28.8503025 C161.693187,28.8503025 162.830062,27.6490763 163.194273,27.2415174 C163.580381,26.8335116 163.838234,26.1904444 163.838234,25.9115883 C163.838234,25.5893844 163.68808,25.1818255 163.21617,25.1818255 C162.787161,25.1818255 162.507858,25.6112818 162.2938,26.5546555 C162.122196,27.262521 161.349532,27.7348782 160.256005,27.7348782 C156.523177,27.7348782 153.391855,23.7665414 152.297435,21.8999038 C152.08293,21.5356927 151.718272,21.0852328 152.061926,19.5189017 C153.434309,13.3630641 155.107446,11.0888675 156.587528,10.016791 C157.273943,9.52298328 157.702953,9.43762829 158.110512,9.43762829 C158.410818,9.43762829 158.775476,9.67313657 158.883175,9.93098908 C159.054332,10.1883947 159.376089,10.5311553 159.826549,10.5311553 C160.362811,10.5311553 160.878069,10.0596919 160.878069,9.45907876 C160.878069,8.75121329 160.277456,8 158.990428,8 C158.110512,8 157.080889,8.21495157 155.986915,9.07297032 C153.605913,10.8962602 152.233083,15.0357538 151.289263,19.2833935 C151.203461,19.6905055 151.096208,19.8840066 150.946055,19.626601 C149.78773,17.7604102 147.792836,12.2690902 147.06352,8.98672156 C146.977718,8.64396095 146.849016,8.49380767 146.441457,8.49380767 C142.580372,8.49380767 140.435325,8.32220392 138.890892,9.41573094 C137.88272,10.1454938 137.410809,11.3038191 137.410809,12.397793 C137.410809,13.4274155 138.054323,14.2425333 138.80509,14.2425333 C139.470054,14.2425333 139.877613,13.7920735 139.877613,13.3201631 C139.877613,12.8482528 139.577307,12.4621444 138.912342,12.3544452 C138.461882,12.2257424 138.311729,11.7542789 138.311729,11.4964264 C138.311729,10.982062 139.148297,10.4024525 140.027766,10.1454938 C141.250443,9.75938532 142.47312,9.78083579 143.781598,9.78083579 C144.253509,9.78083579 144.510914,9.93098908 144.510914,10.4243499 C144.510914,12.5479463 142.816327,17.2241485 141.293344,19.3477449 C140.349523,20.6343261 138.612036,22.2650086 136.55279,22.2650086 C135.351564,22.2650086 135.029807,21.7930983 135.115609,21.3850925 C135.222861,20.9131822 135.823475,20.6133225 135.823475,19.9912589 C135.823475,19.2614961 135.330114,18.9616364 134.772402,18.9616364 C134.193239,18.9616364 133.442473,19.5622496 133.442473,20.7205749 L133.442473,20.7205749 Z M122.82449,10.4243499 C122.975091,9.54443375 123.27495,9.28747501 123.961812,9.28747501 L124.30502,9.28747501 C124.476177,9.28747501 124.519524,9.20122625 124.519524,9.11542438 L124.605326,8.62206359 C124.64778,8.4723572 124.605326,8.42900938 124.390822,8.42900938 C124.132969,8.42945626 123.317851,8.49336078 121.987922,8.49336078 C120.572191,8.49336078 119.714173,8.42945626 119.499668,8.42945626 C119.328064,8.42900938 119.285163,8.4723572 119.242709,8.60106001 L119.178358,9.09397391 C119.15646,9.24412719 119.199361,9.28747501 119.371412,9.28747501 L119.886223,9.28747501 C120.358133,9.28747501 120.443935,9.67313657 120.358133,10.4024525 L118.834703,22.3937114 C118.749348,22.9943246 118.856154,23.2946311 119.13501,23.2946311 C119.478217,23.2946311 119.692722,23.0367786 119.950575,22.7364721 C120.743795,21.8145488 126.535422,13.7701761 126.749926,13.4698695 C126.921977,13.2558117 127.093134,13.2558117 127.05068,13.5132174 L126.428616,22.5224143 C126.385268,22.9943246 126.47107,23.2946311 126.814278,23.2946311 C127.157485,23.2946311 127.415338,22.9514236 127.694194,22.6077692 C128.616564,21.4708944 131.426575,17.3314008 132.026742,16.3446792 C132.542,15.4866605 135.75957,10.1669442 135.974075,9.86663767 C136.317282,9.41573094 136.703391,9.28747501 137.089499,9.28747501 L137.475608,9.28747501 C137.561409,9.28747501 137.603863,9.24412719 137.647211,9.11542438 L137.733013,8.57960954 C137.754464,8.4723572 137.690112,8.42900938 137.518508,8.42900938 C137.217755,8.42945626 136.660043,8.49336078 135.373015,8.49336078 C134.25759,8.49336078 133.742779,8.42945626 133.442473,8.42945626 C133.314217,8.42900938 133.227968,8.4723572 133.227968,8.64351406 L133.142613,9.09397391 C133.099265,9.24412719 133.185514,9.28747501 133.314217,9.28747501 L133.656977,9.28747501 C134.300938,9.28747501 134.343839,9.8451872 134.150338,10.4024525 C133.957731,10.982062 133.013463,12.9979592 131.984288,14.7139967 C131.554831,15.4433127 129.453132,18.9182886 129.024123,19.3901989 C128.809618,19.6476045 128.680915,19.6051505 128.723369,19.2185952 L129.79634,10.295647 C129.882142,9.54443375 130.096646,9.28747501 130.482308,9.28747501 L130.825515,9.28747501 C130.997566,9.28747501 131.04002,9.24412719 131.083368,9.11542438 L131.147719,8.60106001 C131.16917,8.4723572 131.125822,8.42900938 130.954665,8.42900938 C130.696813,8.42945626 130.1391,8.49336078 128.894973,8.49336078 C127.565044,8.49336078 127.007779,8.42945626 126.792827,8.42945626 C126.621223,8.42900938 126.578769,8.4723572 126.535422,8.55771219 L126.44962,9.13687485 C126.44962,9.24412719 126.492968,9.28747501 126.621223,9.28747501 L126.921977,9.28747501 C127.307638,9.28747501 127.479689,9.58778157 127.479689,10.016791 C127.479689,10.4668039 127.222283,11.3248227 126.707472,12.0974864 C126.621223,12.2257424 121.859666,19.0898924 121.730517,19.2185952 C121.516012,19.4764477 121.344855,19.3901989 121.387309,19.1327933 L122.82449,10.4243499 Z M108.088465,10.7885609 C108.860682,9.88764125 109.890305,9.20122625 111.177333,9.20122625 C113.107875,9.20122625 114.179952,10.6169572 114.179952,12.7620041 C114.137498,17.3953053 111.348937,22.2002103 108.217168,22.2002103 C106.45823,22.2002103 105.042499,20.9560831 105.042499,18.2966719 C105.042499,15.9366734 106.329527,12.7620041 108.088465,10.7885609 L108.088465,10.7885609 Z M116.497049,14.4351406 C116.497049,10.4882544 114.094597,8.17205064 110.662075,8.17205064 C106.115022,8.17205064 102.854551,12.3758956 102.854551,16.8375931 C102.854551,18.7681353 103.412263,20.4841728 104.741745,21.771201 C106.071674,23.0582291 107.745258,23.1869319 108.60283,23.1869319 C113.451083,23.1869319 116.497049,18.7256813 116.497049,14.4351406 L116.497049,14.4351406 Z M94.2976014,8.49336078 C92.0671996,8.49336078 91.0371302,8.32220392 90.6081208,8.1935011 C90.4369639,8.06435141 90.3507152,8.02145047 90.2649133,8.02145047 C90.1362105,8.02145047 90.0937564,8.10725234 90.0504086,8.23595516 C90.0075077,8.36465797 88.6780255,11.3681705 88.420173,11.8396339 C88.377272,11.9258827 88.377272,12.0112377 88.4630739,12.0541386 L88.8062814,12.2690902 C88.8925302,12.2690902 88.9778852,12.2690902 89.063687,12.1828414 C89.5784983,11.5826752 90.6939227,10.3381011 91.4446891,9.78038891 C91.9380499,9.41528405 92.8818705,9.30892548 94.8553136,9.30892548 L95.4130258,9.30892548 L92.1096536,19.9054571 C91.6162928,21.5137953 91.2087339,22.0715075 90.0075077,22.0715075 L89.4502424,22.0715075 C89.2781917,22.0715075 89.2138403,22.1148553 89.1923899,22.2435582 L89.1494889,22.7154685 C89.1280384,22.8441713 89.1923899,22.9295263 89.3425431,22.9295263 C89.5570478,22.9295263 90.6939227,22.8656218 92.7960686,22.8656218 C94.8124127,22.8656218 95.6704314,22.9295263 95.970738,22.9295263 C96.1208913,22.9295263 96.2066931,22.8656218 96.2285905,22.7154685 L96.3139455,22.2864591 C96.335396,22.1577563 96.2929419,22.0715075 96.1852427,22.0715075 L95.3272239,22.0715075 C94.2117995,22.0715075 93.9972949,21.6000441 94.4263042,20.2482177 L97.8154783,9.30892548 L98.2444877,9.30892548 C99.2312092,9.30892548 100.775643,9.50153281 101.247553,9.86619078 C101.54786,10.423903 101.934415,11.753832 102.105572,12.440247 C102.191374,12.6980995 102.277623,12.7839014 102.406326,12.7839014 L102.749086,12.7191031 C102.877789,12.6980995 102.921137,12.6547517 102.921137,12.5260489 C102.877789,11.6680302 103.092294,8.5367086 103.135641,8.1935011 C103.135641,8.06435141 103.04984,8.02145047 102.963591,8.02145047 C102.877789,8.02145047 102.835335,8.06435141 102.749086,8.10725234 C102.363425,8.32220392 101.591208,8.49336078 99.6606655,8.49336078 L94.2976014,8.49336078 Z M86.1231853,19.0045374 C85.9944825,18.9187355 85.9086806,18.9616364 85.8657797,19.0474383 C85.5225721,19.4335467 84.3642468,20.8921786 83.8923365,21.2782871 C83.3346243,21.771201 82.7340112,22.0934049 82.0046953,22.0934049 L77.1997903,22.0934049 L79.3019362,15.5934659 L80.3744596,15.5934659 C81.9188934,15.5934659 82.7340112,15.829868 82.7340112,17.3743017 C82.7340112,17.5030046 82.7340112,17.5459055 82.862714,17.5888064 L83.2488225,17.5888064 C83.3346243,17.5888064 83.3775253,17.5888064 83.4204262,17.4601036 C83.5062281,16.6449858 84.1926431,13.9851277 84.5358506,13.1700099 C84.5787515,13.1271089 84.5358506,13.0408602 84.4500487,13.0408602 L84.0639403,12.9121574 C83.9781384,12.9121574 83.9352375,12.9555052 83.8923365,13.0408602 C83.1201196,14.7144436 82.2835514,14.821696 81.3611812,14.821696 L79.5164409,14.821696 L81.3182803,9.26557766 L84.6645534,9.26557766 C84.7932562,9.26557766 84.921959,9.30892548 85.0506618,9.43762829 L87.2386097,11.9687836 C87.3673125,12.0974864 87.4102134,12.1403874 87.4960153,12.0974864 L87.7534209,11.9687836 C87.8821237,11.8829817 87.8821237,11.8829817 87.8392228,11.7323816 L87.1957087,8.85846564 C87.1099068,8.51525814 87.0670059,8.42900938 86.7237984,8.42900938 C86.4878432,8.42900938 85.973032,8.45090673 85.1150132,8.4723572 C84.2569945,8.49380767 83.0772187,8.49380767 81.532785,8.49380767 L79.9883512,8.49380767 C79.47354,8.49380767 78.7656745,8.4723572 78.1436109,8.45090673 C77.5429978,8.45090673 77.0281865,8.42900938 76.8994837,8.42900938 C76.7278799,8.42900938 76.684979,8.4723572 76.6420781,8.60106001 L76.5133753,9.07297032 C76.4704743,9.20167314 76.5348257,9.28747501 76.6420781,9.28747501 L77.3284931,9.28747501 C77.9720071,9.28747501 78.744224,9.58778157 78.379566,10.74566 L75.0976443,20.9341858 C74.8831396,21.6424981 74.4541303,22.0715075 73.5961115,22.0715075 L72.9096965,22.0715075 C72.8238946,22.0715075 72.7809937,22.1148553 72.7595432,22.2002103 L72.6737413,22.7579225 C72.6522909,22.8866253 72.6951918,22.9295263 72.8024442,22.9295263 C72.931147,22.9295263 73.2743545,22.9080758 73.7462648,22.8866253 C74.2396256,22.8866253 74.8616892,22.8656218 75.5266537,22.8656218 L78.3152146,22.8656218 C79.795297,22.8656218 81.3397307,22.8656218 82.5624075,22.8866253 C83.7850842,22.9080758 84.6645534,22.9295263 84.8361571,22.9295263 C85.0935628,22.9295263 85.2222656,22.8866253 85.3080675,22.5438647 L86.4234918,19.4116494 C86.4663928,19.2614961 86.4234918,19.2190421 86.3805909,19.1761411 L86.1231853,19.0045374 Z M70.9796012,18.897285 C71.2580104,17.7604102 71.558317,17.5888064 71.9663228,17.5888064 L72.4163357,17.5888064 C72.5450385,17.5888064 72.5879395,17.5459055 72.6093899,17.4167558 L72.6741882,16.9023914 C72.6951918,16.7951391 72.6308404,16.7303408 72.4806871,16.7303408 C72.1803806,16.7307877 71.6655693,16.7951391 70.2069374,16.7951391 C68.3192962,16.7951391 67.5685298,16.7307877 67.2467727,16.7307877 C67.075169,16.7303408 67.0322681,16.7736886 67.0108176,16.9023914 L66.9250157,17.3743017 C66.8821148,17.524455 66.9035652,17.5888064 67.075169,17.5888064 L67.8259354,17.5888064 C68.4050981,17.5888064 68.6410532,17.7604102 68.5767018,18.575528 C68.4908999,19.8411057 67.2467727,22.0496102 64.6727165,22.0496102 C63.7288959,22.0496102 61.5623985,21.491898 61.5623985,17.974468 C61.5623985,15.3794081 62.270264,13.0623106 63.5143912,11.4964264 C65.015924,9.52298328 66.5603577,9.05151986 67.9331877,9.05151986 C70.7217487,9.05151986 71.7728217,11.3038191 71.4086106,13.1485594 C71.3867132,13.2772622 71.4510646,13.3411667 71.558317,13.3630641 L71.9019714,13.405965 C72.0516778,13.4274155 72.0945787,13.405965 72.1374796,13.2772622 L73.3601564,8.9652711 C73.3820537,8.85846564 73.3172554,8.81511781 73.2319004,8.79366734 L72.9096965,8.70786547 C72.8024442,8.686415 72.7380928,8.70786547 72.7166423,8.81511781 C72.5879395,9.28747501 72.4596835,9.50153281 72.201831,9.50153281 C72.0945787,9.50153281 71.9019714,9.45907876 71.6226684,9.24412719 C71.1941059,8.90136657 70.0567842,8.17205064 67.8259354,8.17205064 C64.8443202,8.17205064 62.9781295,9.48052923 61.7769032,10.6813086 C60.1895685,12.2905406 58.9239909,14.6286417 58.9239909,17.3957522 C58.9239909,21.1066833 60.9403349,23.1869319 63.9004996,23.1869319 C66.7963129,23.1869319 68.0189896,21.4498908 68.3192962,21.0423319 L68.447999,21.084786 C67.6543317,24.0449506 67.2682232,25.7395377 67.0108176,26.7481566 C66.6247092,28.2282389 66.024096,29.1287118 64.9086716,29.1287118 C64.4582118,29.1287118 63.964851,28.8932035 63.964851,28.4641941 C63.964851,28.2925904 64.007752,28.185338 64.0935538,28.0995361 C64.2008062,27.9918369 64.2866081,27.6276258 64.2866081,27.3702202 C64.2866081,27.1338182 64.1579052,26.4693005 63.3642379,26.4693005 C62.6134715,26.4693005 62.2059126,27.0484632 62.2059126,27.7992296 C62.2059126,28.8279583 62.9781295,29.8151268 64.9730231,29.8151268 C66.6032587,29.8151268 68.1476924,28.3783922 68.7054046,27.2415174 C68.9842607,26.6194538 69.4132701,25.3967771 69.5634234,24.6674611 L70.9796012,18.897285 Z M50.9658669,9.20122625 C51.2232726,9.1587722 51.4806782,9.1587722 51.8667866,9.1587722 C53.9689326,9.1587722 54.6128935,10.5530527 54.6128935,11.4535255 C54.6128935,12.9984061 53.626172,14.1991855 52.5103007,14.6715427 C51.0516688,15.2717089 49.9362444,15.185907 49.0782257,15.185907 L50.9658669,9.20122625 Z M48.8422705,15.9371203 C49.4214332,15.9371203 50.3652538,15.8084175 50.8800651,16.9877464 C51.1374707,17.5030046 53.0251119,21.7072964 53.3254185,22.2216608 C53.626172,22.7154685 53.7115269,22.9295263 53.9260316,22.9295263 C54.2692391,22.9295263 54.6553476,22.8656218 55.8994748,22.8656218 C57.0578001,22.8656218 57.4010076,22.9295263 57.6155123,22.9295263 C57.7442151,22.9295263 57.7875629,22.8441713 57.830017,22.7154685 L57.8729179,22.2864591 C57.9158188,22.1577563 57.8729179,22.0715075 57.7442151,22.0715075 L57.1865029,22.0715075 C56.414286,22.0715075 55.8994748,21.7287469 55.320759,20.8278272 C54.9556541,20.2482177 53.4970223,17.202698 53.3683194,16.9877464 C53.1538148,16.558737 52.8106073,15.9156699 52.1241923,15.7436192 L52.1241923,15.6582642 C54.9127532,15.3579577 57.1865029,13.6414733 57.1865029,11.5397742 C57.1865029,8.57960954 53.9689326,8.42900938 52.1241923,8.42900938 C51.5235791,8.42900938 49.2927304,8.49336078 47.0618816,8.49336078 C46.8473769,8.49336078 46.804476,8.53626172 46.7615751,8.66496453 L46.6757732,9.11542438 C46.6328722,9.24412719 46.6757732,9.28747501 46.8473769,9.28747501 L47.5766929,9.28747501 C48.3060088,9.28747501 48.4347116,9.67313657 48.2202069,10.3595516 L44.7881319,21.0633355 C44.6165282,21.600491 44.2304197,22.0715075 43.7156085,22.0715075 L43.1578963,22.0715075 C42.9862926,22.0715075 42.9433916,22.1148553 42.9433916,22.2435582 L42.8575897,22.7154685 C42.8146888,22.8441713 42.8575897,22.9295263 42.9862926,22.9295263 C43.2436982,22.9295263 44.058816,22.8656218 45.5603488,22.8656218 C47.4050891,22.8656218 48.3489098,22.9295263 48.6063154,22.9295263 C48.7350182,22.9295263 48.8208201,22.8866253 48.863721,22.7579225 L48.9066219,22.2435582 C48.9495229,22.1577563 48.9066219,22.0715075 48.7779191,22.0715075 L47.8769994,22.0715075 C47.2763863,22.0715075 47.0404312,21.685846 47.4050891,20.5270738 L48.8422705,15.9371203 Z M35.0067182,10.7885609 C35.778935,9.88764125 36.8085575,9.20122625 38.0955857,9.20122625 C40.0261279,9.20122625 41.0990982,10.6169572 41.0990982,12.7620041 C41.0557504,17.3953053 38.2676363,22.2002103 35.135421,22.2002103 C33.3764825,22.2002103 31.9607516,20.9560831 31.9607516,18.2966719 C31.9607516,15.9366734 33.2477797,12.7620041 35.0067182,10.7885609 L35.0067182,10.7885609 Z M43.4157488,14.4351406 C43.4157488,10.4882544 41.0128494,8.17205064 37.5807744,8.17205064 C33.033275,8.17205064 29.7728038,12.3758956 29.7728038,16.8375931 C29.7728038,18.7681353 30.330516,20.4841728 31.660445,21.771201 C32.9903741,23.0582291 34.6635107,23.1869319 35.5219763,23.1869319 C40.3693354,23.1869319 43.4157488,18.7256813 43.4157488,14.4351406 L43.4157488,14.4351406 Z M27.134843,19.0045374 C27.0061402,18.9187355 26.9203383,18.9616364 26.8774374,19.0474383 C26.5342299,19.4335467 25.3759046,20.8921786 24.9039943,21.2782871 C24.3462821,21.771201 23.7456689,22.0934049 23.016353,22.0934049 L18.211448,22.0934049 L20.3135939,15.5934659 L21.3861174,15.5934659 C22.9305511,15.5934659 23.7456689,15.829868 23.7456689,17.3743017 C23.7456689,17.5030046 23.7456689,17.5459055 23.8743718,17.5888064 L24.2604802,17.5888064 C24.3462821,17.5888064 24.389183,17.5888064 24.4320839,17.4601036 C24.5178858,16.6449858 25.2043008,13.9851277 25.5475083,13.1700099 C25.5904093,13.1271089 25.5475083,13.0408602 25.4617064,13.0408602 L25.075598,12.9121574 C24.9897961,12.9121574 24.9468952,12.9555052 24.9039943,13.0408602 C24.1317774,14.7144436 23.2952091,14.821696 22.3728389,14.821696 L20.5280986,14.821696 L22.329938,9.26557766 L25.6762111,9.26557766 C25.8049139,9.26557766 25.9336168,9.30892548 26.0623196,9.43762829 L28.2502674,11.9687836 C28.3789702,12.0974864 28.4218711,12.1403874 28.507673,12.0974864 L28.7650786,11.9687836 C28.8937814,11.8829817 28.8937814,11.8829817 28.8508805,11.7323816 L28.2073664,8.85846564 C28.1215646,8.51525814 28.0786636,8.42900938 27.7354561,8.42900938 C27.499501,8.42900938 26.9846897,8.45090673 26.126671,8.4723572 C25.2686522,8.49380767 24.0888764,8.49380767 22.5444427,8.49380767 L21.0000089,8.49380767 C20.4851977,8.49380767 19.7773322,8.4723572 19.1552686,8.45090673 C18.5546555,8.45090673 18.0398442,8.42900938 17.9111414,8.42900938 C17.7395377,8.42900938 17.6966367,8.4723572 17.6537358,8.60106001 L17.525033,9.07297032 C17.4821321,9.20167314 17.5464835,9.28747501 17.6537358,9.28747501 L18.3401508,9.28747501 C18.9836649,9.28747501 19.7558817,9.58778157 19.3912238,10.74566 L16.1093021,20.9341858 C15.8947974,21.6424981 15.465788,22.0715075 14.6077692,22.0715075 L13.9213542,22.0715075 C13.8355524,22.0715075 13.7926514,22.1148553 13.771201,22.2002103 L13.6853991,22.7579225 C13.6639486,22.8866253 13.7068496,22.9295263 13.8141019,22.9295263 C13.9428047,22.9295263 14.2860122,22.9080758 14.7579225,22.8866253 C15.2512833,22.8866253 15.8733469,22.8656218 16.5383114,22.8656218 L19.3268724,22.8656218 C20.8069547,22.8656218 22.3513885,22.8656218 23.5740652,22.8866253 C24.7967419,22.9080758 25.6762111,22.9295263 25.8478149,22.9295263 C26.1052205,22.9295263 26.2339233,22.8866253 26.3197252,22.5438647 L27.4351496,19.4116494 C27.4780505,19.2614961 27.4351496,19.2190421 27.3922486,19.1761411 L27.134843,19.0045374 Z M10.6394325,24.6674611 C10.4892792,25.3967771 10.0602699,26.6194538 9.78141376,27.2415174 C9.22325469,28.3783922 7.67971471,29.8151268 6.0490322,29.8151268 C4.05458548,29.8151268 3.28192172,28.8279583 3.28192172,27.7992296 C3.28192172,27.0484632 3.68992752,26.4693005 4.44024704,26.4693005 C5.23436127,26.4693005 5.36306408,27.1338182 5.36306408,27.3702202 C5.36306408,27.6276258 5.27681532,27.9918369 5.17000986,28.0995361 C5.08420799,28.185338 5.04130705,28.2925904 5.04130705,28.4641941 C5.04130705,28.8932035 5.53466783,29.1287118 5.98423391,29.1287118 C7.10010517,29.1287118 7.70116518,28.2282389 8.08682673,26.7481566 C8.34467924,25.7395377 8.73034079,24.0449506 9.52445502,21.084786 L9.39575221,21.0423319 C9.09544565,21.4498908 7.87232204,23.1869319 4.97650876,23.1869319 C2.01634407,23.1869319 0,21.1066833 0,17.3957522 C0,14.6286417 1.26557766,12.2905406 2.85335923,10.6813086 C4.05458548,9.48052923 5.92077627,8.17205064 8.90239143,8.17205064 C11.1327933,8.17205064 12.270115,8.90136657 12.6991244,9.24412719 C12.9779805,9.45907876 13.1705878,9.50153281 13.2782871,9.50153281 C13.5356927,9.50153281 13.6639486,9.28747501 13.7930983,8.81511781 C13.8141019,8.70786547 13.8784533,8.686415 13.9861525,8.70786547 L14.3074627,8.79366734 C14.3937114,8.81511781 14.4580628,8.85846564 14.4361655,8.9652711 L13.2139357,13.2772622 C13.1705878,13.405965 13.1281338,13.4274155 12.9779805,13.405965 L12.634773,13.3630641 C12.5270738,13.3411667 12.4627224,13.2772622 12.4846197,13.1485594 C12.8492777,11.3038191 11.7982047,9.05151986 9.00919689,9.05151986 C7.63681377,9.05151986 6.09238002,9.52298328 4.5908472,11.4964264 C3.34672001,13.0623106 2.63885454,15.3794081 2.63885454,17.974468 C2.63885454,21.491898 4.80535189,22.0496102 5.74917252,22.0496102 C8.32322877,22.0496102 9.56690908,19.8411057 9.65271095,18.575528 C9.71706236,17.7604102 9.48155409,17.5888064 8.90239143,17.5888064 L8.15117814,17.5888064 C7.98002127,17.5888064 7.95812392,17.524455 8.00147174,17.3743017 L8.08682673,16.9023914 C8.10872408,16.7736886 8.15117814,16.7303408 8.32278189,16.7307877 C8.64453892,16.7307877 9.39530533,16.7951391 11.2829466,16.7951391 C12.7415785,16.7951391 13.2568366,16.7307877 13.5571432,16.7303408 C13.7072964,16.7303408 13.7716478,16.7951391 13.7501974,16.9023914 L13.685846,17.4167558 C13.6639486,17.5459055 13.6214946,17.5888064 13.4927917,17.5888064 L13.0423319,17.5888064 C12.634773,17.5888064 12.3340195,17.7604102 12.0556103,18.897285 L10.6394325,24.6674611 Z" id="logo-one-line"></path>
                </g>
                <rect id="Rectangle" x="310" y="4" width="2" height="22"></rect>
                <path d="M327.738,23 C328.62,23 329.439,23.063 330.888,23.063 C332.82,23.063 334.017,22.853 334.899,22.307 C335.865,21.698 336.516,20.228 336.516,19.157 C336.516,16.931 335.151,15.671 333.114,14.999 L333.051,14.957 C334.689,14.096 335.613,13.571 335.613,11.492 C335.613,10.253 335.193,9.287 333.996,8.636 C333.261,8.216 331.917,8.069 330.279,8.069 C329.544,8.069 328.284,8.132 327.612,8.132 C326.1,8.132 325.155,8.069 324.819,8.069 C324.693,8.069 324.651,8.111 324.651,8.216 L324.651,8.741 C324.651,8.846 324.693,8.888 324.819,8.888 L325.47,8.888 C326.436,8.888 326.772,8.93 326.835,10.148 C326.856,10.526 326.898,13.088 326.898,13.865 L326.898,16.343 C326.898,16.82516 326.894707,17.38964 326.888583,17.9631423 L326.88265,18.4552156 C326.865038,19.7641856 326.83332,21.01088 326.793,21.32 C326.709,21.992 326.604,22.244 325.953,22.244 L324.945,22.244 C324.798,22.244 324.756,22.286 324.756,22.391 L324.756,22.937 C324.756,23.021 324.798,23.063 325.05,23.063 C325.449,23.063 326.688,23 327.738,23 Z M329.859,14.726 C329.502,14.726 329.145,14.726 328.746,14.684 L328.746553,12.6310023 C328.75,11.0517619 328.769,9.52 328.788,9.14 C328.788,8.951 328.914,8.804 329.082,8.762 C329.25,8.72 329.481,8.741 329.775,8.741 C330.846,8.741 331.896,8.93 332.652,9.455 C333.429,10.022 333.681,10.862 333.681,11.66 C333.681,12.584 333.366,13.529 332.505,14.18 C332.001,14.537 331.056,14.726 329.859,14.726 Z M330.951,22.391 C329.208,22.391 328.746,21.53 328.746,19.598 L328.746,15.398 L329.418,15.398 C330.384,15.398 331.371,15.419 332.232,15.755 C333.471,16.238 334.332,17.351 334.332,19.052 C334.332,21.551 332.715,22.391 330.951,22.391 Z M342.942,23.252 C345.525,23.252 347.583,20.921 347.583,18.632 C347.583,17.267 347.1,16.175 346.155,15.209 C345.525,14.579 344.37,13.991 343.215,13.991 C342.522,13.991 341.493,14.159 340.401,14.999 C339.162,15.965 338.595,17.309 338.595,18.38 C338.595,19.871 338.784,20.648 339.75,21.803 C340.632,22.853 341.934,23.252 342.942,23.252 Z M343.194,22.622 C342.207,22.622 341.598,22.223 341.115,21.53 C340.443,20.564 340.317,19.766 340.317,18.59 C340.317,16.994 340.611,16.133 341.43,15.293 C341.934,14.747 342.48,14.621 343.047,14.621 C344.118,14.621 345.819,16.091 345.819,18.422 C345.819,20.669 344.79,22.622 343.194,22.622 Z M351.888,23.126 C352.833,22.811 353.526,22.37 353.967,21.845 L354.009,21.845 C354.198,22.706 354.744,23.252 355.5,23.252 C356.571,23.252 356.97,22.538 357.138,22.223 C357.264,22.013 357.222,21.908 357.159,21.845 L356.949,21.677 C356.865,21.614 356.823,21.656 356.739,21.761 C356.634,21.908 356.34,22.076 356.004,22.076 C355.626,22.076 355.374,21.698 355.374,20.501 L355.374,16.049 C355.374,15.482 355.353,14.999 354.912,14.558 C354.618,14.285 354.219,13.991 353.232,13.991 C352.287,13.991 351.552,14.201 350.67,14.726 C349.809,15.23 349.221,16.028 349.221,16.7 C349.221,17.183 349.389,17.372 349.725,17.372 C350.586,17.372 350.838,16.91 350.838,16.175 C350.838,15.797 350.649,15.482 350.943,15.209 C351.237,14.936 351.888,14.768 352.308,14.768 C352.917,14.768 353.337,14.957 353.568,15.23 C353.799,15.503 353.82,16.049 353.862,16.406 L353.862,17.75 C353.526,18.044 352.434,18.548 351.489,18.968 C349.83,19.703 349.389,20.543 349.389,21.509 C349.389,22.832 350.145,23.252 350.649,23.252 C351.111,23.252 351.489,23.252 351.888,23.126 Z M352.119,22.265 C351.489,22.265 351.027,21.887 351.027,21.11 C351.027,19.367 353.085,18.947 353.841,18.38 L353.841,20.963 C353.841,21.53 352.728,22.265 352.119,22.265 Z M360.225,23 C361.359,23 362.325,23.063 362.451,23.063 C362.535,23.063 362.556,23 362.556,22.874 L362.556,22.496 C362.556,22.37 362.535,22.307 362.409,22.307 L361.422,22.307 C360.981,22.307 360.834,22.097 360.834,21.446 L360.834,17.078 C360.834,17.015 360.918,16.637 361.044,16.406 C361.401,15.734 361.947,15.524 362.283,15.524 C362.556,15.524 362.808,15.587 362.976,15.692 C363.144,15.776 363.354,15.86 363.585,15.86 C363.963,15.86 364.467,15.44 364.467,14.831 C364.467,14.348 364.11,13.907 363.396,13.907 C362.493,13.907 361.506,14.768 360.876,15.734 L360.792,15.734 L360.687,14.243 C360.687,14.117 360.666,13.991 360.54,13.991 C360.456,13.991 360.372,14.012 360.246,14.075 L358.167,15.146 C358.041,15.209 357.999,15.251 357.999,15.335 L357.999,15.461 C357.999,15.545 358.041,15.566 358.167,15.608 L358.566,15.818 C359.154,16.133 359.322,16.343 359.322,17.414 L359.322,19.388 L359.321979,19.705205 L359.321979,19.705205 L359.321433,20.282915 C359.32011,20.91722 359.3157,21.4229 359.301,21.908 C359.301,22.181 359.154,22.307 358.839,22.307 L358.02,22.307 C357.831,22.307 357.789,22.349 357.789,22.496 L357.789,22.853 C357.789,23.021 357.831,23.063 357.915,23.063 C358.041,23.063 358.923,23 360.225,23 Z M369.024,23.252 C370.095,23.252 371.439,22.79 372.111,22.118 L372.384,23.042 C372.426,23.189 372.531,23.252 372.657,23.21 L375.03,22.412 C375.156,22.37 375.198,22.307 375.177,22.181 L375.135,22.013 C375.093,21.908 375.009,21.887 374.715,21.866 C374.421,21.845 373.98,21.719 373.791,21.509 C373.635,21.314 373.587643,20.5033571 373.581673,19.7664362 L373.581943,13.9846509 L373.581943,13.9846509 L373.583688,13.330424 C373.59108,11.1518 373.6146,9.035 373.665,8.195 C373.686,7.964 373.665,7.817 373.56,7.817 C373.413,7.817 373.266,7.859 373.077,7.88 C372.678,7.964 371.586,8.153 370.767,8.321 C370.641,8.342 370.599,8.384 370.599,8.468 L370.599,8.825 C370.599,8.909 370.62,8.951 370.746,8.972 C371.922,9.161 372.069,9.413 372.069,10.211 L372.069,14.306 C371.439,14.117 370.683,13.991 369.822,13.991 C368.646,13.991 367.512,14.432 366.693,15.314 C365.706,16.301 365.223,17.582 365.223,18.884 C365.223,20.291 365.475,21.236 366.546,22.286 C367.533,23.294 368.331,23.252 369.024,23.252 Z M369.654,22.349 C368.436,22.349 366.798,20.627 366.798,18.254 C366.798,17.456 366.945,16.343 367.764,15.461 C368.31,14.894 369.024,14.705 369.675,14.705 C370.914,14.705 371.586,15.272 371.88,15.839 C372.069,16.175 372.069,16.574 372.069,16.868 L372.069,20.48 C372.069,20.711 372.048,20.879 371.943,21.194 C371.733,21.74 370.83,22.349 369.654,22.349 Z M385.803,23.252 C388.386,23.252 390.444,20.921 390.444,18.632 C390.444,17.267 389.961,16.175 389.016,15.209 C388.386,14.579 387.231,13.991 386.076,13.991 C385.383,13.991 384.354,14.159 383.262,14.999 C382.023,15.965 381.456,17.309 381.456,18.38 C381.456,19.871 381.645,20.648 382.611,21.803 C383.493,22.853 384.795,23.252 385.803,23.252 Z M386.055,22.622 C385.068,22.622 384.459,22.223 383.976,21.53 C383.304,20.564 383.178,19.766 383.178,18.59 C383.178,16.994 383.472,16.133 384.291,15.293 C384.795,14.747 385.341,14.621 385.908,14.621 C386.979,14.621 388.68,16.091 388.68,18.422 C388.68,20.669 387.651,22.622 386.055,22.622 Z M394.266,23 C395.883,23 396.66,23.063 396.786,23.063 C396.891,23.063 396.933,22.979 396.933,22.811 L396.933,22.475 C396.933,22.349 396.891,22.307 396.702,22.307 L395.505,22.307 C395.064,22.307 395.001,22.118 394.959,21.761 C394.947333,21.6326667 394.942148,20.9793333 394.939844,19.9990453 L394.939067,19.5899619 C394.93896,19.5190316 394.938864,19.4467654 394.938778,19.3732222 L394.938,15.23 L397.248,15.23 C397.416,15.23 397.5,15.209 397.521,15.125 L397.626,14.432 C397.647,14.348 397.626,14.222 397.479,14.222 L394.938,14.222 L394.938,13.823 C394.938,12.353 394.896,10.526 395.673,9.539 C396.135,8.951 396.702,8.804 397.248,8.804 C397.647,8.804 397.941,8.951 398.214,9.287 C398.298,9.392 398.529,9.665 398.718,9.77 C398.886,9.854 399.096,9.896 399.306,9.896 C399.642,9.896 400.188,9.497 400.188,8.993 C400.188,8.195 399.264,7.817 398.277,7.817 C397.101,7.817 395.946,8.258 394.833,9.476 C394.014,10.4 393.426,11.765 393.426,13.844 L393.426,14.222 L392.208,14.222 C392.04,14.222 391.977,14.243 391.956,14.369 L391.872,14.999 C391.83,15.188 391.872,15.23 391.977,15.23 L393.426,15.23 L393.426,21.572 C393.405,22.055 393.321,22.307 392.922,22.307 L391.914,22.307 C391.746,22.307 391.704,22.349 391.704,22.454 L391.704,22.916 C391.704,23.021 391.746,23.063 391.872,23.063 C392.04,23.063 393.111,23 394.266,23 Z M406.908,23 C408.903,23 409.428,23.063 409.659,23.063 C409.869,23.063 409.89,23.021 409.89,22.874 L409.89,22.412 C409.89,22.307 409.869,22.244 409.722,22.244 L408.399,22.244 C408.084,22.244 407.916,21.866 407.874,21.425 C407.854826,21.1373913 407.835652,19.1516408 407.832463,17.8653939 L407.832,16.343 C408.126,16.28 408.336,16.28 408.525,16.28 C409.743,16.28 410.247,16.847 410.793,17.498 C411.045,17.792 412.053,19.304 412.137,19.451 C412.242,19.619 413.376,21.614 413.544,21.866 C413.733,22.139 414.195,22.853 414.426,23.063 C414.741,23.042 415.518,23 416.127,23 C417.051,23 417.597,23.063 417.765,23.063 C417.912,23.063 417.933,23 417.933,22.874 L417.933,22.412 C417.933,22.328 417.912,22.244 417.765,22.244 C417.177,22.244 416.694,22.202 416.253,21.887 C415.854,21.593 414.51,19.682 414.405,19.472 C414.237,19.199 412.746,17.057 412.494,16.784 C412.326,16.553 412.032,16.175 411.528,15.986 L411.528,15.944 C414.216,15.356 415.413,14.369 415.413,11.744 C415.413,10.967 415.014,10.022 414.321,9.35 C413.523,8.594 412.137,8.069 410.394,8.069 C410.035895,8.069 408.264216,8.12554294 407.078798,8.13149482 L406.887,8.132 C405.123,8.132 404.472,8.069 404.283,8.069 C404.178,8.069 404.157,8.111 404.157,8.216 L404.157,8.741 C404.157,8.825 404.178,8.888 404.283,8.888 L405.123,8.888 C405.648,8.888 405.9,9.245 405.921,9.938 C405.935438,10.3566875 405.939949,11.1227773 405.941359,12.0656702 L405.941995,13.1562141 C405.942,13.2515703 405.942,13.347875 405.942,13.445 L405.942,15.482 C405.942,17.477 405.942,19.451 405.9,21.53 C405.9,22.097 405.543,22.244 405.081,22.244 L404.22,22.244 C404.1325,22.244 404.117917,22.28775 404.115486,22.3630972 L404.115,22.895 C404.115,23 404.115,23.063 404.283,23.063 C404.514,23.063 404.997,23 406.908,23 Z M408.777,15.608 C408.378,15.608 408.147,15.587 407.832,15.524 L407.832,9.581 C407.832,9.245 407.937,9.014 408.084,8.909 C408.273,8.783 408.546,8.741 408.798,8.741 C410.541,8.741 411.465,9.056 412.284,9.707 C412.893,10.211 413.334,11.135 413.334,12.101 C413.334,12.983 412.599,15.608 408.777,15.608 Z M422.658,23.252 C424.527,23.252 425.619,21.803 425.997,20.963 C426.102,20.732 426.06,20.669 425.997,20.648 L425.724,20.501 C425.661,20.48 425.577,20.522 425.535,20.606 C425.178,21.299 424.275,22.034 422.994,22.034 C421.314,22.034 420.012,20.48 420.012,18.422 C420.012,17.939 420.033,17.603 420.075,17.414 L425.262,17.414 C425.598,17.414 425.85,17.372 425.85,17.078 C425.85,16.259 425.178,13.991 422.763,13.991 C421.713,13.991 420.663,14.18 419.76,15.104 C418.647,16.217 418.437,17.624 418.437,18.443 C418.437,19.913 418.626,20.69 419.361,21.761 C420.138,22.895 421.461,23.252 422.658,23.252 Z M423.414,16.784 L420.159,16.784 C420.558,15.23 421.44,14.621 422.364,14.621 C423.729,14.621 423.981,16.007 423.981,16.49 C423.981,16.679 423.813,16.784 423.414,16.784 Z M431.184,28.712 C432.969,28.712 434.229,28.124 434.775,27.725 C435.825,26.948 436.182,26.129 436.182,25.142 C436.161,24.638 436.056,23.798 435.153,23.126 C434.313,22.475 433.263,22.286 431.541,22.37 C430.134,22.454 429.084,22.517 429.084,21.656 C429.084,21.068 429.777,20.648 430.197,20.48 C430.512,20.564 430.806,20.585 431.268,20.585 C431.961,20.585 433.158,20.144 433.704,19.535 C434.25,18.884 434.481,18.086 434.481,17.267 C434.481,16.553 434.334,16.091 434.166,15.671 C434.439,15.545 434.691,15.545 434.838,15.545 C435.006,15.545 435.153,15.65 435.279,15.734 C435.447,15.881 435.657,16.049 436.014,16.049 C436.497,16.049 436.833,15.671 436.833,15.272 C436.875,14.852 436.539,14.39 435.846,14.39 C435.153,14.39 434.439,14.81 433.872,15.209 C433.662,14.957 432.822,13.991 431.226,13.991 C428.853,13.991 427.635,15.671 427.635,17.036 C427.635,18.905 428.769,19.871 429.588,20.228 L429.588,20.27 C428.853,20.543 427.698,21.257 427.698,22.265 C427.698,22.895 428.223,23.546 429.105,23.735 L429.105,23.819 C428.097,24.26 426.9,25.163 426.9,26.339 C426.9,27.032 427.215,27.578 427.971,28.04 C428.979,28.607 430.176,28.712 431.184,28.712 Z M431.058,19.997 C430.554,19.997 430.176,19.829 429.798,19.472 C429.357,19.01 429.126,18.359 429.126,17.645 C429.126,16.847 429.21,15.881 429.882,15.167 C430.386,14.663 430.89,14.579 431.373,14.579 C431.688,14.579 432.108,14.768 432.381,15.041 C432.759,15.461 432.948,16.007 432.948,16.931 C432.948,18.254 432.486,19.997 431.058,19.997 Z M431.919,28.04 C430.428,28.04 429.672,27.935 428.979,27.452 C428.559,27.158 428.16,26.528 428.16,26.003 C428.16,24.869 429.189,24.155 429.84,23.987 L431.856,23.84 C433.956,23.693 434.901,24.638 434.901,25.877 C435.006,27.494 432.696,28.04 431.919,28.04 Z M441.789,23.252 C443.658,23.252 444.75,21.803 445.128,20.963 C445.233,20.732 445.191,20.669 445.128,20.648 L444.855,20.501 C444.792,20.48 444.708,20.522 444.666,20.606 C444.309,21.299 443.406,22.034 442.125,22.034 C440.445,22.034 439.143,20.48 439.143,18.422 C439.143,17.939 439.164,17.603 439.206,17.414 L444.393,17.414 C444.729,17.414 444.981,17.372 444.981,17.078 C444.981,16.259 444.309,13.991 441.894,13.991 C440.844,13.991 439.794,14.18 438.891,15.104 C437.778,16.217 437.568,17.624 437.568,18.443 C437.568,19.913 437.757,20.69 438.492,21.761 C439.269,22.895 440.592,23.252 441.789,23.252 Z M442.545,16.784 L439.29,16.784 C439.689,15.23 440.571,14.621 441.495,14.621 C442.86,14.621 443.112,16.007 443.112,16.49 C443.112,16.679 442.944,16.784 442.545,16.784 Z M448.572,23 C449.685,23 450.252,23.063 450.399,23.063 C450.504,23.063 450.546,23 450.546,22.874 L450.546,22.517 C450.546,22.37 450.504,22.307 450.336,22.307 L449.811,22.307 C449.37,22.307 449.307,22.181 449.307,21.614 L449.307,17.267 C449.307,16.868 449.37,16.301 449.79,15.839 C450.42,15.167 451.155,15.02 451.491,15.02 C452.016,15.02 452.52,15.02 453.024,15.398 C453.633,15.839 453.633,16.448 453.633,17.288 L453.633,20.06 C453.633,20.606 453.612,21.278 453.591,21.824 C453.57,22.202 453.402,22.307 453.171,22.307 L452.562,22.307 C452.352,22.307 452.289,22.349 452.289,22.496 L452.289,22.832 C452.289,23 452.331,23.063 452.457,23.063 C452.604,23.063 453.276,23 454.347,23 C455.544,23 456.195,23.063 456.342,23.063 C456.468,23.063 456.51,22.979 456.51,22.832 L456.51,22.496 C456.51,22.37 456.468,22.307 456.279,22.307 L455.607,22.307 C455.334,22.307 455.145,22.202 455.145,21.866 L455.145,16.448 C455.145,15.923 454.62,14.873 453.99,14.453 C453.486,14.117 452.835,13.991 452.205,13.991 C451.155,13.991 449.937,14.768 449.328,15.524 L449.286,15.524 L449.139,14.243 C449.118,14.075 449.076,13.991 448.971,13.991 C448.887,13.991 448.761,14.054 448.593,14.138 L446.787,15.146 C446.682,15.188 446.598,15.251 446.598,15.356 L446.598,15.461 C446.598,15.524 446.619,15.587 446.766,15.65 L446.934,15.734 C447.459,15.986 447.795,16.343 447.795,16.973 L447.795,21.887 C447.795,22.244 447.648,22.307 447.375,22.307 L446.766,22.307 C446.598,22.307 446.556,22.37 446.556,22.496 L446.556,22.874 C446.556,23 446.598,23.063 446.703,23.063 C446.829,23.063 447.501,23 448.572,23 Z M460.92,23.252 C462.18,23.252 463.041,22.622 463.251,22.412 C463.314,22.349 463.356,22.265 463.293,22.181 L463.188,21.992 C463.125,21.908 463.041,21.887 462.936,21.95 C462.642,22.139 462.033,22.223 461.55,22.223 C461.172,22.223 460.458,21.95 460.458,20.375 L460.458,18.275 C460.458,17.309 460.479,16.28 460.521,15.314 L463.23,15.314 C463.356,15.314 463.398,15.251 463.419,15.146 L463.629,14.411 C463.671,14.327 463.608,14.222 463.482,14.222 L460.563,14.222 L460.668,12.164 C460.668,11.996 460.626,11.849 460.458,11.849 C460.332,11.849 460.227,11.891 460.164,12.059 C459.891,12.773 458.274,14.39 457.77,14.684 C457.518,14.831 457.392,14.894 457.392,15.062 C457.392,15.23 457.518,15.314 457.707,15.314 L458.988,15.314 C458.9684,16.1372 458.9488,17.4360267 458.946274,17.9128729 L458.946,18.464 C458.946,18.758 458.883,20.606 458.883,21.467 C458.883,22.265 459.891,23.252 460.92,23.252 Z M467.094,23.252 C468.879,23.252 470.265,22.181 470.286,20.48 C470.265,18.863 469.299,18.233 467.766,17.792 C466.737,17.498 465.75,17.267 465.75,16.049 C465.75,15.146 466.569,14.663 467.367,14.663 C468.186,14.663 468.585,15.083 468.837,15.482 L469.551,16.448 C469.614,16.553 469.656,16.574 469.74,16.553 L469.992,16.469 C470.097,16.427 470.139,16.364 470.139,16.28 L469.824,14.81 C469.803,14.684 469.761,14.579 469.446,14.432 C469.068,14.243 468.522,13.991 467.514,13.991 C465.939,13.991 464.574,15.104 464.574,16.553 C464.574,18.212 465.813,18.863 467.052,19.22 C468.627,19.661 469.089,20.207 469.089,21.152 C469.089,22.139 468.165,22.58 467.43,22.58 C466.317,22.58 466.023,22.055 465.603,21.278 L465.078,20.249 C465.036,20.144 464.973,20.102 464.889,20.123 L464.616,20.186 C464.532,20.207 464.469,20.249 464.49,20.354 L464.847,22.349 C464.868,22.454 464.868,22.58 464.973,22.643 C465.225,22.832 466.065,23.252 467.094,23.252 Z" id="BoardofRegents" fill-rule="nonzero"></path>
            </g>
        </g>
    </g>
</svg>