<?xml version="1.0" encoding="UTF-8"?>
<svg width="456px" height="27px" viewBox="0 0 456 27" version="1.1" xmlns="http://www.w3.org/2000/svg" xmlns:xlink="http://www.w3.org/1999/xlink">
    <title>Georgetown University</title>
    <g stroke="none" stroke-width="1" fill="none" fill-rule="evenodd">
        <g transform="translate(236.000000, 0.000000)" fill="#FFFFFF" >
            <g transform="translate(0.000000, 0.790909)">
                <path d="M126.617797,8.44719206 C126.617797,8.44719206 122.814987,11.5603701 124.024912,15.5307565 C124.024912,15.5307565 124.914988,18.3472984 128.345186,17.1660926 C128.345186,17.1660926 129.307686,16.7139644 129.874962,16.1360411 C130.442893,15.5581178 130.375055,16.1630687 130.555299,16.5401203 C130.676554,16.7927114 130.961339,17.5931953 132.071639,17.4924257 C133.182266,17.3919899 134.047108,16.1850912 133.724963,15.7840151 C133.5031,15.507733 133.15736,16.1860922 132.886012,16.3619384 C132.614663,16.5374509 132.000852,16.5744887 131.877631,15.7710018 C131.75441,14.9668475 133.576836,10.1309109 133.576836,10.1309109 C133.576836,10.1309109 134.124776,8.71279654 134.772997,7.69542463 C135.150526,7.10281968 135.47693,6.98937054 135.847249,6.88926835 C136.975246,6.58462403 136.266725,6.23593474 135.946219,6.23593474 C135.625385,6.23593474 134.218503,5.98434457 133.601415,6.81385804 C132.984326,7.64303782 130.417986,14.3518864 130.417986,14.3518864 C130.417986,14.3518864 129.233622,16.8390921 126.963209,16.0856563 C124.693124,15.3318869 125.472759,12.149972 125.877488,11.2867575 C126.073134,10.8703324 127.187367,8.83091712 128.591955,7.04008898 C129.548229,5.82084433 128.525102,6.43480442 127.439708,6.33370121 C126.353659,6.23326535 123.720465,5.66969003 122.627861,6.47584632 C121.347804,7.42047729 121.015829,9.02511536 122.126456,9.77888483 C123.236757,10.5326543 123.878424,9.15057677 123.458948,8.67342301 C123.028657,8.18325596 122.964097,8.68643629 122.373554,8.62303824 C121.904265,8.57298715 121.978329,7.39178133 123.088957,7.26631992 C124.199585,7.14052484 125.802769,7.51924478 126.778706,7.50322843 C127.769062,7.48687841 126.617797,8.44719206 126.617797,8.44719206 L126.617797,8.44719206 Z M214.494052,13.8056622 C214.651683,13.1009428 214.808659,12.7806158 215.029211,12.4282561 C215.249436,12.0438637 218.112359,7.97537709 218.364044,7.62335106 C218.678651,7.19090961 218.993258,6.93464801 219.52809,6.93464801 L219.811236,6.93464801 C219.905618,6.93464801 219.937079,6.90228163 219.937079,6.77448451 L220,6.45415751 C220,6.35805941 219.968212,6.29366033 219.842369,6.29366033 C219.622472,6.29399401 219.150234,6.34204306 218.17528,6.34204306 C217.294053,6.34204306 216.6963,6.29399401 216.476075,6.29399401 C216.3191,6.29366033 216.287639,6.32602671 216.287639,6.42212481 L216.25585,6.77448451 C216.22439,6.87058261 216.25585,6.93464801 216.350233,6.93464801 L216.696628,6.93464801 C217.231459,6.93464801 217.435954,7.17489326 217.231459,7.78351456 C217.074156,8.26367139 214.840447,11.6274386 214.620222,11.9797983 C214.494052,12.2040272 214.368209,12.2040272 214.305288,11.9477656 L213.04686,7.63903374 C212.952478,7.31870674 212.952478,6.93464801 213.455849,6.93464801 L213.864838,6.93464801 C213.95922,6.93464801 213.991009,6.90228163 214.022469,6.80618353 L214.053602,6.42212481 C214.053602,6.32602671 214.022469,6.29366033 213.896627,6.29366033 C213.707862,6.29399401 213.172703,6.34204306 211.819894,6.34204306 C210.561466,6.34204306 210.152477,6.29399401 209.932252,6.29399401 C209.83787,6.29366033 209.80641,6.32602671 209.775277,6.42212481 L209.712027,6.80618353 C209.712027,6.90228163 209.743488,6.93464801 209.83787,6.93464801 L210.184265,6.93464801 C210.719097,6.93464801 211.033704,7.15887691 211.159219,7.54293564 L212.795503,12.4602888 C212.858096,12.652485 212.889885,13.0689101 212.826636,13.293139 L212.323265,15.6635588 C212.228882,16.1280329 212.008658,16.4803926 211.285062,16.4803926 L210.939322,16.4803926 C210.813479,16.4803926 210.781691,16.544458 210.781691,16.6085234 L210.719097,16.9608831 C210.719097,17.0886802 210.75023,17.120713 210.844612,17.120713 C211.033704,17.120713 211.505287,17.0729976 212.921018,17.0729976 C214.179773,17.0729976 214.682816,17.120713 214.934502,17.120713 C215.060672,17.120713 215.091805,17.0569812 215.091805,16.9608831 L215.155054,16.6085234 C215.155054,16.544458 215.123266,16.4803926 215.029211,16.4803926 L214.682816,16.4803926 C214.148312,16.4803926 213.94349,16.4163272 214.116851,15.583477 L214.494052,13.8056622 Z M202.951257,6.34170938 C201.314973,6.34170938 200.560245,6.21391226 200.245638,6.11781416 C200.119795,6.02138238 200.056546,5.98934968 199.993624,5.98934968 C199.899242,5.98934968 199.867782,6.05341508 199.836649,6.14951318 C199.805188,6.24561128 198.829579,8.48823396 198.640487,8.84025999 C198.609354,8.90465906 198.609354,8.96839079 198.672603,9.00042349 L198.923961,9.16092066 C198.98721,9.16092066 199.049804,9.16092066 199.113053,9.09652159 C199.490253,8.64839746 200.308231,7.71911549 200.859121,7.30269039 C201.220591,7.03007876 201.913054,6.95066436 203.360246,6.95066436 L203.769235,6.95066436 L201.346434,14.8627413 C200.984964,16.0636338 200.68576,16.4800589 199.805188,16.4800589 L199.396199,16.4800589 C199.270029,16.4800589 199.223165,16.5124253 199.207435,16.6085234 L199.175647,16.9608831 C199.159589,17.0569812 199.207435,17.120713 199.317547,17.120713 C199.474523,17.120713 200.308231,17.0729976 201.849805,17.0729976 C203.328785,17.0729976 203.957999,17.120713 204.178224,17.120713 C204.288336,17.120713 204.351257,17.0729976 204.366988,16.9608831 L204.429581,16.6405561 C204.445639,16.544458 204.413851,16.4800589 204.335199,16.4800589 L203.705986,16.4800589 C202.888008,16.4800589 202.731032,16.1280329 203.045639,15.1186692 L205.531033,6.95066436 L205.84564,6.95066436 C206.569236,6.95066436 207.701821,7.09447784 208.04756,7.36675579 C208.268113,7.78318089 208.550931,8.77619459 208.676774,9.28871779 C208.740023,9.48124766 208.802945,9.54531306 208.897327,9.54531306 L209.149012,9.49693034 C209.243394,9.48124766 209.274527,9.44888129 209.274527,9.35278319 C209.243394,8.71212919 209.40037,6.37407576 209.432158,6.11781416 C209.432158,6.02138238 209.369237,5.98934968 209.306316,5.98934968 C209.243394,5.98934968 209.211934,6.02138238 209.149012,6.05341508 C208.865538,6.21391226 208.299574,6.34170938 206.883843,6.34170938 L202.951257,6.34170938 Z M193.170588,15.3432318 C192.950363,16.1593983 192.855981,16.4800589 191.943621,16.4800589 L191.345868,16.4800589 C191.251486,16.4800589 191.220025,16.5124253 191.220025,16.6085234 L191.125643,16.9608831 C191.125643,17.0569812 191.157104,17.120713 191.251486,17.120713 C191.44025,17.120713 192.258228,17.0729976 193.579577,17.0729976 C195.184072,17.0729976 195.907668,17.120713 196.096432,17.120713 C196.253735,17.120713 196.253735,17.0886802 196.285196,16.9608831 L196.316657,16.6405561 C196.348117,16.544458 196.316657,16.4800589 196.222275,16.4800589 L195.655982,16.4800589 C194.995308,16.4800589 194.759353,16.1593983 194.963847,15.3912808 L196.914737,8.00774346 C197.150365,7.09481151 197.512163,6.93464801 198.172837,6.93464801 L198.581826,6.93464801 C198.707669,6.93464801 198.73913,6.87058261 198.73913,6.80618353 L198.833512,6.48585653 C198.864972,6.35805941 198.802051,6.29366033 198.644747,6.29366033 C198.424523,6.29399401 197.763848,6.34204306 196.410711,6.34204306 C195.152611,6.34204306 194.303173,6.29399401 194.114408,6.29399401 C193.988566,6.29366033 193.925644,6.32602671 193.925644,6.38975843 L193.831262,6.80618353 C193.831262,6.90228163 193.862723,6.93464801 193.988566,6.93464801 L194.712162,6.93464801 C195.12115,6.93464801 195.373164,7.19090961 195.152611,7.99172711 L193.170588,15.3432318 Z M191.849567,6.42212481 C191.849567,6.35805941 191.817778,6.32602671 191.723724,6.32602671 L191.53496,6.29366033 C191.408789,6.29366033 191.377329,6.29366033 191.377329,6.35805941 C191.314735,6.67838641 191.220353,6.90228163 191.125971,6.90228163 C191.031261,6.90228163 190.96834,6.87058261 190.905746,6.83854991 C190.653733,6.64635371 189.898676,6.10179781 189.049565,6.10179781 C187.004293,6.10179781 186.123394,7.76716454 186.123394,8.92034174 C186.123394,10.5703595 186.941372,11.4032097 187.916981,12.4919878 C188.608788,13.2611063 189.395633,13.8697276 189.395633,14.8944403 C189.395633,15.7756732 188.70317,16.576157 187.696756,16.576157 C186.721147,16.576157 185.49418,15.4873789 185.934957,13.1810245 C185.934957,13.0849264 185.903169,13.0528937 185.840575,13.0205273 L185.588562,12.9567956 C185.49418,12.9567956 185.463047,12.9567956 185.431586,13.0205273 L184.267213,16.5124253 C184.235753,16.6405561 184.235753,16.6405561 184.330135,16.6722551 L184.518899,16.7683532 C184.613281,16.8003859 184.644742,16.7683532 184.676202,16.7042878 C184.802045,16.4803926 184.959348,16.224131 185.054058,16.0960002 C185.14844,15.9999021 185.305416,15.9675357 185.463047,16.1280329 C185.96609,16.7042878 186.689686,17.3129092 187.696756,17.3129092 C189.332384,17.3129092 190.779576,16.224131 190.779576,14.1737045 C190.779576,12.3962234 189.741373,11.4993078 189.017777,10.7625557 C188.294181,10.0258036 187.602374,9.51328036 187.602374,8.39180219 C187.602374,7.70343281 188.105417,6.83854991 189.017777,6.83854991 C190.622272,6.83854991 190.811364,8.76051191 190.716654,9.40116591 C190.716654,9.49726401 190.748115,9.56132941 190.873958,9.56132941 L191.157432,9.56132941 C191.220353,9.56132941 191.251814,9.52929671 191.282947,9.46523131 L191.849567,6.42212481 Z M178.44502,6.87024893 C178.633784,6.83854991 178.822876,6.83854991 179.106022,6.83854991 C180.647596,6.83854991 181.119178,7.87961266 181.119178,8.55196569 C181.119178,9.70547656 180.395582,10.6020585 179.577605,10.9547519 C178.508269,11.402876 177.689963,11.3388106 177.061077,11.3388106 L178.44502,6.87024893 Z M176.888043,11.8997165 C177.312435,11.8997165 178.00457,11.8036184 178.382426,12.684184 C178.57119,13.0689101 179.95546,16.2081147 180.175358,16.5921734 C180.395582,16.9608831 180.458831,17.120713 180.615807,17.120713 C180.86782,17.120713 181.150639,17.0729976 182.062999,17.0729976 C182.912437,17.0729976 183.164451,17.120713 183.321426,17.120713 C183.416136,17.120713 183.447597,17.0569812 183.479057,16.9608831 L183.51019,16.6405561 C183.541979,16.544458 183.51019,16.4800589 183.416136,16.4800589 L183.007147,16.4800589 C182.440855,16.4800589 182.062999,16.224131 181.63828,15.5514443 C181.371191,15.1186692 180.301528,12.8446812 180.206818,12.684184 C180.049843,12.363857 179.798157,11.8837002 179.294786,11.7552357 L179.294786,11.691504 C181.339731,11.4672751 183.007147,10.1856334 183.007147,8.61636476 C183.007147,6.40610846 180.647596,6.29366033 179.294786,6.29366033 C178.854336,6.29366033 177.218381,6.34170938 175.582425,6.34170938 C175.424794,6.34170938 175.393661,6.37374208 175.3622,6.46984018 L175.299279,6.80618353 C175.267818,6.90228163 175.299279,6.93464801 175.424794,6.93464801 L175.959953,6.93464801 C176.494785,6.93464801 176.589167,7.22260864 176.431863,7.73513184 L173.915008,15.7272905 C173.788838,16.1283666 173.50602,16.4800589 173.128491,16.4800589 L172.719502,16.4800589 C172.59366,16.4800589 172.561871,16.5124253 172.561871,16.6085234 L172.499278,16.9608831 C172.467817,17.0569812 172.499278,17.120713 172.59366,17.120713 C172.782424,17.120713 173.379849,17.0729976 174.481301,17.0729976 C175.833783,17.0729976 176.526246,17.120713 176.71501,17.120713 C176.809392,17.120713 176.871985,17.0886802 176.903446,16.9925821 L176.935234,16.6085234 C176.966367,16.544458 176.935234,16.4800589 176.840852,16.4800589 L176.180178,16.4800589 C175.739401,16.4800589 175.566695,16.1920983 175.833783,15.3268817 L176.888043,11.8997165 Z M171.962807,14.1900546 C171.868425,14.1259892 171.805504,14.1580219 171.774043,14.2220873 C171.522358,14.5103816 170.672919,15.5994934 170.326852,15.8877877 C169.917863,16.25583 169.477413,16.496409 168.942581,16.496409 L165.418984,16.496409 L166.960558,11.6431212 L167.747075,11.6431212 C168.87966,11.6431212 169.477413,11.8196348 169.477413,12.972812 C169.477413,13.0689101 169.477413,13.1009428 169.571795,13.1329755 L169.854941,13.1329755 C169.917863,13.1329755 169.949323,13.1329755 169.980784,13.0368774 C170.043705,12.4282561 170.547404,10.4422287 170.798762,9.83360736 C170.830223,9.80157466 170.798762,9.73717559 170.73584,9.73717559 L170.453022,9.64107749 C170.389773,9.64107749 170.358312,9.67344386 170.326852,9.73717559 C169.760559,10.9867846 169.147076,11.0668663 168.470671,11.0668663 L167.117861,11.0668663 L168.43921,6.91829798 L170.893144,6.91829798 C170.987526,6.91829798 171.081908,6.95066436 171.176618,7.04676246 L172.780785,8.93669176 C172.875167,9.03278986 172.906628,9.06482256 172.969549,9.03278986 L173.158313,8.93669176 C173.252695,8.87262636 173.252695,8.87262636 173.221235,8.76017824 L172.749324,6.61432101 C172.686403,6.35805941 172.65527,6.29366033 172.403257,6.29366033 C172.230223,6.29366033 171.852695,6.31001036 171.223481,6.32602671 C170.594267,6.34204306 169.729426,6.34204306 168.596514,6.34204306 L167.463929,6.34204306 C167.086401,6.34204306 166.567299,6.32602671 166.111119,6.31001036 C165.67067,6.31001036 165.293142,6.29366033 165.198759,6.29366033 C165.072917,6.29366033 165.041456,6.32602671 165.009995,6.42212481 L164.915613,6.77448451 C164.884153,6.87058261 164.931344,6.93464801 165.009995,6.93464801 L165.513366,6.93464801 C165.985277,6.93464801 166.551241,7.15887691 166.284153,8.02342614 L163.877411,15.6308587 C163.720107,16.1597319 163.4055,16.4800589 162.776287,16.4800589 L162.272916,16.4800589 C162.209994,16.4800589 162.178533,16.5124253 162.162803,16.576157 L162.099882,16.9925821 C162.084151,17.0886802 162.115612,17.120713 162.194264,17.120713 C162.288646,17.120713 162.540331,17.1046966 162.886399,17.0886802 C163.248197,17.0886802 163.704377,17.0729976 164.192017,17.0729976 L166.23729,17.0729976 C167.322356,17.0729976 168.454941,17.0729976 169.35157,17.0886802 C170.2482,17.1046966 170.893144,17.120713 171.018987,17.120713 C171.208078,17.120713 171.302133,17.0886802 171.365054,16.8327523 L172.183032,14.4940315 C172.214493,14.3819171 172.183032,14.3502181 172.151571,14.3181854 L171.962807,14.1900546 Z M157.113363,14.1576882 C156.893466,14.4459825 156.704374,14.4142835 156.767295,13.9978584 L157.852689,7.59098469 C157.931668,7.12651054 158.214487,6.93464801 158.717858,6.93464801 L159.158307,6.93464801 C159.28415,6.93464801 159.315611,6.90228163 159.331341,6.80618353 L159.37886,6.43780748 C159.409993,6.32569303 159.37886,6.29366033 159.221229,6.29366033 C159.032465,6.29399401 158.37179,6.34170938 157.238878,6.34170938 C155.886396,6.34170938 155.225721,6.29399401 155.005497,6.29399401 C154.879654,6.29366033 154.879654,6.32569303 154.848193,6.45382383 L154.753483,6.79016718 C154.722678,6.90228163 154.785272,6.93464801 154.911115,6.93464801 L155.414486,6.93464801 C155.917857,6.93464801 156.07516,7.31870674 156.012239,7.79919724 L154.769542,16.7843696 C154.70662,17.1690957 154.738081,17.3933246 154.989766,17.3933246 C155.209991,17.3933246 155.398755,17.2331611 155.493137,17.1046966 L162.209994,8.52026666 C162.823478,7.73513184 163.625725,6.93464801 164.160557,6.93464801 L164.506624,6.93464801 C164.601006,6.93464801 164.632795,6.87024893 164.663928,6.77415083 L164.711119,6.43780748 C164.726849,6.35772573 164.695388,6.29366033 164.538413,6.29366033 C164.349321,6.29399401 163.940004,6.34170938 163.027972,6.34170938 C162.178206,6.34170938 161.643702,6.29399401 161.423477,6.29399401 C161.266174,6.29366033 161.235041,6.32569303 161.235041,6.42179113 L161.156061,6.77415083 C161.140331,6.87024893 161.171464,6.93464801 161.329423,6.93464801 L161.644029,6.93464801 C162.084151,6.93464801 162.02123,7.49488659 161.454938,8.26367139 L157.113363,14.1576882 Z M148.682226,15.3432318 C148.461674,16.1593983 148.367292,16.4800589 147.455259,16.4800589 L146.857506,16.4800589 C146.762797,16.4800589 146.731664,16.5124253 146.731664,16.6085234 L146.637282,16.9608831 C146.637282,17.0569812 146.668414,17.120713 146.762797,17.120713 C146.951888,17.120713 147.769866,17.0729976 149.090887,17.0729976 C150.695382,17.0729976 151.418978,17.120713 151.60807,17.120713 C151.765046,17.120713 151.765046,17.0886802 151.796834,16.9608831 L151.827967,16.6405561 C151.8591,16.544458 151.827967,16.4800589 151.733585,16.4800589 L151.167621,16.4800589 C150.506618,16.4800589 150.270991,16.1593983 150.475485,15.3912808 L152.426048,8.00774346 C152.661675,7.09481151 153.023801,6.93464801 153.684476,6.93464801 L154.093464,6.93464801 C154.218979,6.93464801 154.25044,6.87058261 154.25044,6.80618353 L154.344822,6.48585653 C154.376611,6.35805941 154.313362,6.29366033 154.156058,6.29366033 C153.935833,6.29399401 153.275159,6.34204306 151.922677,6.34204306 C150.66425,6.34204306 149.814483,6.29399401 149.626047,6.29399401 C149.499876,6.29366033 149.437283,6.32602671 149.437283,6.38975843 L149.342573,6.80618353 C149.342573,6.90228163 149.373706,6.93464801 149.499876,6.93464801 L150.223472,6.93464801 C150.632461,6.93464801 150.884474,7.19090961 150.66425,7.99172711 L148.682226,15.3432318 Z M143.428291,16.7526706 C143.522673,16.9765658 143.679977,17.0729976 143.83728,17.0729976 C143.931662,17.0409649 144.057505,16.9125004 144.151887,16.6565725 L147.04627,8.23163869 C147.360877,7.31870674 147.675484,6.93464801 148.053012,6.93464801 L148.462001,6.93464801 C148.556383,6.93464801 148.587844,6.90228163 148.587844,6.80618353 L148.650766,6.51822291 C148.682226,6.38975843 148.650766,6.29366033 148.493462,6.29366033 C148.273237,6.29399401 147.95863,6.34204306 147.140653,6.34204306 C146.039201,6.34204306 145.53583,6.29399401 145.347393,6.29399401 C145.253011,6.29366033 145.221551,6.35805941 145.19009,6.42212481 L145.158629,6.77448451 C145.126841,6.90228163 145.158629,6.93464801 145.315933,6.93464801 L145.787843,6.93464801 C146.322675,6.93464801 146.44819,7.44683754 146.039528,8.74449556 L144.372112,13.933793 C144.246269,14.3181854 144.183348,14.3502181 144.057505,14.1580219 L140.565369,6.75846816 C140.470987,6.53423926 140.376605,6.34204306 140.093459,6.34204306 C138.237278,6.34204306 137.608064,6.29366033 137.4193,6.29366033 C137.293457,6.29366033 137.261669,6.35805941 137.230536,6.45415751 L137.167615,6.74245181 C137.135826,6.87058261 137.167615,6.93464801 137.293457,6.93464801 L137.89121,6.93464801 C138.551885,6.93464801 138.882222,7.38310581 138.583018,8.32807046 L136.664244,14.5103816 C136.192333,15.935503 135.814805,16.4800589 135.090554,16.4800589 L134.745142,16.4800589 C134.650432,16.4800589 134.619299,16.544458 134.587838,16.6085234 L134.540647,16.9448668 C134.524917,17.0569812 134.55605,17.120713 134.650432,17.120713 C134.839524,17.120713 135.342895,17.0729976 136.444019,17.0729976 C137.513682,17.0729976 138.174029,17.120713 138.33166,17.120713 C138.488636,17.120713 138.488636,17.0886802 138.520424,16.9765658 L138.583018,16.6405561 C138.583018,16.544458 138.551885,16.4800589 138.426042,16.4800589 L137.828289,16.4800589 C137.167615,16.4800589 137.104693,15.7272905 137.639525,13.9017603 L139.212232,8.55229936 C139.24402,8.36010316 139.369863,8.36010316 139.464245,8.52026666 L143.428291,16.7526706 Z M97.8578132,15.4713626 C97.8578132,16.7843696 98.9432069,17.4894227 100.060061,17.4894227 C102.356692,17.4894227 103.772422,15.6955915 104.5904,14.2220873 C105.392648,12.8286648 106.069053,10.7465393 106.430851,8.71212919 C106.478042,8.45620126 106.572424,8.47188394 106.603884,8.61636476 C107.374671,11.7876021 108.806132,15.3268817 110.583661,17.7136516 C111.512079,18.9629269 113.572427,21.5415592 116.765686,21.5415592 C118.575004,21.5415592 119.408712,20.6446436 119.6758,20.340333 C119.958946,20.0356887 120.148038,19.5555318 120.148038,19.3473193 C120.148038,19.1067404 120.037926,18.8024297 119.691858,18.8024297 C119.377251,18.8024297 119.172429,19.1230904 119.015453,19.8274761 C118.889611,20.3560157 118.32299,20.708709 117.521071,20.708709 C114.783663,20.708709 112.487361,17.7456843 111.684785,16.3519281 C111.527482,16.0799839 111.260066,15.7436405 111.512079,14.5741133 C112.518494,9.97775451 113.74546,8.27968774 114.830854,7.47920391 C115.334225,7.11049419 115.648832,7.04676246 115.947709,7.04676246 C116.167933,7.04676246 116.435349,7.22260864 116.514329,7.41513851 C116.639844,7.60733471 116.875799,7.86326264 117.206136,7.86326264 C117.599395,7.86326264 117.977251,7.51123661 117.977251,7.06277881 C117.977251,6.53423926 117.536801,5.97333333 116.59298,5.97333333 C115.947709,5.97333333 115.192652,6.13383051 114.390404,6.77448451 C112.644336,8.13587426 111.637594,11.2266961 110.945459,14.3982671 C110.882538,14.7022441 110.803886,14.8467249 110.693774,14.6545287 C109.844335,13.2611063 108.381413,9.16092066 107.846581,6.71008543 C107.78366,6.45415751 107.689278,6.34204306 107.390402,6.34204306 C104.55894,6.34204306 102.985905,6.21391226 101.853321,7.03041243 C101.113994,7.57530201 100.767927,8.44018491 100.767927,9.25701876 C100.767927,10.0258036 101.239837,10.6344249 101.790399,10.6344249 C102.27804,10.6344249 102.576916,10.2980815 102.576916,9.94572181 C102.576916,9.59336211 102.356692,9.30506781 101.869051,9.22465239 C101.538714,9.12855429 101.428601,8.77652826 101.428601,8.58399839 C101.428601,8.19993966 102.042085,7.76716454 102.687029,7.57530201 C103.583658,7.28700771 104.480288,7.30302406 105.439839,7.30302406 C105.785906,7.30302406 105.974671,7.41513851 105.974671,7.78351456 C105.974671,9.36913321 104.731973,12.8606975 103.615119,14.4463162 C102.922984,15.4069635 101.648826,16.6245398 100.138713,16.6245398 C99.2578138,16.6245398 99.0218586,16.2721801 99.08478,15.9675357 C99.1634317,15.615176 99.6038813,15.3912808 99.6038813,14.9268067 C99.6038813,14.3819171 99.2420834,14.1580219 98.8330945,14.1580219 C98.4083752,14.1580219 97.8578132,14.6064797 97.8578132,15.4713626 L97.8578132,15.4713626 Z M90.071293,7.78351456 C90.1817331,7.12651054 90.4016302,6.93464801 90.905329,6.93464801 L91.1570145,6.93464801 C91.2825295,6.93464801 91.3143179,6.87024893 91.3143179,6.80618353 L91.3772393,6.43780748 C91.4083722,6.32602671 91.3772393,6.29366033 91.2199358,6.29366033 C91.030844,6.29399401 90.4330909,6.34170938 89.4578096,6.34170938 C88.4196069,6.34170938 87.7903932,6.29399401 87.6330897,6.29399401 C87.507247,6.29366033 87.4757863,6.32602671 87.4446533,6.42212481 L87.3974623,6.79016718 C87.3814042,6.90228163 87.4128649,6.93464801 87.5390354,6.93464801 L87.9165636,6.93464801 C88.2626312,6.93464801 88.3255526,7.22260864 88.2626312,7.76716454 L87.1454491,16.7206379 C87.0828554,17.1690957 87.1611794,17.3933246 87.3656739,17.3933246 C87.6173594,17.3933246 87.7746628,17.2007947 87.9637547,16.9765658 C88.5454497,16.2881964 92.7926425,10.2817315 92.9499459,10.0575026 C93.0761164,9.89767276 93.2016314,9.89767276 93.1704985,10.089869 L92.7143185,16.816736 C92.6825301,17.1690957 92.7454515,17.3933246 92.997137,17.3933246 C93.2488225,17.3933246 93.4379143,17.137063 93.6424088,16.8804677 C94.3188136,16.0316011 96.3794886,12.9407793 96.8196105,12.2040272 C97.1974665,11.5633732 99.557018,7.59131836 99.7143215,7.36708946 C99.966007,7.03041243 100.249153,6.93464801 100.532299,6.93464801 L100.815446,6.93464801 C100.878367,6.93464801 100.9095,6.90228163 100.941288,6.80618353 L101.00421,6.40610846 C101.01994,6.32602671 100.972749,6.29366033 100.846906,6.29366033 C100.626354,6.29399401 100.217365,6.34170938 99.2735441,6.34170938 C98.4555662,6.34170938 98.078038,6.29399401 97.8578132,6.29399401 C97.7637588,6.29366033 97.7005097,6.32602671 97.7005097,6.45382383 L97.6379161,6.79016718 C97.6061277,6.90228163 97.6693768,6.93464801 97.7637588,6.93464801 L98.0151166,6.93464801 C98.4873547,6.93464801 98.5188153,7.35107311 98.3769145,7.76716454 C98.2356692,8.19993966 97.5432063,9.70514289 96.7884775,10.9864509 C96.4735429,11.5310068 94.932297,14.1256555 94.6176901,14.4780152 C94.4603866,14.6702114 94.3660046,14.6385124 94.3971376,14.3498844 L95.1839825,7.68741646 C95.2469038,7.12651054 95.4042073,6.93464801 95.6870257,6.93464801 L95.9387112,6.93464801 C96.0648817,6.93464801 96.0960147,6.90228163 96.1278031,6.80618353 L96.1749941,6.42212481 C96.1907245,6.32602671 96.1589361,6.29366033 96.033421,6.29366033 C95.8443292,6.29399401 95.4353402,6.34170938 94.5229803,6.34170938 C93.547699,6.34170938 93.1390378,6.29399401 92.9814066,6.29399401 C92.8555639,6.29366033 92.8244309,6.32602671 92.7926425,6.38975843 L92.7297211,6.82219988 C92.7297211,6.90228163 92.7615095,6.93464801 92.8555639,6.93464801 L93.0761164,6.93464801 C93.3589349,6.93464801 93.4851053,7.15887691 93.4851053,7.47920391 C93.4851053,7.81521359 93.2963412,8.45586759 92.918813,9.03278986 C92.8555639,9.12855429 89.3637553,14.2537863 89.2690455,14.3498844 C89.111742,14.5424143 88.986227,14.4780152 89.01736,14.285819 L90.071293,7.78351456 Z M79.2648746,8.05545884 C79.8311669,7.38277214 80.5862234,6.87024893 81.5300441,6.87024893 C82.945775,6.87024893 83.7319645,7.92732804 83.7319645,9.52896304 C83.7008315,12.9884946 81.6558868,16.576157 79.3592566,16.576157 C78.0693684,16.576157 77.0311657,15.6472087 77.0311657,13.661515 C77.0311657,11.8993828 77.9749864,9.52896304 79.2648746,8.05545884 L79.2648746,8.05545884 Z M85.4311693,10.7782383 C85.4311693,7.83122994 83.6693708,6.10179781 81.1521881,6.10179781 C77.8176829,6.10179781 75.4266707,9.24066874 75.4266707,12.5720695 C75.4266707,14.013541 75.8356596,15.294849 76.8106132,16.25583 C77.7858945,17.2168111 79.0131891,17.3129092 79.6420751,17.3129092 C83.1974605,17.3129092 85.4311693,13.981842 85.4311693,10.7782383 L85.4311693,10.7782383 Z M69.1515744,6.34170938 C67.5159463,6.34170938 66.7605621,6.21391226 66.4459552,6.11781416 C66.3204402,6.02138238 66.2571911,5.98934968 66.1942697,5.98934968 C66.0998877,5.98934968 66.0687547,6.05341508 66.0369663,6.14951318 C66.0055056,6.24561128 65.030552,8.48823396 64.8414602,8.84025999 C64.8099995,8.90465906 64.8099995,8.96839079 64.8729209,9.00042349 L65.1246064,9.16092066 C65.1878555,9.16092066 65.2504491,9.16092066 65.3133705,9.09652159 C65.6908987,8.64839746 66.5088766,7.71911549 67.0594387,7.30269039 C67.4212366,7.03007876 68.1133717,6.95066436 69.5605633,6.95066436 L69.9695523,6.95066436 L67.5470793,14.8627413 C67.1852814,16.0636338 66.8864049,16.4800589 66.0055056,16.4800589 L65.5968444,16.4800589 C65.4706739,16.4800589 65.4234829,16.5124253 65.4077526,16.6085234 L65.3762919,16.9608831 C65.3605615,17.0569812 65.4077526,17.120713 65.517865,17.120713 C65.6751684,17.120713 66.5088766,17.0729976 68.0504503,17.0729976 C69.5291026,17.0729976 70.1583164,17.120713 70.3785412,17.120713 C70.4886536,17.120713 70.551575,17.0729976 70.567633,16.9608831 L70.6302267,16.6405561 C70.645957,16.544458 70.6148241,16.4800589 70.5358446,16.4800589 L69.9066309,16.4800589 C69.088653,16.4800589 68.9313496,16.1280329 69.2459564,15.1186692 L71.7313508,6.95066436 L72.0459576,6.95066436 C72.7695534,6.95066436 73.9021382,7.09447784 74.2482058,7.36675579 C74.4684306,7.78318089 74.7519045,8.77619459 74.8774195,9.28871779 C74.9403409,9.48124766 75.00359,9.54531306 75.097972,9.54531306 L75.3493298,9.49693034 C75.4437119,9.48124766 75.4755003,9.44888129 75.4755003,9.35278319 C75.4437119,8.71212919 75.6010153,6.37407576 75.6328037,6.11781416 C75.6328037,6.02138238 75.5698824,5.98934968 75.5066333,5.98934968 C75.4437119,5.98934968 75.4125789,6.02138238 75.3493298,6.05341508 C75.0665113,6.21391226 74.500219,6.34170938 73.084488,6.34170938 L69.1515744,6.34170938 Z M63.1570025,14.1900546 C63.0626205,14.1259892 62.9996991,14.1580219 62.9682384,14.2220873 C62.7165529,14.5103816 61.8671143,15.5994934 61.5210468,15.8877877 C61.1120578,16.25583 60.6716082,16.496409 60.1367765,16.496409 L56.6131795,16.496409 L58.1547532,11.6431212 L58.9412704,11.6431212 C60.0738552,11.6431212 60.6716082,11.8196348 60.6716082,12.972812 C60.6716082,13.0689101 60.6716082,13.1009428 60.7659903,13.1329755 L61.0491365,13.1329755 C61.1120578,13.1329755 61.1435185,13.1329755 61.1749792,13.0368774 C61.2379006,12.4282561 61.7412716,10.4422287 61.9929571,9.83360736 C62.0244178,9.80157466 61.9929571,9.73717559 61.9300357,9.73717559 L61.6468895,9.64107749 C61.5839682,9.64107749 61.5525075,9.67344386 61.5210468,9.73717559 C60.9547544,10.9867846 60.341271,11.0668663 59.6648662,11.0668663 L58.3120567,11.0668663 L59.6334055,6.91829798 L62.0873392,6.91829798 C62.1817212,6.91829798 62.2761033,6.95066436 62.3704853,7.04676246 L63.9749804,8.93669176 C64.0693625,9.03278986 64.1008232,9.06482256 64.1637445,9.03278986 L64.3525087,8.93669176 C64.4468907,8.87262636 64.4468907,8.87262636 64.41543,8.76017824 L63.9435197,6.61432101 C63.8805983,6.35805941 63.8491377,6.29366033 63.5974522,6.29366033 C63.4244184,6.29366033 63.0468901,6.31001036 62.4176764,6.32602671 C61.7884626,6.34204306 60.9232937,6.34204306 59.790709,6.34204306 L58.6581242,6.34204306 C58.280596,6.34204306 57.7614946,6.32602671 57.3053147,6.31001036 C56.864865,6.31001036 56.4873368,6.29366033 56.3929547,6.29366033 C56.267112,6.29366033 56.2356513,6.32602671 56.2041906,6.42212481 L56.1098085,6.77448451 C56.0783478,6.87058261 56.1255389,6.93464801 56.2041906,6.93464801 L56.7075616,6.93464801 C57.1794719,6.93464801 57.7457643,7.15887691 57.4783484,8.02342614 L55.0716058,15.6308587 C54.9143024,16.1597319 54.5996955,16.4800589 53.9704818,16.4800589 L53.4671108,16.4800589 C53.4041894,16.4800589 53.3727287,16.5124253 53.3569984,16.576157 L53.294077,16.9925821 C53.2783466,17.0886802 53.3098073,17.120713 53.3884591,17.120713 C53.4828411,17.120713 53.7345266,17.1046966 54.0805942,17.0886802 C54.4423921,17.0886802 54.8985721,17.0729976 55.3862127,17.0729976 L57.4311574,17.0729976 C58.5165511,17.0729976 59.6491359,17.0729976 60.5457655,17.0886802 C61.4423951,17.1046966 62.0873392,17.120713 62.2131819,17.120713 C62.401946,17.120713 62.4963281,17.0886802 62.5592495,16.8327523 L63.3772273,14.4940315 C63.408688,14.3819171 63.3772273,14.3502181 63.3457667,14.3181854 L63.1570025,14.1900546 Z M52.0517075,14.1099728 C52.2558743,13.2611063 52.4760991,13.1329755 52.7753034,13.1329755 L53.1053129,13.1329755 C53.1996949,13.1329755 53.2311556,13.1009428 53.246886,13.004511 L53.2944047,12.6204523 C53.3098073,12.5403705 53.2626163,12.4919878 53.1525039,12.4919878 C52.9322791,12.4923215 52.5547508,12.5403705 51.4850875,12.5403705 C50.1008172,12.5403705 49.5502552,12.4923215 49.3143,12.4923215 C49.1884573,12.4919878 49.1569966,12.5243542 49.1412662,12.6204523 L49.0783449,12.972812 C49.0468842,13.0849264 49.0626145,13.1329755 49.1884573,13.1329755 L49.7390193,13.1329755 C50.1637386,13.1329755 50.3367724,13.2611063 50.2895813,13.8697276 C50.22666,14.8146922 49.3143,16.4637089 47.4266588,16.4637089 C46.7345236,16.4637089 45.1457589,16.0472838 45.1457589,13.4209361 C45.1457589,11.4832914 45.6648603,9.75319194 46.5772202,8.58399839 C47.6783443,7.11049419 48.810929,6.75846816 49.817671,6.75846816 C51.8626157,6.75846816 52.6334026,8.44018491 52.3663144,9.81759101 C52.3502564,9.91368911 52.3974474,9.96140449 52.4760991,9.97775451 L52.7281123,10.0097872 C52.837897,10.0258036 52.8693577,10.0097872 52.9008184,9.91368911 L53.797448,6.69406908 C53.813506,6.61432101 53.7659873,6.58195463 53.7033936,6.56593828 L53.4671108,6.50187288 C53.3884591,6.48585653 53.341268,6.50187288 53.3255377,6.58195463 C53.2311556,6.93464801 53.1371013,7.09447784 52.9480094,7.09447784 C52.8693577,7.09447784 52.7281123,7.06277881 52.5232901,6.90228163 C52.209011,6.64635371 51.374975,6.10179781 49.7390193,6.10179781 C47.5525015,6.10179781 46.1839616,7.07879516 45.3030624,7.97537709 C44.1390169,9.17693701 43.2109266,10.9227192 43.2109266,12.9888283 C43.2109266,15.7596569 44.6895789,17.3129092 46.8603664,17.3129092 C48.9839628,17.3129092 49.8805924,16.0159185 50.1008172,15.7116078 L50.1951993,15.7433068 C49.6131765,17.9535632 49.3300304,19.2188548 49.1412662,19.9719569 C48.85812,21.0770851 48.4176704,21.7494381 47.5996925,21.7494381 C47.2693553,21.7494381 46.9075574,21.5735919 46.9075574,21.2532649 C46.9075574,21.1251341 46.9390181,21.0450524 47.0019395,20.980987 C47.0805912,20.9005716 47.1435126,20.6286273 47.1435126,20.4364311 C47.1435126,20.2599176 47.0491305,19.7637444 46.4671078,19.7637444 C45.9165458,19.7637444 45.6176692,20.1961858 45.6176692,20.7567581 C45.6176692,21.5248755 46.1839616,22.2619613 47.6468836,22.2619613 C48.8423897,22.2619613 49.9749745,21.1891995 50.3839634,20.340333 C50.5884579,19.8758588 50.9030647,18.9629269 51.0131771,18.418371 L52.0517075,14.1099728 Z M37.3749691,6.87024893 C37.5637332,6.83854991 37.7524973,6.83854991 38.0356435,6.83854991 C39.5772172,6.83854991 40.0494552,7.87961266 40.0494552,8.55196569 C40.0494552,9.70547656 39.3258594,10.6020585 38.5075538,10.9547519 C37.4378905,11.402876 36.6199126,11.3388106 35.9906988,11.3388106 L37.3749691,6.87024893 Z M35.8176651,11.8997165 C36.2423843,11.8997165 36.9345195,11.8036184 37.3120477,12.684184 C37.5008118,13.0689101 38.8850821,16.2081147 39.1053069,16.5921734 C39.3258594,16.9608831 39.3884531,17.120713 39.5457565,17.120713 C39.797442,17.120713 40.0805882,17.0729976 40.9929482,17.0729976 C41.8423867,17.0729976 42.0940722,17.120713 42.2513757,17.120713 C42.3457577,17.120713 42.3775461,17.0569812 42.4086791,16.9608831 L42.4401398,16.6405561 C42.4716005,16.544458 42.4401398,16.4800589 42.3457577,16.4800589 L41.9367688,16.4800589 C41.3704764,16.4800589 40.9929482,16.224131 40.5685566,15.5514443 C40.300813,15.1186692 39.2311497,12.8446812 39.1367676,12.684184 C38.9794642,12.363857 38.7277787,11.8837002 38.2244077,11.7552357 L38.2244077,11.691504 C40.2693523,11.4672751 41.9367688,10.1856334 41.9367688,8.61636476 C41.9367688,6.40610846 39.5772172,6.29366033 38.2244077,6.29366033 C37.783958,6.29366033 36.1480023,6.34170938 34.5120465,6.34170938 C34.3547431,6.34170938 34.3232824,6.37374208 34.2918217,6.46984018 L34.2289003,6.80618353 C34.1974396,6.90228163 34.2289003,6.93464801 34.3547431,6.93464801 L34.8895748,6.93464801 C35.4244065,6.93464801 35.5187885,7.22260864 35.3614851,7.73513184 L32.8446301,15.7272905 C32.7187873,16.1283666 32.4356411,16.4800589 32.0581129,16.4800589 L31.649124,16.4800589 C31.5232812,16.4800589 31.4918205,16.5124253 31.4918205,16.6085234 L31.4288991,16.9608831 C31.3974385,17.0569812 31.4288991,17.120713 31.5232812,17.120713 C31.7120453,17.120713 32.3097984,17.0729976 33.4109225,17.0729976 C34.763732,17.0729976 35.4558672,17.120713 35.6446313,17.120713 C35.7390133,17.120713 35.8019347,17.0886802 35.8333954,16.9925821 L35.8648561,16.6085234 C35.8963168,16.544458 35.8648561,16.4800589 35.770474,16.4800589 L35.1097996,16.4800589 C34.66935,16.4800589 34.4963162,16.1920983 34.763732,15.3268817 L35.8176651,11.8997165 Z M25.6715933,8.05545884 C26.2378857,7.38277214 26.9929422,6.87024893 27.9367628,6.87024893 C29.3524938,6.87024893 30.1393387,7.92732804 30.1393387,9.52896304 C30.1075503,12.9884946 28.0629333,16.576157 25.7659754,16.576157 C24.4760872,16.576157 23.4378845,15.6472087 23.4378845,13.661515 C23.4378845,11.8993828 24.3817051,9.52896304 25.6715933,8.05545884 L25.6715933,8.05545884 Z M31.8382158,10.7782383 C31.8382158,7.83122994 30.0760896,6.10179781 27.5592346,6.10179781 C24.2244017,6.10179781 21.8333894,9.24066874 21.8333894,12.5720695 C21.8333894,14.013541 22.2423784,15.294849 23.2176597,16.25583 C24.192941,17.2168111 25.4199078,17.3129092 26.0494493,17.3129092 C29.6041793,17.3129092 31.8382158,13.981842 31.8382158,10.7782383 L31.8382158,10.7782383 Z M19.8988849,14.1900546 C19.8045028,14.1259892 19.7415814,14.1580219 19.7101207,14.2220873 C19.4584352,14.5103816 18.6089967,15.5994934 18.2629291,15.8877877 C17.8539402,16.25583 17.4134906,16.496409 16.8786589,16.496409 L13.3550619,16.496409 L14.8966356,11.6431212 L15.6831527,11.6431212 C16.8157375,11.6431212 17.4134906,11.8196348 17.4134906,12.972812 C17.4134906,13.0689101 17.4134906,13.1009428 17.5078726,13.1329755 L17.7910188,13.1329755 C17.8539402,13.1329755 17.8854009,13.1329755 17.9168616,13.0368774 C17.9797829,12.4282561 18.4831539,10.4422287 18.7348394,9.83360736 C18.7663001,9.80157466 18.7348394,9.73717559 18.6719181,9.73717559 L18.3887719,9.64107749 C18.3258505,9.64107749 18.2943898,9.67344386 18.2629291,9.73717559 C17.6966367,10.9867846 17.0831533,11.0668663 16.4067486,11.0668663 L15.053939,11.0668663 L16.3752879,6.91829798 L18.8292215,6.91829798 C18.9236036,6.91829798 19.0179856,6.95066436 19.1123677,7.04676246 L20.7168627,8.93669176 C20.8112448,9.03278986 20.8427055,9.06482256 20.9056269,9.03278986 L21.094391,8.93669176 C21.1887731,8.87262636 21.1887731,8.87262636 21.1573124,8.76017824 L20.6854021,6.61432101 C20.6224807,6.35805941 20.59102,6.29366033 20.3393345,6.29366033 C20.1663007,6.29366033 19.7887725,6.31001036 19.1595587,6.32602671 C18.530345,6.34204306 17.6651761,6.34204306 16.5325913,6.34204306 L15.4000066,6.34204306 C15.0224783,6.34204306 14.503377,6.32602671 14.047197,6.31001036 C13.6067474,6.31001036 13.2292191,6.29366033 13.1348371,6.29366033 C13.0089943,6.29366033 12.9775336,6.32602671 12.9460729,6.42212481 L12.8516909,6.77448451 C12.8202302,6.87058261 12.8674212,6.93464801 12.9460729,6.93464801 L13.4494439,6.93464801 C13.9213542,6.93464801 14.4876466,7.15887691 14.2202308,8.02342614 L11.8134882,15.6308587 C11.6561847,16.1597319 11.3415779,16.4800589 10.7123641,16.4800589 L10.2089931,16.4800589 C10.1460717,16.4800589 10.114611,16.5124253 10.0988807,16.576157 L10.0359593,16.9925821 C10.020229,17.0886802 10.0516897,17.120713 10.1303414,17.120713 C10.2247235,17.120713 10.476409,17.1046966 10.8224765,17.0886802 C11.1842744,17.0886802 11.6404544,17.0729976 12.128095,17.0729976 L14.1730397,17.0729976 C15.2584335,17.0729976 16.3910182,17.0729976 17.2876478,17.0886802 C18.1842774,17.1046966 18.8292215,17.120713 18.9550642,17.120713 C19.1438284,17.120713 19.2382104,17.0886802 19.3011318,16.8327523 L20.1191097,14.4940315 C20.1505704,14.3819171 20.1191097,14.3502181 20.087649,14.3181854 L19.8988849,14.1900546 Z M7.80225051,18.418371 C7.69213811,18.9629269 7.37753123,19.8758588 7.17303676,20.340333 C6.76372011,21.1891995 5.63179079,22.2619613 4.43595694,22.2619613 C2.97336269,22.2619613 2.4067426,21.5248755 2.4067426,20.7567581 C2.4067426,20.1961858 2.70594684,19.7637444 3.25618116,19.7637444 C3.8385316,19.7637444 3.93291366,20.2599176 3.93291366,20.4364311 C3.93291366,20.6286273 3.86966457,20.9005716 3.79134056,20.980987 C3.72841919,21.0450524 3.6969585,21.1251341 3.6969585,21.2532649 C3.6969585,21.5735919 4.05875641,21.7494381 4.3884382,21.7494381 C5.20674379,21.7494381 5.64752113,21.0770851 5.9303396,19.9719569 C6.11943144,19.2188548 6.40224992,17.9535632 6.98460035,15.7433068 L6.89021829,15.7116078 C6.66999348,16.0159185 5.77303616,17.3129092 3.64943976,17.3129092 C1.47865231,17.3129092 0,15.7596569 0,12.9888283 C0,10.9227192 0.928090283,9.17693701 2.09246344,7.97537709 C2.97336269,7.07879516 4.3419026,6.10179781 6.52842038,6.10179781 C8.16404842,6.10179781 8.99808435,6.64635371 9.31269123,6.90228163 C9.5171857,7.06277881 9.65843108,7.09447784 9.73741051,7.09447784 C9.92617464,7.09447784 10.020229,6.93464801 10.1149388,6.58195463 C10.1303414,6.50187288 10.1775324,6.48585653 10.2565119,6.50187288 L10.4921393,6.56593828 C10.5553884,6.58195463 10.6025794,6.61432101 10.5865214,6.69406908 L9.69021948,9.91368911 C9.65843108,10.0097872 9.6272981,10.0258036 9.5171857,10.0097872 L9.2655002,9.97775451 C9.18652076,9.96140449 9.13932973,9.91368911 9.15538779,9.81759101 C9.42280364,8.44018491 8.65201679,6.75846816 6.60674438,6.75846816 C5.6003301,6.75846816 4.46774535,7.11049419 3.36662128,8.58399839 C2.45426134,9.75319194 1.93516,11.4832914 1.93516,13.4209361 C1.93516,16.0472838 3.52392472,16.4637089 4.21605985,16.4637089 C6.1037011,16.4637089 7.01573332,14.8146922 7.0786547,13.8697276 C7.12584573,13.2611063 6.95313966,13.1329755 6.52842038,13.1329755 L5.97753063,13.1329755 C5.8520156,13.1329755 5.83595754,13.0849264 5.86774594,12.972812 L5.9303396,12.6204523 C5.94639766,12.5243542 5.97753063,12.4919878 6.10337338,12.4923215 C6.33932854,12.4923215 6.88989057,12.5403705 8.27416082,12.5403705 C9.3438242,12.5403705 9.72168017,12.4923215 9.94190498,12.4919878 C10.0520174,12.4919878 10.0992084,12.5403705 10.0834781,12.6204523 L10.036287,13.004511 C10.020229,13.1009428 9.98909601,13.1329755 9.89471395,13.1329755 L9.56437673,13.1329755 C9.2655002,13.1329755 9.04494767,13.2611063 8.84078092,14.1099728 L7.80225051,18.418371 Z" ></path>
            </g>
        </g>
    </g>
</svg>
