<svg width="31" height="22" xmlns="http://www.w3.org/2000/svg"><path d="M17.571 2.474c.303-.976 0-1.346-.583-1.346h-.778c-.108 0-.173-.043-.151-.173l.107-.52c.022-.131.065-.175.281-.175.26 0 1.016.065 2.961.065C21.16.325 21.894.26 22.11.26c.173 0 .216.065.194.217l-.086.478c-.021.108-.086.173-.216.173h-.605c-.39 0-.973.087-1.297 1.172l-1.772 5.796c-.13.478-.627 2.083-.627 3.06 0 2.627 2.291 2.908 2.918 2.908 1.037 0 2.14-.39 2.83-.976 1.017-.846 1.73-2.018 2.4-4.428l1.578-5.556c.41-1.433.173-1.976-.519-1.976h-.691c-.195 0-.216-.065-.195-.173l.086-.478c.022-.152.065-.217.26-.217.26 0 1.08.065 2.464.065 1.253 0 1.75-.065 1.966-.065.195 0 .217.065.195.217l-.064.478c-.022.108-.066.173-.238.173h-.325c-.691 0-1.145.652-1.47 1.715l-1.858 5.97c-1.167 3.863-2.896 6.38-6.895 6.38-2.788 0-4.884-1.28-4.884-3.972 0-.911.324-2.257.454-2.713l1.858-6.034zm-6.85 14.217c-.152.739-.584 1.975-.865 2.605-.562 1.15-2.118 2.604-3.761 2.604-2.01 0-2.788-.998-2.788-2.04 0-.76.41-1.345 1.167-1.345.8 0 .93.672.93.91 0 .261-.087.63-.195.739-.087.087-.13.195-.13.369 0 .434.497.673.95.673 1.125 0 1.73-.912 2.12-2.409.259-1.02.647-2.735 1.447-5.73l-.13-.044c-.302.412-1.534 2.17-4.451 2.17C2.032 15.194 0 13.089 0 9.334c0-2.8 1.276-5.166 2.875-6.794C4.085 1.324 5.965 0 8.97 0c2.248 0 3.392.738 3.825 1.085.281.217.476.26.584.26.26 0 .389-.217.518-.694.022-.108.087-.13.195-.108l.324.086c.087.022.151.065.13.174l-1.232 4.363c-.043.13-.087.151-.238.13l-.346-.044c-.108-.021-.173-.086-.15-.216C12.945 3.169 11.886.89 9.077.89c-1.384 0-2.94.477-4.453 2.474C3.371 4.948 2.658 7.292 2.658 9.92c0 3.56 2.184 4.125 3.134 4.125 2.594 0 3.848-2.236 3.934-3.517.065-.825-.173-.998-.756-.998h-.757c-.172 0-.194-.065-.151-.218l.086-.477c.022-.13.065-.174.238-.174.324 0 1.08.065 2.983.065 1.47 0 1.988-.065 2.29-.065.152 0 .217.065.195.174l-.065.521c-.021.13-.065.174-.194.174h-.454c-.41 0-.713.173-.994 1.323l-1.427 5.84z" fill="#FFF" fill-rule="evenodd"/></svg>