<svg width="300" height="22" xmlns="http://www.w3.org/2000/svg"><path d="M172.66 3.313s-5.185 4.17-3.535 9.487c0 0 1.214 3.772 5.891 2.19 0 0 1.313-.605 2.086-1.38.775-.773.682.037.928.542.165.338.554 1.41 2.068 1.275 1.514-.134 2.694-1.75 2.254-2.288-.302-.37-.774.539-1.144.774-.37.235-1.207.285-1.375-.791-.168-1.077 2.317-7.554 2.317-7.554s.747-1.9 1.631-3.262c.515-.793.96-.945 1.465-1.08 1.538-.407.572-.874.135-.874-.437 0-2.356-.337-3.197.774-.842 1.11-4.341 10.095-4.341 10.095s-1.615 3.331-4.711 2.322c-3.096-1.01-2.033-5.27-1.48-6.427.266-.558 1.785-3.289 3.7-5.687 1.305-1.633-.09-.811-1.57-.946-1.482-.135-5.072-.89-6.562.19-1.746 1.265-2.198 3.414-.684 4.424 1.514 1.01 2.39-.842 1.817-1.48-.587-.657-.675.017-1.48-.068-.64-.067-.539-1.65.976-1.817 1.514-.169 3.7.338 5.031.317 1.35-.022-.22 1.264-.22 1.264zm119.832 7.177c.215-.944.429-1.373.73-1.845.3-.515 4.204-5.964 4.547-6.435.43-.58.858-.923 1.587-.923h.387c.128 0 .171-.043.171-.214L300 .644c0-.129-.043-.215-.215-.215-.3 0-.944.065-2.273.065-1.202 0-2.017-.065-2.317-.065-.214 0-.257.043-.257.172l-.044.472c-.043.129 0 .214.129.214h.472c.73 0 1.009.322.73 1.137-.215.643-3.26 5.148-3.561 5.62-.172.3-.344.3-.43-.043l-1.716-5.77c-.128-.43-.128-.944.558-.944h.558c.129 0 .172-.043.215-.172l.042-.514c0-.129-.042-.172-.214-.172-.257 0-.987.065-2.832.065-1.716 0-2.273-.065-2.574-.065-.128 0-.171.043-.214.172l-.086.514c0 .13.043.172.172.172h.472c.73 0 1.158.3 1.33.815l2.23 6.586c.086.257.13.815.043 1.115l-.686 3.175c-.129.622-.43 1.094-1.416 1.094h-.471c-.172 0-.215.086-.215.172l-.086.471c0 .172.043.215.171.215.258 0 .901-.064 2.832-.064 1.716 0 2.402.064 2.746.064.172 0 .214-.086.214-.215l.086-.471c0-.086-.043-.172-.171-.172h-.473c-.729 0-1.008-.086-.771-1.201l.514-2.381zM276.752.493c-2.232 0-3.26-.17-3.69-.3-.171-.129-.258-.172-.343-.172-.13 0-.172.086-.214.215-.043.129-1.374 3.132-1.632 3.604-.042.086-.042.171.044.214l.343.215c.086 0 .172 0 .258-.086.514-.6 1.63-1.845 2.38-2.403.494-.365 1.438-.471 3.411-.471h.558l-3.304 10.596c-.493 1.609-.9 2.167-2.101 2.167h-.558c-.172 0-.236.043-.257.172l-.044.471c-.022.13.044.215.194.215.214 0 1.35-.064 3.453-.064 2.017 0 2.875.064 3.175.064.15 0 .236-.064.257-.215l.086-.429c.022-.128-.022-.214-.13-.214h-.857c-1.116 0-1.33-.472-.9-1.824l3.389-10.94h.429c.986 0 2.53.194 3.002.558.301.558.687 1.888.858 2.574.086.258.172.344.301.344l.343-.065c.129-.02.171-.064.171-.193-.042-.858.172-3.99.215-4.332 0-.13-.085-.173-.171-.173-.086 0-.129.043-.215.086-.386.215-1.158.386-3.089.386h-5.362zM263.414 12.55c-.3 1.093-.429 1.523-1.673 1.523h-.815c-.129 0-.171.043-.171.172l-.13.471c0 .13.044.215.172.215.258 0 1.373-.064 3.175-.064 2.188 0 3.175.064 3.432.064.215 0 .215-.043.258-.215l.043-.429c.042-.128 0-.214-.13-.214h-.771c-.901 0-1.223-.43-.944-1.459l2.66-9.888c.321-1.223.815-1.438 1.716-1.438h.557c.172 0 .215-.085.215-.172l.129-.429c.043-.17-.043-.257-.258-.257-.3 0-1.201.065-3.046.065-1.716 0-2.874-.065-3.132-.065-.171 0-.257.043-.257.129l-.129.557c0 .13.043.172.215.172h.987c.557 0 .901.344.6 1.416l-2.703 9.846zM261.613.601c0-.086-.043-.129-.172-.129l-.257-.043c-.172 0-.215 0-.215.086-.085.43-.214.73-.343.73a.617.617 0 01-.3-.086c-.344-.258-1.373-.987-2.531-.987-2.79 0-3.99 2.23-3.99 3.775 0 2.21 1.115 3.325 2.445 4.783.944 1.03 2.017 1.846 2.017 3.218 0 1.18-.944 2.252-2.317 2.252-1.33 0-3.003-1.458-2.402-4.547 0-.129-.044-.171-.129-.215l-.344-.085c-.128 0-.17 0-.214.085l-1.588 4.677c-.042.171-.042.171.086.214l.258.129c.128.043.171 0 .214-.086.172-.3.386-.643.515-.815.13-.129.343-.172.558.043.686.772 1.673 1.587 3.046 1.587 2.23 0 4.204-1.458 4.204-4.204 0-2.38-1.416-3.582-2.402-4.569-.987-.987-1.93-1.673-1.93-3.175 0-.922.685-2.08 1.93-2.08 2.187 0 2.445 2.574 2.316 3.432 0 .129.043.214.215.214h.386c.086 0 .129-.043.171-.128L261.613.6zm-18.279.6c.258-.042.515-.042.901-.042 2.103 0 2.746 1.394 2.746 2.295a3.516 3.516 0 01-2.102 3.218c-1.459.6-2.575.514-3.432.514l1.887-5.985zm-2.123 6.736c.579 0 1.523-.129 2.038 1.05.257.516 2.145 4.72 2.445 5.235.3.493.386.708.6.708.344 0 .73-.064 1.974-.064 1.158 0 1.502.064 1.716.064.129 0 .172-.086.215-.215l.042-.429c.044-.128 0-.214-.128-.214h-.558c-.772 0-1.287-.343-1.866-1.244-.365-.58-1.823-3.625-1.952-3.84-.214-.43-.558-1.072-1.244-1.244v-.086c2.788-.3 5.062-2.017 5.062-4.118 0-2.96-3.217-3.111-5.062-3.111-.6 0-2.832.064-5.062.064-.215 0-.258.043-.3.172l-.087.45c-.042.13 0 .172.172.172h.73c.729 0 .857.386.643 1.073l-3.432 10.703c-.172.537-.558 1.009-1.073 1.009h-.557c-.172 0-.215.043-.215.172l-.086.471c-.043.13 0 .215.129.215.257 0 1.072-.064 2.574-.064 1.844 0 2.789.064 3.046.064.129 0 .214-.043.257-.172l.043-.514c.043-.086 0-.172-.128-.172h-.901c-.601 0-.837-.386-.473-1.545l1.438-4.59zm-6.716 3.068c-.129-.086-.215-.043-.258.042-.343.387-1.501 1.845-1.973 2.231-.558.493-1.158.815-1.888.815h-4.805l2.102-6.5h1.073c1.544 0 2.36.237 2.36 1.781 0 .129 0 .172.128.215h.386c.086 0 .13 0 .172-.129.086-.815.773-3.475 1.115-4.29.043-.043 0-.13-.085-.13l-.386-.128c-.086 0-.13.044-.172.129-.772 1.673-1.609 1.78-2.531 1.78h-1.845l1.802-5.555h3.346c.129 0 .258.043.387.172l2.187 2.53c.129.13.172.172.258.13l.257-.13c.129-.085.129-.085.086-.236l-.644-2.874c-.086-.343-.128-.429-.472-.429-.236 0-.75.022-1.608.043-.858.022-2.038.022-3.583.022h-1.544c-.515 0-1.223-.022-1.845-.043-.6 0-1.115-.022-1.244-.022-.172 0-.214.043-.257.172l-.13.472c-.042.129.022.214.13.214h.686c.644 0 1.415.3 1.051 1.459l-3.282 10.188c-.214.708-.643 1.138-1.501 1.138h-.687c-.086 0-.128.043-.15.128l-.086.558c-.021.129.022.172.129.172.129 0 .472-.022.944-.043.493 0 1.115-.021 1.78-.021h2.79c1.479 0 3.023 0 4.246.02 1.223.022 2.102.044 2.274.044.258 0 .386-.043.472-.386l1.115-3.132c.043-.15 0-.193-.043-.236l-.257-.171zm-20.25-.044c-.3.386-.557.344-.471-.214l1.48-8.58c.107-.623.493-.88 1.18-.88h.6c.172 0 .215-.043.236-.172l.065-.493c.042-.15 0-.193-.215-.193-.258 0-1.158.064-2.703.064-1.845 0-2.746-.064-3.046-.064-.171 0-.171.043-.214.215l-.13.45c-.042.15.044.193.215.193h.687c.686 0 .9.515.815 1.158l-1.695 12.034c-.085.515-.043.816.3.816.301 0 .558-.215.687-.387l9.16-11.497c.836-1.051 1.93-2.124 2.66-2.124h.471c.129 0 .172-.086.215-.214l.064-.45c.022-.108-.021-.194-.235-.194-.258 0-.816.064-2.06.064-1.159 0-1.888-.064-2.188-.064-.215 0-.257.043-.257.172l-.108.472c-.021.128.021.214.237.214h.429c.6 0 .514.75-.258 1.78l-5.92 7.894zm-11.497 1.588c-.3 1.093-.429 1.523-1.673 1.523h-.815c-.129 0-.171.043-.171.172l-.13.471c0 .13.043.215.172.215.258 0 1.373-.064 3.175-.064 2.188 0 3.174.064 3.432.064.214 0 .214-.043.258-.215l.042-.429c.043-.128 0-.214-.129-.214h-.771c-.902 0-1.223-.43-.944-1.459l2.66-9.888c.321-1.223.815-1.438 1.716-1.438h.557c.172 0 .215-.085.215-.172l.128-.429c.044-.17-.043-.257-.257-.257-.3 0-1.201.065-3.046.065-1.716 0-2.875-.065-3.131-.065-.173 0-.258.043-.258.129l-.129.557c0 .13.042.172.214.172h.987c.558 0 .902.344.601 1.416l-2.703 9.846zm-7.164 1.888c.129.3.343.429.558.429.128-.043.3-.215.429-.558l3.947-11.283c.429-1.223.858-1.738 1.372-1.738h.558c.129 0 .172-.043.172-.172l.086-.385c.042-.172 0-.301-.215-.301-.3 0-.73.065-1.845.065-1.502 0-2.188-.065-2.445-.065-.129 0-.172.086-.215.172l-.042.472c-.044.171 0 .214.214.214h.644c.729 0 .9.686.343 2.424l-2.274 6.95c-.172.515-.257.558-.429.3l-4.762-9.91c-.129-.3-.257-.557-.643-.557-2.532 0-3.39-.065-3.647-.065-.172 0-.215.086-.257.215l-.086.386c-.044.172 0 .257.171.257h.815c.901 0 1.352.601.944 1.867l-2.617 8.28c-.643 1.908-1.158 2.638-2.146 2.638h-.47c-.13 0-.172.086-.215.172l-.064.45c-.022.15.02.236.15.236.257 0 .943-.064 2.445-.064 1.459 0 2.36.064 2.574.064.214 0 .214-.043.257-.194l.086-.45c0-.128-.043-.214-.214-.214h-.815c-.901 0-.987-1.009-.258-3.454l2.145-7.164c.043-.257.215-.257.344-.043l5.405 11.026zm-62.142-1.716c0 1.758 1.48 2.702 3.004 2.702 3.131 0 5.062-2.402 6.177-4.376 1.094-1.866 2.017-4.654 2.51-7.379.064-.343.193-.322.236-.128 1.051 4.247 3.003 8.987 5.427 12.184 1.266 1.673 4.075 5.126 8.43 5.126 2.467 0 3.604-1.2 3.968-1.608.386-.408.644-1.052.644-1.33 0-.323-.15-.73-.622-.73-.429 0-.708.43-.922 1.373-.172.708-.944 1.18-2.038 1.18-3.733 0-6.864-3.968-7.959-5.835-.214-.364-.579-.815-.235-2.381 1.372-6.156 3.045-8.43 4.526-9.502.686-.494 1.115-.58 1.523-.58.3 0 .664.236.772.494.171.257.493.6.944.6.536 0 1.051-.471 1.051-1.072 0-.708-.6-1.459-1.888-1.459-.88 0-1.91.215-3.003 1.073-2.381 1.823-3.754 5.963-4.698 10.21-.086.408-.193.601-.343.344-1.158-1.867-3.153-7.358-3.882-10.64-.086-.343-.215-.493-.623-.493-3.86 0-6.006-.172-7.55.922-1.008.73-1.48 1.888-1.48 2.982 0 1.03.643 1.845 1.394 1.845.665 0 1.073-.45 1.073-.923 0-.472-.3-.858-.966-.966-.45-.128-.6-.6-.6-.858 0-.514.836-1.094 1.716-1.35 1.222-.387 2.445-.365 3.754-.365.472 0 .729.15.729.643 0 2.124-1.695 6.8-3.218 8.924-.943 1.286-2.681 2.917-4.74 2.917-1.201 0-1.523-.472-1.437-.88.107-.472.707-.772.707-1.394 0-.73-.493-1.03-1.05-1.03-.58 0-1.33.601-1.33 1.76zM122.824 2.424c.151-.88.451-1.137 1.138-1.137h.343c.171 0 .215-.086.215-.172l.085-.493c.043-.15 0-.193-.214-.193-.258 0-1.073.064-2.403.064-1.416 0-2.274-.064-2.488-.064-.172 0-.215.043-.257.172l-.065.493c-.022.15.021.193.193.193h.515c.472 0 .558.386.472 1.115l-1.523 11.992c-.086.6.021.9.3.9.343 0 .558-.257.816-.558.793-.921 6.584-8.966 6.799-9.266.172-.214.343-.214.3.043l-.621 9.01c-.044.471.042.772.385.772s.601-.344.88-.687c.923-1.137 3.733-5.277 4.333-6.263.515-.858 3.733-6.178 3.947-6.478.343-.451.73-.58 1.115-.58h.387c.085 0 .128-.043.171-.172l.086-.535c.021-.108-.043-.151-.214-.151-.301 0-.859.064-2.146.064-1.115 0-1.63-.064-1.93-.064-.129 0-.215.043-.215.215l-.085.45c-.044.15.043.193.171.193h.343c.644 0 .687.558.493 1.115-.192.58-1.137 2.596-2.166 4.312-.43.73-2.53 4.204-2.96 4.676-.214.258-.343.215-.3-.171l1.072-8.923c.086-.752.3-1.009.686-1.009h.344c.172 0 .214-.043.257-.172l.065-.514c.021-.129-.022-.172-.193-.172-.258 0-.816.064-2.06.064-1.33 0-1.887-.064-2.102-.064-.172 0-.214.043-.258.129l-.085.579c0 .107.043.15.171.15h.301c.386 0 .558.3.558.73 0 .45-.258 1.308-.773 2.08-.086.129-4.847 6.993-4.976 7.122-.215.257-.386.171-.344-.086l1.437-8.709zm-14.736.365c.773-.901 1.802-1.588 3.09-1.588 1.93 0 3.002 1.416 3.002 3.561-.043 4.633-2.831 9.438-5.963 9.438-1.759 0-3.175-1.244-3.175-3.903 0-2.36 1.288-5.535 3.046-7.508zm8.409 3.646c0-3.947-2.402-6.263-5.835-6.263-4.547 0-7.807 4.204-7.807 8.666 0 1.93.557 3.646 1.887 4.933s3.003 1.416 3.86 1.416c4.85 0 7.895-4.461 7.895-8.752zM94.297.493c-2.23 0-3.26-.17-3.689-.3-.171-.129-.257-.172-.343-.172-.129 0-.171.086-.215.215-.042.129-1.372 3.132-1.63 3.604-.043.086-.043.171.043.214l.343.215c.087 0 .172 0 .258-.086.514-.6 1.63-1.845 2.38-2.403.494-.365 1.438-.471 3.411-.471h.558L92.11 11.905c-.494 1.609-.901 2.167-2.102 2.167h-.558c-.172 0-.236.043-.258.172l-.043.471c-.021.13.043.215.194.215.214 0 1.35-.064 3.453-.064 2.016 0 2.874.064 3.175.064.15 0 .236-.064.258-.215l.085-.429c.021-.128-.021-.214-.129-.214h-.858c-1.115 0-1.33-.472-.9-1.824l3.388-10.94h.43c.986 0 2.53.194 3.003.558.3.558.686 1.888.858 2.574.085.258.172.344.3.344l.343-.065c.129-.02.172-.064.172-.193-.043-.858.171-3.99.215-4.332 0-.13-.086-.173-.172-.173s-.129.043-.215.086c-.386.215-1.158.386-3.088.386h-5.363zm-8.174 10.512c-.129-.086-.214-.043-.257.042-.343.387-1.502 1.845-1.974 2.231-.557.493-1.158.815-1.887.815H77.2l2.102-6.5h1.072c1.545 0 2.36.237 2.36 1.781 0 .129 0 .172.129.215h.386c.086 0 .129 0 .171-.129.086-.815.773-3.475 1.116-4.29.043-.043 0-.13-.086-.13l-.386-.128c-.086 0-.129.044-.172.129-.772 1.673-1.608 1.78-2.53 1.78h-1.846l1.802-5.555h3.347c.128 0 .257.043.386.172l2.188 2.53c.128.13.171.172.257.13l.257-.13c.13-.085.13-.085.086-.236L87.196.858C87.11.515 87.067.43 86.724.43c-.236 0-.751.022-1.609.043-.858.022-2.038.022-3.582.022h-1.545c-.514 0-1.222-.022-1.844-.043-.601 0-1.116-.022-1.245-.022-.171 0-.214.043-.257.172l-.129.472c-.043.129.022.214.13.214h.685c.644 0 1.416.3 1.052 1.459l-3.282 10.188c-.215.708-.644 1.138-1.502 1.138h-.686c-.086 0-.129.043-.15.128l-.086.558c-.022.129.021.172.128.172.13 0 .472-.022.944-.043.494 0 1.116-.021 1.78-.021h2.79c1.48 0 3.024 0 4.246.02 1.223.022 2.103.044 2.274.044.258 0 .386-.043.472-.386l1.115-3.132c.043-.15 0-.193-.042-.236l-.258-.171zm-15.143-.108c.278-1.137.578-1.308.986-1.308h.45c.129 0 .172-.043.193-.172l.065-.515c.021-.107-.043-.172-.193-.172-.3 0-.815.065-2.274.065-1.888 0-2.638-.064-2.96-.064-.172 0-.215.043-.236.171l-.086.472c-.043.15-.021.215.15.215h.75c.58 0 .816.171.752.987-.086 1.265-1.33 3.474-3.904 3.474-.944 0-3.11-.558-3.11-4.076 0-2.595.707-4.912 1.951-6.478 1.502-1.973 3.046-2.444 4.42-2.444 2.788 0 3.839 2.252 3.475 4.097-.022.128.042.192.15.214l.343.043c.15.021.193 0 .235-.129L73.36.965c.022-.107-.043-.15-.128-.171L72.91.708c-.108-.022-.172 0-.193.107-.13.472-.257.687-.515.687-.107 0-.3-.043-.58-.258C71.195.901 70.058.172 67.827.172c-2.982 0-4.848 1.309-6.05 2.51-1.586 1.609-2.852 3.947-2.852 6.714 0 3.71 2.016 5.79 4.976 5.79 2.896 0 4.119-1.736 4.42-2.144l.128.043c-.794 2.96-1.18 4.655-1.437 5.663-.386 1.48-.987 2.38-2.102 2.38-.45 0-.944-.235-.944-.664 0-.171.043-.279.129-.364.107-.108.193-.472.193-.73 0-.236-.13-.9-.923-.9-.75 0-1.158.578-1.158 1.33 0 1.028.772 2.015 2.767 2.015 1.63 0 3.175-1.437 3.732-2.573.28-.623.708-1.845.858-2.575l1.417-5.77zM50.966 1.201c.257-.042.515-.042.9-.042 2.103 0 2.747 1.394 2.747 2.295a3.515 3.515 0 01-2.103 3.218c-1.458.6-2.574.514-3.432.514L50.966 1.2zm-2.124 6.736c.58 0 1.523-.129 2.038 1.05.257.516 2.145 4.72 2.445 5.235.301.493.387.708.601.708.343 0 .73-.064 1.973-.064 1.159 0 1.502.064 1.717.064.128 0 .172-.086.214-.215l.043-.429c.043-.128 0-.214-.129-.214h-.557c-.773 0-1.288-.343-1.866-1.244-.365-.58-1.824-3.625-1.953-3.84-.214-.43-.557-1.072-1.244-1.244v-.086c2.789-.3 5.063-2.017 5.063-4.118 0-2.96-3.218-3.111-5.063-3.111-.6 0-2.831.064-5.062.064-.215 0-.258.043-.3.172l-.086.45c-.043.13 0 .172.171.172h.73c.729 0 .858.386.643 1.073l-3.432 10.703c-.171.537-.558 1.009-1.072 1.009h-.558c-.172 0-.215.043-.215.172l-.085.471c-.043.13 0 .215.128.215.258 0 1.073-.064 2.574-.064 1.845 0 2.789.064 3.046.064.129 0 .215-.043.258-.172l.043-.514c.043-.086 0-.172-.13-.172h-.9c-.6 0-.837-.386-.472-1.545l1.437-4.59zM35.007 2.79c.772-.901 1.802-1.588 3.089-1.588 1.93 0 3.003 1.416 3.003 3.561-.043 4.633-2.831 9.438-5.964 9.438-1.759 0-3.174-1.244-3.174-3.903 0-2.36 1.287-5.535 3.046-7.508zm8.409 3.646c0-3.947-2.403-6.263-5.835-6.263-4.548 0-7.808 4.204-7.808 8.666 0 1.93.558 3.646 1.887 4.933 1.33 1.287 3.004 1.416 3.862 1.416 4.847 0 7.894-4.461 7.894-8.752zm-16.281 4.57c-.129-.086-.215-.043-.258.042-.343.387-1.501 1.845-1.973 2.231-.558.493-1.158.815-1.888.815h-4.805l2.103-6.5h1.072c1.545 0 2.36.237 2.36 1.781 0 .129 0 .172.128.215h.386c.086 0 .13 0 .172-.129.086-.815.772-3.475 1.116-4.29.042-.043 0-.13-.086-.13l-.386-.128c-.086 0-.13.044-.172.129-.772 1.673-1.609 1.78-2.531 1.78h-1.845l1.802-5.555h3.346c.129 0 .258.043.386.172l2.188 2.53c.129.13.172.172.258.13l.257-.13c.129-.085.129-.085.086-.236L28.207.858C28.122.515 28.08.43 27.735.43c-.235 0-.75.022-1.608.043-.858.022-2.038.022-3.583.022H21c-.515 0-1.223-.022-1.845-.043-.6 0-1.115-.022-1.244-.022-.171 0-.214.043-.257.172l-.129.472c-.043.129.021.214.129.214h.686c.644 0 1.416.3 1.051 1.459L16.11 12.934c-.214.708-.643 1.138-1.501 1.138h-.687c-.085 0-.128.043-.15.128l-.086.558c-.021.129.022.172.13.172.128 0 .471-.022.943-.043.493 0 1.115-.021 1.78-.021h2.789c1.48 0 3.024 0 4.247.02 1.223.022 2.102.044 2.274.044.257 0 .386-.043.472-.386l1.115-3.132c.043-.15 0-.193-.043-.236l-.257-.171zm-16.496 5.662c-.15.73-.579 1.952-.858 2.575-.558 1.136-2.101 2.573-3.732 2.573-1.994 0-2.767-.987-2.767-2.016 0-.75.408-1.33 1.158-1.33.794 0 .923.665.923.901 0 .258-.086.622-.193.73-.086.085-.129.193-.129.364 0 .43.494.665.943.665 1.116 0 1.717-.9 2.103-2.38.258-1.01.643-2.704 1.437-5.664l-.128-.043c-.3.408-1.524 2.145-4.42 2.145-2.96 0-4.976-2.08-4.976-5.791C0 6.629 1.266 4.29 2.853 2.68 4.055 1.481 5.921.172 8.903.172c2.23 0 3.367.73 3.796 1.072.279.215.472.258.58.258.257 0 .385-.215.514-.687.021-.107.085-.129.193-.107l.321.086c.087.021.151.064.13.171l-1.223 4.312c-.043.129-.086.15-.236.129l-.343-.043c-.108-.022-.172-.086-.15-.214.364-1.845-.687-4.097-3.476-4.097-1.372 0-2.917.471-4.418 2.444C3.347 5.062 2.639 7.38 2.639 9.974c0 3.518 2.166 4.076 3.11 4.076 2.574 0 3.818-2.209 3.904-3.474.064-.816-.171-.987-.75-.987H8.15c-.171 0-.193-.065-.15-.215l.086-.472c.022-.128.064-.172.236-.171.322 0 1.072.064 2.96.064 1.459 0 1.974-.064 2.274-.065.15 0 .215.065.193.172l-.064.515c-.022.129-.065.172-.193.172h-.45c-.408 0-.709.171-.987 1.308l-1.417 5.77z" fill="#FFF" fill-rule="evenodd"/></svg>