<?xml version="1.0" encoding="UTF-8"?>
<svg width="501px" height="33px" viewBox="0 0 501 33" version="1.1" xmlns="http://www.w3.org/2000/svg" xmlns:xlink="http://www.w3.org/1999/xlink">
    <title>Georgetown University Advancement</title>
    <g stroke="none" stroke-width="1" fill="none" fill-rule="evenodd">
        <g transform="translate(-681.000000, -3127.000000)">
            <g transform="translate(0.000000, 3115.000000)">
                <g>
                    <g>
                        <g transform="translate(681.000000, 13.000000)">
                            <line x1="353.5" y1="0" x2="353.5" y2="31" stroke="#FFFFFF" stroke-width="2" stroke-linecap="square"></line>
                            <path d="M369.76,24 C371.176,24 372.16,24.072 372.496,24.072 C372.616,24.072 372.688,24.024 372.688,23.856 L372.688,23.304 C372.688,23.184 372.616,23.136 372.448,23.136 L371.32,23.136 C370.792,23.136 370.504,22.944 370.504,22.608 C370.504,22.488 370.552,22.248 370.576,22.08 C370.696,21.576 372.016,17.928 372.256,17.328 L378.16,17.328 C378.496,18.288 379.48,21.36 379.672,22.224 C379.84,22.896 379.624,23.136 378.952,23.136 L378.352,23.136 C378.208,23.136 378.136,23.16 378.136,23.304 L378.136,23.856 C378.136,24 378.208,24.072 378.328,24.072 C378.88,24.072 379.72,24 381.712,24 C383.656,24 384.16,24.072 384.592,24.072 C384.76,24.072 384.832,24.024 384.832,23.904 L384.832,23.304 C384.832,23.208 384.784,23.136 384.64,23.136 L383.848,23.136 C383.248,23.136 382.624,22.848 382.216,22.056 C381.88,21.36 380.32,16.896 379.768,15.024 C379.312,13.488 377.44,8.112 376.984,6.6 C376.912,6.336 376.864,6.192 376.72,6.192 C376.6,6.192 376.528,6.288 376.408,6.408 C376.144,6.744 375.088,7.464 374.416,7.608 C374.248,7.656 374.2,7.752 374.2,7.824 C374.2,7.92 374.296,8.04 374.368,8.136 C374.536,8.4 374.416,8.712 374.344,8.952 C374.128,9.6 372.184,14.76 372.016,15.24 C371.32,17.208 369.568,21.648 369.4,22.032 C369.064,22.8 368.728,23.136 368.008,23.136 L367.168,23.136 C367.072,23.136 366.976,23.184 366.976,23.304 L366.976,23.88 C366.976,24.024 367.024,24.072 367.144,24.072 C367.48,24.072 368.008,24 369.76,24 Z M377.872,16.464 L372.568,16.464 C372.736,15.864 375.016,9.72 375.136,9.408 C375.208,9.216 375.304,9.048 375.4,9.048 C375.472,9.048 375.52,9.216 375.592,9.384 C375.712,9.744 377.656,15.744 377.872,16.464 Z M390.064,24.288 C391.288,24.288 392.824,23.76 393.592,22.992 L393.904,24.048 C393.952,24.216 394.072,24.288 394.216,24.24 L396.928,23.328 C397.072,23.28 397.12,23.208 397.096,23.064 L397.048,22.872 C397,22.752 396.904,22.728 396.568,22.704 C396.232,22.68 395.728,22.536 395.512,22.296 C395.3328,22.072 395.27904,21.1371733 395.272668,20.2915484 L395.272856,13.8167438 C395.277694,11.0404592 395.303714,8.15142857 395.368,7.08 C395.392,6.816 395.368,6.648 395.248,6.648 C395.08,6.648 394.912,6.696 394.696,6.72 C394.24,6.816 392.992,7.032 392.056,7.224 C391.912,7.248 391.864,7.296 391.864,7.392 L391.864,7.8 C391.864,7.896 391.888,7.944 392.032,7.968 C393.376,8.184 393.544,8.472 393.544,9.384 L393.544,14.064 C392.824,13.848 391.96,13.704 390.976,13.704 C389.632,13.704 388.336,14.208 387.4,15.216 C386.272,16.344 385.72,17.808 385.72,19.296 C385.72,20.904 386.008,21.984 387.232,23.184 C388.36,24.336 389.272,24.288 390.064,24.288 Z M390.784,23.256 C389.392,23.256 387.52,21.288 387.52,18.576 C387.52,17.664 387.688,16.392 388.624,15.384 C389.248,14.736 390.064,14.52 390.808,14.52 C392.224,14.52 392.992,15.168 393.328,15.816 C393.544,16.2 393.544,16.656 393.544,16.992 L393.544,21.12 C393.544,21.384 393.52,21.576 393.4,21.936 C393.16,22.56 392.128,23.256 390.784,23.256 Z M402.28,24.36 C402.544,24.36 402.664,24.144 402.856,23.808 C402.952,23.64 404.728,19.608 405.016,18.888 C405.376,18 406.576,15.36 406.936,15.024 C407.152,14.808 407.392,14.76 407.68,14.76 L408.136,14.76 C408.256,14.76 408.256,14.688 408.256,14.52 L408.256,14.112 C408.256,13.92 408.232,13.896 408.04,13.896 C407.824,13.896 407.248,13.968 406.312,13.968 C405.256,13.968 404.728,13.896 404.392,13.896 C404.296,13.896 404.248,13.944 404.248,14.088 L404.248,14.52 C404.248,14.64 404.272,14.76 404.344,14.76 L404.824,14.76 C405.256,14.76 405.424,15.144 405.256,15.792 C405.016,16.728 403.336,20.856 402.952,21.792 L402.88,21.792 C402.616,21.288 401.584,18.528 401.44,18.072 C401.296,17.664 400.672,15.648 400.672,15.216 C400.672,14.904 400.864,14.76 401.104,14.76 L401.584,14.76 C401.728,14.76 401.752,14.664 401.752,14.52 L401.752,14.088 C401.752,13.944 401.704,13.896 401.512,13.896 C401.2656,13.896 400.7056,13.95872 399.597845,13.9670827 L399.352,13.968 C398.008,13.968 397.6,13.896 397.336,13.896 C397.12,13.896 397.072,13.92 397.072,14.088 L397.072,14.52 C397.072,14.664 397.096,14.76 397.216,14.76 L397.696,14.76 C398.128,14.76 398.368,14.952 398.68,15.648 C398.848,16.032 399.832,18.792 399.904,18.984 L401.776,23.856 C401.896,24.144 402.04,24.36 402.28,24.36 Z M411.808,24.144 C412.888,23.784 413.68,23.28 414.184,22.68 L414.232,22.68 C414.448,23.664 415.072,24.288 415.936,24.288 C417.16,24.288 417.616,23.472 417.808,23.112 C417.952,22.872 417.904,22.752 417.832,22.68 L417.592,22.488 C417.496,22.416 417.448,22.464 417.352,22.584 C417.232,22.752 416.896,22.944 416.512,22.944 C416.08,22.944 415.792,22.512 415.792,21.144 L415.792,16.056 C415.792,15.408 415.768,14.856 415.264,14.352 C414.928,14.04 414.472,13.704 413.344,13.704 C412.264,13.704 411.424,13.944 410.416,14.544 C409.432,15.12 408.76,16.032 408.76,16.8 C408.76,17.352 408.952,17.568 409.336,17.568 C410.32,17.568 410.608,17.04 410.608,16.2 C410.608,15.768 410.392,15.408 410.728,15.096 C411.064,14.784 411.808,14.592 412.288,14.592 C412.984,14.592 413.464,14.808 413.728,15.12 C413.992,15.432 414.016,16.056 414.064,16.464 L414.064,18 C413.68,18.336 412.432,18.912 411.352,19.392 C409.456,20.232 408.952,21.192 408.952,22.296 C408.952,23.808 409.816,24.288 410.392,24.288 C410.92,24.288 411.352,24.288 411.808,24.144 Z M412.072,23.16 C411.352,23.16 410.824,22.728 410.824,21.84 C410.824,19.848 413.176,19.368 414.04,18.72 L414.04,21.672 C414.04,22.32 412.768,23.16 412.072,23.16 Z M421.216,24 C422.488,24 423.136,24.072 423.304,24.072 C423.424,24.072 423.472,24 423.472,23.856 L423.472,23.448 C423.472,23.28 423.424,23.208 423.232,23.208 L422.632,23.208 C422.128,23.208 422.056,23.064 422.056,22.416 L422.056,17.448 C422.056,16.992 422.128,16.344 422.608,15.816 C423.328,15.048 424.168,14.88 424.552,14.88 C425.152,14.88 425.728,14.88 426.304,15.312 C426.9536,15.7824 426.996907,16.4200533 426.999794,17.2834987 L427,20.64 C427,21.264 426.976,22.032 426.952,22.656 C426.928,23.088 426.736,23.208 426.472,23.208 L425.776,23.208 C425.536,23.208 425.464,23.256 425.464,23.424 L425.464,23.808 C425.464,24 425.512,24.072 425.656,24.072 C425.824,24.072 426.592,24 427.816,24 C429.184,24 429.928,24.072 430.096,24.072 C430.24,24.072 430.288,23.976 430.288,23.808 L430.288,23.424 C430.288,23.28 430.24,23.208 430.024,23.208 L429.256,23.208 C428.944,23.208 428.728,23.088 428.728,22.704 L428.728,16.512 C428.728,15.912 428.128,14.712 427.408,14.232 C426.832,13.848 426.088,13.704 425.368,13.704 C424.168,13.704 422.776,14.592 422.08,15.456 L422.032,15.456 L421.864,13.992 C421.84,13.8 421.792,13.704 421.672,13.704 C421.576,13.704 421.432,13.776 421.24,13.872 L419.176,15.024 C419.056,15.072 418.96,15.144 418.96,15.264 L418.96,15.384 C418.96,15.444 418.976667,15.504 419.079444,15.564 L419.344,15.696 C419.944,15.984 420.328,16.392 420.328,17.112 L420.328,22.728 C420.328,23.136 420.16,23.208 419.848,23.208 L419.152,23.208 C418.96,23.208 418.912,23.28 418.912,23.424 L418.912,23.856 C418.912,24 418.96,24.072 419.08,24.072 C419.224,24.072 419.992,24 421.216,24 Z M436.432,24.288 C438.064,24.288 439.6,23.376 440.296,22.584 C440.416,22.44 440.392,22.368 440.296,22.272 L440.056,22.032 C439.984,21.96 439.912,21.984 439.864,22.032 C439.048,22.8 438.424,23.064 437.224,23.064 C436.408,23.064 435.4,22.872 434.608,21.84 C433.96,20.952 433.384,19.488 433.384,18.192 C433.384,15.72 434.848,14.472 436.216,14.472 C436.792,14.472 437.296,14.544 437.824,15.528 C438.184,16.176 438.592,16.488 439.144,16.488 C439.648,16.488 440.008,16.2 440.032,15.648 C440.032,15.144 439.264,13.704 436.768,13.704 C433.6,13.704 431.632,16.536 431.632,19.344 C431.632,20.424 431.824,21.432 432.712,22.608 C433.816,24 435.16,24.288 436.432,24.288 Z M446.32,24.288 C448.456,24.288 449.704,22.632 450.136,21.672 C450.256,21.408 450.208,21.336 450.136,21.312 L449.824,21.144 C449.752,21.12 449.656,21.168 449.608,21.264 C449.2,22.056 448.168,22.896 446.704,22.896 C444.784,22.896 443.296,21.12 443.296,18.768 C443.296,18.216 443.32,17.832 443.368,17.616 L449.296,17.616 C449.68,17.616 449.968,17.568 449.968,17.232 C449.968,16.296 449.2,13.704 446.44,13.704 C445.24,13.704 444.04,13.92 443.008,14.976 C441.736,16.248 441.496,17.856 441.496,18.792 C441.496,20.472 441.712,21.36 442.552,22.584 C443.44,23.88 444.952,24.288 446.32,24.288 Z M447.184,16.896 L443.464,16.896 C443.92,15.12 444.928,14.424 445.984,14.424 C447.544,14.424 447.832,16.008 447.832,16.56 C447.832,16.776 447.64,16.896 447.184,16.896 Z M454.12,24 C455.44,24 456.088,24.072 456.304,24.072 C456.472,24.072 456.496,23.976 456.496,23.808 L456.496,23.424 C456.496,23.256 456.472,23.208 456.256,23.208 L455.392,23.208 C455.056,23.208 454.912,22.968 454.912,22.584 L454.912,17.832 C454.912,17.16 454.96,16.704 455.248,16.224 C455.92,15.144 456.928,14.832 457.552,14.832 C458.08,14.832 458.776,14.976 459.088,15.264 C459.472,15.624 459.808,16.08 459.808,17.856 L459.808,22.8 C459.808,23.112 459.664,23.208 459.28,23.208 L458.584,23.208 C458.368,23.208 458.344,23.256 458.344,23.448 L458.344,23.832 C458.344,24 458.392,24.072 458.512,24.072 C458.656,24.072 459.472,24 460.768,24 C462.112,24 462.736,24.072 462.904,24.072 C463.024,24.072 463.072,24 463.072,23.808 L463.072,23.424 C463.072,23.256 463.024,23.208 462.808,23.208 L461.992,23.208 C461.632,23.208 461.512,22.968 461.512,22.656 L461.512,18.504 C461.512,17.424 461.488,16.776 461.848,16.08 C462.232,15.384 463.216,14.832 463.936,14.832 C464.656,14.832 465.28,15 465.712,15.336 C466.264,15.768 466.408,16.464 466.408,17.256 L466.408,20.808 C466.408,21.336 466.408,22.2 466.36,22.752 C466.336,23.088 466.144,23.208 465.88,23.208 L465.28,23.208 C465.016,23.208 464.968,23.256 464.968,23.424 L464.968,23.832 C464.968,24 465.016,24.072 465.16,24.072 C465.328,24.072 466.192,24 467.392,24 C468.544,24 469.216,24.072 469.384,24.072 C469.504,24.072 469.552,24 469.552,23.832 L469.552,23.424 C469.552,23.256 469.504,23.208 469.288,23.208 L468.64,23.208 C468.352,23.208 468.136,23.088 468.136,22.728 L468.136,17.376 C468.136,15.528 467.536,15 466.984,14.424 C466.408,13.848 465.664,13.704 464.824,13.704 C463.384,13.704 462.016,14.616 461.296,15.552 L461.176,15.552 C460.672,14.424 459.712,13.704 458.464,13.704 C457.072,13.704 455.656,14.544 454.936,15.528 L454.864,15.528 L454.768,14.136 C454.768,13.968 454.696,13.8 454.552,13.8 C454.456,13.8 454.288,13.848 454.096,13.944 L451.984,15.024 C451.936,15.048 451.84,15.144 451.84,15.216 L451.84,15.408 C451.84,15.48 451.888,15.528 452.008,15.6 L452.512,15.864 C453.088,16.176 453.184,16.608 453.184,17.088 L453.184,21.36 C453.184,21.768 453.184,22.2 453.16,22.608 C453.136,23.064 453.016,23.208 452.8,23.208 L451.984,23.208 C451.744,23.208 451.696,23.232 451.696,23.424 L451.696,23.856 C451.696,24.024 451.744,24.072 451.888,24.072 C452.08,24.072 452.848,24 454.12,24 Z M475.888,24.288 C478.024,24.288 479.272,22.632 479.704,21.672 C479.824,21.408 479.776,21.336 479.704,21.312 L479.392,21.144 C479.32,21.12 479.224,21.168 479.176,21.264 C478.768,22.056 477.736,22.896 476.272,22.896 C474.352,22.896 472.864,21.12 472.864,18.768 C472.864,18.216 472.888,17.832 472.936,17.616 L478.864,17.616 C479.248,17.616 479.536,17.568 479.536,17.232 C479.536,16.296 478.768,13.704 476.008,13.704 C474.808,13.704 473.608,13.92 472.576,14.976 C471.304,16.248 471.064,17.856 471.064,18.792 C471.064,20.472 471.28,21.36 472.12,22.584 C473.008,23.88 474.52,24.288 475.888,24.288 Z M476.752,16.896 L473.032,16.896 C473.488,15.12 474.496,14.424 475.552,14.424 C477.112,14.424 477.4,16.008 477.4,16.56 C477.4,16.776 477.208,16.896 476.752,16.896 Z M483.64,24 C484.912,24 485.56,24.072 485.728,24.072 C485.848,24.072 485.896,24 485.896,23.856 L485.896,23.448 C485.896,23.28 485.848,23.208 485.656,23.208 L485.056,23.208 C484.552,23.208 484.48,23.064 484.48,22.416 L484.48,17.448 C484.48,16.992 484.552,16.344 485.032,15.816 C485.752,15.048 486.592,14.88 486.976,14.88 C487.576,14.88 488.152,14.88 488.728,15.312 C489.3776,15.7824 489.420907,16.4200533 489.423794,17.2834987 L489.424,20.64 C489.424,21.264 489.4,22.032 489.376,22.656 C489.352,23.088 489.16,23.208 488.896,23.208 L488.2,23.208 C487.96,23.208 487.888,23.256 487.888,23.424 L487.888,23.808 C487.888,24 487.936,24.072 488.08,24.072 C488.248,24.072 489.016,24 490.24,24 C491.608,24 492.352,24.072 492.52,24.072 C492.664,24.072 492.712,23.976 492.712,23.808 L492.712,23.424 C492.712,23.28 492.664,23.208 492.448,23.208 L491.68,23.208 C491.368,23.208 491.152,23.088 491.152,22.704 L491.152,16.512 C491.152,15.912 490.552,14.712 489.832,14.232 C489.256,13.848 488.512,13.704 487.792,13.704 C486.592,13.704 485.2,14.592 484.504,15.456 L484.456,15.456 L484.288,13.992 C484.264,13.8 484.216,13.704 484.096,13.704 C484,13.704 483.856,13.776 483.664,13.872 L481.6,15.024 C481.48,15.072 481.384,15.144 481.384,15.264 L481.384,15.384 C481.384,15.456 481.408,15.528 481.576,15.6 L481.768,15.696 C482.368,15.984 482.752,16.392 482.752,17.112 L482.752,22.728 C482.752,23.136 482.584,23.208 482.272,23.208 L481.576,23.208 C481.384,23.208 481.336,23.28 481.336,23.424 L481.336,23.856 C481.336,24 481.384,24.072 481.504,24.072 C481.648,24.072 482.416,24 483.64,24 Z M497.752,24.288 C499.192,24.288 500.176,23.568 500.416,23.328 C500.488,23.256 500.536,23.16 500.464,23.064 L500.344,22.848 C500.272,22.752 500.176,22.728 500.056,22.8 C499.72,23.016 499.024,23.112 498.472,23.112 C498.04,23.112 497.224,22.8 497.224,21 L497.224,18.6 C497.224,17.496 497.248,16.32 497.296,15.216 L500.392,15.216 C500.536,15.216 500.584,15.144 500.608,15.024 L500.848,14.184 C500.896,14.088 500.824,13.968 500.68,13.968 L497.344,13.968 L497.464,11.616 C497.464,11.424 497.416,11.256 497.224,11.256 C497.08,11.256 496.96,11.304 496.888,11.496 C496.576,12.312 494.728,14.16 494.152,14.496 C493.864,14.664 493.72,14.736 493.72,14.928 C493.72,15.12 493.864,15.216 494.08,15.216 L495.544,15.216 C495.52,16.224 495.496,17.856 495.496,18.288 L495.496,18.816 C495.496,19.152 495.424,21.264 495.424,22.248 C495.424,23.16 496.576,24.288 497.752,24.288 Z" fill="#FFFFFF" fill-rule="nonzero"></path>
                            <path d="M195.68205,10.7969108 C195.68205,10.7969108 189.804979,15.5750574 191.674865,21.6688586 C191.674865,21.6688586 193.050435,25.991724 198.351651,24.1787938 C198.351651,24.1787938 199.839151,23.4848615 200.71585,22.5978573 C201.593561,21.710853 201.488722,22.6393396 201.76728,23.2180433 C201.954674,23.6057235 202.394796,24.8343166 204.110714,24.6796542 C205.827139,24.5255039 207.163712,22.67314 206.665852,22.0575631 C206.322973,21.6335218 205.788647,22.6746763 205.369291,22.9445674 C204.949934,23.2139462 204.001317,23.2707924 203.810884,22.0375901 C203.620452,20.8033637 206.436928,13.3811046 206.436928,13.3811046 C206.436928,13.3811046 207.283745,11.2045641 208.285541,9.64308833 C208.868994,8.73355048 209.373438,8.55942724 209.945748,8.40578909 C211.689016,7.93821698 210.594029,7.40304408 210.098702,7.40304408 C209.602868,7.40304408 207.428595,7.0169002 206.474913,8.29004834 C205.521231,9.56268437 201.55507,19.8595133 201.55507,19.8595133 C201.55507,19.8595133 199.724689,23.6769092 196.215869,22.5205261 C192.707556,21.3636308 193.912446,16.4799861 194.537936,15.1551131 C194.840298,14.5159784 196.562294,11.3858571 198.733022,8.63727057 C200.2109,6.76595788 198.629702,7.70827188 196.952276,7.55309735 C195.273836,7.39894707 191.204354,6.53396427 189.515785,7.77126352 C187.537516,9.22109554 187.024462,11.6839151 188.740887,12.8408104 C190.456806,13.9977057 191.448473,11.8764749 190.800192,11.1441331 C190.135198,10.3918183 190.035423,11.164106 189.122765,11.0668019 C188.397501,10.9899828 188.511963,9.17705261 190.228388,8.98449279 C191.944813,8.79142085 194.422461,9.37268519 195.930727,9.34810308 C197.461277,9.32300885 195.68205,10.7969108 195.68205,10.7969108 L195.68205,10.7969108 Z M331.490808,19.0211611 C331.734419,17.9395485 331.977018,17.4479064 332.317872,16.9071001 C332.65822,16.3171296 337.082736,10.072763 337.471705,9.53246886 C337.957915,8.86875205 338.444126,8.47543838 339.270684,8.47543838 L339.708274,8.47543838 C339.854137,8.47543838 339.902758,8.42576205 339.902758,8.22961734 L340,7.73797525 C340,7.59048263 339.950872,7.49164208 339.756388,7.49164208 C339.416547,7.49215421 338.686725,7.56590052 337.179978,7.56590052 C335.818082,7.56590052 334.894282,7.49215421 334.553935,7.49215421 C334.311336,7.49164208 334.262715,7.54131842 334.262715,7.68881105 L334.213587,8.22961734 C334.164966,8.37710996 334.213587,8.47543838 334.35945,8.47543838 L334.894788,8.47543838 C335.721346,8.47543838 336.037383,8.84416994 335.721346,9.7782899 C335.478241,10.5152409 332.026146,15.6779949 331.685798,16.2188012 C331.490808,16.5629507 331.296323,16.5629507 331.199081,16.169637 L329.254239,9.55653884 C329.108376,9.06489676 329.108376,8.47543838 329.886313,8.47543838 L330.518386,8.47543838 C330.66425,8.47543838 330.713377,8.42576205 330.761998,8.27826942 L330.810113,7.68881105 C330.810113,7.54131842 330.761998,7.49164208 330.567514,7.49164208 C330.275787,7.49215421 329.448723,7.56590052 327.358017,7.56590052 C325.413175,7.56590052 324.781101,7.49215421 324.440754,7.49215421 C324.29489,7.49164208 324.246269,7.54131842 324.198155,7.68881105 L324.100406,8.27826942 C324.100406,8.42576205 324.149027,8.47543838 324.29489,8.47543838 L324.830228,8.47543838 C325.656787,8.47543838 326.142997,8.81958784 326.336975,9.40904621 L328.865777,16.9562643 C328.962512,17.2512496 329.01164,17.8903843 328.913891,18.2345338 L328.135954,21.8726852 C327.990091,22.5855662 327.649744,23.1263725 326.531459,23.1263725 L325.997134,23.1263725 C325.80265,23.1263725 325.753522,23.2247009 325.753522,23.3230293 L325.656787,23.8638356 C325.656787,24.0599803 325.704901,24.1091445 325.850764,24.1091445 C326.142997,24.1091445 326.871807,24.0359104 329.059754,24.0359104 C331.005103,24.0359104 331.782534,24.1091445 332.171502,24.1091445 C332.366493,24.1091445 332.414608,24.0113283 332.414608,23.8638356 L332.512356,23.3230293 C332.512356,23.2247009 332.463229,23.1263725 332.317872,23.1263725 L331.782534,23.1263725 C330.956482,23.1263725 330.639939,23.0280441 330.907861,21.7497747 L331.490808,19.0211611 Z M313.651942,7.5653884 C311.123141,7.5653884 309.956742,7.36924369 309.470531,7.22175107 C309.276047,7.07374631 309.178298,7.0245821 309.081056,7.0245821 C308.935193,7.0245821 308.886572,7.12291052 308.838457,7.27040315 C308.789836,7.41789577 307.282077,10.8599025 306.989844,11.4001967 C306.941729,11.4990372 306.941729,11.5968535 307.039478,11.6460177 L307.42794,11.8923509 C307.525688,11.8923509 307.622424,11.8923509 307.720173,11.7935103 C308.303119,11.1057235 309.567267,9.67944936 310.418642,9.04031465 C310.977277,8.62190675 312.047447,8.50002049 314.284016,8.50002049 L314.91609,8.50002049 L311.171762,20.64358 C310.613126,22.4867257 310.150719,23.1258604 308.789836,23.1258604 L308.157762,23.1258604 C307.962772,23.1258604 307.890346,23.1755367 307.866036,23.3230293 L307.816908,23.8638356 C307.792091,24.0113283 307.866036,24.1091445 308.03621,24.1091445 C308.278808,24.1091445 309.567267,24.0359104 311.949699,24.0359104 C314.235395,24.0359104 315.207816,24.1091445 315.548164,24.1091445 C315.718337,24.1091445 315.81558,24.0359104 315.83989,23.8638356 L315.936626,23.3721935 C315.961443,23.2247009 315.912315,23.1258604 315.790763,23.1258604 L314.818341,23.1258604 C313.554194,23.1258604 313.311595,22.5855662 313.797805,21.0363815 L317.638869,8.50002049 L318.12508,8.50002049 C319.243365,8.50002049 320.993723,8.7207473 321.528048,9.13864307 C321.868902,9.77777778 322.305985,11.3018682 322.500469,12.0884956 C322.598218,12.383993 322.69546,12.4823214 322.841323,12.4823214 L323.230292,12.4080629 C323.376155,12.383993 323.424269,12.3343166 323.424269,12.186824 C323.376155,11.2035398 323.618754,7.61506473 323.667881,7.22175107 C323.667881,7.07374631 323.570639,7.0245821 323.473397,7.0245821 C323.376155,7.0245821 323.327534,7.07374631 323.230292,7.12291052 C322.792196,7.36924369 321.917523,7.5653884 319.729575,7.5653884 L313.651942,7.5653884 Z M298.536363,21.3810431 C298.196016,22.6337062 298.050152,23.1258604 296.640142,23.1258604 L295.716341,23.1258604 C295.570478,23.1258604 295.521857,23.1755367 295.521857,23.3230293 L295.375994,23.8638356 C295.375994,24.0113283 295.424615,24.1091445 295.570478,24.1091445 C295.862205,24.1091445 297.126352,24.0359104 299.168437,24.0359104 C301.648111,24.0359104 302.766395,24.1091445 303.058122,24.1091445 C303.301227,24.1091445 303.301227,24.0599803 303.349848,23.8638356 L303.398469,23.3721935 C303.44709,23.2247009 303.398469,23.1258604 303.252606,23.1258604 L302.377427,23.1258604 C301.356385,23.1258604 300.991727,22.6337062 301.307764,21.4547894 L304.322776,10.1224394 C304.686927,8.72125942 305.24607,8.47543838 306.267112,8.47543838 L306.899186,8.47543838 C307.09367,8.47543838 307.142291,8.37710996 307.142291,8.27826942 L307.288154,7.78662734 C307.336775,7.59048263 307.239533,7.49164208 306.996428,7.49164208 C306.65608,7.49215421 305.635038,7.56590052 303.543826,7.56590052 C301.59949,7.56590052 300.286721,7.49215421 299.994995,7.49215421 C299.800511,7.49164208 299.703269,7.54131842 299.703269,7.63913471 L299.557405,8.27826942 C299.557405,8.42576205 299.606026,8.47543838 299.800511,8.47543838 L300.918795,8.47543838 C301.550869,8.47543838 301.940344,8.86875205 301.59949,10.0978573 L298.536363,21.3810431 Z M296.494785,7.68881105 C296.494785,7.59048263 296.445657,7.54131842 296.300301,7.54131842 L296.008574,7.49164208 C295.813584,7.49164208 295.764962,7.49164208 295.764962,7.59048263 C295.668227,8.08212471 295.522364,8.42576205 295.3765,8.42576205 C295.230131,8.42576205 295.132889,8.37710996 295.036153,8.32794576 C294.646678,8.0329605 293.479773,7.19716896 292.16751,7.19716896 C289.006635,7.19716896 287.645245,9.75319567 287.645245,11.5231072 C287.645245,14.055576 288.909393,15.3338455 290.417152,17.0049164 C291.486309,18.1853696 292.702342,19.1194895 292.702342,20.6922321 C292.702342,22.0447599 291.632172,23.273353 290.076805,23.273353 C288.569045,23.273353 286.672824,21.602282 287.354025,18.062459 C287.354025,17.9149664 287.304898,17.8658022 287.208162,17.8161259 L286.818687,17.7183096 C286.672824,17.7183096 286.624709,17.7183096 286.576088,17.8161259 L284.776602,23.1755367 C284.727981,23.3721935 284.727981,23.3721935 284.873844,23.4208456 L285.165571,23.5683382 C285.311434,23.6175025 285.360055,23.5683382 285.408676,23.4700098 C285.60316,23.1263725 285.846266,22.7330588 285.992635,22.536402 C286.138499,22.3889094 286.381097,22.339233 286.624709,22.5855662 C287.40214,23.4700098 288.520424,24.4041298 290.076805,24.4041298 C292.604593,24.4041298 294.841162,22.7330588 294.841162,19.5860374 C294.841162,16.8579359 293.236667,15.4813381 292.118383,14.3505613 C291.000098,13.2197845 289.930941,12.4331572 289.930941,10.7118977 C289.930941,9.65537938 290.708372,8.32794576 292.118383,8.32794576 C294.598057,8.32794576 294.89029,11.2777983 294.74392,12.2610824 C294.74392,12.4085751 294.792541,12.5069035 294.987025,12.5069035 L295.425121,12.5069035 C295.522364,12.5069035 295.570985,12.4577393 295.619099,12.3594108 L296.494785,7.68881105 Z M275.778667,8.37659784 C276.070393,8.32794576 276.362626,8.32794576 276.800216,8.32794576 C279.182648,8.32794576 279.911457,9.92578253 279.911457,10.9577188 C279.911457,12.7281424 278.793173,14.1042281 277.529025,14.6455465 C275.876416,15.3333333 274.611761,15.2350049 273.639847,15.2350049 L275.778667,8.37659784 Z M273.372431,16.0958907 C274.028309,16.0958907 275.097972,15.9483981 275.681931,17.2999017 C275.973658,17.8903843 278.112984,22.7084767 278.452825,23.2979351 C278.793173,23.8638356 278.890921,24.1091445 279.13352,24.1091445 C279.522995,24.1091445 279.960078,24.0359104 281.370089,24.0359104 C282.682858,24.0359104 283.072333,24.1091445 283.314932,24.1091445 C283.461301,24.1091445 283.509922,24.0113283 283.558543,23.8638356 L283.606658,23.3721935 C283.655786,23.2247009 283.606658,23.1258604 283.461301,23.1258604 L282.829227,23.1258604 C281.954048,23.1258604 281.370089,22.7330588 280.713705,21.7006105 C280.300932,21.0363815 278.647816,17.5462348 278.501446,17.2999017 C278.258848,16.8082596 277.869879,16.0713086 277.091942,15.8741396 L277.091942,15.7763233 C280.252311,15.4321739 282.829227,13.4650934 282.829227,11.0565593 C282.829227,7.66422894 279.182648,7.49164208 277.091942,7.49164208 C276.411247,7.49164208 273.882952,7.5653884 271.354657,7.5653884 C271.111045,7.5653884 271.06293,7.61455261 271.014309,7.76204523 L270.917067,8.27826942 C270.868446,8.42576205 270.917067,8.47543838 271.111045,8.47543838 L271.938109,8.47543838 C272.764668,8.47543838 272.910531,8.91740413 272.667425,9.70403147 L268.77774,21.9705015 C268.58275,22.5860783 268.145667,23.1258604 267.562214,23.1258604 L266.93014,23.1258604 C266.735656,23.1258604 266.686528,23.1755367 266.686528,23.3230293 L266.589793,23.8638356 C266.541171,24.0113283 266.589793,24.1091445 266.735656,24.1091445 C267.027382,24.1091445 267.950676,24.0359104 269.652919,24.0359104 C271.743119,24.0359104 272.813289,24.1091445 273.105015,24.1091445 C273.250878,24.1091445 273.347614,24.0599803 273.396235,23.9124877 L273.445362,23.3230293 C273.493477,23.2247009 273.445362,23.1258604 273.299499,23.1258604 L272.278457,23.1258604 C271.597256,23.1258604 271.330346,22.6838946 271.743119,21.3559489 L273.372431,16.0958907 Z M265.760702,19.6111316 C265.614839,19.5128032 265.517597,19.5619674 265.468976,19.6602958 C265.080007,20.1027737 263.767239,21.7743568 263.232407,22.2168346 C262.600333,22.7817109 261.919638,23.1509546 261.09308,23.1509546 L255.647521,23.1509546 L258.029953,15.7020649 L259.24548,15.7020649 C260.995838,15.7020649 261.919638,15.9729802 261.919638,17.7428917 C261.919638,17.8903843 261.919638,17.9395485 262.065501,17.9887127 L262.503091,17.9887127 C262.600333,17.9887127 262.648954,17.9887127 262.697575,17.8412201 C262.794817,16.9071001 263.573261,13.8589192 263.961723,12.9247992 C264.010344,12.875635 263.961723,12.7767945 263.864481,12.7767945 L263.427398,12.6293019 C263.329649,12.6293019 263.281028,12.6789782 263.232407,12.7767945 C262.357228,14.6947108 261.409117,14.8176213 260.363764,14.8176213 L258.273059,14.8176213 L260.315143,8.45034415 L264.107586,8.45034415 C264.253449,8.45034415 264.399312,8.50002049 264.545682,8.64751311 L267.02485,11.5482014 C267.170713,11.695694 267.219334,11.7448582 267.316576,11.695694 L267.608303,11.5482014 C267.754166,11.449873 267.754166,11.449873 267.705545,11.2772861 L266.976229,7.9837963 C266.878987,7.59048263 266.830872,7.49164208 266.441397,7.49164208 C266.173981,7.49164208 265.590528,7.51673632 264.618107,7.54131842 C263.645686,7.56590052 262.309113,7.56590052 260.558248,7.56590052 L258.80789,7.56590052 C258.224437,7.56590052 257.42219,7.54131842 256.717185,7.51673632 C256.03649,7.51673632 255.453037,7.49164208 255.307174,7.49164208 C255.112689,7.49164208 255.064068,7.54131842 255.015447,7.68881105 L254.869584,8.22961734 C254.820963,8.37710996 254.893895,8.47543838 255.015447,8.47543838 L255.793384,8.47543838 C256.5227,8.47543838 257.397373,8.81958784 256.9846,10.1465093 L253.265089,21.8224967 C253.021984,22.6342183 252.535773,23.1258604 251.563352,23.1258604 L250.785415,23.1258604 C250.688173,23.1258604 250.639552,23.1755367 250.615241,23.273353 L250.517999,23.9124877 C250.493688,24.0599803 250.54231,24.1091445 250.663862,24.1091445 C250.809725,24.1091445 251.198694,24.0845624 251.733526,24.0599803 C252.292668,24.0599803 252.997673,24.0359104 253.7513,24.0359104 L256.912175,24.0359104 C258.589095,24.0359104 260.339454,24.0359104 261.725154,24.0599803 C263.110854,24.0845624 264.107586,24.1091445 264.30207,24.1091445 C264.594303,24.1091445 264.73966,24.0599803 264.836902,23.6671788 L266.10105,20.0776794 C266.149671,19.9056047 266.10105,19.8569526 266.052429,19.8077884 L265.760702,19.6111316 Z M242.811561,19.5614553 C242.47172,20.0039331 242.179487,19.9552811 242.276729,19.3161463 L243.954156,9.48279253 C244.076215,8.7699115 244.513298,8.47543838 245.291235,8.47543838 L245.97193,8.47543838 C246.166414,8.47543838 246.215035,8.42576205 246.239346,8.27826942 L246.312784,7.71288102 C246.360898,7.54080629 246.312784,7.49164208 246.069172,7.49164208 C245.777445,7.49215421 244.756403,7.5653884 243.005538,7.5653884 C240.915339,7.5653884 239.894297,7.49215421 239.553949,7.49215421 C239.359465,7.49164208 239.359465,7.54080629 239.310844,7.73746313 L239.164474,8.25368732 C239.116866,8.42576205 239.213602,8.47543838 239.408086,8.47543838 L240.186023,8.47543838 C240.96396,8.47543838 241.207066,9.06489676 241.109823,9.80235988 L239.189291,23.5929204 C239.092049,24.183403 239.14067,24.5275524 239.529639,24.5275524 C239.869986,24.5275524 240.161713,24.2817314 240.307576,24.0845624 L250.688173,10.9090667 C251.636283,9.70403147 252.876121,8.47543838 253.702679,8.47543838 L254.23751,8.47543838 C254.383374,8.47543838 254.432501,8.37659784 254.480616,8.22910521 L254.553547,7.71288102 C254.577858,7.5899705 254.529237,7.49164208 254.286638,7.49164208 C253.994405,7.49215421 253.361825,7.5653884 251.95232,7.5653884 C250.639045,7.5653884 249.812994,7.49215421 249.472646,7.49215421 C249.229541,7.49164208 249.181426,7.54080629 249.181426,7.68829892 L249.059367,8.22910521 C249.035057,8.37659784 249.083171,8.47543838 249.327289,8.47543838 L249.8135,8.47543838 C250.493688,8.47543838 250.396446,9.3352999 249.521267,10.5152409 L242.811561,19.5614553 Z M229.781622,21.3810431 C229.440768,22.6337062 229.294905,23.1258604 227.885401,23.1258604 L226.961601,23.1258604 C226.815231,23.1258604 226.767116,23.1755367 226.767116,23.3230293 L226.621253,23.8638356 C226.621253,24.0113283 226.669368,24.1091445 226.815231,24.1091445 C227.107464,24.1091445 228.371611,24.0359104 230.41319,24.0359104 C232.892864,24.0359104 234.011148,24.1091445 234.303381,24.1091445 C234.54598,24.1091445 234.54598,24.0599803 234.595108,23.8638356 L234.643222,23.3721935 C234.691337,23.2247009 234.643222,23.1258604 234.497359,23.1258604 L233.622686,23.1258604 C232.601137,23.1258604 232.236986,22.6337062 232.553023,21.4547894 L235.567529,10.1224394 C235.93168,8.72125942 236.491329,8.47543838 237.512371,8.47543838 L238.144445,8.47543838 C238.338423,8.47543838 238.387044,8.37710996 238.387044,8.27826942 L238.532907,7.78662734 C238.582035,7.59048263 238.484286,7.49164208 238.241181,7.49164208 C237.900833,7.49215421 236.879791,7.56590052 234.789592,7.56590052 C232.844749,7.56590052 231.531474,7.49215421 231.240254,7.49215421 C231.045263,7.49164208 230.948528,7.54131842 230.948528,7.63913471 L230.802158,8.27826942 C230.802158,8.42576205 230.850273,8.47543838 231.045263,8.47543838 L232.163548,8.47543838 C232.795622,8.47543838 233.185097,8.86875205 232.844749,10.0978573 L229.781622,21.3810431 Z M221.661905,23.5442683 C221.807768,23.8879056 222.050873,24.0359104 222.293979,24.0359104 C222.439842,23.9867461 222.634326,23.7895772 222.780189,23.3967756 L227.253327,10.4660767 C227.739538,9.06489676 228.225748,8.47543838 228.809201,8.47543838 L229.441275,8.47543838 C229.587138,8.47543838 229.635759,8.42576205 229.635759,8.27826942 L229.733001,7.83630367 C229.781622,7.63913471 229.733001,7.49164208 229.489896,7.49164208 C229.149548,7.49215421 228.663338,7.56590052 227.39919,7.56590052 C225.696947,7.56590052 224.91901,7.49215421 224.62779,7.49215421 C224.481926,7.49164208 224.433305,7.59048263 224.384684,7.68881105 L224.336063,8.22961734 C224.286936,8.42576205 224.336063,8.47543838 224.579169,8.47543838 L225.308485,8.47543838 C226.135043,8.47543838 226.32902,9.26155359 225.697453,11.2532162 L223.120537,19.2178179 C222.926052,19.8077884 222.82881,19.8569526 222.634326,19.5619674 L217.237388,8.20503523 C217.091525,7.86088578 216.945662,7.56590052 216.508072,7.56590052 C213.63943,7.56590052 212.667008,7.49164208 212.375282,7.49164208 C212.180798,7.49164208 212.13167,7.59048263 212.083556,7.73797525 L211.986313,8.18045313 C211.937186,8.37710996 211.986313,8.47543838 212.180798,8.47543838 L213.104598,8.47543838 C214.12564,8.47543838 214.636161,9.1637373 214.173755,10.6140814 L211.208376,20.1027737 C210.47906,22.2900688 209.895608,23.1258604 208.77631,23.1258604 L208.242492,23.1258604 C208.096122,23.1258604 208.048007,23.2247009 207.999386,23.3230293 L207.926455,23.8392535 C207.902144,24.0113283 207.950259,24.1091445 208.096122,24.1091445 C208.388355,24.1091445 209.166292,24.0359104 210.868029,24.0359104 C212.521145,24.0359104 213.541681,24.1091445 213.785293,24.1091445 C214.027892,24.1091445 214.027892,24.0599803 214.077019,23.8879056 L214.173755,23.3721935 C214.173755,23.2247009 214.12564,23.1258604 213.931156,23.1258604 L213.007356,23.1258604 C211.986313,23.1258604 211.889071,21.9705015 212.715629,19.1686537 L215.146176,10.9582309 C215.195304,10.6632457 215.389788,10.6632457 215.535651,10.9090667 L221.661905,23.5442683 Z M151.234802,21.5776999 C151.234802,23.5929204 152.912229,24.6750451 154.638277,24.6750451 C158.187614,24.6750451 160.375562,21.9218494 161.63971,19.6602958 C162.879547,17.5216527 163.9249,14.3259792 164.484042,11.2035398 C164.556973,10.8107383 164.702837,10.8348083 164.751458,11.0565593 C165.942674,15.923816 168.154932,21.3559489 170.902022,25.0191945 C172.33685,26.9365987 175.521023,30.8943174 180.456061,30.8943174 C183.252278,30.8943174 184.540737,29.5177196 184.953509,29.0506596 C185.391099,28.5830875 185.683331,27.8461365 185.683331,27.5265692 C185.683331,27.1573255 185.513158,26.6902655 184.978326,26.6902655 C184.492115,26.6902655 184.175572,27.1824197 183.932973,28.2635202 C183.738489,29.0747296 182.862803,29.616048 181.623473,29.616048 C177.392934,29.616048 173.844103,25.0683587 172.603759,22.9292035 C172.360654,22.5118199 171.947375,21.9955957 172.33685,20.20059 C173.892217,13.1460382 175.788439,10.539823 177.465865,9.31122992 C178.243802,8.7453294 178.730013,8.64751311 179.191913,8.64751311 C179.532261,8.64751311 179.94554,8.91740413 180.067599,9.21290151 C180.261577,9.50788676 180.626235,9.9006883 181.136756,9.9006883 C181.744519,9.9006883 182.328478,9.36039413 182.328478,8.67209521 C182.328478,7.86088578 181.647783,7 180.189151,7 C179.191913,7 178.025008,7.24633317 176.785171,8.22961734 C174.086702,10.3190962 172.530828,15.0629302 171.461164,19.930699 C171.363922,20.3972468 171.242369,20.6189979 171.072196,20.3240126 C169.759427,18.1853696 167.498548,11.8923509 166.67199,8.13077679 C166.574747,7.73797525 166.428884,7.56590052 165.966984,7.56590052 C161.591089,7.56590052 159.160035,7.36924369 157.409677,8.62241888 C156.267082,9.45872255 155.73225,10.7861562 155.73225,12.0398435 C155.73225,13.2197845 156.461566,14.1539045 157.312435,14.1539045 C158.066061,14.1539045 158.527962,13.6376803 158.527962,13.096874 C158.527962,12.5560677 158.187614,12.1135898 157.433988,11.9901672 C156.923467,11.8426745 156.753293,11.3023804 156.753293,11.006883 C156.753293,10.4174246 157.701404,9.75319567 158.698135,9.45872255 C160.083836,9.01624467 161.469536,9.04082678 162.952478,9.04082678 C163.48731,9.04082678 163.779036,9.21290151 163.779036,9.7782899 C163.779036,12.2119182 161.858504,17.5708169 160.132457,20.0044453 C159.062793,21.4788594 157.09364,23.3476114 154.759829,23.3476114 C153.398439,23.3476114 153.033782,22.8068051 153.131024,22.339233 C153.252576,21.7984267 153.933271,21.4547894 153.933271,20.7419084 C153.933271,19.9056047 153.374129,19.5619674 152.742055,19.5619674 C152.085671,19.5619674 151.234802,20.2502663 151.234802,21.5776999 L151.234802,21.5776999 Z M139.201089,9.7782899 C139.371769,8.7699115 139.71161,8.47543838 140.490054,8.47543838 L140.879022,8.47543838 C141.073,8.47543838 141.122128,8.37659784 141.122128,8.27826942 L141.21937,7.71288102 C141.267484,7.54131842 141.21937,7.49164208 140.976264,7.49164208 C140.684032,7.49215421 139.760231,7.5653884 138.252978,7.5653884 C136.648483,7.5653884 135.676062,7.49215421 135.432957,7.49215421 C135.238473,7.49164208 135.189852,7.54131842 135.141737,7.68881105 L135.068805,8.25368732 C135.043988,8.42576205 135.092609,8.47543838 135.2876,8.47543838 L135.871053,8.47543838 C136.405885,8.47543838 136.503127,8.91740413 136.405885,9.75319567 L134.67933,23.4951041 C134.582595,24.183403 134.703641,24.5275524 135.019678,24.5275524 C135.408646,24.5275524 135.651752,24.2320551 135.943984,23.8879056 C136.842968,22.8313873 143.406811,13.612586 143.649916,13.2684366 C143.844907,13.0231277 144.038885,13.0231277 143.99077,13.3181129 L143.285765,23.6425967 C143.236637,24.183403 143.33388,24.5275524 143.722848,24.5275524 C144.111817,24.5275524 144.404049,24.1342388 144.720086,23.740413 C145.765439,22.4375615 148.950119,17.6937275 149.630307,16.5629507 C150.214266,15.5796665 153.860846,9.48330465 154.103951,9.1391552 C154.49292,8.62241888 154.930509,8.47543838 155.368099,8.47543838 L155.805689,8.47543838 C155.902931,8.47543838 155.951045,8.42576205 156.000173,8.27826942 L156.097415,7.66422894 C156.121725,7.54131842 156.048794,7.49164208 155.85431,7.49164208 C155.513456,7.49215421 154.881382,7.5653884 153.42275,7.5653884 C152.158602,7.5653884 151.57515,7.49215421 151.234802,7.49215421 C151.089445,7.49164208 150.991697,7.54131842 150.991697,7.73746313 L150.894961,8.25368732 C150.845834,8.42576205 150.943582,8.47543838 151.089445,8.47543838 L151.477908,8.47543838 C152.20773,8.47543838 152.256351,9.11457309 152.03705,9.75319567 C151.818761,10.4174246 150.748592,12.7276303 149.582193,14.6941986 C149.095475,15.5299902 146.71355,19.5122911 146.227339,20.0530973 C145.984234,20.3480826 145.838371,20.2994305 145.886485,19.8564405 L147.102518,9.63079728 C147.19976,8.7699115 147.442866,8.47543838 147.879949,8.47543838 L148.268917,8.47543838 C148.463908,8.47543838 148.512023,8.42576205 148.56115,8.27826942 L148.634082,7.68881105 C148.658392,7.54131842 148.609265,7.49164208 148.415287,7.49164208 C148.123054,7.49215421 147.49098,7.5653884 146.08097,7.5653884 C144.573717,7.5653884 143.942149,7.49215421 143.698537,7.49215421 C143.504053,7.49164208 143.455939,7.54131842 143.406811,7.63913471 L143.309569,8.30285152 C143.309569,8.42576205 143.358697,8.47543838 143.504053,8.47543838 L143.844907,8.47543838 C144.28199,8.47543838 144.476981,8.81958784 144.476981,9.31122992 C144.476981,9.82694199 144.185255,10.8102262 143.601802,11.695694 C143.504053,11.8426745 138.107622,19.7089479 137.961252,19.8564405 C137.718147,20.1519379 137.524169,20.0530973 137.572284,19.7581121 L139.201089,9.7782899 Z M122.500261,10.1956735 C123.37544,9.16322517 124.542345,8.37659784 126.000977,8.37659784 C128.188925,8.37659784 129.403945,9.99901672 129.403945,12.4572271 C129.355831,17.7669617 126.195461,23.273353 122.646124,23.273353 C120.65266,23.273353 119.048165,21.847591 119.048165,18.7999222 C119.048165,16.0953786 120.506797,12.4572271 122.500261,10.1956735 L122.500261,10.1956735 Z M132.029989,14.3746313 C132.029989,9.85152409 129.307209,7.19716896 125.417018,7.19716896 C120.263692,7.19716896 116.568491,12.0147493 116.568491,17.1278269 C116.568491,19.3402163 117.200565,21.3067847 118.707311,22.7817109 C120.214564,24.2566372 122.111292,24.4041298 123.083207,24.4041298 C128.577894,24.4041298 132.029989,19.2915642 132.029989,14.3746313 L132.029989,14.3746313 Z M106.870615,7.5653884 C104.342826,7.5653884 103.175414,7.36924369 102.689204,7.22175107 C102.495226,7.07374631 102.397477,7.0245821 102.300235,7.0245821 C102.154372,7.0245821 102.106257,7.12291052 102.05713,7.27040315 C102.008509,7.41789577 100.501762,10.8599025 100.209529,11.4001967 C100.160908,11.4990372 100.160908,11.5968535 100.25815,11.6460177 L100.647119,11.8923509 C100.744868,11.8923509 100.841603,11.8923509 100.938845,11.7935103 C101.522298,11.1057235 102.786446,9.67944936 103.637314,9.04031465 C104.196457,8.62190675 105.26612,8.50002049 107.502689,8.50002049 L108.134763,8.50002049 L104.390941,20.64358 C103.831799,22.4867257 103.369898,23.1258604 102.008509,23.1258604 L101.376941,23.1258604 C101.181951,23.1258604 101.109019,23.1755367 101.084708,23.3230293 L101.036087,23.8638356 C101.011777,24.0113283 101.084708,24.1091445 101.254882,24.1091445 C101.497988,24.1091445 102.786446,24.0359104 105.168878,24.0359104 C107.454068,24.0359104 108.426489,24.1091445 108.766836,24.1091445 C108.93701,24.1091445 109.034252,24.0359104 109.059069,23.8638356 L109.155805,23.3721935 C109.180115,23.2247009 109.132001,23.1258604 109.009942,23.1258604 L108.03752,23.1258604 C106.773373,23.1258604 106.530268,22.5855662 107.016478,21.0363815 L110.857542,8.50002049 L111.343753,8.50002049 C112.462037,8.50002049 114.212395,8.7207473 114.747227,9.13864307 C115.087575,9.77777778 115.525671,11.3018682 115.719648,12.0884956 C115.81689,12.383993 115.914639,12.4823214 116.060502,12.4823214 L116.448964,12.4080629 C116.594827,12.383993 116.643955,12.3343166 116.643955,12.186824 C116.594827,11.2035398 116.837933,7.61506473 116.88706,7.22175107 C116.88706,7.07374631 116.789818,7.0245821 116.69207,7.0245821 C116.594827,7.0245821 116.546713,7.07374631 116.448964,7.12291052 C116.011881,7.36924369 115.136702,7.5653884 112.948754,7.5653884 L106.870615,7.5653884 Z M97.6062766,19.6111316 C97.4604135,19.5128032 97.3631713,19.5619674 97.3145503,19.6602958 C96.9255818,20.1027737 95.6128131,21.7743568 95.0779814,22.2168346 C94.4459076,22.7817109 93.7652127,23.1509546 92.9386546,23.1509546 L87.4930956,23.1509546 L89.8755277,15.7020649 L91.0910543,15.7020649 C92.8414125,15.7020649 93.7652127,15.9729802 93.7652127,17.7428917 C93.7652127,17.8903843 93.7652127,17.9395485 93.9110759,17.9887127 L94.3486655,17.9887127 C94.4459076,17.9887127 94.4945286,17.9887127 94.5431497,17.8412201 C94.6403918,16.9071001 95.4183288,13.8589192 95.8072973,12.9247992 C95.8559184,12.875635 95.8072973,12.7767945 95.7100552,12.7767945 L95.2724656,12.6293019 C95.1752235,12.6293019 95.1266025,12.6789782 95.0779814,12.7767945 C94.2028023,14.6947108 93.2546915,14.8176213 92.2093387,14.8176213 L90.118633,14.8176213 L92.1607176,8.45034415 L95.9531605,8.45034415 C96.0990237,8.45034415 96.2448869,8.50002049 96.3907501,8.64751311 L98.8704243,11.5482014 C99.0162875,11.695694 99.0649085,11.7448582 99.1621506,11.695694 L99.453877,11.5482014 C99.5997402,11.449873 99.5997402,11.449873 99.5511191,11.2772861 L98.8218032,7.9837963 C98.7245611,7.59048263 98.67594,7.49164208 98.2869715,7.49164208 C98.0195557,7.49164208 97.4361029,7.51673632 96.4636817,7.54131842 C95.4912604,7.56590052 94.1541812,7.56590052 92.403823,7.56590052 L90.6534647,7.56590052 C90.0700119,7.56590052 89.2677644,7.54131842 88.562759,7.51673632 C87.8820641,7.51673632 87.2986114,7.49164208 87.1527482,7.49164208 C86.9582639,7.49164208 86.9096429,7.54131842 86.8610218,7.68881105 L86.7151586,8.22961734 C86.6665376,8.37710996 86.7394692,8.47543838 86.8610218,8.47543838 L87.6389588,8.47543838 C88.3682748,8.47543838 89.2434539,8.81958784 88.8301749,10.1465093 L85.1106636,21.8224967 C84.8675583,22.6342183 84.3813476,23.1258604 83.4089264,23.1258604 L82.6309894,23.1258604 C82.5337472,23.1258604 82.4851262,23.1755367 82.4608157,23.273353 L82.3635735,23.9124877 C82.339263,24.0599803 82.3878841,24.1091445 82.5094367,24.1091445 C82.6552999,24.1091445 83.0442684,24.0845624 83.5791001,24.0599803 C84.1382423,24.0599803 84.8432477,24.0359104 85.5968742,24.0359104 L88.7572433,24.0359104 C90.4346699,24.0359104 92.1850282,24.0359104 93.5707285,24.0599803 C94.9564287,24.0845624 95.9531605,24.1091445 96.1476448,24.1091445 C96.4393711,24.1091445 96.5852343,24.0599803 96.6824765,23.6671788 L97.9466241,20.0776794 C97.9952451,19.9056047 97.9466241,19.8569526 97.898003,19.8077884 L97.6062766,19.6111316 Z M80.443548,19.4882211 C80.7590785,18.1853696 81.0994259,17.9887127 81.5618325,17.9887127 L82.0718472,17.9887127 C82.2177103,17.9887127 82.2663314,17.9395485 82.2906419,17.7915438 L82.36408,17.2020854 C82.3878841,17.0791749 82.3149525,17.0049164 82.1447787,17.0049164 C81.8044313,17.0054285 81.2209786,17.0791749 79.5678624,17.0791749 C77.4285357,17.0791749 76.5776671,17.0054285 76.2130091,17.0054285 C76.0185249,17.0049164 75.9699038,17.0545928 75.9455933,17.2020854 L75.8483511,17.7428917 C75.7997301,17.9149664 75.8240406,17.9887127 76.0185249,17.9887127 L76.8693935,17.9887127 C77.5257778,17.9887127 77.7931936,18.1853696 77.7202621,19.1194895 C77.6230199,20.5698337 76.2130091,23.1007661 73.2957454,23.1007661 C72.226082,23.1007661 69.7707183,22.4616314 69.7707183,18.4306785 C69.7707183,15.456756 70.5729659,12.8013766 71.9829767,11.006883 C73.6847139,8.7453294 75.4350721,8.20503523 76.9909461,8.20503523 C80.1513152,8.20503523 81.3425312,10.7861562 80.9297587,12.9002171 C80.9049417,13.0477098 80.9778732,13.120944 81.0994259,13.1460382 L81.4889009,13.1952024 C81.6585681,13.2197845 81.7071892,13.1952024 81.7558102,13.0477098 L83.1415105,8.10619469 C83.1663275,7.9837963 83.0928895,7.93411996 82.9961538,7.90953786 L82.6309894,7.81120944 C82.5094367,7.78662734 82.4365051,7.81120944 82.4121946,7.93411996 C82.2663314,8.47543838 82.1209747,8.7207473 81.8287418,8.7207473 C81.7071892,8.7207473 81.4889009,8.67209521 81.1723575,8.42576205 C80.6866533,8.0329605 79.3976887,7.19716896 76.8693935,7.19716896 C73.4902296,7.19716896 71.3752134,8.69667732 70.0138236,10.072763 C68.2148443,11.916933 66.780523,14.5963823 66.780523,17.7674738 C66.780523,22.0201778 69.0657129,24.4041298 72.4205662,24.4041298 C75.702488,24.4041298 77.0881882,22.4134915 77.4285357,21.9464315 L77.5743989,21.9950836 C76.6749092,25.387414 76.2373196,27.3294002 75.9455933,28.4852712 C75.5080037,30.1814364 74.8273088,31.2133727 73.5631612,31.2133727 C73.05264,31.2133727 72.4934978,30.9434816 72.4934978,30.4518396 C72.4934978,30.2551827 72.5421189,30.1322722 72.639361,30.0339438 C72.7609137,29.9105211 72.8581558,29.4931375 72.8581558,29.1981522 C72.8581558,28.927237 72.7122926,28.1657039 71.812803,28.1657039 C70.9619344,28.1657039 70.5000343,28.8294207 70.5000343,29.6897943 C70.5000343,30.8687111 71.3752134,32 73.6360928,32 C75.4836932,32 77.2340514,30.3535111 77.8661252,29.0506596 C78.1821621,28.3377786 78.6683728,26.9365987 78.8385465,26.1008071 L80.443548,19.4882211 Z M57.7613159,8.37659784 C58.0530422,8.32794576 58.3447686,8.32794576 58.7823582,8.32794576 C61.1647902,8.32794576 61.8946127,9.92578253 61.8946127,10.9577188 C61.8946127,12.7281424 60.7763282,14.1042281 59.5116741,14.6455465 C57.858558,15.3333333 56.5944104,15.2350049 55.6219891,15.2350049 L57.7613159,8.37659784 Z M55.3545733,16.0958907 C56.0109576,16.0958907 57.080621,15.9483981 57.6640737,17.2999017 C57.9558001,17.8903843 60.0951269,22.7084767 60.4354743,23.2979351 C60.7763282,23.8638356 60.8730639,24.1091445 61.1161692,24.1091445 C61.5051377,24.1091445 61.9427272,24.0359104 63.3527381,24.0359104 C64.6655068,24.0359104 65.0544753,24.1091445 65.2975806,24.1091445 C65.4434438,24.1091445 65.4925713,24.0113283 65.5406859,23.8638356 L65.5893069,23.3721935 C65.637928,23.2247009 65.5893069,23.1258604 65.4434438,23.1258604 L64.8113699,23.1258604 C63.9361908,23.1258604 63.3527381,22.7330588 62.6968602,21.7006105 C62.2830747,21.0363815 60.6299586,17.5462348 60.4840954,17.2999017 C60.2409901,16.8082596 59.8520216,16.0713086 59.0740846,15.8741396 L59.0740846,15.7763233 C62.2344536,15.4321739 64.8113699,13.4650934 64.8113699,11.0565593 C64.8113699,7.66422894 61.1647902,7.49164208 59.0740846,7.49164208 C58.3933897,7.49164208 55.8650944,7.5653884 53.3367992,7.5653884 C53.0936939,7.5653884 53.0450728,7.61455261 52.9964517,7.76204523 L52.8992096,8.27826942 C52.8505885,8.42576205 52.8992096,8.47543838 53.0936939,8.47543838 L53.9202519,8.47543838 C54.74681,8.47543838 54.8926732,8.91740413 54.6495679,9.70403147 L50.7598829,21.9705015 C50.5653986,22.5860783 50.127809,23.1258604 49.5443563,23.1258604 L48.9122825,23.1258604 C48.7177982,23.1258604 48.6691772,23.1755367 48.6691772,23.3230293 L48.571935,23.8638356 C48.523314,24.0113283 48.571935,24.1091445 48.7177982,24.1091445 C49.0095246,24.1091445 49.9333248,24.0359104 51.635062,24.0359104 C53.7257677,24.0359104 54.7954311,24.1091445 55.0871574,24.1091445 C55.2330206,24.1091445 55.3302627,24.0599803 55.3788838,23.9124877 L55.4275049,23.3230293 C55.4761259,23.2247009 55.4275049,23.1258604 55.2816417,23.1258604 L54.2605994,23.1258604 C53.5799045,23.1258604 53.3124886,22.6838946 53.7257677,21.3559489 L55.3545733,16.0958907 Z M39.6742806,10.1956735 C40.5494597,9.16322517 41.7163652,8.37659784 43.1749971,8.37659784 C45.3629449,8.37659784 46.5789779,9.99901672 46.5789779,12.4572271 C46.5298504,17.7669617 43.3699878,23.273353 39.8201438,23.273353 C37.8266802,23.273353 36.2221851,21.847591 36.2221851,18.7999222 C36.2221851,16.0953786 37.680817,12.4572271 39.6742806,10.1956735 L39.6742806,10.1956735 Z M49.2045153,14.3746313 C49.2045153,9.85152409 46.4812294,7.19716896 42.5915443,7.19716896 C37.4377117,7.19716896 33.742511,12.0147493 33.742511,17.1278269 C33.742511,19.3402163 34.3745848,21.3067847 35.8818377,22.7817109 C37.3890906,24.2566372 39.2853121,24.4041298 40.2582398,24.4041298 C45.7519134,24.4041298 49.2045153,19.2915642 49.2045153,14.3746313 L49.2045153,14.3746313 Z M30.7528221,19.6111316 C30.6069589,19.5128032 30.5097168,19.5619674 30.4610957,19.6602958 C30.0721272,20.1027737 28.7593585,21.7743568 28.2245268,22.2168346 C27.592453,22.7817109 26.9117581,23.1509546 26.0852001,23.1509546 L20.6396411,23.1509546 L23.0220731,15.7020649 L24.2375997,15.7020649 C25.9879579,15.7020649 26.9117581,15.9729802 26.9117581,17.7428917 C26.9117581,17.8903843 26.9117581,17.9395485 27.0576213,17.9887127 L27.4952109,17.9887127 C27.592453,17.9887127 27.6410741,17.9887127 27.6896951,17.8412201 C27.7869373,16.9071001 28.5648743,13.8589192 28.9538428,12.9247992 C29.0024638,12.875635 28.9538428,12.7767945 28.8566006,12.7767945 L28.4190111,12.6293019 C28.3217689,12.6293019 28.2731479,12.6789782 28.2245268,12.7767945 C27.3493477,14.6947108 26.401237,14.8176213 25.3558841,14.8176213 L23.2651784,14.8176213 L25.3072631,8.45034415 L29.0997059,8.45034415 C29.2455691,8.45034415 29.3914323,8.50002049 29.5372955,8.64751311 L32.0169697,11.5482014 C32.1628329,11.695694 32.211454,11.7448582 32.3086961,11.695694 L32.6004225,11.5482014 C32.7462856,11.449873 32.7462856,11.449873 32.6976646,11.2772861 L31.9683486,7.9837963 C31.8711065,7.59048263 31.8224855,7.49164208 31.433517,7.49164208 C31.1661011,7.49164208 30.5826484,7.51673632 29.6102271,7.54131842 C28.6378059,7.56590052 27.3007266,7.56590052 25.5503684,7.56590052 L23.8000101,7.56590052 C23.2165574,7.56590052 22.4143098,7.54131842 21.7093044,7.51673632 C21.0286096,7.51673632 20.4451568,7.49164208 20.2992936,7.49164208 C20.1048094,7.49164208 20.0561883,7.54131842 20.0075672,7.68881105 L19.8617041,8.22961734 C19.813083,8.37710996 19.8860146,8.47543838 20.0075672,8.47543838 L20.7855042,8.47543838 C21.5148202,8.47543838 22.3899993,8.81958784 21.9767203,10.1465093 L18.257209,21.8224967 C18.0141037,22.6342183 17.5278931,23.1258604 16.5554718,23.1258604 L15.7775348,23.1258604 C15.6802927,23.1258604 15.6316716,23.1755367 15.6073611,23.273353 L15.510119,23.9124877 C15.4858084,24.0599803 15.5344295,24.1091445 15.6559821,24.1091445 C15.8018453,24.1091445 16.1908138,24.0845624 16.7256455,24.0599803 C17.2847877,24.0599803 17.9897932,24.0359104 18.7434196,24.0359104 L21.9037887,24.0359104 C23.5812153,24.0359104 25.3315736,24.0359104 26.7172739,24.0599803 C28.1029742,24.0845624 29.0997059,24.1091445 29.2941902,24.1091445 C29.5859166,24.1091445 29.7317798,24.0599803 29.8290219,23.6671788 L31.0931695,20.0776794 C31.1417906,19.9056047 31.0931695,19.8569526 31.0445485,19.8077884 L30.7528221,19.6111316 Z M12.0580235,26.1008071 C11.8878498,26.9365987 11.4016392,28.3377786 11.0856023,29.0506596 C10.453022,30.3535111 8.70367667,32 6.85556982,32 C4.59519688,32 3.71951129,30.8687111 3.71951129,29.6897943 C3.71951129,28.8294207 4.18191785,28.1657039 5.03227998,28.1657039 C5.9322761,28.1657039 6.07813929,28.927237 6.07813929,29.1981522 C6.07813929,29.4931375 5.9803907,29.9105211 5.85934451,30.0339438 C5.76210238,30.1322722 5.71348132,30.2551827 5.71348132,30.4518396 C5.71348132,30.9434816 6.27262354,31.2133727 6.78213176,31.2133727 C8.04678586,31.2133727 8.7279872,30.1814364 9.16507029,28.4852712 C9.45730314,27.3294002 9.89438623,25.387414 10.7943824,21.9950836 L10.6485192,21.9464315 C10.3081717,22.4134915 8.92196498,24.4041298 5.64004326,24.4041298 C2.28518994,24.4041298 0,22.0201778 0,17.7674738 C0,14.5963823 1.43432135,11.916933 3.23380713,10.072763 C4.59519688,8.69667732 6.7102131,7.19716896 10.089377,7.19716896 C12.6171657,7.19716896 13.9061304,8.0329605 14.392341,8.42576205 C14.7083779,8.67209521 14.9266662,8.7207473 15.0487253,8.7207473 C15.3404517,8.7207473 15.4858084,8.47543838 15.6321781,7.93411996 C15.6559821,7.81120944 15.7289137,7.78662734 15.8509729,7.81120944 L16.2151244,7.90953786 C16.312873,7.93411996 16.3858046,7.9837963 16.3609876,8.10619469 L14.9757937,13.0477098 C14.9266662,13.1952024 14.8785516,13.2197845 14.7083779,13.1952024 L14.3194094,13.1460382 C14.1973503,13.120944 14.1244187,13.0477098 14.1492357,12.9002171 C14.5625147,10.7861562 13.3712987,8.20503523 10.2104231,8.20503523 C8.65505561,8.20503523 6.90469735,8.7453294 5.20296016,11.006883 C3.79294935,12.8013766 2.99070182,15.456756 2.99070182,18.4306785 C2.99070182,22.4616314 5.44606548,23.1007661 6.51572885,23.1007661 C9.43299261,23.1007661 10.842497,20.5698337 10.9397391,19.1194895 C11.0126707,18.1853696 10.7457613,17.9887127 10.089377,17.9887127 L9.23800189,17.9887127 C9.04402411,17.9887127 9.01920711,17.9149664 9.06833464,17.7428917 L9.16507029,17.2020854 C9.1898873,17.0545928 9.23800189,17.0049164 9.43248614,17.0054285 C9.79714411,17.0054285 10.6480127,17.0791749 12.7873395,17.0791749 C14.4404556,17.0791749 15.0244148,17.0054285 15.3647622,17.0049164 C15.534936,17.0049164 15.6078676,17.0791749 15.583557,17.2020854 L15.5106254,17.7915438 C15.4858084,17.9395485 15.4376938,17.9887127 15.2918306,17.9887127 L14.7813095,17.9887127 C14.3194094,17.9887127 13.9785555,18.1853696 13.6630251,19.4882211 L12.0580235,26.1008071 Z" fill="#FFFFFF"></path>
                        </g>
                    </g>
                </g>
            </g>
        </g>
    </g>
</svg>