<svg width="290" height="32" xmlns="http://www.w3.org/2000/svg" xmlns:xlink="http://www.w3.org/1999/xlink"><defs><path id="a" d="M.014.023H31.99V32H.014z"/><path d="M.014 16.012c0 7.991 5.862 14.613 13.521 15.799h4.933c7.66-1.186 13.522-7.808 13.522-15.8 0-8.83-7.158-15.988-15.988-15.988C7.172.023.014 7.181.014 16.012" id="c"/><path d="M.079.014l.025.1c-.05 0-.1-.034-.1-.034" id="e"/><path d="M8.863.01c0 .15.086.192.086.3 0 .064-.129.043-.15.107h.128c-.042.064-.064.107-.064.15h.086V.524c.085-.021.085-.043.128-.064.02.039.145.042.168.043h.004C9.206.63 9.12.63 9.077.76h.15c.129-.107.236-.257.428-.257 0-.15.15-.193.279-.193.064 0 .128.043.214.043V.48c0 .064-.129.086-.15.15-.064.172-.15.321-.343.321-.043 0-.107-.042-.128-.086-.015.03-.03.05-.03.067 0 .007.003.013.009.02-.086.02-.107.063-.15.063-.065 0-.107-.086-.15-.086-.13.065-.172.193-.343.193a.597.597 0 01-.257-.085h-.128c.013.095.104.112.208.112.06 0 .122-.006.177-.006v.086c-.193.043-.492.236-.706.236L7.9 1.402h-.065c.086.043.193.043.257.107-.086.128-.192.107-.3.15-.106.02-.15.106-.235.106v.087c-.193.02-.557.32-.557.557h.129c0 .056-.01.132-.01.183 0 .025.003.045.01.052l-.043.064c0 .043.043.064.086.064l.235-.085c.215.107.3.342.514.407 0 .057.03.075.073.075.084 0 .212-.075.227-.075l.15.042c-.022.065-.044.086-.107.128l.063.043c-.063.108-.128.214-.128.322 0 .042.086.214.172.214 0 .043.042.086.064.106.192-.192.385-.385.385-.77.236 0 .728-.215.728-.492 0-.15-.171-.15-.171-.236 0-.064.321-.365.321-.365a.116.116 0 01-.023-.067c0-.127.225-.25.28-.36l.557.02c0 .108.064.066.15.086.042 0 .064.151.064.151.021.02.058.026.1.026.043 0 .092-.006.136-.006l.02.044c-.127.106-.127.321-.213.364h.107c0 .128-.107.15-.128.235.063 0 .128-.064.17-.085a.079.079 0 00.045.011c.166 0 .544-.34.64-.419a.35.35 0 01.028.138c0 .04-.006.077-.006.12h.086c0 .085-.021.107-.043.15.022.021.043.021.086.021v.107c0 .043.021.065.064.086-.021.107-.086.107-.128.128.128.193.3.258.513.321-.057.135-.444.2-.444.228 0 .003.005.006.016.008.064 0 .086-.022.15-.022.021 0 .15-.043.214-.043.114 0 .133.02.171.02a.28.28 0 00.086-.02v.108c0 .128 0 .128-.128.15a.266.266 0 00.064.085c-.044.073-.107.116-.17.116-.03 0-.06-.01-.087-.03-.129.129-.407.064-.407.235h-.021c-.064.064-.064.108-.172.108l-.364-.064h-.47c-.365 0-.43.278-.707.364-.172.064-.471.278-.514.45.15 0 .128-.108.192-.151.3-.128.6-.45.943-.45.064 0 .171.044.171.107 0 .108-.064.172-.129.172-.085 0-.171-.043-.257-.043-.064 0-.107.021-.107.043l.215.086c.028 0 .057-.01.092-.01.017 0 .036.003.057.01-.042.064-.128.085-.128.171 0 .175.19.232.366.232.06 0 .12-.007.169-.018v.086a.143.143 0 01-.092.03l-.036-.001-.036-.002a.156.156 0 00-.071.016c-.15.085-.236.171-.386.257-.107.042-.214.021-.235.063-.043 0-.086-.02-.086-.042 0-.278.471-.214.578-.3-.107-.02-.128-.107-.214-.107s-.193.129-.235.129c-.022.021-.065.021-.107.042-.236.085-.407.193-.643.257-.15.043-.171.279-.256.322l.02.064.086-.064a.235.235 0 01.003.034c0 .085-.057.095-.136.095l-.081-.001c-.192 0-.428.085-.557.15v.107c0 .15-.128.193-.193.278v-.064c-.042 0-.063-.064-.063-.086H8.22a.627.627 0 00-.01.106c0 .057.01.094.01.151 0 .086-.064.15-.129.235v-.033c0-.133.002-.235.021-.373-.085.043-.128.107-.128.192H7.9c0 .065.064.15.128.15v.108c-.107.021-.15 0-.214.021.02.043.107.064.128.064l.043.086c-.192.214-.192.385-.492.47-.086.044-.321.322-.385.344-.215.107-.386.172-.386.45v.235c0 .042.02.094.02.156a.276.276 0 01-.02.101l.043.213c-.022.15-.043.364-.107.45h-.13c0-.155-.087-.134-.087-.224 0-.01 0-.02.003-.032v-.107c-.065 0-.108-.107-.108-.172v-.257c0-.085-.064-.235-.192-.235h-.129c-.107 0-.193-.043-.363-.043-.108 0-.129-.065-.215-.065-.038 0-.113-.008-.185-.008-.092 0-.179.013-.179.073 0 .085.107.107.129.193-.107 0-.236.064-.3.064l-.128-.15-.108.064c-.064 0-.106-.086-.17-.086-.258 0-.664.3-.836.471-.022.022-.026.053-.026.09 0 .027.003.059.003.09a.244.244 0 01-.02.105c0 .054-.01.091-.01.134 0 .022.003.046.01.074-.171.014-.2.23-.2.409 0 .089.008.17.008.212 0 .043 0 .3.021.364.043.15.3.492.47.492.044 0 .237-.106.28-.106a.182.182 0 01.055-.007c.03 0 .065.003.1.007.033.003.066.006.09.006.016 0 .028-.002.033-.006.17-.15.107-.3.192-.471.065-.13.45-.15.6-.15h.107a.23.23 0 00.043.128c-.064.043-.236.086-.236.45-.043.085-.107.107-.128.17v.13a.144.144 0 01.017.075.613.613 0 01-.145.33c.002.003.006.004.012.004.047 0 .201-.068.373-.068.117-.02.234-.026.335-.026.103 0 .189.006.243.006 0 .128-.021.149-.021.213 0 .15-.129.45-.129.75 0 .129.085.321.214.428a.249.249 0 00.172.064c.192 0 .256-.15.428-.15.214 0 .257.236.45.236.036-.042.074-.086.107-.129.128-.17.064-.3.192-.428a.07.07 0 01.052-.019c.018 0 .037.004.056.008.02.004.039.007.058.007.035 0 .067-.012.09-.06h.109c.085-.042.192-.15.299-.235.042.02.064.02.106.064v.043c-.02.15-.15.214-.15.45 0 .085 0 .17.108.17l.064.065a.055.055 0 01-.004-.024c0-.059.047-.171.047-.19 0-.129-.022-.107-.022-.236 0-.064.065-.107.108-.107a.167.167 0 01-.01-.052c.001-.037.016-.067.031-.098.085.128.3.086.3.322h.128l.086-.044c.014.015.03.02.051.02.04 0 .092-.02.163-.02.016.047.042.082.08.082a.09.09 0 00.048-.017c0 .043.044.065.087.065l.085-.044c0-.042.043-.063.064-.063.065 0 .107 0 .172-.065h.15c0 .042-.022.065-.022.086 0 .064.107.128.15.128l-.002.027c0 .027.011.059.087.059l.065-.043c0 .128.064.235.214.257.15.085.15.171.235.385l.043-.042c.065 0 .065.127.193.17l.364-.021c.064 0 .235.042.278.086.022-.022.029-.029.033-.029.008 0 .003.029.074.029.022.15.15.235.343.321.107.042.043.45.214.45 0 .064.021.085.085.128-.064.107-.256.15-.278.385l-.193.193c.044 0 .108 0 .15-.043h.086c0 .107.15.13.279.13.009.014.02.02.034.02.08 0 .225-.244.244-.3h.085a.246.246 0 00.202.103c.03 0 .064-.005.098-.017 0 0 .129.15.235.15 0 .043.044.086.044.107 0 0-.01.047-.01.098a.25.25 0 00.01.074c.042-.065.063-.108.235-.108.107 0 .172.043.3.043.086 0 .15.022.257.022.257 0 .385.342.599.47a.053.053 0 00.04.016c.018 0 .038-.006.06-.012a.238.238 0 01.065-.013c.04 0 .08.02.114.096.021.085.107.342.107.492 0 .578-.514.493-.514 1.006-.065.022-.236.086-.236.193 0 .128.065.385.065.47v.3c0 .129-.107.15-.107.28a.8.8 0 01-.172.534l-.086.193c-.042.15-.021.192-.214.192-.031 0-.058-.005-.09-.005a.315.315 0 00-.124.027c-.128 0-.17.15-.236.15-.192 0-.62.32-.62.535 0 .086.107.257.107.407 0 .15-.171.171-.214.3-.043.17-.086.214-.129.363a1.51 1.51 0 00-.214.365l-.01-.01-.012.01a.49.49 0 00-.01.065v.002c0 .002 0-.003-.011.018-.02.043-.085.022-.107.086-.042.171-.064.214-.256.257a.487.487 0 01-.15.025c-.095 0-.187-.034-.215-.131l-.214-.064v-.43l-.021.45a.062.062 0 00-.001.014c0 .105.219.243.3.243a.17.17 0 00-.016.075c0 .027.006.053.017.075.021.022.107.043.107.107 0 .271-.123.455-.498.455a1.35 1.35 0 01-.123-.006c-.065 0-.257 0-.257.129 0 .022.043.044.043.086 0 .043.042.128.042.128 0 .064 0 .193-.085.193-.107 0-.257-.107-.386-.107v.043c0 .107.193.342.193.556 0 .087-.043.172-.043.28-.064 0-.257.042-.257.148 0 .172.193.258.407.258v.256c-.064.043-.086.064-.193.108v.064h.022l.043.193c-.043 0-.13.085-.13.128 0 .02.036.15.042.271l.023.008a.026.026 0 00-.009.02c0 .016.016.035.031.065-.107.022-.15.022-.193.193-.009.018-.016.026-.022.026-.025 0-.039-.104-.106-.154-.15 0-.257-.065-.279-.129l.064-.021c-.02-.108-.235-.065-.235-.257-.171-.022-.278-.343-.278-.579-.044 0-.065-.011-.081-.036.005.034.017.083.017.1-.044 0-.108-.042-.129-.086l.021-.02c.04 0 .046-.017.078-.02l-.035-.088c-.02-.042-.214-.064-.299-.064.02-.128.17-.107.299-.171-.02-.086-.043-.108-.043-.214 0-.043-.064-.215-.064-.257 0-.129-.021-.236-.043-.407-.193 0-.3-.021-.3-.236 0-.085.043-.128.043-.214 0-.085-.213-.32-.213-.493 0-.084.085-.106.085-.213 0-.236.042-.386.042-.621 0-.065.006-.103.006-.138a.297.297 0 00-.026-.12c-.044 0-.065-.256-.065-.256v-.214c0-.064-.064-.064-.064-.17 0-.066.022-.109.043-.152-.007-.007-.01-.021-.01-.039 0-.035.01-.082.01-.11 0-.15.02-.128.02-.321 0-.236-.085-.364-.085-.6 0-.086.065-.129.065-.236 0-.278-.15-.47-.15-.813-.171 0-.171-.214-.343-.279-.064 0-.45-.171-.45-.235-.063-.021-.214-.193-.363-.3a.085.085 0 01-.045-.079c0-.046.02-.1.02-.158a.184.184 0 00-.018-.084c-.021-.063-.171-.085-.193-.192-.043-.108-.02-.151-.107-.258-.107-.17-.15-.278-.235-.47-.043-.065-.086-.065-.107-.172-.022-.085-.065-.17-.15-.213-.086-.065-.193-.065-.236-.194l.064-.085a.468.468 0 01-.021-.172v-.02c0-.173.085-.173.171-.258.018.018.05.05.06.084l.003.006v-.001c-.009-.034-.037-.065-.041-.085v-.004a.42.42 0 00.042-.193c0-.01-.004-.014-.01-.014-.02 0-.064.036-.097.036-.086 0-.15-.043-.15-.129 0-.171.214-.428.322-.6.06 0 .081-.056.102-.117l-.017-.011c.022-.042.044-.107.065-.15.128 0 .257-.235.257-.32 0-.043-.01-.161-.01-.274 0-.057.002-.112.01-.156-.038-.018-.043-.145-.043-.192l-.129-.128c0-.085.043-.106.086-.15-.107-.064-.171-.064-.236-.172-.15.043-.193.193-.193.322 0 .043-.042.064-.085.064-.107 0-.15-.215-.278-.215H5.93v.022-.022h-.064c-.15 0-.107-.17-.236-.234v.063c-.064 0-.128-.214-.214-.278 0 .044.02.108.064.108v.064h-.085c-.065-.043-.086-.128-.086-.214l.043-.086c-.15-.15-.172-.385-.386-.47-.15-.065-.214-.023-.342-.065-.15-.043-.3-.108-.408-.15l.044-.022c-.044-.02-.129-.064-.15-.107-.064-.086-.172-.256-.321-.256-.15 0-.171.149-.321.149-.129 0-.45-.192-.493-.257l-.171.022c-.086-.064-.129-.087-.215-.15-.064-.022-.064-.129-.085-.129-.236-.085-.236.021-.321-.193-.011-.031-.038-.037-.067-.037h-.023l-.022.002a.086.086 0 01-.038-.007.516.516 0 01-.15-.257c0-.086.107-.128.107-.236 0-.385-.3-.471-.407-.75-.022-.084-.15-.107-.15-.192l.043-.064-.043-.021c0-.065-.15-.258-.15-.279-.064-.171-.128-.192-.17-.321-.065-.193-.086-.343-.13-.493-.106 0-.106-.02-.192-.064a.6.6 0 00-.064.278c0 .236.193.365.193.6 0 .085.15.235.171.279.008.02.01.042.01.063 0 .048-.012.097-.012.14 0 .043.013.078.066.096a.255.255 0 00-.01.063c0 .03.01.045.01.087.064 0 .15.107.15.171 0 .086-.086.13-.128.15-.043-.064-.022-.15-.043-.192-.065-.086-.279-.171-.279-.279 0-.064.065-.106.065-.17 0-.194-.343-.236-.386-.429.128 0 .171-.064.171-.171 0-.108-.107-.15-.15-.236C.47 8.296.491 8.232.47 8.082v-.428c-.122-.081-.263-.22-.442-.233l.006-.017.009-.029.007-.022.006-.021a.606.606 0 01.007-.021l.01-.03.006-.023.007-.02.007-.023.01-.027.007-.023.006-.02.008-.023.008-.026.009-.025.006-.02.007-.02.01-.03a1.992 1.992 0 01.015-.043l.007-.02.011-.032.007-.02a.509.509 0 00.008-.022l.005-.016.013-.037.006-.017.008-.022a.673.673 0 00.02-.055l.005-.015.009-.024.005-.014.015-.04.005-.014.009-.024.005-.013.02-.053.01-.027.003-.01.032-.083.003-.007.033-.085a.1.1 0 00.002-.006l.034-.085.002-.005.034-.086.003-.005.035-.086.001-.004.037-.088v-.001l.038-.089v-.001A16.02 16.02 0 013.986.855h.001A6.92 6.92 0 014.12.723l.007-.008.02-.018.003-.003.036-.035.012-.012.017-.016.024-.024.014-.013.017-.016a.587.587 0 01.04-.038l.01-.01.02-.02.012-.01.027-.025c.053-.013.09-.042.139-.058.009.018.044.025.087.025a.656.656 0 00.17-.025c.042 0 .128-.021.128-.021.086 0 .621.128.728.192-.064.065-.107.065-.193.128.12.06.22.065.354.065h.031c.129 0 .215-.065.322-.065.085 0 .128.13.235.13l.043-.13.386-.106c.192 0 .3.128.471.128.128 0 .15-.043.257-.043.086 0 .15.065.17.065.065 0 .108-.044.129-.107L7.92.588h.107c0 .043-.043.086-.043.128v.065h.128c-.01-.032-.015-.049-.015-.067 0-.019.005-.04.015-.083.214 0 .43-.021.43-.193l-.15-.02c-.044 0-.066-.087-.066-.13 0-.086.3-.277.43-.277" id="g"/><path d="M4.819.013c0 .022.192.128.235.128v.086L4.989.29c0 .086.087.129.109.192-.044.022-.15.215-.15.237l.106.064c.06.02.158.152.222.152.004 0 .01 0 .013-.002l.002.022C5.329.952 5.366.95 5.4.95c.169 0 .315.038.403.091.128.042.086.193.149.256.024.016.05.02.079.02a.598.598 0 00.048-.002l.051-.003c.02 0 .038.002.057.007.15.042.28.193.43.193h.085c0-.086.064-.129.064-.171 0-.044-.064-.086-.064-.15v-.108c.15 0 .193-.17.342-.17.215 0 .15.106.236.192.086.086.256.064.385.086v.021c.043 0 .065 0 .086.022.256 0 .3.127.428.127.214 0 .3-.064.47-.106l.28.064c.003.04.01.068.016.103.002-.044.005-.087.005-.125a.447.447 0 00.096.012c.134 0 .215-.077.268-.183l.156.486.015.048v.001l-.15.364c-.128 0-.192-.192-.192-.278-.102 0-.107-.078-.107-.16v-.012a.082.082 0 01-.065-.027c.05.164.131.264.193.37.064.086.022.15.107.215.064.021.129.214.129.321 0 .064.235.343.278.363l-.064.044c.043.053.048.08.048.104v.024c0 .016.002.036.016.064l-.014.018.057-.039c.04.101.062.107.137.107h.012c0 .043.044.086.065.086.022.107.064.17.064.214L10 3.58c0 .205.028.36.343.5l-.022.021h.044c.022.065.022.3.043.343.022.064.085.129.128.213.008.032.022.04.037.04a.072.072 0 00.022-.004c.008-.002.014-.005.019-.005.005 0 .009.003.009.013 0 .043.063 0 .128.043.063.042.235.279.278.321l.112.13.016-.002.087.236-.104.083.007.034.01-.01.022-.021.085-.043c.065.064.13.128.193.128.13 0 .258-.042.364-.042.043 0 .054-.016.054-.032s-.011-.033-.011-.033c.194 0 .599-.064.728-.214.064.086.107.129.107.214 0 .45-.322.772-.428 1.114a1.14 1.14 0 01-.364.6c-.171.193-.472.3-.557.492-.043.106-.15.15-.214.214-.086.085-.15.171-.214.257v.02c-.128.194-.257.322-.386.536-.149 0-.3-.127-.3-.277v.008a.283.283 0 00.271.269h.008l.064.065c-.021.085-.15.17-.15.235 0 .043.086.064.086.128v.386a.058.058 0 00-.006.027c0 .033.027.067.027.101v.129c0 .086.065.15.215.257-.021.043-.471.236-.536.236.065 0 .515-.172.536-.215 0 .057-.019.076-.019.101 0 .013.005.028.02.05 0 .32-.022.406-.022.641 0 .386-.387.685-.707.685-.064.28-.472.3-.472.622 0 .021.086.15.13.171-.022.043-.044.086-.044.129 0 .064.043.128.043.193v.17c0 .065-.214.3-.3.322-.107.022-.278 0-.278.107 0 .064.02.086.064.107l-.043.17-.128.237v.107c-.107.02-.364.428-.386.492-.214.258-.428.278-.578.557-.042.086-.278-.022-.278.128h-.343c-.064 0-.085 0-.15.044-.064-.044-.085-.044-.127-.044-.022.044-.429.108-.473.108-.087 0-.215-.07-.215-.155 0-.02.007-.04.023-.06l-.064-.171c.02-.043.064-.086.064-.129 0-.15-.107-.214-.171-.32a.263.263 0 01-.048-.162v-.056a.443.443 0 00-.016-.125L6.21 13.8c0 .022-.022.087-.022.128-.02-.084-.063-.02-.107-.084-.128-.236-.149-.364-.149-.62 0-.15-.108-.258-.108-.43 0-.106.044-.15.044-.192v-.107a.157.157 0 01-.107-.043c-.13-.128-.343-.557-.343-.77-.021 0-.064-.022-.064-.065 0-.021.021-.043.021-.085h-.021c0-.15.043-.343.107-.386v-.343c.15-.086.3-.385.3-.578 0-.15-.107-.235-.107-.385 0-.065.042-.107.042-.172 0-.213-.128-.277-.192-.45-.043 0-.086-.042-.086-.085l.942-.022h-.92V9.07l.02-.128c.087-.043.108-.086.194-.108-.13 0-.13.065-.214.108-.04-.061-.101-.143-.144-.224l-.007.01c-.02-.022-.085-.065-.085-.108-.085-.235-.364-.278-.364-.556 0-.188.183-.195.183-.339a.236.236 0 00-.012-.068c.082.006.147.01.2.01.158 0 .196-.03.196-.082 0-.049-.032-.119-.032-.207l-.342.023c.021-.023.043-.043.043-.086 0-.071-.019-.133-.019-.198 0-.033.005-.067.02-.102h-.194c-.02 0-.037-.066-.041-.111l-.002.004-.32-.022c-.008.014-.025.02-.044.02-.04 0-.092-.02-.107-.02-.128 0-.236-.108-.236-.278-.096 0-.096-.108-.208-.108a.388.388 0 00-.156.044l.007-.04c-.06.006-.119.04-.178.04-.043.02-.085.02-.128.042-.193.043-.364.15-.535.236-.033.033-.079.078-.147.078a.177.177 0 01-.067-.014c0-.072.044-.113.059-.15v-.001l-.002.006c-.015.032-.052.067-.057.113v.01c-.108 0-.086-.086-.193-.086-.236 0-.493.108-.643.173l-.021.042v-.17c0 .063-.043.106-.043.17-.003.003-.007.004-.011.004-.076 0-.404-.292-.524-.432-.043-.043-.129-.064-.172-.107.193-.236.193-.214.236-.364a.216.216 0 00.061.016c.014 0 .024-.005.046-.016a.064.064 0 01-.03.009c-.019 0-.032-.016-.077-.031-.086.15-.086.194-.257.386-.257-.15-.214-.214-.3-.45.107-.107.171-.235.321-.235-.15 0-.235.128-.342.235 0-.192-.193-.257-.321-.407-.065-.042-.065-.128-.086-.17-.171-.172-.107-.087-.214-.13l.085-.042a.79.79 0 01.283-.045c.072 0 .15.007.231.024a.859.859 0 01-.204.297l.011-.01a.95.95 0 00.209-.295l.006-.014H.75a1.55 1.55 0 00-.218-.015c-.11 0-.22.011-.296.037L.13 5.28c-.028 0-.037-.012-.037-.03 0-.034.037-.09.037-.12v-.064c.15-.042.236-.064.386-.064-.06 0-.11-.004-.158-.004a.522.522 0 00-.228.047c.022-.065.022-.086.043-.086l-.107-.065c0-.063-.043-.02-.043-.063 0-.086.107-.214.129-.3.064-.13.085-.3.085-.471 0-.235-.042-.343-.042-.557-.065 0-.129-.022-.129-.064 0-.064.043-.107.064-.15.107-.064.086-.15.129-.257.021-.129.128-.107.193-.171.15-.15.085-.535.32-.578 0-.107.044-.15.086-.193.064-.022.15-.042.257-.065.065-.02.043-.085.065-.107.064-.15.3-.15.3-.343 0-.085.009-.226.009-.356a1.35 1.35 0 00-.01-.178c.15 0 .15-.129.214-.15.108-.043.172-.022.257-.065.129-.064.15-.385.257-.45.06.06.138.065.217.065h.019c.086 0 .279-.021.32-.021.037 0 .058.121.089.121.006 0 .012-.004.02-.014.064-.086.299-.193.342-.214.15-.064.513-.172.706-.172h.407" id="i"/><path d="M.428.029c0 .088.016.143.015.179 0 .067-.056.063-.38.077A.19.19 0 01.023.156C.022.113.064.071.086.03" id="k"/><path d="M1.238.02c.016.113.093.19.167.238a.052.052 0 01-.002.007l-.01.029-.006.017a.842.842 0 01-.008.025L1.37.358 1.364.38a1.258 1.258 0 00-.015.042L1.336.46A15.902 15.902 0 01.251 2.878l-.02-.01c-.191 0-.213-.215-.213-.387 0-.063.043-.042.064-.107l-.064-.063c0-.086.028-.105.028-.146a.205.205 0 00-.028-.09c.17 0 .278-.321.278-.428 0-.171-.107-.215-.107-.343L.318.94C.403.94.446.876.553.876.639.876.68.769.768.748V.64h.084" id="m"/><path id="o" d="M0 0h19.736v15.757H0z"/></defs><g fill="none" fill-rule="evenodd"><path fill="#FFF" d="M40 4h2v22h-2zM17.571 9.474c.303-.976 0-1.346-.583-1.346h-.778c-.108 0-.173-.043-.151-.173l.107-.52c.022-.131.065-.175.281-.175.26 0 1.016.065 2.961.065 1.751 0 2.486-.065 2.702-.065.173 0 .216.065.194.217l-.086.478c-.021.108-.086.173-.216.173h-.605c-.39 0-.973.087-1.297 1.172l-1.772 5.796c-.13.478-.627 2.083-.627 3.06 0 2.627 2.291 2.908 2.918 2.908 1.037 0 2.14-.39 2.83-.976 1.017-.846 1.73-2.018 2.4-4.428l1.578-5.556c.41-1.433.173-1.976-.519-1.976h-.691c-.195 0-.216-.065-.195-.173l.086-.478c.022-.152.065-.217.26-.217.26 0 1.08.065 2.464.065 1.253 0 1.75-.065 1.966-.065.195 0 .217.065.195.217l-.064.478c-.022.108-.066.173-.238.173h-.325c-.691 0-1.145.652-1.47 1.715l-1.858 5.97c-1.167 3.863-2.896 6.38-6.895 6.38-2.788 0-4.884-1.28-4.884-3.972 0-.911.324-2.257.454-2.713l1.858-6.034zm-6.85 14.217c-.152.739-.584 1.975-.865 2.605-.562 1.15-2.118 2.604-3.761 2.604-2.01 0-2.788-.998-2.788-2.04 0-.76.41-1.345 1.167-1.345.8 0 .93.672.93.91 0 .261-.087.63-.195.739-.087.087-.13.195-.13.369 0 .434.497.673.95.673 1.125 0 1.73-.912 2.12-2.409.259-1.02.647-2.735 1.447-5.73l-.13-.044c-.302.412-1.534 2.17-4.451 2.17-2.983 0-5.015-2.105-5.015-5.86 0-2.8 1.276-5.166 2.875-6.794C4.085 8.324 5.965 7 8.97 7c2.248 0 3.392.738 3.825 1.085.281.217.476.26.584.26.26 0 .389-.217.518-.694.022-.108.087-.13.195-.108l.324.086c.087.022.151.065.13.174l-1.232 4.363c-.043.13-.087.151-.238.13l-.346-.044c-.108-.021-.173-.086-.15-.216.366-1.867-.693-4.146-3.502-4.146-1.384 0-2.94.477-4.453 2.474-1.254 1.584-1.967 3.928-1.967 6.555 0 3.56 2.184 4.125 3.134 4.125 2.594 0 3.848-2.236 3.934-3.517.065-.825-.173-.998-.756-.998h-.757c-.172 0-.194-.065-.151-.218l.086-.477c.022-.13.065-.174.238-.174.324 0 1.08.065 2.983.065 1.47 0 1.988-.065 2.29-.065.152 0 .217.065.195.174l-.065.521c-.021.13-.065.174-.194.174h-.454c-.41 0-.713.173-.994 1.323l-1.427 5.84z"/><g transform="translate(65.714)"><mask id="b" fill="#fff"><use xlink:href="#a"/></mask><path d="M31.99 16.012C31.99 24.842 24.832 32 16.002 32 7.172 32 .013 24.842.013 16.012.013 7.182 7.172.023 16.002.023c8.83 0 15.988 7.159 15.988 15.989" fill="#323F6B" mask="url(#b)"/></g><g transform="translate(65.714)"><mask id="d" fill="#fff"><use xlink:href="#c"/></mask><path d="M1.271 6.533h.064c.065-.043.065-.064.129-.086l-.043-.064c-.065.043-.107.107-.15.15M1.314 6.682v.022l.043.064c.042 0 .042-.042.064-.064a.38.38 0 01-.086-.065v-.042h-.107c-.019.078.016.084.086.085M1.379 6.832c0 .065.042.086.063.13h.086v-.237c-.086.022-.15.064-.15.107M1.442 6.619h.1v-.107h-.1zM31.697 3.536l-.021-.086c-.13 0-.193.128-.3.128-.021 0 .086.021.128.021.086 0 .128 0 .193-.063M23.55 17.667l-.075.066s.05.034.1.034l-.025-.1" fill="#2CAEB4" mask="url(#d)"/><path d="M15.081 19.508c-.214-.128-.342-.47-.6-.47-.106 0-.17-.022-.256-.022-.128 0-.193-.043-.3-.043-.171 0-.193.043-.235.108-.022-.065 0-.172 0-.172 0-.021-.043-.064-.043-.107-.107 0-.236-.15-.236-.15-.128.043-.236 0-.3-.086h-.085c-.022.065-.214.386-.278.28-.129 0-.279-.023-.279-.13h-.085c-.043.043-.107.043-.15.043l.192-.193c.022-.235.214-.278.279-.385-.065-.043-.086-.064-.086-.128-.17 0-.107-.408-.214-.45-.192-.086-.321-.171-.342-.322-.108 0-.043-.064-.108 0-.042-.043-.214-.085-.278-.085l-.364.021c-.128-.043-.128-.17-.193-.17l-.043.042c-.085-.214-.085-.3-.235-.385-.15-.023-.214-.13-.214-.257l-.064.043c-.108 0-.086-.064-.086-.086-.043 0-.15-.064-.15-.129 0-.02.022-.043.022-.086h-.15c-.065.065-.107.065-.172.065-.02 0-.064.021-.064.064l-.085.044c-.043 0-.086-.022-.086-.065-.065.043-.107 0-.129-.065-.107 0-.171.043-.214 0l-.085.043h-.129c0-.235-.214-.193-.3-.32-.021.042-.042.085-.021.15-.043 0-.107.041-.107.106 0 .129.021.107.021.236 0 .021-.064.17-.043.214l-.063-.065c-.108 0-.108-.085-.108-.17 0-.237.129-.3.15-.45v-.043c-.042-.044-.064-.044-.107-.064-.107.085-.214.193-.3.235h-.107c-.037.073-.094.063-.149.053-.041-.008-.08-.016-.108.011-.128.129-.064.258-.192.428-.033.043-.07.086-.107.129-.193 0-.236-.235-.45-.235-.171 0-.235.15-.428.15a.248.248 0 01-.172-.065.633.633 0 01-.213-.429c0-.3.128-.599.128-.75 0-.063.021-.084.021-.213-.107 0-.343-.02-.578.021-.193 0-.364.086-.385.065.064-.065.192-.3.128-.407v-.128c.022-.064.086-.086.129-.172 0-.364.17-.406.235-.45a.23.23 0 01-.043-.128H5.96c-.15 0-.535.021-.6.15-.085.171-.021.32-.192.471-.01.011-.064.006-.123 0a.488.488 0 00-.155 0c-.043 0-.236.107-.279.107-.171 0-.428-.342-.47-.492-.022-.064-.022-.322-.022-.365 0-.128-.064-.599.193-.62-.022-.086 0-.129 0-.214l-.022.042c.086-.107 0-.257.064-.32.172-.172.579-.472.835-.472.065 0 .107.086.172.086l.107-.064.128.15c.064 0 .194-.065.3-.065-.021-.085-.128-.107-.128-.193 0-.106.278-.064.363-.064.086 0 .107.064.215.064.17 0 .257.044.363.044h.13c.127 0 .192.15.192.235v.257c0 .065.043.171.107.171V13c-.022.128.085.085.085.256h.129c.065-.086.086-.3.107-.45l-.042-.213c.042-.108 0-.193 0-.257V12.1c0-.278.17-.343.385-.45.064-.021.3-.299.385-.342.3-.086.3-.257.493-.471l-.044-.086c-.021 0-.107-.021-.127-.064.063-.021.106 0 .214-.021v-.108c-.065 0-.13-.085-.13-.15h.087c0-.085.043-.15.128-.192-.022.15-.022.257-.022.406.065-.085.129-.149.129-.235s-.021-.128 0-.257h.043c0 .022.02.086.064.086v.064c.064-.085.193-.128.193-.279v-.106a1.41 1.41 0 01.556-.15c.129 0 .236.021.215-.129L9.9 9.68l-.021-.064c.085-.042.107-.279.256-.321.236-.064.407-.172.643-.258.042-.02.085-.02.107-.041.042 0 .15-.13.235-.13.086 0 .108.087.214.108-.106.086-.578.022-.578.3 0 .02.043.042.086.042.021-.042.128-.021.235-.064.15-.085.236-.172.386-.256a.186.186 0 01.108-.014c.04.003.08.006.127-.029v-.086c-.192.042-.535.021-.535-.214 0-.086.086-.107.129-.171-.064-.022-.107 0-.15 0l-.215-.086c0-.022.043-.043.108-.043.085 0 .171.043.257.043.064 0 .129-.064.129-.172 0-.064-.108-.107-.172-.107-.343 0-.642.321-.943.45-.064.043-.042.15-.192.15.043-.171.342-.385.514-.45.278-.085.342-.364.706-.364h.472l.363.065c.108 0 .108-.044.172-.108h.021c0-.172.278-.106.407-.235.086.063.193.021.257-.086a.265.265 0 01-.064-.086c.128-.021.128-.021.128-.15v-.107c-.128.043-.086 0-.257 0-.064 0-.193.043-.214.043-.064 0-.085.022-.15.022-.107-.022.364-.086.428-.236-.213-.063-.385-.128-.513-.321.042-.021.107-.021.128-.128-.043-.022-.064-.043-.064-.086v-.107c-.043 0-.064 0-.086-.022.022-.042.043-.064.043-.15h-.085c0-.085.021-.15-.022-.257-.107.086-.557.493-.685.407-.043.022-.107.086-.171.086.021-.086.128-.107.128-.235h-.107c.086-.043.086-.258.214-.365l-.021-.043c-.086 0-.193.022-.235-.02 0 0-.022-.15-.065-.15-.086-.022-.15.02-.15-.087l-.557-.02c-.064.128-.364.277-.257.427 0 0-.321.3-.321.365 0 .085.171.085.171.235 0 .278-.492.492-.728.492 0 .386-.192.579-.385.771-.022-.02-.064-.063-.064-.106-.086 0-.171-.172-.171-.214 0-.108.064-.214.128-.322l-.064-.043c.064-.043.085-.064.107-.128l-.15-.042c-.021 0-.3.17-.3 0-.214-.065-.3-.3-.513-.408l-.236.086c-.043 0-.086-.021-.086-.064l.043-.064c-.021-.022 0-.15 0-.236h-.128c0-.236.364-.535.556-.556v-.086c.086 0 .129-.087.236-.107.107-.043.214-.022.3-.15-.064-.065-.172-.065-.258-.108h.065l.257.065c.214 0 .514-.193.706-.236v-.086c-.15 0-.364.043-.385-.107h.129a.596.596 0 00.256.086c.171 0 .214-.129.343-.193.043 0 .086.086.15.086.043 0 .064-.042.15-.064-.022-.022 0-.042.021-.086.021.044.085.086.129.086.192 0 .278-.15.342-.321.022-.064.15-.086.15-.15V4.22c-.086 0-.15-.042-.214-.042-.128 0-.278.042-.278.193-.193 0-.3.15-.428.257h-.15c.043-.13.128-.13.17-.257 0 0-.15 0-.17-.043-.044.021-.044.043-.13.064v.043h-.085c0-.043.022-.086.064-.15h-.128c.021-.065.15-.044.15-.107 0-.108-.086-.15-.086-.3H9.45c-.128 0-.428.192-.428.278 0 .043.021.129.064.129l.15.02c0 .173-.214.194-.428.194-.022.085-.022.085 0 .15H8.68v-.065c0-.043.043-.085.043-.129h-.108l-.086.065c-.02.064-.064.108-.128.108-.021 0-.085-.065-.171-.065-.107 0-.128.042-.257.042-.171 0-.278-.127-.471-.127l-.386.106-.042.129c-.108 0-.15-.129-.236-.129-.107 0-.193.065-.321.065-.15 0-.257 0-.386-.065.086-.064.13-.064.193-.129-.107-.063-.642-.192-.728-.192 0 0-.085.022-.128.022-.064.02-.236.043-.257 0-.065.02-.108.064-.193.064s-.15-.108-.128-.171c-.107.021-.172.107-.3.085h-.514l-.62.172c-.15 0-.236-.172-.386-.172-.065 0-.086.022-.129 0-.043 0-.107-.022-.171-.043l-.257.065c-.321 0-.707-.193-1.007-.193h-.278c.021-.043-.085-.022-.214-.022-.128 0-.128.043-.257.043-.47 0-.75.172-1.178.279-.128.086-.235.15-.342.236.064.106.278.085.321.256-.016.008-.041.007-.069.006-.045-.002-.097-.004-.123.037h-.536c-.107.085-.3.214-.342.257.042-.043.17.043.257.043.064 0 .128-.064.17-.086h.108c-.065.322-.471.128-.685.364l-.107-.107-.279.214c-.192.15-.364.3-.513.428v.022c.17.042.278-.064.45-.108-.044.108-.322.258-.322.343 0 .043.3.064.321.064.064 0 .128-.085.192-.128.022.043.065.064.13.107-.215.129-.43.3-.686.386-.085.02-.3.02-.385.106-.065.065 0 .022-.022.107l.065.023c.192-.086.3-.065.535-.194.235-.085.278-.128.556-.235.086-.021.172-.15.3-.193.043 0 .193.043.257-.021.043-.065.022-.172.15-.193.193-.064.343-.15.535-.279h.215c-.045.124-.114.124-.197.124-.075 0-.162 0-.253.09l-.064.172c.15 0 .62-.129.728-.257.042-.043.042-.15.171-.15.107 0 .085.086.15.15l.128.022c.236.085.493.128.771.192 0 .15.064.107.107.257l.085-.17c.023.063.172.063.236.042 0 .042-.021.385.022.407 0 .063-.043.256.021.278h-.02.019c-.044.043-.17.064-.106.107-.043.085-.107.064-.128.172l.064.042-.021.043h.085c-.022.064 0 .107 0 .15s.107.043.15.043c-.043.064-.235.107-.235.214 0 .064.171.17.278.193 0 .02.042.063.085.063l.065.086c.021.086.064 0 .021.129 0 0-.043.386-.214.428 0-.064.064-.171.064-.256 0 0-.171-.022-.236-.022a.84.84 0 00-.042.278c-.15.107-.129.322-.257.429-.236.257-.343.6-.578.877-.043.129-.043.193-.043.343 0 .021.021.129.021.171.022-.042.064-.064.086-.086.021.065-.064.107-.064.107.042.172.085.472.085.642 0 0-.02.065-.02.13.192 0 .342.149.47.235v.428c.021.15 0 .214.085.343.044.085.15.128.15.235 0 .108-.043.172-.17.172.042.192.385.235.385.428 0 .064-.065.107-.065.17 0 .108.214.193.279.28.021.042 0 .128.043.192.042-.021.128-.064.128-.15 0-.064-.086-.171-.15-.171 0-.064-.021-.064 0-.15-.128-.043-.021-.193-.064-.3-.022-.043-.17-.193-.17-.278 0-.236-.194-.364-.194-.6a.6.6 0 01.064-.278c.086.043.086.064.193.064.043.15.064.3.128.493.043.128.107.15.172.321 0 .021.15.214.15.279l.043.021-.043.064c0 .085.128.107.15.192.107.279.407.365.407.75 0 .107-.108.15-.108.236 0 .064.108.235.15.257a.13.13 0 00.06.006c.038-.002.077-.004.09.036.085.214.085.108.321.193.022 0 .022.107.086.128.085.064.128.087.214.15l.171-.021c.043.064.364.257.493.257.15 0 .171-.15.321-.15s.257.171.32.257c.023.043.108.086.15.107l-.042.021c.107.043.257.108.407.15.128.043.193 0 .342.065.215.085.236.32.386.47l-.043.086c0 .087.022.172.086.215h.085v-.064c-.043 0-.064-.064-.064-.108.086.064.15.278.214.278v-.064c.129.064.086.235.236.235h.064v.022-.022h.043c.128 0 .171.214.278.214.043 0 .086-.02.086-.064 0-.128.043-.278.192-.32.065.107.129.107.236.17-.042.044-.086.065-.086.15l.129.13v-.001c0 .047.005.174.043.192-.022.13 0 .365 0 .429 0 .086-.128.322-.257.322-.021.042-.043.106-.065.149l.017.01c-.02.061-.042.118-.102.118-.107.172-.32.429-.32.6 0 .086.063.13.148.13.044 0 .108-.066.108-.023 0 .086-.022.15-.043.192 0 .022.043.065.043.108 0-.043-.043-.086-.064-.108-.086.087-.172.087-.172.258 0 .064 0 .15.021.193l-.064.085c.043.129.15.129.236.193.085.043.128.129.15.214.02.107.064.107.107.172.085.192.129.3.235.47.086.106.064.15.108.258.02.106.17.129.192.191.064.13-.064.258.043.322.15.107.3.279.364.3 0 .064.385.235.45.235.17.065.17.279.342.279 0 .343.15.535.15.813 0 .107-.065.15-.065.236 0 .236.086.364.086.6 0 .192-.021.17-.021.321 0 .042-.021.128 0 .15-.021.042-.043.085-.043.15 0 .107.064.107.064.17v.215s.022.257.065.257c.043.107.02.128.02.257 0 .235-.042.385-.042.621 0 .107-.085.129-.085.213 0 .172.214.408.214.493 0 .086-.043.129-.043.214 0 .215.107.236.3.236.02.171.042.278.042.407 0 .042.064.213.064.257 0 .106.022.128.043.214-.128.063-.278.042-.299.171.085 0 .278.022.3.064.014.038.024.065.035.088-.033.003-.04.02-.079.02l-.02.02c.02.044.085.086.128.086 0-.017-.011-.066-.017-.1.016.025.037.036.08.036 0 .236.108.557.28.579 0 .192.213.149.235.257l-.064.02c.021.065.128.13.278.13.086.063.086.214.128.127.043-.17.086-.17.193-.192-.022-.043-.043-.064-.022-.085l-.023-.008c-.005-.121-.04-.25-.04-.271 0-.043.085-.128.128-.128l-.043-.193h-.022v-.064c.108-.044.13-.065.193-.108v-.256c-.214 0-.406-.086-.406-.258 0-.107.192-.149.256-.149 0-.107.044-.193.044-.279 0-.214-.194-.45-.194-.557v-.042c.13 0 .28.107.386.107.086 0 .086-.129.086-.193 0 0-.043-.085-.043-.128 0-.042-.043-.065-.043-.086 0-.129.193-.129.257-.129.471.043.62-.15.62-.449 0-.064-.085-.086-.106-.108a.18.18 0 010-.15c-.086 0-.321-.15-.3-.256l.021-.45v.43l.215.064c.042.149.235.149.364.106.192-.043.214-.086.257-.257.021-.064.085-.044.106-.086.022-.043 0 .022.022-.086l.01-.009.012.01c.064-.15.128-.258.213-.365.043-.149.086-.193.13-.363.042-.129.213-.15.213-.3s-.107-.321-.107-.407c0-.214.428-.535.62-.535.065 0 .108-.15.236-.15.108-.043.15-.022.215-.022.192 0 .17-.042.214-.192l.085-.193a.798.798 0 00.172-.535c0-.129.107-.15.107-.279v-.3c0-.085-.065-.342-.065-.47 0-.107.172-.172.236-.194 0-.513.514-.428.514-1.005 0-.15-.086-.407-.107-.493-.052-.117-.12-.1-.18-.083-.038.011-.073.022-.099-.003" fill="#2CAEB4" mask="url(#d)"/><path d="M1.25 7.881c0 .193.278.407.406.407.043 0 .065-.02.107-.02-.042-.065-.107-.108-.107-.194-.042 0-.192-.107-.192-.17-.043 0-.085.02-.107-.023h-.108M.992 7.175v.214c0 .064.044.193.086.257l.043-.043.107-.32v-.065c-.085 0-.107-.022-.128-.043H.992M27.629 11.843c0 .037-.004.08-.005.124-.006-.035-.014-.063-.016-.103l-.28-.064c-.171.043-.257.107-.47.107-.129 0-.172-.128-.429-.128-.02-.022-.042-.022-.085-.022v-.02c-.129-.023-.3 0-.386-.087-.085-.086-.02-.193-.236-.193-.148 0-.191.172-.341.172v.108c0 .063.064.106.064.15 0 .042-.064.085-.064.17h-.086c-.15 0-.279-.15-.429-.193a.34.34 0 00-.108-.003c-.047.003-.09.007-.128-.018-.063-.064-.02-.214-.148-.256-.108-.064-.3-.107-.514-.086l-.001-.022c-.063.022-.17-.128-.235-.15l-.107-.064c0-.021.107-.214.15-.236-.021-.064-.108-.107-.108-.192l.065-.065v-.085c-.043 0-.236-.107-.236-.129a.989.989 0 01-.493.129h-.406c-.193 0-.557.107-.706.171-.044.022-.279.129-.343.214-.043.065-.064-.107-.107-.107s-.236.022-.321.022c-.086 0-.172 0-.236-.065-.107.065-.129.386-.257.45-.085.043-.15.021-.257.064-.064.021-.064.15-.214.15.02.15 0 .407 0 .535 0 .193-.236.193-.3.343-.02.022 0 .085-.064.107a2.196 2.196 0 00-.257.065c-.042.042-.086.085-.086.192-.235.043-.17.428-.32.578-.065.065-.172.043-.193.172-.044.106-.022.192-.129.256-.021.044-.064.086-.064.15 0 .042.064.064.128.064 0 .215.043.322.043.557 0 .171-.022.342-.085.471-.022.086-.129.214-.129.3 0 .043.043 0 .043.064l.107.064c-.021 0-.021.021-.043.086.15-.065.236-.043.385-.043-.15 0-.235.022-.385.065v.064c0 .043-.085.15 0 .15l.107-.043c.129-.044.364-.044.514-.021h.021a.935.935 0 01-.226.318.864.864 0 00.205-.297.966.966 0 00-.514.021l-.085.043c.107.042.042-.043.214.129.02.042.02.128.085.17.129.15.321.216.321.407.108-.106.193-.235.343-.235-.15 0-.214.129-.321.235.086.236.042.3.3.45.17-.192.17-.236.257-.386.064.022.064.044.107.022-.043.022-.043.022-.107 0-.043.15-.043.128-.236.365.043.042.128.064.171.106.129.15.493.47.535.428 0-.064.044-.106.044-.17v.17l.02-.042c.15-.064.407-.172.643-.172.107 0 .086.086.193.086 0-.064.064-.106.064-.15 0 .044-.064.086-.064.172.107.042.171-.022.214-.064.171-.087.342-.194.535-.237.043-.021.085-.021.13-.042.058 0 .117-.034.177-.04l-.007.04c.278-.128.236.064.364.064 0 .17.107.279.236.279.021 0 .128.042.15 0l.32.021.002-.004c.005.046.022.111.041.111h.194c-.044.107 0 .193 0 .3 0 .043-.022.064-.044.086l.343-.022c0 .214.192.322-.364.278.065.214-.171.194-.171.408 0 .278.278.32.364.555 0 .043.064.086.085.107l.007-.009c.043.082.103.163.143.224.085-.043.085-.107.215-.107-.087.021-.107.064-.194.107l-.02.129v.042h.92l-.943.022c0 .042.043.085.086.085.064.172.193.236.193.45 0 .065-.042.107-.042.171 0 .15.107.236.107.386 0 .193-.15.492-.3.577v.343c-.065.043-.107.236-.107.386h.02c0 .043-.02.064-.02.085 0 .043.042.065.063.065 0 .213.214.642.344.77.02.022.063.044.106.044v.106c0 .043-.043.086-.043.193 0 .171.108.279.108.429 0 .256.02.385.149.62.043.064.086 0 .107.085 0-.042.022-.106.022-.128l.022.193c.042.15-.022.214.064.343.064.107.17.171.17.321 0 .043-.043.085-.063.128l.064.171c-.085.108.085.215.192.215.044 0 .45-.063.472-.107.043 0 .064 0 .128.044.065-.044.086-.044.15-.044h.342c0-.15.236-.043.28-.129.149-.278.362-.299.576-.556.022-.064.28-.472.386-.493v-.107l.129-.236.043-.17c-.043-.022-.065-.044-.065-.108 0-.107.172-.085.28-.107.084-.022.3-.257.3-.322v-.17c0-.065-.044-.129-.044-.193 0-.042.022-.086.043-.128a.445.445 0 01-.129-.172c0-.321.407-.343.471-.621.321 0 .707-.3.707-.685 0-.235.022-.321.022-.642-.044-.065 0-.065 0-.15-.022.042-.472.214-.536.214.064 0 .514-.192.536-.236-.15-.106-.215-.17-.215-.256v-.13c0-.042-.043-.085-.021-.127V19.7c0-.064-.086-.085-.086-.129 0-.064.129-.15.15-.235l-.064-.065a.282.282 0 01-.278-.277c0 .15.15.277.299.277.128-.213.258-.342.386-.535v-.021c.064-.086.128-.171.214-.256.064-.064.17-.108.214-.214.085-.193.386-.3.556-.493.172-.15.3-.343.364-.6.107-.342.429-.664.429-1.113 0-.086-.043-.128-.108-.215-.128.15-.534.215-.727.215 0 0 .042.064-.043.064-.107 0-.235.042-.364.042-.064 0-.129-.064-.193-.128l-.085.044-.022.02-.01.01-.007-.034.104-.082-.087-.237-.017.003-.111-.13c-.043-.043-.215-.28-.278-.322-.066-.043-.129 0-.129-.043 0-.018-.012-.013-.027-.008-.02.007-.047.014-.059-.035-.043-.084-.107-.15-.129-.214-.02-.043-.02-.278-.042-.342h-.044l.022-.021c-.385-.172-.342-.364-.342-.643 0-.043-.043-.106-.064-.214-.021 0-.065-.042-.065-.086-.085 0-.106 0-.15-.106l-.056.039.014-.018c-.043-.086.021-.086-.064-.193l.064-.043c-.043-.02-.279-.3-.279-.363 0-.108-.064-.3-.128-.322-.086-.064-.043-.129-.107-.214-.062-.107-.144-.206-.194-.37a.081.081 0 00.066.027c0 .086 0 .172.107.172 0 .086.063.278.192.278l.15-.364-.171-.535c-.065.128-.171.214-.364.17M28.613 4.263c-.085 0-.064-.128-.149-.085l-.171.128c.15.064.32.043.32-.043M28.828 3.856c.042 0 .128 0 .128.022 0 .085.043.107.15.107.086 0 .214.021.342-.022-.128-.043-.428-.213-.428-.32 0-.065.064-.044.129-.13-.043-.021.021-.042.021-.085l-.042-.042.042-.065c.193.107.278-.128.515-.128.17 0 .47-.15.578-.236l-.043-.043h-.258c-.085.107-.257.023-.406.086h-.108c-.149.043-.428.193-.556.193l.064.107c-.064.043-.086.064-.214.107a.615.615 0 00.364.106h-.428c.064.086-.065.086 0 .15-.021.043-.043.065-.107.108.086.064.128.128.257.15v-.065" fill="#2CAEB4" mask="url(#d)"/><path d="M23.625 18.074c0 .086.042.128.042.128.493-.021.365 0 .365-.256h-.343c-.022.043-.064.085-.064.128M30.99 20.879c-.065.15-.171.62-.386.62h-.084v.108c-.087.021-.129.128-.215.128-.107 0-.15.064-.235.064l-.13.365c0 .128.108.17.108.342 0 .107-.107.428-.278.428.064.13 0 .107 0 .236l.064.064c-.021.064-.064.043-.064.107 0 .172.022.386.214.386l.086.043c.321 0 .45-.215.45-.6.127 0 .278-.45.278-.578 0-.215.192-.386.192-.6.043 0 .085-.107.085-.128 0-.129.15-.193.15-.321 0-.172-.085-.28 0-.387-.085-.042-.214-.127-.235-.277" fill="#2CAEB4" mask="url(#d)"/></g><g transform="translate(89.185 17.653)"><mask id="f" fill="#fff"><use xlink:href="#e"/></mask><path d="M.004.08s.05.034.1.034L.08.014.004.08" mask="url(#f)"/></g><g transform="translate(66.409 3.868)"><mask id="h" fill="#fff"><use xlink:href="#g"/></mask><path d="M8.756.01c-.129 0-.429.192-.429.278 0 .043.022.13.065.13l.15.02c0 .172-.215.193-.429.193-.01.043-.015.064-.015.083 0 .018.005.035.015.067h-.128V.716c0-.042.043-.085.043-.128h-.107l-.086.065c-.02.063-.064.107-.128.107-.021 0-.085-.065-.171-.065-.108 0-.129.043-.257.043C7.108.738 7 .61 6.808.61l-.386.106-.043.13c-.107 0-.15-.13-.235-.13-.107 0-.193.065-.322.065-.149 0-.256 0-.385-.065.086-.063.13-.063.193-.128-.107-.064-.642-.192-.728-.192 0 0-.086.021-.128.021a.656.656 0 01-.17.025c-.043 0-.078-.007-.087-.025-.05.016-.086.045-.14.058L4.352.5 4.34.51 4.32.53l-.011.01a2.86 2.86 0 00-.04.038l-.017.016-.014.013-.024.024-.017.016-.012.012-.036.035-.003.003-.02.018-.007.008a6.94 6.94 0 00-.133.132 16.02 16.02 0 00-3.42 5.087v.001l-.037.088-.001.004-.035.086-.003.005-.034.086-.002.005-.034.085a.1.1 0 01-.002.006l-.033.085-.003.007-.032.083-.003.01-.01.026v.001l-.02.053-.005.013-.01.024c0 .005-.002.01-.004.014l-.015.04-.005.014-.009.024-.005.015a1.599 1.599 0 00-.02.055l-.008.022-.006.017-.013.037-.005.016a.509.509 0 01-.008.022l-.007.02-.011.033-.007.02A.47.47 0 00.165 7l-.01.031-.008.02a1.263 1.263 0 01-.006.02l-.009.025-.008.026-.008.023-.006.02-.008.023-.009.027-.007.024-.007.02-.007.022-.01.03a.606.606 0 00-.006.02l-.006.022-.007.022-.01.029-.005.017c.179.014.32.152.442.233v.428c.021.15 0 .214.085.343.043.086.15.128.15.236 0 .107-.043.171-.171.171.043.193.386.235.386.429 0 .064-.065.106-.065.17 0 .108.214.193.279.279.021.042 0 .128.043.192.042-.02.128-.064.128-.15 0-.064-.086-.171-.15-.171 0-.042-.01-.057-.01-.087 0-.015.003-.034.01-.063-.053-.018-.066-.053-.066-.096 0-.043.013-.092.013-.14a.168.168 0 00-.011-.063C1.069 9.088.92 8.938.92 8.853c0-.235-.193-.364-.193-.6a.6.6 0 01.064-.278c.086.044.086.064.193.064.043.15.064.3.128.493.043.129.107.15.172.321 0 .021.15.214.15.279l.042.021-.043.064c0 .085.128.108.15.193.107.278.407.364.407.749 0 .108-.107.15-.107.236 0 .064.107.236.15.257.01.005.024.007.038.007l.022-.001h.023c.03 0 .056.005.067.036.085.214.085.108.32.193.022 0 .022.107.086.129.086.063.13.086.215.15l.171-.022c.043.065.364.257.493.257.15 0 .171-.15.321-.15s.257.171.32.257c.022.043.107.086.15.107l-.043.021c.108.043.258.108.408.15.128.043.192 0 .342.065.214.086.236.32.386.47l-.043.087c0 .086.021.17.086.214h.085v-.064c-.043 0-.064-.064-.064-.108.086.064.15.278.214.278v-.063c.129.063.086.234.236.234h.064v.022-.022h.043c.128 0 .17.215.278.215.043 0 .085-.02.085-.064 0-.129.043-.279.193-.322.065.108.129.108.236.171-.043.045-.086.066-.086.15l.129.13v-.001c0 .047.005.174.043.192-.008.044-.01.1-.01.156 0 .113.01.23.01.273 0 .086-.129.322-.257.322-.021.042-.043.107-.065.149l.017.011c-.02.06-.042.118-.102.118-.108.171-.321.428-.321.6 0 .085.063.128.15.128.032 0 .076-.036.096-.036.006 0 .01.004.01.014a.42.42 0 01-.043.193c0 .022.042.062.043.105 0-.043-.043-.083-.064-.105-.086.085-.171.085-.171.257 0 .064 0 .15.021.193l-.064.085c.043.129.15.129.235.194.086.042.129.128.15.213.022.107.065.107.108.172.085.192.128.3.235.47.086.107.064.15.107.258.022.107.172.129.193.192a.184.184 0 01.019.084c0 .057-.02.112-.02.158 0 .032.01.059.044.08.15.106.3.278.364.299 0 .064.385.235.45.235.17.065.17.28.341.28 0 .342.15.534.15.812 0 .107-.064.15-.064.236 0 .236.086.364.086.6 0 .193-.021.17-.021.321 0 .028-.01.075-.01.11 0 .018.003.032.01.04-.021.042-.043.085-.043.15 0 .107.064.107.064.171v.214s.021.257.065.257a.297.297 0 01.026.119c0 .035-.006.073-.006.138 0 .235-.042.385-.042.621 0 .107-.085.129-.085.213 0 .173.213.408.213.493 0 .086-.043.129-.043.214 0 .215.107.236.3.236.022.171.043.278.043.407 0 .042.064.214.064.257 0 .106.022.128.043.214-.128.064-.278.043-.299.171.085 0 .278.022.299.064l.035.088c-.032.003-.039.02-.078.02l-.021.02c.021.044.085.086.129.086 0-.017-.012-.066-.017-.1.016.025.037.036.08.036 0 .236.108.557.28.579 0 .192.213.15.234.257l-.064.021c.022.064.13.129.279.129.067.05.081.154.106.154.006 0 .013-.008.022-.026.043-.171.086-.171.193-.193-.015-.03-.03-.05-.03-.066 0-.007.002-.013.008-.02l-.023-.007c-.006-.12-.041-.25-.041-.271 0-.043.086-.128.129-.128l-.043-.193h-.022v-.064c.107-.044.129-.065.193-.108v-.256c-.214 0-.407-.086-.407-.258 0-.106.193-.149.257-.149 0-.107.043-.192.043-.279 0-.214-.193-.449-.193-.556v-.043c.129 0 .279.107.386.107.085 0 .085-.129.085-.193 0 0-.042-.085-.042-.128 0-.042-.043-.064-.043-.086 0-.129.192-.129.257-.129.044.004.085.006.123.006.375 0 .498-.184.498-.455 0-.064-.086-.085-.107-.107a.164.164 0 01-.017-.075.17.17 0 01.017-.075c-.082 0-.301-.138-.301-.243v-.014l.022-.45v.43l.214.064c.028.097.12.13.215.13.052 0 .105-.009.15-.024.192-.043.214-.086.256-.257.022-.064.086-.043.107-.086.01-.021.01-.016.01-.018 0-.003 0-.015.011-.067l.012-.01.01.01a1.51 1.51 0 01.214-.365c.043-.15.086-.192.129-.363.043-.129.214-.15.214-.3s-.107-.32-.107-.407c0-.214.428-.535.62-.535.065 0 .108-.15.236-.15a.315.315 0 01.124-.027c.032 0 .059.005.09.005.193 0 .172-.042.214-.192l.086-.193a.8.8 0 00.172-.535c0-.129.107-.15.107-.279v-.3c0-.085-.065-.342-.065-.47 0-.107.171-.171.236-.193 0-.513.514-.428.514-1.006 0-.15-.086-.407-.107-.492-.034-.076-.074-.096-.114-.096a.238.238 0 00-.066.013c-.021.006-.041.012-.06.012a.053.053 0 01-.039-.016c-.214-.128-.342-.47-.6-.47-.106 0-.17-.022-.256-.022-.128 0-.193-.043-.3-.043-.172 0-.193.043-.235.108a.25.25 0 01-.01-.074c0-.05.01-.098.01-.098 0-.021-.044-.064-.044-.107-.106 0-.235-.15-.235-.15a.303.303 0 01-.098.017.246.246 0 01-.202-.103h-.085c-.019.056-.164.3-.244.3-.014 0-.025-.006-.034-.02-.129 0-.279-.023-.279-.13h-.085c-.043.043-.107.043-.15.043l.192-.193c.022-.235.214-.278.278-.385-.064-.043-.085-.064-.085-.128-.171 0-.107-.408-.214-.45-.193-.086-.321-.171-.343-.321-.071 0-.066-.029-.074-.029-.004 0-.011.007-.033.029-.043-.044-.214-.086-.278-.086l-.364.022c-.128-.044-.128-.171-.193-.171l-.043.042c-.085-.214-.085-.3-.235-.385-.15-.022-.214-.129-.214-.257l-.065.043c-.076 0-.087-.032-.087-.059l.002-.027c-.043 0-.15-.064-.15-.128 0-.021.021-.044.021-.086h-.15c-.064.065-.106.065-.17.065-.022 0-.065.02-.065.063l-.085.044c-.043 0-.087-.022-.087-.065a.09.09 0 01-.048.017c-.038 0-.064-.035-.08-.082-.071 0-.124.02-.163.02a.065.065 0 01-.05-.02l-.087.044h-.128c0-.236-.215-.194-.3-.322a.215.215 0 00-.03.098c0 .016.003.034.009.052-.043 0-.108.043-.108.107 0 .129.022.107.022.236 0 .019-.047.131-.047.19 0 .01.001.018.004.024l-.064-.065c-.107 0-.107-.085-.107-.17 0-.236.129-.3.15-.45v-.043c-.043-.044-.065-.044-.107-.064-.107.085-.214.193-.3.235h-.107c-.024.048-.056.06-.091.06a.308.308 0 01-.058-.007c-.02-.004-.038-.008-.056-.008a.07.07 0 00-.052.02c-.128.128-.064.257-.192.427-.033.043-.07.087-.108.13-.192 0-.235-.236-.45-.236-.17 0-.235.15-.427.15a.249.249 0 01-.172-.065.634.634 0 01-.214-.428c0-.3.129-.6.129-.75 0-.064.02-.085.02-.213-.053 0-.14-.006-.242-.006-.101 0-.218.006-.335.026-.172 0-.326.068-.373.068-.006 0-.01 0-.012-.003a.613.613 0 00.145-.331.144.144 0 00-.017-.076v-.128c.021-.064.085-.086.128-.172 0-.363.172-.406.236-.45a.23.23 0 01-.043-.128h-.107c-.15 0-.535.021-.6.15-.085.171-.021.321-.192.472-.005.004-.017.006-.034.006a1.06 1.06 0 01-.09-.006 1.108 1.108 0 00-.1-.007.182.182 0 00-.054.007c-.043 0-.236.106-.28.106-.17 0-.427-.342-.47-.492-.021-.064-.021-.321-.021-.364 0-.043-.008-.123-.008-.212 0-.18.029-.395.2-.41a.298.298 0 01-.01-.073c0-.043.01-.08.01-.134a.244.244 0 00.02-.104c0-.032-.003-.064-.003-.092 0-.036.004-.067.026-.089.172-.17.578-.47.835-.47.065 0 .107.085.171.085l.108-.064.128.15c.064 0 .193-.064.3-.064-.022-.086-.129-.108-.129-.193 0-.06.087-.073.18-.073.071 0 .146.008.184.008.086 0 .107.065.215.065.17 0 .256.043.363.043h.129c.128 0 .192.15.192.235v.257c0 .065.043.172.108.172v.107a.18.18 0 00-.003.032c0 .09.088.07.088.224h.129c.064-.086.085-.3.107-.45l-.043-.213a.276.276 0 00.02-.1c0-.063-.02-.115-.02-.157v-.236c0-.277.171-.342.386-.45.064-.02.3-.299.385-.342.3-.086.3-.257.492-.47l-.043-.087c-.021 0-.107-.021-.128-.064.064-.021.107 0 .214-.021v-.107c-.064 0-.128-.086-.128-.15h.085c0-.086.043-.15.128-.193a2.62 2.62 0 00-.02.4v.006c.064-.085.128-.149.128-.235 0-.057-.01-.094-.01-.151 0-.029.002-.063.01-.106h.043c0 .022.02.086.063.086v.064c.065-.085.193-.128.193-.278v-.107c.129-.065.365-.15.557-.15l.081.001c.08 0 .136-.01.136-.095 0-.01 0-.022-.003-.034l-.085.064-.021-.064c.085-.043.106-.28.256-.322.236-.064.407-.172.643-.257.042-.02.085-.02.107-.042.042 0 .15-.129.235-.129.086 0 .107.086.214.107-.107.086-.578.022-.578.3 0 .021.043.042.086.042.02-.042.128-.02.235-.063.15-.086.236-.172.386-.257a.156.156 0 01.071-.016l.036.002a.376.376 0 00.036.002c.029 0 .059-.006.092-.03v-.087a.826.826 0 01-.17.018c-.176 0-.365-.057-.365-.232 0-.086.086-.107.128-.171a.179.179 0 00-.057-.01c-.035 0-.064.01-.092.01l-.215-.086c0-.022.043-.043.107-.043.086 0 .172.043.257.043.065 0 .13-.064.13-.172 0-.063-.108-.106-.172-.106-.343 0-.642.32-.943.449-.064.043-.042.15-.192.15.043-.17.342-.385.514-.449.278-.086.342-.364.706-.364h.471l.364.064c.108 0 .108-.044.172-.108h.021c0-.171.278-.106.407-.235.028.02.057.03.087.03.063 0 .126-.043.17-.116a.266.266 0 01-.064-.085c.128-.022.128-.022.128-.15v-.108a.28.28 0 01-.086.02c-.038 0-.057-.02-.17-.02-.065 0-.194.043-.215.043-.064 0-.086.022-.15.022-.01-.002-.016-.005-.016-.008 0-.027.387-.093.444-.228-.214-.063-.385-.128-.513-.32.042-.022.107-.022.128-.129-.043-.021-.064-.043-.064-.086v-.107c-.043 0-.064 0-.086-.021.022-.043.043-.065.043-.15h-.086c0-.043.006-.08.006-.12a.35.35 0 00-.027-.138c-.097.078-.475.42-.641.42a.079.079 0 01-.044-.012c-.043.021-.108.085-.171.085.02-.085.128-.107.128-.235h-.107c.086-.043.086-.258.214-.364l-.021-.044c-.044 0-.093.006-.137.006-.041 0-.078-.005-.099-.026 0 0-.022-.15-.064-.15-.086-.021-.15.021-.15-.086l-.557-.02c-.055.108-.28.232-.28.36 0 .022.007.044.023.066 0 0-.321.3-.321.365 0 .085.171.085.171.236 0 .277-.492.492-.728.492 0 .385-.193.578-.385.77-.022-.02-.064-.063-.064-.106-.086 0-.172-.172-.172-.214 0-.108.065-.214.128-.322l-.063-.043c.063-.042.085-.063.107-.128l-.15-.042c-.015 0-.143.075-.227.075-.042 0-.073-.018-.073-.075-.214-.065-.3-.3-.514-.407l-.235.085c-.043 0-.086-.021-.086-.064l.043-.064c-.007-.007-.01-.027-.01-.052 0-.051.01-.127.01-.183H7c0-.237.364-.536.557-.557v-.087c.086 0 .129-.085.236-.106.107-.043.213-.022.3-.15-.065-.064-.172-.064-.258-.107H7.9l.257.064c.214 0 .513-.193.706-.236v-.086c-.055 0-.118.006-.177.006-.104 0-.195-.017-.208-.112h.128a.597.597 0 00.257.085c.171 0 .214-.128.343-.193.043 0 .085.086.15.086.043 0 .064-.042.15-.064a.028.028 0 01-.01-.02c.001-.016.016-.035.03-.066.022.044.086.086.13.086.192 0 .278-.15.342-.32.021-.065.15-.087.15-.15v-.13c-.086 0-.15-.042-.214-.042-.129 0-.279.043-.279.193-.192 0-.3.15-.428.257h-.15C9.12.63 9.206.63 9.249.503c0 0-.15 0-.172-.043-.043.021-.043.043-.128.064v.043h-.086c0-.043.022-.086.064-.15h-.128c.021-.064.15-.043.15-.107 0-.108-.086-.15-.086-.3h-.107" mask="url(#h)"/></g><g transform="translate(84.392 10.545)"><mask id="j" fill="#fff"><use xlink:href="#i"/></mask><path d="M4.326.141h-.407c-.193 0-.557.108-.706.172-.043.021-.278.128-.343.214-.007.01-.013.014-.02.014C2.82.541 2.8.42 2.764.42c-.042 0-.235.021-.321.021-.086 0-.172 0-.236-.064-.107.064-.128.385-.257.45-.085.042-.15.021-.257.063-.064.022-.064.151-.214.151.007.05.01.113.01.178 0 .13-.01.271-.01.356 0 .194-.235.194-.3.343-.02.022 0 .086-.064.107a2.259 2.259 0 00-.257.065c-.042.043-.085.086-.085.193C.536 2.326.6 2.71.45 2.86c-.065.064-.172.042-.193.171-.043.107-.022.193-.129.257-.021.043-.064.086-.064.15 0 .042.064.064.129.064 0 .214.042.322.042.557 0 .17-.021.342-.085.471-.022.086-.129.214-.129.3 0 .042.043 0 .043.063l.107.065c-.021 0-.021.02-.043.086a.522.522 0 01.228-.047c.047 0 .098.004.158.004-.15 0-.236.022-.386.064v.065c0 .028-.037.085-.037.12 0 .017.009.029.037.029l.107-.042A.995.995 0 01.532 5.2c.079 0 .156.006.218.015h.022a.94.94 0 01-.226.319.859.859 0 00.204-.297 1.132 1.132 0 00-.231-.024.79.79 0 00-.283.045l-.085.042c.107.043.043-.042.214.13.021.042.021.128.086.17.128.15.32.215.32.407.108-.107.193-.235.343-.235-.15 0-.214.128-.32.235.085.236.042.3.299.45.17-.192.17-.236.257-.386.045.015.058.03.078.03a.064.064 0 00.029-.008c-.022.01-.032.016-.046.016a.216.216 0 01-.061-.016c-.043.15-.043.128-.236.364.043.043.129.064.172.107.12.14.448.432.524.432.004 0 .008-.001.01-.004 0-.064.044-.107.044-.17v.17l.021-.042c.15-.065.407-.173.643-.173.107 0 .085.086.193.086 0-.062.059-.102.063-.144-.004.042-.063.083-.063.166.024.01.047.014.067.014.068 0 .114-.045.147-.078.17-.086.342-.193.535-.236.043-.021.085-.021.128-.042.06 0 .119-.034.178-.04l-.007.04a.388.388 0 01.156-.044c.112 0 .112.108.208.108 0 .17.108.278.236.278.015 0 .067.02.107.02.02 0 .036-.006.043-.02l.321.022.002-.004c.004.045.022.11.04.11h.194a.252.252 0 00-.019.103c0 .065.02.127.02.198 0 .043-.023.063-.044.086l.342-.023c0 .088.033.158.032.207 0 .053-.038.081-.196.081-.053 0-.118-.003-.2-.01a.236.236 0 01.012.069c0 .144-.183.151-.183.34 0 .277.279.32.364.555 0 .043.065.086.085.107l.007-.01c.043.082.103.164.144.225.085-.043.085-.108.214-.108-.086.022-.107.065-.193.108l-.021.128v.042h.92l-.942.022c0 .043.043.085.086.085.064.173.192.237.192.45 0 .065-.042.107-.042.172 0 .15.107.235.107.385 0 .193-.15.492-.3.578v.343c-.064.043-.107.236-.107.386h.021c0 .042-.021.064-.021.085 0 .043.043.064.064.064 0 .214.214.643.343.77a.157.157 0 00.107.044v.107c0 .042-.044.086-.044.192 0 .172.108.28.108.43 0 .256.02.384.15.62.043.064.085 0 .106.084 0-.041.022-.106.022-.128l.022.194c.014.049.017.089.017.125l-.001.056c0 .05.006.098.048.161.064.107.171.171.171.321 0 .043-.043.086-.064.129l.064.171a.096.096 0 00-.023.06c0 .084.128.155.215.155.044 0 .45-.064.473-.108.042 0 .063 0 .128.044.064-.044.085-.044.15-.044h.342c0-.15.236-.042.278-.128.15-.279.364-.3.578-.557.022-.064.279-.471.386-.492v-.107l.128-.236.043-.17c-.043-.022-.064-.044-.064-.108 0-.107.171-.085.279-.107.085-.022.3-.257.3-.322v-.17c0-.065-.044-.129-.044-.193 0-.043.022-.086.043-.129a.448.448 0 01-.129-.171c0-.322.408-.343.472-.622.32 0 .707-.299.707-.685 0-.235.021-.32.021-.642-.014-.021-.019-.036-.019-.049 0-.025.02-.044.02-.1-.022.042-.472.214-.537.214.065 0 .515-.193.536-.236-.15-.107-.215-.171-.215-.257v-.129c0-.034-.027-.068-.027-.101 0-.01.002-.018.006-.027v-.386c0-.064-.085-.085-.085-.128 0-.065.128-.15.149-.235l-.064-.065a.282.282 0 01-.278-.277c0 .15.15.277.3.277.128-.214.257-.342.385-.535V8.17c.064-.086.128-.172.214-.257.064-.064.171-.108.214-.214.085-.192.386-.3.557-.492.171-.15.3-.344.364-.6.106-.342.428-.664.428-1.114 0-.085-.043-.128-.107-.214-.129.15-.534.214-.728.214 0 0 .01.017.01.033s-.01.032-.053.032c-.106 0-.235.042-.364.042-.064 0-.128-.064-.193-.128l-.085.043-.022.021-.01.01-.007-.034.104-.083-.087-.236-.016.003-.112-.13c-.043-.043-.215-.28-.278-.322-.065-.043-.128 0-.128-.043 0-.01-.004-.013-.01-.013-.004 0-.01.003-.018.005a.072.072 0 01-.022.005c-.015 0-.029-.009-.037-.04-.043-.085-.106-.15-.128-.214-.021-.043-.021-.278-.043-.343h-.044l.022-.02C10.027 3.94 10 3.785 10 3.58L10 3.439c0-.043-.042-.107-.064-.214-.021 0-.065-.043-.065-.086-.085 0-.106 0-.15-.107l-.056.04.014-.019a.133.133 0 01-.017-.064v-.024c0-.024-.004-.05-.047-.104l.064-.044c-.043-.02-.278-.299-.278-.363 0-.107-.065-.3-.129-.321-.085-.065-.043-.129-.107-.215-.062-.106-.143-.206-.193-.37a.082.082 0 00.065.027c0 .086 0 .172.107.172 0 .086.064.278.192.278l.15-.364V1.66v.001l-.015-.048-.156-.486c-.053.106-.134.183-.268.183a.447.447 0 01-.096-.012c0 .038-.003.081-.005.125-.005-.035-.013-.063-.016-.103l-.28-.064c-.17.042-.256.106-.47.106-.128 0-.172-.127-.428-.127-.021-.022-.043-.022-.086-.022v-.021c-.129-.022-.3 0-.385-.086-.086-.086-.021-.193-.236-.193-.15 0-.192.171-.342.171v.108c0 .064.064.106.064.15 0 .042-.064.085-.064.17h-.086c-.15 0-.278-.15-.429-.192a.245.245 0 00-.057-.007c-.017 0-.034.002-.05.003a.598.598 0 01-.05.002.137.137 0 01-.078-.02c-.063-.063-.02-.214-.149-.256A.821.821 0 005.402.95c-.036 0-.073.002-.111.006L5.289.934a.044.044 0 01-.013.002c-.064 0-.162-.132-.222-.152L4.948.72c0-.022.106-.215.15-.237C5.076.42 4.989.377 4.989.291l.065-.064V.14c-.043 0-.235-.106-.235-.128a.992.992 0 01-.493.128" mask="url(#j)"/></g><g transform="translate(89.318 17.917)"><mask id="l" fill="#fff"><use xlink:href="#k"/></mask><path d="M.107.029H.086C.064.07.022.113.022.156c0 .086.042.129.042.129C.387.27.443.275.444.208.443.172.427.117.427.028H.107" mask="url(#l)"/></g><g transform="translate(95.466 20.86)"><mask id="n" fill="#fff"><use xlink:href="#m"/></mask><path d="M.852.64H.768v.108C.68.768.639.876.553.876.446.876.403.94.318.94l-.13.364c0 .128.108.172.108.343 0 .107-.107.428-.278.428.021.043.029.07.028.09 0 .041-.028.06-.028.146l.064.063c-.021.065-.064.044-.064.107 0 .172.022.387.214.387l.02.01A15.902 15.902 0 001.335.46L1.35.422A.566.566 0 011.364.38L1.37.358 1.38.336a.842.842 0 00.008-.025l.006-.017.01-.03.002-.006A.349.349 0 011.238.02C1.173.17 1.067.64.852.64" mask="url(#n)"/></g><g transform="translate(72.094 8.132)"><mask id="p" fill="#fff"><use xlink:href="#o"/></mask><path d="M10.976 9.922l1.168-1.167 1.167 1.168-1.168 1.167-1.167-1.168zm-1.17 3.504L8.64 12.257l1.167-1.167 1.168 1.168-1.168 1.168zM7.473 8.754l1.167 1.168-.752.75v.001l-.414.415-.633-.633H6.84l-.535-.534 1.168-1.167zm2.336-2.335l1.168 1.168-1.168 1.167L8.64 7.586 9.808 6.42zm9.927-2.32a4.129 4.129 0 00-.046-.552l-5.21 5.207-.402-.401h.001l-.766-.766 5.734-5.732A4.155 4.155 0 0017.879.686L12.144 6.42l-.63-.63-.537-.538L16.183.047A3.927 3.927 0 0015.555 0a4.118 4.118 0 00-2.75 1.088L9.808 4.083 6.946 1.219A4.114 4.114 0 004.098.117a4.09 4.09 0 00-.544.044l5.087 5.09-1.168 1.167L1.86.803a4.147 4.147 0 00-.644.524l-.054.054a4.29 4.29 0 00-.473.587l5.614 5.617-1.167 1.168L.048 3.66c-.03.208-.05.42-.048.637a4.121 4.121 0 001.013 2.667l4.672 4.673 2.6 2.603.001-.001 1.052 1.052.003-.004.47.47 2.331-2.332 1.169-1.167 5.398-5.397a4.107 4.107 0 001.026-2.763z" fill="#FFFFFE" mask="url(#p)"/></g><path d="M59.293 7.966c3.327 0 5.06 1.673 5.06 1.673l-.984 1.457s-1.556-1.358-3.919-1.358c-3.269 0-5.237 2.383-5.237 5.356 0 3.23 2.205 5.454 5.12 5.454 2.402 0 3.937-1.732 3.937-1.732v-2.009h-2.264v-1.694h4.036v6.99H63.33v-.866c0-.296.02-.59.02-.59h-.04s-1.516 1.692-4.272 1.692c-3.74 0-6.833-2.953-6.833-7.206 0-4.017 3.033-7.167 7.089-7.167" fill="#FFFFFE"/><path d="M59.272 8.568c-3.686 0-6.466 2.822-6.466 6.566 0 3.765 2.673 6.604 6.218 6.604 2.445 0 3.827-1.498 3.841-1.513l.12-.132.61-.001.01.43c0 .004-.019.275-.019.547v.44h.855v-5.992h-3.106v.842h2.194v2.508l-.1.114c-.066.075-1.637 1.82-4.119 1.82-3.108 0-5.363-2.399-5.363-5.705 0-3.304 2.252-5.611 5.478-5.611 1.77 0 3.094.733 3.7 1.147l.511-.76c-.566-.415-2.05-1.304-4.364-1.304m-.248 13.975c-4.004 0-7.024-3.185-7.024-7.41 0-4.202 3.126-7.37 7.272-7.37 3.349 0 5.111 1.668 5.185 1.74l.242.234-1.398 2.074-.344-.299c-.014-.012-1.432-1.222-3.532-1.222-2.751 0-4.673 1.976-4.673 4.806 0 2.839 1.917 4.9 4.558 4.9 1.785 0 3.057-1.099 3.414-1.446v-1.386h-2.195v-2.452h4.718v7.602H62.78v-.96a6.38 6.38 0 01-3.756 1.19M68.095 22.104h1.949V8.203h-1.95z" fill="#FFFFFE"/><path d="M68.695 21.502h.747v-12.7h-.747v12.7zm-.805.805h2.358V7.997H67.89v14.31zM94.064 22.104h1.95V8.203h-1.95z" fill="#FFFFFE"/><path d="M94.666 21.502h.747v-12.7h-.747v12.7zm-.806.805h2.358V7.997H93.86v14.31zM99.794 8.201h1.93l6.182 9.039c.512.748 1.162 2.008 1.162 2.008h.039s-.138-1.24-.138-2.008V8.2h1.95v13.903h-1.91l-6.203-9.019c-.512-.768-1.161-2.028-1.161-2.028h-.04s.138 1.241.138 2.028v9.019h-1.95V8.201" fill="#FFFFFE"/><path d="M109.091 21.502h1.227V8.803h-1.075v8.377c0 .714.13 1.896.13 1.907l.05.447h-.697l-.15-.22c-.006-.011-.621-1.21-1.094-1.908l-5.843-8.603h-1.244v12.7h1.074v-8.36c0-.732-.129-1.914-.13-1.925l-.05-.447h.697l.15.22c.006.01.622 1.213 1.098 1.93l5.857 8.581zm2.032.806h-2.458l-6.1-8.937a12.315 12.315 0 01-.293-.468l.003.24v9.165H99.59V7.998h2.476l6.083 8.955c.094.14.193.297.292.46a8.87 8.87 0 01-.004-.233V7.997h2.686v14.311zM120.862 7.966c3.328 0 5.061 1.673 5.061 1.673l-.985 1.457s-1.556-1.358-3.918-1.358c-3.269 0-5.238 2.383-5.238 5.356 0 3.23 2.205 5.454 5.12 5.454 2.402 0 3.938-1.732 3.938-1.732v-2.009h-2.265v-1.694h4.037v6.99h-1.714v-.866c0-.296.02-.59.02-.59h-.039s-1.516 1.692-4.273 1.692c-3.74 0-6.832-2.953-6.832-7.206 0-4.017 3.032-7.167 7.088-7.167" fill="#FFFFFE"/><path d="M120.842 8.568c-3.687 0-6.467 2.822-6.467 6.566 0 3.765 2.674 6.604 6.218 6.604 2.446 0 3.828-1.498 3.841-1.513l.12-.132.61-.001.01.429c0 .004-.018.276-.018.548v.44h.855v-5.992h-3.107v.842h2.195v2.508l-.101.114c-.066.075-1.637 1.82-4.118 1.82-3.108 0-5.364-2.399-5.364-5.705 0-3.304 2.253-5.611 5.479-5.611 1.77 0 3.093.733 3.698 1.147l.512-.76c-.566-.415-2.049-1.304-4.363-1.304m-.249 13.975c-4.004 0-7.024-3.185-7.024-7.41 0-4.202 3.127-7.37 7.273-7.37 3.349 0 5.11 1.668 5.184 1.74l.242.234-1.397 2.074-.345-.299c-.014-.012-1.432-1.222-3.531-1.222-2.752 0-4.674 1.976-4.674 4.806 0 2.839 1.918 4.9 4.559 4.9 1.795 0 3.058-1.097 3.413-1.445v-1.387h-2.195v-2.452h4.718v7.602h-2.466v-.96a6.38 6.38 0 01-3.757 1.19M129.898 8.201v1.694h4.766v12.208h1.948V9.895h4.766V8.201h-11.48M143.169 8.201h1.95v8.98c0 2.126 1.377 3.367 3.504 3.367 2.146 0 3.544-1.24 3.544-3.407V8.2h1.95v8.98c0 3.09-2.225 5.158-5.474 5.158-3.25 0-5.474-2.067-5.474-5.158V8.2M157.7 8.201v13.902h8.408V20.41h-6.458v-4.47h4.982v-1.694h-4.982V9.895h6.122V8.201H157.7M169.022 19.032s1.477 1.496 3.544 1.496c1.3 0 2.403-.729 2.403-2.048 0-3.013-6.735-2.362-6.735-6.635 0-2.166 1.871-3.879 4.489-3.879 2.581 0 3.939 1.398 3.939 1.398l-.886 1.615s-1.28-1.201-3.053-1.201c-1.476 0-2.52.925-2.52 2.028 0 2.874 6.736 2.106 6.736 6.615 0 2.147-1.656 3.918-4.412 3.918-2.954 0-4.608-1.83-4.608-1.83l1.103-1.477M184.203 20.41c3.132 0 5.179-1.85 5.179-5.277 0-3.406-2.067-5.238-5.18-5.238h-2.52V20.41h2.52zm-4.47-12.209h4.608c4.253 0 7.05 2.541 7.05 6.932 0 4.41-2.797 6.97-7.05 6.97h-4.608V8.201zM198.498 10.112s-.315 1.26-.55 1.97l-1.557 4.41h4.214l-1.536-4.41c-.236-.71-.532-1.97-.532-1.97h-.039zm2.619 7.994h-5.238l-1.378 3.997h-2.008l5-13.902h2.048l5.001 13.902h-2.027l-1.398-3.997zM208.598 16.216L203.932 8.2h2.205l2.58 4.57c.433.767.846 1.751.846 1.751h.039s.415-.965.848-1.751l2.54-4.57h2.205l-4.647 8.015v5.888h-1.95v-5.888" fill="#FFFFFE"/><path fill="#29AEB4" d="M224.41 24.555h1.402V5.62h-1.402z"/><path fill="#FFFFFE" d="M248.768 8.168v14.18h-2.167l-7.819-9.602v9.601h-2.613V8.168h2.168l7.818 9.601v-9.6h2.613M264.184 15.258c0-2.896-2.126-4.983-4.982-4.983-2.856 0-4.983 2.087-4.983 4.983 0 2.896 2.127 4.983 4.983 4.983s4.982-2.087 4.982-4.983m-12.618 0c0-4.193 3.24-7.292 7.636-7.292 4.395 0 7.636 3.079 7.636 7.292 0 4.213-3.241 7.292-7.636 7.292s-7.636-3.1-7.636-7.292M289.91 8.168l-4.699 14.18h-2.795l-3.504-10.493-3.565 10.492h-2.815l-4.7-14.179h2.735l3.524 10.776 3.666-10.776h2.43l3.586 10.837L287.4 8.168h2.512"/></g></svg>