<?xml version="1.0" encoding="UTF-8"?>
<svg width="220px" height="25px" viewBox="0 0 220 25" version="1.1" xmlns="http://www.w3.org/2000/svg" xmlns:xlink="http://www.w3.org/1999/xlink">
    <title>Group 4</title>
    <g id="Page-1" stroke="none" stroke-width="1" fill="none" fill-rule="evenodd">
        <g id="desktop/nav/event/dark/links-short-logo" transform="translate(-50.000000, -27.000000)">
            <g id="Group-4" transform="translate(50.000000, 27.000000)">
                <rect id="Rectangle" fill="#FFFFFF" x="40" y="0" width="2" height="22"></rect>
                <g id="logo/abbreviated-" transform="translate(0.000000, 3.000000)" fill="#FFFFFF">
                    <path d="M17.5711604,2.47405132 C17.8738045,1.49756332 17.5711604,1.12829223 16.9878827,1.12829223 L16.2097475,1.12829223 C16.1016372,1.12829223 16.0365768,1.0850589 16.0585873,0.955033871 L16.1663739,0.434283612 C16.1883844,0.303933516 16.2311106,0.260050067 16.4473312,0.260050067 C16.7066017,0.260050067 17.4633738,0.325387646 19.4083882,0.325387646 C21.1591924,0.325387646 21.893954,0.260050067 22.1101746,0.260050067 C22.2830216,0.260050067 22.3260715,0.325387646 22.3043847,0.477191873 L22.2182849,0.955033871 C22.1965981,1.06327971 22.1318614,1.12829223 22.0017406,1.12829223 L21.3967761,1.12829223 C21.0073848,1.12829223 20.4244308,1.21508394 20.0997762,2.3004679 L18.3279325,8.09568364 C18.1981354,8.57352564 17.7009575,10.1793348 17.7009575,11.1561479 C17.7009575,13.7829786 19.9919896,14.0644828 20.6189646,14.0644828 C21.6563703,14.0644828 22.7585127,13.6744077 23.4499007,13.0879948 C24.4659433,12.2418569 25.1793418,11.0696812 25.849043,8.65999229 L27.4270002,3.10369755 C27.837431,1.67082168 27.5998473,1.12829223 26.9081356,1.12829223 L26.2167475,1.12829223 C26.0222137,1.12829223 26.0005269,1.06327971 26.0222137,0.955033871 L26.1083135,0.477191873 C26.1300003,0.325387646 26.1730503,0.260050067 26.3679077,0.260050067 C26.6275019,0.260050067 27.448687,0.325387646 28.8317868,0.325387646 C30.0850894,0.325387646 30.5822673,0.260050067 30.7984879,0.260050067 C30.9933454,0.260050067 31.0147085,0.325387646 30.9933454,0.477191873 L30.9286087,0.955033871 C30.9069219,1.06327971 30.8632246,1.12829223 30.6907013,1.12829223 L30.3663704,1.12829223 C29.6749824,1.12829223 29.2205307,1.77971765 28.8965235,2.84332242 L27.037609,8.81212158 C25.8707298,12.6761405 24.1416124,15.1937502 20.1434735,15.1937502 C17.3552635,15.1937502 15.2587653,13.9130036 15.2587653,11.2211604 C15.2587653,10.3096849 15.5827725,8.96392581 15.7125696,8.50818806 L17.5711604,2.47405132 Z M10.7200748,16.6913135 C10.5689146,17.4295307 10.1367971,18.6663938 9.85551613,19.2963651 C9.29360152,20.4464365 7.73765479,21.9004414 6.09463719,21.9004414 C4.08488615,21.9004414 3.30707463,20.9021743 3.30707463,19.8596985 C3.30707463,19.1006774 3.71750534,18.5145896 4.47427744,18.5145896 C5.27409944,18.5145896 5.40324917,19.1871441 5.40324917,19.42574 C5.40324917,19.6864402 5.31714935,20.0553862 5.20903905,20.1636321 C5.12229187,20.2510739 5.07924196,20.3593197 5.07924196,20.5329032 C5.07924196,20.9668617 5.57641986,21.2064328 6.02990048,21.2064328 C7.15405338,21.2064328 7.7590179,20.2939822 8.14840919,18.797069 C8.4076797,17.7763724 8.79642362,16.0619924 9.59592194,13.0662156 L9.46677221,13.0229823 C9.16412811,13.4351616 7.93218859,15.1937502 5.01450525,15.1937502 C2.03176152,15.1937502 0,13.0879948 0,9.3331969 C0,6.53310781 1.27563679,4.16730232 2.87495712,2.53906384 C4.08488615,1.3239799 5.96548746,0 8.96959431,0 C11.2175764,0 12.3624451,0.737892065 12.7948863,1.0850589 C13.0761673,1.30220071 13.2707011,1.34543403 13.3788114,1.34543403 C13.6380819,1.34543403 13.767879,1.12829223 13.8973524,0.651100355 C13.9190392,0.542529452 13.9837759,0.520750259 14.0918862,0.542529452 L14.4162171,0.629321162 C14.5026406,0.651100355 14.5673773,0.694333679 14.5456905,0.802904581 L13.3140746,5.16556952 C13.2707011,5.29591961 13.2270038,5.31737374 13.0761673,5.29591961 L12.7304732,5.25236123 C12.6220393,5.23058203 12.5573026,5.16556952 12.579313,5.03554448 C12.9463702,3.16871006 11.8872776,0.889696291 9.0777046,0.889696291 C7.6942812,0.889696291 6.13833447,1.36721323 4.62511396,3.36439774 C3.37148765,4.94842771 2.65841283,7.292454 2.65841283,9.91863461 C2.65841283,13.4790451 4.84165824,14.0436788 5.79231677,14.0436788 C8.3859929,14.0436788 9.6399429,11.8075733 9.72571903,10.5271518 C9.79077942,9.70214293 9.55319571,9.52855951 8.96959431,9.52855951 L8.2131459,9.52855951 C8.04062257,9.52855951 8.01861209,9.463547 8.061662,9.31109264 L8.14840919,8.83357571 C8.1697723,8.70387574 8.2131459,8.65999229 8.3859929,8.65999229 C8.7103238,8.65999229 9.46677221,8.72532987 11.3687366,8.72532987 C12.8382599,8.72532987 13.3568009,8.65999229 13.659445,8.65999229 C13.8112526,8.65999229 13.8759893,8.72532987 13.8543025,8.83357571 L13.7892421,9.35530116 C13.767879,9.48467606 13.7241817,9.52855951 13.5947083,9.52855951 L13.140904,9.52855951 C12.7304732,9.52855951 12.4275055,9.70214293 12.1468718,10.8522144 L10.7200748,16.6913135 Z" id="logo-abbreviated-"></path>
                </g>
                <g id="GivingTuesday_HZ_Lockup_Knockout_notagline_sketch" transform="translate(52.000000, 4.000000)">
                    <g id="Group-4">
                        <path d="M31.626,11.707 L32.725,10.609 L33.823,11.709 L32.724,12.808 L32.391,12.475 L32.392,12.474 L31.626,11.707 Z M29.429,9.511 L30.528,8.412 L31.626,9.511 L30.918,10.218 L30.528,10.608 L29.933,10.013 L29.932,10.014 L29.429,9.511 Z M32.726,6.216 L33.231,6.722 L33.321,6.811 L33.823,7.314 L32.725,8.413 L31.626,7.314 L32.726,6.216 Z M34.922,8.413 L36.02,9.512 L34.921,10.61 L33.823,9.512 L34.922,8.413 Z M42.019,3.515 L37.118,8.414 L36.74,8.035 L36.741,8.034 L36.021,7.314 L41.414,1.924 C41.124,1.489 40.752,1.111 40.317,0.824 L34.922,6.216 L34.33,5.624 L33.824,5.118 L38.722,0.223 C38.527,0.194 38.331,0.177 38.131,0.179 C37.131,0.188 36.226,0.577 35.543,1.202 L32.725,4.019 L30.033,1.325 C29.33,0.675 28.389,0.276 27.354,0.289 C27.18,0.29 27.01,0.307 26.842,0.33 L31.627,5.117 L30.528,6.215 L25.25,0.935 C25.032,1.077 24.829,1.243 24.645,1.427 L24.593,1.478 C24.429,1.647 24.28,1.833 24.148,2.029 L29.43,7.313 L28.331,8.412 L23.545,3.623 C23.515,3.818 23.498,4.018 23.4989582,4.222 C23.51,5.184 23.868,6.057 24.452,6.729 L31.292,13.573 L31.293,13.572 L32.282,14.563 L32.286,14.559 L32.728,15 L41.098,6.634 C41.706,5.938 42.074,5.028 42.062,4.034 C42.061,3.857 42.044,3.685 42.019,3.515 L42.019,3.515 Z" id="Fill-1" fill="#DA342C"></path>
                        <path d="M7.111,0.37 C10.449,0.37 12.188,2.049 12.188,2.049 L11.2,3.511 C11.2,3.511 9.639,2.148 7.269,2.148 C3.99,2.148 2.015,4.538 2.015,7.52 C2.015,10.76 4.228,12.992 7.15,12.992 C9.561,12.992 11.101,11.254 11.101,11.254 L11.101,9.239 L8.829,9.239 L8.829,7.54 L12.879,7.54 L12.879,14.552 L11.16,14.552 L11.16,13.683 C11.16,13.387 11.18,13.091 11.18,13.091 L11.141,13.091 C11.141,13.091 9.619,14.789 6.854,14.789 C3.101,14.789 0,11.826 0,7.56 C0,3.53 3.042,0.37 7.111,0.37" id="Fill-3" fill="#FFFFFE"></path>
                    </g>
                    <polygon id="Fill-5" fill="#FFFFFE" points="17.559 14.551 19.515 14.551 19.515 0.607 17.559 0.607"></polygon>
                    <polygon id="Fill-6" fill="#FFFFFE" points="45.634 14.551 47.59 14.551 47.59 0.607 45.634 0.607"></polygon>
                    <path d="M52.191,0.607 L54.126,0.607 L60.33,9.673 C60.842,10.424 61.495,11.688 61.495,11.688 L61.534,11.688 C61.534,11.688 61.396,10.444 61.396,9.673 L61.396,0.607 L63.352,0.607 L63.352,14.552 L61.435,14.552 L55.214,5.506 C54.7,4.735 54.048,3.471 54.048,3.471 L54.009,3.471 C54.009,3.471 54.147,4.715 54.147,5.506 L54.147,14.552 L52.191,14.552 L52.191,0.607" id="Fill-7" fill="#FFFFFE"></path>
                    <path d="M74.54,0.37 C77.878,0.37 79.617,2.049 79.617,2.049 L78.629,3.511 C78.629,3.511 77.067,2.148 74.698,2.148 C71.419,2.148 69.444,4.538 69.444,7.52 C69.444,10.76 71.658,12.992 74.58,12.992 C76.989,12.992 78.53,11.254 78.53,11.254 L78.53,9.239 L76.259,9.239 L76.259,7.54 L80.308,7.54 L80.308,14.552 L78.59,14.552 L78.59,13.683 C78.59,13.387 78.609,13.091 78.609,13.091 L78.57,13.091 C78.57,13.091 77.049,14.789 74.284,14.789 C70.531,14.789 67.43,11.826 67.43,7.56 C67.43,3.53 70.471,0.37 74.54,0.37" id="Fill-8" fill="#FFFFFE"></path>
                    <polyline id="Fill-9" fill="#FFFFFE" points="91.541 2.443 86.762 2.443 86.762 0.745 98.277 0.745 98.277 2.443 93.498 2.443 93.498 14.689 91.541 14.689 91.541 2.443"></polyline>
                    <path d="M99.669,0.745 L101.625,0.745 L101.625,9.752 C101.625,11.885 103.006,13.13 105.141,13.13 C107.293,13.13 108.696,11.885 108.696,9.713 L108.696,0.745 L110.652,0.745 L110.652,9.752 C110.652,12.854 108.419,14.928 105.16,14.928 C101.901,14.928 99.669,12.854 99.669,9.752 L99.669,0.745" id="Fill-10" fill="#FFFFFE"></path>
                    <polyline id="Fill-11" fill="#FFFFFE" points="113.436 0.745 121.535 0.745 121.535 2.443 115.391 2.443 115.391 6.81 120.388 6.81 120.388 8.508 115.391 8.508 115.391 12.991 121.87 12.991 121.87 14.689 113.436 14.689 113.436 0.745"></polyline>
                    <path d="M123.983,11.608 C123.983,11.608 125.465,13.109 127.539,13.109 C128.843,13.109 129.949,12.379 129.949,11.056 C129.949,8.033 123.193,8.686 123.193,4.399 C123.193,2.226 125.071,0.508 127.697,0.508 C130.285,0.508 131.647,1.91 131.647,1.91 L130.758,3.53 C130.758,3.53 129.475,2.325 127.697,2.325 C126.215,2.325 125.168,3.253 125.168,4.359 C125.168,7.244 131.924,6.473 131.924,10.996 C131.924,13.149 130.265,14.927 127.5,14.927 C124.537,14.927 122.877,13.09 122.877,13.09 L123.983,11.608" id="Fill-12" fill="#FFFFFE"></path>
                    <path d="M133.919,0.745 L138.541,0.745 C142.808,0.745 145.612,3.292 145.612,7.697 C145.612,12.122 142.808,14.689 138.541,14.689 L133.919,14.689 L133.919,0.745 Z M138.402,12.991 C141.543,12.991 143.597,11.135 143.597,7.697 C143.597,4.28 141.522,2.443 138.402,2.443 L135.875,2.443 L135.875,12.991 L138.402,12.991 L138.402,12.991 Z" id="Fill-13" fill="#FFFFFE"></path>
                    <path d="M154.559,10.681 L149.305,10.681 L147.923,14.689 L145.909,14.689 L150.925,0.745 L152.979,0.745 L157.996,14.689 L155.962,14.689 L154.559,10.681 Z M151.933,2.661 C151.933,2.661 151.616,3.925 151.379,4.636 L149.819,9.061 L154.046,9.061 L152.505,4.636 C152.268,3.925 151.972,2.661 151.972,2.661 L151.933,2.661 L151.933,2.661 Z" id="Fill-14" fill="#FFFFFE"></path>
                    <path d="M161.255,8.783 L156.574,0.745 L158.787,0.745 L161.374,5.327 C161.808,6.099 162.223,7.085 162.223,7.085 L162.262,7.085 C162.262,7.085 162.677,6.117 163.112,5.327 L165.661,0.745 L167.872,0.745 L163.211,8.783 L163.211,14.689 L161.255,14.689 L161.255,8.783" id="Fill-15" fill="#FFFFFE"></path>
                </g>
            </g>
        </g>
    </g>
</svg>