<svg width="313" height="42" xmlns="http://www.w3.org/2000/svg" xmlns:xlink="http://www.w3.org/1999/xlink"><defs><path id="a" d="M.018.03h41.97V42H.017z"/><path d="M.018 21.015c0 10.489 7.694 19.18 17.747 20.737h6.475c10.053-1.557 17.747-10.248 17.747-20.737 0-11.59-9.395-20.984-20.984-20.984C9.413.03.018 9.425.018 21.015" id="c"/><path d="M.089.018l.028.1C.061.118.005.084.005.084" id="e"/><path d="M11.633.014c0 .196.112.251.112.393 0 .083-.169.056-.197.14h.169c-.056.085-.084.14-.084.197h.112V.687c.112-.027.112-.055.168-.084.026.052.191.056.221.057h.005c-.057.168-.169.168-.226.337h.198c.168-.14.31-.337.562-.337 0-.197.196-.253.365-.253.084 0 .169.056.281.056v.169c0 .084-.169.112-.197.196-.084.225-.196.422-.45.422-.056 0-.14-.056-.168-.113-.02.04-.039.065-.04.087 0 .01.004.017.012.026-.112.028-.14.084-.197.084-.084 0-.14-.113-.197-.113-.169.084-.225.253-.449.253a.784.784 0 01-.337-.112h-.169c.017.125.138.147.273.147.078 0 .16-.007.233-.007v.112c-.253.057-.646.31-.928.31l-.337-.085h-.085c.113.057.254.057.338.142-.113.168-.253.14-.393.197-.14.026-.197.14-.31.14v.113c-.252.027-.73.42-.73.73h.168c0 .074-.012.174-.012.24 0 .034.003.06.012.069l-.056.084c0 .057.056.084.113.084l.31-.111c.28.14.392.448.673.534 0 .074.04.099.096.099.11 0 .279-.1.298-.1l.197.056c-.029.085-.057.112-.14.169l.083.055c-.084.142-.168.281-.168.423 0 .055.112.281.225.281 0 .056.055.112.084.14.253-.253.505-.506.505-1.012.31 0 .956-.282.956-.645 0-.198-.225-.198-.225-.31 0-.085.422-.479.422-.479a.152.152 0 01-.03-.088c0-.166.295-.33.367-.472l.731.026c0 .142.084.086.197.113.055 0 .084.198.084.198.028.027.075.034.13.034.057 0 .122-.008.18-.008l.027.057c-.168.14-.168.422-.281.479h.14c0 .168-.14.196-.168.308.084 0 .168-.084.225-.112.015.01.035.015.058.015.217 0 .714-.447.84-.55a.46.46 0 01.036.18c0 .053-.007.102-.007.159h.113c0 .111-.028.14-.056.196.028.028.056.028.112.028v.141c0 .056.028.085.084.112-.028.141-.113.141-.168.168.168.253.393.339.673.422-.075.176-.582.263-.582.3 0 .003.007.007.02.01.085 0 .114-.029.198-.029.027 0 .197-.057.28-.057.15 0 .175.026.225.026a.368.368 0 00.113-.026v.142c0 .168 0 .168-.169.196a.35.35 0 00.085.112c-.058.096-.141.152-.224.152a.187.187 0 01-.113-.04c-.17.17-.534.085-.534.31h-.029c-.084.084-.084.14-.225.14l-.477-.083h-.619c-.478 0-.562.365-.927.478-.225.084-.618.365-.674.59.197 0 .168-.14.252-.198.394-.168.787-.59 1.237-.59.084 0 .225.057.225.14 0 .142-.084.226-.17.226-.111 0-.224-.056-.336-.056-.085 0-.14.027-.14.056l.28.113c.038 0 .076-.013.122-.013.022 0 .047.004.075.013-.056.084-.168.111-.168.224 0 .23.248.304.48.304.08 0 .157-.009.222-.022v.113a.188.188 0 01-.121.04.494.494 0 01-.047-.003c-.016-.001-.031-.003-.047-.003-.03 0-.061.005-.094.021-.197.112-.309.225-.506.337-.14.056-.281.028-.309.084-.057 0-.112-.028-.112-.056 0-.365.618-.28.758-.394-.14-.026-.168-.14-.281-.14-.112 0-.253.17-.309.17-.028.027-.084.027-.14.054-.31.113-.534.254-.844.338-.196.056-.224.366-.336.422l.027.085.113-.085a.308.308 0 01.003.045c0 .111-.074.125-.178.125l-.107-.002c-.252 0-.561.113-.73.198v.14c0 .197-.168.254-.253.365V8.33c-.056 0-.084-.083-.084-.112h-.056a.822.822 0 00-.013.139c0 .074.013.124.013.199 0 .112-.085.196-.169.308v-.044c0-.174.002-.308.028-.49-.112.057-.168.141-.168.253h-.113c0 .085.084.197.17.197v.141c-.142.028-.198 0-.282.028.027.056.14.084.168.084l.057.113c-.253.28-.253.505-.647.618-.112.057-.421.422-.505.45-.282.14-.506.225-.506.59v.31c0 .055.025.123.025.204 0 .041-.007.085-.025.133l.056.28c-.028.196-.056.477-.14.59h-.17c0-.203-.115-.176-.115-.294 0-.013 0-.027.004-.043v-.14c-.085 0-.141-.14-.141-.225v-.338c0-.112-.085-.308-.253-.308h-.17c-.14 0-.252-.057-.476-.057-.141 0-.17-.085-.282-.085-.05 0-.148-.01-.242-.01-.12 0-.235.017-.235.095 0 .112.14.14.168.253-.14 0-.309.085-.393.085l-.168-.197-.142.084c-.084 0-.14-.113-.224-.113-.337 0-.87.394-1.097.619-.028.028-.034.069-.034.116 0 .037.004.079.004.12a.32.32 0 01-.025.138c0 .07-.013.119-.013.175 0 .03.003.06.013.097-.225.019-.263.301-.263.537 0 .117.01.222.01.278 0 .056 0 .394.028.479.056.197.393.645.618.645.057 0 .31-.14.366-.14a.239.239 0 01.072-.008c.04 0 .086.004.131.008.045.004.087.008.118.008.022 0 .038-.002.045-.008.223-.197.14-.394.251-.618.085-.17.59-.197.787-.197h.141c0 .056.029.14.056.168-.084.057-.309.113-.309.59-.056.113-.14.142-.169.225v.17a.188.188 0 01.024.098c-.002.154-.124.366-.192.435.003.003.009.004.016.004.062 0 .265-.09.49-.09.153-.026.307-.033.44-.033.135 0 .248.007.319.007 0 .169-.028.196-.028.28 0 .197-.169.59-.169.984 0 .17.112.422.28.562a.327.327 0 00.226.084c.253 0 .337-.196.562-.196.28 0 .337.309.59.309.049-.056.098-.113.141-.169.168-.223.084-.393.253-.562a.091.091 0 01.068-.025c.023 0 .048.005.073.01.025.005.051.01.076.01.046 0 .088-.016.12-.079h.14c.112-.056.253-.196.393-.31.056.028.085.028.14.085v.057c-.027.196-.196.28-.196.59 0 .112 0 .224.141.224l.084.085a.072.072 0 01-.006-.032c0-.077.062-.224.062-.25 0-.168-.028-.14-.028-.309 0-.084.085-.14.14-.14a.22.22 0 01-.011-.068c0-.05.02-.09.04-.128.112.167.394.111.394.421h.168l.113-.057c.018.02.04.025.066.025.052 0 .12-.025.214-.025.02.06.056.107.105.107.019 0 .04-.007.064-.022 0 .056.056.085.113.085l.112-.057c0-.056.056-.083.084-.083.085 0 .14 0 .225-.086h.197c0 .056-.029.086-.029.113 0 .084.14.168.198.168 0 .009-.003.022-.003.036 0 .035.014.077.115.077l.084-.056c0 .168.084.308.281.337.197.112.197.225.31.506l.055-.056c.085 0 .085.168.253.224l.478-.028c.084 0 .309.055.365.113.028-.029.038-.038.043-.038.01 0 .004.038.098.038.028.197.197.308.45.422.14.055.056.59.28.59 0 .084.028.111.113.168-.085.14-.337.196-.366.506l-.253.252c.057 0 .141 0 .198-.056h.112c0 .14.197.17.365.17.012.02.027.028.045.028.106 0 .296-.322.32-.394h.113a.323.323 0 00.264.134c.04 0 .084-.006.129-.022 0 0 .169.198.31.198 0 .056.056.112.056.14 0 0-.012.061-.013.128 0 .034.003.068.013.097.055-.085.084-.142.308-.142.14 0 .226.057.394.057.113 0 .197.028.337.028.338 0 .506.45.787.618a.07.07 0 00.052.02c.024 0 .05-.008.078-.016a.313.313 0 01.086-.016c.053 0 .106.026.15.125.028.112.14.45.14.646 0 .759-.674.647-.674 1.32-.085.03-.31.114-.31.254 0 .168.085.506.085.618v.393c0 .17-.14.197-.14.366 0 .337-.085.506-.226.702l-.112.254c-.056.197-.028.252-.28.252-.043 0-.078-.007-.12-.007a.414.414 0 00-.162.036c-.169 0-.225.196-.31.196-.253 0-.814.421-.814.703 0 .112.14.337.14.534 0 .196-.224.225-.28.394-.057.223-.113.28-.17.476a1.983 1.983 0 00-.28.479l-.014-.013-.015.013a.643.643 0 00-.014.085v.002c0 .004 0-.003-.014.025-.027.055-.111.028-.14.113-.056.224-.084.28-.337.337a.64.64 0 01-.196.032c-.125 0-.245-.044-.282-.172l-.281-.084v-.563l-.028.59a.081.081 0 00-.002.018c0 .138.288.319.396.319a.223.223 0 00-.022.099c0 .035.007.07.022.097.028.03.14.058.14.142 0 .356-.162.597-.653.597-.05 0-.104-.003-.162-.008-.085 0-.337 0-.337.169 0 .028.056.057.056.113s.056.168.056.168c0 .084 0 .253-.112.253-.14 0-.337-.14-.506-.14v.056c0 .14.253.45.253.73 0 .114-.057.226-.057.366-.084 0-.337.056-.337.196 0 .225.253.338.534.338v.337c-.084.056-.112.084-.253.14v.085h.029l.056.253c-.056 0-.17.112-.17.168 0 .027.047.198.054.356l.031.01a.035.035 0 00-.011.026c0 .021.02.047.04.086-.141.028-.198.028-.253.253-.012.024-.022.034-.03.034-.032 0-.05-.137-.14-.202-.195 0-.336-.085-.364-.168l.084-.029c-.028-.141-.309-.085-.309-.337-.225-.029-.366-.45-.366-.76-.057 0-.084-.014-.106-.047.007.045.022.11.022.132-.056 0-.14-.056-.168-.113l.027-.027c.052 0 .06-.022.103-.026-.014-.03-.026-.066-.047-.115-.027-.056-.28-.084-.392-.084.027-.169.224-.141.392-.225-.027-.113-.056-.141-.056-.28 0-.058-.084-.283-.084-.338 0-.17-.028-.31-.056-.534-.253 0-.393-.028-.393-.31 0-.112.056-.168.056-.28 0-.112-.28-.422-.28-.648 0-.11.112-.14.112-.28 0-.309.055-.506.055-.815 0-.086.007-.135.007-.181a.39.39 0 00-.034-.156c-.057 0-.085-.337-.085-.337v-.281c0-.084-.084-.084-.084-.224 0-.085.028-.142.056-.198-.01-.01-.012-.029-.012-.052 0-.045.012-.108.012-.144 0-.197.028-.17.028-.422 0-.31-.113-.477-.113-.788 0-.112.085-.168.085-.309 0-.365-.197-.617-.197-1.067-.225 0-.225-.28-.45-.366-.084 0-.59-.225-.59-.309-.083-.028-.28-.253-.477-.393a.112.112 0 01-.059-.104c0-.06.028-.132.027-.208a.241.241 0 00-.025-.11c-.027-.083-.224-.112-.252-.251-.057-.142-.028-.2-.141-.34-.14-.223-.197-.364-.309-.616-.056-.085-.112-.085-.14-.225-.029-.112-.085-.225-.197-.281-.113-.085-.253-.085-.31-.254l.085-.112a.614.614 0 01-.028-.226v-.027c0-.225.112-.225.225-.338.023.024.065.065.08.11l.001.01v-.003c-.01-.044-.048-.085-.053-.11v-.007a.552.552 0 00.056-.253c0-.013-.005-.018-.013-.018-.027 0-.085.048-.128.048-.112 0-.196-.057-.196-.17 0-.225.28-.562.422-.787.079 0 .107-.074.133-.154l-.022-.015c.029-.055.057-.14.085-.195.169 0 .337-.31.337-.423 0-.055-.012-.21-.012-.357 0-.076.003-.148.012-.206-.049-.023-.055-.19-.056-.252l-.169-.168c0-.112.057-.14.113-.198-.14-.083-.225-.083-.31-.224-.196.056-.252.253-.252.422 0 .057-.057.084-.113.084-.14 0-.197-.282-.365-.282h-.056v.03-.03h-.084c-.197 0-.14-.224-.31-.308v.084c-.084 0-.168-.281-.28-.365 0 .057.027.142.084.142v.083H7.08c-.085-.056-.113-.168-.113-.28l.056-.114c-.197-.197-.225-.505-.506-.617-.197-.085-.28-.03-.45-.085-.195-.056-.393-.141-.534-.197l.057-.028c-.057-.028-.169-.084-.197-.14-.084-.113-.225-.337-.42-.337-.198 0-.226.196-.422.196-.17 0-.591-.253-.647-.337l-.225.028c-.112-.084-.17-.113-.281-.197-.085-.028-.085-.168-.113-.168-.31-.112-.31.027-.421-.254-.014-.041-.05-.048-.088-.048h-.03l-.029.002a.113.113 0 01-.05-.01c-.056-.027-.197-.253-.197-.337 0-.112.141-.168.141-.31 0-.505-.394-.617-.534-.983-.029-.111-.197-.14-.197-.252l.057-.084-.057-.029c0-.085-.196-.337-.196-.365-.085-.225-.168-.253-.225-.422-.085-.253-.113-.45-.169-.647-.14 0-.14-.026-.253-.084a.788.788 0 00-.084.365c0 .31.253.479.253.788 0 .111.196.308.225.365.01.027.014.055.014.084 0 .062-.016.127-.016.183 0 .057.017.103.087.126a.335.335 0 00-.013.083c0 .04.013.058.013.114.083 0 .196.14.196.225 0 .112-.113.169-.169.197-.056-.085-.027-.197-.056-.253-.085-.113-.366-.225-.366-.366 0-.084.085-.14.085-.223 0-.255-.45-.31-.506-.563.168 0 .225-.084.225-.225 0-.141-.14-.197-.197-.31-.112-.168-.085-.252-.112-.449v-.562c-.16-.107-.345-.288-.58-.307l.007-.022.012-.037.01-.03.008-.027a.796.796 0 01.009-.027l.012-.04.01-.03.008-.025.01-.031.011-.035.01-.03.009-.027.01-.03.01-.034.012-.033.008-.026.01-.026.013-.041a2.614 2.614 0 01.019-.055l.009-.026.015-.043.009-.026a.667.667 0 00.01-.029l.007-.022.017-.047.008-.023.01-.03a.883.883 0 00.026-.07l.007-.02.012-.032.006-.019.02-.052a1.01 1.01 0 00.006-.018l.012-.032.007-.017.025-.07h.001l.013-.035.005-.013c.014-.036.027-.073.042-.109l.003-.009.043-.111a.13.13 0 00.003-.008l.045-.113.003-.006.045-.113.003-.006.046-.113.002-.005.048-.115v-.002l.05-.117v-.001a21.027 21.027 0 014.438-6.558v-.001a9.081 9.081 0 01.175-.173l.01-.01.025-.024.004-.004.048-.046.016-.016.022-.021.032-.03L5.58.78l.022-.02a.77.77 0 01.053-.051l.014-.014.027-.025.014-.013.036-.034c.07-.017.117-.055.182-.075.012.023.059.032.115.032a.86.86 0 00.223-.032c.055 0 .168-.029.168-.029.112 0 .815.168.955.253-.084.084-.14.084-.253.168.157.079.29.085.465.085h.04c.17 0 .283-.085.423-.085.112 0 .168.17.31.17l.055-.17.506-.14c.253 0 .394.168.619.168.168 0 .196-.055.337-.055.112 0 .196.084.224.084.084 0 .141-.057.168-.14l.113-.085h.141c0 .056-.056.112-.056.168v.085h.168c-.014-.042-.021-.064-.021-.088 0-.024.007-.053.02-.109.282 0 .564-.027.564-.253l-.197-.027c-.057 0-.085-.113-.085-.17 0-.113.394-.364.563-.364" id="g"/><path d="M6.325.017c0 .028.253.169.308.169v.112l-.085.085c0 .111.115.168.143.252-.058.028-.197.281-.197.31l.14.084c.079.027.206.2.29.2a.058.058 0 00.018-.003l.002.028c.05-.005.098-.007.146-.007.22 0 .412.05.528.12.168.055.112.252.195.336a.18.18 0 00.104.026l.063-.003c.022-.001.044-.004.067-.004.025 0 .05.003.075.009.197.056.366.253.563.253h.113c0-.112.084-.168.084-.224 0-.057-.084-.113-.084-.197v-.14c.197 0 .253-.226.448-.226.282 0 .197.14.31.253.113.113.337.084.506.113v.028c.057 0 .085 0 .112.028.337 0 .394.168.562.168.281 0 .393-.084.618-.14l.366.084c.004.052.015.09.021.135.003-.057.007-.114.007-.163.046.01.087.015.126.015.176 0 .282-.102.352-.24l.204.637.02.064v-.001l.001.002-.198.478c-.168 0-.252-.252-.252-.365-.134 0-.14-.103-.14-.21v-.015a.107.107 0 01-.086-.036c.066.215.173.346.255.486.083.112.027.197.14.281.083.029.168.281.168.422 0 .084.31.45.366.477l-.084.057c.056.07.062.105.062.136v.032c0 .022.003.047.022.085l-.018.023.074-.051c.054.133.081.14.18.14h.016c0 .057.057.112.085.112.028.142.085.225.085.281 0 .066-.003.128-.003.187 0 .268.037.472.451.657l-.028.027h.057c.029.085.029.393.056.45.028.084.112.17.168.28.011.042.03.053.048.053.01 0 .02-.003.03-.006.01-.003.018-.007.024-.007.008 0 .012.004.012.017 0 .056.083 0 .169.056.082.056.308.366.364.422l.147.171.021-.003.114.31-.136.109.008.045.014-.014.029-.027.112-.057c.085.084.17.168.253.168.17 0 .338-.055.478-.055.056 0 .07-.021.07-.042s-.014-.043-.014-.043c.254 0 .786-.084.955-.281.085.113.141.169.141.281 0 .59-.422 1.013-.562 1.462-.084.337-.253.59-.478.787-.224.253-.619.394-.73.646-.057.14-.197.197-.281.281-.113.112-.197.225-.281.337v.028c-.169.253-.338.422-.507.702-.195 0-.393-.167-.393-.364v.011a.371.371 0 00.355.353h.01l.085.085c-.028.113-.197.224-.197.31 0 .056.113.083.113.167v.507a.076.076 0 00-.008.034c0 .045.035.09.035.134v.169c0 .112.086.197.283.337-.029.057-.62.31-.704.31.085 0 .675-.226.704-.282 0 .075-.025.1-.026.133 0 .017.006.036.026.064 0 .421-.029.534-.029.843 0 .506-.507.899-.928.899-.084.366-.618.394-.618.815 0 .028.112.197.17.225-.028.056-.058.113-.058.17 0 .084.057.167.057.252v.224c0 .085-.282.393-.393.422-.141.029-.366 0-.366.14 0 .084.027.113.085.142l-.058.223-.168.31v.14c-.14.028-.478.563-.507.647-.28.338-.56.365-.757.73-.056.113-.366-.028-.366.17h-.45c-.084 0-.111 0-.196.057-.085-.058-.112-.058-.168-.058-.028.058-.562.142-.62.142-.114 0-.282-.093-.282-.204 0-.026.01-.052.03-.078l-.084-.225c.027-.057.084-.113.084-.169 0-.197-.14-.28-.225-.421a.346.346 0 01-.063-.211l.001-.074c0-.048-.003-.1-.021-.165l-.029-.254c0 .03-.029.113-.029.168-.027-.11-.083-.027-.14-.11-.17-.31-.196-.478-.196-.815 0-.197-.142-.338-.142-.563 0-.14.057-.197.057-.253v-.14a.206.206 0 01-.14-.057c-.17-.168-.45-.73-.45-1.011-.028 0-.084-.028-.084-.084 0-.028.028-.056.028-.112h-.028c0-.197.056-.45.14-.507v-.45c.197-.112.394-.505.394-.758 0-.197-.14-.31-.14-.506 0-.085.055-.14.055-.225 0-.28-.168-.365-.252-.59-.057 0-.113-.057-.113-.112l1.237-.029H7.14v-.055l.028-.17c.113-.055.14-.111.254-.14-.17 0-.17.085-.282.14-.053-.08-.132-.186-.188-.293l-.009.012c-.027-.028-.111-.084-.111-.14-.113-.309-.478-.365-.478-.73 0-.246.24-.256.24-.445a.31.31 0 00-.015-.09c.106.009.193.013.261.013.208 0 .258-.037.258-.107 0-.064-.042-.156-.042-.27l-.45.028c.028-.029.058-.056.058-.112 0-.094-.026-.175-.026-.26a.33.33 0 01.026-.134h-.255c-.025 0-.048-.086-.053-.145l-.002.004-.422-.028c-.009.019-.03.025-.057.025-.052 0-.12-.025-.14-.025-.168 0-.31-.142-.31-.365-.126 0-.126-.142-.272-.142a.51.51 0 00-.205.057l.009-.052c-.078.008-.156.052-.233.052-.057.028-.113.028-.17.056-.252.056-.477.197-.701.31-.043.043-.103.103-.193.103a.232.232 0 01-.088-.019c0-.094.059-.148.078-.197V8.84l-.003.008c-.02.043-.068.088-.074.15l-.001.013c-.142 0-.113-.114-.253-.114-.31 0-.647.142-.843.227l-.029.055v-.224c0 .084-.056.14-.056.224-.004.004-.009.005-.015.005-.099 0-.53-.382-.687-.567-.057-.056-.17-.084-.225-.14.252-.31.252-.281.309-.478a.284.284 0 00.08.022c.018 0 .032-.008.06-.022a.084.084 0 01-.038.012c-.026 0-.043-.02-.102-.04-.113.196-.113.254-.338.506-.337-.197-.28-.281-.393-.59.14-.14.225-.31.422-.31-.197 0-.309.17-.45.31 0-.252-.253-.338-.421-.535-.085-.055-.085-.168-.113-.224-.225-.224-.14-.113-.281-.169l.112-.055c.087-.035.217-.06.37-.06.095 0 .198.01.305.031-.062.145-.157.291-.269.39h.001l.014-.013c.111-.103.212-.25.274-.386l.008-.019H.985a2.034 2.034 0 00-.287-.02c-.143 0-.29.015-.388.048l-.14.056c-.037 0-.05-.016-.05-.04 0-.044.05-.119.05-.156V6.65c.196-.056.31-.084.506-.084-.08 0-.145-.005-.208-.005-.093 0-.18.01-.298.061.028-.085.028-.113.056-.113l-.14-.084c0-.084-.056-.028-.056-.084 0-.113.14-.28.168-.393.084-.17.112-.394.112-.618 0-.309-.056-.45-.056-.732-.084 0-.169-.028-.169-.084 0-.083.057-.14.085-.197.14-.084.112-.196.168-.336.028-.17.17-.14.254-.225.196-.197.112-.703.42-.759 0-.14.058-.197.113-.253.084-.028.197-.055.338-.085.084-.028.056-.111.084-.14.084-.196.393-.196.393-.45 0-.112.012-.298.012-.468 0-.086-.002-.168-.012-.233.197 0 .197-.17.281-.198.14-.056.225-.028.337-.085.169-.084.197-.505.337-.59.079.08.181.085.286.085h.024c.113 0 .366-.028.421-.028.048 0 .075.16.116.16.008 0 .016-.006.025-.02.085-.112.393-.252.45-.28.196-.084.673-.225.927-.225h.533" id="i"/><path d="M.562.038c0 .115.02.188.02.235 0 .088-.074.082-.498.1 0 0-.055-.055-.055-.168C.029.15.084.093.113.038" id="k"/><path d="M1.626.025c.02.15.121.25.218.314a.068.068 0 01-.002.008l-.013.039-.008.022a1.105 1.105 0 01-.011.033L1.8.47l-.01.029a1.65 1.65 0 00-.012.035l-.007.02-.017.05A20.87 20.87 0 01.33 3.776l-.026-.013c-.252 0-.28-.282-.28-.507 0-.084.056-.056.083-.14l-.083-.084c0-.113.036-.138.037-.191a.27.27 0 00-.037-.119c.224 0 .364-.421.364-.561 0-.225-.14-.282-.14-.45l.17-.478c.111 0 .167-.084.307-.084.114 0 .168-.141.282-.169v-.14h.112" id="m"/><path id="o" d="M0 0h25.903v20.681H0z"/></defs><g fill="none" fill-rule="evenodd"><g transform="translate(18)"><mask id="b" fill="#fff"><use xlink:href="#a"/></mask><path d="M41.987 21.015C41.987 32.605 32.592 42 21.002 42 9.413 42 .018 32.605.018 21.015S9.413.031 21.002.031c11.59 0 20.985 9.395 20.985 20.984" fill="#323F6B" mask="url(#b)"/></g><g transform="translate(18)"><mask id="d" fill="#fff"><use xlink:href="#c"/></mask><path d="M1.668 8.574h.084c.085-.056.085-.084.17-.112l-.057-.085c-.085.057-.14.141-.197.197M1.724 8.77V8.8l.056.084c.057 0 .057-.056.085-.084a.5.5 0 01-.113-.086V8.66h-.14c-.025.102.021.11.112.111M1.81 8.967c0 .085.054.113.083.17h.113v-.31c-.113.028-.197.084-.197.14M1.893 8.687h.1v-.14h-.1zM41.602 4.64l-.028-.112c-.169 0-.252.168-.393.168a.641.641 0 00.169.028c.112 0 .168 0 .252-.083M30.895 23.188l-.084.065s.056.035.112.035l-.028-.1" fill="#2CAEB4" mask="url(#d)"/><path d="M19.794 25.604c-.28-.168-.449-.617-.787-.617-.14 0-.224-.029-.337-.029-.168 0-.253-.056-.394-.056-.224 0-.252.056-.308.142-.028-.086 0-.226 0-.226 0-.028-.057-.084-.057-.14-.14 0-.31-.197-.31-.197-.167.056-.308 0-.392-.113h-.112c-.029.085-.282.507-.365.366-.17 0-.366-.03-.366-.17h-.112c-.056.057-.14.057-.198.057l.253-.253c.03-.31.281-.366.366-.506-.085-.056-.112-.084-.112-.167-.225 0-.14-.536-.281-.591-.253-.113-.422-.225-.45-.422-.14 0-.056-.084-.14 0-.057-.057-.282-.113-.366-.113l-.478.029c-.168-.057-.168-.225-.253-.225l-.056.056c-.112-.28-.112-.394-.309-.506-.197-.029-.28-.168-.28-.337l-.085.057c-.141 0-.112-.084-.112-.113-.057 0-.197-.084-.197-.168 0-.028.028-.057.028-.113h-.196c-.086.085-.141.085-.226.085-.028 0-.084.028-.084.084l-.112.057c-.057 0-.113-.03-.113-.086-.084.057-.14 0-.169-.084-.14 0-.225.057-.28 0l-.113.057h-.168c0-.31-.282-.254-.394-.422-.028.056-.056.112-.028.197-.056 0-.141.055-.141.14 0 .169.028.14.028.31 0 .028-.084.223-.056.28l-.084-.084c-.14 0-.14-.112-.14-.224 0-.31.168-.394.196-.591v-.056c-.056-.057-.084-.057-.14-.084-.14.112-.282.253-.393.309h-.141c-.049.096-.124.082-.196.068-.054-.01-.105-.02-.141.016-.169.168-.085.338-.253.562-.043.056-.092.112-.14.169-.254 0-.31-.31-.59-.31-.226 0-.31.197-.563.197a.325.325 0 01-.226-.084.831.831 0 01-.28-.563c0-.393.169-.786.169-.984 0-.084.028-.11.028-.28-.141 0-.45-.027-.759.027-.253 0-.477.113-.506.085.084-.085.253-.393.169-.533v-.17c.028-.083.112-.112.168-.224 0-.478.225-.534.31-.59a.301.301 0 01-.057-.169h-.14c-.197 0-.703.028-.787.197-.113.224-.029.42-.253.618-.014.015-.084.008-.162 0a.64.64 0 00-.203 0c-.057 0-.31.14-.366.14-.225 0-.561-.448-.618-.645-.028-.085-.028-.423-.028-.479 0-.168-.084-.786.253-.814-.029-.113 0-.17 0-.28l-.029.055c.113-.141 0-.338.084-.422.227-.225.76-.618 1.097-.618.084 0 .14.112.225.112l.14-.084.169.197c.084 0 .254-.084.393-.084-.028-.113-.168-.141-.168-.254 0-.139.365-.084.477-.084.113 0 .14.084.282.084.224 0 .337.057.477.057h.17c.167 0 .252.197.252.308v.339c0 .084.056.224.14.224v.141c-.028.169.113.112.113.337h.168c.085-.113.113-.394.141-.591l-.056-.28c.056-.14 0-.254 0-.337v-.31c0-.365.224-.45.506-.59.084-.028.393-.393.505-.45.395-.112.395-.337.647-.617l-.057-.114c-.028 0-.14-.027-.167-.083.083-.028.14 0 .28-.028v-.142c-.085 0-.169-.111-.169-.196h.113c0-.112.056-.196.168-.253-.028.196-.028.338-.028.534.084-.112.169-.196.169-.31 0-.111-.028-.167 0-.337h.056c0 .029.028.113.084.113v.084c.085-.11.253-.168.253-.365v-.14c.169-.085.478-.197.73-.197.17 0 .31.028.282-.169l-.112.085-.028-.085c.112-.055.14-.366.336-.421.31-.084.535-.226.844-.338.056-.027.112-.027.14-.055.056 0 .197-.17.31-.17.112 0 .14.114.28.14-.14.114-.758.03-.758.394 0 .029.056.057.112.057.028-.057.168-.028.31-.085.196-.112.308-.225.505-.336a.245.245 0 01.141-.019c.054.005.107.009.168-.037v-.113c-.253.056-.703.028-.703-.281 0-.113.113-.14.17-.225-.085-.028-.141 0-.198 0l-.28-.112c0-.03.055-.056.14-.056.112 0 .225.056.337.056.085 0 .17-.085.17-.226 0-.083-.142-.14-.226-.14-.45 0-.843.421-1.237.59-.084.057-.055.197-.252.197.057-.224.449-.506.674-.59.365-.113.45-.478.927-.478h.619l.477.084c.142 0 .142-.057.226-.141h.027c0-.225.365-.14.535-.309.112.084.252.029.337-.112a.347.347 0 01-.085-.112c.17-.028.17-.028.17-.197v-.141c-.17.056-.114 0-.338 0-.084 0-.254.056-.281.056-.084 0-.113.029-.197.029-.14-.029.478-.113.562-.31-.28-.083-.506-.168-.674-.421.055-.028.14-.028.168-.169-.056-.027-.084-.056-.084-.112v-.14c-.056 0-.084 0-.113-.029.029-.055.057-.084.057-.196h-.113c0-.113.029-.197-.028-.339-.14.114-.73.648-.9.535-.056.028-.14.113-.224.113.028-.113.168-.14.168-.309h-.14c.113-.056.113-.339.281-.478l-.028-.057c-.113 0-.253.029-.309-.027 0 0-.028-.197-.084-.197-.113-.028-.197.028-.197-.113l-.731-.027c-.084.168-.478.364-.337.56 0 0-.422.395-.422.48 0 .111.225.111.225.309 0 .364-.646.645-.956.645 0 .507-.252.76-.505 1.012-.029-.027-.084-.083-.084-.14-.113 0-.225-.225-.225-.28 0-.142.084-.282.168-.423l-.084-.056c.084-.056.112-.084.14-.169l-.196-.055c-.028 0-.394.224-.394 0-.28-.085-.392-.393-.674-.534l-.309.112c-.056 0-.113-.028-.113-.085l.057-.083c-.028-.029 0-.198 0-.31h-.169c0-.31.478-.702.73-.73v-.113c.114 0 .17-.113.31-.14.14-.057.28-.029.393-.197-.084-.084-.225-.084-.338-.141h.085l.337.084c.282 0 .675-.252.928-.31v-.112c-.196 0-.478.057-.506-.14h.17a.782.782 0 00.336.112c.225 0 .28-.168.45-.252.056 0 .112.112.196.112.057 0 .085-.056.198-.084-.029-.028 0-.055.027-.112.028.057.112.112.169.112.253 0 .365-.196.45-.421.027-.084.196-.113.196-.197V5.54c-.112 0-.197-.056-.28-.056-.17 0-.366.056-.366.253-.252 0-.394.197-.562.338h-.197c.057-.17.169-.17.225-.338 0 0-.197 0-.225-.056-.056.028-.056.056-.169.084v.057h-.112c0-.057.028-.113.084-.197h-.169c.028-.085.197-.057.197-.14 0-.142-.112-.198-.112-.394h-.14c-.17 0-.563.252-.563.365 0 .056.028.169.085.169l.197.027c0 .226-.282.254-.563.254-.028.112-.028.112 0 .196h-.168v-.084c0-.056.056-.112.056-.17h-.14l-.114.086c-.026.084-.084.14-.168.14-.028 0-.111-.084-.224-.084-.14 0-.169.056-.337.056-.225 0-.366-.168-.619-.168l-.506.14-.056.169c-.14 0-.197-.17-.309-.17-.14 0-.254.085-.422.085-.196 0-.337 0-.506-.084.113-.084.17-.084.253-.17-.14-.083-.843-.252-.955-.252 0 0-.112.029-.168.029-.085.027-.31.056-.337 0-.085.027-.142.084-.254.084-.112 0-.197-.141-.168-.225-.141.028-.225.14-.394.112H5.35l-.815.226c-.197 0-.31-.226-.506-.226-.084 0-.112.029-.169 0-.056 0-.14-.028-.225-.056l-.337.085c-.421 0-.927-.253-1.32-.253h-.366c.028-.057-.112-.029-.28-.029-.17 0-.17.056-.338.056-.618 0-.984.226-1.546.366-.168.113-.309.197-.45.31.085.14.366.112.422.336-.021.011-.054.01-.09.008-.06-.002-.128-.004-.163.048h-.702c-.14.112-.394.282-.45.338.056-.056.225.056.337.056.084 0 .169-.084.225-.112h.14c-.084.422-.618.168-.899.477l-.14-.14c-.113.085-.225.17-.366.281-.252.197-.478.394-.674.562v.028c.225.056.366-.084.59-.142-.056.142-.422.34-.422.45 0 .057.393.085.422.085.084 0 .169-.111.252-.169.029.058.085.085.17.141-.282.17-.563.394-.9.506-.112.028-.393.028-.505.14-.085.085 0 .028-.029.141l.085.03c.253-.114.393-.086.703-.255.308-.112.364-.168.73-.309.112-.027.224-.197.394-.253.055 0 .252.056.337-.027.056-.085.028-.225.196-.254.253-.084.45-.196.703-.365h.281c-.059.162-.15.162-.258.161-.099 0-.212 0-.332.12l-.084.224c.196 0 .815-.168.955-.336.056-.057.056-.197.225-.197.14 0 .112.113.196.197l.169.028c.31.112.646.168 1.012.252 0 .197.084.14.14.338l.112-.224c.03.083.225.083.31.056 0 .055-.028.505.029.533 0 .084-.057.337.027.365h-.027l.025.001c-.057.056-.222.084-.139.14-.056.112-.14.084-.168.225l.084.056-.028.057h.112c-.028.084 0 .14 0 .197 0 .056.141.056.197.056-.056.083-.309.14-.309.28 0 .085.226.225.365.253 0 .028.056.084.113.084l.084.113c.029.112.085 0 .029.168 0 0-.057.507-.282.563 0-.084.084-.225.084-.337 0 0-.224-.028-.309-.028a1.103 1.103 0 00-.056.365c-.197.14-.169.422-.337.563-.31.337-.45.786-.759 1.15-.056.17-.056.254-.056.45 0 .029.028.17.028.226.028-.056.084-.085.113-.113.028.085-.085.14-.085.14.056.226.113.62.113.843 0 0-.028.085-.028.17.252 0 .45.196.618.308v.563c.028.196 0 .28.112.45.056.112.197.168.197.309 0 .14-.057.225-.225.225.056.252.507.308.507.562 0 .084-.085.14-.085.223 0 .142.28.253.365.367.028.056 0 .168.056.252.056-.028.169-.084.169-.196 0-.085-.113-.225-.197-.225 0-.084-.028-.084 0-.198-.169-.055-.028-.252-.084-.392-.029-.057-.224-.254-.224-.365 0-.31-.254-.479-.254-.788 0-.14.028-.253.084-.366.113.058.113.085.253.085.056.197.084.393.169.646.056.17.14.197.225.423 0 .027.196.28.196.365l.057.028-.057.084c0 .112.169.141.197.252.14.366.534.479.534.984 0 .141-.141.197-.141.31 0 .084.141.31.197.337.021.01.05.01.08.008.049-.002.1-.004.117.048.112.28.112.141.421.253.029 0 .029.14.113.168.112.084.169.113.281.197l.225-.028c.056.085.477.337.646.337.197 0 .225-.196.422-.196.196 0 .337.224.421.337.029.056.14.113.197.14l-.056.028c.14.057.337.141.534.198.168.055.253 0 .45.084.28.112.308.421.505.618l-.056.113c0 .113.028.224.112.28h.113v-.083c-.057 0-.084-.084-.084-.141.112.083.196.365.28.365v-.084c.17.084.113.308.31.308h.084v.028-.028h.056c.168 0 .225.281.365.281.056 0 .113-.027.113-.084 0-.169.056-.365.253-.421.084.14.168.14.31.224-.057.057-.114.086-.114.197l.17.17v-.002c0 .062.006.23.055.253-.028.17 0 .479 0 .563 0 .113-.168.422-.337.422-.028.056-.056.14-.084.196l.021.014c-.026.08-.055.154-.133.154-.141.226-.422.563-.422.788 0 .113.084.17.196.17.057 0 .141-.086.141-.03a.553.553 0 01-.056.253c0 .028.056.084.056.14 0-.056-.056-.112-.084-.14-.113.113-.225.113-.225.338 0 .084 0 .196.028.253l-.085.111c.057.17.197.17.31.254.112.056.168.169.197.281.027.14.084.14.14.225.112.252.17.393.309.617.113.14.084.198.141.339.028.14.225.169.253.251.084.17-.085.338.056.423.196.14.394.365.478.393 0 .083.505.309.59.309.224.085.224.365.449.365 0 .45.197.703.197 1.068 0 .14-.085.197-.085.309 0 .31.113.478.113.787 0 .253-.028.225-.028.423 0 .054-.028.167 0 .195-.028.057-.056.113-.056.198 0 .14.084.14.084.224v.281s.028.337.085.337c.056.142.027.168.027.338 0 .308-.055.506-.055.815 0 .14-.113.169-.113.28 0 .226.28.535.28.647 0 .112-.055.168-.055.28 0 .282.14.31.393.31.028.225.056.365.056.534 0 .056.085.28.085.338 0 .14.028.168.056.28-.169.084-.366.056-.393.225.112 0 .365.029.393.084l.046.115c-.042.005-.051.026-.102.026l-.028.027c.028.057.112.113.168.113 0-.022-.014-.087-.022-.131.022.032.05.047.107.047 0 .31.14.73.365.76 0 .252.281.196.31.337l-.085.028c.028.084.169.168.365.168.112.084.112.282.169.168.056-.224.112-.224.253-.252-.029-.057-.057-.084-.029-.112l-.03-.01c-.007-.16-.054-.33-.054-.356 0-.057.113-.169.17-.169l-.057-.253h-.029v-.084c.141-.057.17-.085.253-.141v-.336c-.28 0-.534-.113-.534-.338 0-.14.253-.196.337-.196 0-.14.057-.253.057-.366 0-.281-.253-.59-.253-.731v-.056c.169 0 .366.14.506.14.112 0 .112-.168.112-.252 0 0-.056-.112-.056-.168 0-.056-.056-.085-.056-.114 0-.168.253-.168.337-.168.619.056.815-.197.815-.59 0-.084-.113-.113-.14-.141a.237.237 0 010-.197c-.113 0-.422-.196-.394-.336l.028-.59v.563l.281.084c.056.195.309.195.479.139.252-.056.28-.113.336-.337.029-.084.113-.057.14-.113.029-.056 0 .029.029-.112l.014-.012.014.012c.085-.197.168-.337.28-.479.057-.195.113-.252.17-.476.056-.169.28-.197.28-.394s-.14-.421-.14-.534c0-.281.562-.702.815-.702.085 0 .14-.197.309-.197.14-.056.197-.029.281-.029.253 0 .225-.055.281-.252l.112-.253c.141-.197.226-.365.226-.703 0-.168.14-.196.14-.365v-.394c0-.112-.085-.45-.085-.618 0-.14.225-.224.31-.253 0-.674.674-.562.674-1.32 0-.197-.112-.534-.14-.647-.068-.153-.157-.131-.236-.109-.05.015-.096.03-.13-.004" fill="#2CAEB4" mask="url(#d)"/><path d="M1.64 10.344c0 .253.366.534.534.534.056 0 .084-.027.14-.027-.056-.085-.14-.14-.14-.254-.055 0-.253-.14-.253-.224-.056 0-.112.027-.14-.029H1.64M1.303 9.417v.281c0 .085.056.254.112.338l.056-.056.141-.422v-.084c-.112 0-.14-.029-.169-.057h-.14M36.263 15.544c0 .049-.005.106-.007.163-.007-.046-.017-.083-.021-.135l-.366-.084c-.225.056-.338.14-.618.14-.169 0-.226-.168-.562-.168-.028-.028-.056-.028-.113-.028v-.028c-.168-.029-.393 0-.506-.113-.112-.113-.027-.253-.31-.253-.195 0-.25.225-.448.225v.141c0 .084.084.14.084.197 0 .055-.084.112-.084.224H33.2c-.197 0-.366-.198-.563-.253a.447.447 0 00-.142-.005c-.061.005-.119.01-.168-.023-.082-.084-.027-.28-.195-.337-.14-.083-.393-.14-.673-.112l-.002-.029c-.083.03-.224-.167-.31-.196l-.139-.085c0-.028.14-.28.197-.31-.028-.084-.142-.14-.142-.252l.085-.085v-.111c-.056 0-.31-.141-.31-.17-.195.114-.42.17-.646.17h-.533c-.254 0-.731.14-.928.224-.056.029-.365.17-.45.28-.055.087-.084-.14-.14-.14-.056 0-.31.03-.422.03-.113 0-.224 0-.31-.085-.14.084-.168.505-.336.59-.112.056-.197.028-.338.084-.083.028-.083.197-.28.197.027.197 0 .534 0 .702 0 .253-.31.253-.394.45-.027.028 0 .112-.084.14a2.882 2.882 0 00-.337.085c-.056.056-.113.112-.113.253-.308.056-.225.562-.421.759-.085.084-.225.056-.253.225-.057.14-.028.252-.169.336-.028.057-.084.113-.084.197 0 .056.084.084.168.084 0 .282.057.423.057.731 0 .224-.029.45-.112.619-.029.113-.17.28-.17.393 0 .056.057 0 .057.084l.14.084c-.027 0-.027.028-.056.113.197-.085.31-.056.506-.056-.196 0-.309.028-.506.084v.085c0 .056-.112.196 0 .196l.14-.056c.17-.057.478-.057.675-.028h.028a1.227 1.227 0 01-.296.418c.112-.1.206-.244.268-.39-.28-.057-.533-.028-.674.028l-.112.056c.14.056.055-.056.28.169.028.056.028.169.113.224.169.197.421.283.421.534.142-.14.253-.308.45-.308-.197 0-.28.168-.421.308.113.31.055.394.393.591.225-.252.225-.31.338-.507.083.029.083.057.14.029-.057.028-.057.028-.14 0-.057.196-.057.168-.31.478.057.056.168.084.225.14.168.197.646.618.702.562 0-.084.057-.14.057-.224v.224l.028-.056c.197-.084.533-.226.843-.226.14 0 .112.114.253.114 0-.085.084-.14.084-.197 0 .057-.084.112-.084.225.14.056.225-.028.281-.084.225-.113.45-.254.702-.31.057-.028.112-.028.17-.056.077 0 .155-.044.233-.052l-.01.052c.366-.168.31.085.478.085 0 .223.14.365.31.365.028 0 .169.056.197 0l.42.028.003-.005c.006.06.03.146.054.146h.254c-.058.14 0 .253 0 .394 0 .056-.03.083-.058.112l.45-.029c0 .28.253.422-.477.366.085.28-.225.253-.225.534 0 .365.366.421.478.73 0 .055.084.112.112.14l.008-.012c.057.107.136.214.189.294.112-.056.112-.141.281-.141-.113.028-.14.085-.254.14l-.027.17v.055h1.208l-1.237.029c0 .055.056.111.113.111.084.227.253.31.253.59 0 .086-.056.141-.056.226 0 .196.14.309.14.506 0 .253-.197.646-.394.758v.45c-.084.057-.14.31-.14.507h.028c0 .055-.027.084-.027.112 0 .055.055.084.083.084 0 .28.28.843.45 1.01.028.03.084.058.14.058v.14c0 .056-.056.113-.056.253 0 .225.141.366.141.563 0 .336.027.505.196.814.057.084.113 0 .141.111 0-.055.029-.139.029-.168l.028.254c.056.197-.028.281.084.45.084.14.225.224.225.421 0 .056-.058.112-.085.169l.085.224c-.112.141.112.282.252.282.057 0 .591-.083.62-.14.055 0 .083 0 .168.057.084-.058.112-.058.196-.058h.45c0-.196.31-.056.365-.169.197-.365.477-.392.758-.73.028-.084.366-.619.507-.647v-.14l.168-.31.057-.223c-.057-.029-.085-.058-.085-.141 0-.141.225-.112.366-.141.112-.029.394-.337.394-.422v-.224c0-.085-.057-.169-.057-.253 0-.056.029-.113.057-.169a.584.584 0 01-.17-.225c0-.422.535-.45.619-.815.42 0 .927-.393.927-.9 0-.308.03-.421.03-.842-.058-.085 0-.085 0-.197-.03.056-.62.281-.704.281.084 0 .674-.252.703-.31-.197-.14-.282-.224-.282-.336v-.17c0-.055-.056-.111-.028-.167v-.507c0-.084-.112-.111-.112-.168 0-.085.169-.197.196-.309l-.084-.085a.37.37 0 01-.365-.364c0 .197.197.364.393.364.169-.28.338-.449.506-.702v-.028c.085-.113.169-.225.281-.337.084-.084.225-.14.281-.28.112-.253.506-.394.73-.647.225-.197.394-.45.478-.787.14-.45.563-.872.563-1.462 0-.112-.056-.168-.142-.281-.168.197-.7.281-.954.281 0 0 .055.085-.056.085-.14 0-.31.055-.479.055-.083 0-.168-.084-.253-.168l-.112.057-.028.028v-.001l-.014.013-.008-.045.136-.108-.114-.31-.022.004-.146-.172c-.056-.056-.282-.366-.365-.422-.086-.056-.169 0-.169-.056 0-.024-.016-.017-.035-.01-.027.009-.062.018-.078-.047-.056-.11-.14-.196-.169-.28-.027-.057-.027-.365-.056-.45h-.057l.029-.027c-.505-.226-.45-.478-.45-.844 0-.056-.055-.14-.084-.28-.027 0-.085-.057-.085-.113-.11 0-.139 0-.196-.14l-.073.05.018-.023c-.057-.112.027-.112-.085-.252l.085-.057c-.057-.027-.366-.393-.366-.477 0-.14-.085-.394-.169-.422-.112-.084-.056-.169-.14-.282-.081-.14-.189-.27-.255-.485a.107.107 0 00.086.036c0 .113 0 .225.14.225 0 .113.084.366.253.366l.198-.478-.226-.703c-.084.169-.224.282-.477.225M37.555 5.596c-.111 0-.084-.169-.196-.113l-.225.168c.197.085.421.057.421-.055M37.837 5.061c.055 0 .168 0 .168.03 0 .11.056.14.197.14.112 0 .28.027.45-.03-.17-.056-.563-.28-.563-.42 0-.084.084-.057.17-.17-.057-.028.027-.055.027-.112l-.056-.055.056-.085c.253.14.365-.168.675-.168.224 0 .618-.198.76-.31l-.057-.056h-.338c-.113.14-.338.03-.533.113h-.142c-.196.055-.562.253-.73.253l.084.14c-.085.057-.113.084-.281.14.14.085.253.14.478.14h-.562c.084.113-.085.113 0 .197-.028.056-.056.085-.14.141.112.084.167.168.337.196v-.084" fill="#2CAEB4" mask="url(#d)"/><path d="M31.008 23.722a.25.25 0 00.055.169c.647-.028.479 0 .479-.337h-.45c-.03.056-.084.112-.084.168M40.675 27.404c-.085.197-.225.814-.507.814h-.11v.141c-.115.028-.17.169-.283.169-.14 0-.196.084-.308.084l-.17.478c0 .168.14.225.14.45 0 .14-.14.561-.364.561.084.17 0 .14 0 .31l.084.084c-.028.084-.084.056-.084.14 0 .225.029.507.28.507l.114.056c.421 0 .59-.282.59-.787.168 0 .365-.59.365-.76 0-.28.253-.506.253-.786.056 0 .111-.141.111-.169 0-.168.198-.252.198-.42 0-.227-.113-.367 0-.508-.113-.056-.282-.167-.31-.364" fill="#2CAEB4" mask="url(#d)"/></g><g transform="translate(48.806 23.17)"><mask id="f" fill="#fff"><use xlink:href="#e"/></mask><path d="M.005.084s.056.034.112.034l-.028-.1-.084.066" mask="url(#f)"/></g><g transform="translate(18.911 5.076)"><mask id="h" fill="#fff"><use xlink:href="#g"/></mask><path d="M11.493.014c-.17 0-.563.251-.563.364 0 .057.028.17.085.17l.197.027c0 .226-.282.253-.563.253-.014.056-.021.085-.021.109 0 .024.007.046.02.088h-.167V.94c0-.056.056-.112.056-.168h-.141l-.113.084c-.027.084-.084.141-.168.141-.028 0-.112-.084-.224-.084-.141 0-.169.055-.337.055-.225 0-.366-.167-.62-.167L8.43.94l-.056.168c-.14 0-.197-.169-.31-.169-.14 0-.253.085-.421.085-.196 0-.337 0-.506-.085.113-.084.17-.084.253-.168-.14-.085-.843-.253-.955-.253 0 0-.113.029-.168.029a.86.86 0 01-.223.032c-.056 0-.103-.01-.115-.032-.065.02-.113.058-.182.075L5.71.657 5.696.67l-.027.025-.014.014a3.753 3.753 0 00-.053.05L5.58.78l-.017.017-.032.031-.022.021-.016.016-.048.046-.004.004-.025.024-.01.01a9.11 9.11 0 00-.174.173H5.23A21.027 21.027 0 00.744 7.8L.743 7.8l-.048.115-.002.005-.046.113-.003.006-.045.113-.003.006-.045.113a.13.13 0 01-.003.008l-.043.111-.003.009c-.015.036-.028.073-.042.11l-.005.012-.013.035c-.01.024-.018.047-.026.07l-.007.017-.012.032a1.01 1.01 0 01-.006.018l-.02.052-.006.02-.012.03-.007.02a2.099 2.099 0 00-.026.072l-.01.03-.008.022c-.006.016-.01.031-.017.047l-.007.022a.667.667 0 01-.01.029l-.01.026-.014.043-.009.026a.617.617 0 00-.019.055l-.014.04-.009.027a1.657 1.657 0 01-.008.026l-.011.033-.012.034-.01.03-.008.026-.01.03-.012.036-.01.031-.008.026-.009.03-.012.039a.796.796 0 00-.009.027l-.009.027-.01.03-.01.037-.008.022c.235.019.42.2.58.307v.562c.027.197 0 .281.112.45.056.112.197.168.197.31 0 .14-.057.224-.225.224.056.253.506.308.506.563 0 .084-.085.139-.085.223 0 .141.281.253.366.366.029.056 0 .168.056.253.056-.028.17-.085.17-.197 0-.085-.114-.225-.197-.225 0-.056-.013-.074-.013-.114 0-.02.003-.045.013-.083-.07-.023-.087-.07-.087-.126 0-.056.016-.121.016-.183a.221.221 0 00-.014-.084c-.029-.057-.225-.254-.225-.365 0-.309-.253-.478-.253-.788 0-.14.028-.252.084-.365.112.058.112.084.253.084.056.197.084.394.169.647.057.17.14.197.225.422 0 .028.196.28.196.365l.057.029-.057.084c0 .111.168.14.197.252.14.366.534.478.534.984 0 .14-.14.197-.14.31 0 .083.14.309.196.337a.113.113 0 00.05.009l.03-.002h.029c.038 0 .074.007.088.048.112.281.112.142.421.254.028 0 .028.14.113.168.112.084.169.113.28.197l.226-.028c.056.084.477.337.647.337.196 0 .224-.196.421-.196.196 0 .337.224.42.337.03.056.14.112.198.14l-.057.028c.14.056.339.141.534.197.17.056.253 0 .45.085.281.112.31.42.506.617l-.056.113c0 .113.028.225.113.281h.112v-.083c-.057 0-.085-.085-.085-.142.113.084.197.365.281.365v-.084c.17.084.113.308.31.308h.084v.03-.03h.056c.168 0 .225.282.365.282.056 0 .113-.027.113-.084 0-.169.056-.366.252-.422.085.141.17.141.31.224-.056.058-.113.086-.113.198l.169.169v-.001c.001.062.007.229.056.252-.01.058-.012.13-.012.206 0 .147.012.302.012.357 0 .113-.168.423-.337.423-.028.055-.056.14-.085.195l.022.015c-.026.08-.054.154-.133.154-.141.225-.422.562-.422.787 0 .113.084.17.196.17.043 0 .101-.048.128-.048.008 0 .013.005.013.018a.552.552 0 01-.056.253c0 .029.054.083.056.138-.002-.055-.057-.11-.084-.138-.113.113-.225.113-.225.338 0 .084 0 .197.028.253l-.085.112c.057.17.197.17.31.254.112.056.168.169.197.28.028.14.084.14.14.226.112.252.169.393.309.617.113.14.084.197.141.339.028.14.225.168.252.25a.241.241 0 01.025.11c0 .077-.027.149-.027.209 0 .041.014.077.059.104.196.14.394.365.478.393 0 .084.505.31.59.31.224.084.224.365.449.365 0 .45.197.702.197 1.067 0 .14-.085.197-.085.31 0 .31.113.477.113.787 0 .253-.028.225-.028.422 0 .036-.012.099-.012.144 0 .023.003.042.012.052-.028.056-.056.113-.056.198 0 .14.084.14.084.224v.28s.028.338.085.338a.39.39 0 01.034.156c0 .046-.007.095-.007.181 0 .309-.055.506-.055.816 0 .14-.113.168-.113.28 0 .225.28.535.28.647 0 .112-.055.168-.055.28 0 .282.14.31.393.31.028.224.056.364.056.534 0 .055.084.28.084.337 0 .14.03.168.056.28-.168.085-.365.057-.392.226.112 0 .365.028.392.084.02.05.033.085.047.115-.043.004-.051.026-.103.026l-.027.027c.027.057.112.113.168.113 0-.022-.015-.087-.022-.132.022.033.05.048.106.048 0 .309.141.73.366.759 0 .252.28.196.309.337l-.084.029c.028.083.169.168.365.168.088.065.107.202.139.202.008 0 .018-.01.03-.034.055-.225.112-.225.253-.253-.02-.04-.04-.065-.04-.086 0-.01.003-.017.011-.026l-.03-.01c-.008-.158-.054-.329-.054-.356 0-.056.113-.168.169-.168l-.056-.253h-.029v-.084c.14-.057.17-.085.253-.141v-.337c-.281 0-.534-.113-.534-.338 0-.14.253-.196.337-.196 0-.14.057-.252.057-.366 0-.28-.253-.59-.253-.73v-.057c.169 0 .365.14.506.14.112 0 .112-.168.112-.252 0 0-.056-.112-.056-.168 0-.056-.056-.085-.056-.113 0-.169.252-.169.337-.169.058.005.112.008.162.008.491 0 .653-.241.653-.597 0-.084-.112-.113-.14-.142a.216.216 0 01-.022-.097c0-.035.007-.07.022-.1-.108 0-.396-.18-.396-.318 0-.006 0-.012.002-.018l.028-.59v.563l.28.084c.038.128.158.172.283.172a.64.64 0 00.196-.032c.253-.057.281-.113.337-.337.029-.085.113-.058.14-.113.014-.028.014-.021.014-.025s0-.018.014-.087l.015-.013.014.013c.084-.197.169-.338.28-.48.057-.195.113-.252.17-.475.056-.17.28-.198.28-.394 0-.197-.14-.422-.14-.534 0-.282.561-.703.815-.703.084 0 .14-.196.309-.196a.414.414 0 01.162-.036c.042 0 .077.007.12.007.252 0 .224-.055.28-.252l.112-.254c.141-.196.226-.365.226-.702 0-.169.14-.197.14-.366v-.393c0-.112-.085-.45-.085-.618 0-.14.225-.225.31-.253 0-.674.674-.562.674-1.32 0-.197-.112-.535-.14-.647-.044-.099-.097-.125-.15-.125a.313.313 0 00-.086.016c-.028.008-.054.016-.078.016a.07.07 0 01-.052-.02c-.28-.168-.449-.618-.787-.618-.14 0-.224-.028-.337-.028-.168 0-.253-.057-.394-.057-.224 0-.253.057-.308.142a.328.328 0 01-.013-.097c0-.067.013-.128.013-.128 0-.028-.057-.084-.057-.14-.14 0-.31-.198-.31-.198a.398.398 0 01-.128.022.323.323 0 01-.264-.134h-.112c-.025.072-.215.394-.321.394-.018 0-.033-.008-.045-.028-.168 0-.365-.03-.365-.17h-.112c-.057.056-.14.056-.198.056l.253-.252c.03-.31.281-.366.366-.506-.085-.057-.112-.084-.112-.168-.225 0-.14-.535-.281-.59-.253-.114-.422-.225-.45-.422-.094 0-.088-.038-.098-.038-.005 0-.015.01-.043.038-.056-.058-.28-.113-.365-.113l-.478.028c-.168-.056-.168-.224-.253-.224l-.056.056c-.112-.281-.112-.394-.309-.506-.197-.03-.281-.169-.281-.337l-.084.056c-.1 0-.115-.042-.115-.077 0-.014.003-.027.003-.036-.057 0-.198-.084-.198-.168 0-.027.029-.057.029-.113h-.197c-.085.086-.14.086-.225.086-.028 0-.084.027-.084.083l-.112.057c-.057 0-.113-.029-.113-.085a.117.117 0 01-.064.022c-.05 0-.084-.046-.105-.107-.093 0-.162.025-.214.025a.085.085 0 01-.066-.025l-.113.057h-.168c0-.31-.282-.254-.394-.421a.282.282 0 00-.04.128.22.22 0 00.012.068c-.056 0-.141.056-.141.14 0 .17.028.141.028.31 0 .025-.062.172-.062.25 0 .012.002.023.006.03l-.084-.084c-.141 0-.141-.112-.141-.223 0-.31.17-.395.196-.591v-.057c-.055-.057-.084-.057-.14-.084-.14.113-.28.253-.392.31h-.142c-.03.062-.073.078-.12.078a.404.404 0 01-.075-.01c-.025-.005-.05-.01-.073-.01a.091.091 0 00-.068.025c-.17.169-.085.339-.253.562a3.546 3.546 0 01-.141.169c-.253 0-.31-.309-.59-.309-.225 0-.31.196-.562.196a.327.327 0 01-.226-.084.832.832 0 01-.28-.562c0-.394.169-.787.169-.984 0-.084.028-.111.028-.28-.071 0-.184-.007-.32-.007-.132 0-.286.007-.44.034-.224 0-.427.089-.489.089-.007 0-.013-.001-.016-.004.068-.069.19-.281.192-.435a.188.188 0 00-.024-.099v-.169c.029-.083.113-.112.17-.225 0-.477.224-.533.308-.59a.303.303 0 01-.056-.168h-.14c-.197 0-.703.027-.788.197-.111.224-.028.42-.251.618-.007.006-.023.008-.045.008-.031 0-.073-.004-.118-.008a1.454 1.454 0 00-.131-.008.239.239 0 00-.072.008c-.057 0-.31.14-.366.14-.225 0-.562-.448-.618-.645-.028-.085-.028-.423-.028-.48 0-.055-.01-.16-.01-.277 0-.236.038-.518.263-.537a.39.39 0 01-.013-.097c0-.056.012-.105.013-.175a.32.32 0 00.025-.137c0-.042-.004-.084-.004-.12 0-.048.006-.089.034-.117.226-.225.76-.619 1.097-.619.084 0 .14.113.224.113l.142-.084.168.197c.084 0 .253-.085.393-.085-.028-.112-.168-.14-.168-.253 0-.078.114-.095.235-.095.094 0 .193.01.242.01.113 0 .14.085.282.085.224 0 .337.057.477.057h.169c.168 0 .253.196.253.308v.338c0 .085.056.225.14.225v.14a.235.235 0 00-.003.043c0 .118.115.09.115.294h.17c.084-.113.112-.394.14-.59l-.056-.28a.362.362 0 00.025-.133c0-.08-.025-.15-.025-.205v-.31c0-.364.224-.449.506-.59.084-.027.393-.392.505-.45.394-.112.394-.336.647-.617l-.057-.113c-.028 0-.14-.028-.168-.084.084-.028.14 0 .281-.028v-.14c-.085 0-.169-.113-.169-.198h.113c0-.112.056-.196.168-.253a3.438 3.438 0 00-.028.525v.01c.084-.113.169-.197.169-.31 0-.074-.013-.124-.013-.198 0-.038.003-.082.013-.14h.056c0 .03.028.113.084.113v.085c.085-.111.253-.168.253-.365v-.14c.169-.085.478-.198.73-.198l.107.002c.104 0 .179-.014.178-.125a.308.308 0 00-.003-.045l-.113.085-.027-.085c.112-.056.14-.366.336-.422.31-.084.535-.225.844-.338.056-.027.112-.027.14-.055.056 0 .197-.168.309-.168.113 0 .141.113.281.14-.14.113-.758.028-.758.393 0 .028.055.056.112.056.028-.056.168-.028.31-.084.196-.112.308-.225.505-.337a.205.205 0 01.094-.02c.016 0 .031 0 .047.002l.047.002a.188.188 0 00.12-.04v-.112a1.084 1.084 0 01-.221.022c-.232 0-.48-.074-.48-.304 0-.113.112-.14.168-.224a.234.234 0 00-.075-.013c-.046 0-.084.013-.122.013l-.28-.113c0-.029.055-.056.14-.056.112 0 .225.056.337.056.085 0 .17-.084.17-.225 0-.084-.142-.14-.226-.14-.45 0-.843.421-1.237.59-.084.056-.055.197-.252.197.056-.225.449-.506.674-.59.365-.113.45-.478.927-.478h.619l.477.084c.141 0 .141-.057.225-.141h.029c0-.225.364-.14.534-.31.036.028.074.04.113.04.083 0 .166-.056.224-.152a.35.35 0 01-.085-.112c.169-.028.169-.028.169-.196v-.142a.368.368 0 01-.113.026c-.05 0-.074-.026-.224-.026-.084 0-.254.057-.281.057-.084 0-.113.028-.197.028-.014-.002-.021-.006-.02-.01 0-.036.506-.123.581-.299-.28-.083-.505-.169-.673-.422.055-.027.14-.027.168-.168-.056-.027-.084-.056-.084-.112v-.14c-.056 0-.084 0-.112-.029.028-.056.056-.085.056-.196h-.113c0-.057.007-.106.007-.159a.46.46 0 00-.035-.18c-.127.103-.624.55-.841.55a.103.103 0 01-.058-.015c-.057.028-.141.112-.225.112.028-.112.168-.14.168-.308h-.14c.113-.057.113-.339.281-.479l-.028-.057c-.057 0-.122.008-.179.008-.055 0-.102-.007-.13-.034 0 0-.029-.198-.084-.198-.113-.027-.197.029-.197-.113l-.731-.026c-.072.143-.368.306-.368.472 0 .03.01.059.03.088 0 0-.42.394-.42.479 0 .112.224.112.224.31 0 .363-.646.645-.956.645 0 .506-.252.759-.505 1.012-.029-.028-.084-.084-.084-.14-.113 0-.225-.226-.225-.281 0-.142.084-.281.168-.423l-.084-.055c.084-.057.112-.084.14-.17l-.196-.054c-.02 0-.188.099-.298.099-.055 0-.096-.025-.096-.1-.28-.085-.393-.393-.674-.533l-.31.111c-.056 0-.112-.027-.112-.084l.056-.084c-.009-.01-.012-.035-.012-.069 0-.066.012-.166.012-.24h-.168c0-.31.478-.703.73-.73v-.114c.113 0 .17-.113.31-.14.14-.056.28-.028.393-.196-.084-.085-.225-.085-.338-.142h.085l.337.085c.282 0 .675-.253.928-.31v-.112c-.072 0-.155.007-.233.007-.135 0-.256-.022-.273-.147h.169a.784.784 0 00.337.112c.224 0 .28-.169.45-.253.056 0 .112.113.196.113.057 0 .085-.056.197-.084a.036.036 0 01-.011-.026c0-.022.02-.047.04-.087.027.057.11.113.168.113.253 0 .365-.197.449-.422.028-.084.197-.112.197-.196v-.17c-.112 0-.197-.055-.281-.055-.169 0-.365.056-.365.253-.253 0-.394.196-.562.337h-.198c.057-.169.17-.169.226-.337 0 0-.197 0-.226-.057-.056.029-.056.057-.168.084v.057h-.112c0-.057.028-.112.084-.196h-.169c.028-.085.197-.058.197-.141 0-.142-.112-.197-.112-.393h-.14" mask="url(#h)"/></g><g transform="translate(42.514 13.84)"><mask id="j" fill="#fff"><use xlink:href="#i"/></mask><path d="M5.677.186h-.533c-.254 0-.73.14-.927.225-.057.028-.365.168-.45.28-.01.014-.017.02-.025.02-.04 0-.068-.16-.116-.16-.055 0-.308.028-.421.028-.113 0-.225 0-.31-.085-.14.085-.168.506-.337.59-.112.057-.196.03-.337.085-.084.028-.084.198-.28.198.009.065.011.147.011.233 0 .17-.012.356-.012.468 0 .254-.31.254-.393.45-.028.029 0 .112-.084.14-.141.03-.254.057-.338.085-.055.056-.112.113-.112.253-.309.056-.225.562-.421.759-.085.084-.226.056-.254.225-.056.14-.028.252-.168.336-.028.058-.085.114-.085.197 0 .056.085.084.169.084 0 .282.056.423.056.732 0 .224-.028.448-.112.618-.028.113-.168.28-.168.393 0 .056.055 0 .055.084l.141.084c-.028 0-.028.028-.056.113a.685.685 0 01.298-.061c.063 0 .129.005.208.005-.197 0-.31.028-.506.084v.085c0 .037-.05.112-.05.157 0 .023.013.039.05.039l.14-.056c.099-.033.245-.047.388-.047.103 0 .205.007.287.019h.028a1.233 1.233 0 01-.297.419c.112-.1.207-.246.269-.39a1.485 1.485 0 00-.304-.032c-.154 0-.284.025-.37.06l-.113.055c.14.056.056-.055.281.17.028.055.028.168.113.223.168.197.42.283.42.534.142-.14.254-.308.45-.308-.196 0-.28.168-.42.308.112.31.055.394.392.591.225-.252.225-.31.338-.507.06.02.076.04.102.04.01 0 .022-.003.038-.011-.028.014-.042.022-.06.022a.284.284 0 01-.08-.022c-.057.197-.057.168-.31.478.057.056.169.084.226.14.157.185.588.567.687.567.006 0 .011-.001.015-.005 0-.084.056-.14.056-.224v.224l.029-.055c.196-.085.533-.227.843-.227.14 0 .111.114.253.114 0-.082.077-.135.083-.19-.006.055-.083.11-.083.218a.232.232 0 00.088.019c.09 0 .15-.06.193-.103.224-.113.449-.254.702-.31.056-.028.112-.028.169-.056.077 0 .155-.044.233-.052l-.009.052a.51.51 0 01.205-.057c.146 0 .146.142.273.142 0 .223.14.365.31.365.018 0 .087.025.14.025.025 0 .047-.006.056-.025l.422.028.002-.004c.005.059.028.145.053.145h.255a.33.33 0 00-.026.134c0 .085.026.166.026.26 0 .056-.03.083-.058.112l.45-.029c0 .115.042.207.042.271 0 .07-.05.107-.258.107-.068 0-.155-.004-.261-.013a.31.31 0 01.014.09c0 .19-.24.199-.24.445 0 .365.366.421.479.73 0 .056.084.112.111.14l.009-.012c.056.107.135.214.188.294.112-.056.112-.14.282-.14-.113.027-.14.084-.254.14l-.028.169v.055h1.21l-1.238.029c0 .055.056.111.113.111.084.226.252.31.252.591 0 .085-.055.14-.055.225 0 .197.14.309.14.506 0 .253-.197.646-.394.758v.45c-.084.057-.14.31-.14.507h.028c0 .056-.028.084-.028.112 0 .056.056.084.084.084 0 .28.28.843.45 1.011.028.03.083.057.14.057v.14c0 .056-.057.113-.057.253 0 .225.142.366.142.563 0 .337.027.505.196.815.057.083.113 0 .14.11 0-.055.03-.139.03-.168l.028.254a.581.581 0 01.021.165v.074c0 .065.007.128.062.21.085.141.225.225.225.422 0 .056-.057.112-.084.169l.084.225a.126.126 0 00-.03.078c0 .11.168.204.282.204.058 0 .592-.084.62-.142.056 0 .083 0 .168.058.085-.058.112-.058.197-.058h.45c0-.197.309-.056.365-.169.196-.365.477-.392.757-.73.03-.084.367-.619.507-.647v-.14l.168-.31.058-.223c-.058-.029-.085-.058-.085-.141 0-.14.225-.112.366-.14.111-.03.393-.338.393-.423v-.224c0-.085-.057-.168-.057-.253 0-.056.03-.113.057-.169a.588.588 0 01-.17-.225c0-.421.535-.45.62-.815.42 0 .927-.393.927-.9 0-.308.029-.42.029-.842-.02-.028-.026-.047-.026-.064 0-.033.026-.058.026-.133-.029.056-.62.282-.704.282.085 0 .675-.253.704-.31-.197-.14-.283-.225-.283-.337v-.169c0-.045-.035-.09-.035-.134 0-.011.002-.022.008-.034v-.507c0-.084-.113-.111-.113-.168 0-.085.169-.196.197-.309l-.084-.085a.37.37 0 01-.366-.364c0 .197.198.364.393.364.169-.28.338-.449.507-.702v-.028c.084-.112.168-.225.281-.337.084-.084.224-.141.28-.28.112-.253.507-.394.731-.647.225-.197.394-.45.478-.787.14-.45.562-.871.562-1.462 0-.112-.056-.168-.14-.281-.17.197-.702.281-.956.281 0 0 .014.022.014.043 0 .02-.014.042-.07.042-.14 0-.308.055-.478.055-.084 0-.168-.084-.253-.168l-.112.057-.028.028v-.001l-.015.014-.008-.045.136-.109-.114-.31-.021.003-.147-.17c-.056-.057-.282-.367-.364-.423-.086-.056-.169 0-.169-.056 0-.013-.004-.017-.012-.017-.006 0-.014.004-.024.007a.094.094 0 01-.03.006c-.019 0-.037-.01-.048-.053-.056-.11-.14-.196-.168-.28-.027-.057-.027-.365-.056-.45h-.057l.028-.027c-.414-.185-.45-.389-.45-.657l.002-.187c0-.056-.057-.14-.085-.28-.028 0-.085-.056-.085-.113-.112 0-.14 0-.196-.14l-.074.051.018-.023a.174.174 0 01-.022-.085V3.89c0-.031-.006-.066-.062-.136l.084-.057c-.057-.027-.366-.393-.366-.477 0-.14-.085-.393-.168-.422-.113-.084-.057-.169-.14-.281-.082-.14-.19-.27-.255-.486a.107.107 0 00.086.036c0 .112 0 .225.14.225 0 .113.084.365.252.365l.198-.478v-.002l-.001.001-.02-.064-.204-.637c-.07.138-.176.24-.352.24a.586.586 0 01-.126-.015c0 .049-.004.106-.007.163-.006-.046-.017-.083-.02-.135l-.367-.084c-.225.056-.337.14-.618.14-.168 0-.225-.168-.562-.168-.027-.028-.055-.028-.112-.028v-.028c-.169-.029-.393 0-.506-.113-.113-.113-.028-.253-.31-.253-.195 0-.251.225-.448.225v.141c0 .084.084.14.084.197 0 .056-.084.112-.084.224h-.113c-.197 0-.366-.197-.563-.253a.321.321 0 00-.075-.009c-.023 0-.045.003-.067.004a.785.785 0 01-.063.003.18.18 0 01-.104-.026c-.083-.084-.027-.28-.195-.336a1.078 1.078 0 00-.528-.12c-.048 0-.096.002-.146.007l-.002-.028a.058.058 0 01-.018.002c-.084 0-.211-.172-.29-.2l-.14-.084c0-.028.14-.28.197-.31-.028-.083-.143-.14-.143-.251l.085-.085V.186c-.055 0-.308-.14-.308-.17a1.302 1.302 0 01-.648.17" mask="url(#j)"/></g><g transform="translate(48.98 23.517)"><mask id="l" fill="#fff"><use xlink:href="#k"/></mask><path d="M.14.038H.113C.083.093.029.149.029.205c0 .113.055.169.055.169C.508.355.58.36.582.273c0-.047-.02-.12-.02-.235H.14" mask="url(#l)"/></g><g transform="translate(57.05 27.378)"><mask id="n" fill="#fff"><use xlink:href="#m"/></mask><path d="M1.119.84h-.112v.141C.893 1.01.84 1.15.725 1.15c-.14 0-.196.084-.308.084l-.17.478c0 .168.141.225.141.45 0 .14-.14.561-.364.561a.27.27 0 01.037.119c0 .053-.037.078-.037.19l.083.085c-.027.084-.083.056-.083.14 0 .225.028.507.28.507l.026.012A20.87 20.87 0 001.754.603c.005-.016.01-.032.017-.048l.007-.021A1.65 1.65 0 011.79.499l.01-.03.01-.028.011-.033.008-.022.013-.039A.068.068 0 001.844.34a.458.458 0 01-.218-.314C1.54.222 1.4.84 1.119.84" mask="url(#n)"/></g><g transform="translate(26.374 10.674)"><mask id="p" fill="#fff"><use xlink:href="#o"/></mask><path d="M14.406 13.023l1.532-1.532 1.532 1.533-1.533 1.532-1.531-1.533zm-1.535 4.598l-1.531-1.534 1.532-1.531 1.532 1.532-1.533 1.533zM9.807 11.49l1.532 1.533-.987.986-.544.545-.83-.831-.002.001-.702-.702 1.533-1.532zm3.066-3.065l1.533 1.533-1.533 1.533-1.532-1.533 1.532-1.533zm13.03-3.044a5.42 5.42 0 00-.06-.725l-6.839 6.835-.527-.527-1.005-1.006 7.526-7.522A5.454 5.454 0 0023.467.901L15.94 8.424l-.828-.826-.705-.706L21.24.062A5.154 5.154 0 0020.416 0a5.404 5.404 0 00-3.61 1.429l-3.932 3.93L9.117 1.6A5.4 5.4 0 005.379.153a5.37 5.37 0 00-.714.059l6.676 6.679-1.533 1.532-7.366-7.369a5.443 5.443 0 00-.845.688l-.07.07a5.63 5.63 0 00-.622.77l7.37 7.374-1.533 1.532L.063 4.806c-.04.272-.066.551-.063.835a5.41 5.41 0 001.33 3.5l6.131 6.134 3.414 3.416v-.001l1.38 1.38.005-.004.616.615 3.06-3.06.001.001 1.534-1.532 7.085-7.084a5.391 5.391 0 001.347-3.626z" fill="#FFFFFE" mask="url(#p)"/></g><path d="M9.572 10.456c4.366 0 6.642 2.195 6.642 2.195l-1.292 1.913s-2.043-1.783-5.144-1.783c-4.29 0-6.874 3.127-6.874 7.03 0 4.238 2.895 7.158 6.72 7.158 3.153 0 5.168-2.274 5.168-2.274V22.06H11.82v-2.224h5.298v9.175h-2.25v-1.137c0-.388.028-.776.028-.776h-.052s-1.99 2.222-5.608 2.222c-4.91 0-8.968-3.876-8.968-9.457 0-5.273 3.98-9.407 9.304-9.407" fill="#FFFFFE"/><path d="M9.545 11.245c-4.839 0-8.488 3.705-8.488 8.618 0 4.942 3.51 8.668 8.162 8.668 3.21 0 5.023-1.966 5.041-1.985l.157-.175h.802l.012.564c0 .006-.024.362-.024.719v.576h1.121v-7.863h-4.076v1.104h2.88v3.292l-.132.15c-.086.097-2.148 2.389-5.405 2.389-4.08 0-7.04-3.15-7.04-7.489 0-4.336 2.957-7.364 7.19-7.364 2.324 0 4.061.962 4.856 1.505l.672-.996c-.744-.545-2.69-1.713-5.728-1.713m-.326 18.343C3.963 29.588 0 25.408 0 19.863c0-5.516 4.103-9.675 9.545-9.675 4.395 0 6.708 2.19 6.804 2.284l.318.308-1.834 2.722-.452-.392c-.018-.016-1.88-1.604-4.636-1.604-3.61 0-6.133 2.594-6.133 6.307 0 3.727 2.517 6.432 5.983 6.432 2.342 0 4.011-1.442 4.48-1.898v-1.819h-2.88V19.31h6.191v9.978H14.15v-1.26c-.944.681-2.612 1.561-4.93 1.561M21.124 29.011h2.559V10.766h-2.559z" fill="#FFFFFE"/><path d="M21.912 28.221h.98V11.554h-.98V28.22zm-1.057 1.057h3.095V10.495h-3.095v18.783zM55.209 29.011h2.56V10.766h-2.56z" fill="#FFFFFE"/><path d="M55.999 28.221h.98V11.554H56V28.22zm-1.057 1.057h3.095V10.495h-3.095v18.783zM62.73 10.764h2.532l8.115 11.863c.671.983 1.525 2.636 1.525 2.636h.05s-.18-1.628-.18-2.636V10.764h2.56v18.247h-2.508l-8.14-11.837c-.673-1.008-1.525-2.662-1.525-2.662h-.052s.18 1.63.18 2.662v11.837H62.73V10.764" fill="#FFFFFE"/><path d="M74.932 28.222h1.61V11.554h-1.41v10.995c0 .937.169 2.488.17 2.503l.065.586h-.914l-.196-.287c-.009-.016-.816-1.59-1.437-2.506L65.15 11.554H63.52v16.668h1.41v-10.97c0-.963-.17-2.513-.172-2.529l-.065-.586h.914l.197.288c.008.015.817 1.593 1.441 2.534l7.688 11.263zM77.6 29.28h-3.226l-8.007-11.73a16.163 16.163 0 01-.384-.614c.003.109.004.214.004.315V29.28h-3.525V10.496h3.25l7.984 11.755c.124.184.254.39.383.602a11.642 11.642 0 01-.004-.304V10.496H77.6V29.28zM90.381 10.456c4.368 0 6.643 2.195 6.643 2.195l-1.293 1.913s-2.042-1.783-5.142-1.783c-4.29 0-6.875 3.127-6.875 7.03 0 4.238 2.894 7.158 6.72 7.158 3.152 0 5.168-2.274 5.168-2.274V22.06H92.63v-2.224h5.3v9.175h-2.25v-1.137c0-.388.026-.776.026-.776h-.05s-1.992 2.222-5.61 2.222c-4.909 0-8.967-3.876-8.967-9.457 0-5.273 3.98-9.407 9.303-9.407" fill="#FFFFFE"/><path d="M90.355 11.245c-4.839 0-8.488 3.705-8.488 8.618 0 4.942 3.51 8.668 8.162 8.668 3.21 0 5.023-1.966 5.041-1.985l.157-.175h.801l.012.563c0 .006-.023.363-.023.72v.576h1.122v-7.863h-4.078v1.104h2.881v3.292l-.132.15c-.086.097-2.149 2.389-5.405 2.389-4.08 0-7.04-3.15-7.04-7.489 0-4.336 2.956-7.364 7.19-7.364 2.324 0 4.06.962 4.855 1.505l.672-.996c-.743-.545-2.69-1.713-5.727-1.713m-.326 18.343c-5.256 0-9.22-4.18-9.22-9.725 0-5.516 4.104-9.675 9.546-9.675 4.396 0 6.708 2.19 6.804 2.284l.318.308-1.834 2.722-.453-.392c-.018-.016-1.88-1.604-4.634-1.604-3.612 0-6.134 2.594-6.134 6.307 0 3.727 2.516 6.432 5.983 6.432 2.356 0 4.014-1.44 4.48-1.896v-1.82h-2.881v-3.22h6.192v9.978H94.96v-1.26c-.944.681-2.612 1.561-4.93 1.561M102.242 10.764v2.223h6.254v16.024h2.558V12.987h6.255v-2.223h-15.067M119.659 10.764h2.56V22.55c0 2.791 1.808 4.419 4.6 4.419 2.815 0 4.65-1.628 4.65-4.472V10.764h2.56V22.55c0 4.057-2.92 6.77-7.185 6.77s-7.185-2.713-7.185-6.77V10.764M138.732 10.764v18.247h11.035v-2.223h-8.476v-5.866h6.538v-2.224h-6.538v-5.71h8.035v-2.224h-10.594M153.592 24.979s1.938 1.964 4.65 1.964c1.707 0 3.154-.956 3.154-2.687 0-3.955-8.839-3.102-8.839-8.71 0-2.843 2.456-5.09 5.892-5.09 3.388 0 5.17 1.834 5.17 1.834l-1.163 2.12s-1.68-1.577-4.007-1.577c-1.937 0-3.307 1.215-3.307 2.662 0 3.773 8.84 2.764 8.84 8.683 0 2.817-2.172 5.142-5.79 5.142-3.878 0-6.049-2.403-6.049-2.403l1.449-1.938M173.516 26.789c4.11 0 6.798-2.43 6.798-6.926 0-4.472-2.714-6.875-6.798-6.875h-3.308v13.8h3.308zm-5.867-16.025h6.049c5.582 0 9.252 3.335 9.252 9.099 0 5.787-3.67 9.148-9.252 9.148h-6.049V10.764zM192.279 13.272s-.414 1.654-.723 2.585l-2.043 5.788h5.531l-2.016-5.788c-.31-.931-.698-2.585-.698-2.585h-.051zm3.436 10.493h-6.874l-1.808 5.246h-2.636l6.563-18.247h2.687l6.565 18.247h-2.66l-1.837-5.246zM205.535 21.283l-6.125-10.519h2.895l3.386 5.997c.569 1.008 1.11 2.3 1.11 2.3h.051s.545-1.267 1.113-2.3l3.334-5.997h2.895l-6.1 10.519v7.728h-2.559v-7.728" fill="#FFFFFE"/><path fill="#29AEB4" d="M226.289 32.229h1.84V7.376h-1.84z"/><path fill="#FFFFFE" d="M258.258 10.72v18.611h-2.844l-10.262-12.602v12.602h-3.43v-18.61h2.846l10.26 12.601V10.721h3.43M278.492 20.026c0-3.801-2.791-6.54-6.54-6.54-3.748 0-6.54 2.739-6.54 6.54 0 3.802 2.792 6.54 6.54 6.54 3.749 0 6.54-2.738 6.54-6.54m-16.562 0c0-5.503 4.254-9.57 10.023-9.57 5.768 0 10.022 4.04 10.022 9.57s-4.254 9.57-10.022 9.57c-5.77 0-10.023-4.067-10.023-9.57M312.258 10.72l-6.168 18.611h-3.669l-4.6-13.77-4.678 13.77h-3.695l-6.168-18.61h3.589l4.626 14.143 4.812-14.143h3.19l4.706 14.223 4.758-14.223h3.297"/></g></svg>