<?xml version="1.0" encoding="UTF-8"?>
<svg width="224px" height="20px" viewBox="0 0 224 20" version="1.1" xmlns="http://www.w3.org/2000/svg" xmlns:xlink="http://www.w3.org/1999/xlink">
    <title>logo/giving tuesday/on dark</title>
    <g id="Page-1" stroke="none" stroke-width="1" fill="none" fill-rule="evenodd">
        <g id="desktop/giving-and-events/footer" transform="translate(-75.000000, -38.000000)">
            <g id="GivingTuesday_HZ_Lockup_Knockout_notagline_sketch" transform="translate(75.000000, 38.000000)">
                <g id="Group-4">
                    <path d="M42.168,15.6093333 L43.6333333,14.1453333 L45.0973333,15.612 L43.632,17.0773333 L43.188,16.6333333 L43.1893333,16.632 L42.168,15.6093333 Z M39.2386667,12.6813333 L40.704,11.216 L42.168,12.6813333 L41.224,13.624 L40.704,14.144 L39.9106667,13.3506667 L39.9093333,13.352 L39.2386667,12.6813333 Z M43.6346667,8.288 L44.308,8.96266667 L44.428,9.08133333 L45.0973333,9.752 L43.6333333,11.2173333 L42.168,9.752 L43.6346667,8.288 Z M46.5626667,11.2173333 L48.0266667,12.6826667 L46.5613333,14.1466667 L45.0973333,12.6826667 L46.5626667,11.2173333 Z M56.0253333,4.68666667 L49.4906667,11.2186667 L48.9866667,10.7133333 L48.988,10.712 L48.028,9.752 L55.2186667,2.56533333 C54.832,1.98533333 54.336,1.48133333 53.756,1.09866667 L46.5626667,8.288 L45.7733333,7.49866667 L45.0986667,6.824 L51.6293333,0.297333333 C51.3693333,0.258666667 51.108,0.236 50.8413333,0.238666667 C49.508,0.250666667 48.3013333,0.769333333 47.3906667,1.60266667 L43.6333333,5.35866667 L40.044,1.76666667 C39.1066667,0.9 37.852,0.368 36.472,0.385333333 C36.24,0.386666667 36.0133333,0.409333333 35.7893333,0.44 L42.1693333,6.82266667 L40.704,8.28666667 L33.6666667,1.24666667 C33.376,1.436 33.1053333,1.65733333 32.86,1.90266667 L32.7906667,1.97066667 C32.572,2.196 32.3733333,2.444 32.1973333,2.70533333 L39.24,9.75066667 L37.7746667,11.216 L31.3933333,4.83066667 C31.3533333,5.09066667 31.3306667,5.35733333 31.3319443,5.62933333 C31.3466667,6.912 31.824,8.076 32.6026667,8.972 L41.7226667,18.0973333 L41.724,18.096 L43.0426667,19.4173333 L43.048,19.412 L43.6373333,20 L54.7973333,8.84533333 C55.608,7.91733333 56.0986667,6.704 56.0826667,5.37866667 C56.0813333,5.14266667 56.0586667,4.91333333 56.0253333,4.68666667 L56.0253333,4.68666667 Z" id="Fill-1" fill="#DA342C"></path>
                    <path d="M9.48133333,0.493333333 C13.932,0.493333333 16.2506667,2.732 16.2506667,2.732 L14.9333333,4.68133333 C14.9333333,4.68133333 12.852,2.864 9.692,2.864 C5.32,2.864 2.68666667,6.05066667 2.68666667,10.0266667 C2.68666667,14.3466667 5.63733333,17.3226667 9.53333333,17.3226667 C12.748,17.3226667 14.8013333,15.0053333 14.8013333,15.0053333 L14.8013333,12.3186667 L11.772,12.3186667 L11.772,10.0533333 L17.172,10.0533333 L17.172,19.4026667 L14.88,19.4026667 L14.88,18.244 C14.88,17.8493333 14.9066667,17.4546667 14.9066667,17.4546667 L14.8546667,17.4546667 C14.8546667,17.4546667 12.8253333,19.7186667 9.13866667,19.7186667 C4.13466667,19.7186667 0,15.768 0,10.08 C0,4.70666667 4.056,0.493333333 9.48133333,0.493333333" id="Fill-3" fill="#FFFFFE"></path>
                </g>
                <polygon id="Fill-5" fill="#FFFFFE" points="23.412 19.4013333 26.02 19.4013333 26.02 0.809333333 23.412 0.809333333"></polygon>
                <polygon id="Fill-6" fill="#FFFFFE" points="60.8453333 19.4013333 63.4533333 19.4013333 63.4533333 0.809333333 60.8453333 0.809333333"></polygon>
                <path d="M69.588,0.809333333 L72.168,0.809333333 L80.44,12.8973333 C81.1226667,13.8986667 81.9933333,15.584 81.9933333,15.584 L82.0453333,15.584 C82.0453333,15.584 81.8613333,13.9253333 81.8613333,12.8973333 L81.8613333,0.809333333 L84.4693333,0.809333333 L84.4693333,19.4026667 L81.9133333,19.4026667 L73.6186667,7.34133333 C72.9333333,6.31333333 72.064,4.628 72.064,4.628 L72.012,4.628 C72.012,4.628 72.196,6.28666667 72.196,7.34133333 L72.196,19.4026667 L69.588,19.4026667 L69.588,0.809333333" id="Fill-7" fill="#FFFFFE"></path>
                <path d="M99.3866667,0.493333333 C103.837333,0.493333333 106.156,2.732 106.156,2.732 L104.838667,4.68133333 C104.838667,4.68133333 102.756,2.864 99.5973333,2.864 C95.2253333,2.864 92.592,6.05066667 92.592,10.0266667 C92.592,14.3466667 95.544,17.3226667 99.44,17.3226667 C102.652,17.3226667 104.706667,15.0053333 104.706667,15.0053333 L104.706667,12.3186667 L101.678667,12.3186667 L101.678667,10.0533333 L107.077333,10.0533333 L107.077333,19.4026667 L104.786667,19.4026667 L104.786667,18.244 C104.786667,17.8493333 104.812,17.4546667 104.812,17.4546667 L104.76,17.4546667 C104.76,17.4546667 102.732,19.7186667 99.0453333,19.7186667 C94.0413333,19.7186667 89.9066667,15.768 89.9066667,10.08 C89.9066667,4.70666667 93.9613333,0.493333333 99.3866667,0.493333333" id="Fill-8" fill="#FFFFFE"></path>
                <polyline id="Fill-9" fill="#FFFFFE" points="122.054667 3.25733333 115.682667 3.25733333 115.682667 0.993333333 131.036 0.993333333 131.036 3.25733333 124.664 3.25733333 124.664 19.5853333 122.054667 19.5853333 122.054667 3.25733333"></polyline>
                <path d="M132.892,0.993333333 L135.5,0.993333333 L135.5,13.0026667 C135.5,15.8466667 137.341333,17.5066667 140.188,17.5066667 C143.057333,17.5066667 144.928,15.8466667 144.928,12.9506667 L144.928,0.993333333 L147.536,0.993333333 L147.536,13.0026667 C147.536,17.1386667 144.558667,19.904 140.213333,19.904 C135.868,19.904 132.892,17.1386667 132.892,13.0026667 L132.892,0.993333333" id="Fill-10" fill="#FFFFFE"></path>
                <polyline id="Fill-11" fill="#FFFFFE" points="151.248 0.993333333 162.046667 0.993333333 162.046667 3.25733333 153.854667 3.25733333 153.854667 9.08 160.517333 9.08 160.517333 11.344 153.854667 11.344 153.854667 17.3213333 162.493333 17.3213333 162.493333 19.5853333 151.248 19.5853333 151.248 0.993333333"></polyline>
                <path d="M165.310667,15.4773333 C165.310667,15.4773333 167.286667,17.4786667 170.052,17.4786667 C171.790667,17.4786667 173.265333,16.5053333 173.265333,14.7413333 C173.265333,10.7106667 164.257333,11.5813333 164.257333,5.86533333 C164.257333,2.968 166.761333,0.677333333 170.262667,0.677333333 C173.713333,0.677333333 175.529333,2.54666667 175.529333,2.54666667 L174.344,4.70666667 C174.344,4.70666667 172.633333,3.1 170.262667,3.1 C168.286667,3.1 166.890667,4.33733333 166.890667,5.812 C166.890667,9.65866667 175.898667,8.63066667 175.898667,14.6613333 C175.898667,17.532 173.686667,19.9026667 170,19.9026667 C166.049333,19.9026667 163.836,17.4533333 163.836,17.4533333 L165.310667,15.4773333" id="Fill-12" fill="#FFFFFE"></path>
                <path d="M178.558667,0.993333333 L184.721333,0.993333333 C190.410667,0.993333333 194.149333,4.38933333 194.149333,10.2626667 C194.149333,16.1626667 190.410667,19.5853333 184.721333,19.5853333 L178.558667,19.5853333 L178.558667,0.993333333 Z M184.536,17.3213333 C188.724,17.3213333 191.462667,14.8466667 191.462667,10.2626667 C191.462667,5.70666667 188.696,3.25733333 184.536,3.25733333 L181.166667,3.25733333 L181.166667,17.3213333 L184.536,17.3213333 L184.536,17.3213333 Z" id="Fill-13" fill="#FFFFFE"></path>
                <path d="M206.078667,14.2413333 L199.073333,14.2413333 L197.230667,19.5853333 L194.545333,19.5853333 L201.233333,0.993333333 L203.972,0.993333333 L210.661333,19.5853333 L207.949333,19.5853333 L206.078667,14.2413333 Z M202.577333,3.548 C202.577333,3.548 202.154667,5.23333333 201.838667,6.18133333 L199.758667,12.0813333 L205.394667,12.0813333 L203.34,6.18133333 C203.024,5.23333333 202.629333,3.548 202.629333,3.548 L202.577333,3.548 L202.577333,3.548 Z" id="Fill-14" fill="#FFFFFE"></path>
                <path d="M215.006667,11.7106667 L208.765333,0.993333333 L211.716,0.993333333 L215.165333,7.10266667 C215.744,8.132 216.297333,9.44666667 216.297333,9.44666667 L216.349333,9.44666667 C216.349333,9.44666667 216.902667,8.156 217.482667,7.10266667 L220.881333,0.993333333 L223.829333,0.993333333 L217.614667,11.7106667 L217.614667,19.5853333 L215.006667,19.5853333 L215.006667,11.7106667" id="Fill-15" fill="#FFFFFE"></path>
            </g>
        </g>
    </g>
</svg>