<?xml version="1.0" encoding="UTF-8"?>
<svg width="110px" height="25px" viewBox="0 0 110 25" version="1.1" xmlns="http://www.w3.org/2000/svg" xmlns:xlink="http://www.w3.org/1999/xlink">
    <title>Georgetown University Giving</title>
    <g id="Page-1" stroke="none" stroke-width="1" fill="none" fill-rule="evenodd">
        <g id="Artboard-Copy-3" transform="translate(-25.000000, -25.000000)" fill="#FFFFFF">
            <g id="Group-4" transform="translate(25.000000, 25.000000)">
                <rect id="Rectangle" x="40" y="0" width="2" height="22"></rect>
                <g id="logo/abbreviated-" transform="translate(0.000000, 3.000000)">
                    <path d="M17.5711604,2.47405132 C17.8738045,1.49756332 17.5711604,1.12829223 16.9878827,1.12829223 L16.2097475,1.12829223 C16.1016372,1.12829223 16.0365768,1.0850589 16.0585873,0.955033871 L16.1663739,0.434283612 C16.1883844,0.303933516 16.2311106,0.260050067 16.4473312,0.260050067 C16.7066017,0.260050067 17.4633738,0.325387646 19.4083882,0.325387646 C21.1591924,0.325387646 21.893954,0.260050067 22.1101746,0.260050067 C22.2830216,0.260050067 22.3260715,0.325387646 22.3043847,0.477191873 L22.2182849,0.955033871 C22.1965981,1.06327971 22.1318614,1.12829223 22.0017406,1.12829223 L21.3967761,1.12829223 C21.0073848,1.12829223 20.4244308,1.21508394 20.0997762,2.3004679 L18.3279325,8.09568364 C18.1981354,8.57352564 17.7009575,10.1793348 17.7009575,11.1561479 C17.7009575,13.7829786 19.9919896,14.0644828 20.6189646,14.0644828 C21.6563703,14.0644828 22.7585127,13.6744077 23.4499007,13.0879948 C24.4659433,12.2418569 25.1793418,11.0696812 25.849043,8.65999229 L27.4270002,3.10369755 C27.837431,1.67082168 27.5998473,1.12829223 26.9081356,1.12829223 L26.2167475,1.12829223 C26.0222137,1.12829223 26.0005269,1.06327971 26.0222137,0.955033871 L26.1083135,0.477191873 C26.1300003,0.325387646 26.1730503,0.260050067 26.3679077,0.260050067 C26.6275019,0.260050067 27.448687,0.325387646 28.8317868,0.325387646 C30.0850894,0.325387646 30.5822673,0.260050067 30.7984879,0.260050067 C30.9933454,0.260050067 31.0147085,0.325387646 30.9933454,0.477191873 L30.9286087,0.955033871 C30.9069219,1.06327971 30.8632246,1.12829223 30.6907013,1.12829223 L30.3663704,1.12829223 C29.6749824,1.12829223 29.2205307,1.77971765 28.8965235,2.84332242 L27.037609,8.81212158 C25.8707298,12.6761405 24.1416124,15.1937502 20.1434735,15.1937502 C17.3552635,15.1937502 15.2587653,13.9130036 15.2587653,11.2211604 C15.2587653,10.3096849 15.5827725,8.96392581 15.7125696,8.50818806 L17.5711604,2.47405132 Z M10.7200748,16.6913135 C10.5689146,17.4295307 10.1367971,18.6663938 9.85551613,19.2963651 C9.29360152,20.4464365 7.73765479,21.9004414 6.09463719,21.9004414 C4.08488615,21.9004414 3.30707463,20.9021743 3.30707463,19.8596985 C3.30707463,19.1006774 3.71750534,18.5145896 4.47427744,18.5145896 C5.27409944,18.5145896 5.40324917,19.1871441 5.40324917,19.42574 C5.40324917,19.6864402 5.31714935,20.0553862 5.20903905,20.1636321 C5.12229187,20.2510739 5.07924196,20.3593197 5.07924196,20.5329032 C5.07924196,20.9668617 5.57641986,21.2064328 6.02990048,21.2064328 C7.15405338,21.2064328 7.7590179,20.2939822 8.14840919,18.797069 C8.4076797,17.7763724 8.79642362,16.0619924 9.59592194,13.0662156 L9.46677221,13.0229823 C9.16412811,13.4351616 7.93218859,15.1937502 5.01450525,15.1937502 C2.03176152,15.1937502 0,13.0879948 0,9.3331969 C0,6.53310781 1.27563679,4.16730232 2.87495712,2.53906384 C4.08488615,1.3239799 5.96548746,0 8.96959431,0 C11.2175764,0 12.3624451,0.737892065 12.7948863,1.0850589 C13.0761673,1.30220071 13.2707011,1.34543403 13.3788114,1.34543403 C13.6380819,1.34543403 13.767879,1.12829223 13.8973524,0.651100355 C13.9190392,0.542529452 13.9837759,0.520750259 14.0918862,0.542529452 L14.4162171,0.629321162 C14.5026406,0.651100355 14.5673773,0.694333679 14.5456905,0.802904581 L13.3140746,5.16556952 C13.2707011,5.29591961 13.2270038,5.31737374 13.0761673,5.29591961 L12.7304732,5.25236123 C12.6220393,5.23058203 12.5573026,5.16556952 12.579313,5.03554448 C12.9463702,3.16871006 11.8872776,0.889696291 9.0777046,0.889696291 C7.6942812,0.889696291 6.13833447,1.36721323 4.62511396,3.36439774 C3.37148765,4.94842771 2.65841283,7.292454 2.65841283,9.91863461 C2.65841283,13.4790451 4.84165824,14.0436788 5.79231677,14.0436788 C8.3859929,14.0436788 9.6399429,11.8075733 9.72571903,10.5271518 C9.79077942,9.70214293 9.55319571,9.52855951 8.96959431,9.52855951 L8.2131459,9.52855951 C8.04062257,9.52855951 8.01861209,9.463547 8.061662,9.31109264 L8.14840919,8.83357571 C8.1697723,8.70387574 8.2131459,8.65999229 8.3859929,8.65999229 C8.7103238,8.65999229 9.46677221,8.72532987 11.3687366,8.72532987 C12.8382599,8.72532987 13.3568009,8.65999229 13.659445,8.65999229 C13.8112526,8.65999229 13.8759893,8.72532987 13.8543025,8.83357571 L13.7892421,9.35530116 C13.767879,9.48467606 13.7241817,9.52855951 13.5947083,9.52855951 L13.140904,9.52855951 C12.7304732,9.52855951 12.4275055,9.70214293 12.1468718,10.8522144 L10.7200748,16.6913135 Z" id="logo-abbreviated-"></path>
                </g>
                <path d="M59.82,17.315 C62.172,17.315 63.852,16.832 65.553,15.971 C65.763,15.887 65.889,15.803 65.889,15.635 C65.889,15.467 65.805,15.257 65.805,14.963 L65.805,12.191 C65.805,11.54 66.078,11.393 66.456,11.393 L67.275,11.393 C67.401,11.393 67.422,11.309 67.422,11.225 L67.422,10.721 C67.422,10.637 67.401,10.574 67.254,10.574 C66.9772941,10.574 66.3657509,10.6298062 65.0341978,10.6363717 L64.776,10.637 C63.348,10.637 62.403,10.574 62.109,10.574 C62.004,10.574 61.983,10.616 61.983,10.742 L61.983,11.267 C61.983,11.351 62.025,11.393 62.13,11.393 L63.012,11.393 C63.642,11.393 63.873,11.603 63.873,12.359 L63.873,13.913 C63.873,15.005 63.789,15.467 63.306,15.761 C62.571,16.181 61.542,16.475 59.862,16.475 C58.497,16.475 57.216,15.992 56.166,14.984 C54.864,13.745 54.171,11.582 54.171,9.104 C54.171,7.214 54.885,5.471 56.019,4.274 C57.279,2.93 58.581,2.573 60.03,2.573 C61.92,2.573 63.222,3.518 63.852,4.295 C64.587,5.198 64.944,6.185 65.112,6.773 C65.133,6.878 65.196,6.941 65.28,6.941 L65.658,6.899 C65.742,6.899 65.763,6.815 65.763,6.71 L65.7,2.699 C65.7,2.552 65.658,2.447 65.511,2.447 C65.385,2.447 65.301,2.552 65.217,2.636 L64.902,3.014 C64.776,3.182 64.65,3.224 64.419,3.035 C63.705,2.489 62.088,1.817 60.282,1.817 C57.762,1.817 55.872,2.531 54.381,3.812 C52.827,5.198 52.008,7.235 52.008,9.146 C52.008,11.687 52.659,13.472 53.94,14.921 C55.389,16.622 57.951,17.315 59.82,17.315 Z M70.53,5.618 C71.412,5.618 71.79,4.946 71.79,4.379 C71.79,3.896 71.433,3.266 70.656,3.266 C69.795,3.266 69.333,3.896 69.333,4.442 C69.333,5.135 70.047,5.618 70.53,5.618 Z M71.16,17 C72.042,17 73.008,17.063 73.176,17.063 C73.323,17.063 73.365,17 73.365,16.853 L73.365,16.496 C73.365,16.37 73.323,16.307 73.155,16.307 L72.189,16.307 C71.958,16.307 71.895,16.16 71.853,15.761 C71.839,15.607 71.8343333,15.2196667 71.8327778,14.7358889 L71.8327654,10.3871554 C71.8349086,9.29358172 71.8430526,8.50605263 71.874,8.243 C71.895,8.096 71.874,7.991 71.769,7.991 C71.643,7.991 71.538,8.033 71.37,8.117 C70.572,8.558 69.774,8.894 69.102,9.146 C68.997,9.188 68.955,9.23 68.955,9.293 L68.955,9.482 C68.955,9.566 68.997,9.608 69.144,9.629 C70.194,9.797 70.32,10.175 70.32,10.889 L70.32,13.976 C70.32,14.606 70.32,15.257 70.299,15.887 C70.278,16.223 70.194,16.307 69.963,16.307 L68.934,16.307 C68.787,16.307 68.724,16.349 68.724,16.475 L68.724,16.895 C68.724,17.021 68.787,17.063 68.892,17.063 C69.123,17.063 69.942,17 71.16,17 Z M78.111,17.315 C78.342,17.315 78.447,17.126 78.615,16.832 C78.699,16.685 80.253,13.157 80.505,12.527 C80.82,11.75 81.87,9.44 82.185,9.146 C82.374,8.957 82.584,8.915 82.836,8.915 L83.235,8.915 C83.34,8.915 83.34,8.852 83.34,8.705 L83.34,8.348 C83.34,8.18 83.319,8.159 83.151,8.159 C82.962,8.159 82.458,8.222 81.639,8.222 C80.715,8.222 80.253,8.159 79.959,8.159 C79.875,8.159 79.833,8.201 79.833,8.327 L79.833,8.705 C79.833,8.81 79.854,8.915 79.917,8.915 L80.337,8.915 C80.715,8.915 80.862,9.251 80.715,9.818 C80.505,10.637 79.035,14.249 78.699,15.068 L78.636,15.068 C78.405,14.627 77.502,12.212 77.376,11.813 C77.25,11.456 76.704,9.692 76.704,9.314 C76.704,9.041 76.872,8.915 77.082,8.915 L77.502,8.915 C77.628,8.915 77.649,8.831 77.649,8.705 L77.649,8.327 C77.649,8.201 77.607,8.159 77.439,8.159 C77.2234,8.159 76.7334,8.21388 75.7641147,8.22119733 L75.549,8.222 C74.373,8.222 74.016,8.159 73.785,8.159 C73.596,8.159 73.554,8.18 73.554,8.327 L73.554,8.705 C73.554,8.831 73.575,8.915 73.68,8.915 L74.1,8.915 C74.478,8.915 74.688,9.083 74.961,9.692 C75.108,10.028 75.969,12.443 76.032,12.611 L77.67,16.874 C77.775,17.126 77.901,17.315 78.111,17.315 Z M85.23,5.618 C86.112,5.618 86.49,4.946 86.49,4.379 C86.49,3.896 86.133,3.266 85.356,3.266 C84.495,3.266 84.033,3.896 84.033,4.442 C84.033,5.135 84.747,5.618 85.23,5.618 Z M85.86,17 C86.742,17 87.708,17.063 87.876,17.063 C88.023,17.063 88.065,17 88.065,16.853 L88.065,16.496 C88.065,16.37 88.023,16.307 87.855,16.307 L86.889,16.307 C86.658,16.307 86.595,16.16 86.553,15.761 C86.539,15.607 86.5343333,15.2196667 86.5327778,14.7358889 L86.5327654,10.3871554 C86.5349086,9.29358172 86.5430526,8.50605263 86.574,8.243 C86.595,8.096 86.574,7.991 86.469,7.991 C86.343,7.991 86.238,8.033 86.07,8.117 C85.272,8.558 84.474,8.894 83.802,9.146 C83.697,9.188 83.655,9.23 83.655,9.293 L83.655,9.482 C83.655,9.566 83.697,9.608 83.844,9.629 C84.894,9.797 85.02,10.175 85.02,10.889 L85.02,13.976 C85.02,14.606 85.02,15.257 84.999,15.887 C84.978,16.223 84.894,16.307 84.663,16.307 L83.634,16.307 C83.487,16.307 83.424,16.349 83.424,16.475 L83.424,16.895 C83.424,17.021 83.487,17.063 83.592,17.063 C83.823,17.063 84.642,17 85.86,17 Z M91.32,17 C92.433,17 93,17.063 93.147,17.063 C93.252,17.063 93.294,17 93.294,16.874 L93.294,16.517 C93.294,16.37 93.252,16.307 93.084,16.307 L92.559,16.307 C92.118,16.307 92.055,16.181 92.055,15.614 L92.055,11.267 C92.055,10.868 92.118,10.301 92.538,9.839 C93.168,9.167 93.903,9.02 94.239,9.02 C94.764,9.02 95.268,9.02 95.772,9.398 C96.381,9.839 96.381,10.448 96.381,11.288 L96.381,14.06 C96.381,14.606 96.36,15.278 96.339,15.824 C96.318,16.202 96.15,16.307 95.919,16.307 L95.31,16.307 C95.1,16.307 95.037,16.349 95.037,16.496 L95.037,16.832 C95.037,17 95.079,17.063 95.205,17.063 C95.352,17.063 96.024,17 97.095,17 C98.292,17 98.943,17.063 99.09,17.063 C99.216,17.063 99.258,16.979 99.258,16.832 L99.258,16.496 C99.258,16.37 99.216,16.307 99.027,16.307 L98.355,16.307 C98.082,16.307 97.893,16.202 97.893,15.866 L97.893,10.448 C97.893,9.923 97.368,8.873 96.738,8.453 C96.234,8.117 95.583,7.991 94.953,7.991 C93.903,7.991 92.685,8.768 92.076,9.524 L92.034,9.524 L91.887,8.243 C91.866,8.075 91.824,7.991 91.719,7.991 C91.635,7.991 91.509,8.054 91.341,8.138 L89.535,9.146 C89.43,9.188 89.346,9.251 89.346,9.356 L89.346,9.461 C89.346,9.524 89.367,9.587 89.514,9.65 L89.682,9.734 C90.207,9.986 90.543,10.343 90.543,10.973 L90.543,15.887 C90.543,16.244 90.396,16.307 90.123,16.307 L89.514,16.307 C89.346,16.307 89.304,16.37 89.304,16.496 L89.304,16.874 C89.304,17 89.346,17.063 89.451,17.063 C89.577,17.063 90.249,17 91.32,17 Z M104.235,22.712 C106.02,22.712 107.28,22.124 107.826,21.725 C108.876,20.948 109.233,20.129 109.233,19.142 C109.212,18.638 109.107,17.798 108.204,17.126 C107.364,16.475 106.314,16.286 104.592,16.37 C103.185,16.454 102.135,16.517 102.135,15.656 C102.135,15.068 102.828,14.648 103.248,14.48 C103.563,14.564 103.857,14.585 104.319,14.585 C105.012,14.585 106.209,14.144 106.755,13.535 C107.301,12.884 107.532,12.086 107.532,11.267 C107.532,10.553 107.385,10.091 107.217,9.671 C107.49,9.545 107.742,9.545 107.889,9.545 C108.057,9.545 108.204,9.65 108.33,9.734 C108.498,9.881 108.708,10.049 109.065,10.049 C109.548,10.049 109.884,9.671 109.884,9.272 C109.926,8.852 109.59,8.39 108.897,8.39 C108.204,8.39 107.49,8.81 106.923,9.209 C106.713,8.957 105.873,7.991 104.277,7.991 C101.904,7.991 100.686,9.671 100.686,11.036 C100.686,12.905 101.82,13.871 102.639,14.228 L102.639,14.27 C101.904,14.543 100.749,15.257 100.749,16.265 C100.749,16.895 101.274,17.546 102.156,17.735 L102.156,17.819 C101.148,18.26 99.951,19.163 99.951,20.339 C99.951,21.032 100.266,21.578 101.022,22.04 C102.03,22.607 103.227,22.712 104.235,22.712 Z M104.109,13.997 C103.605,13.997 103.227,13.829 102.849,13.472 C102.408,13.01 102.177,12.359 102.177,11.645 C102.177,10.847 102.261,9.881 102.933,9.167 C103.437,8.663 103.941,8.579 104.424,8.579 C104.739,8.579 105.159,8.768 105.432,9.041 C105.81,9.461 105.999,10.007 105.999,10.931 C105.999,12.254 105.537,13.997 104.109,13.997 Z M104.97,22.04 C103.479,22.04 102.723,21.935 102.03,21.452 C101.61,21.158 101.211,20.528 101.211,20.003 C101.211,18.869 102.24,18.155 102.891,17.987 L104.907,17.84 C107.007,17.693 107.952,18.638 107.952,19.877 C108.057,21.494 105.747,22.04 104.97,22.04 Z" id="Giving" fill-rule="nonzero"></path>
            </g>
        </g>
    </g>
</svg>