<?xml version="1.0" encoding="UTF-8"?>
<svg width="196px" height="34px" viewBox="0 0 196 34" version="1.1" xmlns="http://www.w3.org/2000/svg" xmlns:xlink="http://www.w3.org/1999/xlink">
    <title>Georgetown University Advancement</title>
    <g stroke="none" stroke-width="1" fill="none" fill-rule="evenodd">
        <g transform="translate(-66.000000, -15.000000)">
            <g>
                <g>
                    <g transform="translate(66.000000, 16.000000)">
                        <g transform="translate(49.000000, 0.000000)">
                            <line x1="0.5" y1="0" x2="0.5" y2="31" stroke="#FFFFFF" stroke-width="2" stroke-linecap="square"></line>
                            <path d="M15.76,24 C17.176,24 18.16,24.072 18.496,24.072 C18.616,24.072 18.688,24.024 18.688,23.856 L18.688,23.304 C18.688,23.184 18.616,23.136 18.448,23.136 L17.32,23.136 C16.792,23.136 16.504,22.944 16.504,22.608 C16.504,22.488 16.552,22.248 16.576,22.08 C16.696,21.576 18.016,17.928 18.256,17.328 L24.16,17.328 C24.496,18.288 25.48,21.36 25.672,22.224 C25.84,22.896 25.624,23.136 24.952,23.136 L24.352,23.136 C24.208,23.136 24.136,23.16 24.136,23.304 L24.136,23.856 C24.136,24 24.208,24.072 24.328,24.072 C24.88,24.072 25.72,24 27.712,24 C29.656,24 30.16,24.072 30.592,24.072 C30.76,24.072 30.832,24.024 30.832,23.904 L30.832,23.304 C30.832,23.208 30.784,23.136 30.64,23.136 L29.848,23.136 C29.248,23.136 28.624,22.848 28.216,22.056 C27.88,21.36 26.32,16.896 25.768,15.024 C25.312,13.488 23.44,8.112 22.984,6.6 C22.912,6.336 22.864,6.192 22.72,6.192 C22.6,6.192 22.528,6.288 22.408,6.408 C22.144,6.744 21.088,7.464 20.416,7.608 C20.248,7.656 20.2,7.752 20.2,7.824 C20.2,7.92 20.296,8.04 20.368,8.136 C20.536,8.4 20.416,8.712 20.344,8.952 C20.128,9.6 18.184,14.76 18.016,15.24 C17.32,17.208 15.568,21.648 15.4,22.032 C15.064,22.8 14.728,23.136 14.008,23.136 L13.168,23.136 C13.072,23.136 12.976,23.184 12.976,23.304 L12.976,23.88 C12.976,24.024 13.024,24.072 13.144,24.072 C13.48,24.072 14.008,24 15.76,24 Z M23.872,16.464 L18.568,16.464 C18.736,15.864 21.016,9.72 21.136,9.408 C21.208,9.216 21.304,9.048 21.4,9.048 C21.472,9.048 21.52,9.216 21.592,9.384 C21.712,9.744 23.656,15.744 23.872,16.464 Z M36.064,24.288 C37.288,24.288 38.824,23.76 39.592,22.992 L39.904,24.048 C39.952,24.216 40.072,24.288 40.216,24.24 L42.928,23.328 C43.072,23.28 43.12,23.208 43.096,23.064 L43.048,22.872 C43,22.752 42.904,22.728 42.568,22.704 C42.232,22.68 41.728,22.536 41.512,22.296 C41.3328,22.072 41.27904,21.1371733 41.2726684,20.2915484 L41.272856,13.8167438 C41.2776939,11.0404592 41.3037143,8.15142857 41.368,7.08 C41.392,6.816 41.368,6.648 41.248,6.648 C41.08,6.648 40.912,6.696 40.696,6.72 C40.24,6.816 38.992,7.032 38.056,7.224 C37.912,7.248 37.864,7.296 37.864,7.392 L37.864,7.8 C37.864,7.896 37.888,7.944 38.032,7.968 C39.376,8.184 39.544,8.472 39.544,9.384 L39.544,14.064 C38.824,13.848 37.96,13.704 36.976,13.704 C35.632,13.704 34.336,14.208 33.4,15.216 C32.272,16.344 31.72,17.808 31.72,19.296 C31.72,20.904 32.008,21.984 33.232,23.184 C34.36,24.336 35.272,24.288 36.064,24.288 Z M36.784,23.256 C35.392,23.256 33.52,21.288 33.52,18.576 C33.52,17.664 33.688,16.392 34.624,15.384 C35.248,14.736 36.064,14.52 36.808,14.52 C38.224,14.52 38.992,15.168 39.328,15.816 C39.544,16.2 39.544,16.656 39.544,16.992 L39.544,21.12 C39.544,21.384 39.52,21.576 39.4,21.936 C39.16,22.56 38.128,23.256 36.784,23.256 Z M48.28,24.36 C48.544,24.36 48.664,24.144 48.856,23.808 C48.952,23.64 50.728,19.608 51.016,18.888 C51.376,18 52.576,15.36 52.936,15.024 C53.152,14.808 53.392,14.76 53.68,14.76 L54.136,14.76 C54.256,14.76 54.256,14.688 54.256,14.52 L54.256,14.112 C54.256,13.92 54.232,13.896 54.04,13.896 C53.824,13.896 53.248,13.968 52.312,13.968 C51.256,13.968 50.728,13.896 50.392,13.896 C50.296,13.896 50.248,13.944 50.248,14.088 L50.248,14.52 C50.248,14.64 50.272,14.76 50.344,14.76 L50.824,14.76 C51.256,14.76 51.424,15.144 51.256,15.792 C51.016,16.728 49.336,20.856 48.952,21.792 L48.88,21.792 C48.616,21.288 47.584,18.528 47.44,18.072 C47.296,17.664 46.672,15.648 46.672,15.216 C46.672,14.904 46.864,14.76 47.104,14.76 L47.584,14.76 C47.728,14.76 47.752,14.664 47.752,14.52 L47.752,14.088 C47.752,13.944 47.704,13.896 47.512,13.896 C47.2656,13.896 46.7056,13.95872 45.5978453,13.9670827 L45.352,13.968 C44.008,13.968 43.6,13.896 43.336,13.896 C43.12,13.896 43.072,13.92 43.072,14.088 L43.072,14.52 C43.072,14.664 43.096,14.76 43.216,14.76 L43.696,14.76 C44.128,14.76 44.368,14.952 44.68,15.648 C44.848,16.032 45.832,18.792 45.904,18.984 L47.776,23.856 C47.896,24.144 48.04,24.36 48.28,24.36 Z M57.808,24.144 C58.888,23.784 59.68,23.28 60.184,22.68 L60.232,22.68 C60.448,23.664 61.072,24.288 61.936,24.288 C63.16,24.288 63.616,23.472 63.808,23.112 C63.952,22.872 63.904,22.752 63.832,22.68 L63.592,22.488 C63.496,22.416 63.448,22.464 63.352,22.584 C63.232,22.752 62.896,22.944 62.512,22.944 C62.08,22.944 61.792,22.512 61.792,21.144 L61.792,16.056 C61.792,15.408 61.768,14.856 61.264,14.352 C60.928,14.04 60.472,13.704 59.344,13.704 C58.264,13.704 57.424,13.944 56.416,14.544 C55.432,15.12 54.76,16.032 54.76,16.8 C54.76,17.352 54.952,17.568 55.336,17.568 C56.32,17.568 56.608,17.04 56.608,16.2 C56.608,15.768 56.392,15.408 56.728,15.096 C57.064,14.784 57.808,14.592 58.288,14.592 C58.984,14.592 59.464,14.808 59.728,15.12 C59.992,15.432 60.016,16.056 60.064,16.464 L60.064,18 C59.68,18.336 58.432,18.912 57.352,19.392 C55.456,20.232 54.952,21.192 54.952,22.296 C54.952,23.808 55.816,24.288 56.392,24.288 C56.92,24.288 57.352,24.288 57.808,24.144 Z M58.072,23.16 C57.352,23.16 56.824,22.728 56.824,21.84 C56.824,19.848 59.176,19.368 60.04,18.72 L60.04,21.672 C60.04,22.32 58.768,23.16 58.072,23.16 Z M67.216,24 C68.488,24 69.136,24.072 69.304,24.072 C69.424,24.072 69.472,24 69.472,23.856 L69.472,23.448 C69.472,23.28 69.424,23.208 69.232,23.208 L68.632,23.208 C68.128,23.208 68.056,23.064 68.056,22.416 L68.056,17.448 C68.056,16.992 68.128,16.344 68.608,15.816 C69.328,15.048 70.168,14.88 70.552,14.88 C71.152,14.88 71.728,14.88 72.304,15.312 C72.9536,15.7824 72.9969067,16.4200533 72.9997938,17.2834987 L73,20.64 C73,21.264 72.976,22.032 72.952,22.656 C72.928,23.088 72.736,23.208 72.472,23.208 L71.776,23.208 C71.536,23.208 71.464,23.256 71.464,23.424 L71.464,23.808 C71.464,24 71.512,24.072 71.656,24.072 C71.824,24.072 72.592,24 73.816,24 C75.184,24 75.928,24.072 76.096,24.072 C76.24,24.072 76.288,23.976 76.288,23.808 L76.288,23.424 C76.288,23.28 76.24,23.208 76.024,23.208 L75.256,23.208 C74.944,23.208 74.728,23.088 74.728,22.704 L74.728,16.512 C74.728,15.912 74.128,14.712 73.408,14.232 C72.832,13.848 72.088,13.704 71.368,13.704 C70.168,13.704 68.776,14.592 68.08,15.456 L68.032,15.456 L67.864,13.992 C67.84,13.8 67.792,13.704 67.672,13.704 C67.576,13.704 67.432,13.776 67.24,13.872 L65.176,15.024 C65.056,15.072 64.96,15.144 64.96,15.264 L64.96,15.384 C64.96,15.444 64.9766667,15.504 65.0794444,15.564 L65.344,15.696 C65.944,15.984 66.328,16.392 66.328,17.112 L66.328,22.728 C66.328,23.136 66.16,23.208 65.848,23.208 L65.152,23.208 C64.96,23.208 64.912,23.28 64.912,23.424 L64.912,23.856 C64.912,24 64.96,24.072 65.08,24.072 C65.224,24.072 65.992,24 67.216,24 Z M82.432,24.288 C84.064,24.288 85.6,23.376 86.296,22.584 C86.416,22.44 86.392,22.368 86.296,22.272 L86.056,22.032 C85.984,21.96 85.912,21.984 85.864,22.032 C85.048,22.8 84.424,23.064 83.224,23.064 C82.408,23.064 81.4,22.872 80.608,21.84 C79.96,20.952 79.384,19.488 79.384,18.192 C79.384,15.72 80.848,14.472 82.216,14.472 C82.792,14.472 83.296,14.544 83.824,15.528 C84.184,16.176 84.592,16.488 85.144,16.488 C85.648,16.488 86.008,16.2 86.032,15.648 C86.032,15.144 85.264,13.704 82.768,13.704 C79.6,13.704 77.632,16.536 77.632,19.344 C77.632,20.424 77.824,21.432 78.712,22.608 C79.816,24 81.16,24.288 82.432,24.288 Z M92.32,24.288 C94.456,24.288 95.704,22.632 96.136,21.672 C96.256,21.408 96.208,21.336 96.136,21.312 L95.824,21.144 C95.752,21.12 95.656,21.168 95.608,21.264 C95.2,22.056 94.168,22.896 92.704,22.896 C90.784,22.896 89.296,21.12 89.296,18.768 C89.296,18.216 89.32,17.832 89.368,17.616 L95.296,17.616 C95.68,17.616 95.968,17.568 95.968,17.232 C95.968,16.296 95.2,13.704 92.44,13.704 C91.24,13.704 90.04,13.92 89.008,14.976 C87.736,16.248 87.496,17.856 87.496,18.792 C87.496,20.472 87.712,21.36 88.552,22.584 C89.44,23.88 90.952,24.288 92.32,24.288 Z M93.184,16.896 L89.464,16.896 C89.92,15.12 90.928,14.424 91.984,14.424 C93.544,14.424 93.832,16.008 93.832,16.56 C93.832,16.776 93.64,16.896 93.184,16.896 Z M100.12,24 C101.44,24 102.088,24.072 102.304,24.072 C102.472,24.072 102.496,23.976 102.496,23.808 L102.496,23.424 C102.496,23.256 102.472,23.208 102.256,23.208 L101.392,23.208 C101.056,23.208 100.912,22.968 100.912,22.584 L100.912,17.832 C100.912,17.16 100.96,16.704 101.248,16.224 C101.92,15.144 102.928,14.832 103.552,14.832 C104.08,14.832 104.776,14.976 105.088,15.264 C105.472,15.624 105.808,16.08 105.808,17.856 L105.808,22.8 C105.808,23.112 105.664,23.208 105.28,23.208 L104.584,23.208 C104.368,23.208 104.344,23.256 104.344,23.448 L104.344,23.832 C104.344,24 104.392,24.072 104.512,24.072 C104.656,24.072 105.472,24 106.768,24 C108.112,24 108.736,24.072 108.904,24.072 C109.024,24.072 109.072,24 109.072,23.808 L109.072,23.424 C109.072,23.256 109.024,23.208 108.808,23.208 L107.992,23.208 C107.632,23.208 107.512,22.968 107.512,22.656 L107.512,18.504 C107.512,17.424 107.488,16.776 107.848,16.08 C108.232,15.384 109.216,14.832 109.936,14.832 C110.656,14.832 111.28,15 111.712,15.336 C112.264,15.768 112.408,16.464 112.408,17.256 L112.408,20.808 C112.408,21.336 112.408,22.2 112.36,22.752 C112.336,23.088 112.144,23.208 111.88,23.208 L111.28,23.208 C111.016,23.208 110.968,23.256 110.968,23.424 L110.968,23.832 C110.968,24 111.016,24.072 111.16,24.072 C111.328,24.072 112.192,24 113.392,24 C114.544,24 115.216,24.072 115.384,24.072 C115.504,24.072 115.552,24 115.552,23.832 L115.552,23.424 C115.552,23.256 115.504,23.208 115.288,23.208 L114.64,23.208 C114.352,23.208 114.136,23.088 114.136,22.728 L114.136,17.376 C114.136,15.528 113.536,15 112.984,14.424 C112.408,13.848 111.664,13.704 110.824,13.704 C109.384,13.704 108.016,14.616 107.296,15.552 L107.176,15.552 C106.672,14.424 105.712,13.704 104.464,13.704 C103.072,13.704 101.656,14.544 100.936,15.528 L100.864,15.528 L100.768,14.136 C100.768,13.968 100.696,13.8 100.552,13.8 C100.456,13.8 100.288,13.848 100.096,13.944 L97.984,15.024 C97.936,15.048 97.84,15.144 97.84,15.216 L97.84,15.408 C97.84,15.48 97.888,15.528 98.008,15.6 L98.512,15.864 C99.088,16.176 99.184,16.608 99.184,17.088 L99.184,21.36 C99.184,21.768 99.184,22.2 99.16,22.608 C99.136,23.064 99.016,23.208 98.8,23.208 L97.984,23.208 C97.744,23.208 97.696,23.232 97.696,23.424 L97.696,23.856 C97.696,24.024 97.744,24.072 97.888,24.072 C98.08,24.072 98.848,24 100.12,24 Z M121.888,24.288 C124.024,24.288 125.272,22.632 125.704,21.672 C125.824,21.408 125.776,21.336 125.704,21.312 L125.392,21.144 C125.32,21.12 125.224,21.168 125.176,21.264 C124.768,22.056 123.736,22.896 122.272,22.896 C120.352,22.896 118.864,21.12 118.864,18.768 C118.864,18.216 118.888,17.832 118.936,17.616 L124.864,17.616 C125.248,17.616 125.536,17.568 125.536,17.232 C125.536,16.296 124.768,13.704 122.008,13.704 C120.808,13.704 119.608,13.92 118.576,14.976 C117.304,16.248 117.064,17.856 117.064,18.792 C117.064,20.472 117.28,21.36 118.12,22.584 C119.008,23.88 120.52,24.288 121.888,24.288 Z M122.752,16.896 L119.032,16.896 C119.488,15.12 120.496,14.424 121.552,14.424 C123.112,14.424 123.4,16.008 123.4,16.56 C123.4,16.776 123.208,16.896 122.752,16.896 Z M129.64,24 C130.912,24 131.56,24.072 131.728,24.072 C131.848,24.072 131.896,24 131.896,23.856 L131.896,23.448 C131.896,23.28 131.848,23.208 131.656,23.208 L131.056,23.208 C130.552,23.208 130.48,23.064 130.48,22.416 L130.48,17.448 C130.48,16.992 130.552,16.344 131.032,15.816 C131.752,15.048 132.592,14.88 132.976,14.88 C133.576,14.88 134.152,14.88 134.728,15.312 C135.3776,15.7824 135.420907,16.4200533 135.423794,17.2834987 L135.424,20.64 C135.424,21.264 135.4,22.032 135.376,22.656 C135.352,23.088 135.16,23.208 134.896,23.208 L134.2,23.208 C133.96,23.208 133.888,23.256 133.888,23.424 L133.888,23.808 C133.888,24 133.936,24.072 134.08,24.072 C134.248,24.072 135.016,24 136.24,24 C137.608,24 138.352,24.072 138.52,24.072 C138.664,24.072 138.712,23.976 138.712,23.808 L138.712,23.424 C138.712,23.28 138.664,23.208 138.448,23.208 L137.68,23.208 C137.368,23.208 137.152,23.088 137.152,22.704 L137.152,16.512 C137.152,15.912 136.552,14.712 135.832,14.232 C135.256,13.848 134.512,13.704 133.792,13.704 C132.592,13.704 131.2,14.592 130.504,15.456 L130.456,15.456 L130.288,13.992 C130.264,13.8 130.216,13.704 130.096,13.704 C130,13.704 129.856,13.776 129.664,13.872 L127.6,15.024 C127.48,15.072 127.384,15.144 127.384,15.264 L127.384,15.384 C127.384,15.456 127.408,15.528 127.576,15.6 L127.768,15.696 C128.368,15.984 128.752,16.392 128.752,17.112 L128.752,22.728 C128.752,23.136 128.584,23.208 128.272,23.208 L127.576,23.208 C127.384,23.208 127.336,23.28 127.336,23.424 L127.336,23.856 C127.336,24 127.384,24.072 127.504,24.072 C127.648,24.072 128.416,24 129.64,24 Z M143.752,24.288 C145.192,24.288 146.176,23.568 146.416,23.328 C146.488,23.256 146.536,23.16 146.464,23.064 L146.344,22.848 C146.272,22.752 146.176,22.728 146.056,22.8 C145.72,23.016 145.024,23.112 144.472,23.112 C144.04,23.112 143.224,22.8 143.224,21 L143.224,18.6 C143.224,17.496 143.248,16.32 143.296,15.216 L146.392,15.216 C146.536,15.216 146.584,15.144 146.608,15.024 L146.848,14.184 C146.896,14.088 146.824,13.968 146.68,13.968 L143.344,13.968 L143.464,11.616 C143.464,11.424 143.416,11.256 143.224,11.256 C143.08,11.256 142.96,11.304 142.888,11.496 C142.576,12.312 140.728,14.16 140.152,14.496 C139.864,14.664 139.72,14.736 139.72,14.928 C139.72,15.12 139.864,15.216 140.08,15.216 L141.544,15.216 C141.52,16.224 141.496,17.856 141.496,18.288 L141.496,18.816 C141.496,19.152 141.424,21.264 141.424,22.248 C141.424,23.16 142.576,24.288 143.752,24.288 Z" fill="#FFFFFF" fill-rule="nonzero"></path>
                        </g>
                        <g transform="translate(0.000000, 8.000000)" fill="#FFFFFF" fill-rule="nonzero">
                            <path d="M12.6,18.8571429 C12.4285714,19.7142857 11.9142857,21.0857143 11.6571429,21.7714286 C11.0571429,23.0571429 9.25714286,24.6857143 7.37142857,24.6857143 C5.05714286,24.6857143 4.2,23.5714286 4.2,22.3714286 C4.2,21.5142857 4.62857143,20.8285714 5.48571429,20.8285714 C6.42857143,20.8285714 6.51428571,21.6 6.51428571,21.8571429 C6.51428571,22.1142857 6.42857143,22.5428571 6.25714286,22.7142857 C6.17142857,22.8 6.08571429,22.9714286 6.08571429,23.1428571 C6.08571429,23.6571429 6.68571429,23.9142857 7.2,23.9142857 C8.48571429,23.9142857 9.17142857,22.8857143 9.6,21.1714286 C9.85714286,20.0571429 10.3714286,18.0857143 11.2285714,14.7428571 L11.0571429,14.6571429 C10.7142857,15.0857143 9.34285714,17.1428571 6,17.1428571 C2.65714286,17.1428571 0.342857143,14.7428571 0.342857143,10.5428571 C0.342857143,7.37142857 1.8,4.71428571 3.6,2.91428571 C4.97142857,1.54285714 7.11428571,0.0857142857 10.4571429,0.0857142857 C13.0285714,0.0857142857 14.3142857,0.942857143 14.7428571,1.28571429 C15.0857143,1.54285714 15.2571429,1.54285714 15.4285714,1.54285714 C15.6857143,1.54285714 15.8571429,1.28571429 16.0285714,0.771428571 C16.0285714,0.685714286 16.1142857,0.6 16.2857143,0.685714286 L16.6285714,0.771428571 C16.7142857,0.771428571 16.8,0.857142857 16.8,0.942857143 L15.4285714,5.82857143 C15.3428571,6 15.3428571,6 15.1714286,6 L14.7428571,5.91428571 C14.6571429,5.91428571 14.5714286,5.82857143 14.5714286,5.65714286 C15,3.51428571 13.8,1.02857143 10.6285714,1.02857143 C9.08571429,1.02857143 7.28571429,1.54285714 5.57142857,3.85714286 C4.11428571,5.65714286 3.34285714,8.31428571 3.34285714,11.2285714 C3.34285714,15.2571429 5.82857143,15.8571429 6.85714286,15.8571429 C9.77142857,15.8571429 11.2285714,13.3714286 11.3142857,11.9142857 C11.4,10.9714286 11.1428571,10.8 10.4571429,10.8 L9.6,10.8 C9.42857143,10.8 9.34285714,10.7142857 9.42857143,10.5428571 L9.51428571,10.0285714 C9.51428571,9.85714286 9.6,9.85714286 9.77142857,9.85714286 C10.1142857,9.85714286 10.9714286,9.94285714 13.1142857,9.94285714 C14.7428571,9.94285714 15.3428571,9.85714286 15.6857143,9.85714286 C15.8571429,9.85714286 15.9428571,9.94285714 15.9428571,10.0285714 L15.8571429,10.6285714 C15.8571429,10.8 15.7714286,10.8 15.6,10.8 L15.0857143,10.8 C14.6571429,10.8 14.3142857,10.9714286 13.9714286,12.2571429 L12.6,18.8571429 Z"></path>
                            <path d="M20.4,2.82857143 C20.7428571,1.71428571 20.4,1.28571429 19.7142857,1.28571429 L18.8571429,1.28571429 C18.7714286,1.28571429 18.6857143,1.2 18.6857143,1.11428571 L18.7714286,0.514285714 C18.7714286,0.342857143 18.8571429,0.342857143 19.1142857,0.342857143 C19.3714286,0.342857143 20.2285714,0.428571429 22.4571429,0.428571429 C24.4285714,0.428571429 25.2857143,0.342857143 25.5428571,0.342857143 C25.7142857,0.342857143 25.8,0.428571429 25.8,0.6 L25.7142857,1.11428571 C25.7142857,1.2 25.6285714,1.28571429 25.4571429,1.28571429 L24.6857143,1.28571429 C24.2571429,1.28571429 23.5714286,1.37142857 23.2285714,2.57142857 L21.2571429,9.08571429 C21.0857143,9.6 20.5714286,11.4 20.5714286,12.5142857 C20.5714286,15.5142857 23.1428571,15.7714286 23.9142857,15.7714286 C25.1142857,15.7714286 26.3142857,15.3428571 27.0857143,14.6571429 C28.2,13.7142857 29.0571429,12.3428571 29.8285714,9.68571429 L31.6285714,3.42857143 C32.0571429,1.8 31.8,1.2 31.0285714,1.2 L30.2571429,1.2 C30,1.2 30,1.11428571 30,1.02857143 L30.0857143,0.514285714 C30.0857143,0.342857143 30.1714286,0.257142857 30.3428571,0.257142857 C30.6,0.257142857 31.5428571,0.342857143 33.1714286,0.342857143 C34.6285714,0.342857143 35.1428571,0.257142857 35.4,0.257142857 C35.6571429,0.257142857 35.6571429,0.342857143 35.6571429,0.514285714 L35.5714286,1.02857143 C35.5714286,1.11428571 35.4857143,1.2 35.3142857,1.2 L34.9714286,1.2 C34.2,1.2 33.6857143,1.97142857 33.3428571,3.17142857 L31.2,9.85714286 C29.9142857,14.2285714 27.9428571,17.0571429 23.4,17.0571429 C20.2285714,17.0571429 17.9142857,15.6 17.9142857,12.6 C17.9142857,11.5714286 18.2571429,10.0285714 18.4285714,9.51428571 L20.4,2.82857143 Z"></path>
                        </g>
                    </g>
                </g>
            </g>
        </g>
    </g>
</svg>