<?xml version="1.0" encoding="UTF-8"?>
<svg width="36px" height="25px" viewBox="0 0 36 25" version="1.1" xmlns="http://www.w3.org/2000/svg" xmlns:xlink="http://www.w3.org/1999/xlink">
    <title>Georgetown University</title>
    <g id="Symbols" stroke="none" stroke-width="1" fill="none" fill-rule="evenodd">
        <g id="mobile/footer/feed" transform="translate(-144.000000, -21.000000)">
            <rect fill="#FFFFFF" x="0" y="0" width="320" height="135"></rect>
            <g id="Group">
                <rect id="Rectangle" fill="#041E42" x="0" y="0" width="320" height="63"></rect>
                <g id="logo/advancement/lockup-small" transform="translate(134.000000, 9.000000)" fill="#FFFFFF">
                    <g id="gu" transform="translate(10.000000, 12.000000)">
                        <path d="M12.6,18.8571429 C12.4285714,19.7142857 11.9142857,21.0857143 11.6571429,21.7714286 C11.0571429,23.0571429 9.25714286,24.6857143 7.37142857,24.6857143 C5.05714286,24.6857143 4.2,23.5714286 4.2,22.3714286 C4.2,21.5142857 4.62857143,20.8285714 5.48571429,20.8285714 C6.42857143,20.8285714 6.51428571,21.6 6.51428571,21.8571429 C6.51428571,22.1142857 6.42857143,22.5428571 6.25714286,22.7142857 C6.17142857,22.8 6.08571429,22.9714286 6.08571429,23.1428571 C6.08571429,23.6571429 6.68571429,23.9142857 7.2,23.9142857 C8.48571429,23.9142857 9.17142857,22.8857143 9.6,21.1714286 C9.85714286,20.0571429 10.3714286,18.0857143 11.2285714,14.7428571 L11.0571429,14.6571429 C10.7142857,15.0857143 9.34285714,17.1428571 6,17.1428571 C2.65714286,17.1428571 0.342857143,14.7428571 0.342857143,10.5428571 C0.342857143,7.37142857 1.8,4.71428571 3.6,2.91428571 C4.97142857,1.54285714 7.11428571,0.0857142857 10.4571429,0.0857142857 C13.0285714,0.0857142857 14.3142857,0.942857143 14.7428571,1.28571429 C15.0857143,1.54285714 15.2571429,1.54285714 15.4285714,1.54285714 C15.6857143,1.54285714 15.8571429,1.28571429 16.0285714,0.771428571 C16.0285714,0.685714286 16.1142857,0.6 16.2857143,0.685714286 L16.6285714,0.771428571 C16.7142857,0.771428571 16.8,0.857142857 16.8,0.942857143 L15.4285714,5.82857143 C15.3428571,6 15.3428571,6 15.1714286,6 L14.7428571,5.91428571 C14.6571429,5.91428571 14.5714286,5.82857143 14.5714286,5.65714286 C15,3.51428571 13.8,1.02857143 10.6285714,1.02857143 C9.08571429,1.02857143 7.28571429,1.54285714 5.57142857,3.85714286 C4.11428571,5.65714286 3.34285714,8.31428571 3.34285714,11.2285714 C3.34285714,15.2571429 5.82857143,15.8571429 6.85714286,15.8571429 C9.77142857,15.8571429 11.2285714,13.3714286 11.3142857,11.9142857 C11.4,10.9714286 11.1428571,10.8 10.4571429,10.8 L9.6,10.8 C9.42857143,10.8 9.34285714,10.7142857 9.42857143,10.5428571 L9.51428571,10.0285714 C9.51428571,9.85714286 9.6,9.85714286 9.77142857,9.85714286 C10.1142857,9.85714286 10.9714286,9.94285714 13.1142857,9.94285714 C14.7428571,9.94285714 15.3428571,9.85714286 15.6857143,9.85714286 C15.8571429,9.85714286 15.9428571,9.94285714 15.9428571,10.0285714 L15.8571429,10.6285714 C15.8571429,10.8 15.7714286,10.8 15.6,10.8 L15.0857143,10.8 C14.6571429,10.8 14.3142857,10.9714286 13.9714286,12.2571429 L12.6,18.8571429 Z" fill-rule="nonzero"></path>
                        <path d="M20.4,2.82857143 C20.7428571,1.71428571 20.4,1.28571429 19.7142857,1.28571429 L18.8571429,1.28571429 C18.7714286,1.28571429 18.6857143,1.2 18.6857143,1.11428571 L18.7714286,0.514285714 C18.7714286,0.342857143 18.8571429,0.342857143 19.1142857,0.342857143 C19.3714286,0.342857143 20.2285714,0.428571429 22.4571429,0.428571429 C24.4285714,0.428571429 25.2857143,0.342857143 25.5428571,0.342857143 C25.7142857,0.342857143 25.8,0.428571429 25.8,0.6 L25.7142857,1.11428571 C25.7142857,1.2 25.6285714,1.28571429 25.4571429,1.28571429 L24.6857143,1.28571429 C24.2571429,1.28571429 23.5714286,1.37142857 23.2285714,2.57142857 L21.2571429,9.08571429 C21.0857143,9.6 20.5714286,11.4 20.5714286,12.5142857 C20.5714286,15.5142857 23.1428571,15.7714286 23.9142857,15.7714286 C25.1142857,15.7714286 26.3142857,15.3428571 27.0857143,14.6571429 C28.2,13.7142857 29.0571429,12.3428571 29.8285714,9.68571429 L31.6285714,3.42857143 C32.0571429,1.8 31.8,1.2 31.0285714,1.2 L30.2571429,1.2 C30,1.2 30,1.11428571 30,1.02857143 L30.0857143,0.514285714 C30.0857143,0.342857143 30.1714286,0.257142857 30.3428571,0.257142857 C30.6,0.257142857 31.5428571,0.342857143 33.1714286,0.342857143 C34.6285714,0.342857143 35.1428571,0.257142857 35.4,0.257142857 C35.6571429,0.257142857 35.6571429,0.342857143 35.6571429,0.514285714 L35.5714286,1.02857143 C35.5714286,1.11428571 35.4857143,1.2 35.3142857,1.2 L34.9714286,1.2 C34.2,1.2 33.6857143,1.97142857 33.3428571,3.17142857 L31.2,9.85714286 C29.9142857,14.2285714 27.9428571,17.0571429 23.4,17.0571429 C20.2285714,17.0571429 17.9142857,15.6 17.9142857,12.6 C17.9142857,11.5714286 18.2571429,10.0285714 18.4285714,9.51428571 L20.4,2.82857143 Z" fill-rule="nonzero"></path>
                    </g>
                </g>
            </g>
        </g>
    </g>
</svg>
