<?xml version="1.0" encoding="UTF-8"?>
<svg width="175px" height="25px" viewBox="0 0 175 25" version="1.1" xmlns="http://www.w3.org/2000/svg" xmlns:xlink="http://www.w3.org/1999/xlink">
    <g stroke="none" stroke-width="1" fill="none" fill-rule="evenodd">
        <g transform="translate(-69.000000, -20.000000)" fill="#FFFFFF">
            <g transform="translate(69.000000, 20.000000)">
                <path d="M56.28,18 L56.28,11.56 L62.78,11.56 L62.78,18 L65.28,18 L65.28,3.72 L62.78,3.72 L62.78,9.4 L56.28,9.4 L56.28,3.72 L53.78,3.72 L53.78,18 L56.28,18 Z M72.7,18.28 C73.5266667,18.28 74.2633333,18.1433333 74.91,17.87 C75.5566667,17.5966667 76.1033333,17.22 76.55,16.74 C76.9966667,16.26 77.3366667,15.6866667 77.57,15.02 C77.8033333,14.3533333 77.92,13.62 77.92,12.82 C77.92,12.0333333 77.8033333,11.3066667 77.57,10.64 C77.3366667,9.97333333 76.9966667,9.4 76.55,8.92 C76.1033333,8.44 75.5566667,8.06333333 74.91,7.79 C74.2633333,7.51666667 73.5266667,7.38 72.7,7.38 C71.8733333,7.38 71.1366667,7.51666667 70.49,7.79 C69.8433333,8.06333333 69.2966667,8.44 68.85,8.92 C68.4033333,9.4 68.0633333,9.97333333 67.83,10.64 C67.5966667,11.3066667 67.48,12.0333333 67.48,12.82 C67.48,13.62 67.5966667,14.3533333 67.83,15.02 C68.0633333,15.6866667 68.4033333,16.26 68.85,16.74 C69.2966667,17.22 69.8433333,17.5966667 70.49,17.87 C71.1366667,18.1433333 71.8733333,18.28 72.7,18.28 Z M72.7,16.48 C72.1933333,16.48 71.7533333,16.3733333 71.38,16.16 C71.0066667,15.9466667 70.7,15.6666667 70.46,15.32 C70.22,14.9733333 70.0433333,14.5833333 69.93,14.15 C69.8166667,13.7166667 69.76,13.2733333 69.76,12.82 C69.76,12.38 69.8166667,11.94 69.93,11.5 C70.0433333,11.06 70.22,10.67 70.46,10.33 C70.7,9.99 71.0066667,9.71333333 71.38,9.5 C71.7533333,9.28666667 72.1933333,9.18 72.7,9.18 C73.2066667,9.18 73.6466667,9.28666667 74.02,9.5 C74.3933333,9.71333333 74.7,9.99 74.94,10.33 C75.18,10.67 75.3566667,11.06 75.47,11.5 C75.5833333,11.94 75.64,12.38 75.64,12.82 C75.64,13.2733333 75.5833333,13.7166667 75.47,14.15 C75.3566667,14.5833333 75.18,14.9733333 74.94,15.32 C74.7,15.6666667 74.3933333,15.9466667 74.02,16.16 C73.6466667,16.3733333 73.2066667,16.48 72.7,16.48 Z M82.1,18 L82.1,11.86 C82.1,11.4333333 82.1633333,11.0533333 82.29,10.72 C82.4166667,10.3866667 82.5833333,10.1066667 82.79,9.88 C82.9966667,9.65333333 83.2366667,9.48 83.51,9.36 C83.7833333,9.24 84.0666667,9.18 84.36,9.18 C85.0533333,9.18 85.53,9.36333333 85.79,9.73 C86.05,10.0966667 86.18,10.64 86.18,11.36 L86.18,11.36 L86.18,18 L88.46,18 L88.46,11.94 C88.46,11.06 88.6333333,10.38 88.98,9.9 C89.3266667,9.42 89.8866667,9.18 90.66,9.18 C91.1,9.18 91.4466667,9.24666667 91.7,9.38 C91.9533333,9.51333333 92.1433333,9.70333333 92.27,9.95 C92.3966667,10.1966667 92.4733333,10.49 92.5,10.83 C92.5266667,11.17 92.54,11.5466667 92.54,11.96 L92.54,11.96 L92.54,18 L94.82,18 L94.82,10.86 C94.82,9.60666667 94.5166667,8.71333333 93.91,8.18 C93.3033333,7.64666667 92.4533333,7.38 91.36,7.38 C90.6,7.38 89.9666667,7.53333333 89.46,7.84 C88.9533333,8.14666667 88.5066667,8.56666667 88.12,9.1 C87.8933333,8.51333333 87.51,8.08 86.97,7.8 C86.43,7.52 85.8466667,7.38 85.22,7.38 C84.8066667,7.38 84.44,7.42333333 84.12,7.51 C83.8,7.59666667 83.5166667,7.71333333 83.27,7.86 C83.0233333,8.00666667 82.8,8.18666667 82.6,8.4 C82.4,8.61333333 82.2133333,8.84666667 82.04,9.1 L82.04,9.1 L81.98,9.1 L81.98,7.66 L79.82,7.66 L79.82,18 L82.1,18 Z M101.78,18.28 C102.34,18.28 102.876667,18.2033333 103.39,18.05 C103.903333,17.8966667 104.366667,17.67 104.78,17.37 C105.193333,17.07 105.546667,16.7 105.84,16.26 C106.133333,15.82 106.34,15.32 106.46,14.76 L106.46,14.76 L104.3,14.76 C104.1,15.3333333 103.796667,15.7633333 103.39,16.05 C102.983333,16.3366667 102.446667,16.48 101.78,16.48 C101.3,16.48 100.886667,16.3966667 100.54,16.23 C100.193333,16.0633333 99.9066667,15.84 99.68,15.56 C99.4533333,15.28 99.2833333,14.9533333 99.17,14.58 C99.0566667,14.2066667 99,13.82 99,13.42 L99,13.42 L106.6,13.42 C106.693333,12.6466667 106.643333,11.8966667 106.45,11.17 C106.256667,10.4433333 105.946667,9.8 105.52,9.24 C105.093333,8.68 104.556667,8.23 103.91,7.89 C103.263333,7.55 102.533333,7.38 101.72,7.38 C100.946667,7.38 100.253333,7.52666667 99.64,7.82 C99.0266667,8.11333333 98.5033333,8.51 98.07,9.01 C97.6366667,9.51 97.3033333,10.09 97.07,10.75 C96.8366667,11.41 96.72,12.1066667 96.72,12.84 C96.72,13.64 96.83,14.3733333 97.05,15.04 C97.27,15.7066667 97.5966667,16.28 98.03,16.76 C98.4633333,17.24 98.9933333,17.6133333 99.62,17.88 C100.246667,18.1466667 100.966667,18.28 101.78,18.28 Z M104.32,11.92 L99,11.92 C99.0133333,11.5333333 99.09,11.1733333 99.23,10.84 C99.37,10.5066667 99.5566667,10.2166667 99.79,9.97 C100.023333,9.72333333 100.303333,9.53 100.63,9.39 C100.956667,9.25 101.32,9.18 101.72,9.18 C102.106667,9.18 102.456667,9.25666667 102.77,9.41 C103.083333,9.56333333 103.35,9.76333333 103.57,10.01 C103.79,10.2566667 103.963333,10.5466667 104.09,10.88 C104.216667,11.2133333 104.293333,11.56 104.32,11.92 L104.32,11.92 Z M112.86,18.28 C114.193333,18.28 115.263333,17.9233333 116.07,17.21 C116.876667,16.4966667 117.386667,15.4666667 117.6,14.12 L117.6,14.12 L115.32,14.12 C115.213333,14.8666667 114.943333,15.4466667 114.51,15.86 C114.076667,16.2733333 113.526667,16.48 112.86,16.48 C112.366667,16.48 111.946667,16.3766667 111.6,16.17 C111.253333,15.9633333 110.97,15.6933333 110.75,15.36 C110.53,15.0266667 110.37,14.6466667 110.27,14.22 C110.17,13.7933333 110.12,13.3666667 110.12,12.94 C110.12,12.1533333 110.213333,11.5166667 110.4,11.03 C110.586667,10.5433333 110.82,10.1633333 111.1,9.89 C111.38,9.61666667 111.686667,9.43 112.02,9.33 C112.353333,9.23 112.666667,9.18 112.96,9.18 C113.6,9.18 114.13,9.34333333 114.55,9.67 C114.97,9.99666667 115.226667,10.48 115.32,11.12 L115.32,11.12 L117.6,11.12 C117.546667,10.48 117.386667,9.92666667 117.12,9.46 C116.853333,8.99333333 116.51,8.60666667 116.09,8.3 C115.67,7.99333333 115.19,7.76333333 114.65,7.61 C114.11,7.45666667 113.54,7.38 112.94,7.38 C112.086667,7.38 111.343333,7.52333333 110.71,7.81 C110.076667,8.09666667 109.546667,8.49 109.12,8.99 C108.693333,9.49 108.373333,10.08 108.16,10.76 C107.946667,11.44 107.84,12.1666667 107.84,12.94 C107.84,13.7 107.95,14.4066667 108.17,15.06 C108.39,15.7133333 108.713333,16.2766667 109.14,16.75 C109.566667,17.2233333 110.09,17.5966667 110.71,17.87 C111.33,18.1433333 112.046667,18.28 112.86,18.28 Z M124.2,18.28 C125.026667,18.28 125.763333,18.1433333 126.41,17.87 C127.056667,17.5966667 127.603333,17.22 128.05,16.74 C128.496667,16.26 128.836667,15.6866667 129.07,15.02 C129.303333,14.3533333 129.42,13.62 129.42,12.82 C129.42,12.0333333 129.303333,11.3066667 129.07,10.64 C128.836667,9.97333333 128.496667,9.4 128.05,8.92 C127.603333,8.44 127.056667,8.06333333 126.41,7.79 C125.763333,7.51666667 125.026667,7.38 124.2,7.38 C123.373333,7.38 122.636667,7.51666667 121.99,7.79 C121.343333,8.06333333 120.796667,8.44 120.35,8.92 C119.903333,9.4 119.563333,9.97333333 119.33,10.64 C119.096667,11.3066667 118.98,12.0333333 118.98,12.82 C118.98,13.62 119.096667,14.3533333 119.33,15.02 C119.563333,15.6866667 119.903333,16.26 120.35,16.74 C120.796667,17.22 121.343333,17.5966667 121.99,17.87 C122.636667,18.1433333 123.373333,18.28 124.2,18.28 Z M124.2,16.48 C123.693333,16.48 123.253333,16.3733333 122.88,16.16 C122.506667,15.9466667 122.2,15.6666667 121.96,15.32 C121.72,14.9733333 121.543333,14.5833333 121.43,14.15 C121.316667,13.7166667 121.26,13.2733333 121.26,12.82 C121.26,12.38 121.316667,11.94 121.43,11.5 C121.543333,11.06 121.72,10.67 121.96,10.33 C122.2,9.99 122.506667,9.71333333 122.88,9.5 C123.253333,9.28666667 123.693333,9.18 124.2,9.18 C124.706667,9.18 125.146667,9.28666667 125.52,9.5 C125.893333,9.71333333 126.2,9.99 126.44,10.33 C126.68,10.67 126.856667,11.06 126.97,11.5 C127.083333,11.94 127.14,12.38 127.14,12.82 C127.14,13.2733333 127.083333,13.7166667 126.97,14.15 C126.856667,14.5833333 126.68,14.9733333 126.44,15.32 C126.2,15.6666667 125.893333,15.9466667 125.52,16.16 C125.146667,16.3733333 124.706667,16.48 124.2,16.48 Z M133.6,18 L133.6,11.86 C133.6,11.4333333 133.663333,11.0533333 133.79,10.72 C133.916667,10.3866667 134.083333,10.1066667 134.29,9.88 C134.496667,9.65333333 134.736667,9.48 135.01,9.36 C135.283333,9.24 135.566667,9.18 135.86,9.18 C136.553333,9.18 137.03,9.36333333 137.29,9.73 C137.55,10.0966667 137.68,10.64 137.68,11.36 L137.68,11.36 L137.68,18 L139.96,18 L139.96,11.94 C139.96,11.06 140.133333,10.38 140.48,9.9 C140.826667,9.42 141.386667,9.18 142.16,9.18 C142.6,9.18 142.946667,9.24666667 143.2,9.38 C143.453333,9.51333333 143.643333,9.70333333 143.77,9.95 C143.896667,10.1966667 143.973333,10.49 144,10.83 C144.026667,11.17 144.04,11.5466667 144.04,11.96 L144.04,11.96 L144.04,18 L146.32,18 L146.32,10.86 C146.32,9.60666667 146.016667,8.71333333 145.41,8.18 C144.803333,7.64666667 143.953333,7.38 142.86,7.38 C142.1,7.38 141.466667,7.53333333 140.96,7.84 C140.453333,8.14666667 140.006667,8.56666667 139.62,9.1 C139.393333,8.51333333 139.01,8.08 138.47,7.8 C137.93,7.52 137.346667,7.38 136.72,7.38 C136.306667,7.38 135.94,7.42333333 135.62,7.51 C135.3,7.59666667 135.016667,7.71333333 134.77,7.86 C134.523333,8.00666667 134.3,8.18666667 134.1,8.4 C133.9,8.61333333 133.713333,8.84666667 133.54,9.1 L133.54,9.1 L133.48,9.1 L133.48,7.66 L131.32,7.66 L131.32,18 L133.6,18 Z M151.06,5.88 L151.06,3.72 L148.78,3.72 L148.78,5.88 L151.06,5.88 Z M151.06,18 L151.06,7.66 L148.78,7.66 L148.78,18 L151.06,18 Z M155.82,18 L155.82,11.9 C155.82,11.5266667 155.88,11.1733333 156,10.84 C156.12,10.5066667 156.286667,10.2166667 156.5,9.97 C156.713333,9.72333333 156.973333,9.53 157.28,9.39 C157.586667,9.25 157.933333,9.18 158.32,9.18 C159,9.18 159.5,9.36333333 159.82,9.73 C160.14,10.0966667 160.313333,10.6866667 160.34,11.5 L160.34,11.5 L160.34,18 L162.62,18 L162.62,10.9 C162.62,9.72666667 162.293333,8.84666667 161.64,8.26 C160.986667,7.67333333 160.093333,7.38 158.96,7.38 C158.28,7.38 157.66,7.54333333 157.1,7.87 C156.54,8.19666667 156.086667,8.64666667 155.74,9.22 L155.74,9.22 L155.7,9.18 L155.7,7.66 L153.54,7.66 L153.54,18 L155.82,18 Z M169.5,22.1 C171.14,22.1 172.396667,21.7166667 173.27,20.95 C174.143333,20.1833333 174.58,19.02 174.58,17.46 L174.58,17.46 L174.58,7.66 L172.3,7.66 L172.3,9.08 L172.26,9.08 C171.966667,8.49333333 171.546667,8.06333333 171,7.79 C170.453333,7.51666667 169.853333,7.38 169.2,7.38 C168.466667,7.38 167.81,7.52 167.23,7.8 C166.65,8.08 166.16,8.45666667 165.76,8.93 C165.36,9.40333333 165.053333,9.95333333 164.84,10.58 C164.626667,11.2066667 164.52,11.8666667 164.52,12.56 C164.52,13.3066667 164.606667,14.0066667 164.78,14.66 C164.953333,15.3133333 165.23,15.89 165.61,16.39 C165.99,16.89 166.47,17.2833333 167.05,17.57 C167.63,17.8566667 168.333333,18 169.16,18 C169.8,18 170.396667,17.84 170.95,17.52 C171.503333,17.2 171.94,16.7533333 172.26,16.18 L172.26,16.18 L172.3,16.18 L172.3,17.76 C172.3,18.6133333 172.086667,19.2666667 171.66,19.72 C171.233333,20.1733333 170.56,20.4 169.64,20.4 C169.346667,20.4 169.066667,20.3833333 168.8,20.35 C168.533333,20.3166667 168.29,20.2433333 168.07,20.13 C167.85,20.0166667 167.66,19.86 167.5,19.66 C167.34,19.46 167.226667,19.2 167.16,18.88 L167.16,18.88 L164.88,18.88 C164.933333,19.48 165.106667,19.9866667 165.4,20.4 C165.693333,20.8133333 166.056667,21.1466667 166.49,21.4 C166.923333,21.6533333 167.403333,21.8333333 167.93,21.94 C168.456667,22.0466667 168.98,22.1 169.5,22.1 Z M169.52,16.2 C169.04,16.2 168.63,16.1 168.29,15.9 C167.95,15.7 167.67,15.44 167.45,15.12 C167.23,14.8 167.066667,14.4366667 166.96,14.03 C166.853333,13.6233333 166.8,13.2066667 166.8,12.78 C166.8,12.3533333 166.846667,11.9233333 166.94,11.49 C167.033333,11.0566667 167.186667,10.67 167.4,10.33 C167.613333,9.99 167.893333,9.71333333 168.24,9.5 C168.586667,9.28666667 169.013333,9.18 169.52,9.18 C170.013333,9.18 170.436667,9.27333333 170.79,9.46 C171.143333,9.64666667 171.43,9.9 171.65,10.22 C171.87,10.54 172.033333,10.9066667 172.14,11.32 C172.246667,11.7333333 172.3,12.16 172.3,12.6 C172.3,13.04 172.25,13.4766667 172.15,13.91 C172.05,14.3433333 171.89,14.73 171.67,15.07 C171.45,15.41 171.163333,15.6833333 170.81,15.89 C170.456667,16.0966667 170.026667,16.2 169.52,16.2 Z" fill-rule="nonzero"></path>
                <rect x="40" y="0" width="2" height="22"></rect>
                <g transform="translate(0.000000, 3.000000)">
                    <path d="M17.5711604,2.47405132 C17.8738045,1.49756332 17.5711604,1.12829223 16.9878827,1.12829223 L16.2097475,1.12829223 C16.1016372,1.12829223 16.0365768,1.0850589 16.0585873,0.955033871 L16.1663739,0.434283612 C16.1883844,0.303933516 16.2311106,0.260050067 16.4473312,0.260050067 C16.7066017,0.260050067 17.4633738,0.325387646 19.4083882,0.325387646 C21.1591924,0.325387646 21.893954,0.260050067 22.1101746,0.260050067 C22.2830216,0.260050067 22.3260715,0.325387646 22.3043847,0.477191873 L22.2182849,0.955033871 C22.1965981,1.06327971 22.1318614,1.12829223 22.0017406,1.12829223 L21.3967761,1.12829223 C21.0073848,1.12829223 20.4244308,1.21508394 20.0997762,2.3004679 L18.3279325,8.09568364 C18.1981354,8.57352564 17.7009575,10.1793348 17.7009575,11.1561479 C17.7009575,13.7829786 19.9919896,14.0644828 20.6189646,14.0644828 C21.6563703,14.0644828 22.7585127,13.6744077 23.4499007,13.0879948 C24.4659433,12.2418569 25.1793418,11.0696812 25.849043,8.65999229 L27.4270002,3.10369755 C27.837431,1.67082168 27.5998473,1.12829223 26.9081356,1.12829223 L26.2167475,1.12829223 C26.0222137,1.12829223 26.0005269,1.06327971 26.0222137,0.955033871 L26.1083135,0.477191873 C26.1300003,0.325387646 26.1730503,0.260050067 26.3679077,0.260050067 C26.6275019,0.260050067 27.448687,0.325387646 28.8317868,0.325387646 C30.0850894,0.325387646 30.5822673,0.260050067 30.7984879,0.260050067 C30.9933454,0.260050067 31.0147085,0.325387646 30.9933454,0.477191873 L30.9286087,0.955033871 C30.9069219,1.06327971 30.8632246,1.12829223 30.6907013,1.12829223 L30.3663704,1.12829223 C29.6749824,1.12829223 29.2205307,1.77971765 28.8965235,2.84332242 L27.037609,8.81212158 C25.8707298,12.6761405 24.1416124,15.1937502 20.1434735,15.1937502 C17.3552635,15.1937502 15.2587653,13.9130036 15.2587653,11.2211604 C15.2587653,10.3096849 15.5827725,8.96392581 15.7125696,8.50818806 L17.5711604,2.47405132 Z M10.7200748,16.6913135 C10.5689146,17.4295307 10.1367971,18.6663938 9.85551613,19.2963651 C9.29360152,20.4464365 7.73765479,21.9004414 6.09463719,21.9004414 C4.08488615,21.9004414 3.30707463,20.9021743 3.30707463,19.8596985 C3.30707463,19.1006774 3.71750534,18.5145896 4.47427744,18.5145896 C5.27409944,18.5145896 5.40324917,19.1871441 5.40324917,19.42574 C5.40324917,19.6864402 5.31714935,20.0553862 5.20903905,20.1636321 C5.12229187,20.2510739 5.07924196,20.3593197 5.07924196,20.5329032 C5.07924196,20.9668617 5.57641986,21.2064328 6.02990048,21.2064328 C7.15405338,21.2064328 7.7590179,20.2939822 8.14840919,18.797069 C8.4076797,17.7763724 8.79642362,16.0619924 9.59592194,13.0662156 L9.46677221,13.0229823 C9.16412811,13.4351616 7.93218859,15.1937502 5.01450525,15.1937502 C2.03176152,15.1937502 0,13.0879948 0,9.3331969 C0,6.53310781 1.27563679,4.16730232 2.87495712,2.53906384 C4.08488615,1.3239799 5.96548746,0 8.96959431,0 C11.2175764,0 12.3624451,0.737892065 12.7948863,1.0850589 C13.0761673,1.30220071 13.2707011,1.34543403 13.3788114,1.34543403 C13.6380819,1.34543403 13.767879,1.12829223 13.8973524,0.651100355 C13.9190392,0.542529452 13.9837759,0.520750259 14.0918862,0.542529452 L14.4162171,0.629321162 C14.5026406,0.651100355 14.5673773,0.694333679 14.5456905,0.802904581 L13.3140746,5.16556952 C13.2707011,5.29591961 13.2270038,5.31737374 13.0761673,5.29591961 L12.7304732,5.25236123 C12.6220393,5.23058203 12.5573026,5.16556952 12.579313,5.03554448 C12.9463702,3.16871006 11.8872776,0.889696291 9.0777046,0.889696291 C7.6942812,0.889696291 6.13833447,1.36721323 4.62511396,3.36439774 C3.37148765,4.94842771 2.65841283,7.292454 2.65841283,9.91863461 C2.65841283,13.4790451 4.84165824,14.0436788 5.79231677,14.0436788 C8.3859929,14.0436788 9.6399429,11.8075733 9.72571903,10.5271518 C9.79077942,9.70214293 9.55319571,9.52855951 8.96959431,9.52855951 L8.2131459,9.52855951 C8.04062257,9.52855951 8.01861209,9.463547 8.061662,9.31109264 L8.14840919,8.83357571 C8.1697723,8.70387574 8.2131459,8.65999229 8.3859929,8.65999229 C8.7103238,8.65999229 9.46677221,8.72532987 11.3687366,8.72532987 C12.8382599,8.72532987 13.3568009,8.65999229 13.659445,8.65999229 C13.8112526,8.65999229 13.8759893,8.72532987 13.8543025,8.83357571 L13.7892421,9.35530116 C13.767879,9.48467606 13.7241817,9.52855951 13.5947083,9.52855951 L13.140904,9.52855951 C12.7304732,9.52855951 12.4275055,9.70214293 12.1468718,10.8522144 L10.7200748,16.6913135 Z"></path>
                </g>
            </g>
        </g>
    </g>
</svg>
