<?xml version="1.0" encoding="UTF-8"?>
<svg width="176px" height="27px" viewBox="0 0 176 27" version="1.1" xmlns="http://www.w3.org/2000/svg" xmlns:xlink="http://www.w3.org/1999/xlink">
    <g stroke="none" stroke-width="1" fill="none" fill-rule="evenodd">
        <g transform="translate(-79.000000, -718.000000)" fill="#FFFFFF" fill-rule="nonzero">
            <path d="M83.306,739 L83.306,729.662 L92.731,729.662 L92.731,739 L96.356,739 L96.356,718.294 L92.731,718.294 L92.731,726.53 L83.306,726.53 L83.306,718.294 L79.681,718.294 L79.681,739 L83.306,739 Z M107.115,739.406 C108.313667,739.406 109.381833,739.207833 110.3195,738.8115 C111.257167,738.415167 112.049833,737.869 112.6975,737.173 C113.345167,736.477 113.838167,735.645667 114.1765,734.679 C114.514833,733.712333 114.684,732.649 114.684,731.489 C114.684,730.348333 114.514833,729.294667 114.1765,728.328 C113.838167,727.361333 113.345167,726.53 112.6975,725.834 C112.049833,725.138 111.257167,724.591833 110.3195,724.1955 C109.381833,723.799167 108.313667,723.601 107.115,723.601 C105.916333,723.601 104.848167,723.799167 103.9105,724.1955 C102.972833,724.591833 102.180167,725.138 101.5325,725.834 C100.884833,726.53 100.391833,727.361333 100.0535,728.328 C99.7151667,729.294667 99.546,730.348333 99.546,731.489 C99.546,732.649 99.7151667,733.712333 100.0535,734.679 C100.391833,735.645667 100.884833,736.477 101.5325,737.173 C102.180167,737.869 102.972833,738.415167 103.9105,738.8115 C104.848167,739.207833 105.916333,739.406 107.115,739.406 Z M107.115,736.796 C106.380333,736.796 105.742333,736.641333 105.201,736.332 C104.659667,736.022667 104.215,735.616667 103.867,735.114 C103.519,734.611333 103.262833,734.045833 103.0985,733.4175 C102.934167,732.789167 102.852,732.146333 102.852,731.489 C102.852,730.851 102.934167,730.213 103.0985,729.575 C103.262833,728.937 103.519,728.3715 103.867,727.8785 C104.215,727.3855 104.659667,726.984333 105.201,726.675 C105.742333,726.365667 106.380333,726.211 107.115,726.211 C107.849667,726.211 108.487667,726.365667 109.029,726.675 C109.570333,726.984333 110.015,727.3855 110.363,727.8785 C110.711,728.3715 110.967167,728.937 111.1315,729.575 C111.295833,730.213 111.378,730.851 111.378,731.489 C111.378,732.146333 111.295833,732.789167 111.1315,733.4175 C110.967167,734.045833 110.711,734.611333 110.363,735.114 C110.015,735.616667 109.570333,736.022667 109.029,736.332 C108.487667,736.641333 107.849667,736.796 107.115,736.796 Z M120.745,739 L120.745,730.097 C120.745,729.478333 120.836833,728.927333 121.0205,728.444 C121.204167,727.960667 121.445833,727.554667 121.7455,727.226 C122.045167,726.897333 122.393167,726.646 122.7895,726.472 C123.185833,726.298 123.596667,726.211 124.022,726.211 C125.027333,726.211 125.7185,726.476833 126.0955,727.0085 C126.4725,727.540167 126.661,728.328 126.661,729.372 L126.661,729.372 L126.661,739 L129.967,739 L129.967,730.213 C129.967,728.937 130.218333,727.951 130.721,727.255 C131.223667,726.559 132.035667,726.211 133.157,726.211 C133.795,726.211 134.297667,726.307667 134.665,726.501 C135.032333,726.694333 135.307833,726.969833 135.4915,727.3275 C135.675167,727.685167 135.786333,728.1105 135.825,728.6035 C135.863667,729.0965 135.883,729.642667 135.883,730.242 L135.883,730.242 L135.883,739 L139.189,739 L139.189,728.647 C139.189,726.829667 138.749167,725.534333 137.8695,724.761 C136.989833,723.987667 135.757333,723.601 134.172,723.601 C133.07,723.601 132.151667,723.823333 131.417,724.268 C130.682333,724.712667 130.034667,725.321667 129.474,726.095 C129.145333,725.244333 128.5895,724.616 127.8065,724.21 C127.0235,723.804 126.177667,723.601 125.269,723.601 C124.669667,723.601 124.138,723.663833 123.674,723.7895 C123.21,723.915167 122.799167,724.084333 122.4415,724.297 C122.083833,724.509667 121.76,724.770667 121.47,725.08 C121.18,725.389333 120.909333,725.727667 120.658,726.095 L120.658,726.095 L120.571,726.095 L120.571,724.007 L117.439,724.007 L117.439,739 L120.745,739 Z M149.281,739.406 C150.093,739.406 150.871167,739.294833 151.6155,739.0725 C152.359833,738.850167 153.031667,738.5215 153.631,738.0865 C154.230333,737.6515 154.742667,737.115 155.168,736.477 C155.593333,735.839 155.893,735.114 156.067,734.302 L156.067,734.302 L152.935,734.302 C152.645,735.133333 152.205167,735.756833 151.6155,736.1725 C151.025833,736.588167 150.247667,736.796 149.281,736.796 C148.585,736.796 147.985667,736.675167 147.483,736.4335 C146.980333,736.191833 146.564667,735.868 146.236,735.462 C145.907333,735.056 145.660833,734.582333 145.4965,734.041 C145.332167,733.499667 145.25,732.939 145.25,732.359 L145.25,732.359 L156.27,732.359 C156.405333,731.237667 156.332833,730.150167 156.0525,729.0965 C155.772167,728.042833 155.322667,727.11 154.704,726.298 C154.085333,725.486 153.307167,724.8335 152.3695,724.3405 C151.431833,723.8475 150.373333,723.601 149.194,723.601 C148.072667,723.601 147.067333,723.813667 146.178,724.239 C145.288667,724.664333 144.529833,725.2395 143.9015,725.9645 C143.273167,726.6895 142.789833,727.5305 142.4515,728.4875 C142.113167,729.4445 141.944,730.454667 141.944,731.518 C141.944,732.678 142.1035,733.741333 142.4225,734.708 C142.7415,735.674667 143.215167,736.506 143.8435,737.202 C144.471833,737.898 145.240333,738.439333 146.149,738.826 C147.057667,739.212667 148.101667,739.406 149.281,739.406 Z M152.964,730.184 L145.25,730.184 C145.269333,729.623333 145.3805,729.101333 145.5835,728.618 C145.7865,728.134667 146.057167,727.714167 146.3955,727.3565 C146.733833,726.998833 147.139833,726.7185 147.6135,726.5155 C148.087167,726.3125 148.614,726.211 149.194,726.211 C149.754667,726.211 150.262167,726.322167 150.7165,726.5445 C151.170833,726.766833 151.5575,727.056833 151.8765,727.4145 C152.1955,727.772167 152.446833,728.192667 152.6305,728.676 C152.814167,729.159333 152.925333,729.662 152.964,730.184 L152.964,730.184 Z M165.347,739.406 C167.280333,739.406 168.831833,738.888833 170.0015,737.8545 C171.171167,736.820167 171.910667,735.326667 172.22,733.374 L172.22,733.374 L168.914,733.374 C168.759333,734.456667 168.367833,735.297667 167.7395,735.897 C167.111167,736.496333 166.313667,736.796 165.347,736.796 C164.631667,736.796 164.022667,736.646167 163.52,736.3465 C163.017333,736.046833 162.6065,735.655333 162.2875,735.172 C161.9685,734.688667 161.7365,734.137667 161.5915,733.519 C161.4465,732.900333 161.374,732.281667 161.374,731.663 C161.374,730.522333 161.509333,729.599167 161.78,728.8935 C162.050667,728.187833 162.389,727.636833 162.795,727.2405 C163.201,726.844167 163.645667,726.5735 164.129,726.4285 C164.612333,726.2835 165.066667,726.211 165.492,726.211 C166.42,726.211 167.1885,726.447833 167.7975,726.9215 C168.4065,727.395167 168.778667,728.096 168.914,729.024 L168.914,729.024 L172.22,729.024 C172.142667,728.096 171.910667,727.293667 171.524,726.617 C171.137333,725.940333 170.6395,725.379667 170.0305,724.935 C169.4215,724.490333 168.7255,724.156833 167.9425,723.9345 C167.1595,723.712167 166.333,723.601 165.463,723.601 C164.225667,723.601 163.147833,723.808833 162.2295,724.2245 C161.311167,724.640167 160.542667,725.2105 159.924,725.9355 C159.305333,726.6605 158.841333,727.516 158.532,728.502 C158.222667,729.488 158.068,730.541667 158.068,731.663 C158.068,732.765 158.2275,733.789667 158.5465,734.737 C158.8655,735.684333 159.334333,736.501167 159.953,737.1875 C160.571667,737.873833 161.3305,738.415167 162.2295,738.8115 C163.1285,739.207833 164.167667,739.406 165.347,739.406 Z M181.79,739.406 C182.988667,739.406 184.056833,739.207833 184.9945,738.8115 C185.932167,738.415167 186.724833,737.869 187.3725,737.173 C188.020167,736.477 188.513167,735.645667 188.8515,734.679 C189.189833,733.712333 189.359,732.649 189.359,731.489 C189.359,730.348333 189.189833,729.294667 188.8515,728.328 C188.513167,727.361333 188.020167,726.53 187.3725,725.834 C186.724833,725.138 185.932167,724.591833 184.9945,724.1955 C184.056833,723.799167 182.988667,723.601 181.79,723.601 C180.591333,723.601 179.523167,723.799167 178.5855,724.1955 C177.647833,724.591833 176.855167,725.138 176.2075,725.834 C175.559833,726.53 175.066833,727.361333 174.7285,728.328 C174.390167,729.294667 174.221,730.348333 174.221,731.489 C174.221,732.649 174.390167,733.712333 174.7285,734.679 C175.066833,735.645667 175.559833,736.477 176.2075,737.173 C176.855167,737.869 177.647833,738.415167 178.5855,738.8115 C179.523167,739.207833 180.591333,739.406 181.79,739.406 Z M181.79,736.796 C181.055333,736.796 180.417333,736.641333 179.876,736.332 C179.334667,736.022667 178.89,735.616667 178.542,735.114 C178.194,734.611333 177.937833,734.045833 177.7735,733.4175 C177.609167,732.789167 177.527,732.146333 177.527,731.489 C177.527,730.851 177.609167,730.213 177.7735,729.575 C177.937833,728.937 178.194,728.3715 178.542,727.8785 C178.89,727.3855 179.334667,726.984333 179.876,726.675 C180.417333,726.365667 181.055333,726.211 181.79,726.211 C182.524667,726.211 183.162667,726.365667 183.704,726.675 C184.245333,726.984333 184.69,727.3855 185.038,727.8785 C185.386,728.3715 185.642167,728.937 185.8065,729.575 C185.970833,730.213 186.053,730.851 186.053,731.489 C186.053,732.146333 185.970833,732.789167 185.8065,733.4175 C185.642167,734.045833 185.386,734.611333 185.038,735.114 C184.69,735.616667 184.245333,736.022667 183.704,736.332 C183.162667,736.641333 182.524667,736.796 181.79,736.796 Z M195.42,739 L195.42,730.097 C195.42,729.478333 195.511833,728.927333 195.6955,728.444 C195.879167,727.960667 196.120833,727.554667 196.4205,727.226 C196.720167,726.897333 197.068167,726.646 197.4645,726.472 C197.860833,726.298 198.271667,726.211 198.697,726.211 C199.702333,726.211 200.3935,726.476833 200.7705,727.0085 C201.1475,727.540167 201.336,728.328 201.336,729.372 L201.336,729.372 L201.336,739 L204.642,739 L204.642,730.213 C204.642,728.937 204.893333,727.951 205.396,727.255 C205.898667,726.559 206.710667,726.211 207.832,726.211 C208.47,726.211 208.972667,726.307667 209.34,726.501 C209.707333,726.694333 209.982833,726.969833 210.1665,727.3275 C210.350167,727.685167 210.461333,728.1105 210.5,728.6035 C210.538667,729.0965 210.558,729.642667 210.558,730.242 L210.558,730.242 L210.558,739 L213.864,739 L213.864,728.647 C213.864,726.829667 213.424167,725.534333 212.5445,724.761 C211.664833,723.987667 210.432333,723.601 208.847,723.601 C207.745,723.601 206.826667,723.823333 206.092,724.268 C205.357333,724.712667 204.709667,725.321667 204.149,726.095 C203.820333,725.244333 203.2645,724.616 202.4815,724.21 C201.6985,723.804 200.852667,723.601 199.944,723.601 C199.344667,723.601 198.813,723.663833 198.349,723.7895 C197.885,723.915167 197.474167,724.084333 197.1165,724.297 C196.758833,724.509667 196.435,724.770667 196.145,725.08 C195.855,725.389333 195.584333,725.727667 195.333,726.095 L195.333,726.095 L195.246,726.095 L195.246,724.007 L192.114,724.007 L192.114,739 L195.42,739 Z M220.737,721.426 L220.737,718.294 L217.431,718.294 L217.431,721.426 L220.737,721.426 Z M220.737,739 L220.737,724.007 L217.431,724.007 L217.431,739 L220.737,739 Z M227.639,739 L227.639,730.155 C227.639,729.613667 227.726,729.101333 227.9,728.618 C228.074,728.134667 228.315667,727.714167 228.625,727.3565 C228.934333,726.998833 229.311333,726.7185 229.756,726.5155 C230.200667,726.3125 230.703333,726.211 231.264,726.211 C232.25,726.211 232.975,726.476833 233.439,727.0085 C233.903,727.540167 234.154333,728.395667 234.193,729.575 L234.193,729.575 L234.193,739 L237.499,739 L237.499,728.705 C237.499,727.003667 237.025333,725.727667 236.078,724.877 C235.130667,724.026333 233.835333,723.601 232.192,723.601 C231.206,723.601 230.307,723.837833 229.495,724.3115 C228.683,724.785167 228.025667,725.437667 227.523,726.269 L227.523,726.269 L227.465,726.211 L227.465,724.007 L224.333,724.007 L224.333,739 L227.639,739 Z M247.475,744.945 C249.853,744.945 251.675167,744.389167 252.9415,743.2775 C254.207833,742.165833 254.841,740.479 254.841,738.217 L254.841,738.217 L254.841,724.007 L251.535,724.007 L251.535,726.066 L251.477,726.066 C251.051667,725.215333 250.442667,724.591833 249.65,724.1955 C248.857333,723.799167 247.987333,723.601 247.04,723.601 C245.976667,723.601 245.0245,723.804 244.1835,724.21 C243.3425,724.616 242.632,725.162167 242.052,725.8485 C241.472,726.534833 241.027333,727.332333 240.718,728.241 C240.408667,729.149667 240.254,730.106667 240.254,731.112 C240.254,732.194667 240.379667,733.209667 240.631,734.157 C240.882333,735.104333 241.2835,735.9405 241.8345,736.6655 C242.3855,737.3905 243.0815,737.960833 243.9225,738.3765 C244.7635,738.792167 245.783333,739 246.982,739 C247.91,739 248.775167,738.768 249.5775,738.304 C250.379833,737.84 251.013,737.192333 251.477,736.361 L251.477,736.361 L251.535,736.361 L251.535,738.652 C251.535,739.889333 251.225667,740.836667 250.607,741.494 C249.988333,742.151333 249.012,742.48 247.678,742.48 C247.252667,742.48 246.846667,742.455833 246.46,742.4075 C246.073333,742.359167 245.7205,742.252833 245.4015,742.0885 C245.0825,741.924167 244.807,741.697 244.575,741.407 C244.343,741.117 244.178667,740.74 244.082,740.276 L244.082,740.276 L240.776,740.276 C240.853333,741.146 241.104667,741.880667 241.53,742.48 C241.955333,743.079333 242.482167,743.562667 243.1105,743.93 C243.738833,744.297333 244.434833,744.558333 245.1985,744.713 C245.962167,744.867667 246.721,744.945 247.475,744.945 Z M247.504,736.39 C246.808,736.39 246.2135,736.245 245.7205,735.955 C245.2275,735.665 244.8215,735.288 244.5025,734.824 C244.1835,734.36 243.946667,733.833167 243.792,733.2435 C243.637333,732.653833 243.56,732.049667 243.56,731.431 C243.56,730.812333 243.627667,730.188833 243.763,729.5605 C243.898333,728.932167 244.120667,728.3715 244.43,727.8785 C244.739333,727.3855 245.145333,726.984333 245.648,726.675 C246.150667,726.365667 246.769333,726.211 247.504,726.211 C248.219333,726.211 248.833167,726.346333 249.3455,726.617 C249.857833,726.887667 250.2735,727.255 250.5925,727.719 C250.9115,728.183 251.148333,728.714667 251.303,729.314 C251.457667,729.913333 251.535,730.532 251.535,731.17 C251.535,731.808 251.4625,732.441167 251.3175,733.0695 C251.1725,733.697833 250.9405,734.2585 250.6215,734.7515 C250.3025,735.2445 249.886833,735.640833 249.3745,735.9405 C248.862167,736.240167 248.238667,736.39 247.504,736.39 Z"></path>
        </g>
    </g>
</svg>
