<?xml version="1.0" encoding="UTF-8"?>
<svg width="245px" height="25px" viewBox="0 0 245 25" version="1.1" xmlns="http://www.w3.org/2000/svg" xmlns:xlink="http://www.w3.org/1999/xlink">
    <title>Group 4</title>
    <g id="JCW" stroke="none" stroke-width="1" fill="none" fill-rule="evenodd">
        <g id="mobile/nav/jumbo" transform="translate(-115.000000, -20.000000)" fill="#FFFFFF">
            <g id="Group-4" transform="translate(115.000000, 20.000000)">
                <rect id="Rectangle" x="40" y="0" width="2" height="22"></rect>
                <g id="logo/abbreviated-" transform="translate(0.000000, 3.000000)">
                    <path d="M17.5711604,2.47405132 C17.8738045,1.49756332 17.5711604,1.12829223 16.9878827,1.12829223 L16.2097475,1.12829223 C16.1016372,1.12829223 16.0365768,1.0850589 16.0585873,0.955033871 L16.1663739,0.434283612 C16.1883844,0.303933516 16.2311106,0.260050067 16.4473312,0.260050067 C16.7066017,0.260050067 17.4633738,0.325387646 19.4083882,0.325387646 C21.1591924,0.325387646 21.893954,0.260050067 22.1101746,0.260050067 C22.2830216,0.260050067 22.3260715,0.325387646 22.3043847,0.477191873 L22.2182849,0.955033871 C22.1965981,1.06327971 22.1318614,1.12829223 22.0017406,1.12829223 L21.3967761,1.12829223 C21.0073848,1.12829223 20.4244308,1.21508394 20.0997762,2.3004679 L18.3279325,8.09568364 C18.1981354,8.57352564 17.7009575,10.1793348 17.7009575,11.1561479 C17.7009575,13.7829786 19.9919896,14.0644828 20.6189646,14.0644828 C21.6563703,14.0644828 22.7585127,13.6744077 23.4499007,13.0879948 C24.4659433,12.2418569 25.1793418,11.0696812 25.849043,8.65999229 L27.4270002,3.10369755 C27.837431,1.67082168 27.5998473,1.12829223 26.9081356,1.12829223 L26.2167475,1.12829223 C26.0222137,1.12829223 26.0005269,1.06327971 26.0222137,0.955033871 L26.1083135,0.477191873 C26.1300003,0.325387646 26.1730503,0.260050067 26.3679077,0.260050067 C26.6275019,0.260050067 27.448687,0.325387646 28.8317868,0.325387646 C30.0850894,0.325387646 30.5822673,0.260050067 30.7984879,0.260050067 C30.9933454,0.260050067 31.0147085,0.325387646 30.9933454,0.477191873 L30.9286087,0.955033871 C30.9069219,1.06327971 30.8632246,1.12829223 30.6907013,1.12829223 L30.3663704,1.12829223 C29.6749824,1.12829223 29.2205307,1.77971765 28.8965235,2.84332242 L27.037609,8.81212158 C25.8707298,12.6761405 24.1416124,15.1937502 20.1434735,15.1937502 C17.3552635,15.1937502 15.2587653,13.9130036 15.2587653,11.2211604 C15.2587653,10.3096849 15.5827725,8.96392581 15.7125696,8.50818806 L17.5711604,2.47405132 Z M10.7200748,16.6913135 C10.5689146,17.4295307 10.1367971,18.6663938 9.85551613,19.2963651 C9.29360152,20.4464365 7.73765479,21.9004414 6.09463719,21.9004414 C4.08488615,21.9004414 3.30707463,20.9021743 3.30707463,19.8596985 C3.30707463,19.1006774 3.71750534,18.5145896 4.47427744,18.5145896 C5.27409944,18.5145896 5.40324917,19.1871441 5.40324917,19.42574 C5.40324917,19.6864402 5.31714935,20.0553862 5.20903905,20.1636321 C5.12229187,20.2510739 5.07924196,20.3593197 5.07924196,20.5329032 C5.07924196,20.9668617 5.57641986,21.2064328 6.02990048,21.2064328 C7.15405338,21.2064328 7.7590179,20.2939822 8.14840919,18.797069 C8.4076797,17.7763724 8.79642362,16.0619924 9.59592194,13.0662156 L9.46677221,13.0229823 C9.16412811,13.4351616 7.93218859,15.1937502 5.01450525,15.1937502 C2.03176152,15.1937502 0,13.0879948 0,9.3331969 C0,6.53310781 1.27563679,4.16730232 2.87495712,2.53906384 C4.08488615,1.3239799 5.96548746,0 8.96959431,0 C11.2175764,0 12.3624451,0.737892065 12.7948863,1.0850589 C13.0761673,1.30220071 13.2707011,1.34543403 13.3788114,1.34543403 C13.6380819,1.34543403 13.767879,1.12829223 13.8973524,0.651100355 C13.9190392,0.542529452 13.9837759,0.520750259 14.0918862,0.542529452 L14.4162171,0.629321162 C14.5026406,0.651100355 14.5673773,0.694333679 14.5456905,0.802904581 L13.3140746,5.16556952 C13.2707011,5.29591961 13.2270038,5.31737374 13.0761673,5.29591961 L12.7304732,5.25236123 C12.6220393,5.23058203 12.5573026,5.16556952 12.579313,5.03554448 C12.9463702,3.16871006 11.8872776,0.889696291 9.0777046,0.889696291 C7.6942812,0.889696291 6.13833447,1.36721323 4.62511396,3.36439774 C3.37148765,4.94842771 2.65841283,7.292454 2.65841283,9.91863461 C2.65841283,13.4790451 4.84165824,14.0436788 5.79231677,14.0436788 C8.3859929,14.0436788 9.6399429,11.8075733 9.72571903,10.5271518 C9.79077942,9.70214293 9.55319571,9.52855951 8.96959431,9.52855951 L8.2131459,9.52855951 C8.04062257,9.52855951 8.01861209,9.463547 8.061662,9.31109264 L8.14840919,8.83357571 C8.1697723,8.70387574 8.2131459,8.65999229 8.3859929,8.65999229 C8.7103238,8.65999229 9.46677221,8.72532987 11.3687366,8.72532987 C12.8382599,8.72532987 13.3568009,8.65999229 13.659445,8.65999229 C13.8112526,8.65999229 13.8759893,8.72532987 13.8543025,8.83357571 L13.7892421,9.35530116 C13.767879,9.48467606 13.7241817,9.52855951 13.5947083,9.52855951 L13.140904,9.52855951 C12.7304732,9.52855951 12.4275055,9.70214293 12.1468718,10.8522144 L10.7200748,16.6913135 Z" id="logo-abbreviated-"></path>
                </g>
                <path d="M52.428,21.782 C54.024,21.782 55.473,20.417 56.334,18.926 C56.964,17.855 57.111,16.805 57.111,15.419 C57.111,14.936 57.195,12.878 57.195,10.211 L57.1955786,8.71799807 L57.1955786,8.71799807 L57.1972318,8.19171942 C57.2061867,6.00722949 57.2398966,3.96965517 57.258,3.68 C57.279,3.239 57.468,3.071 58.035,3.071 L59.085,3.071 C59.211,3.071 59.253,3.029 59.253,2.903 L59.253,2.378 C59.253,2.294 59.211,2.252 59.085,2.252 C58.78575,2.252 58.10745,2.3088575 56.5099537,2.31454325 L56.25,2.315 C54.255,2.315 53.478,2.252 53.247,2.252 C53.121,2.252 53.1,2.294 53.1,2.399 L53.1,2.966 C53.1,3.05 53.163,3.071 53.247,3.071 L54.171,3.071 C54.99,3.071 55.179,3.323 55.2,3.785 C55.249,4.48733333 55.2598889,6.89196296 55.2623086,8.08409465 L55.2629968,8.69006783 C55.263,8.71147325 55.263,8.72855556 55.263,8.741 L55.263,10.211 C55.263,11.744 55.494,17.834 54.969,19.346 C54.738,20.039 54.276,20.522 53.814,20.669 C53.583,20.018 52.89,19.556 52.176,19.556 C51.504,19.556 51,19.934 51,20.564 C51,21.488 52.05,21.782 52.428,21.782 Z M64.671,17.435 C67.254,17.435 69.312,15.104 69.312,12.815 C69.312,11.45 68.829,10.358 67.884,9.392 C67.254,8.762 66.099,8.174 64.944,8.174 C64.251,8.174 63.222,8.342 62.13,9.182 C60.891,10.148 60.324,11.492 60.324,12.563 C60.324,14.054 60.513,14.831 61.479,15.986 C62.361,17.036 63.663,17.435 64.671,17.435 Z M64.923,16.805 C63.936,16.805 63.327,16.406 62.844,15.713 C62.172,14.747 62.046,13.949 62.046,12.773 C62.046,11.177 62.34,10.316 63.159,9.476 C63.663,8.93 64.209,8.804 64.776,8.804 C65.847,8.804 67.548,10.274 67.548,12.605 C67.548,14.852 66.519,16.805 64.923,16.805 Z M72.777,17.183 C73.743,17.183 74.604,17.246 74.772,17.246 C74.898,17.246 74.94,17.162 74.94,17.015 L74.94,16.658 C74.94,16.532 74.856,16.49 74.709,16.49 L74.079,16.49 C73.68,16.49 73.617,16.301 73.617,15.629 L73.617,11.051 C73.617,10.673 73.848,10.253 74.037,10.022 C74.625,9.35 75.381,9.14 75.99,9.14 C76.515,9.14 76.956,9.329 77.376,9.728 C77.985,10.295 78.069,11.135 78.069,12.311 L78.069,14.012 C78.069,14.684 78.09,15.797 78.069,16.091 C78.048,16.448 77.628,16.49 77.271,16.49 L76.788,16.49 C76.662,16.49 76.641,16.553 76.641,16.658 L76.641,17.015 C76.641,17.183 76.683,17.246 76.83,17.246 C77.019,17.246 77.775,17.183 78.804,17.183 C80.001,17.183 80.673,17.246 80.82,17.246 C80.946,17.246 80.988,17.162 80.988,16.994 L80.988,16.679 C80.988,16.532 80.925,16.49 80.757,16.49 L80.4,16.49 C79.959,16.49 79.623,16.427 79.623,16.175 C79.623,15.8009375 79.5860859,14.6332227 79.5814717,13.5197253 L79.5810684,11.7035858 C79.5772215,10.7176159 79.5118235,9.79223529 78.678,9.014 C78.09,8.447 77.481,8.174 76.599,8.174 C75.675,8.174 74.457,8.657 73.722,9.539 L73.617,9.539 L73.6176742,7.77386687 C73.6215696,6.30480024 73.6423448,2.84506897 73.68,2.525 C73.722,2.168 73.638,2 73.512,2 C73.344,2 73.197,2.084 73.029,2.168 L70.845,3.323 C70.656,3.428 70.593,3.449 70.593,3.533 L70.593,3.722 C70.593,3.785 70.614,3.806 70.74,3.848 L71.097,3.974 C71.853,4.226 72.105,4.457 72.105,5.738 L72.105,12.08 L72.1049941,12.2717256 L72.1049941,12.2717256 L72.1042604,13.1235903 C72.1017459,14.3962913 72.0906818,15.8456818 72.042,16.154 C72,16.406 71.685,16.49 71.349,16.49 L70.908,16.49 C70.677,16.49 70.593,16.511 70.593,16.658 L70.593,17.036 C70.593,17.183 70.656,17.246 70.74,17.246 C70.929,17.246 71.727,17.183 72.777,17.183 Z M84.201,17.183 C85.314,17.183 85.881,17.246 86.028,17.246 C86.133,17.246 86.175,17.183 86.175,17.057 L86.175,16.7 C86.175,16.553 86.133,16.49 85.965,16.49 L85.44,16.49 C84.999,16.49 84.936,16.364 84.936,15.797 L84.936,11.45 C84.936,11.051 84.999,10.484 85.419,10.022 C86.049,9.35 86.784,9.203 87.12,9.203 C87.645,9.203 88.149,9.203 88.653,9.581 C89.262,10.022 89.262,10.631 89.262,11.471 L89.262,14.243 C89.262,14.789 89.241,15.461 89.22,16.007 C89.199,16.385 89.031,16.49 88.8,16.49 L88.191,16.49 C87.981,16.49 87.918,16.532 87.918,16.679 L87.918,17.015 C87.918,17.183 87.96,17.246 88.086,17.246 C88.233,17.246 88.905,17.183 89.976,17.183 C91.173,17.183 91.824,17.246 91.971,17.246 C92.097,17.246 92.139,17.162 92.139,17.015 L92.139,16.679 C92.139,16.553 92.097,16.49 91.908,16.49 L91.236,16.49 C90.963,16.49 90.774,16.385 90.774,16.049 L90.774,10.631 C90.774,10.106 90.249,9.056 89.619,8.636 C89.115,8.3 88.464,8.174 87.834,8.174 C86.784,8.174 85.566,8.951 84.957,9.707 L84.915,9.707 L84.768,8.426 C84.747,8.258 84.705,8.174 84.6,8.174 C84.516,8.174 84.39,8.237 84.222,8.321 L82.416,9.329 C82.311,9.371 82.227,9.434 82.227,9.539 L82.227,9.644 C82.227,9.707 82.248,9.77 82.395,9.833 L82.563,9.917 C83.088,10.169 83.424,10.526 83.424,11.156 L83.424,16.07 C83.424,16.427 83.277,16.49 83.004,16.49 L82.395,16.49 C82.227,16.49 82.185,16.553 82.185,16.679 L82.185,17.057 C82.185,17.183 82.227,17.246 82.332,17.246 C82.458,17.246 83.13,17.183 84.201,17.183 Z M106.44,17.498 C109.401,17.498 111.438,15.797 112.698,13.97 C112.761,13.865 112.719,13.823 112.656,13.781 L112.383,13.571 C112.32,13.508 112.278,13.529 112.215,13.634 C111.249,14.999 109.401,16.301 107.028,16.301 C105.621,16.301 104.424,16.133 102.996,14.537 C101.358,12.731 100.98,10.358 100.98,9.14 C100.959,6.074 102.471,2.735 106.23,2.735 C107.889,2.735 109.002,3.449 109.884,4.352 C110.766,5.255 111.228,6.263 111.522,6.956 C111.585,7.124 111.627,7.145 111.732,7.124 L112.047,7.04 C112.131,7.019 112.152,6.935 112.131,6.83 C112.12187,6.77886957 112.110357,6.7088431 112.096946,6.62333114 L112.051501,6.32374932 C111.892616,5.24956144 111.606,3.0856087 111.606,2.756 C111.606,2.462 111.564,2.42 111.375,2.42 C111.186,2.42 111.144,2.42 111.102,2.546 L110.934,3.155 C110.892,3.302 110.787,3.323 110.514,3.155 C109.758,2.714 108.183,2 106.272,2 C103.983,2 102.093,2.987 101.022,4.121 C99.51,5.717 98.88,7.733 98.88,9.686 C98.88,11.702 99.615,14.138 101.127,15.566 C102.387,16.721 103.962,17.498 106.44,17.498 Z M117.108,17.309 C118.053,16.994 118.746,16.553 119.187,16.028 L119.229,16.028 C119.418,16.889 119.964,17.435 120.72,17.435 C121.791,17.435 122.19,16.721 122.358,16.406 C122.484,16.196 122.442,16.091 122.379,16.028 L122.169,15.86 C122.085,15.797 122.043,15.839 121.959,15.944 C121.854,16.091 121.56,16.259 121.224,16.259 C120.846,16.259 120.594,15.881 120.594,14.684 L120.594,10.232 C120.594,9.665 120.573,9.182 120.132,8.741 C119.838,8.468 119.439,8.174 118.452,8.174 C117.507,8.174 116.772,8.384 115.89,8.909 C115.029,9.413 114.441,10.211 114.441,10.883 C114.441,11.366 114.609,11.555 114.945,11.555 C115.806,11.555 116.058,11.093 116.058,10.358 C116.058,9.98 115.869,9.665 116.163,9.392 C116.457,9.119 117.108,8.951 117.528,8.951 C118.137,8.951 118.557,9.14 118.788,9.413 C119.019,9.686 119.04,10.232 119.082,10.589 L119.082,11.933 C118.746,12.227 117.654,12.731 116.709,13.151 C115.05,13.886 114.609,14.726 114.609,15.692 C114.609,17.015 115.365,17.435 115.869,17.435 C116.331,17.435 116.709,17.435 117.108,17.309 Z M117.339,16.448 C116.709,16.448 116.247,16.07 116.247,15.293 C116.247,13.55 118.305,13.13 119.061,12.563 L119.061,15.146 C119.061,15.713 117.948,16.448 117.339,16.448 Z M125.445,17.183 C126.579,17.183 127.545,17.246 127.671,17.246 C127.755,17.246 127.776,17.183 127.776,17.057 L127.776,16.679 C127.776,16.553 127.755,16.49 127.629,16.49 L126.642,16.49 C126.201,16.49 126.054,16.28 126.054,15.629 L126.054,11.261 C126.054,11.198 126.138,10.82 126.264,10.589 C126.621,9.917 127.167,9.707 127.503,9.707 C127.776,9.707 128.028,9.77 128.196,9.875 C128.364,9.959 128.574,10.043 128.805,10.043 C129.183,10.043 129.687,9.623 129.687,9.014 C129.687,8.531 129.33,8.09 128.616,8.09 C127.713,8.09 126.726,8.951 126.096,9.917 L126.012,9.917 L125.907,8.426 C125.907,8.3 125.886,8.174 125.76,8.174 C125.676,8.174 125.592,8.195 125.466,8.258 L123.387,9.329 C123.261,9.392 123.219,9.434 123.219,9.518 L123.219,9.644 C123.219,9.728 123.261,9.749 123.387,9.791 L123.786,10.001 C124.374,10.316 124.542,10.526 124.542,11.597 L124.542,13.571 L124.541979,13.888205 L124.541979,13.888205 L124.541433,14.465915 C124.54011,15.10022 124.5357,15.6059 124.521,16.091 C124.521,16.364 124.374,16.49 124.059,16.49 L123.24,16.49 C123.051,16.49 123.009,16.532 123.009,16.679 L123.009,17.036 C123.009,17.204 123.051,17.246 123.135,17.246 C123.261,17.246 124.143,17.183 125.445,17.183 Z M132.606,17.183 C133.74,17.183 134.706,17.246 134.832,17.246 C134.916,17.246 134.937,17.183 134.937,17.057 L134.937,16.679 C134.937,16.553 134.916,16.49 134.79,16.49 L133.803,16.49 C133.362,16.49 133.215,16.28 133.215,15.629 L133.215,11.261 C133.215,11.198 133.299,10.82 133.425,10.589 C133.782,9.917 134.328,9.707 134.664,9.707 C134.937,9.707 135.189,9.77 135.357,9.875 C135.525,9.959 135.735,10.043 135.966,10.043 C136.344,10.043 136.848,9.623 136.848,9.014 C136.848,8.531 136.491,8.09 135.777,8.09 C134.874,8.09 133.887,8.951 133.257,9.917 L133.173,9.917 L133.068,8.426 C133.068,8.3 133.047,8.174 132.921,8.174 C132.837,8.174 132.753,8.195 132.627,8.258 L130.548,9.329 C130.422,9.392 130.38,9.434 130.38,9.518 L130.38,9.644 C130.38,9.728 130.422,9.749 130.548,9.791 L130.947,10.001 C131.535,10.316 131.703,10.526 131.703,11.597 L131.703,13.571 L131.702979,13.888205 L131.702979,13.888205 L131.702433,14.465915 C131.70111,15.10022 131.6967,15.6059 131.682,16.091 C131.682,16.364 131.535,16.49 131.22,16.49 L130.401,16.49 C130.212,16.49 130.17,16.532 130.17,16.679 L130.17,17.036 C130.17,17.204 130.212,17.246 130.296,17.246 C130.422,17.246 131.304,17.183 132.606,17.183 Z M141.909,17.435 C144.492,17.435 146.55,15.104 146.55,12.815 C146.55,11.45 146.067,10.358 145.122,9.392 C144.492,8.762 143.337,8.174 142.182,8.174 C141.489,8.174 140.46,8.342 139.368,9.182 C138.129,10.148 137.562,11.492 137.562,12.563 C137.562,14.054 137.751,14.831 138.717,15.986 C139.599,17.036 140.901,17.435 141.909,17.435 Z M142.161,16.805 C141.174,16.805 140.565,16.406 140.082,15.713 C139.41,14.747 139.284,13.949 139.284,12.773 C139.284,11.177 139.578,10.316 140.397,9.476 C140.901,8.93 141.447,8.804 142.014,8.804 C143.085,8.804 144.786,10.274 144.786,12.605 C144.786,14.852 143.757,16.805 142.161,16.805 Z M150.057,17.183 C151.359,17.183 152.283,17.246 152.43,17.246 C152.514,17.246 152.556,17.162 152.556,17.036 L152.556,16.679 C152.556,16.553 152.514,16.49 152.325,16.49 L151.38,16.49 C150.939,16.49 150.855,16.196 150.834,15.839 C150.820304,15.4144348 150.815541,13.9180359 150.813884,12.6255185 L150.813,9.056 C150.813,7.901 150.876,3.533 150.897,2.378 C150.918,2.105 150.876,2 150.729,2 C150.603,2 150.477,2.042 150.288,2.168 C149.511,2.672 148.566,3.05 147.831,3.386 C147.705,3.428 147.642,3.47 147.642,3.533 L147.642,3.701 C147.642,3.743 147.663,3.764 147.768,3.806 L148.188,3.953 C148.86,4.163 149.196,4.499 149.238,5.213 C149.28,5.759 149.301,7.67 149.301,9.161 L149.301,10.484 L149.300999,10.6413085 L149.300999,10.6413085 L149.30002,12.4803843 C149.298278,13.9188944 149.29344,15.54836 149.28,15.965 C149.259,16.343 149.049,16.49 148.818,16.49 L147.81,16.49 C147.579,16.49 147.537,16.532 147.537,16.679 L147.537,17.036 C147.537,17.162 147.579,17.246 147.684,17.246 C147.873,17.246 148.713,17.183 150.057,17.183 Z M155.433,17.183 C156.735,17.183 157.659,17.246 157.806,17.246 C157.89,17.246 157.932,17.162 157.932,17.036 L157.932,16.679 C157.932,16.553 157.89,16.49 157.701,16.49 L156.756,16.49 C156.315,16.49 156.231,16.196 156.21,15.839 C156.196304,15.4144348 156.191541,13.9180359 156.189884,12.6255185 L156.189,9.056 C156.189,7.901 156.252,3.533 156.273,2.378 C156.294,2.105 156.252,2 156.105,2 C155.979,2 155.853,2.042 155.664,2.168 C154.887,2.672 153.942,3.05 153.207,3.386 C153.081,3.428 153.018,3.47 153.018,3.533 L153.018,3.701 C153.018,3.743 153.039,3.764 153.144,3.806 L153.564,3.953 C154.236,4.163 154.572,4.499 154.614,5.213 C154.656,5.759 154.677,7.67 154.677,9.161 L154.677,10.484 L154.676999,10.6413085 L154.676999,10.6413085 L154.67602,12.4803843 C154.674278,13.9188944 154.66944,15.54836 154.656,15.965 C154.635,16.343 154.425,16.49 154.194,16.49 L153.186,16.49 C152.955,16.49 152.913,16.532 152.913,16.679 L152.913,17.036 C152.913,17.162 152.955,17.246 153.06,17.246 C153.249,17.246 154.089,17.183 155.433,17.183 Z M178.764,17.603 C178.995,17.603 179.1,17.288 179.205,17.057 C179.393276,16.6051379 180.379127,13.9209084 181.424786,11.0700627 L181.666818,10.4101577 C182.878926,7.10524732 184.095103,3.79006897 184.182,3.638 C184.371,3.302 184.665,3.071 185.022,3.071 L185.526,3.071 C185.673,3.071 185.673,3.008 185.673,2.924 L185.673,2.399 C185.673,2.294 185.652,2.252 185.526,2.252 C185.3692,2.252 184.82824,2.30688 183.800677,2.31419733 L183.573,2.315 C182.271,2.315 181.536,2.252 181.326,2.252 C181.179,2.252 181.158,2.315 181.158,2.399 L181.158,2.882 C181.158,3.008 181.179,3.071 181.305,3.071 L181.872,3.071 C182.439,3.071 182.607,3.386 182.607,3.722 C182.607,4.919 179.562,13.781 179.331,14.453 L179.289,14.453 L176.013,3.911 C175.887,3.533 176.076,3.071 176.601,3.071 L177.441,3.071 C177.567,3.071 177.588,3.008 177.588,2.924 L177.588,2.399 C177.588,2.315 177.567,2.252 177.441,2.252 C177.2415,2.252 176.51133,2.3088575 174.926402,2.31454325 L174.669,2.315 C173.031,2.315 172.296,2.252 172.107,2.252 C171.981,2.252 171.96,2.315 171.96,2.399 L171.96,2.903 C171.96,3.029 171.981,3.071 172.086,3.071 L172.611,3.071 C172.989,3.071 173.262,3.218 173.451,3.47 C173.64,3.722 173.787,4.079 173.766,4.247 C173.72575,4.669625 172.986366,6.94857161 172.217851,9.24710604 L172.017149,9.84596037 C171.449116,11.5371297 170.896998,13.1517451 170.63134,13.9481387 L170.549913,14.1940365 C170.504146,14.3337083 170.476,14.42325 170.469,14.453 L170.427,14.453 L167.046,3.827 C166.92,3.365 167.109,3.071 167.655,3.071 L168.012,3.071 C168.159,3.071 168.18,3.008 168.18,2.903 L168.18,2.378 C168.18,2.315 168.159,2.252 168.012,2.252 C167.814353,2.252 167.040042,2.30780623 165.689066,2.31437167 L165.429,2.315 C164.001,2.315 163.35,2.252 163.182,2.252 C163.035,2.252 163.014,2.294 163.014,2.399 L163.014,2.903 C163.014,2.987 163.035,3.071 163.14,3.071 L163.854,3.071 C164.253,3.071 164.547,3.239 164.757,3.827 L169.44,17.267 C169.524,17.519 169.65,17.603 169.818,17.603 C170.007,17.603 170.133,17.414 170.238,17.204 C170.364,16.973 174.186,6.179 174.375,5.612 L174.417,5.612 L178.302,17.141 C178.407,17.435 178.512,17.603 178.764,17.603 Z M190.314,17.435 C192.183,17.435 193.275,15.986 193.653,15.146 C193.758,14.915 193.716,14.852 193.653,14.831 L193.38,14.684 C193.317,14.663 193.233,14.705 193.191,14.789 C192.834,15.482 191.931,16.217 190.65,16.217 C188.97,16.217 187.668,14.663 187.668,12.605 C187.668,12.122 187.689,11.786 187.731,11.597 L192.918,11.597 C193.254,11.597 193.506,11.555 193.506,11.261 C193.506,10.442 192.834,8.174 190.419,8.174 C189.369,8.174 188.319,8.363 187.416,9.287 C186.303,10.4 186.093,11.807 186.093,12.626 C186.093,14.096 186.282,14.873 187.017,15.944 C187.794,17.078 189.117,17.435 190.314,17.435 Z M191.07,10.967 L187.815,10.967 C188.214,9.413 189.096,8.804 190.02,8.804 C191.385,8.804 191.637,10.19 191.637,10.673 C191.637,10.862 191.469,10.967 191.07,10.967 Z M199.26,17.435 C201.129,17.435 202.221,15.986 202.599,15.146 C202.704,14.915 202.662,14.852 202.599,14.831 L202.326,14.684 C202.263,14.663 202.179,14.705 202.137,14.789 C201.78,15.482 200.877,16.217 199.596,16.217 C197.916,16.217 196.614,14.663 196.614,12.605 C196.614,12.122 196.635,11.786 196.677,11.597 L201.864,11.597 C202.2,11.597 202.452,11.555 202.452,11.261 C202.452,10.442 201.78,8.174 199.365,8.174 C198.315,8.174 197.265,8.363 196.362,9.287 C195.249,10.4 195.039,11.807 195.039,12.626 C195.039,14.096 195.228,14.873 195.963,15.944 C196.74,17.078 198.063,17.435 199.26,17.435 Z M200.016,10.967 L196.761,10.967 C197.16,9.413 198.042,8.804 198.966,8.804 C200.331,8.804 200.583,10.19 200.583,10.673 C200.583,10.862 200.415,10.967 200.016,10.967 Z M205.917,17.183 C206.967,17.183 207.66,17.246 207.786,17.246 C207.912,17.246 207.954,17.183 207.954,17.015 L207.954,16.658 C207.954,16.532 207.912,16.49 207.765,16.49 L207.156,16.49 C206.862,16.49 206.757,16.343 206.736,16.049 C206.722,15.559 206.717333,15.0783333 206.715778,14.5945556 L206.715,12.941 C206.988,12.941 207.387,12.983 207.618,13.172 C207.954,13.487 210.348,16.028 210.411,16.196 C210.474,16.385 210.348,16.532 210.18,16.532 L210.033,16.532 C209.865,16.532 209.823,16.595 209.823,16.7 L209.823,17.036 C209.823,17.183 209.865,17.246 209.97,17.246 C210.138,17.246 211.02,17.183 212.259,17.183 C213.246,17.183 213.834,17.246 214.002,17.246 C214.149,17.246 214.191,17.183 214.191,17.057 L214.191,16.679 C214.191,16.532 214.149,16.49 214.023,16.49 C213.792,16.49 213.309,16.385 212.931,16.196 C212.6335,16.056 210.133917,13.5826667 209.065931,12.5190556 L208.678127,12.1321204 C208.657453,12.1114533 208.64,12.094 208.626,12.08 C209.34,11.387 211.104,9.749 211.398,9.581 C211.818,9.308 212.427,9.098 212.847,9.098 L212.994,9.098 C213.141,9.098 213.162,9.056 213.162,8.93 L213.162,8.552 C213.162,8.405 213.12,8.342 213.036,8.342 C212.8995,8.342 212.437071,8.39632143 211.547832,8.40408163 L211.335,8.405 C210.264,8.405 209.508,8.342 209.382,8.342 C209.277,8.342 209.235,8.405 209.235,8.51 L209.235,8.909 C209.235,9.035 209.256,9.098 209.403,9.098 C209.529,9.098 209.781,9.098 209.949,9.224 C210.075,9.308 210.075,9.476 209.949,9.707 C209.781,9.959 208.122,11.786 207.723,12.059 C207.513,12.227 206.988,12.29 206.715,12.29 L206.71584,7.413128 L206.71584,7.413128 L206.717305,6.77992659 C206.723232,4.8862736 206.7444,3.08276 206.82,2.357 C206.841,2.105 206.82,2 206.694,2 C206.568,2 206.421,2.084 206.232,2.168 L204.09,3.092 C203.88,3.176 203.817,3.218 203.817,3.302 L203.817,3.491 C203.817,3.554 203.88,3.575 204.111,3.638 C205.14,3.911 205.203,4.268 205.203,5.129 L205.203,12.08 C205.203,13.928 205.182,15.062 205.161,15.986 C205.161,16.259 205.056,16.49 204.783,16.49 L204.006,16.49 C203.859,16.49 203.796,16.532 203.796,16.679 L203.796,17.036 C203.796,17.162 203.838,17.246 203.901,17.246 C204.048,17.246 204.783,17.183 205.917,17.183 Z M218.622,17.435 C220.491,17.435 221.583,15.986 221.961,15.146 C222.066,14.915 222.024,14.852 221.961,14.831 L221.688,14.684 C221.625,14.663 221.541,14.705 221.499,14.789 C221.142,15.482 220.239,16.217 218.958,16.217 C217.278,16.217 215.976,14.663 215.976,12.605 C215.976,12.122 215.997,11.786 216.039,11.597 L221.226,11.597 C221.562,11.597 221.814,11.555 221.814,11.261 C221.814,10.442 221.142,8.174 218.727,8.174 C217.677,8.174 216.627,8.363 215.724,9.287 C214.611,10.4 214.401,11.807 214.401,12.626 C214.401,14.096 214.59,14.873 215.325,15.944 C216.102,17.078 217.425,17.435 218.622,17.435 Z M219.378,10.967 L216.123,10.967 C216.522,9.413 217.404,8.804 218.328,8.804 C219.693,8.804 219.945,10.19 219.945,10.673 C219.945,10.862 219.777,10.967 219.378,10.967 Z M225.405,17.183 C226.518,17.183 227.085,17.246 227.232,17.246 C227.337,17.246 227.379,17.183 227.379,17.057 L227.379,16.7 C227.379,16.553 227.337,16.49 227.169,16.49 L226.644,16.49 C226.203,16.49 226.14,16.364 226.14,15.797 L226.14,11.45 C226.14,11.051 226.203,10.484 226.623,10.022 C227.253,9.35 227.988,9.203 228.324,9.203 C228.849,9.203 229.353,9.203 229.857,9.581 C230.466,10.022 230.466,10.631 230.466,11.471 L230.466,14.243 C230.466,14.789 230.445,15.461 230.424,16.007 C230.403,16.385 230.235,16.49 230.004,16.49 L229.395,16.49 C229.185,16.49 229.122,16.532 229.122,16.679 L229.122,17.015 C229.122,17.183 229.164,17.246 229.29,17.246 C229.437,17.246 230.109,17.183 231.18,17.183 C232.377,17.183 233.028,17.246 233.175,17.246 C233.301,17.246 233.343,17.162 233.343,17.015 L233.343,16.679 C233.343,16.553 233.301,16.49 233.112,16.49 L232.44,16.49 C232.167,16.49 231.978,16.385 231.978,16.049 L231.978,10.631 C231.978,10.106 231.453,9.056 230.823,8.636 C230.319,8.3 229.668,8.174 229.038,8.174 C227.988,8.174 226.77,8.951 226.161,9.707 L226.119,9.707 L225.972,8.426 C225.951,8.258 225.909,8.174 225.804,8.174 C225.72,8.174 225.594,8.237 225.426,8.321 L223.62,9.329 C223.515,9.371 223.431,9.434 223.431,9.539 L223.431,9.644 C223.431,9.707 223.452,9.77 223.599,9.833 L223.767,9.917 C224.292,10.169 224.628,10.526 224.628,11.156 L224.628,16.07 C224.628,16.427 224.481,16.49 224.208,16.49 L223.599,16.49 C223.431,16.49 223.389,16.553 223.389,16.679 L223.389,17.057 C223.389,17.183 223.431,17.246 223.536,17.246 C223.662,17.246 224.334,17.183 225.405,17.183 Z M238.32,17.435 C239.391,17.435 240.735,16.973 241.407,16.301 L241.68,17.225 C241.722,17.372 241.827,17.435 241.953,17.393 L244.326,16.595 C244.452,16.553 244.494,16.49 244.473,16.364 L244.431,16.196 C244.389,16.091 244.305,16.07 244.011,16.049 C243.717,16.028 243.276,15.902 243.087,15.692 C242.931,15.497 242.883643,14.6863571 242.877673,13.9494362 L242.877943,8.16765094 L242.877943,8.16765094 L242.879688,7.513424 C242.88708,5.3348 242.9106,3.218 242.961,2.378 C242.982,2.147 242.961,2 242.856,2 C242.709,2 242.562,2.042 242.373,2.063 C241.974,2.147 240.882,2.336 240.063,2.504 C239.937,2.525 239.895,2.567 239.895,2.651 L239.895,3.008 C239.895,3.092 239.916,3.134 240.042,3.155 C241.218,3.344 241.365,3.596 241.365,4.394 L241.365,8.489 C240.735,8.3 239.979,8.174 239.118,8.174 C237.942,8.174 236.808,8.615 235.989,9.497 C235.002,10.484 234.519,11.765 234.519,13.067 C234.519,14.474 234.771,15.419 235.842,16.469 C236.829,17.477 237.627,17.435 238.32,17.435 Z M238.95,16.532 C237.732,16.532 236.094,14.81 236.094,12.437 C236.094,11.639 236.241,10.526 237.06,9.644 C237.606,9.077 238.32,8.888 238.971,8.888 C240.21,8.888 240.882,9.455 241.176,10.022 C241.365,10.358 241.365,10.757 241.365,11.051 L241.365,14.663 C241.365,14.894 241.344,15.062 241.239,15.377 C241.029,15.923 240.126,16.532 238.95,16.532 Z" id="JohnCarrollWeekend" fill-rule="nonzero"></path>
            </g>
        </g>
    </g>
</svg>