<?xml version="1.0" encoding="UTF-8"?>
<svg width="517px" height="30px" viewBox="0 0 517 30" version="1.1" xmlns="http://www.w3.org/2000/svg" xmlns:xlink="http://www.w3.org/1999/xlink">
    <title>GU + Lockup</title>
    <g id="JCW" stroke="none" stroke-width="1" fill="none" fill-rule="evenodd">
        <g id="desktop/nav/with-caslon-text" transform="translate(-50.000000, -23.000000)" fill="#FFFFFF">
            <g id="GU-+-Lockup" transform="translate(50.000000, 23.000000)">
                <g id="logo/one-line">
                    <path d="M172.660633,11.3132037 C172.660633,11.3132037 167.474982,15.4826385 169.12488,20.8001204 C169.12488,20.8001204 170.338619,24.5722747 175.016162,22.9903026 C175.016162,22.9903026 176.328663,22.3847737 177.10222,21.6107693 C177.876672,20.8367649 177.784167,21.646967 178.029953,22.1519468 C178.195301,22.4902385 178.583643,23.5623151 180.097689,23.4273559 C181.612181,23.2928436 182.79151,21.6764614 182.352223,21.1393059 C182.049682,20.7692853 181.578218,21.677802 181.208198,21.9133103 C180.838177,22.1483717 180.001162,22.1979759 179.833133,21.1218774 C179.665105,20.0448851 182.150231,13.5681842 182.150231,13.5681842 C182.150231,13.5681842 182.897422,11.6689239 183.78136,10.3063723 C184.296171,9.51270493 184.741269,9.36076411 185.246248,9.22669868 C186.784426,8.81869289 185.818261,8.35169831 185.381208,8.35169831 C184.943707,8.35169831 183.025231,8.0147472 182.183747,9.12570273 C181.342263,10.2362114 177.842708,19.2212765 177.842708,19.2212765 C177.842708,19.2212765 176.227667,22.5523555 173.131649,21.5432897 C170.036078,20.533777 171.099217,16.2722839 171.65112,15.116193 C171.91791,14.5584808 173.437318,11.8271211 175.352667,9.4286906 C176.656676,7.79577366 175.261502,8.61804163 173.78142,8.48263555 C172.300444,8.34812323 168.709725,7.59333486 167.219811,8.67300846 C165.474279,9.93813923 165.021585,12.0872081 166.536077,13.0967208 C168.050123,14.1062334 168.925123,12.2552367 168.35311,11.6161915 C167.766351,10.9597178 167.678314,11.63362 166.873028,11.5487119 C166.233089,11.4816792 166.334085,9.89970714 167.848578,9.73167847 C169.36307,9.56320291 171.54923,10.0704171 172.880053,10.0489667 C174.230539,10.0270693 172.660633,11.3132037 172.660633,11.3132037 L172.660633,11.3132037 Z M292.491889,18.4897261 C292.706841,17.5459055 292.920898,17.1168961 293.221652,16.6449858 C293.521958,16.1301746 297.425944,10.6813086 297.769151,10.2098452 C298.198161,9.63068251 298.62717,9.28747501 299.356486,9.28747501 L299.742594,9.28747501 C299.871297,9.28747501 299.914198,9.24412719 299.914198,9.07297032 L300,8.64396095 C300,8.51525814 299.956652,8.42900938 299.785048,8.42900938 C299.485189,8.42945626 298.841228,8.49380767 297.511746,8.49380767 C296.310072,8.49380767 295.494955,8.42945626 295.194648,8.42945626 C294.98059,8.42900938 294.937689,8.4723572 294.937689,8.60106001 L294.894342,9.07297032 C294.851441,9.20167314 294.894342,9.28747501 295.023044,9.28747501 L295.495402,9.28747501 C296.224717,9.28747501 296.503574,9.60923204 296.224717,10.4243499 C296.010213,11.067417 292.964246,15.5724624 292.66394,16.0443727 C292.491889,16.3446792 292.320285,16.3446792 292.234483,16.0014717 L290.518446,10.2308488 C290.389743,9.80183938 290.389743,9.28747501 291.076158,9.28747501 L291.63387,9.28747501 C291.762573,9.28747501 291.805921,9.24412719 291.848822,9.11542438 L291.891276,8.60106001 C291.891276,8.4723572 291.848822,8.42900938 291.677218,8.42900938 C291.419812,8.42945626 290.69005,8.49380767 288.845309,8.49380767 C287.129272,8.49380767 286.57156,8.42945626 286.271253,8.42945626 C286.14255,8.42900938 286.099649,8.4723572 286.057195,8.60106001 L285.970947,9.11542438 C285.970947,9.24412719 286.013847,9.28747501 286.14255,9.28747501 L286.614907,9.28747501 C287.344223,9.28747501 287.773233,9.58778157 287.94439,10.1021459 L290.175685,16.6878867 C290.26104,16.9452924 290.304388,17.5030046 290.218139,17.8033111 L289.531724,20.9779805 C289.403022,21.6000441 289.102715,22.0719544 288.115993,22.0719544 L287.64453,22.0719544 C287.472926,22.0719544 287.429578,22.1577563 287.429578,22.2435582 L287.344223,22.7154685 C287.344223,22.8866253 287.386677,22.9295263 287.51538,22.9295263 C287.773233,22.9295263 288.4163,22.8656218 290.346842,22.8656218 C292.063327,22.8656218 292.749295,22.9295263 293.092502,22.9295263 C293.264553,22.9295263 293.307007,22.8441713 293.307007,22.7154685 L293.393256,22.2435582 C293.393256,22.1577563 293.349908,22.0719544 293.221652,22.0719544 L292.749295,22.0719544 C292.020426,22.0719544 291.741123,21.9861525 291.977525,20.8707282 L292.491889,18.4897261 Z M276.751714,8.49336078 C274.520418,8.49336078 273.491243,8.32220392 273.062233,8.1935011 C272.890629,8.06435141 272.804381,8.02145047 272.718579,8.02145047 C272.589876,8.02145047 272.546975,8.10725234 272.504521,8.23595516 C272.46162,8.36465797 271.131244,11.3681705 270.873392,11.8396339 C270.830938,11.9258827 270.830938,12.0112377 270.917186,12.0541386 L271.259947,12.2690902 C271.346196,12.2690902 271.431551,12.2690902 271.517799,12.1828414 C272.032164,11.5826752 273.147588,10.3381011 273.898801,9.78038891 C274.391715,9.41528405 275.335983,9.30892548 277.309426,9.30892548 L277.867138,9.30892548 L274.563319,19.9054571 C274.070405,21.5137953 273.662399,22.0715075 272.46162,22.0715075 L271.903908,22.0715075 C271.731857,22.0715075 271.667953,22.1148553 271.646502,22.2435582 L271.603154,22.7154685 C271.581257,22.8441713 271.646502,22.9295263 271.796656,22.9295263 C272.010713,22.9295263 273.147588,22.8656218 275.249734,22.8656218 C277.266525,22.8656218 278.124544,22.9295263 278.42485,22.9295263 C278.575004,22.9295263 278.660806,22.8656218 278.682256,22.7154685 L278.767611,22.2864591 C278.789508,22.1577563 278.746161,22.0715075 278.638908,22.0715075 L277.780889,22.0715075 C276.665465,22.0715075 276.451407,21.6000441 276.880417,20.2482177 L280.269591,9.30892548 L280.6986,9.30892548 C281.685322,9.30892548 283.229755,9.50153281 283.701219,9.86619078 C284.001972,10.423903 284.387634,11.753832 284.559238,12.440247 C284.645486,12.6980995 284.731288,12.7839014 284.859991,12.7839014 L285.203199,12.7191031 C285.331901,12.6980995 285.374355,12.6547517 285.374355,12.5260489 C285.331901,11.6680302 285.545959,8.5367086 285.589307,8.1935011 C285.589307,8.06435141 285.503505,8.02145047 285.417703,8.02145047 C285.331901,8.02145047 285.289,8.06435141 285.203199,8.10725234 C284.816643,8.32220392 284.044873,8.49336078 282.114331,8.49336078 L276.751714,8.49336078 Z M263.414438,20.5489711 C263.114131,21.6420513 262.985429,22.0715075 261.741301,22.0715075 L260.926184,22.0715075 C260.797481,22.0715075 260.75458,22.1148553 260.75458,22.2435582 L260.625877,22.7154685 C260.625877,22.8441713 260.668778,22.9295263 260.797481,22.9295263 C261.054886,22.9295263 262.170311,22.8656218 263.97215,22.8656218 C266.160098,22.8656218 267.14682,22.9295263 267.404225,22.9295263 C267.61873,22.9295263 267.61873,22.8866253 267.661631,22.7154685 L267.704532,22.2864591 C267.747433,22.1577563 267.704532,22.0715075 267.575829,22.0715075 L266.803612,22.0715075 C265.902692,22.0715075 265.580935,21.6420513 265.859791,20.6133225 L268.520096,10.7246564 C268.841407,9.5019797 269.334767,9.28747501 270.235687,9.28747501 L270.793399,9.28747501 C270.965003,9.28747501 271.007904,9.20167314 271.007904,9.11542438 L271.136607,8.686415 C271.179508,8.51525814 271.093706,8.42900938 270.879201,8.42900938 C270.578895,8.42945626 269.677975,8.49380767 267.832788,8.49380767 C266.117197,8.49380767 264.958872,8.42945626 264.701466,8.42945626 C264.529862,8.42900938 264.44406,8.4723572 264.44406,8.55771219 L264.315358,9.11542438 C264.315358,9.24412719 264.358259,9.28747501 264.529862,9.28747501 L265.516584,9.28747501 C266.074296,9.28747501 266.41795,9.63068251 266.117197,10.703206 L263.414438,20.5489711 Z M261.613045,8.60106001 C261.613045,8.51525814 261.569698,8.4723572 261.441442,8.4723572 L261.184036,8.42900938 C261.011985,8.42900938 260.969085,8.42900938 260.969085,8.51525814 C260.88373,8.94426751 260.755027,9.24412719 260.626324,9.24412719 C260.497174,9.24412719 260.411372,9.20167314 260.326017,9.1587722 C259.982363,8.90136657 258.95274,8.17205064 257.794862,8.17205064 C255.005854,8.17205064 253.804628,10.4024525 253.804628,11.9468863 C253.804628,14.1567314 254.920052,15.2721558 256.250428,16.7303408 C257.193802,17.7604102 258.266772,18.575528 258.266772,19.9479111 C258.266772,21.1281338 257.322505,22.2002103 255.950122,22.2002103 C254.619746,22.2002103 252.946609,20.7420253 253.547669,17.6531578 C253.547669,17.524455 253.504321,17.4815541 253.418966,17.4382063 L253.075312,17.3528513 C252.946609,17.3528513 252.904155,17.3528513 252.861254,17.4382063 L251.273473,22.1148553 C251.230572,22.2864591 251.230572,22.2864591 251.359274,22.3289131 L251.61668,22.457616 C251.745383,22.5005169 251.788284,22.457616 251.831185,22.3718141 C252.002789,22.0719544 252.217293,21.7287469 252.346443,21.5571432 C252.475146,21.4284403 252.689204,21.3850925 252.904155,21.6000441 C253.590123,22.3718141 254.576845,23.1869319 255.950122,23.1869319 C258.180524,23.1869319 260.153967,21.7287469 260.153967,18.98264 C260.153967,16.6020849 258.738236,15.4008586 257.751514,14.4141371 C256.764793,13.4274155 255.821419,12.7410005 255.821419,11.2390208 C255.821419,10.3170975 256.507387,9.1587722 257.751514,9.1587722 C259.939462,9.1587722 260.197315,11.7328285 260.068165,12.5908472 C260.068165,12.71955 260.111066,12.8053519 260.28267,12.8053519 L260.669225,12.8053519 C260.755027,12.8053519 260.797928,12.762451 260.840382,12.6766491 L261.613045,8.60106001 Z M243.334118,9.20122625 C243.591523,9.1587722 243.849376,9.1587722 244.235484,9.1587722 C246.33763,9.1587722 246.980698,10.5530527 246.980698,11.4535255 C246.980698,12.9984061 245.993976,14.1991855 244.878552,14.6715427 C243.420367,15.2717089 242.304495,15.185907 241.446923,15.185907 L243.334118,9.20122625 Z M241.210968,15.9371203 C241.789684,15.9371203 242.733505,15.8084175 243.248763,16.9877464 C243.506168,17.5030046 245.39381,21.7072964 245.693669,22.2216608 C245.993976,22.7154685 246.080225,22.9295263 246.294283,22.9295263 C246.637937,22.9295263 247.023598,22.8656218 248.267726,22.8656218 C249.426051,22.8656218 249.769705,22.9295263 249.983763,22.9295263 C250.112913,22.9295263 250.155814,22.8441713 250.198715,22.7154685 L250.241169,22.2864591 C250.284517,22.1577563 250.241169,22.0715075 250.112913,22.0715075 L249.555201,22.0715075 C248.782984,22.0715075 248.267726,21.7287469 247.688563,20.8278272 C247.324352,20.2482177 245.86572,17.202698 245.73657,16.9877464 C245.522513,16.558737 245.179305,15.9156699 244.49289,15.7436192 L244.49289,15.6582642 C247.281451,15.3579577 249.555201,13.6414733 249.555201,11.5397742 C249.555201,8.57960954 246.33763,8.42900938 244.49289,8.42900938 C243.892277,8.42900938 241.661428,8.49336078 239.430579,8.49336078 C239.215628,8.49336078 239.173174,8.53626172 239.130273,8.66496453 L239.044471,9.11542438 C239.00157,9.24412719 239.044471,9.28747501 239.215628,9.28747501 L239.945391,9.28747501 C240.674707,9.28747501 240.803409,9.67313657 240.588905,10.3595516 L237.15683,21.0633355 C236.984779,21.600491 236.599118,22.0715075 236.084306,22.0715075 L235.526594,22.0715075 C235.35499,22.0715075 235.311643,22.1148553 235.311643,22.2435582 L235.226288,22.7154685 C235.183387,22.8441713 235.226288,22.9295263 235.35499,22.9295263 C235.612396,22.9295263 236.427067,22.8656218 237.929047,22.8656218 C239.77334,22.8656218 240.717608,22.9295263 240.975013,22.9295263 C241.103716,22.9295263 241.189071,22.8866253 241.231972,22.7579225 L241.27532,22.2435582 C241.317774,22.1577563 241.27532,22.0715075 241.146617,22.0715075 L240.245697,22.0715075 C239.644637,22.0715075 239.409129,21.685846 239.77334,20.5270738 L241.210968,15.9371203 Z M234.494737,19.0045374 C234.366034,18.9187355 234.280232,18.9616364 234.237332,19.0474383 C233.894124,19.4335467 232.735799,20.8921786 232.263888,21.2782871 C231.706176,21.771201 231.105563,22.0934049 230.376247,22.0934049 L225.571342,22.0934049 L227.673488,15.5934659 L228.746012,15.5934659 C230.290445,15.5934659 231.105563,15.829868 231.105563,17.3743017 C231.105563,17.5030046 231.105563,17.5459055 231.234266,17.5888064 L231.620374,17.5888064 C231.706176,17.5888064 231.749077,17.5888064 231.791978,17.4601036 C231.87778,16.6449858 232.564642,13.9851277 232.907402,13.1700099 C232.950303,13.1271089 232.907402,13.0408602 232.821601,13.0408602 L232.435939,12.9121574 C232.34969,12.9121574 232.306789,12.9555052 232.263888,13.0408602 C231.491672,14.7144436 230.655103,14.821696 229.732733,14.821696 L227.887993,14.821696 L229.689832,9.26557766 L233.036105,9.26557766 C233.164808,9.26557766 233.293511,9.30892548 233.422661,9.43762829 L235.610162,11.9687836 C235.738864,12.0974864 235.781765,12.1403874 235.867567,12.0974864 L236.124973,11.9687836 C236.253676,11.8829817 236.253676,11.8829817 236.210775,11.7323816 L235.567261,8.85846564 C235.481459,8.51525814 235.439005,8.42900938 235.09535,8.42900938 C234.859395,8.42900938 234.344584,8.45090673 233.486565,8.4723572 C232.628546,8.49380767 231.449218,8.49380767 229.904337,8.49380767 L228.359903,8.49380767 C227.845092,8.49380767 227.137226,8.4723572 226.515163,8.45090673 C225.91455,8.45090673 225.399738,8.42900938 225.271036,8.42900938 C225.099432,8.42900938 225.056531,8.4723572 225.01363,8.60106001 L224.884927,9.07297032 C224.842026,9.20167314 224.906378,9.28747501 225.01363,9.28747501 L225.700045,9.28747501 C226.343559,9.28747501 227.115329,9.58778157 226.751118,10.74566 L223.469196,20.9341858 C223.254692,21.6424981 222.825682,22.0715075 221.967663,22.0715075 L221.281248,22.0715075 C221.195447,22.0715075 221.152546,22.1148553 221.131095,22.2002103 L221.045293,22.7579225 C221.023843,22.8866253 221.066744,22.9295263 221.173996,22.9295263 C221.302699,22.9295263 221.645906,22.9080758 222.117817,22.8866253 C222.611177,22.8866253 223.233241,22.8656218 223.898206,22.8656218 L226.687213,22.8656218 C228.166849,22.8656218 229.711283,22.8656218 230.933959,22.8866253 C232.156636,22.9080758 233.036105,22.9295263 233.207709,22.9295263 C233.465562,22.9295263 233.593817,22.8866253 233.679619,22.5438647 L234.795044,19.4116494 C234.837945,19.2614961 234.795044,19.2190421 234.752143,19.1761411 L234.494737,19.0045374 Z M214.245495,18.9611895 C213.945635,19.347298 213.687782,19.3048439 213.773584,18.7471317 L215.253667,10.1664973 C215.361366,9.54443375 215.747027,9.28747501 216.433442,9.28747501 L217.034056,9.28747501 C217.205659,9.28747501 217.24856,9.24412719 217.270011,9.11542438 L217.334809,8.62206359 C217.377263,8.47191031 217.334809,8.42900938 217.119857,8.42900938 C216.862452,8.42945626 215.961532,8.49336078 214.416652,8.49336078 C212.572358,8.49336078 211.671438,8.42945626 211.371132,8.42945626 C211.199528,8.42900938 211.199528,8.47191031 211.156627,8.64351406 L211.027477,9.09397391 C210.98547,9.24412719 211.070825,9.28747501 211.242429,9.28747501 L211.928844,9.28747501 C212.615259,9.28747501 212.829764,9.80183938 212.743962,10.4453534 L211.049375,22.4790664 C210.963573,22.9943246 211.006474,23.2946311 211.349681,23.2946311 C211.649988,23.2946311 211.907394,23.0801264 212.036096,22.9080758 L221.195447,11.4110714 C222.032015,10.3595516 223.125989,9.28747501 223.855305,9.28747501 L224.327215,9.28747501 C224.455918,9.28747501 224.499266,9.20122625 224.54172,9.07252344 L224.606071,8.62206359 C224.627522,8.51481125 224.584621,8.42900938 224.370563,8.42900938 C224.11271,8.42945626 223.554551,8.49336078 222.310871,8.49336078 C221.152099,8.49336078 220.42323,8.42945626 220.122923,8.42945626 C219.908418,8.42900938 219.865964,8.47191031 219.865964,8.60061313 L219.758265,9.07252344 C219.736815,9.20122625 219.779269,9.28747501 219.994667,9.28747501 L220.423677,9.28747501 C221.023843,9.28747501 220.938041,10.0377945 220.165824,11.067417 L214.245495,18.9611895 Z M202.74849,20.5489711 C202.447737,21.6420513 202.319034,22.0715075 201.075354,22.0715075 L200.260236,22.0715075 C200.131086,22.0715075 200.088632,22.1148553 200.088632,22.2435582 L199.959929,22.7154685 C199.959929,22.8441713 200.002383,22.9295263 200.131086,22.9295263 C200.388939,22.9295263 201.504363,22.8656218 203.305756,22.8656218 C205.493703,22.8656218 206.480425,22.9295263 206.738277,22.9295263 C206.952335,22.9295263 206.952335,22.8866253 206.995683,22.7154685 L207.038137,22.2864591 C207.080591,22.1577563 207.038137,22.0715075 206.909434,22.0715075 L206.137664,22.0715075 C205.236298,22.0715075 204.914988,21.6420513 205.193844,20.6133225 L207.853702,10.7246564 C208.175012,9.5019797 208.66882,9.28747501 209.569739,9.28747501 L210.127452,9.28747501 C210.298608,9.28747501 210.341509,9.20167314 210.341509,9.11542438 L210.470212,8.686415 C210.51356,8.51525814 210.427311,8.42900938 210.212807,8.42900938 C209.9125,8.42945626 209.01158,8.49380767 207.167287,8.49380767 C205.451249,8.49380767 204.292477,8.42945626 204.035518,8.42945626 C203.863468,8.42900938 203.778113,8.4723572 203.778113,8.55771219 L203.648963,9.11542438 C203.648963,9.24412719 203.691417,9.28747501 203.863468,9.28747501 L204.850189,9.28747501 C205.407902,9.28747501 205.751556,9.63068251 205.451249,10.703206 L202.74849,20.5489711 Z M195.584034,22.4366124 C195.712737,22.7364721 195.927241,22.8656218 196.141746,22.8656218 C196.270449,22.8227208 196.442052,22.6506702 196.570755,22.3079096 L200.517642,11.0245161 C200.946651,9.80183938 201.37566,9.28747501 201.890472,9.28747501 L202.448184,9.28747501 C202.576887,9.28747501 202.619787,9.24412719 202.619787,9.11542438 L202.705589,8.72976282 C202.74849,8.55771219 202.705589,8.42900938 202.491085,8.42900938 C202.190778,8.42945626 201.761769,8.49380767 200.646344,8.49380767 C199.144365,8.49380767 198.45795,8.42945626 198.200991,8.42945626 C198.072288,8.42900938 198.029387,8.51525814 197.986486,8.60106001 L197.943585,9.07297032 C197.900237,9.24412719 197.943585,9.28747501 198.15809,9.28747501 L198.801604,9.28747501 C199.53092,9.28747501 199.702077,9.97344313 199.144812,11.711378 L196.871062,18.6613299 C196.699458,19.1761411 196.613656,19.2190421 196.442052,18.9616364 L191.680048,9.05151986 C191.551346,8.75121329 191.422643,8.49380767 191.036534,8.49380767 C188.505379,8.49380767 187.64736,8.42900938 187.389955,8.42900938 C187.218351,8.42900938 187.175003,8.51525814 187.132549,8.64396095 L187.046747,9.03006939 C187.003399,9.20167314 187.046747,9.28747501 187.218351,9.28747501 L188.033469,9.28747501 C188.934388,9.28747501 189.384848,9.88808814 188.976842,11.1536658 L186.360332,19.4335467 C185.716818,21.3421916 185.202007,22.0715075 184.214391,22.0715075 L183.743375,22.0715075 C183.614225,22.0715075 183.571771,22.1577563 183.52887,22.2435582 L183.464519,22.694018 C183.443068,22.8441713 183.485522,22.9295263 183.614225,22.9295263 C183.872078,22.9295263 184.558493,22.8656218 186.060026,22.8656218 C187.518657,22.8656218 188.41913,22.9295263 188.634082,22.9295263 C188.84814,22.9295263 188.84814,22.8866253 188.891487,22.7364721 L188.976842,22.2864591 C188.976842,22.1577563 188.934388,22.0715075 188.762785,22.0715075 L187.947667,22.0715075 C187.046747,22.0715075 186.960945,21.0633355 187.690261,18.6184289 L189.834861,11.4539724 C189.878209,11.1965667 190.049813,11.1965667 190.178516,11.4110714 L195.584034,22.4366124 Z M133.442473,20.7205749 C133.442473,22.4790664 134.922555,23.4233339 136.445538,23.4233339 C139.577307,23.4233339 141.507849,21.0208814 142.623273,19.0474383 C143.717247,17.1812475 144.639617,14.3926866 145.132978,11.6680302 C145.197329,11.3252695 145.326032,11.3462731 145.368933,11.5397742 C146.420006,15.7869671 148.371999,20.5270738 150.795902,23.7236405 C152.061926,25.3967771 154.871491,28.8503025 159.225936,28.8503025 C161.693187,28.8503025 162.830062,27.6490763 163.194273,27.2415174 C163.580381,26.8335116 163.838234,26.1904444 163.838234,25.9115883 C163.838234,25.5893844 163.68808,25.1818255 163.21617,25.1818255 C162.787161,25.1818255 162.507858,25.6112818 162.2938,26.5546555 C162.122196,27.262521 161.349532,27.7348782 160.256005,27.7348782 C156.523177,27.7348782 153.391855,23.7665414 152.297435,21.8999038 C152.08293,21.5356927 151.718272,21.0852328 152.061926,19.5189017 C153.434309,13.3630641 155.107446,11.0888675 156.587528,10.016791 C157.273943,9.52298328 157.702953,9.43762829 158.110512,9.43762829 C158.410818,9.43762829 158.775476,9.67313657 158.883175,9.93098908 C159.054332,10.1883947 159.376089,10.5311553 159.826549,10.5311553 C160.362811,10.5311553 160.878069,10.0596919 160.878069,9.45907876 C160.878069,8.75121329 160.277456,8 158.990428,8 C158.110512,8 157.080889,8.21495157 155.986915,9.07297032 C153.605913,10.8962602 152.233083,15.0357538 151.289263,19.2833935 C151.203461,19.6905055 151.096208,19.8840066 150.946055,19.626601 C149.78773,17.7604102 147.792836,12.2690902 147.06352,8.98672156 C146.977718,8.64396095 146.849016,8.49380767 146.441457,8.49380767 C142.580372,8.49380767 140.435325,8.32220392 138.890892,9.41573094 C137.88272,10.1454938 137.410809,11.3038191 137.410809,12.397793 C137.410809,13.4274155 138.054323,14.2425333 138.80509,14.2425333 C139.470054,14.2425333 139.877613,13.7920735 139.877613,13.3201631 C139.877613,12.8482528 139.577307,12.4621444 138.912342,12.3544452 C138.461882,12.2257424 138.311729,11.7542789 138.311729,11.4964264 C138.311729,10.982062 139.148297,10.4024525 140.027766,10.1454938 C141.250443,9.75938532 142.47312,9.78083579 143.781598,9.78083579 C144.253509,9.78083579 144.510914,9.93098908 144.510914,10.4243499 C144.510914,12.5479463 142.816327,17.2241485 141.293344,19.3477449 C140.349523,20.6343261 138.612036,22.2650086 136.55279,22.2650086 C135.351564,22.2650086 135.029807,21.7930983 135.115609,21.3850925 C135.222861,20.9131822 135.823475,20.6133225 135.823475,19.9912589 C135.823475,19.2614961 135.330114,18.9616364 134.772402,18.9616364 C134.193239,18.9616364 133.442473,19.5622496 133.442473,20.7205749 L133.442473,20.7205749 Z M122.82449,10.4243499 C122.975091,9.54443375 123.27495,9.28747501 123.961812,9.28747501 L124.30502,9.28747501 C124.476177,9.28747501 124.519524,9.20122625 124.519524,9.11542438 L124.605326,8.62206359 C124.64778,8.4723572 124.605326,8.42900938 124.390822,8.42900938 C124.132969,8.42945626 123.317851,8.49336078 121.987922,8.49336078 C120.572191,8.49336078 119.714173,8.42945626 119.499668,8.42945626 C119.328064,8.42900938 119.285163,8.4723572 119.242709,8.60106001 L119.178358,9.09397391 C119.15646,9.24412719 119.199361,9.28747501 119.371412,9.28747501 L119.886223,9.28747501 C120.358133,9.28747501 120.443935,9.67313657 120.358133,10.4024525 L118.834703,22.3937114 C118.749348,22.9943246 118.856154,23.2946311 119.13501,23.2946311 C119.478217,23.2946311 119.692722,23.0367786 119.950575,22.7364721 C120.743795,21.8145488 126.535422,13.7701761 126.749926,13.4698695 C126.921977,13.2558117 127.093134,13.2558117 127.05068,13.5132174 L126.428616,22.5224143 C126.385268,22.9943246 126.47107,23.2946311 126.814278,23.2946311 C127.157485,23.2946311 127.415338,22.9514236 127.694194,22.6077692 C128.616564,21.4708944 131.426575,17.3314008 132.026742,16.3446792 C132.542,15.4866605 135.75957,10.1669442 135.974075,9.86663767 C136.317282,9.41573094 136.703391,9.28747501 137.089499,9.28747501 L137.475608,9.28747501 C137.561409,9.28747501 137.603863,9.24412719 137.647211,9.11542438 L137.733013,8.57960954 C137.754464,8.4723572 137.690112,8.42900938 137.518508,8.42900938 C137.217755,8.42945626 136.660043,8.49336078 135.373015,8.49336078 C134.25759,8.49336078 133.742779,8.42945626 133.442473,8.42945626 C133.314217,8.42900938 133.227968,8.4723572 133.227968,8.64351406 L133.142613,9.09397391 C133.099265,9.24412719 133.185514,9.28747501 133.314217,9.28747501 L133.656977,9.28747501 C134.300938,9.28747501 134.343839,9.8451872 134.150338,10.4024525 C133.957731,10.982062 133.013463,12.9979592 131.984288,14.7139967 C131.554831,15.4433127 129.453132,18.9182886 129.024123,19.3901989 C128.809618,19.6476045 128.680915,19.6051505 128.723369,19.2185952 L129.79634,10.295647 C129.882142,9.54443375 130.096646,9.28747501 130.482308,9.28747501 L130.825515,9.28747501 C130.997566,9.28747501 131.04002,9.24412719 131.083368,9.11542438 L131.147719,8.60106001 C131.16917,8.4723572 131.125822,8.42900938 130.954665,8.42900938 C130.696813,8.42945626 130.1391,8.49336078 128.894973,8.49336078 C127.565044,8.49336078 127.007779,8.42945626 126.792827,8.42945626 C126.621223,8.42900938 126.578769,8.4723572 126.535422,8.55771219 L126.44962,9.13687485 C126.44962,9.24412719 126.492968,9.28747501 126.621223,9.28747501 L126.921977,9.28747501 C127.307638,9.28747501 127.479689,9.58778157 127.479689,10.016791 C127.479689,10.4668039 127.222283,11.3248227 126.707472,12.0974864 C126.621223,12.2257424 121.859666,19.0898924 121.730517,19.2185952 C121.516012,19.4764477 121.344855,19.3901989 121.387309,19.1327933 L122.82449,10.4243499 Z M108.088465,10.7885609 C108.860682,9.88764125 109.890305,9.20122625 111.177333,9.20122625 C113.107875,9.20122625 114.179952,10.6169572 114.179952,12.7620041 C114.137498,17.3953053 111.348937,22.2002103 108.217168,22.2002103 C106.45823,22.2002103 105.042499,20.9560831 105.042499,18.2966719 C105.042499,15.9366734 106.329527,12.7620041 108.088465,10.7885609 L108.088465,10.7885609 Z M116.497049,14.4351406 C116.497049,10.4882544 114.094597,8.17205064 110.662075,8.17205064 C106.115022,8.17205064 102.854551,12.3758956 102.854551,16.8375931 C102.854551,18.7681353 103.412263,20.4841728 104.741745,21.771201 C106.071674,23.0582291 107.745258,23.1869319 108.60283,23.1869319 C113.451083,23.1869319 116.497049,18.7256813 116.497049,14.4351406 L116.497049,14.4351406 Z M94.2976014,8.49336078 C92.0671996,8.49336078 91.0371302,8.32220392 90.6081208,8.1935011 C90.4369639,8.06435141 90.3507152,8.02145047 90.2649133,8.02145047 C90.1362105,8.02145047 90.0937564,8.10725234 90.0504086,8.23595516 C90.0075077,8.36465797 88.6780255,11.3681705 88.420173,11.8396339 C88.377272,11.9258827 88.377272,12.0112377 88.4630739,12.0541386 L88.8062814,12.2690902 C88.8925302,12.2690902 88.9778852,12.2690902 89.063687,12.1828414 C89.5784983,11.5826752 90.6939227,10.3381011 91.4446891,9.78038891 C91.9380499,9.41528405 92.8818705,9.30892548 94.8553136,9.30892548 L95.4130258,9.30892548 L92.1096536,19.9054571 C91.6162928,21.5137953 91.2087339,22.0715075 90.0075077,22.0715075 L89.4502424,22.0715075 C89.2781917,22.0715075 89.2138403,22.1148553 89.1923899,22.2435582 L89.1494889,22.7154685 C89.1280384,22.8441713 89.1923899,22.9295263 89.3425431,22.9295263 C89.5570478,22.9295263 90.6939227,22.8656218 92.7960686,22.8656218 C94.8124127,22.8656218 95.6704314,22.9295263 95.970738,22.9295263 C96.1208913,22.9295263 96.2066931,22.8656218 96.2285905,22.7154685 L96.3139455,22.2864591 C96.335396,22.1577563 96.2929419,22.0715075 96.1852427,22.0715075 L95.3272239,22.0715075 C94.2117995,22.0715075 93.9972949,21.6000441 94.4263042,20.2482177 L97.8154783,9.30892548 L98.2444877,9.30892548 C99.2312092,9.30892548 100.775643,9.50153281 101.247553,9.86619078 C101.54786,10.423903 101.934415,11.753832 102.105572,12.440247 C102.191374,12.6980995 102.277623,12.7839014 102.406326,12.7839014 L102.749086,12.7191031 C102.877789,12.6980995 102.921137,12.6547517 102.921137,12.5260489 C102.877789,11.6680302 103.092294,8.5367086 103.135641,8.1935011 C103.135641,8.06435141 103.04984,8.02145047 102.963591,8.02145047 C102.877789,8.02145047 102.835335,8.06435141 102.749086,8.10725234 C102.363425,8.32220392 101.591208,8.49336078 99.6606655,8.49336078 L94.2976014,8.49336078 Z M86.1231853,19.0045374 C85.9944825,18.9187355 85.9086806,18.9616364 85.8657797,19.0474383 C85.5225721,19.4335467 84.3642468,20.8921786 83.8923365,21.2782871 C83.3346243,21.771201 82.7340112,22.0934049 82.0046953,22.0934049 L77.1997903,22.0934049 L79.3019362,15.5934659 L80.3744596,15.5934659 C81.9188934,15.5934659 82.7340112,15.829868 82.7340112,17.3743017 C82.7340112,17.5030046 82.7340112,17.5459055 82.862714,17.5888064 L83.2488225,17.5888064 C83.3346243,17.5888064 83.3775253,17.5888064 83.4204262,17.4601036 C83.5062281,16.6449858 84.1926431,13.9851277 84.5358506,13.1700099 C84.5787515,13.1271089 84.5358506,13.0408602 84.4500487,13.0408602 L84.0639403,12.9121574 C83.9781384,12.9121574 83.9352375,12.9555052 83.8923365,13.0408602 C83.1201196,14.7144436 82.2835514,14.821696 81.3611812,14.821696 L79.5164409,14.821696 L81.3182803,9.26557766 L84.6645534,9.26557766 C84.7932562,9.26557766 84.921959,9.30892548 85.0506618,9.43762829 L87.2386097,11.9687836 C87.3673125,12.0974864 87.4102134,12.1403874 87.4960153,12.0974864 L87.7534209,11.9687836 C87.8821237,11.8829817 87.8821237,11.8829817 87.8392228,11.7323816 L87.1957087,8.85846564 C87.1099068,8.51525814 87.0670059,8.42900938 86.7237984,8.42900938 C86.4878432,8.42900938 85.973032,8.45090673 85.1150132,8.4723572 C84.2569945,8.49380767 83.0772187,8.49380767 81.532785,8.49380767 L79.9883512,8.49380767 C79.47354,8.49380767 78.7656745,8.4723572 78.1436109,8.45090673 C77.5429978,8.45090673 77.0281865,8.42900938 76.8994837,8.42900938 C76.7278799,8.42900938 76.684979,8.4723572 76.6420781,8.60106001 L76.5133753,9.07297032 C76.4704743,9.20167314 76.5348257,9.28747501 76.6420781,9.28747501 L77.3284931,9.28747501 C77.9720071,9.28747501 78.744224,9.58778157 78.379566,10.74566 L75.0976443,20.9341858 C74.8831396,21.6424981 74.4541303,22.0715075 73.5961115,22.0715075 L72.9096965,22.0715075 C72.8238946,22.0715075 72.7809937,22.1148553 72.7595432,22.2002103 L72.6737413,22.7579225 C72.6522909,22.8866253 72.6951918,22.9295263 72.8024442,22.9295263 C72.931147,22.9295263 73.2743545,22.9080758 73.7462648,22.8866253 C74.2396256,22.8866253 74.8616892,22.8656218 75.5266537,22.8656218 L78.3152146,22.8656218 C79.795297,22.8656218 81.3397307,22.8656218 82.5624075,22.8866253 C83.7850842,22.9080758 84.6645534,22.9295263 84.8361571,22.9295263 C85.0935628,22.9295263 85.2222656,22.8866253 85.3080675,22.5438647 L86.4234918,19.4116494 C86.4663928,19.2614961 86.4234918,19.2190421 86.3805909,19.1761411 L86.1231853,19.0045374 Z M70.9796012,18.897285 C71.2580104,17.7604102 71.558317,17.5888064 71.9663228,17.5888064 L72.4163357,17.5888064 C72.5450385,17.5888064 72.5879395,17.5459055 72.6093899,17.4167558 L72.6741882,16.9023914 C72.6951918,16.7951391 72.6308404,16.7303408 72.4806871,16.7303408 C72.1803806,16.7307877 71.6655693,16.7951391 70.2069374,16.7951391 C68.3192962,16.7951391 67.5685298,16.7307877 67.2467727,16.7307877 C67.075169,16.7303408 67.0322681,16.7736886 67.0108176,16.9023914 L66.9250157,17.3743017 C66.8821148,17.524455 66.9035652,17.5888064 67.075169,17.5888064 L67.8259354,17.5888064 C68.4050981,17.5888064 68.6410532,17.7604102 68.5767018,18.575528 C68.4908999,19.8411057 67.2467727,22.0496102 64.6727165,22.0496102 C63.7288959,22.0496102 61.5623985,21.491898 61.5623985,17.974468 C61.5623985,15.3794081 62.270264,13.0623106 63.5143912,11.4964264 C65.015924,9.52298328 66.5603577,9.05151986 67.9331877,9.05151986 C70.7217487,9.05151986 71.7728217,11.3038191 71.4086106,13.1485594 C71.3867132,13.2772622 71.4510646,13.3411667 71.558317,13.3630641 L71.9019714,13.405965 C72.0516778,13.4274155 72.0945787,13.405965 72.1374796,13.2772622 L73.3601564,8.9652711 C73.3820537,8.85846564 73.3172554,8.81511781 73.2319004,8.79366734 L72.9096965,8.70786547 C72.8024442,8.686415 72.7380928,8.70786547 72.7166423,8.81511781 C72.5879395,9.28747501 72.4596835,9.50153281 72.201831,9.50153281 C72.0945787,9.50153281 71.9019714,9.45907876 71.6226684,9.24412719 C71.1941059,8.90136657 70.0567842,8.17205064 67.8259354,8.17205064 C64.8443202,8.17205064 62.9781295,9.48052923 61.7769032,10.6813086 C60.1895685,12.2905406 58.9239909,14.6286417 58.9239909,17.3957522 C58.9239909,21.1066833 60.9403349,23.1869319 63.9004996,23.1869319 C66.7963129,23.1869319 68.0189896,21.4498908 68.3192962,21.0423319 L68.447999,21.084786 C67.6543317,24.0449506 67.2682232,25.7395377 67.0108176,26.7481566 C66.6247092,28.2282389 66.024096,29.1287118 64.9086716,29.1287118 C64.4582118,29.1287118 63.964851,28.8932035 63.964851,28.4641941 C63.964851,28.2925904 64.007752,28.185338 64.0935538,28.0995361 C64.2008062,27.9918369 64.2866081,27.6276258 64.2866081,27.3702202 C64.2866081,27.1338182 64.1579052,26.4693005 63.3642379,26.4693005 C62.6134715,26.4693005 62.2059126,27.0484632 62.2059126,27.7992296 C62.2059126,28.8279583 62.9781295,29.8151268 64.9730231,29.8151268 C66.6032587,29.8151268 68.1476924,28.3783922 68.7054046,27.2415174 C68.9842607,26.6194538 69.4132701,25.3967771 69.5634234,24.6674611 L70.9796012,18.897285 Z M50.9658669,9.20122625 C51.2232726,9.1587722 51.4806782,9.1587722 51.8667866,9.1587722 C53.9689326,9.1587722 54.6128935,10.5530527 54.6128935,11.4535255 C54.6128935,12.9984061 53.626172,14.1991855 52.5103007,14.6715427 C51.0516688,15.2717089 49.9362444,15.185907 49.0782257,15.185907 L50.9658669,9.20122625 Z M48.8422705,15.9371203 C49.4214332,15.9371203 50.3652538,15.8084175 50.8800651,16.9877464 C51.1374707,17.5030046 53.0251119,21.7072964 53.3254185,22.2216608 C53.626172,22.7154685 53.7115269,22.9295263 53.9260316,22.9295263 C54.2692391,22.9295263 54.6553476,22.8656218 55.8994748,22.8656218 C57.0578001,22.8656218 57.4010076,22.9295263 57.6155123,22.9295263 C57.7442151,22.9295263 57.7875629,22.8441713 57.830017,22.7154685 L57.8729179,22.2864591 C57.9158188,22.1577563 57.8729179,22.0715075 57.7442151,22.0715075 L57.1865029,22.0715075 C56.414286,22.0715075 55.8994748,21.7287469 55.320759,20.8278272 C54.9556541,20.2482177 53.4970223,17.202698 53.3683194,16.9877464 C53.1538148,16.558737 52.8106073,15.9156699 52.1241923,15.7436192 L52.1241923,15.6582642 C54.9127532,15.3579577 57.1865029,13.6414733 57.1865029,11.5397742 C57.1865029,8.57960954 53.9689326,8.42900938 52.1241923,8.42900938 C51.5235791,8.42900938 49.2927304,8.49336078 47.0618816,8.49336078 C46.8473769,8.49336078 46.804476,8.53626172 46.7615751,8.66496453 L46.6757732,9.11542438 C46.6328722,9.24412719 46.6757732,9.28747501 46.8473769,9.28747501 L47.5766929,9.28747501 C48.3060088,9.28747501 48.4347116,9.67313657 48.2202069,10.3595516 L44.7881319,21.0633355 C44.6165282,21.600491 44.2304197,22.0715075 43.7156085,22.0715075 L43.1578963,22.0715075 C42.9862926,22.0715075 42.9433916,22.1148553 42.9433916,22.2435582 L42.8575897,22.7154685 C42.8146888,22.8441713 42.8575897,22.9295263 42.9862926,22.9295263 C43.2436982,22.9295263 44.058816,22.8656218 45.5603488,22.8656218 C47.4050891,22.8656218 48.3489098,22.9295263 48.6063154,22.9295263 C48.7350182,22.9295263 48.8208201,22.8866253 48.863721,22.7579225 L48.9066219,22.2435582 C48.9495229,22.1577563 48.9066219,22.0715075 48.7779191,22.0715075 L47.8769994,22.0715075 C47.2763863,22.0715075 47.0404312,21.685846 47.4050891,20.5270738 L48.8422705,15.9371203 Z M35.0067182,10.7885609 C35.778935,9.88764125 36.8085575,9.20122625 38.0955857,9.20122625 C40.0261279,9.20122625 41.0990982,10.6169572 41.0990982,12.7620041 C41.0557504,17.3953053 38.2676363,22.2002103 35.135421,22.2002103 C33.3764825,22.2002103 31.9607516,20.9560831 31.9607516,18.2966719 C31.9607516,15.9366734 33.2477797,12.7620041 35.0067182,10.7885609 L35.0067182,10.7885609 Z M43.4157488,14.4351406 C43.4157488,10.4882544 41.0128494,8.17205064 37.5807744,8.17205064 C33.033275,8.17205064 29.7728038,12.3758956 29.7728038,16.8375931 C29.7728038,18.7681353 30.330516,20.4841728 31.660445,21.771201 C32.9903741,23.0582291 34.6635107,23.1869319 35.5219763,23.1869319 C40.3693354,23.1869319 43.4157488,18.7256813 43.4157488,14.4351406 L43.4157488,14.4351406 Z M27.134843,19.0045374 C27.0061402,18.9187355 26.9203383,18.9616364 26.8774374,19.0474383 C26.5342299,19.4335467 25.3759046,20.8921786 24.9039943,21.2782871 C24.3462821,21.771201 23.7456689,22.0934049 23.016353,22.0934049 L18.211448,22.0934049 L20.3135939,15.5934659 L21.3861174,15.5934659 C22.9305511,15.5934659 23.7456689,15.829868 23.7456689,17.3743017 C23.7456689,17.5030046 23.7456689,17.5459055 23.8743718,17.5888064 L24.2604802,17.5888064 C24.3462821,17.5888064 24.389183,17.5888064 24.4320839,17.4601036 C24.5178858,16.6449858 25.2043008,13.9851277 25.5475083,13.1700099 C25.5904093,13.1271089 25.5475083,13.0408602 25.4617064,13.0408602 L25.075598,12.9121574 C24.9897961,12.9121574 24.9468952,12.9555052 24.9039943,13.0408602 C24.1317774,14.7144436 23.2952091,14.821696 22.3728389,14.821696 L20.5280986,14.821696 L22.329938,9.26557766 L25.6762111,9.26557766 C25.8049139,9.26557766 25.9336168,9.30892548 26.0623196,9.43762829 L28.2502674,11.9687836 C28.3789702,12.0974864 28.4218711,12.1403874 28.507673,12.0974864 L28.7650786,11.9687836 C28.8937814,11.8829817 28.8937814,11.8829817 28.8508805,11.7323816 L28.2073664,8.85846564 C28.1215646,8.51525814 28.0786636,8.42900938 27.7354561,8.42900938 C27.499501,8.42900938 26.9846897,8.45090673 26.126671,8.4723572 C25.2686522,8.49380767 24.0888764,8.49380767 22.5444427,8.49380767 L21.0000089,8.49380767 C20.4851977,8.49380767 19.7773322,8.4723572 19.1552686,8.45090673 C18.5546555,8.45090673 18.0398442,8.42900938 17.9111414,8.42900938 C17.7395377,8.42900938 17.6966367,8.4723572 17.6537358,8.60106001 L17.525033,9.07297032 C17.4821321,9.20167314 17.5464835,9.28747501 17.6537358,9.28747501 L18.3401508,9.28747501 C18.9836649,9.28747501 19.7558817,9.58778157 19.3912238,10.74566 L16.1093021,20.9341858 C15.8947974,21.6424981 15.465788,22.0715075 14.6077692,22.0715075 L13.9213542,22.0715075 C13.8355524,22.0715075 13.7926514,22.1148553 13.771201,22.2002103 L13.6853991,22.7579225 C13.6639486,22.8866253 13.7068496,22.9295263 13.8141019,22.9295263 C13.9428047,22.9295263 14.2860122,22.9080758 14.7579225,22.8866253 C15.2512833,22.8866253 15.8733469,22.8656218 16.5383114,22.8656218 L19.3268724,22.8656218 C20.8069547,22.8656218 22.3513885,22.8656218 23.5740652,22.8866253 C24.7967419,22.9080758 25.6762111,22.9295263 25.8478149,22.9295263 C26.1052205,22.9295263 26.2339233,22.8866253 26.3197252,22.5438647 L27.4351496,19.4116494 C27.4780505,19.2614961 27.4351496,19.2190421 27.3922486,19.1761411 L27.134843,19.0045374 Z M10.6394325,24.6674611 C10.4892792,25.3967771 10.0602699,26.6194538 9.78141376,27.2415174 C9.22325469,28.3783922 7.67971471,29.8151268 6.0490322,29.8151268 C4.05458548,29.8151268 3.28192172,28.8279583 3.28192172,27.7992296 C3.28192172,27.0484632 3.68992752,26.4693005 4.44024704,26.4693005 C5.23436127,26.4693005 5.36306408,27.1338182 5.36306408,27.3702202 C5.36306408,27.6276258 5.27681532,27.9918369 5.17000986,28.0995361 C5.08420799,28.185338 5.04130705,28.2925904 5.04130705,28.4641941 C5.04130705,28.8932035 5.53466783,29.1287118 5.98423391,29.1287118 C7.10010517,29.1287118 7.70116518,28.2282389 8.08682673,26.7481566 C8.34467924,25.7395377 8.73034079,24.0449506 9.52445502,21.084786 L9.39575221,21.0423319 C9.09544565,21.4498908 7.87232204,23.1869319 4.97650876,23.1869319 C2.01634407,23.1869319 0,21.1066833 0,17.3957522 C0,14.6286417 1.26557766,12.2905406 2.85335923,10.6813086 C4.05458548,9.48052923 5.92077627,8.17205064 8.90239143,8.17205064 C11.1327933,8.17205064 12.270115,8.90136657 12.6991244,9.24412719 C12.9779805,9.45907876 13.1705878,9.50153281 13.2782871,9.50153281 C13.5356927,9.50153281 13.6639486,9.28747501 13.7930983,8.81511781 C13.8141019,8.70786547 13.8784533,8.686415 13.9861525,8.70786547 L14.3074627,8.79366734 C14.3937114,8.81511781 14.4580628,8.85846564 14.4361655,8.9652711 L13.2139357,13.2772622 C13.1705878,13.405965 13.1281338,13.4274155 12.9779805,13.405965 L12.634773,13.3630641 C12.5270738,13.3411667 12.4627224,13.2772622 12.4846197,13.1485594 C12.8492777,11.3038191 11.7982047,9.05151986 9.00919689,9.05151986 C7.63681377,9.05151986 6.09238002,9.52298328 4.5908472,11.4964264 C3.34672001,13.0623106 2.63885454,15.3794081 2.63885454,17.974468 C2.63885454,21.491898 4.80535189,22.0496102 5.74917252,22.0496102 C8.32322877,22.0496102 9.56690908,19.8411057 9.65271095,18.575528 C9.71706236,17.7604102 9.48155409,17.5888064 8.90239143,17.5888064 L8.15117814,17.5888064 C7.98002127,17.5888064 7.95812392,17.524455 8.00147174,17.3743017 L8.08682673,16.9023914 C8.10872408,16.7736886 8.15117814,16.7303408 8.32278189,16.7307877 C8.64453892,16.7307877 9.39530533,16.7951391 11.2829466,16.7951391 C12.7415785,16.7951391 13.2568366,16.7307877 13.5571432,16.7303408 C13.7072964,16.7303408 13.7716478,16.7951391 13.7501974,16.9023914 L13.685846,17.4167558 C13.6639486,17.5459055 13.6214946,17.5888064 13.4927917,17.5888064 L13.0423319,17.5888064 C12.634773,17.5888064 12.3340195,17.7604102 12.0556103,18.897285 L10.6394325,24.6674611 Z" id="logo-one-line"></path>
                </g>
                <rect id="Rectangle" x="310" y="4" width="2" height="22"></rect>
                <path d="M323.811,27.599 C325.407,27.599 326.856,26.234 327.717,24.743 C328.347,23.672 328.494,22.622 328.494,21.236 C328.494,20.753 328.578,18.695 328.578,16.028 L328.578579,14.5349981 L328.578579,14.5349981 L328.580232,14.0087194 C328.589187,11.8242295 328.622897,9.78665517 328.641,9.497 C328.662,9.056 328.851,8.888 329.418,8.888 L330.468,8.888 C330.594,8.888 330.636,8.846 330.636,8.72 L330.636,8.195 C330.636,8.111 330.594,8.069 330.468,8.069 C330.16875,8.069 329.49045,8.1258575 327.892954,8.13154325 L327.633,8.132 C325.638,8.132 324.861,8.069 324.63,8.069 C324.504,8.069 324.483,8.111 324.483,8.216 L324.483,8.783 C324.483,8.867 324.546,8.888 324.63,8.888 L325.554,8.888 C326.373,8.888 326.562,9.14 326.583,9.602 C326.632,10.3043333 326.642889,12.708963 326.645309,13.9010947 L326.645997,14.5070678 C326.646,14.5284733 326.646,14.5455556 326.646,14.558 L326.646,16.028 C326.646,17.561 326.877,23.651 326.352,25.163 C326.121,25.856 325.659,26.339 325.197,26.486 C324.966,25.835 324.273,25.373 323.559,25.373 C322.887,25.373 322.383,25.751 322.383,26.381 C322.383,27.305 323.433,27.599 323.811,27.599 Z M336.054,23.252 C338.637,23.252 340.695,20.921 340.695,18.632 C340.695,17.267 340.212,16.175 339.267,15.209 C338.637,14.579 337.482,13.991 336.327,13.991 C335.634,13.991 334.605,14.159 333.513,14.999 C332.274,15.965 331.707,17.309 331.707,18.38 C331.707,19.871 331.896,20.648 332.862,21.803 C333.744,22.853 335.046,23.252 336.054,23.252 Z M336.306,22.622 C335.319,22.622 334.71,22.223 334.227,21.53 C333.555,20.564 333.429,19.766 333.429,18.59 C333.429,16.994 333.723,16.133 334.542,15.293 C335.046,14.747 335.592,14.621 336.159,14.621 C337.23,14.621 338.931,16.091 338.931,18.422 C338.931,20.669 337.902,22.622 336.306,22.622 Z M344.16,23 C345.126,23 345.987,23.063 346.155,23.063 C346.281,23.063 346.323,22.979 346.323,22.832 L346.323,22.475 C346.323,22.349 346.239,22.307 346.092,22.307 L345.462,22.307 C345.063,22.307 345,22.118 345,21.446 L345,16.868 C345,16.49 345.231,16.07 345.42,15.839 C346.008,15.167 346.764,14.957 347.373,14.957 C347.898,14.957 348.339,15.146 348.759,15.545 C349.368,16.112 349.452,16.952 349.452,18.128 L349.452,19.829 C349.452,20.501 349.473,21.614 349.452,21.908 C349.431,22.265 349.011,22.307 348.654,22.307 L348.171,22.307 C348.045,22.307 348.024,22.37 348.024,22.475 L348.024,22.832 C348.024,23 348.066,23.063 348.213,23.063 C348.402,23.063 349.158,23 350.187,23 C351.384,23 352.056,23.063 352.203,23.063 C352.329,23.063 352.371,22.979 352.371,22.811 L352.371,22.496 C352.371,22.349 352.308,22.307 352.14,22.307 L351.783,22.307 C351.342,22.307 351.006,22.244 351.006,21.992 C351.006,21.6179375 350.969086,20.4502227 350.964472,19.3367253 L350.964068,17.5205858 C350.960221,16.5346159 350.894824,15.6092353 350.061,14.831 C349.473,14.264 348.864,13.991 347.982,13.991 C347.058,13.991 345.84,14.474 345.105,15.356 L345,15.356 L345.000674,13.5908669 C345.00457,12.1218002 345.025345,8.66206897 345.063,8.342 C345.105,7.985 345.021,7.817 344.895,7.817 C344.727,7.817 344.58,7.901 344.412,7.985 L342.228,9.14 C342.039,9.245 341.976,9.266 341.976,9.35 L341.976,9.539 C341.976,9.602 341.997,9.623 342.123,9.665 L342.48,9.791 C343.236,10.043 343.488,10.274 343.488,11.555 L343.488,17.897 L343.487994,18.0887256 L343.487994,18.0887256 L343.48726,18.9405903 C343.484746,20.2132913 343.473682,21.6626818 343.425,21.971 C343.383,22.223 343.068,22.307 342.732,22.307 L342.291,22.307 C342.06,22.307 341.976,22.328 341.976,22.475 L341.976,22.853 C341.976,23 342.039,23.063 342.123,23.063 C342.312,23.063 343.11,23 344.16,23 Z M355.584,23 C356.697,23 357.264,23.063 357.411,23.063 C357.516,23.063 357.558,23 357.558,22.874 L357.558,22.517 C357.558,22.37 357.516,22.307 357.348,22.307 L356.823,22.307 C356.382,22.307 356.319,22.181 356.319,21.614 L356.319,17.267 C356.319,16.868 356.382,16.301 356.802,15.839 C357.432,15.167 358.167,15.02 358.503,15.02 C359.028,15.02 359.532,15.02 360.036,15.398 C360.645,15.839 360.645,16.448 360.645,17.288 L360.645,20.06 C360.645,20.606 360.624,21.278 360.603,21.824 C360.582,22.202 360.414,22.307 360.183,22.307 L359.574,22.307 C359.364,22.307 359.301,22.349 359.301,22.496 L359.301,22.832 C359.301,23 359.343,23.063 359.469,23.063 C359.616,23.063 360.288,23 361.359,23 C362.556,23 363.207,23.063 363.354,23.063 C363.48,23.063 363.522,22.979 363.522,22.832 L363.522,22.496 C363.522,22.37 363.48,22.307 363.291,22.307 L362.619,22.307 C362.346,22.307 362.157,22.202 362.157,21.866 L362.157,16.448 C362.157,15.923 361.632,14.873 361.002,14.453 C360.498,14.117 359.847,13.991 359.217,13.991 C358.167,13.991 356.949,14.768 356.34,15.524 L356.298,15.524 L356.151,14.243 C356.13,14.075 356.088,13.991 355.983,13.991 C355.899,13.991 355.773,14.054 355.605,14.138 L353.799,15.146 C353.694,15.188 353.61,15.251 353.61,15.356 L353.61,15.461 C353.61,15.524 353.631,15.587 353.778,15.65 L353.946,15.734 C354.471,15.986 354.807,16.343 354.807,16.973 L354.807,21.887 C354.807,22.244 354.66,22.307 354.387,22.307 L353.778,22.307 C353.61,22.307 353.568,22.37 353.568,22.496 L353.568,22.874 C353.568,23 353.61,23.063 353.715,23.063 C353.841,23.063 354.513,23 355.584,23 Z M377.823,23.315 C380.784,23.315 382.821,21.614 384.081,19.787 C384.144,19.682 384.102,19.64 384.039,19.598 L383.766,19.388 C383.703,19.325 383.661,19.346 383.598,19.451 C382.632,20.816 380.784,22.118 378.411,22.118 C377.004,22.118 375.807,21.95 374.379,20.354 C372.741,18.548 372.363,16.175 372.363,14.957 C372.342,11.891 373.854,8.552 377.613,8.552 C379.272,8.552 380.385,9.266 381.267,10.169 C382.149,11.072 382.611,12.08 382.905,12.773 C382.968,12.941 383.01,12.962 383.115,12.941 L383.43,12.857 C383.514,12.836 383.535,12.752 383.514,12.647 C383.50487,12.5958696 383.493357,12.5258431 383.479946,12.4403311 L383.434501,12.1407493 C383.275616,11.0665614 382.989,8.9026087 382.989,8.573 C382.989,8.279 382.947,8.237 382.758,8.237 C382.569,8.237 382.527,8.237 382.485,8.363 L382.317,8.972 C382.275,9.119 382.17,9.14 381.897,8.972 C381.141,8.531 379.566,7.817 377.655,7.817 C375.366,7.817 373.476,8.804 372.405,9.938 C370.893,11.534 370.263,13.55 370.263,15.503 C370.263,17.519 370.998,19.955 372.51,21.383 C373.77,22.538 375.345,23.315 377.823,23.315 Z M388.491,23.126 C389.436,22.811 390.129,22.37 390.57,21.845 L390.612,21.845 C390.801,22.706 391.347,23.252 392.103,23.252 C393.174,23.252 393.573,22.538 393.741,22.223 C393.867,22.013 393.825,21.908 393.762,21.845 L393.552,21.677 C393.468,21.614 393.426,21.656 393.342,21.761 C393.237,21.908 392.943,22.076 392.607,22.076 C392.229,22.076 391.977,21.698 391.977,20.501 L391.977,16.049 C391.977,15.482 391.956,14.999 391.515,14.558 C391.221,14.285 390.822,13.991 389.835,13.991 C388.89,13.991 388.155,14.201 387.273,14.726 C386.412,15.23 385.824,16.028 385.824,16.7 C385.824,17.183 385.992,17.372 386.328,17.372 C387.189,17.372 387.441,16.91 387.441,16.175 C387.441,15.797 387.252,15.482 387.546,15.209 C387.84,14.936 388.491,14.768 388.911,14.768 C389.52,14.768 389.94,14.957 390.171,15.23 C390.402,15.503 390.423,16.049 390.465,16.406 L390.465,17.75 C390.129,18.044 389.037,18.548 388.092,18.968 C386.433,19.703 385.992,20.543 385.992,21.509 C385.992,22.832 386.748,23.252 387.252,23.252 C387.714,23.252 388.092,23.252 388.491,23.126 Z M388.722,22.265 C388.092,22.265 387.63,21.887 387.63,21.11 C387.63,19.367 389.688,18.947 390.444,18.38 L390.444,20.963 C390.444,21.53 389.331,22.265 388.722,22.265 Z M396.828,23 C397.962,23 398.928,23.063 399.054,23.063 C399.138,23.063 399.159,23 399.159,22.874 L399.159,22.496 C399.159,22.37 399.138,22.307 399.012,22.307 L398.025,22.307 C397.584,22.307 397.437,22.097 397.437,21.446 L397.437,17.078 C397.437,17.015 397.521,16.637 397.647,16.406 C398.004,15.734 398.55,15.524 398.886,15.524 C399.159,15.524 399.411,15.587 399.579,15.692 C399.747,15.776 399.957,15.86 400.188,15.86 C400.566,15.86 401.07,15.44 401.07,14.831 C401.07,14.348 400.713,13.907 399.999,13.907 C399.096,13.907 398.109,14.768 397.479,15.734 L397.395,15.734 L397.29,14.243 C397.29,14.117 397.269,13.991 397.143,13.991 C397.059,13.991 396.975,14.012 396.849,14.075 L394.77,15.146 C394.644,15.209 394.602,15.251 394.602,15.335 L394.602,15.461 C394.602,15.545 394.644,15.566 394.77,15.608 L395.169,15.818 C395.757,16.133 395.925,16.343 395.925,17.414 L395.925,19.388 L395.924979,19.705205 L395.924979,19.705205 L395.924433,20.282915 C395.92311,20.91722 395.9187,21.4229 395.904,21.908 C395.904,22.181 395.757,22.307 395.442,22.307 L394.623,22.307 C394.434,22.307 394.392,22.349 394.392,22.496 L394.392,22.853 C394.392,23.021 394.434,23.063 394.518,23.063 C394.644,23.063 395.526,23 396.828,23 Z M403.989,23 C405.123,23 406.089,23.063 406.215,23.063 C406.299,23.063 406.32,23 406.32,22.874 L406.32,22.496 C406.32,22.37 406.299,22.307 406.173,22.307 L405.186,22.307 C404.745,22.307 404.598,22.097 404.598,21.446 L404.598,17.078 C404.598,17.015 404.682,16.637 404.808,16.406 C405.165,15.734 405.711,15.524 406.047,15.524 C406.32,15.524 406.572,15.587 406.74,15.692 C406.908,15.776 407.118,15.86 407.349,15.86 C407.727,15.86 408.231,15.44 408.231,14.831 C408.231,14.348 407.874,13.907 407.16,13.907 C406.257,13.907 405.27,14.768 404.64,15.734 L404.556,15.734 L404.451,14.243 C404.451,14.117 404.43,13.991 404.304,13.991 C404.22,13.991 404.136,14.012 404.01,14.075 L401.931,15.146 C401.805,15.209 401.763,15.251 401.763,15.335 L401.763,15.461 C401.763,15.545 401.805,15.566 401.931,15.608 L402.33,15.818 C402.918,16.133 403.086,16.343 403.086,17.414 L403.086,19.388 L403.085979,19.705205 L403.085979,19.705205 L403.085433,20.282915 C403.08411,20.91722 403.0797,21.4229 403.065,21.908 C403.065,22.181 402.918,22.307 402.603,22.307 L401.784,22.307 C401.595,22.307 401.553,22.349 401.553,22.496 L401.553,22.853 C401.553,23.021 401.595,23.063 401.679,23.063 C401.805,23.063 402.687,23 403.989,23 Z M413.292,23.252 C415.875,23.252 417.933,20.921 417.933,18.632 C417.933,17.267 417.45,16.175 416.505,15.209 C415.875,14.579 414.72,13.991 413.565,13.991 C412.872,13.991 411.843,14.159 410.751,14.999 C409.512,15.965 408.945,17.309 408.945,18.38 C408.945,19.871 409.134,20.648 410.1,21.803 C410.982,22.853 412.284,23.252 413.292,23.252 Z M413.544,22.622 C412.557,22.622 411.948,22.223 411.465,21.53 C410.793,20.564 410.667,19.766 410.667,18.59 C410.667,16.994 410.961,16.133 411.78,15.293 C412.284,14.747 412.83,14.621 413.397,14.621 C414.468,14.621 416.169,16.091 416.169,18.422 C416.169,20.669 415.14,22.622 413.544,22.622 Z M421.44,23 C422.742,23 423.666,23.063 423.813,23.063 C423.897,23.063 423.939,22.979 423.939,22.853 L423.939,22.496 C423.939,22.37 423.897,22.307 423.708,22.307 L422.763,22.307 C422.322,22.307 422.238,22.013 422.217,21.656 C422.203304,21.2314348 422.198541,19.7350359 422.196884,18.4425185 L422.196,14.873 C422.196,13.718 422.259,9.35 422.28,8.195 C422.301,7.922 422.259,7.817 422.112,7.817 C421.986,7.817 421.86,7.859 421.671,7.985 C420.894,8.489 419.949,8.867 419.214,9.203 C419.088,9.245 419.025,9.287 419.025,9.35 L419.025,9.518 C419.025,9.56 419.046,9.581 419.151,9.623 L419.571,9.77 C420.243,9.98 420.579,10.316 420.621,11.03 C420.663,11.576 420.684,13.487 420.684,14.978 L420.684,16.301 L420.683999,16.4583085 L420.683999,16.4583085 L420.68302,18.2973843 C420.681278,19.7358944 420.67644,21.36536 420.663,21.782 C420.642,22.16 420.432,22.307 420.201,22.307 L419.193,22.307 C418.962,22.307 418.92,22.349 418.92,22.496 L418.92,22.853 C418.92,22.979 418.962,23.063 419.067,23.063 C419.256,23.063 420.096,23 421.44,23 Z M426.816,23 C428.118,23 429.042,23.063 429.189,23.063 C429.273,23.063 429.315,22.979 429.315,22.853 L429.315,22.496 C429.315,22.37 429.273,22.307 429.084,22.307 L428.139,22.307 C427.698,22.307 427.614,22.013 427.593,21.656 C427.579304,21.2314348 427.574541,19.7350359 427.572884,18.4425185 L427.572,14.873 C427.572,13.718 427.635,9.35 427.656,8.195 C427.677,7.922 427.635,7.817 427.488,7.817 C427.362,7.817 427.236,7.859 427.047,7.985 C426.27,8.489 425.325,8.867 424.59,9.203 C424.464,9.245 424.401,9.287 424.401,9.35 L424.401,9.518 C424.401,9.56 424.422,9.581 424.527,9.623 L424.947,9.77 C425.619,9.98 425.955,10.316 425.997,11.03 C426.039,11.576 426.06,13.487 426.06,14.978 L426.06,16.301 L426.059999,16.4583085 L426.059999,16.4583085 L426.05902,18.2973843 C426.057278,19.7358944 426.05244,21.36536 426.039,21.782 C426.018,22.16 425.808,22.307 425.577,22.307 L424.569,22.307 C424.338,22.307 424.296,22.349 424.296,22.496 L424.296,22.853 C424.296,22.979 424.338,23.063 424.443,23.063 C424.632,23.063 425.472,23 426.816,23 Z M450.147,23.42 C450.378,23.42 450.483,23.105 450.588,22.874 C450.776276,22.4221379 451.762127,19.7379084 452.807786,16.8870627 L453.049818,16.2271577 C454.261926,12.9222473 455.478103,9.60706897 455.565,9.455 C455.754,9.119 456.048,8.888 456.405,8.888 L456.909,8.888 C457.056,8.888 457.056,8.825 457.056,8.741 L457.056,8.216 C457.056,8.111 457.035,8.069 456.909,8.069 C456.7522,8.069 456.21124,8.12388 455.183677,8.13119733 L454.956,8.132 C453.654,8.132 452.919,8.069 452.709,8.069 C452.562,8.069 452.541,8.132 452.541,8.216 L452.541,8.699 C452.541,8.825 452.562,8.888 452.688,8.888 L453.255,8.888 C453.822,8.888 453.99,9.203 453.99,9.539 C453.99,10.736 450.945,19.598 450.714,20.27 L450.672,20.27 L447.396,9.728 C447.27,9.35 447.459,8.888 447.984,8.888 L448.824,8.888 C448.95,8.888 448.971,8.825 448.971,8.741 L448.971,8.216 C448.971,8.132 448.95,8.069 448.824,8.069 C448.6245,8.069 447.89433,8.1258575 446.309402,8.13154325 L446.052,8.132 C444.414,8.132 443.679,8.069 443.49,8.069 C443.364,8.069 443.343,8.132 443.343,8.216 L443.343,8.72 C443.343,8.846 443.364,8.888 443.469,8.888 L443.994,8.888 C444.372,8.888 444.645,9.035 444.834,9.287 C445.023,9.539 445.17,9.896 445.149,10.064 C445.10875,10.486625 444.369366,12.7655716 443.600851,15.064106 L443.400149,15.6629604 C442.832116,17.3541297 442.279998,18.9687451 442.01434,19.7651387 L441.932913,20.0110365 C441.887146,20.1507083 441.859,20.24025 441.852,20.27 L441.81,20.27 L438.429,9.644 C438.303,9.182 438.492,8.888 439.038,8.888 L439.395,8.888 C439.542,8.888 439.563,8.825 439.563,8.72 L439.563,8.195 C439.563,8.132 439.542,8.069 439.395,8.069 C439.197353,8.069 438.423042,8.12480623 437.072066,8.13137167 L436.812,8.132 C435.384,8.132 434.733,8.069 434.565,8.069 C434.418,8.069 434.397,8.111 434.397,8.216 L434.397,8.72 C434.397,8.804 434.418,8.888 434.523,8.888 L435.237,8.888 C435.636,8.888 435.93,9.056 436.14,9.644 L440.823,23.084 C440.907,23.336 441.033,23.42 441.201,23.42 C441.39,23.42 441.516,23.231 441.621,23.021 C441.747,22.79 445.569,11.996 445.758,11.429 L445.8,11.429 L449.685,22.958 C449.79,23.252 449.895,23.42 450.147,23.42 Z M461.697,23.252 C463.566,23.252 464.658,21.803 465.036,20.963 C465.141,20.732 465.099,20.669 465.036,20.648 L464.763,20.501 C464.7,20.48 464.616,20.522 464.574,20.606 C464.217,21.299 463.314,22.034 462.033,22.034 C460.353,22.034 459.051,20.48 459.051,18.422 C459.051,17.939 459.072,17.603 459.114,17.414 L464.301,17.414 C464.637,17.414 464.889,17.372 464.889,17.078 C464.889,16.259 464.217,13.991 461.802,13.991 C460.752,13.991 459.702,14.18 458.799,15.104 C457.686,16.217 457.476,17.624 457.476,18.443 C457.476,19.913 457.665,20.69 458.4,21.761 C459.177,22.895 460.5,23.252 461.697,23.252 Z M462.453,16.784 L459.198,16.784 C459.597,15.23 460.479,14.621 461.403,14.621 C462.768,14.621 463.02,16.007 463.02,16.49 C463.02,16.679 462.852,16.784 462.453,16.784 Z M470.643,23.252 C472.512,23.252 473.604,21.803 473.982,20.963 C474.087,20.732 474.045,20.669 473.982,20.648 L473.709,20.501 C473.646,20.48 473.562,20.522 473.52,20.606 C473.163,21.299 472.26,22.034 470.979,22.034 C469.299,22.034 467.997,20.48 467.997,18.422 C467.997,17.939 468.018,17.603 468.06,17.414 L473.247,17.414 C473.583,17.414 473.835,17.372 473.835,17.078 C473.835,16.259 473.163,13.991 470.748,13.991 C469.698,13.991 468.648,14.18 467.745,15.104 C466.632,16.217 466.422,17.624 466.422,18.443 C466.422,19.913 466.611,20.69 467.346,21.761 C468.123,22.895 469.446,23.252 470.643,23.252 Z M471.399,16.784 L468.144,16.784 C468.543,15.23 469.425,14.621 470.349,14.621 C471.714,14.621 471.966,16.007 471.966,16.49 C471.966,16.679 471.798,16.784 471.399,16.784 Z M477.3,23 C478.35,23 479.043,23.063 479.169,23.063 C479.295,23.063 479.337,23 479.337,22.832 L479.337,22.475 C479.337,22.349 479.295,22.307 479.148,22.307 L478.539,22.307 C478.245,22.307 478.14,22.16 478.119,21.866 C478.105,21.376 478.100333,20.8953333 478.098778,20.4115556 L478.098,18.758 C478.371,18.758 478.77,18.8 479.001,18.989 C479.337,19.304 481.731,21.845 481.794,22.013 C481.857,22.202 481.731,22.349 481.563,22.349 L481.416,22.349 C481.248,22.349 481.206,22.412 481.206,22.517 L481.206,22.853 C481.206,23 481.248,23.063 481.353,23.063 C481.521,23.063 482.403,23 483.642,23 C484.629,23 485.217,23.063 485.385,23.063 C485.532,23.063 485.574,23 485.574,22.874 L485.574,22.496 C485.574,22.349 485.532,22.307 485.406,22.307 C485.175,22.307 484.692,22.202 484.314,22.013 C484.0165,21.873 481.516917,19.3996667 480.448931,18.3360556 L480.061127,17.9491204 C480.040453,17.9284533 480.023,17.911 480.009,17.897 C480.723,17.204 482.487,15.566 482.781,15.398 C483.201,15.125 483.81,14.915 484.23,14.915 L484.377,14.915 C484.524,14.915 484.545,14.873 484.545,14.747 L484.545,14.369 C484.545,14.222 484.503,14.159 484.419,14.159 C484.2825,14.159 483.820071,14.2133214 482.930832,14.2210816 L482.718,14.222 C481.647,14.222 480.891,14.159 480.765,14.159 C480.66,14.159 480.618,14.222 480.618,14.327 L480.618,14.726 C480.618,14.852 480.639,14.915 480.786,14.915 C480.912,14.915 481.164,14.915 481.332,15.041 C481.458,15.125 481.458,15.293 481.332,15.524 C481.164,15.776 479.505,17.603 479.106,17.876 C478.896,18.044 478.371,18.107 478.098,18.107 L478.09884,13.230128 L478.09884,13.230128 L478.100305,12.5969266 C478.106232,10.7032736 478.1274,8.89976 478.203,8.174 C478.224,7.922 478.203,7.817 478.077,7.817 C477.951,7.817 477.804,7.901 477.615,7.985 L475.473,8.909 C475.263,8.993 475.2,9.035 475.2,9.119 L475.2,9.308 C475.2,9.371 475.263,9.392 475.494,9.455 C476.523,9.728 476.586,10.085 476.586,10.946 L476.586,17.897 C476.586,19.745 476.565,20.879 476.544,21.803 C476.544,22.076 476.439,22.307 476.166,22.307 L475.389,22.307 C475.242,22.307 475.179,22.349 475.179,22.496 L475.179,22.853 C475.179,22.979 475.221,23.063 475.284,23.063 C475.431,23.063 476.166,23 477.3,23 Z M490.005,23.252 C491.874,23.252 492.966,21.803 493.344,20.963 C493.449,20.732 493.407,20.669 493.344,20.648 L493.071,20.501 C493.008,20.48 492.924,20.522 492.882,20.606 C492.525,21.299 491.622,22.034 490.341,22.034 C488.661,22.034 487.359,20.48 487.359,18.422 C487.359,17.939 487.38,17.603 487.422,17.414 L492.609,17.414 C492.945,17.414 493.197,17.372 493.197,17.078 C493.197,16.259 492.525,13.991 490.11,13.991 C489.06,13.991 488.01,14.18 487.107,15.104 C485.994,16.217 485.784,17.624 485.784,18.443 C485.784,19.913 485.973,20.69 486.708,21.761 C487.485,22.895 488.808,23.252 490.005,23.252 Z M490.761,16.784 L487.506,16.784 C487.905,15.23 488.787,14.621 489.711,14.621 C491.076,14.621 491.328,16.007 491.328,16.49 C491.328,16.679 491.16,16.784 490.761,16.784 Z M496.788,23 C497.901,23 498.468,23.063 498.615,23.063 C498.72,23.063 498.762,23 498.762,22.874 L498.762,22.517 C498.762,22.37 498.72,22.307 498.552,22.307 L498.027,22.307 C497.586,22.307 497.523,22.181 497.523,21.614 L497.523,17.267 C497.523,16.868 497.586,16.301 498.006,15.839 C498.636,15.167 499.371,15.02 499.707,15.02 C500.232,15.02 500.736,15.02 501.24,15.398 C501.849,15.839 501.849,16.448 501.849,17.288 L501.849,20.06 C501.849,20.606 501.828,21.278 501.807,21.824 C501.786,22.202 501.618,22.307 501.387,22.307 L500.778,22.307 C500.568,22.307 500.505,22.349 500.505,22.496 L500.505,22.832 C500.505,23 500.547,23.063 500.673,23.063 C500.82,23.063 501.492,23 502.563,23 C503.76,23 504.411,23.063 504.558,23.063 C504.684,23.063 504.726,22.979 504.726,22.832 L504.726,22.496 C504.726,22.37 504.684,22.307 504.495,22.307 L503.823,22.307 C503.55,22.307 503.361,22.202 503.361,21.866 L503.361,16.448 C503.361,15.923 502.836,14.873 502.206,14.453 C501.702,14.117 501.051,13.991 500.421,13.991 C499.371,13.991 498.153,14.768 497.544,15.524 L497.502,15.524 L497.355,14.243 C497.334,14.075 497.292,13.991 497.187,13.991 C497.103,13.991 496.977,14.054 496.809,14.138 L495.003,15.146 C494.898,15.188 494.814,15.251 494.814,15.356 L494.814,15.461 C494.814,15.524 494.835,15.587 494.982,15.65 L495.15,15.734 C495.675,15.986 496.011,16.343 496.011,16.973 L496.011,21.887 C496.011,22.244 495.864,22.307 495.591,22.307 L494.982,22.307 C494.814,22.307 494.772,22.37 494.772,22.496 L494.772,22.874 C494.772,23 494.814,23.063 494.919,23.063 C495.045,23.063 495.717,23 496.788,23 Z M509.703,23.252 C510.774,23.252 512.118,22.79 512.79,22.118 L513.063,23.042 C513.105,23.189 513.21,23.252 513.336,23.21 L515.709,22.412 C515.835,22.37 515.877,22.307 515.856,22.181 L515.814,22.013 C515.772,21.908 515.688,21.887 515.394,21.866 C515.1,21.845 514.659,21.719 514.47,21.509 C514.314,21.314 514.266643,20.5033571 514.260673,19.7664362 L514.260943,13.9846509 L514.260943,13.9846509 L514.262688,13.330424 C514.27008,11.1518 514.2936,9.035 514.344,8.195 C514.365,7.964 514.344,7.817 514.239,7.817 C514.092,7.817 513.945,7.859 513.756,7.88 C513.357,7.964 512.265,8.153 511.446,8.321 C511.32,8.342 511.278,8.384 511.278,8.468 L511.278,8.825 C511.278,8.909 511.299,8.951 511.425,8.972 C512.601,9.161 512.748,9.413 512.748,10.211 L512.748,14.306 C512.118,14.117 511.362,13.991 510.501,13.991 C509.325,13.991 508.191,14.432 507.372,15.314 C506.385,16.301 505.902,17.582 505.902,18.884 C505.902,20.291 506.154,21.236 507.225,22.286 C508.212,23.294 509.01,23.252 509.703,23.252 Z M510.333,22.349 C509.115,22.349 507.477,20.627 507.477,18.254 C507.477,17.456 507.624,16.343 508.443,15.461 C508.989,14.894 509.703,14.705 510.354,14.705 C511.593,14.705 512.265,15.272 512.559,15.839 C512.748,16.175 512.748,16.574 512.748,16.868 L512.748,20.48 C512.748,20.711 512.727,20.879 512.622,21.194 C512.412,21.74 511.509,22.349 510.333,22.349 Z" id="JohnCarrollWeekend" fill-rule="nonzero"></path>
            </g>
        </g>
    </g>
</svg>