<?xml version="1.0" encoding="UTF-8"?>
<svg width="349px" height="49px" viewBox="0 0 349 49" version="1.1" xmlns="http://www.w3.org/2000/svg" xmlns:xlink="http://www.w3.org/1999/xlink">
    <title>Georgetown Athletics Letterwinners Challenge</title>
    <defs>
        <polygon points="0.0102531646 0.0861265823 53.8791835 0.0861265823 53.8791835 48.7025316 0.0102531646 48.7025316"></polygon>
    </defs>
    <g stroke="none" stroke-width="1" fill="none" fill-rule="evenodd">
        <g transform="translate(-48.000000, -133.000000)">
            <g transform="translate(48.000000, 133.000000)">
                <path d="M73.4667969,32 L73.4667969,29.5 L67.6757812,29.5 L67.6757812,17.7226562 L64.6484375,17.7226562 L64.6484375,32 L73.4667969,32 Z M84.1699219,32 L84.1699219,29.5 L78.9746094,29.5 L78.9746094,25.8183594 L83.8085938,25.8183594 L83.8085938,23.3378906 L78.9746094,23.3378906 L78.9746094,20.203125 L84.1699219,20.203125 L84.1699219,17.7226562 L75.9472656,17.7226562 L75.9472656,32 L84.1699219,32 Z M92.65625,32 L92.65625,20.2421875 L96.5332031,20.2421875 L96.5332031,17.7226562 L85.7519531,17.7226562 L85.7519531,20.2421875 L89.6289062,20.2421875 L89.6289062,32 L92.65625,32 Z M104.638672,32 L104.638672,20.2421875 L108.515625,20.2421875 L108.515625,17.7226562 L97.734375,17.7226562 L97.734375,20.2421875 L101.611328,20.2421875 L101.611328,32 L104.638672,32 Z M118.935547,32 L118.935547,29.5 L113.740234,29.5 L113.740234,25.8183594 L118.574219,25.8183594 L118.574219,23.3378906 L113.740234,23.3378906 L113.740234,20.203125 L118.935547,20.203125 L118.935547,17.7226562 L110.712891,17.7226562 L110.712891,32 L118.935547,32 Z M124.941406,32 L124.941406,26.5214844 L126.552734,26.5214844 L129.960938,32 L133.320312,32 C132.669271,31.0625 131.269531,28.9889323 129.121094,25.7792969 C129.967448,25.4082031 130.621745,24.8955078 131.083984,24.2412109 C131.546224,23.5869141 131.777344,22.8398438 131.777344,22 C131.777344,20.5611979 131.311849,19.4886068 130.380859,18.7822266 C129.44987,18.0758464 128.014323,17.7226562 126.074219,17.7226562 L126.074219,17.7226562 L121.914062,17.7226562 L121.914062,32 L124.941406,32 Z M125.917969,24.0605469 L124.941406,24.0605469 L124.941406,20.203125 L125.859375,20.203125 C126.835938,20.203125 127.556966,20.3463542 128.022461,20.6328125 C128.487956,20.9192708 128.720703,21.4010417 128.720703,22.078125 C128.720703,22.7617188 128.492839,23.2630208 128.037109,23.5820312 C127.58138,23.9010417 126.875,24.0605469 125.917969,24.0605469 L125.917969,24.0605469 Z M140.400391,32 L142.324219,24.5195312 C142.408854,24.1875 142.529297,23.632487 142.685547,22.8544922 C142.841797,22.0764974 142.939453,21.5117188 142.978516,21.1601562 C143.004557,21.4466146 143.103841,22.008138 143.276367,22.8447266 C143.448893,23.6813151 143.570964,24.2330729 143.642578,24.5 L143.642578,24.5 L145.576172,32 L149.023438,32 L152.65625,17.7226562 L149.677734,17.7226562 L147.861328,25.515625 C147.744141,25.984375 147.613932,26.5979818 147.470703,27.3564453 C147.327474,28.1149089 147.223307,28.7480469 147.158203,29.2558594 C147.086589,28.7285156 146.982422,28.0970052 146.845703,27.3613281 C146.708984,26.625651 146.595052,26.078776 146.503906,25.7207031 L146.503906,25.7207031 L144.423828,17.7226562 L141.5625,17.7226562 L139.482422,25.7207031 C139.358724,26.1503906 139.226888,26.7542318 139.086914,27.5322266 C138.94694,28.3102214 138.857422,28.8847656 138.818359,29.2558594 C138.67513,28.2011719 138.44401,26.9544271 138.125,25.515625 L138.125,25.515625 L136.298828,17.7226562 L133.320312,17.7226562 L136.962891,32 L140.400391,32 Z M157.480469,32 L157.480469,17.7226562 L154.453125,17.7226562 L154.453125,32 L157.480469,32 Z M163.779297,32 L163.779297,25.28125 C163.779297,24.4674479 163.717448,23.1067708 163.59375,21.1992188 L163.59375,21.1992188 L163.681641,21.1992188 L169.892578,32 L173.740234,32 L173.740234,17.7226562 L171.015625,17.7226562 L171.015625,24.4804688 C171.015625,25.2486979 171.064453,26.5605469 171.162109,28.4160156 L171.162109,28.4160156 L171.09375,28.4160156 L164.892578,17.7226562 L161.074219,17.7226562 L161.074219,32 L163.779297,32 Z M180.039062,32 L180.039062,25.28125 C180.039062,24.4674479 179.977214,23.1067708 179.853516,21.1992188 L179.853516,21.1992188 L179.941406,21.1992188 L186.152344,32 L190,32 L190,17.7226562 L187.275391,17.7226562 L187.275391,24.4804688 C187.275391,25.2486979 187.324219,26.5605469 187.421875,28.4160156 L187.421875,28.4160156 L187.353516,28.4160156 L181.152344,17.7226562 L177.333984,17.7226562 L177.333984,32 L180.039062,32 Z M201.816406,32 L201.816406,29.5 L196.621094,29.5 L196.621094,25.8183594 L201.455078,25.8183594 L201.455078,23.3378906 L196.621094,23.3378906 L196.621094,20.203125 L201.816406,20.203125 L201.816406,17.7226562 L193.59375,17.7226562 L193.59375,32 L201.816406,32 Z M207.822266,32 L207.822266,26.5214844 L209.433594,26.5214844 L212.841797,32 L216.201172,32 C215.55013,31.0625 214.150391,28.9889323 212.001953,25.7792969 C212.848307,25.4082031 213.502604,24.8955078 213.964844,24.2412109 C214.427083,23.5869141 214.658203,22.8398438 214.658203,22 C214.658203,20.5611979 214.192708,19.4886068 213.261719,18.7822266 C212.330729,18.0758464 210.895182,17.7226562 208.955078,17.7226562 L208.955078,17.7226562 L204.794922,17.7226562 L204.794922,32 L207.822266,32 Z M208.798828,24.0605469 L207.822266,24.0605469 L207.822266,20.203125 L208.740234,20.203125 C209.716797,20.203125 210.437826,20.3463542 210.90332,20.6328125 C211.368815,20.9192708 211.601562,21.4010417 211.601562,22.078125 C211.601562,22.7617188 211.373698,23.2630208 210.917969,23.5820312 C210.46224,23.9010417 209.755859,24.0605469 208.798828,24.0605469 L208.798828,24.0605469 Z M221.162109,32.1953125 C222.815755,32.1953125 224.106445,31.8242188 225.03418,31.0820312 C225.961914,30.3398438 226.425781,29.3242188 226.425781,28.0351562 C226.425781,27.1041667 226.178385,26.3180339 225.683594,25.6767578 C225.188802,25.0354818 224.274089,24.3958333 222.939453,23.7578125 C221.930339,23.2760417 221.29069,22.9423828 221.020508,22.7568359 C220.750326,22.5712891 220.553385,22.3792318 220.429688,22.1806641 C220.30599,21.9820964 220.244141,21.749349 220.244141,21.4824219 C220.244141,21.0527344 220.397135,20.7044271 220.703125,20.4375 C221.009115,20.1705729 221.448568,20.0371094 222.021484,20.0371094 C222.503255,20.0371094 222.993164,20.0989583 223.491211,20.2226562 C223.989258,20.3463542 224.619141,20.5644531 225.380859,20.8769531 L225.380859,20.8769531 L226.357422,18.5234375 C225.621745,18.2044271 224.916992,17.9570312 224.243164,17.78125 C223.569336,17.6054688 222.861328,17.5175781 222.119141,17.5175781 C220.608724,17.5175781 219.425456,17.8789062 218.569336,18.6015625 C217.713216,19.3242188 217.285156,20.3170573 217.285156,21.5800781 C217.285156,22.250651 217.415365,22.8365885 217.675781,23.3378906 C217.936198,23.8391927 218.284505,24.2786458 218.720703,24.65625 C219.156901,25.0338542 219.811198,25.4277344 220.683594,25.8378906 C221.614583,26.280599 222.231445,26.6028646 222.53418,26.8046875 C222.836914,27.0065104 223.066406,27.2164714 223.222656,27.4345703 C223.378906,27.6526693 223.457031,27.9016927 223.457031,28.1816406 C223.457031,28.6829427 223.279622,29.0605469 222.924805,29.3144531 C222.569987,29.5683594 222.060547,29.6953125 221.396484,29.6953125 C220.843099,29.6953125 220.232747,29.6074219 219.56543,29.4316406 C218.898112,29.2558594 218.082682,28.953125 217.119141,28.5234375 L217.119141,28.5234375 L217.119141,31.3359375 C218.291016,31.9088542 219.638672,32.1953125 221.162109,32.1953125 Z M239.990234,32.1953125 C241.435547,32.1953125 242.744141,31.9511719 243.916016,31.4628906 L243.916016,31.4628906 L243.916016,28.9238281 C242.490234,29.4251302 241.276042,29.6757812 240.273438,29.6757812 C237.884115,29.6757812 236.689453,28.0839844 236.689453,24.9003906 C236.689453,23.3704427 237.001953,22.1774089 237.626953,21.3212891 C238.251953,20.4651693 239.134115,20.0371094 240.273438,20.0371094 C240.794271,20.0371094 241.32487,20.1315104 241.865234,20.3203125 C242.405599,20.5091146 242.942708,20.7304688 243.476562,20.984375 L243.476562,20.984375 L244.453125,18.5234375 C243.053385,17.8528646 241.660156,17.5175781 240.273438,17.5175781 C238.91276,17.5175781 237.726237,17.8154297 236.713867,18.4111328 C235.701497,19.0068359 234.92513,19.8629557 234.384766,20.9794922 C233.844401,22.0960286 233.574219,23.3964844 233.574219,24.8808594 C233.574219,27.2376302 234.124349,29.0458984 235.224609,30.3056641 C236.32487,31.5654297 237.913411,32.1953125 239.990234,32.1953125 Z M249.980469,32 L249.980469,25.8378906 L255.634766,25.8378906 L255.634766,32 L258.652344,32 L258.652344,17.7226562 L255.634766,17.7226562 L255.634766,23.3183594 L249.980469,23.3183594 L249.980469,17.7226562 L246.953125,17.7226562 L246.953125,32 L249.980469,32 Z M263.720703,32 L264.755859,28.6015625 L269.960938,28.6015625 L270.996094,32 L274.257812,32 L269.199219,17.6640625 L265.498047,17.6640625 L260.458984,32 L263.720703,32 Z M269.238281,26.0625 L265.517578,26.0625 C266.533203,22.7747396 267.148438,20.7141927 267.363281,19.8808594 C267.415365,20.1152344 267.501628,20.4342448 267.62207,20.8378906 C267.742513,21.2415365 268.28125,22.9830729 269.238281,26.0625 L269.238281,26.0625 Z M284.873047,32 L284.873047,29.5 L279.082031,29.5 L279.082031,17.7226562 L276.054688,17.7226562 L276.054688,32 L284.873047,32 Z M296.171875,32 L296.171875,29.5 L290.380859,29.5 L290.380859,17.7226562 L287.353516,17.7226562 L287.353516,32 L296.171875,32 Z M306.875,32 L306.875,29.5 L301.679688,29.5 L301.679688,25.8183594 L306.513672,25.8183594 L306.513672,23.3378906 L301.679688,23.3378906 L301.679688,20.203125 L306.875,20.203125 L306.875,17.7226562 L298.652344,17.7226562 L298.652344,32 L306.875,32 Z M312.558594,32 L312.558594,25.28125 C312.558594,24.4674479 312.496745,23.1067708 312.373047,21.1992188 L312.373047,21.1992188 L312.460938,21.1992188 L318.671875,32 L322.519531,32 L322.519531,17.7226562 L319.794922,17.7226562 L319.794922,24.4804688 C319.794922,25.2486979 319.84375,26.5605469 319.941406,28.4160156 L319.941406,28.4160156 L319.873047,28.4160156 L313.671875,17.7226562 L309.853516,17.7226562 L309.853516,32 L312.558594,32 Z M332.119141,32.1953125 C332.965495,32.1953125 333.793945,32.1350911 334.604492,32.0146484 C335.415039,31.8942057 336.279297,31.6842448 337.197266,31.3847656 L337.197266,31.3847656 L337.197266,23.9824219 L331.533203,23.9824219 L331.533203,26.5019531 L334.238281,26.5019531 L334.238281,29.4804688 C333.58724,29.6106771 332.945964,29.6757812 332.314453,29.6757812 C331.103516,29.6757812 330.180664,29.2672526 329.545898,28.4501953 C328.911133,27.633138 328.59375,26.4498698 328.59375,24.9003906 C328.59375,23.4160156 328.98763,22.234375 329.775391,21.3554688 C330.563151,20.4765625 331.611328,20.0371094 332.919922,20.0371094 C334.046224,20.0371094 335.130208,20.297526 336.171875,20.8183594 L336.171875,20.8183594 L337.177734,18.3964844 C335.817057,17.8105469 334.404297,17.5175781 332.939453,17.5175781 C330.602214,17.5175781 328.774414,18.1621094 327.456055,19.4511719 C326.137695,20.7402344 325.478516,22.5371094 325.478516,24.8417969 C325.478516,27.2115885 326.046549,29.0296224 327.182617,30.2958984 C328.318685,31.5621745 329.964193,32.1953125 332.119141,32.1953125 Z M348.818359,32 L348.818359,29.5 L343.623047,29.5 L343.623047,25.8183594 L348.457031,25.8183594 L348.457031,23.3378906 L343.623047,23.3378906 L343.623047,20.203125 L348.818359,20.203125 L348.818359,17.7226562 L340.595703,17.7226562 L340.595703,32 L348.818359,32 Z" fill="#FFFFFF" fill-rule="nonzero"></path>
                <g>
                    <g>
                        <mask fill="white">
                            <use xlink:href="#path-1"></use>
                        </mask>
                        <g></g>
                        <path d="M26.7870759,10.7499304 C19.555519,10.7499304 13.693443,16.8587658 13.693443,24.3943291 C13.693443,31.9297215 19.555519,38.038557 26.7870759,38.038557 C30.9373861,38.038557 34.6370696,36.0258608 37.036481,32.8856582 L37.036481,27.8349494 L28.9166582,27.8349494 C26.8837975,27.8349494 25.3024177,28.9293038 25.3024177,28.9293038 L25.3024177,28.8787215 L28.9166582,20.3272405 L39.9176203,20.3243354 C38.0838418,14.7768608 32.6578671,10.7499304 26.7870759,10.7499304 M27.8311899,18.6906646 L23.6655,28.5473734 L23.6655,31.999443 L26.2243481,30.282038 C26.2363101,30.2736646 27.4480633,29.4715253 28.9166582,29.4715253 L35.3993924,29.4715253 L35.3993924,32.3078924 C33.2193987,34.9152722 30.1099557,36.401981 26.7870759,36.401981 C20.4692468,36.401981 15.3303608,31.015481 15.3303608,24.3943291 C15.3303608,17.7731772 20.4692468,12.3865063 26.7870759,12.3865063 C31.0944304,12.3865063 35.2353418,14.9373228 37.3902152,18.6882722 L27.8311899,18.6906646" id="Fill-1" fill="#FFFFFE" mask="url(#mask-2)"></path>
                        <path d="M43.462481,18.6865633 L49.0492595,12.1279557 L48.4388544,11.1183608 C48.3691329,11.0033544 46.692057,8.26610127 43.1863291,5.55037975 C39.9685443,3.05749367 34.5112975,0.0861265823 26.7869051,0.0861265823 C19.5227089,0.0861265823 12.8258544,2.42897468 7.92996835,6.6825 C2.81637342,11.1258797 0,17.4156835 0,24.3943291 C0,31.4081772 2.81671519,37.7107975 7.9318481,42.1422152 C12.8150886,46.3725 19.5114304,48.7025316 26.7869051,48.7025316 C32.3241266,48.7025316 36.3365316,47.373038 39.2650063,46.4032595 C40.6743038,45.9357152 41.8910127,45.5324241 42.6136899,45.5324241 C44.4987342,45.5324241 47.8573291,47.088 49.921462,48.0191582 L49.9224873,24.3943291 C49.9224873,22.5284241 50.8558671,21.4938797 50.8951709,21.4509873 C50.9291772,21.4157848 53.5464684,18.6963038 53.5464684,18.6963038 L43.462481,18.6865633 Z M48.2859114,24.3943291 L48.2859114,45.4856013 C48.2859114,45.4856013 44.7723228,43.896019 42.6136899,43.896019 C39.9030949,43.896019 35.0764177,47.0659557 26.7869051,47.0659557 C12.8972848,47.0659557 1.63691772,38.1938924 1.63691772,24.3943291 C1.63691772,10.6870443 12.8972848,1.72253165 26.7869051,1.72253165 C40.8445063,1.72253165 47.038443,11.965443 47.038443,11.965443 L39.9174494,20.3245063 L49.7105886,20.3221139 C49.7105886,20.3221139 48.2859114,21.7729367 48.2859114,24.3943291 L48.2859114,24.3943291 Z" fill="#FFFFFE" mask="url(#mask-2)"></path>
                        <polyline fill="#FFFFFE" mask="url(#mask-2)" points="50.7148861 43.8374051 51.2608671 43.8374051 51.2608671 45.485943 51.4582405 45.485943 51.4582405 43.8374051 52.0336139 43.8374051 52.0336139 43.6396899 50.7148861 43.6396899 50.7148861 43.8374051"></polyline>
                        <polyline fill="#FFFFFE" mask="url(#mask-2)" points="53.5618481 43.6398608 53.087981 45.1410949 52.6144557 43.6398608 52.2966076 43.6398608 52.2966076 45.4856013 52.4946646 45.4856013 52.4946646 43.9175506 52.9888671 45.4856013 53.1869241 45.4856013 53.6814684 43.9175506 53.6814684 45.4856013 53.8793544 45.4856013 53.8793544 43.6398608 53.5618481 43.6398608"></polyline>
                    </g>
                    <path d="M28.9164873,20.3268987 L25.3024177,28.8790633 L25.3024177,28.9296456 C25.3024177,28.9296456 26.8841392,27.8347785 28.9164873,27.8347785 L37.0363101,27.8347785 L37.0363101,32.8854873 C34.6374114,36.025519 30.9377278,38.0387278 26.7869051,38.0387278 C19.5558608,38.0387278 13.6932722,31.9300633 13.6932722,24.3941582 C13.6932722,16.8585949 19.5558608,10.7497595 26.7869051,10.7497595 C32.6583797,10.7497595 38.0836709,14.7766899 39.9174494,20.3241646 L47.0382722,11.9651013 C47.0382722,11.9651013 40.8445063,1.72287342 26.7869051,1.72287342 C12.8972848,1.72287342 1.63691772,10.6867025 1.63691772,24.3941582 C1.63691772,38.1935506 12.8972848,47.0659557 26.7869051,47.0659557 C35.0762468,47.0659557 39.9029241,43.8961899 42.6136899,43.8961899 C44.7723228,43.8961899 48.2859114,45.4857722 48.2859114,45.4857722 L48.2859114,24.3941582 C48.2859114,21.7732785 49.7105886,20.321943 49.7105886,20.321943 L39.9174494,20.3241646 L28.9164873,20.3268987" fill="#BEB5AC"></path>
                </g>
            </g>
        </g>
    </g>
</svg>
