<?xml version="1.0" encoding="UTF-8"?>
<svg width="349px" height="49px" viewBox="0 0 349 49" version="1.1" xmlns="http://www.w3.org/2000/svg" xmlns:xlink="http://www.w3.org/1999/xlink">
    <title>Group 3</title>
    <g id="Website" stroke="none" stroke-width="1" fill="none" fill-rule="evenodd">
        <g id="GU-Desktop" transform="translate(-48.000000, -133.000000)">
            <g id="Group-3" transform="translate(48.000000, 133.000000)">
                <path d="M73.4667969,32 L73.4667969,29.5 L67.6757812,29.5 L67.6757812,17.7226562 L64.6484375,17.7226562 L64.6484375,32 L73.4667969,32 Z M84.1699219,32 L84.1699219,29.5 L78.9746094,29.5 L78.9746094,25.8183594 L83.8085938,25.8183594 L83.8085938,23.3378906 L78.9746094,23.3378906 L78.9746094,20.203125 L84.1699219,20.203125 L84.1699219,17.7226562 L75.9472656,17.7226562 L75.9472656,32 L84.1699219,32 Z M92.65625,32 L92.65625,20.2421875 L96.5332031,20.2421875 L96.5332031,17.7226562 L85.7519531,17.7226562 L85.7519531,20.2421875 L89.6289062,20.2421875 L89.6289062,32 L92.65625,32 Z M104.638672,32 L104.638672,20.2421875 L108.515625,20.2421875 L108.515625,17.7226562 L97.734375,17.7226562 L97.734375,20.2421875 L101.611328,20.2421875 L101.611328,32 L104.638672,32 Z M118.935547,32 L118.935547,29.5 L113.740234,29.5 L113.740234,25.8183594 L118.574219,25.8183594 L118.574219,23.3378906 L113.740234,23.3378906 L113.740234,20.203125 L118.935547,20.203125 L118.935547,17.7226562 L110.712891,17.7226562 L110.712891,32 L118.935547,32 Z M124.941406,32 L124.941406,26.5214844 L126.552734,26.5214844 L129.960938,32 L133.320312,32 C132.669271,31.0625 131.269531,28.9889323 129.121094,25.7792969 C129.967448,25.4082031 130.621745,24.8955078 131.083984,24.2412109 C131.546224,23.5869141 131.777344,22.8398438 131.777344,22 C131.777344,20.5611979 131.311849,19.4886068 130.380859,18.7822266 C129.44987,18.0758464 128.014323,17.7226562 126.074219,17.7226562 L126.074219,17.7226562 L121.914062,17.7226562 L121.914062,32 L124.941406,32 Z M125.917969,24.0605469 L124.941406,24.0605469 L124.941406,20.203125 L125.859375,20.203125 C126.835938,20.203125 127.556966,20.3463542 128.022461,20.6328125 C128.487956,20.9192708 128.720703,21.4010417 128.720703,22.078125 C128.720703,22.7617188 128.492839,23.2630208 128.037109,23.5820312 C127.58138,23.9010417 126.875,24.0605469 125.917969,24.0605469 L125.917969,24.0605469 Z M140.400391,32 L142.324219,24.5195312 C142.408854,24.1875 142.529297,23.632487 142.685547,22.8544922 C142.841797,22.0764974 142.939453,21.5117188 142.978516,21.1601562 C143.004557,21.4466146 143.103841,22.008138 143.276367,22.8447266 C143.448893,23.6813151 143.570964,24.2330729 143.642578,24.5 L143.642578,24.5 L145.576172,32 L149.023438,32 L152.65625,17.7226562 L149.677734,17.7226562 L147.861328,25.515625 C147.744141,25.984375 147.613932,26.5979818 147.470703,27.3564453 C147.327474,28.1149089 147.223307,28.7480469 147.158203,29.2558594 C147.086589,28.7285156 146.982422,28.0970052 146.845703,27.3613281 C146.708984,26.625651 146.595052,26.078776 146.503906,25.7207031 L146.503906,25.7207031 L144.423828,17.7226562 L141.5625,17.7226562 L139.482422,25.7207031 C139.358724,26.1503906 139.226888,26.7542318 139.086914,27.5322266 C138.94694,28.3102214 138.857422,28.8847656 138.818359,29.2558594 C138.67513,28.2011719 138.44401,26.9544271 138.125,25.515625 L138.125,25.515625 L136.298828,17.7226562 L133.320312,17.7226562 L136.962891,32 L140.400391,32 Z M157.480469,32 L157.480469,17.7226562 L154.453125,17.7226562 L154.453125,32 L157.480469,32 Z M163.779297,32 L163.779297,25.28125 C163.779297,24.4674479 163.717448,23.1067708 163.59375,21.1992188 L163.59375,21.1992188 L163.681641,21.1992188 L169.892578,32 L173.740234,32 L173.740234,17.7226562 L171.015625,17.7226562 L171.015625,24.4804688 C171.015625,25.2486979 171.064453,26.5605469 171.162109,28.4160156 L171.162109,28.4160156 L171.09375,28.4160156 L164.892578,17.7226562 L161.074219,17.7226562 L161.074219,32 L163.779297,32 Z M180.039062,32 L180.039062,25.28125 C180.039062,24.4674479 179.977214,23.1067708 179.853516,21.1992188 L179.853516,21.1992188 L179.941406,21.1992188 L186.152344,32 L190,32 L190,17.7226562 L187.275391,17.7226562 L187.275391,24.4804688 C187.275391,25.2486979 187.324219,26.5605469 187.421875,28.4160156 L187.421875,28.4160156 L187.353516,28.4160156 L181.152344,17.7226562 L177.333984,17.7226562 L177.333984,32 L180.039062,32 Z M201.816406,32 L201.816406,29.5 L196.621094,29.5 L196.621094,25.8183594 L201.455078,25.8183594 L201.455078,23.3378906 L196.621094,23.3378906 L196.621094,20.203125 L201.816406,20.203125 L201.816406,17.7226562 L193.59375,17.7226562 L193.59375,32 L201.816406,32 Z M207.822266,32 L207.822266,26.5214844 L209.433594,26.5214844 L212.841797,32 L216.201172,32 C215.55013,31.0625 214.150391,28.9889323 212.001953,25.7792969 C212.848307,25.4082031 213.502604,24.8955078 213.964844,24.2412109 C214.427083,23.5869141 214.658203,22.8398438 214.658203,22 C214.658203,20.5611979 214.192708,19.4886068 213.261719,18.7822266 C212.330729,18.0758464 210.895182,17.7226562 208.955078,17.7226562 L208.955078,17.7226562 L204.794922,17.7226562 L204.794922,32 L207.822266,32 Z M208.798828,24.0605469 L207.822266,24.0605469 L207.822266,20.203125 L208.740234,20.203125 C209.716797,20.203125 210.437826,20.3463542 210.90332,20.6328125 C211.368815,20.9192708 211.601562,21.4010417 211.601562,22.078125 C211.601562,22.7617188 211.373698,23.2630208 210.917969,23.5820312 C210.46224,23.9010417 209.755859,24.0605469 208.798828,24.0605469 L208.798828,24.0605469 Z M221.162109,32.1953125 C222.815755,32.1953125 224.106445,31.8242188 225.03418,31.0820312 C225.961914,30.3398438 226.425781,29.3242188 226.425781,28.0351562 C226.425781,27.1041667 226.178385,26.3180339 225.683594,25.6767578 C225.188802,25.0354818 224.274089,24.3958333 222.939453,23.7578125 C221.930339,23.2760417 221.29069,22.9423828 221.020508,22.7568359 C220.750326,22.5712891 220.553385,22.3792318 220.429688,22.1806641 C220.30599,21.9820964 220.244141,21.749349 220.244141,21.4824219 C220.244141,21.0527344 220.397135,20.7044271 220.703125,20.4375 C221.009115,20.1705729 221.448568,20.0371094 222.021484,20.0371094 C222.503255,20.0371094 222.993164,20.0989583 223.491211,20.2226562 C223.989258,20.3463542 224.619141,20.5644531 225.380859,20.8769531 L225.380859,20.8769531 L226.357422,18.5234375 C225.621745,18.2044271 224.916992,17.9570312 224.243164,17.78125 C223.569336,17.6054688 222.861328,17.5175781 222.119141,17.5175781 C220.608724,17.5175781 219.425456,17.8789062 218.569336,18.6015625 C217.713216,19.3242188 217.285156,20.3170573 217.285156,21.5800781 C217.285156,22.250651 217.415365,22.8365885 217.675781,23.3378906 C217.936198,23.8391927 218.284505,24.2786458 218.720703,24.65625 C219.156901,25.0338542 219.811198,25.4277344 220.683594,25.8378906 C221.614583,26.280599 222.231445,26.6028646 222.53418,26.8046875 C222.836914,27.0065104 223.066406,27.2164714 223.222656,27.4345703 C223.378906,27.6526693 223.457031,27.9016927 223.457031,28.1816406 C223.457031,28.6829427 223.279622,29.0605469 222.924805,29.3144531 C222.569987,29.5683594 222.060547,29.6953125 221.396484,29.6953125 C220.843099,29.6953125 220.232747,29.6074219 219.56543,29.4316406 C218.898112,29.2558594 218.082682,28.953125 217.119141,28.5234375 L217.119141,28.5234375 L217.119141,31.3359375 C218.291016,31.9088542 219.638672,32.1953125 221.162109,32.1953125 Z M239.990234,32.1953125 C241.435547,32.1953125 242.744141,31.9511719 243.916016,31.4628906 L243.916016,31.4628906 L243.916016,28.9238281 C242.490234,29.4251302 241.276042,29.6757812 240.273438,29.6757812 C237.884115,29.6757812 236.689453,28.0839844 236.689453,24.9003906 C236.689453,23.3704427 237.001953,22.1774089 237.626953,21.3212891 C238.251953,20.4651693 239.134115,20.0371094 240.273438,20.0371094 C240.794271,20.0371094 241.32487,20.1315104 241.865234,20.3203125 C242.405599,20.5091146 242.942708,20.7304688 243.476562,20.984375 L243.476562,20.984375 L244.453125,18.5234375 C243.053385,17.8528646 241.660156,17.5175781 240.273438,17.5175781 C238.91276,17.5175781 237.726237,17.8154297 236.713867,18.4111328 C235.701497,19.0068359 234.92513,19.8629557 234.384766,20.9794922 C233.844401,22.0960286 233.574219,23.3964844 233.574219,24.8808594 C233.574219,27.2376302 234.124349,29.0458984 235.224609,30.3056641 C236.32487,31.5654297 237.913411,32.1953125 239.990234,32.1953125 Z M249.980469,32 L249.980469,25.8378906 L255.634766,25.8378906 L255.634766,32 L258.652344,32 L258.652344,17.7226562 L255.634766,17.7226562 L255.634766,23.3183594 L249.980469,23.3183594 L249.980469,17.7226562 L246.953125,17.7226562 L246.953125,32 L249.980469,32 Z M263.720703,32 L264.755859,28.6015625 L269.960938,28.6015625 L270.996094,32 L274.257812,32 L269.199219,17.6640625 L265.498047,17.6640625 L260.458984,32 L263.720703,32 Z M269.238281,26.0625 L265.517578,26.0625 C266.533203,22.7747396 267.148438,20.7141927 267.363281,19.8808594 C267.415365,20.1152344 267.501628,20.4342448 267.62207,20.8378906 C267.742513,21.2415365 268.28125,22.9830729 269.238281,26.0625 L269.238281,26.0625 Z M284.873047,32 L284.873047,29.5 L279.082031,29.5 L279.082031,17.7226562 L276.054688,17.7226562 L276.054688,32 L284.873047,32 Z M296.171875,32 L296.171875,29.5 L290.380859,29.5 L290.380859,17.7226562 L287.353516,17.7226562 L287.353516,32 L296.171875,32 Z M306.875,32 L306.875,29.5 L301.679688,29.5 L301.679688,25.8183594 L306.513672,25.8183594 L306.513672,23.3378906 L301.679688,23.3378906 L301.679688,20.203125 L306.875,20.203125 L306.875,17.7226562 L298.652344,17.7226562 L298.652344,32 L306.875,32 Z M312.558594,32 L312.558594,25.28125 C312.558594,24.4674479 312.496745,23.1067708 312.373047,21.1992188 L312.373047,21.1992188 L312.460938,21.1992188 L318.671875,32 L322.519531,32 L322.519531,17.7226562 L319.794922,17.7226562 L319.794922,24.4804688 C319.794922,25.2486979 319.84375,26.5605469 319.941406,28.4160156 L319.941406,28.4160156 L319.873047,28.4160156 L313.671875,17.7226562 L309.853516,17.7226562 L309.853516,32 L312.558594,32 Z M332.119141,32.1953125 C332.965495,32.1953125 333.793945,32.1350911 334.604492,32.0146484 C335.415039,31.8942057 336.279297,31.6842448 337.197266,31.3847656 L337.197266,31.3847656 L337.197266,23.9824219 L331.533203,23.9824219 L331.533203,26.5019531 L334.238281,26.5019531 L334.238281,29.4804688 C333.58724,29.6106771 332.945964,29.6757812 332.314453,29.6757812 C331.103516,29.6757812 330.180664,29.2672526 329.545898,28.4501953 C328.911133,27.633138 328.59375,26.4498698 328.59375,24.9003906 C328.59375,23.4160156 328.98763,22.234375 329.775391,21.3554688 C330.563151,20.4765625 331.611328,20.0371094 332.919922,20.0371094 C334.046224,20.0371094 335.130208,20.297526 336.171875,20.8183594 L336.171875,20.8183594 L337.177734,18.3964844 C335.817057,17.8105469 334.404297,17.5175781 332.939453,17.5175781 C330.602214,17.5175781 328.774414,18.1621094 327.456055,19.4511719 C326.137695,20.7402344 325.478516,22.5371094 325.478516,24.8417969 C325.478516,27.2115885 326.046549,29.0296224 327.182617,30.2958984 C328.318685,31.5621745 329.964193,32.1953125 332.119141,32.1953125 Z M348.818359,32 L348.818359,29.5 L343.623047,29.5 L343.623047,25.8183594 L348.457031,25.8183594 L348.457031,23.3378906 L343.623047,23.3378906 L343.623047,20.203125 L348.818359,20.203125 L348.818359,17.7226562 L340.595703,17.7226562 L340.595703,32 L348.818359,32 Z" id="LETTERWINNERSCHALLENGE" fill="#FFFFFF" fill-rule="nonzero"></path>
                <g id="G-NEW" fill="#9AA2A2">
                    <path d="M41.3492672,20.0924313 L29.4667672,20.0954237 L25.5626641,29.3326718 L25.5626641,29.3874695 C25.5626641,29.3874695 27.2709313,28.2051107 29.4667672,28.2051107 L38.2368321,28.2051107 L38.2368321,33.6605687 C35.6454427,37.052229 31.6496985,39.2267443 27.1660115,39.2267443 C19.355,39.2267443 13.0231527,32.6282023 13.0231527,24.4885916 C13.0231527,16.349355 19.355,9.75062595 27.1660115,9.75062595 C33.5083321,9.75062595 39.3683206,14.1002176 41.3492672,20.0924313 L49.040771,11.0635267 C49.040771,11.0635267 42.3504008,-3.18930633e-14 27.1660115,-3.18930633e-14 C12.1628473,-3.18930633e-14 -5.31551054e-15,9.68254962 -5.31551054e-15,24.4885916 C-5.31551054e-15,39.3941298 12.1628473,48.9775573 27.1660115,48.9775573 C36.1201069,48.9775573 41.3337443,45.5531679 44.2617748,45.5531679 C46.5933893,45.5531679 50.388271,47.2707863 50.388271,47.2707863 L50.388271,24.4885916 C50.388271,21.6572519 51.9272824,20.089813 51.9272824,20.089813 L41.3492672,20.0924313" id="Fill-28"></path>
                    <path d="M55.296874,44.8712824 L54.3696145,44.8712824 L54.3696145,47.2707863 L53.9389008,47.2707863 L53.9389008,44.8712824 L53.0122023,44.8712824 L53.0122023,44.4415038 L55.296874,44.4415038 L55.296874,44.8712824 Z M58.8729389,47.2707863 L58.4429733,47.2707863 L58.4429733,44.8712824 L58.4298817,44.8712824 L57.4620382,47.2707863 L57.199084,47.2707863 L56.2581718,44.8712824 L56.2448931,44.8712824 L56.2448931,47.2707863 L55.8147405,47.2707863 L55.8147405,44.4415038 L56.5198168,44.4415038 L57.3335534,46.4379733 L58.1740344,44.4415038 L58.8729389,44.4415038 L58.8729389,47.2707863 L58.8729389,47.2707863 Z" id="Fill-29"></path>
                </g>
            </g>
        </g>
    </g>
</svg>