<?xml version="1.0" encoding="UTF-8"?>
<svg width="349px" height="49px" viewBox="0 0 349 49" version="1.1" xmlns="http://www.w3.org/2000/svg" xmlns:xlink="http://www.w3.org/1999/xlink">
    <title>Group 3</title>
    <defs>
        <polygon id="path-1" points="0.0205423077 0.120426923 53.7744846 0.120426923 53.7744846 48.9255577 0.0205423077 48.9255577"></polygon>
    </defs>
    <g id="Website" stroke="none" stroke-width="1" fill="none" fill-rule="evenodd">
        <g id="GU-Desktop" transform="translate(-48.000000, -133.000000)">
            <g id="Group-3" transform="translate(48.000000, 133.000000)">
                <path d="M73.4667969,32 L73.4667969,29.5 L67.6757812,29.5 L67.6757812,17.7226562 L64.6484375,17.7226562 L64.6484375,32 L73.4667969,32 Z M84.1699219,32 L84.1699219,29.5 L78.9746094,29.5 L78.9746094,25.8183594 L83.8085938,25.8183594 L83.8085938,23.3378906 L78.9746094,23.3378906 L78.9746094,20.203125 L84.1699219,20.203125 L84.1699219,17.7226562 L75.9472656,17.7226562 L75.9472656,32 L84.1699219,32 Z M92.65625,32 L92.65625,20.2421875 L96.5332031,20.2421875 L96.5332031,17.7226562 L85.7519531,17.7226562 L85.7519531,20.2421875 L89.6289062,20.2421875 L89.6289062,32 L92.65625,32 Z M104.638672,32 L104.638672,20.2421875 L108.515625,20.2421875 L108.515625,17.7226562 L97.734375,17.7226562 L97.734375,20.2421875 L101.611328,20.2421875 L101.611328,32 L104.638672,32 Z M118.935547,32 L118.935547,29.5 L113.740234,29.5 L113.740234,25.8183594 L118.574219,25.8183594 L118.574219,23.3378906 L113.740234,23.3378906 L113.740234,20.203125 L118.935547,20.203125 L118.935547,17.7226562 L110.712891,17.7226562 L110.712891,32 L118.935547,32 Z M124.941406,32 L124.941406,26.5214844 L126.552734,26.5214844 L129.960938,32 L133.320312,32 C132.669271,31.0625 131.269531,28.9889323 129.121094,25.7792969 C129.967448,25.4082031 130.621745,24.8955078 131.083984,24.2412109 C131.546224,23.5869141 131.777344,22.8398438 131.777344,22 C131.777344,20.5611979 131.311849,19.4886068 130.380859,18.7822266 C129.44987,18.0758464 128.014323,17.7226562 126.074219,17.7226562 L126.074219,17.7226562 L121.914062,17.7226562 L121.914062,32 L124.941406,32 Z M125.917969,24.0605469 L124.941406,24.0605469 L124.941406,20.203125 L125.859375,20.203125 C126.835938,20.203125 127.556966,20.3463542 128.022461,20.6328125 C128.487956,20.9192708 128.720703,21.4010417 128.720703,22.078125 C128.720703,22.7617188 128.492839,23.2630208 128.037109,23.5820312 C127.58138,23.9010417 126.875,24.0605469 125.917969,24.0605469 L125.917969,24.0605469 Z M140.400391,32 L142.324219,24.5195312 C142.408854,24.1875 142.529297,23.632487 142.685547,22.8544922 C142.841797,22.0764974 142.939453,21.5117188 142.978516,21.1601562 C143.004557,21.4466146 143.103841,22.008138 143.276367,22.8447266 C143.448893,23.6813151 143.570964,24.2330729 143.642578,24.5 L143.642578,24.5 L145.576172,32 L149.023438,32 L152.65625,17.7226562 L149.677734,17.7226562 L147.861328,25.515625 C147.744141,25.984375 147.613932,26.5979818 147.470703,27.3564453 C147.327474,28.1149089 147.223307,28.7480469 147.158203,29.2558594 C147.086589,28.7285156 146.982422,28.0970052 146.845703,27.3613281 C146.708984,26.625651 146.595052,26.078776 146.503906,25.7207031 L146.503906,25.7207031 L144.423828,17.7226562 L141.5625,17.7226562 L139.482422,25.7207031 C139.358724,26.1503906 139.226888,26.7542318 139.086914,27.5322266 C138.94694,28.3102214 138.857422,28.8847656 138.818359,29.2558594 C138.67513,28.2011719 138.44401,26.9544271 138.125,25.515625 L138.125,25.515625 L136.298828,17.7226562 L133.320312,17.7226562 L136.962891,32 L140.400391,32 Z M157.480469,32 L157.480469,17.7226562 L154.453125,17.7226562 L154.453125,32 L157.480469,32 Z M163.779297,32 L163.779297,25.28125 C163.779297,24.4674479 163.717448,23.1067708 163.59375,21.1992188 L163.59375,21.1992188 L163.681641,21.1992188 L169.892578,32 L173.740234,32 L173.740234,17.7226562 L171.015625,17.7226562 L171.015625,24.4804688 C171.015625,25.2486979 171.064453,26.5605469 171.162109,28.4160156 L171.162109,28.4160156 L171.09375,28.4160156 L164.892578,17.7226562 L161.074219,17.7226562 L161.074219,32 L163.779297,32 Z M180.039062,32 L180.039062,25.28125 C180.039062,24.4674479 179.977214,23.1067708 179.853516,21.1992188 L179.853516,21.1992188 L179.941406,21.1992188 L186.152344,32 L190,32 L190,17.7226562 L187.275391,17.7226562 L187.275391,24.4804688 C187.275391,25.2486979 187.324219,26.5605469 187.421875,28.4160156 L187.421875,28.4160156 L187.353516,28.4160156 L181.152344,17.7226562 L177.333984,17.7226562 L177.333984,32 L180.039062,32 Z M201.816406,32 L201.816406,29.5 L196.621094,29.5 L196.621094,25.8183594 L201.455078,25.8183594 L201.455078,23.3378906 L196.621094,23.3378906 L196.621094,20.203125 L201.816406,20.203125 L201.816406,17.7226562 L193.59375,17.7226562 L193.59375,32 L201.816406,32 Z M207.822266,32 L207.822266,26.5214844 L209.433594,26.5214844 L212.841797,32 L216.201172,32 C215.55013,31.0625 214.150391,28.9889323 212.001953,25.7792969 C212.848307,25.4082031 213.502604,24.8955078 213.964844,24.2412109 C214.427083,23.5869141 214.658203,22.8398438 214.658203,22 C214.658203,20.5611979 214.192708,19.4886068 213.261719,18.7822266 C212.330729,18.0758464 210.895182,17.7226562 208.955078,17.7226562 L208.955078,17.7226562 L204.794922,17.7226562 L204.794922,32 L207.822266,32 Z M208.798828,24.0605469 L207.822266,24.0605469 L207.822266,20.203125 L208.740234,20.203125 C209.716797,20.203125 210.437826,20.3463542 210.90332,20.6328125 C211.368815,20.9192708 211.601562,21.4010417 211.601562,22.078125 C211.601562,22.7617188 211.373698,23.2630208 210.917969,23.5820312 C210.46224,23.9010417 209.755859,24.0605469 208.798828,24.0605469 L208.798828,24.0605469 Z M221.162109,32.1953125 C222.815755,32.1953125 224.106445,31.8242188 225.03418,31.0820312 C225.961914,30.3398438 226.425781,29.3242188 226.425781,28.0351562 C226.425781,27.1041667 226.178385,26.3180339 225.683594,25.6767578 C225.188802,25.0354818 224.274089,24.3958333 222.939453,23.7578125 C221.930339,23.2760417 221.29069,22.9423828 221.020508,22.7568359 C220.750326,22.5712891 220.553385,22.3792318 220.429688,22.1806641 C220.30599,21.9820964 220.244141,21.749349 220.244141,21.4824219 C220.244141,21.0527344 220.397135,20.7044271 220.703125,20.4375 C221.009115,20.1705729 221.448568,20.0371094 222.021484,20.0371094 C222.503255,20.0371094 222.993164,20.0989583 223.491211,20.2226562 C223.989258,20.3463542 224.619141,20.5644531 225.380859,20.8769531 L225.380859,20.8769531 L226.357422,18.5234375 C225.621745,18.2044271 224.916992,17.9570312 224.243164,17.78125 C223.569336,17.6054688 222.861328,17.5175781 222.119141,17.5175781 C220.608724,17.5175781 219.425456,17.8789062 218.569336,18.6015625 C217.713216,19.3242188 217.285156,20.3170573 217.285156,21.5800781 C217.285156,22.250651 217.415365,22.8365885 217.675781,23.3378906 C217.936198,23.8391927 218.284505,24.2786458 218.720703,24.65625 C219.156901,25.0338542 219.811198,25.4277344 220.683594,25.8378906 C221.614583,26.280599 222.231445,26.6028646 222.53418,26.8046875 C222.836914,27.0065104 223.066406,27.2164714 223.222656,27.4345703 C223.378906,27.6526693 223.457031,27.9016927 223.457031,28.1816406 C223.457031,28.6829427 223.279622,29.0605469 222.924805,29.3144531 C222.569987,29.5683594 222.060547,29.6953125 221.396484,29.6953125 C220.843099,29.6953125 220.232747,29.6074219 219.56543,29.4316406 C218.898112,29.2558594 218.082682,28.953125 217.119141,28.5234375 L217.119141,28.5234375 L217.119141,31.3359375 C218.291016,31.9088542 219.638672,32.1953125 221.162109,32.1953125 Z M239.990234,32.1953125 C241.435547,32.1953125 242.744141,31.9511719 243.916016,31.4628906 L243.916016,31.4628906 L243.916016,28.9238281 C242.490234,29.4251302 241.276042,29.6757812 240.273438,29.6757812 C237.884115,29.6757812 236.689453,28.0839844 236.689453,24.9003906 C236.689453,23.3704427 237.001953,22.1774089 237.626953,21.3212891 C238.251953,20.4651693 239.134115,20.0371094 240.273438,20.0371094 C240.794271,20.0371094 241.32487,20.1315104 241.865234,20.3203125 C242.405599,20.5091146 242.942708,20.7304688 243.476562,20.984375 L243.476562,20.984375 L244.453125,18.5234375 C243.053385,17.8528646 241.660156,17.5175781 240.273438,17.5175781 C238.91276,17.5175781 237.726237,17.8154297 236.713867,18.4111328 C235.701497,19.0068359 234.92513,19.8629557 234.384766,20.9794922 C233.844401,22.0960286 233.574219,23.3964844 233.574219,24.8808594 C233.574219,27.2376302 234.124349,29.0458984 235.224609,30.3056641 C236.32487,31.5654297 237.913411,32.1953125 239.990234,32.1953125 Z M249.980469,32 L249.980469,25.8378906 L255.634766,25.8378906 L255.634766,32 L258.652344,32 L258.652344,17.7226562 L255.634766,17.7226562 L255.634766,23.3183594 L249.980469,23.3183594 L249.980469,17.7226562 L246.953125,17.7226562 L246.953125,32 L249.980469,32 Z M263.720703,32 L264.755859,28.6015625 L269.960938,28.6015625 L270.996094,32 L274.257812,32 L269.199219,17.6640625 L265.498047,17.6640625 L260.458984,32 L263.720703,32 Z M269.238281,26.0625 L265.517578,26.0625 C266.533203,22.7747396 267.148438,20.7141927 267.363281,19.8808594 C267.415365,20.1152344 267.501628,20.4342448 267.62207,20.8378906 C267.742513,21.2415365 268.28125,22.9830729 269.238281,26.0625 L269.238281,26.0625 Z M284.873047,32 L284.873047,29.5 L279.082031,29.5 L279.082031,17.7226562 L276.054688,17.7226562 L276.054688,32 L284.873047,32 Z M296.171875,32 L296.171875,29.5 L290.380859,29.5 L290.380859,17.7226562 L287.353516,17.7226562 L287.353516,32 L296.171875,32 Z M306.875,32 L306.875,29.5 L301.679688,29.5 L301.679688,25.8183594 L306.513672,25.8183594 L306.513672,23.3378906 L301.679688,23.3378906 L301.679688,20.203125 L306.875,20.203125 L306.875,17.7226562 L298.652344,17.7226562 L298.652344,32 L306.875,32 Z M312.558594,32 L312.558594,25.28125 C312.558594,24.4674479 312.496745,23.1067708 312.373047,21.1992188 L312.373047,21.1992188 L312.460938,21.1992188 L318.671875,32 L322.519531,32 L322.519531,17.7226562 L319.794922,17.7226562 L319.794922,24.4804688 C319.794922,25.2486979 319.84375,26.5605469 319.941406,28.4160156 L319.941406,28.4160156 L319.873047,28.4160156 L313.671875,17.7226562 L309.853516,17.7226562 L309.853516,32 L312.558594,32 Z M332.119141,32.1953125 C332.965495,32.1953125 333.793945,32.1350911 334.604492,32.0146484 C335.415039,31.8942057 336.279297,31.6842448 337.197266,31.3847656 L337.197266,31.3847656 L337.197266,23.9824219 L331.533203,23.9824219 L331.533203,26.5019531 L334.238281,26.5019531 L334.238281,29.4804688 C333.58724,29.6106771 332.945964,29.6757812 332.314453,29.6757812 C331.103516,29.6757812 330.180664,29.2672526 329.545898,28.4501953 C328.911133,27.633138 328.59375,26.4498698 328.59375,24.9003906 C328.59375,23.4160156 328.98763,22.234375 329.775391,21.3554688 C330.563151,20.4765625 331.611328,20.0371094 332.919922,20.0371094 C334.046224,20.0371094 335.130208,20.297526 336.171875,20.8183594 L336.171875,20.8183594 L337.177734,18.3964844 C335.817057,17.8105469 334.404297,17.5175781 332.939453,17.5175781 C330.602214,17.5175781 328.774414,18.1621094 327.456055,19.4511719 C326.137695,20.7402344 325.478516,22.5371094 325.478516,24.8417969 C325.478516,27.2115885 326.046549,29.0296224 327.182617,30.2958984 C328.318685,31.5621745 329.964193,32.1953125 332.119141,32.1953125 Z M348.818359,32 L348.818359,29.5 L343.623047,29.5 L343.623047,25.8183594 L348.457031,25.8183594 L348.457031,23.3378906 L343.623047,23.3378906 L343.623047,20.203125 L348.818359,20.203125 L348.818359,17.7226562 L340.595703,17.7226562 L340.595703,32 L348.818359,32 Z" id="LETTERWINNERSCHALLENGE" fill="#FFFFFF" fill-rule="nonzero"></path>
                <g id="G-NEW-2">
                    <g id="Group-26">
                        <mask id="mask-2" fill="white">
                            <use xlink:href="#path-1"></use>
                        </mask>
                        <g id="Clip-24"></g>
                        <path d="M27.9595885,18.7971538 L23.7778154,28.6923269 L23.7778154,32.1575692 L26.3467346,30.4337115 C26.3587962,30.4254192 27.57475,29.6203115 29.0492731,29.6203115 L35.5572269,29.6203115 L35.5572269,32.4672115 C33.3686231,35.0847538 30.2471346,36.5775577 26.9111769,36.5775577 C20.5696346,36.5775577 15.4099346,31.1700308 15.4099346,24.5229923 C15.4099346,17.8761423 20.5696346,12.4686154 26.9111769,12.4686154 C31.2354269,12.4686154 35.3925115,15.0294308 37.55605,18.7947038 L27.9595885,18.7971538 Z M26.9111769,10.8256077 C19.6518269,10.8256077 13.7669269,16.9583346 13.7669269,24.5229923 C13.7669269,32.08765 19.6518269,38.2203769 26.9111769,38.2203769 C31.07825,38.2203769 34.7918846,36.1993154 37.2002346,33.0471077 L37.2002346,27.9769269 L29.0492731,27.9769269 C27.0086115,27.9769269 25.4210115,29.0758462 25.4210115,29.0758462 L25.4210115,29.0249615 L29.0492731,20.4397846 L40.0929308,20.4371462 C38.25185,14.8681077 32.8055,10.8256077 26.9111769,10.8256077 L26.9111769,10.8256077 Z" id="Fill-23" fill="#FFFEFE" mask="url(#mask-2)"></path>
                        <path d="M48.4936038,24.5229923 L48.4936038,45.6964577 C48.4936038,45.6964577 44.9667346,44.1001885 42.7996154,44.1001885 C40.0784192,44.1001885 35.2328846,47.28255 26.9111769,47.28255 C12.9672846,47.28255 1.66336154,38.3758577 1.66336154,24.5229923 C1.66336154,10.7624731 12.9672846,1.76343462 26.9111769,1.76343462 C41.0233654,1.76343462 47.2412769,12.0457077 47.2412769,12.0457077 L40.0929308,20.4371462 L49.9238385,20.4346962 C49.9238385,20.4346962 48.4936038,21.8915038 48.4936038,24.5229923 Z M53.7744846,18.8029962 L43.6512731,18.7930077 L49.2600769,12.2094808 L48.6470115,11.1957462 C48.5774692,11.0802192 46.8939423,8.33207308 43.3746115,5.60578846 C40.1438154,3.10358462 34.6652385,0.120238462 26.9111769,0.120238462 C19.6188462,0.120238462 12.8956692,2.47205 7.98078077,6.74258846 C2.84746538,11.2030962 0.0205423077,17.5173115 0.0205423077,24.5229923 C0.0205423077,31.5639154 2.84803077,37.8911346 7.98285385,42.3399577 C12.8853038,46.5865615 19.60735,48.9255577 26.9111769,48.9255577 C32.4700385,48.9255577 36.49765,47.5914385 39.4380269,46.6174692 C40.8526192,46.1480115 42.07385,45.7435731 42.7996154,45.7435731 C44.6917692,45.7435731 48.0631577,47.3046 50.1356692,48.2397462 L50.1366115,24.5229923 C50.1366115,22.6498731 51.0736423,21.61145 51.1135962,21.5682923 C51.1473308,21.5332385 53.7744846,18.8029962 53.7744846,18.8029962 L53.7744846,18.8029962 Z" id="Fill-25" fill="#FFFEFE" mask="url(#mask-2)"></path>
                    </g>
                    <path d="M40.0929308,20.4371462 L29.0492731,20.4397846 L25.4210115,29.0249615 L25.4210115,29.0758462 C25.4210115,29.0758462 27.0086115,27.9769269 29.0492731,27.9769269 L37.2002346,27.9769269 L37.2002346,33.0471077 C34.7918846,36.1993154 31.07825,38.2203769 26.9111769,38.2203769 C19.6518269,38.2203769 13.7669269,32.08765 13.7669269,24.5229923 C13.7669269,16.9583346 19.6518269,10.8256077 26.9111769,10.8256077 C32.8055,10.8256077 38.25185,14.8681077 40.0929308,20.4371462 L47.2412769,12.0457077 C47.2412769,12.0457077 41.0233654,1.76343462 26.9111769,1.76343462 C12.9672846,1.76343462 1.66336154,10.7624731 1.66336154,24.5229923 C1.66336154,38.3758577 12.9672846,47.28255 26.9111769,47.28255 C35.2328846,47.28255 40.0784192,44.1001885 42.7996154,44.1001885 C44.9667346,44.1001885 48.4936038,45.6964577 48.4936038,45.6964577 L48.4936038,24.5229923 C48.4936038,21.8915038 49.9238385,20.4346962 49.9238385,20.4346962 L40.0929308,20.4371462" id="Fill-27" fill="#9AA2A2"></path>
                    <path d="M53.0555038,43.4663923 L52.1938577,43.4663923 L52.1938577,45.6964577 L51.7935654,45.6964577 L51.7935654,43.4663923 L50.9321077,43.4663923 L50.9321077,43.0668538 L53.0555038,43.0668538 L53.0555038,43.4663923 Z M56.3792115,45.6964577 L55.9796731,45.6964577 L55.9796731,43.4663923 L55.9674231,43.4663923 L55.0678962,45.6964577 L54.8234615,45.6964577 L53.949,43.4663923 L53.93675,43.4663923 L53.93675,45.6964577 L53.5368346,45.6964577 L53.5368346,43.0668538 L54.1923038,43.0668538 L54.9484115,44.9224462 L55.7295846,43.0668538 L56.3792115,43.0668538 L56.3792115,45.6964577 L56.3792115,45.6964577 Z" id="Fill-28" fill="#9AA2A2"></path>
                </g>
            </g>
        </g>
    </g>
</svg>