<?xml version="1.0" encoding="UTF-8"?>
<svg width="285px" height="16px" viewBox="0 0 285 16" version="1.1" xmlns="http://www.w3.org/2000/svg" xmlns:xlink="http://www.w3.org/1999/xlink">
    <title>Letterwinners Challenge</title>
    <g stroke="none" stroke-width="1" fill="none" fill-rule="evenodd">
        <g transform="translate(-65.000000, -323.000000)" fill="#FFFFFF" fill-rule="nonzero">
            <path d="M74.4667969,338 L74.4667969,335.5 L68.6757812,335.5 L68.6757812,323.722656 L65.6484375,323.722656 L65.6484375,338 L74.4667969,338 Z M85.1699219,338 L85.1699219,335.5 L79.9746094,335.5 L79.9746094,331.818359 L84.8085938,331.818359 L84.8085938,329.337891 L79.9746094,329.337891 L79.9746094,326.203125 L85.1699219,326.203125 L85.1699219,323.722656 L76.9472656,323.722656 L76.9472656,338 L85.1699219,338 Z M93.65625,338 L93.65625,326.242188 L97.5332031,326.242188 L97.5332031,323.722656 L86.7519531,323.722656 L86.7519531,326.242188 L90.6289062,326.242188 L90.6289062,338 L93.65625,338 Z M105.638672,338 L105.638672,326.242188 L109.515625,326.242188 L109.515625,323.722656 L98.734375,323.722656 L98.734375,326.242188 L102.611328,326.242188 L102.611328,338 L105.638672,338 Z M119.935547,338 L119.935547,335.5 L114.740234,335.5 L114.740234,331.818359 L119.574219,331.818359 L119.574219,329.337891 L114.740234,329.337891 L114.740234,326.203125 L119.935547,326.203125 L119.935547,323.722656 L111.712891,323.722656 L111.712891,338 L119.935547,338 Z M125.941406,338 L125.941406,332.521484 L127.552734,332.521484 L130.960938,338 L134.320312,338 C133.669271,337.0625 132.269531,334.988932 130.121094,331.779297 C130.967448,331.408203 131.621745,330.895508 132.083984,330.241211 C132.546224,329.586914 132.777344,328.839844 132.777344,328 C132.777344,326.561198 132.311849,325.488607 131.380859,324.782227 C130.44987,324.075846 129.014323,323.722656 127.074219,323.722656 L127.074219,323.722656 L122.914062,323.722656 L122.914062,338 L125.941406,338 Z M126.917969,330.060547 L125.941406,330.060547 L125.941406,326.203125 L126.859375,326.203125 C127.835938,326.203125 128.556966,326.346354 129.022461,326.632812 C129.487956,326.919271 129.720703,327.401042 129.720703,328.078125 C129.720703,328.761719 129.492839,329.263021 129.037109,329.582031 C128.58138,329.901042 127.875,330.060547 126.917969,330.060547 L126.917969,330.060547 Z M141.400391,338 L143.324219,330.519531 C143.408854,330.1875 143.529297,329.632487 143.685547,328.854492 C143.841797,328.076497 143.939453,327.511719 143.978516,327.160156 C144.004557,327.446615 144.103841,328.008138 144.276367,328.844727 C144.448893,329.681315 144.570964,330.233073 144.642578,330.5 L144.642578,330.5 L146.576172,338 L150.023438,338 L153.65625,323.722656 L150.677734,323.722656 L148.861328,331.515625 C148.744141,331.984375 148.613932,332.597982 148.470703,333.356445 C148.327474,334.114909 148.223307,334.748047 148.158203,335.255859 C148.086589,334.728516 147.982422,334.097005 147.845703,333.361328 C147.708984,332.625651 147.595052,332.078776 147.503906,331.720703 L147.503906,331.720703 L145.423828,323.722656 L142.5625,323.722656 L140.482422,331.720703 C140.358724,332.150391 140.226888,332.754232 140.086914,333.532227 C139.94694,334.310221 139.857422,334.884766 139.818359,335.255859 C139.67513,334.201172 139.44401,332.954427 139.125,331.515625 L139.125,331.515625 L137.298828,323.722656 L134.320312,323.722656 L137.962891,338 L141.400391,338 Z M158.480469,338 L158.480469,323.722656 L155.453125,323.722656 L155.453125,338 L158.480469,338 Z M164.779297,338 L164.779297,331.28125 C164.779297,330.467448 164.717448,329.106771 164.59375,327.199219 L164.59375,327.199219 L164.681641,327.199219 L170.892578,338 L174.740234,338 L174.740234,323.722656 L172.015625,323.722656 L172.015625,330.480469 C172.015625,331.248698 172.064453,332.560547 172.162109,334.416016 L172.162109,334.416016 L172.09375,334.416016 L165.892578,323.722656 L162.074219,323.722656 L162.074219,338 L164.779297,338 Z M181.039062,338 L181.039062,331.28125 C181.039062,330.467448 180.977214,329.106771 180.853516,327.199219 L180.853516,327.199219 L180.941406,327.199219 L187.152344,338 L191,338 L191,323.722656 L188.275391,323.722656 L188.275391,330.480469 C188.275391,331.248698 188.324219,332.560547 188.421875,334.416016 L188.421875,334.416016 L188.353516,334.416016 L182.152344,323.722656 L178.333984,323.722656 L178.333984,338 L181.039062,338 Z M202.816406,338 L202.816406,335.5 L197.621094,335.5 L197.621094,331.818359 L202.455078,331.818359 L202.455078,329.337891 L197.621094,329.337891 L197.621094,326.203125 L202.816406,326.203125 L202.816406,323.722656 L194.59375,323.722656 L194.59375,338 L202.816406,338 Z M208.822266,338 L208.822266,332.521484 L210.433594,332.521484 L213.841797,338 L217.201172,338 C216.55013,337.0625 215.150391,334.988932 213.001953,331.779297 C213.848307,331.408203 214.502604,330.895508 214.964844,330.241211 C215.427083,329.586914 215.658203,328.839844 215.658203,328 C215.658203,326.561198 215.192708,325.488607 214.261719,324.782227 C213.330729,324.075846 211.895182,323.722656 209.955078,323.722656 L209.955078,323.722656 L205.794922,323.722656 L205.794922,338 L208.822266,338 Z M209.798828,330.060547 L208.822266,330.060547 L208.822266,326.203125 L209.740234,326.203125 C210.716797,326.203125 211.437826,326.346354 211.90332,326.632812 C212.368815,326.919271 212.601562,327.401042 212.601562,328.078125 C212.601562,328.761719 212.373698,329.263021 211.917969,329.582031 C211.46224,329.901042 210.755859,330.060547 209.798828,330.060547 L209.798828,330.060547 Z M222.162109,338.195312 C223.815755,338.195312 225.106445,337.824219 226.03418,337.082031 C226.961914,336.339844 227.425781,335.324219 227.425781,334.035156 C227.425781,333.104167 227.178385,332.318034 226.683594,331.676758 C226.188802,331.035482 225.274089,330.395833 223.939453,329.757812 C222.930339,329.276042 222.29069,328.942383 222.020508,328.756836 C221.750326,328.571289 221.553385,328.379232 221.429688,328.180664 C221.30599,327.982096 221.244141,327.749349 221.244141,327.482422 C221.244141,327.052734 221.397135,326.704427 221.703125,326.4375 C222.009115,326.170573 222.448568,326.037109 223.021484,326.037109 C223.503255,326.037109 223.993164,326.098958 224.491211,326.222656 C224.989258,326.346354 225.619141,326.564453 226.380859,326.876953 L226.380859,326.876953 L227.357422,324.523438 C226.621745,324.204427 225.916992,323.957031 225.243164,323.78125 C224.569336,323.605469 223.861328,323.517578 223.119141,323.517578 C221.608724,323.517578 220.425456,323.878906 219.569336,324.601562 C218.713216,325.324219 218.285156,326.317057 218.285156,327.580078 C218.285156,328.250651 218.415365,328.836589 218.675781,329.337891 C218.936198,329.839193 219.284505,330.278646 219.720703,330.65625 C220.156901,331.033854 220.811198,331.427734 221.683594,331.837891 C222.614583,332.280599 223.231445,332.602865 223.53418,332.804688 C223.836914,333.00651 224.066406,333.216471 224.222656,333.43457 C224.378906,333.652669 224.457031,333.901693 224.457031,334.181641 C224.457031,334.682943 224.279622,335.060547 223.924805,335.314453 C223.569987,335.568359 223.060547,335.695312 222.396484,335.695312 C221.843099,335.695312 221.232747,335.607422 220.56543,335.431641 C219.898112,335.255859 219.082682,334.953125 218.119141,334.523438 L218.119141,334.523438 L218.119141,337.335938 C219.291016,337.908854 220.638672,338.195312 222.162109,338.195312 Z M240.990234,338.195312 C242.435547,338.195312 243.744141,337.951172 244.916016,337.462891 L244.916016,337.462891 L244.916016,334.923828 C243.490234,335.42513 242.276042,335.675781 241.273438,335.675781 C238.884115,335.675781 237.689453,334.083984 237.689453,330.900391 C237.689453,329.370443 238.001953,328.177409 238.626953,327.321289 C239.251953,326.465169 240.134115,326.037109 241.273438,326.037109 C241.794271,326.037109 242.32487,326.13151 242.865234,326.320312 C243.405599,326.509115 243.942708,326.730469 244.476562,326.984375 L244.476562,326.984375 L245.453125,324.523438 C244.053385,323.852865 242.660156,323.517578 241.273438,323.517578 C239.91276,323.517578 238.726237,323.81543 237.713867,324.411133 C236.701497,325.006836 235.92513,325.862956 235.384766,326.979492 C234.844401,328.096029 234.574219,329.396484 234.574219,330.880859 C234.574219,333.23763 235.124349,335.045898 236.224609,336.305664 C237.32487,337.56543 238.913411,338.195312 240.990234,338.195312 Z M250.980469,338 L250.980469,331.837891 L256.634766,331.837891 L256.634766,338 L259.652344,338 L259.652344,323.722656 L256.634766,323.722656 L256.634766,329.318359 L250.980469,329.318359 L250.980469,323.722656 L247.953125,323.722656 L247.953125,338 L250.980469,338 Z M264.720703,338 L265.755859,334.601562 L270.960938,334.601562 L271.996094,338 L275.257812,338 L270.199219,323.664062 L266.498047,323.664062 L261.458984,338 L264.720703,338 Z M270.238281,332.0625 L266.517578,332.0625 C267.533203,328.77474 268.148438,326.714193 268.363281,325.880859 C268.415365,326.115234 268.501628,326.434245 268.62207,326.837891 C268.742513,327.241536 269.28125,328.983073 270.238281,332.0625 L270.238281,332.0625 Z M285.873047,338 L285.873047,335.5 L280.082031,335.5 L280.082031,323.722656 L277.054688,323.722656 L277.054688,338 L285.873047,338 Z M297.171875,338 L297.171875,335.5 L291.380859,335.5 L291.380859,323.722656 L288.353516,323.722656 L288.353516,338 L297.171875,338 Z M307.875,338 L307.875,335.5 L302.679688,335.5 L302.679688,331.818359 L307.513672,331.818359 L307.513672,329.337891 L302.679688,329.337891 L302.679688,326.203125 L307.875,326.203125 L307.875,323.722656 L299.652344,323.722656 L299.652344,338 L307.875,338 Z M313.558594,338 L313.558594,331.28125 C313.558594,330.467448 313.496745,329.106771 313.373047,327.199219 L313.373047,327.199219 L313.460938,327.199219 L319.671875,338 L323.519531,338 L323.519531,323.722656 L320.794922,323.722656 L320.794922,330.480469 C320.794922,331.248698 320.84375,332.560547 320.941406,334.416016 L320.941406,334.416016 L320.873047,334.416016 L314.671875,323.722656 L310.853516,323.722656 L310.853516,338 L313.558594,338 Z M333.119141,338.195312 C333.965495,338.195312 334.793945,338.135091 335.604492,338.014648 C336.415039,337.894206 337.279297,337.684245 338.197266,337.384766 L338.197266,337.384766 L338.197266,329.982422 L332.533203,329.982422 L332.533203,332.501953 L335.238281,332.501953 L335.238281,335.480469 C334.58724,335.610677 333.945964,335.675781 333.314453,335.675781 C332.103516,335.675781 331.180664,335.267253 330.545898,334.450195 C329.911133,333.633138 329.59375,332.44987 329.59375,330.900391 C329.59375,329.416016 329.98763,328.234375 330.775391,327.355469 C331.563151,326.476562 332.611328,326.037109 333.919922,326.037109 C335.046224,326.037109 336.130208,326.297526 337.171875,326.818359 L337.171875,326.818359 L338.177734,324.396484 C336.817057,323.810547 335.404297,323.517578 333.939453,323.517578 C331.602214,323.517578 329.774414,324.162109 328.456055,325.451172 C327.137695,326.740234 326.478516,328.537109 326.478516,330.841797 C326.478516,333.211589 327.046549,335.029622 328.182617,336.295898 C329.318685,337.562174 330.964193,338.195312 333.119141,338.195312 Z M349.818359,338 L349.818359,335.5 L344.623047,335.5 L344.623047,331.818359 L349.457031,331.818359 L349.457031,329.337891 L344.623047,329.337891 L344.623047,326.203125 L349.818359,326.203125 L349.818359,323.722656 L341.595703,323.722656 L341.595703,338 L349.818359,338 Z"></path>
        </g>
    </g>
</svg>
