<?xml version="1.0" encoding="UTF-8"?>
<svg width="154px" height="49px" viewBox="0 0 154 49" version="1.1" xmlns="http://www.w3.org/2000/svg" xmlns:xlink="http://www.w3.org/1999/xlink">
    <title>Georgetown Athletics Letterwinners Challenge</title>
    <g stroke="none" stroke-width="1" fill="none" fill-rule="evenodd">
        <g transform="translate(-70.000000, -93.000000)">
            <g transform="translate(70.000000, 93.000000)">
                <polyline fill="#FFFFFE" points="63.960489 21.6091382 63.960489 13.6956996 65.6384474 13.6956996 65.6384474 20.2234759 68.8481316 20.2234759 68.8481316 21.6091382 63.960489 21.6091382"></polyline>
                <polyline fill="#FFFFFE" points="74.6918575 21.6091382 70.1341667 21.6091382 70.1341667 13.6956996 74.6918575 13.6956996 74.6918575 15.0705548 71.8122939 15.0705548 71.8122939 16.8081206 74.4915899 16.8081206 74.4915899 18.182807 71.8122939 18.182807 71.8122939 20.2234759 74.6918575 20.2234759 74.6918575 21.6091382"></polyline>
                <polyline fill="#FFFFFE" points="79.5396491 21.6091382 77.8616908 21.6091382 77.8616908 15.0921689 75.7129518 15.0921689 75.7129518 13.6956996 81.6883882 13.6956996 81.6883882 15.0921689 79.5396491 15.0921689 79.5396491 21.6091382"></polyline>
                <polyline fill="#FFFFFE" points="86.3360811 21.6091382 84.6581228 21.6091382 84.6581228 15.0921689 82.5093838 15.0921689 82.5093838 13.6956996 88.4848202 13.6956996 88.4848202 15.0921689 86.3360811 15.0921689 86.3360811 21.6091382"></polyline>
                <polyline fill="#FFFFFE" points="94.249182 21.6091382 89.6918289 21.6091382 89.6918289 13.6956996 94.249182 13.6956996 94.249182 15.0705548 91.3697873 15.0705548 91.3697873 16.8081206 94.0490833 16.8081206 94.0490833 18.182807 91.3697873 18.182807 91.3697873 20.2234759 94.249182 20.2234759 94.249182 21.6091382"></polyline>
                <path d="M97.5671053,17.2086557 L98.1083004,17.2086557 C98.6388575,17.2086557 99.0302741,17.1201732 99.2828882,16.9433772 C99.5355022,16.7665811 99.6618092,16.4886382 99.6618092,16.109886 C99.6618092,15.734511 99.5326316,15.4675439 99.2747829,15.3088158 C99.0167654,15.1500877 98.6172434,15.0705548 98.0758794,15.0705548 L97.5671053,15.0705548 L97.5671053,17.2086557 Z M97.5671053,18.5727039 L97.5671053,21.6091382 L95.8891469,21.6091382 L95.8891469,13.6956996 L98.1950943,13.6956996 C99.2702237,13.6956996 100.06589,13.8915768 100.581925,14.2829934 C101.097961,14.6745789 101.355978,15.2691338 101.355978,16.066489 C101.355978,16.5320351 101.227982,16.9460789 100.971654,17.3087895 C100.715325,17.6715 100.352783,17.9556908 99.8838596,18.161193 C101.074489,19.9401294 101.850399,21.089557 102.211252,21.6091382 L100.349237,21.6091382 L98.4602039,18.5727039 L97.5671053,18.5727039 L97.5671053,18.5727039 Z" fill="#FFFFFE"></path>
                <path d="M110.859399,21.6091382 L108.948583,21.6091382 L107.877,17.4521513 C107.837149,17.3042303 107.769605,16.9984254 107.673862,16.5347368 C107.578287,16.0710482 107.523239,15.7598399 107.508886,15.6011118 C107.487272,15.795807 107.433068,16.1088728 107.346443,16.5401404 C107.259818,16.9714079 107.193118,17.2790702 107.146175,17.4631272 L106.079827,21.6091382 L104.174583,21.6091382 L102.155697,13.6956996 L103.806469,13.6956996 L104.818614,18.0151294 C104.99541,18.8126535 105.123575,19.5036272 105.203107,20.0880504 C105.224553,19.8825482 105.274197,19.5640789 105.351873,19.1328114 C105.429379,18.7017127 105.502496,18.366864 105.571053,18.1287719 L106.723857,13.6956996 L108.309956,13.6956996 L109.462761,18.1287719 C109.513419,18.3273509 109.576572,18.6304539 109.652221,19.03825 C109.728039,19.4460461 109.785621,19.7959232 109.82564,20.0880504 C109.861439,19.8067303 109.919189,19.4558399 109.998721,19.0353794 C110.078086,18.6150877 110.150189,18.2748355 110.2152,18.0151294 L111.221941,13.6956996 L112.872713,13.6956996 L110.859399,21.6091382" fill="#FFFFFE"></path>
                <polygon fill="#FFFFFE" points="113.957636 21.6089693 115.635594 21.6089693 115.635594 13.6956996 113.957636 13.6956996"></polygon>
                <path d="M124.570127,21.6091382 L122.437599,21.6091382 L118.995057,15.6227259 L118.946257,15.6227259 C119.014814,16.6799561 119.049261,17.4342522 119.049261,17.8852763 L119.049261,21.6091382 L117.549956,21.6091382 L117.549956,13.6956996 L119.666274,13.6956996 L123.103243,19.6228421 L123.141237,19.6228421 C123.087033,18.594318 123.060015,17.8672083 123.060015,17.4415132 L123.060015,13.6956996 L124.570127,13.6956996 L124.570127,21.6091382"  fill="#FFFFFE"></path>
                <path d="M133.50466,21.6091382 L131.372132,21.6091382 L127.92959,15.6227259 L127.880789,15.6227259 C127.949515,16.6799561 127.983794,17.4342522 127.983794,17.8852763 L127.983794,21.6091382 L126.484489,21.6091382 L126.484489,13.6956996 L128.600807,13.6956996 L132.037945,19.6228421 L132.07577,19.6228421 C132.021566,18.594318 131.994548,17.8672083 131.994548,17.4415132 L131.994548,13.6956996 L133.50466,13.6956996 L133.50466,21.6091382" fill="#FFFFFE"></path>
                <polyline fill="#FFFFFE" points="139.976375 21.6091382 135.419022 21.6091382 135.419022 13.6956996 139.976375 13.6956996 139.976375 15.0705548 137.096811 15.0705548 137.096811 16.8081206 139.776276 16.8081206 139.776276 18.182807 137.096811 18.182807 137.096811 20.2234759 139.976375 20.2234759 139.976375 21.6091382"></polyline>
                <path d="M143.294298,17.2086557 L143.835493,17.2086557 C144.365882,17.2086557 144.757467,17.1201732 145.010081,16.9433772 C145.262695,16.7665811 145.389002,16.4886382 145.389002,16.109886 C145.389002,15.734511 145.259825,15.4675439 145.001976,15.3088158 C144.743958,15.1500877 144.344268,15.0705548 143.802904,15.0705548 L143.294298,15.0705548 L143.294298,17.2086557 Z M143.294298,18.5727039 L143.294298,21.6091382 L141.61634,21.6091382 L141.61634,13.6956996 L143.922118,13.6956996 C144.997417,13.6956996 145.793083,13.8915768 146.309118,14.2829934 C146.825154,14.6745789 147.083171,15.2691338 147.083171,16.066489 C147.083171,16.5320351 146.955007,16.9460789 146.698846,17.3087895 C146.442518,17.6715 146.079976,17.9556908 145.610884,18.161193 C146.801682,19.9401294 147.577592,21.089557 147.938445,21.6091382 L146.07643,21.6091382 L144.187397,18.5727039 L143.294298,18.5727039 L143.294298,18.5727039 Z" fill="#FFFFFE"></path>
                <path d="M153.871667,19.4115987 C153.871667,20.1260439 153.614662,20.6890219 153.100316,21.1005329 C152.586138,21.5117061 151.870849,21.7173772 150.954279,21.7173772 C150.109811,21.7173772 149.362776,21.5586491 148.713173,21.241193 L148.713173,19.6822807 C149.247445,19.9203728 149.699314,20.0880504 150.069285,20.1856513 C150.439088,20.2830833 150.777314,20.3318838 151.084132,20.3318838 C151.452077,20.3318838 151.73441,20.2614693 151.931132,20.1206404 C152.127853,19.9799803 152.226129,19.7707632 152.226129,19.4928202 C152.226129,19.3376382 152.182901,19.1996798 152.096276,19.0787763 C152.009651,18.9578728 151.8825,18.8415285 151.714654,18.7297434 C151.546976,18.6177895 151.204866,18.439136 150.689,18.1937829 C150.205386,17.9663289 149.842675,17.7481623 149.601037,17.5387763 C149.35923,17.3297281 149.166055,17.0860636 149.021849,16.8081206 C148.877474,16.5303465 148.805202,16.2054605 148.805202,15.8338004 C148.805202,15.1338772 149.042618,14.5833947 149.517114,14.1828596 C149.99161,13.7823246 150.647461,13.582057 151.484667,13.582057 C151.896009,13.582057 152.288439,13.6308575 152.661956,13.7282895 C153.035305,13.8255526 153.426046,13.9628355 153.833842,14.1396316 L153.292647,15.4440724 C152.870329,15.2708224 152.521127,15.1500877 152.245042,15.0815307 C151.969125,15.0129737 151.69743,14.9785263 151.430463,14.9785263 C151.112838,14.9785263 150.869342,15.0526557 150.699807,15.2005768 C150.530103,15.3484978 150.445336,15.5415044 150.445336,15.7795965 C150.445336,15.9276864 150.479614,16.0566952 150.54834,16.1666228 C150.616728,16.2768882 150.725811,16.3831009 150.875759,16.4859364 C151.025368,16.5889408 151.379805,16.7738421 151.939406,17.0408092 C152.679011,17.3944013 153.186096,17.7490066 153.460325,18.1042873 C153.734553,18.4599057 153.871667,18.8955636 153.871667,19.4115987" fill="#FFFFFE"></path>
                <path d="M67.3218092,28.2811206 C66.6902741,28.2811206 66.2012566,28.5183684 65.8549254,28.992864 C65.5085943,29.4673596 65.3353443,30.128614 65.3353443,30.9766272 C65.3353443,32.7412105 65.997443,33.6235022 67.3218092,33.6235022 C67.8775263,33.6235022 68.550432,33.4845307 69.3406952,33.2065877 L69.3406952,34.6140329 C68.6910921,34.8845461 67.9660088,35.0198026 67.1647697,35.0198026 C66.0136535,35.0198026 65.1332193,34.6707697 64.5234671,33.9725351 C63.9135461,33.2743004 63.6085855,32.2721184 63.6085855,30.9656513 C63.6085855,30.1429671 63.758364,29.4222741 64.0579211,28.8034035 C64.3573092,28.1845329 64.7877325,27.7100373 65.3488531,27.3797478 C65.9099737,27.0496272 66.5675132,26.8844825 67.3218092,26.8844825 C68.0904583,26.8844825 68.8626535,27.0703969 69.6383947,27.442057 L69.0971996,28.8061053 C68.8011886,28.6652763 68.503489,28.5428531 68.2041009,28.4381601 C67.9045439,28.3334671 67.6103904,28.2811206 67.3218092,28.2811206" fill="#FFFFFE"></path>
                <polyline fill="#FFFFFE" points="77.4199539 34.9117325 75.7473991 34.9117325 75.7473991 31.4962083 72.613364 31.4962083 72.613364 34.9117325 70.9355746 34.9117325 70.9355746 26.998125 72.613364 26.998125 72.613364 30.099739 75.7473991 30.099739 75.7473991 26.998125 77.4199539 26.998125 77.4199539 34.9117325"></polyline>
                <path d="M83.3759715,31.6206579 C82.8455833,29.9139934 82.5468706,28.9486228 82.4801711,28.7248838 C82.4133026,28.5013136 82.3655154,28.3243487 82.3368092,28.1943268 C82.2175943,28.6564956 81.8764978,29.7984934 81.3136886,31.6206579 L83.3759715,31.6206579 Z M84.3502917,34.9117325 L83.7765066,33.0279342 L80.8915395,33.0279342 L80.3177544,34.9117325 L78.509943,34.9117325 L81.3028816,26.9657039 L83.3541886,26.9657039 L86.1581031,34.9117325 L84.3502917,34.9117325 L84.3502917,34.9117325 Z" fill="#FFFFFE"></path>
                <polyline fill="#FFFFFE" points="87.2538333 34.9117325 87.2538333 26.998125 88.9317917 26.998125 88.9317917 33.5260702 92.1416447 33.5260702 92.1416447 34.9117325 87.2538333 34.9117325"></polyline>
                <polyline fill="#FFFFFE" points="93.4389934 34.9117325 93.4389934 26.998125 95.1167829 26.998125 95.1167829 33.5260702 98.326636 33.5260702 98.326636 34.9117325 93.4389934 34.9117325"></polyline>
                <polyline fill="#FFFFFE" points="104.181338 34.9117325 99.6239846 34.9117325 99.6239846 26.998125 104.181338 26.998125 104.181338 28.3731491 101.301774 28.3731491 101.301774 30.1105461 103.98107 30.1105461 103.98107 31.4854013 101.301774 31.4854013 101.301774 33.5260702 104.181338 33.5260702 104.181338 34.9117325"></polyline>
                <path d="M112.85245,34.9117325 L110.719921,34.9117325 L107.277548,28.9251513 L107.228748,28.9251513 C107.297305,29.9825504 107.331583,30.7366776 107.331583,31.1877018 L107.331583,34.9117325 L105.832279,34.9117325 L105.832279,26.998125 L107.948596,26.998125 L111.385735,32.9252675 L111.423559,32.9252675 C111.369355,31.8967434 111.342338,31.1696338 111.342338,30.7439386 L111.342338,26.998125 L112.85245,26.998125 L112.85245,34.9117325" fill="#FFFFFE"></path>
                <path d="M117.770825,30.4678531 L120.910263,30.4678531 L120.910263,34.570636 C120.40132,34.736625 119.922434,34.8531382 119.473099,34.9196689 C119.023932,34.9865373 118.564634,35.0198026 118.095542,35.0198026 C116.901197,35.0198026 115.989186,34.6690811 115.359509,33.9671316 C114.729831,33.2653509 114.414908,32.2575965 114.414908,30.9440373 C114.414908,29.6667829 114.78032,28.6708487 115.510976,27.9562346 C116.2418,27.2417895 117.254789,26.8844825 118.55045,26.8844825 C119.362158,26.8844825 120.14516,27.0469254 120.899456,27.3716425 L120.341882,28.7140768 C119.76455,28.4253268 119.163579,28.2811206 118.539474,28.2811206 C117.814053,28.2811206 117.233175,28.5246162 116.796673,29.0117763 C116.360002,29.4989364 116.141667,30.153943 116.141667,30.9766272 C116.141667,31.8354474 116.317618,32.4914671 116.669353,32.944011 C117.021257,33.3970614 117.532732,33.6235022 118.20395,33.6235022 C118.553827,33.6235022 118.909276,33.5873662 119.270129,33.5150943 L119.270129,31.8643224 L117.770825,31.8643224 L117.770825,30.4678531" fill="#FFFFFE"></path>
                <polyline fill="#FFFFFE" points="127.296029 34.9117325 122.738507 34.9117325 122.738507 26.998125 127.296029 26.998125 127.296029 28.3731491 124.416465 28.3731491 124.416465 30.1105461 127.095761 30.1105461 127.095761 31.4854013 124.416465 31.4854013 124.416465 33.5260702 127.296029 33.5260702 127.296029 34.9117325"></polyline>
                <path d="M26.4694254,10.5373487 C19.3236228,10.5373487 13.5310614,16.5737434 13.5310614,24.0199474 C13.5310614,31.4659825 19.3236228,37.5023772 26.4694254,37.5023772 C30.5705197,37.5023772 34.2263311,35.5135482 36.5972895,32.4105833 L36.5972895,27.4197675 L28.5737544,27.4197675 C26.565,27.4197675 25.0023728,28.5011447 25.0023728,28.5011447 L25.0023728,28.4511623 L28.5737544,20.0010877 L39.4442632,19.9982171 C37.6322303,14.5165263 32.2705987,10.5373487 26.4694254,10.5373487 M27.5011579,18.3839189 L23.3848662,28.1237434 L23.3848662,31.5348772 L25.9133706,29.8378377 C25.9251908,29.8295636 27.1225746,29.0369364 28.5737544,29.0369364 L34.979614,29.0369364 L34.979614,31.8396689 C32.8254715,34.4161294 29.7529013,35.8852083 26.4694254,35.8852083 C20.2265154,35.8852083 15.148568,30.5625833 15.148568,24.0199474 C15.148568,17.4773114 20.2265154,12.1545175 26.4694254,12.1545175 C30.7257018,12.1545175 34.8175088,14.6750855 36.9468289,18.3815548 L27.5011579,18.3839189" fill="#FFFFFE"></path>
                <path d="M42.9470877,18.3798662 L48.4676162,11.8990329 L47.8644496,10.9014101 C47.7955548,10.7877675 46.1383662,8.08297368 42.6742105,5.39945614 C39.4945833,2.93613158 34.1020504,0 26.4692566,0 C19.2912018,0 12.673761,2.31506579 7.83593202,6.51815132 C2.78280702,10.9088399 0,17.124057 0,24.0199474 C0,30.9506228 2.7833136,37.1785044 7.83778947,41.5573728 C12.6631228,45.7374934 19.280057,48.0398947 26.4692566,48.0398947 C31.9408158,48.0398947 35.9056404,46.7261667 38.7993882,45.7678882 C40.1919737,45.3058882 41.3942544,44.9073794 42.1083618,44.9073794 C43.9710526,44.9073794 47.2898202,46.4445088 49.3294759,47.364625 L49.330489,24.0199474 C49.330489,22.1761689 50.2528004,21.1538925 50.2916382,21.1115088 C50.3252412,21.0767237 52.9114956,18.3894912 52.9114956,18.3894912 L42.9470877,18.3798662 Z M47.7133202,24.0199474 L47.7133202,44.8611118 C47.7133202,44.8611118 44.2413969,43.2903794 42.1083618,43.2903794 C39.4299101,43.2903794 34.6604693,46.4227259 26.4692566,46.4227259 C12.7443443,46.4227259 1.61750658,37.6558706 1.61750658,24.0199474 C1.61750658,10.4752083 12.7443443,1.617 26.4692566,1.617 C40.3601579,1.617 46.4806447,11.7384474 46.4806447,11.7384474 L39.4440943,19.998386 L49.1211031,19.9960219 C49.1211031,19.9960219 47.7133202,21.4296404 47.7133202,24.0199474 L47.7133202,24.0199474 Z" fill="#FFFFFE"></path>
                <polyline fill="#FFFFFE" points="50.1134912 43.2324605 50.6529978 43.2324605 50.6529978 44.8614496 50.8480307 44.8614496 50.8480307 43.2324605 51.4165811 43.2324605 51.4165811 43.0370899 50.1134912 43.0370899 50.1134912 43.2324605"></polyline>
                <polyline fill="#FFFFFE" points="52.926693 43.0372588 52.4584452 44.5206908 51.9905351 43.0372588 51.6764561 43.0372588 51.6764561 44.8611118 51.8721645 44.8611118 51.8721645 43.3116557 52.3605066 44.8611118 52.5562149 44.8611118 53.0448947 43.3116557 53.0448947 44.8611118 53.2404342 44.8611118 53.2404342 43.0372588 52.926693 43.0372588"></polyline>
                <path d="M28.5735855,20.00075 L25.0023728,28.4515 L25.0023728,28.5014825 C25.0023728,28.5014825 26.5653377,27.4195987 28.5735855,27.4195987 L36.5971206,27.4195987 L36.5971206,32.4104145 C34.2266689,35.5132105 30.5708575,37.5025461 26.4692566,37.5025461 C19.3239605,37.5025461 13.5308925,31.4663202 13.5308925,24.0197785 C13.5308925,16.5735746 19.3239605,10.5371798 26.4692566,10.5371798 C32.2711053,10.5371798 37.6320614,14.5163575 39.4440943,19.9980482 L46.4804759,11.7381096 C46.4804759,11.7381096 40.3601579,1.61733772 26.4692566,1.61733772 C12.7443443,1.61733772 1.61750658,10.4748706 1.61750658,24.0197785 C1.61750658,37.6555329 12.7443443,46.4227259 26.4692566,46.4227259 C34.6603004,46.4227259 39.4297412,43.2905482 42.1083618,43.2905482 C44.2413969,43.2905482 47.7133202,44.8612807 47.7133202,44.8612807 L47.7133202,24.0197785 C47.7133202,21.4299781 49.1211031,19.9958531 49.1211031,19.9958531 L39.4440943,19.9980482 L28.5735855,20.00075" fill="#BEB5AC"></path>
            </g>
        </g>
    </g>
</svg>
