<?xml version="1.0" encoding="UTF-8"?>
<svg width="211px" height="28px" viewBox="0 0 211 28" version="1.1" xmlns="http://www.w3.org/2000/svg" xmlns:xlink="http://www.w3.org/1999/xlink">
    <title>Group 4</title>
    <g id="Power-of-Many" stroke="none" stroke-width="1" fill="none" fill-rule="evenodd">
        <g id="mobile/nav/no-links" transform="translate(-25.000000, -19.000000)" fill="#FFFFFF">
            <g id="Group-4" transform="translate(25.000000, 19.000000)">
                <rect id="Rectangle" x="40" y="2" width="2" height="22"></rect>
                <g id="logo/abbreviated-" transform="translate(0.000000, 5.000000)">
                    <path d="M17.5711604,2.47405132 C17.8738045,1.49756332 17.5711604,1.12829223 16.9878827,1.12829223 L16.2097475,1.12829223 C16.1016372,1.12829223 16.0365768,1.0850589 16.0585873,0.955033871 L16.1663739,0.434283612 C16.1883844,0.303933516 16.2311106,0.260050067 16.4473312,0.260050067 C16.7066017,0.260050067 17.4633738,0.325387646 19.4083882,0.325387646 C21.1591924,0.325387646 21.893954,0.260050067 22.1101746,0.260050067 C22.2830216,0.260050067 22.3260715,0.325387646 22.3043847,0.477191873 L22.2182849,0.955033871 C22.1965981,1.06327971 22.1318614,1.12829223 22.0017406,1.12829223 L21.3967761,1.12829223 C21.0073848,1.12829223 20.4244308,1.21508394 20.0997762,2.3004679 L18.3279325,8.09568364 C18.1981354,8.57352564 17.7009575,10.1793348 17.7009575,11.1561479 C17.7009575,13.7829786 19.9919896,14.0644828 20.6189646,14.0644828 C21.6563703,14.0644828 22.7585127,13.6744077 23.4499007,13.0879948 C24.4659433,12.2418569 25.1793418,11.0696812 25.849043,8.65999229 L27.4270002,3.10369755 C27.837431,1.67082168 27.5998473,1.12829223 26.9081356,1.12829223 L26.2167475,1.12829223 C26.0222137,1.12829223 26.0005269,1.06327971 26.0222137,0.955033871 L26.1083135,0.477191873 C26.1300003,0.325387646 26.1730503,0.260050067 26.3679077,0.260050067 C26.6275019,0.260050067 27.448687,0.325387646 28.8317868,0.325387646 C30.0850894,0.325387646 30.5822673,0.260050067 30.7984879,0.260050067 C30.9933454,0.260050067 31.0147085,0.325387646 30.9933454,0.477191873 L30.9286087,0.955033871 C30.9069219,1.06327971 30.8632246,1.12829223 30.6907013,1.12829223 L30.3663704,1.12829223 C29.6749824,1.12829223 29.2205307,1.77971765 28.8965235,2.84332242 L27.037609,8.81212158 C25.8707298,12.6761405 24.1416124,15.1937502 20.1434735,15.1937502 C17.3552635,15.1937502 15.2587653,13.9130036 15.2587653,11.2211604 C15.2587653,10.3096849 15.5827725,8.96392581 15.7125696,8.50818806 L17.5711604,2.47405132 Z M10.7200748,16.6913135 C10.5689146,17.4295307 10.1367971,18.6663938 9.85551613,19.2963651 C9.29360152,20.4464365 7.73765479,21.9004414 6.09463719,21.9004414 C4.08488615,21.9004414 3.30707463,20.9021743 3.30707463,19.8596985 C3.30707463,19.1006774 3.71750534,18.5145896 4.47427744,18.5145896 C5.27409944,18.5145896 5.40324917,19.1871441 5.40324917,19.42574 C5.40324917,19.6864402 5.31714935,20.0553862 5.20903905,20.1636321 C5.12229187,20.2510739 5.07924196,20.3593197 5.07924196,20.5329032 C5.07924196,20.9668617 5.57641986,21.2064328 6.02990048,21.2064328 C7.15405338,21.2064328 7.7590179,20.2939822 8.14840919,18.797069 C8.4076797,17.7763724 8.79642362,16.0619924 9.59592194,13.0662156 L9.46677221,13.0229823 C9.16412811,13.4351616 7.93218859,15.1937502 5.01450525,15.1937502 C2.03176152,15.1937502 0,13.0879948 0,9.3331969 C0,6.53310781 1.27563679,4.16730232 2.87495712,2.53906384 C4.08488615,1.3239799 5.96548746,0 8.96959431,0 C11.2175764,0 12.3624451,0.737892065 12.7948863,1.0850589 C13.0761673,1.30220071 13.2707011,1.34543403 13.3788114,1.34543403 C13.6380819,1.34543403 13.767879,1.12829223 13.8973524,0.651100355 C13.9190392,0.542529452 13.9837759,0.520750259 14.0918862,0.542529452 L14.4162171,0.629321162 C14.5026406,0.651100355 14.5673773,0.694333679 14.5456905,0.802904581 L13.3140746,5.16556952 C13.2707011,5.29591961 13.2270038,5.31737374 13.0761673,5.29591961 L12.7304732,5.25236123 C12.6220393,5.23058203 12.5573026,5.16556952 12.579313,5.03554448 C12.9463702,3.16871006 11.8872776,0.889696291 9.0777046,0.889696291 C7.6942812,0.889696291 6.13833447,1.36721323 4.62511396,3.36439774 C3.37148765,4.94842771 2.65841283,7.292454 2.65841283,9.91863461 C2.65841283,13.4790451 4.84165824,14.0436788 5.79231677,14.0436788 C8.3859929,14.0436788 9.6399429,11.8075733 9.72571903,10.5271518 C9.79077942,9.70214293 9.55319571,9.52855951 8.96959431,9.52855951 L8.2131459,9.52855951 C8.04062257,9.52855951 8.01861209,9.463547 8.061662,9.31109264 L8.14840919,8.83357571 C8.1697723,8.70387574 8.2131459,8.65999229 8.3859929,8.65999229 C8.7103238,8.65999229 9.46677221,8.72532987 11.3687366,8.72532987 C12.8382599,8.72532987 13.3568009,8.65999229 13.659445,8.65999229 C13.8112526,8.65999229 13.8759893,8.72532987 13.8543025,8.83357571 L13.7892421,9.35530116 C13.767879,9.48467606 13.7241817,9.52855951 13.5947083,9.52855951 L13.140904,9.52855951 C12.7304732,9.52855951 12.4275055,9.70214293 12.1468718,10.8522144 L10.7200748,16.6913135 Z" id="logo-abbreviated-"></path>
                </g>
                <g id="Power-of-Many-Copy" transform="translate(53.000000, 0.000000)" fill-rule="nonzero">
                    <path d="M8.54654693e-14,5.2559727 L6.38865419,5.2559727 C8.96318648,5.2559727 10.6795413,6.78498294 10.6795413,9.36518771 C10.6795413,11.9453925 8.96318648,13.4744027 6.38865419,13.4744027 L1.33494267,13.4744027 L1.33494267,19.6860068 L8.54654693e-14,19.6860068 L8.54654693e-14,5.2559727 L8.54654693e-14,5.2559727 Z M1.33494267,12.3276451 L6.10259505,12.3276451 C8.009656,12.3276451 9.34459867,11.3720137 9.34459867,9.36518771 C9.34459867,7.35836177 8.009656,6.40273038 6.10259505,6.40273038 L1.33494267,6.40273038 L1.33494267,12.3276451 Z" id="Shape"></path>
                    <path d="M18.7845504,4.87372014 C23.2661436,4.87372014 25.5546168,8.50511945 25.5546168,12.4232082 C25.5546168,16.3412969 23.2661436,19.9726962 18.7845504,19.9726962 C14.2076041,19.9726962 12.014484,16.3412969 12.014484,12.4232082 C11.919131,8.50511945 14.2076041,4.87372014 18.7845504,4.87372014 Z M18.7845504,18.8259386 C22.5986723,18.8259386 24.2196741,15.6723549 24.2196741,12.4232082 C24.2196741,9.26962457 22.5986723,6.02047782 18.7845504,6.02047782 C14.9704285,6.02047782 13.3494267,9.17406143 13.3494267,12.4232082 C13.3494267,15.5767918 14.9704285,18.8259386 18.7845504,18.8259386 Z" id="Shape"></path>
                    <polygon id="Path" points="25.4592637 5.2559727 26.8895594 5.2559727 30.1315631 17.9658703 30.1315631 17.9658703 33.6596258 5.2559727 35.3759807 5.2559727 38.9040435 17.9658703 38.9040435 17.9658703 42.2414001 5.2559727 43.5763428 5.2559727 39.5715148 19.6860068 38.1412191 19.6860068 34.5178033 6.78498294 34.5178033 6.78498294 30.8943874 19.6860068 29.3687387 19.6860068"></polygon>
                    <polygon id="Path" points="45.1973446 5.2559727 55.2094146 5.2559727 55.2094146 6.40273038 46.6276403 6.40273038 46.6276403 11.6587031 54.6372963 11.6587031 54.6372963 12.8054608 46.6276403 12.8054608 46.6276403 18.5392491 55.3047677 18.5392491 55.3047677 19.6860068 45.1973446 19.6860068"></polygon>
                    <path d="M57.2118286,5.2559727 L63.7911889,5.2559727 C66.1750151,5.2559727 68.1774291,6.40273038 68.1774291,8.98293515 C68.1774291,10.7986348 67.2238986,12.3276451 65.4121907,12.7098976 L65.4121907,12.7098976 C67.3192517,12.996587 67.7960169,14.2389078 67.986723,15.9590444 C68.082076,16.9146758 68.082076,18.9215017 68.6541943,19.6860068 L67.1285456,19.6860068 C66.7471334,19.112628 66.7471334,18.0614334 66.7471334,17.3924915 C66.6517803,15.3856655 66.4610742,13.0921502 63.8865419,13.1877133 L58.6421243,13.1877133 L58.6421243,19.5904437 L57.3071817,19.5904437 L57.3071817,5.2559727 L57.2118286,5.2559727 Z M58.5467713,12.0409556 L63.6958358,12.0409556 C65.4121907,12.0409556 66.8424864,10.9897611 66.8424864,9.26962457 C66.8424864,7.54948805 65.7936029,6.40273038 63.6958358,6.40273038 L58.5467713,6.40273038 L58.5467713,12.0409556 Z" id="Shape"></path>
                    <path d="M73.4218467,15.4812287 C73.4218467,13.1877133 74.089318,10.7986348 75.7103199,9.07849829 C76.8545564,7.83617747 78.1894991,7.45392491 79.8105009,7.45392491 C81.3361497,7.45392491 83.8153289,8.12286689 83.8153289,11.6587031 C83.8153289,13.3788396 83.2432106,16.3412969 81.4315027,18.2525597 C80.2872661,19.3993174 79.0476765,19.8771331 77.2359686,19.8771331 C75.5196138,19.8771331 73.4218467,18.7303754 73.4218467,15.4812287 Z M79.7151479,15.3856655 C80.5733253,13.7610922 81.4315027,11.2764505 81.4315027,10.225256 C81.4315027,9.55631399 81.1454436,8.98293515 80.3826192,8.98293515 C79.3337357,8.98293515 78.4755582,9.93856655 77.2359686,12.3276451 C76.2824381,14.0477816 75.8056729,15.7679181 75.8056729,16.9146758 C75.8056729,17.4880546 76.1870851,18.1569966 76.7592034,18.1569966 C77.6173808,18.1569966 78.5709113,17.5836177 79.7151479,15.3856655 Z" id="Shape"></path>
                    <path d="M87.0573325,8.21843003 C87.91551,6.02047782 87.91551,4.49146758 90.1086301,2.00682594 C90.7761014,1.24232082 92.7785154,-1.390063e-14 94.5902233,-1.390063e-14 C97.0694025,-1.390063e-14 97.92758,1.05119454 97.92758,2.10238908 C97.92758,2.77133106 97.2601086,3.53583618 96.4972842,3.53583618 C95.3530477,3.53583618 94.8762824,2.96245734 94.6855763,2.00682594 C94.5902233,1.72013652 94.3995172,1.14675768 93.7320459,1.14675768 C91.8249849,1.14675768 91.0621605,5.2559727 90.3946892,8.21843003 L93.3506337,8.21843003 C93.5413398,8.21843003 93.5413398,8.31399317 93.5413398,8.50511945 L93.4459867,9.17406143 C93.4459867,9.36518771 93.3506337,9.46075085 93.1599276,9.46075085 L90.2039831,9.46075085 C89.5365118,11.7542662 88.4876282,16.6279863 87.4387447,19.6860068 C86.008449,23.7952218 83.4339167,28 79.905854,28 C78.1894991,28 77.2359686,27.2354949 77.2359686,26.1843003 C77.2359686,25.4197952 77.7127339,24.6552901 78.6662643,24.6552901 C79.6197948,24.6552901 80.09656,25.3242321 80.09656,26.2798635 C80.09656,26.5665529 80.2872661,26.7576792 80.7640314,26.7576792 C82.1943271,26.7576792 83.2432106,24.3686007 84.4828002,19.2081911 L86.7712734,9.55631399 L84.3874472,9.55631399 C84.2920941,9.55631399 84.1967411,9.46075085 84.1967411,9.26962457 L84.3874472,8.50511945 C84.3874472,8.40955631 84.4828002,8.31399317 84.6735063,8.31399317 L87.0573325,8.31399317 L87.0573325,8.21843003 Z" id="Path"></path>
                    <path d="M97.4508147,19.5904437 C97.2601086,19.5904437 97.0694025,19.4948805 97.1647556,19.2081911 L98.9764635,13.8566553 C99.5485818,12.1365188 100.311406,10.225256 100.311406,9.74744027 C100.311406,9.55631399 100.216053,9.36518771 99.929994,9.36518771 C99.5485818,9.36518771 98.2136391,10.7986348 98.022933,11.0853242 C97.92758,11.1808874 97.8322269,11.1808874 97.7368739,11.0853242 L97.4508147,10.7986348 C97.3554617,10.7030717 97.3554617,10.6075085 97.3554617,10.5119454 C97.7368739,9.84300341 99.8346409,7.35836177 102.123114,7.35836177 C103.362704,7.35836177 103.744116,7.74061433 103.744116,8.50511945 C103.744116,9.36518771 102.218467,12.6143345 102.027761,13.1877133 L102.31382,13.3788396 C103.458057,11.3720137 105.651177,7.45392491 108.321062,7.45392491 C109.274593,7.45392491 110.13277,8.12286689 110.13277,8.88737201 C110.13277,9.74744027 108.988533,12.5187713 108.702474,13.3788396 L108.988533,13.5699659 C110.514182,11.2764505 112.516596,7.45392491 115.281835,7.45392491 C116.426071,7.45392491 116.998189,8.50511945 116.998189,9.07849829 C116.998189,10.0341297 116.235365,12.2320819 115.567894,14.2389078 C114.995775,15.8634812 114.51901,17.105802 114.51901,17.4880546 C114.51901,17.6791809 114.614363,17.8703072 114.900422,17.8703072 C115.567894,17.8703072 116.807483,16.0546075 116.902836,15.8634812 C116.998189,15.7679181 117.093543,15.7679181 117.093543,15.7679181 L117.474955,16.0546075 C117.570308,16.1501706 117.570308,16.2457338 117.474955,16.4368601 C117.379602,16.6279863 115.472541,19.9726962 112.32589,19.9726962 C111.37236,19.9726962 111.086301,19.3993174 110.990947,18.9215017 C110.990947,18.3481229 111.467713,16.8191126 112.516596,14.0477816 C113.374774,11.7542662 113.660833,10.894198 113.660833,10.4163823 C113.660833,10.1296928 113.470127,9.84300341 113.184068,9.84300341 C112.707302,9.84300341 110.800241,12.2320819 108.988533,15.003413 C108.797827,15.2901024 108.321062,16.0546075 108.035003,17.0102389 L107.176826,19.4948805 C107.081473,19.5904437 106.986119,19.6860068 106.795413,19.6860068 L104.411587,19.6860068 C104.125528,19.6860068 104.030175,19.5904437 104.125528,19.3037543 L105.841883,14.6211604 C106.509354,12.6143345 107.176826,10.894198 107.176826,10.5119454 C107.176826,10.225256 107.081473,9.93856655 106.70006,9.93856655 C106.223295,9.93856655 104.220881,12.2320819 102.599879,14.7167235 C102.218467,15.2901024 101.837055,16.0546075 101.455643,17.105802 L100.502112,19.5904437 C100.406759,19.78157 100.311406,19.78157 100.1207,19.78157 L97.4508147,19.78157 L97.4508147,19.5904437 Z" id="Path"></path>
                    <path d="M131.110441,7.26279863 C131.301147,7.26279863 131.3965,7.35836177 131.301147,7.64505119 C130.919734,8.88737201 129.489439,12.6143345 129.298733,13.5699659 C129.20338,14.0477816 128.154496,17.2013652 128.154496,17.6791809 C128.154496,17.8703072 128.249849,18.0614334 128.535908,18.0614334 C129.012674,18.0614334 129.870851,16.7235495 130.15691,16.4368601 C130.252263,16.2457338 130.347616,16.2457338 130.442969,16.3412969 L130.824381,16.5324232 C130.919734,16.6279863 130.919734,16.7235495 130.824381,16.9146758 C130.538322,17.4880546 129.012674,19.8771331 126.342788,19.8771331 C125.484611,19.8771331 125.198552,19.3993174 125.198552,18.9215017 C125.198552,18.5392491 125.293905,18.0614334 126.342788,15.1945392 L126.056729,15.0989761 C124.912492,16.8191126 123.100785,19.8771331 120.430899,19.8771331 C119.668075,19.8771331 118.428485,18.8259386 118.428485,17.6791809 C118.428485,14.1433447 121.956548,7.45392491 125.961376,7.45392491 C127.200966,7.45392491 127.773084,8.02730375 128.154496,8.40955631 L128.631261,7.54948805 C128.726614,7.35836177 128.91732,7.26279863 129.108027,7.26279863 L131.110441,7.26279863 Z M122.433313,17.4880546 C123.196138,17.4880546 125.866023,13.7610922 126.342788,12.6143345 C126.7242,11.8498294 127.01026,10.894198 127.01026,9.84300341 C127.01026,9.17406143 126.342788,8.60068259 125.77067,8.60068259 C125.103199,8.60068259 124.340374,9.17406143 123.672903,10.5119454 C122.242607,12.996587 121.765842,15.1945392 121.765842,16.6279863 C121.765842,17.2969283 121.956548,17.4880546 122.433313,17.4880546 Z" id="Shape"></path>
                    <path d="M131.968618,19.5904437 C131.777912,19.5904437 131.682559,19.4948805 131.682559,19.3037543 L133.684973,13.8566553 C134.352444,12.0409556 134.924562,10.225256 134.924562,9.84300341 C134.924562,9.55631399 134.829209,9.36518771 134.54315,9.36518771 C134.161738,9.36518771 133.017502,10.5119454 132.636089,10.894198 C132.540736,10.9897611 132.445383,10.9897611 132.35003,10.894198 L132.063971,10.6075085 C131.968618,10.5119454 131.968618,10.4163823 132.063971,10.3208191 C132.445383,9.74744027 134.257091,7.45392491 137.213036,7.45392491 C138.071213,7.45392491 138.357272,8.12286689 138.357272,8.60068259 C138.357272,8.98293515 137.785154,10.5119454 137.02233,12.3276451 L137.308389,12.5187713 C138.166566,11.2764505 140.550392,7.54948805 143.315631,7.54948805 C144.55522,7.54948805 145.127339,8.69624573 145.127339,9.46075085 C145.127339,10.1296928 144.745926,11.2764505 143.506337,14.8122867 C142.838865,16.7235495 142.552806,17.3924915 142.552806,17.6791809 C142.552806,18.0614334 142.648159,18.1569966 142.934218,18.1569966 C143.315631,18.1569966 144.173808,17.2969283 144.459867,16.9146758 C144.55522,16.8191126 144.650573,16.8191126 144.745926,16.9146758 L145.031986,17.105802 C145.127339,17.2013652 145.127339,17.2969283 145.031986,17.4880546 C144.650573,17.9658703 142.934218,19.9726962 140.264333,19.9726962 C139.406156,19.9726962 139.120097,19.4948805 139.120097,18.9215017 C139.120097,18.443686 139.692215,16.7235495 140.550392,14.2389078 C141.027158,12.9010239 141.694629,10.9897611 141.694629,10.5119454 C141.694629,10.0341297 141.503923,9.84300341 141.122511,9.84300341 C140.455039,9.84300341 138.357272,12.1365188 137.213036,13.9522184 C136.545564,14.9078498 135.973446,15.8634812 135.78274,16.3412969 L134.638503,19.4948805 C134.54315,19.5904437 134.54315,19.6860068 134.257091,19.6860068 L131.968618,19.6860068 L131.968618,19.5904437 L131.968618,19.5904437 Z" id="Path"></path>
                    <path d="M146.366928,11.6587031 C146.271575,11.6587031 146.271575,11.4675768 146.271575,11.2764505 C146.366928,10.894198 147.320459,7.45392491 150.371756,7.45392491 C151.515993,7.45392491 152.088111,8.21843003 152.278817,10.7986348 C152.469523,14.0477816 152.469523,17.3924915 152.37417,18.443686 L152.755582,18.443686 C153.136995,17.8703072 154.662643,14.4300341 155.044056,13.0921502 C155.139409,12.7098976 155.234762,12.0409556 155.234762,11.1808874 C155.234762,10.4163823 154.757996,9.46075085 154.757996,8.69624573 C154.757996,8.02730375 155.234762,7.35836177 156.283645,7.35836177 C157.618588,7.35836177 158,8.21843003 158,9.55631399 C158,10.6075085 156.951116,13.1877133 155.902233,15.1945392 C154.376584,18.0614334 151.229934,22.9351536 148.846107,25.4197952 C148.083283,26.1843003 146.462281,28 144.55522,28 C143.220278,28 142.648159,27.331058 142.648159,26.4709898 C142.648159,25.4197952 143.410984,24.7508532 144.078455,24.7508532 C144.55522,24.7508532 144.841279,24.9419795 145.031986,25.2286689 C145.318045,25.5153584 145.699457,25.7064846 145.985516,25.7064846 C146.271575,25.7064846 146.652987,25.6109215 147.129753,25.3242321 C148.369342,24.559727 149.418226,23.0307167 149.799638,22.552901 C150.18105,21.9795222 150.276403,21.3105802 150.18105,20.2593857 C150.085697,19.2081911 149.322873,11.6587031 149.036814,10.3208191 C148.94146,9.93856655 148.846107,9.65187713 148.560048,9.65187713 C147.98793,9.65187713 147.415812,10.894198 147.225106,11.5631399 C147.129753,11.6587031 147.129753,11.7542662 146.939046,11.6587031 L146.366928,11.6587031 Z" id="Path"></path>
                </g>
            </g>
        </g>
    </g>
</svg>