<?xml version="1.0" encoding="UTF-8"?>
<svg width="180px" height="32px" viewBox="0 0 180 32" version="1.1" xmlns="http://www.w3.org/2000/svg" xmlns:xlink="http://www.w3.org/1999/xlink">
    <title>Power of Many</title>
    <g id="Power-of-Many" stroke="none" stroke-width="1" fill="none" fill-rule="evenodd">
        <g id="desktop/Footer" transform="translate(-48.000000, -39.000000)" fill="#FFFFFF" fill-rule="nonzero">
            <g id="Power-of-Many" transform="translate(48.000000, 39.000000)">
                <path d="M9.73657245e-14,6.00682594 L7.27821364,6.00682594 C10.2112251,6.00682594 12.1665661,7.75426621 12.1665661,10.7030717 C12.1665661,13.6518771 10.2112251,15.3993174 7.27821364,15.3993174 L1.52082076,15.3993174 L1.52082076,22.4982935 L9.73657245e-14,22.4982935 L9.73657245e-14,6.00682594 L9.73657245e-14,6.00682594 Z M1.52082076,14.0887372 L6.95232348,14.0887372 C9.12492456,14.0887372 10.6457453,12.996587 10.6457453,10.7030717 C10.6457453,8.40955631 9.12492456,7.31740614 6.95232348,7.31740614 L1.52082076,7.31740614 L1.52082076,14.0887372 Z" id="Shape"></path>
                <path d="M21.4001207,5.56996587 C26.5057333,5.56996587 29.1128546,9.72013652 29.1128546,14.1979522 C29.1128546,18.6757679 26.5057333,22.8259386 21.4001207,22.8259386 C16.1858781,22.8259386 13.6873868,18.6757679 13.6873868,14.1979522 C13.5787568,9.72013652 16.1858781,5.56996587 21.4001207,5.56996587 Z M21.4001207,21.5153584 C25.7453229,21.5153584 27.5920338,17.9112628 27.5920338,14.1979522 C27.5920338,10.5938567 25.7453229,6.88054608 21.4001207,6.88054608 C17.0549185,6.88054608 15.2082076,10.4846416 15.2082076,14.1979522 C15.2082076,17.8020478 17.0549185,21.5153584 21.4001207,21.5153584 Z" id="Shape"></path>
                <polygon id="Path" points="29.0042245 6.00682594 30.6336753 6.00682594 34.3270972 20.5324232 34.3270972 20.5324232 38.3464092 6.00682594 40.3017502 6.00682594 44.3210622 20.5324232 44.3210622 20.5324232 48.1231141 6.00682594 49.6439348 6.00682594 45.0814725 22.4982935 43.4520217 22.4982935 39.3240797 7.75426621 39.3240797 7.75426621 35.1961376 22.4982935 33.4580567 22.4982935"></polygon>
                <polygon id="Path" points="51.4906457 6.00682594 62.8968014 6.00682594 62.8968014 7.31740614 53.1200966 7.31740614 53.1200966 13.3242321 62.2450211 13.3242321 62.2450211 14.6348123 53.1200966 14.6348123 53.1200966 21.1877133 63.0054315 21.1877133 63.0054315 22.4982935 51.4906457 22.4982935"></polygon>
                <path d="M65.1780326,6.00682594 L72.6735063,6.00682594 C75.3892577,6.00682594 77.6704888,7.31740614 77.6704888,10.2662116 C77.6704888,12.3412969 76.5841883,14.0887372 74.5202173,14.5255973 L74.5202173,14.5255973 C76.6928183,14.8532423 77.2359686,16.2730375 77.4532287,18.2389078 C77.5618588,19.331058 77.5618588,21.6245734 78.2136391,22.4982935 L76.4755582,22.4982935 C76.041038,21.8430034 76.041038,20.6416382 76.041038,19.8771331 C75.932408,17.5836177 75.7151479,14.9624573 72.7821364,15.0716724 L66.8074834,15.0716724 L66.8074834,22.3890785 L65.2866626,22.3890785 L65.2866626,6.00682594 L65.1780326,6.00682594 Z M66.6988533,13.7610922 L72.5648763,13.7610922 C74.5202173,13.7610922 76.1496681,12.559727 76.1496681,10.5938567 C76.1496681,8.62798635 74.9547375,7.31740614 72.5648763,7.31740614 L66.6988533,7.31740614 L66.6988533,13.7610922 Z" id="Shape"></path>
                <path d="M83.6451418,17.6928328 C83.6451418,15.0716724 84.4055522,12.3412969 86.2522631,10.3754266 C87.5558238,8.9556314 89.0766445,8.51877133 90.9233555,8.51877133 C92.6614363,8.51877133 95.4858177,9.28327645 95.4858177,13.3242321 C95.4858177,15.2901024 94.8340374,18.6757679 92.7700664,20.8600683 C91.4665057,22.1706485 90.054315,22.7167235 87.990344,22.7167235 C86.035003,22.7167235 83.6451418,21.4061433 83.6451418,17.6928328 Z M90.8147254,17.5836177 C91.7923959,15.7269625 92.7700664,12.887372 92.7700664,11.6860068 C92.7700664,10.9215017 92.4441762,10.2662116 91.5751358,10.2662116 C90.3802052,10.2662116 89.4025347,11.3583618 87.990344,14.0887372 C86.9040435,16.0546075 86.3608932,18.0204778 86.3608932,19.331058 C86.3608932,19.9863481 86.7954134,20.7508532 87.4471937,20.7508532 C88.4248642,20.7508532 89.5111648,20.0955631 90.8147254,17.5836177 Z" id="Shape"></path>
                <path d="M99.1792396,9.39249147 C100.15691,6.88054608 100.15691,5.1331058 102.655401,2.29351536 C103.415812,1.41979522 105.697043,-1.58864343e-14 107.761014,-1.58864343e-14 C110.585395,-1.58864343e-14 111.563066,1.20136519 111.563066,2.40273038 C111.563066,3.16723549 110.802655,4.04095563 109.933615,4.04095563 C108.630054,4.04095563 108.086904,3.38566553 107.869644,2.29351536 C107.761014,1.96587031 107.543754,1.3105802 106.783343,1.3105802 C104.610742,1.3105802 103.741702,6.00682594 102.981291,9.39249147 L106.348823,9.39249147 C106.566083,9.39249147 106.566083,9.50170648 106.566083,9.72013652 L106.457453,10.4846416 C106.457453,10.7030717 106.348823,10.8122867 106.131563,10.8122867 L102.764031,10.8122867 C102.003621,13.4334471 100.80869,19.003413 99.6137598,22.4982935 C97.984309,27.1945392 95.0512975,32 91.0319855,32 C89.0766445,32 87.990344,31.1262799 87.990344,29.9249147 C87.990344,29.0511945 88.5334943,28.1774744 89.6197948,28.1774744 C90.7060954,28.1774744 91.2492456,28.9419795 91.2492456,30.0341297 C91.2492456,30.3617747 91.4665057,30.5802048 92.009656,30.5802048 C93.6391068,30.5802048 94.8340374,27.8498294 96.2462281,21.9522184 L98.8533494,10.9215017 L96.1375981,10.9215017 C96.028968,10.9215017 95.920338,10.8122867 95.920338,10.5938567 L96.1375981,9.72013652 C96.1375981,9.6109215 96.2462281,9.50170648 96.4634882,9.50170648 L99.1792396,9.50170648 L99.1792396,9.39249147 Z" id="Path"></path>
                <path d="M111.019916,22.3890785 C110.802655,22.3890785 110.585395,22.2798635 110.694025,21.9522184 L112.757996,15.8361775 C113.409777,13.8703072 114.278817,11.6860068 114.278817,11.1399317 C114.278817,10.9215017 114.170187,10.7030717 113.844297,10.7030717 C113.409777,10.7030717 111.888956,12.3412969 111.671696,12.668942 C111.563066,12.778157 111.454436,12.778157 111.345806,12.668942 L111.019916,12.3412969 C110.911285,12.2320819 110.911285,12.1228669 110.911285,12.0136519 C111.345806,11.2491468 113.735667,8.40955631 116.342788,8.40955631 C117.754979,8.40955631 118.189499,8.84641638 118.189499,9.72013652 C118.189499,10.7030717 116.451418,14.4163823 116.234158,15.0716724 L116.560048,15.2901024 C117.863609,12.996587 120.3621,8.51877133 123.403742,8.51877133 C124.490042,8.51877133 125.467713,9.28327645 125.467713,10.1569966 C125.467713,11.1399317 124.164152,14.3071672 123.838262,15.2901024 L124.164152,15.5085324 C125.902233,12.887372 128.183464,8.51877133 131.333736,8.51877133 C132.637296,8.51877133 133.289077,9.72013652 133.289077,10.3754266 C133.289077,11.4675768 132.420036,13.9795222 131.659626,16.2730375 C131.007846,18.1296928 130.464695,19.5494881 130.464695,19.9863481 C130.464695,20.2047782 130.573325,20.4232082 130.899215,20.4232082 C131.659626,20.4232082 133.071817,18.3481229 133.180447,18.1296928 C133.289077,18.0204778 133.397707,18.0204778 133.397707,18.0204778 L133.832227,18.3481229 C133.940857,18.4573379 133.940857,18.5665529 133.832227,18.7849829 C133.723597,19.003413 131.550996,22.8259386 127.966204,22.8259386 C126.879903,22.8259386 126.554013,22.1706485 126.445383,21.6245734 C126.445383,20.9692833 126.988533,19.221843 128.183464,16.0546075 C129.161135,13.4334471 129.487025,12.4505119 129.487025,11.9044369 C129.487025,11.5767918 129.269765,11.2491468 128.943874,11.2491468 C128.400724,11.2491468 126.228123,13.9795222 124.164152,17.1467577 C123.946892,17.4744027 123.403742,18.3481229 123.077852,19.440273 L122.100181,22.2798635 C121.991551,22.3890785 121.882921,22.4982935 121.665661,22.4982935 L118.949909,22.4982935 C118.624019,22.4982935 118.515389,22.3890785 118.624019,22.0614334 L120.57936,16.7098976 C121.339771,14.4163823 122.100181,12.4505119 122.100181,12.0136519 C122.100181,11.6860068 121.991551,11.3583618 121.557031,11.3583618 C121.013881,11.3583618 118.732649,13.9795222 116.885938,16.8191126 C116.451418,17.4744027 116.016898,18.3481229 115.582378,19.5494881 L114.496077,22.3890785 C114.387447,22.6075085 114.278817,22.6075085 114.061557,22.6075085 L111.019916,22.6075085 L111.019916,22.3890785 Z" id="Path"></path>
                <path d="M149.366325,8.3003413 C149.583585,8.3003413 149.692215,8.40955631 149.583585,8.73720137 C149.149065,10.1569966 147.519614,14.4163823 147.302354,15.5085324 C147.193724,16.0546075 145.998793,19.6587031 145.998793,20.2047782 C145.998793,20.4232082 146.107423,20.6416382 146.433313,20.6416382 C146.976463,20.6416382 147.954134,19.112628 148.280024,18.7849829 C148.388654,18.5665529 148.497284,18.5665529 148.605914,18.6757679 L149.040435,18.894198 C149.149065,19.003413 149.149065,19.112628 149.040435,19.331058 C148.714544,19.9863481 146.976463,22.7167235 143.934822,22.7167235 C142.957151,22.7167235 142.631261,22.1706485 142.631261,21.6245734 C142.631261,21.1877133 142.739891,20.6416382 143.934822,17.3651877 L143.608932,17.2559727 C142.305371,19.221843 140.2414,22.7167235 137.199759,22.7167235 C136.330718,22.7167235 134.918527,21.5153584 134.918527,20.2047782 C134.918527,16.1638225 138.937839,8.51877133 143.500302,8.51877133 C144.912492,8.51877133 145.564273,9.17406143 145.998793,9.6109215 L146.541943,8.62798635 C146.650573,8.40955631 146.867833,8.3003413 147.085094,8.3003413 L149.366325,8.3003413 Z M139.48099,19.9863481 C140.35003,19.9863481 143.391672,15.7269625 143.934822,14.4163823 C144.369342,13.5426621 144.695232,12.4505119 144.695232,11.2491468 C144.695232,10.4846416 143.934822,9.82935154 143.283042,9.82935154 C142.522631,9.82935154 141.653591,10.4846416 140.89318,12.0136519 C139.26373,14.8532423 138.720579,17.3651877 138.720579,19.003413 C138.720579,19.7679181 138.937839,19.9863481 139.48099,19.9863481 Z" id="Shape"></path>
                <path d="M150.343995,22.3890785 C150.126735,22.3890785 150.018105,22.2798635 150.018105,22.0614334 L152.299336,15.8361775 C153.059747,13.7610922 153.711527,11.6860068 153.711527,11.2491468 C153.711527,10.9215017 153.602897,10.7030717 153.277007,10.7030717 C152.842486,10.7030717 151.538926,12.0136519 151.104406,12.4505119 C150.995775,12.559727 150.887145,12.559727 150.778515,12.4505119 L150.452625,12.1228669 C150.343995,12.0136519 150.343995,11.9044369 150.452625,11.7952218 C150.887145,11.1399317 152.951116,8.51877133 156.318648,8.51877133 C157.296319,8.51877133 157.622209,9.28327645 157.622209,9.82935154 C157.622209,10.2662116 156.970428,12.0136519 156.101388,14.0887372 L156.427278,14.3071672 C157.404949,12.887372 160.1207,8.62798635 163.270972,8.62798635 C164.683162,8.62798635 165.334943,9.93856655 165.334943,10.8122867 C165.334943,11.5767918 164.900422,12.887372 163.488232,16.9283276 C162.727821,19.112628 162.401931,19.8771331 162.401931,20.2047782 C162.401931,20.6416382 162.510561,20.7508532 162.836451,20.7508532 C163.270972,20.7508532 164.248642,19.7679181 164.574532,19.331058 C164.683162,19.221843 164.791792,19.221843 164.900422,19.331058 L165.226313,19.5494881 C165.334943,19.6587031 165.334943,19.7679181 165.226313,19.9863481 C164.791792,20.5324232 162.836451,22.8259386 159.79481,22.8259386 C158.817139,22.8259386 158.491249,22.2798635 158.491249,21.6245734 C158.491249,21.0784983 159.14303,19.112628 160.1207,16.2730375 C160.66385,14.7440273 161.424261,12.559727 161.424261,12.0136519 C161.424261,11.4675768 161.207001,11.2491468 160.77248,11.2491468 C160.01207,11.2491468 157.622209,13.8703072 156.318648,15.9453925 C155.558238,17.0375427 154.906457,18.1296928 154.689197,18.6757679 L153.385637,22.2798635 C153.277007,22.3890785 153.277007,22.4982935 152.951116,22.4982935 L150.343995,22.4982935 L150.343995,22.3890785 L150.343995,22.3890785 Z" id="Path"></path>
                <path d="M166.747133,13.3242321 C166.638503,13.3242321 166.638503,13.105802 166.638503,12.887372 C166.747133,12.4505119 167.833434,8.51877133 171.309596,8.51877133 C172.613156,8.51877133 173.264937,9.39249147 173.482197,12.3412969 C173.699457,16.0546075 173.699457,19.8771331 173.590827,21.0784983 L174.025347,21.0784983 C174.459867,20.4232082 176.197948,16.4914676 176.632468,14.9624573 C176.741098,14.5255973 176.849728,13.7610922 176.849728,12.778157 C176.849728,11.9044369 176.306578,10.8122867 176.306578,9.93856655 C176.306578,9.17406143 176.849728,8.40955631 178.044659,8.40955631 C179.56548,8.40955631 180,9.39249147 180,10.9215017 C180,12.1228669 178.805069,15.0716724 177.610139,17.3651877 C175.872058,20.6416382 172.287266,26.2116041 169.571515,29.0511945 C168.702474,29.9249147 166.855763,32 164.683162,32 C163.162342,32 162.510561,31.2354949 162.510561,30.2525597 C162.510561,29.0511945 163.379602,28.2866894 164.140012,28.2866894 C164.683162,28.2866894 165.009053,28.5051195 165.226313,28.8327645 C165.552203,29.1604096 165.986723,29.3788396 166.312613,29.3788396 C166.638503,29.3788396 167.073024,29.2696246 167.616174,28.9419795 C169.028365,28.0682594 170.223295,26.3208191 170.657815,25.774744 C171.092336,25.1194539 171.200966,24.3549488 171.092336,23.1535836 C170.983705,21.9522184 170.114665,13.3242321 169.788775,11.7952218 C169.680145,11.3583618 169.571515,11.0307167 169.245625,11.0307167 C168.593844,11.0307167 167.942064,12.4505119 167.724804,13.2150171 C167.616174,13.3242321 167.616174,13.4334471 167.398914,13.3242321 L166.747133,13.3242321 Z" id="Path"></path>
            </g>
        </g>
    </g>
</svg>