<?xml version="1.0" encoding="UTF-8"?>
<svg width="263px" height="28px" viewBox="0 0 263 28" version="1.1" xmlns="http://www.w3.org/2000/svg" xmlns:xlink="http://www.w3.org/1999/xlink">
    <title>WF_Logo_RGB Copy</title>
    <defs>
        <polygon id="path-1" points="0.02 0.114333333 16.747 0.114333333 16.747 26.2746667 0.02 26.2746667"></polygon>
    </defs>
    <g id="Page-1" stroke="none" stroke-width="1" fill="none" fill-rule="evenodd">
        <g id="WF_Logo_RGB-Copy">
            <g id="Group-3" transform="translate(0.000000, 0.333333)">
                <mask id="mask-2" fill="white">
                    <use xlink:href="#path-1"></use>
                </mask>
                <g id="Clip-2"></g>
                <polyline id="Fill-1" fill="#0F192B" mask="url(#mask-2)" points="0 0.114333333 3.33366667 0.114333333 5.177 14.979 6.94166667 0.114333333 9.805 0.114333333 11.57 15.5276667 13.413 0.114333333 16.747 0.114333333 13.413 26.2746667 10.2363333 26.2746667 8.31433333 12.1943333 6.589 26.2746667 3.33366667 26.2746667 0 0.114333333"></polyline>
            </g>
            <path d="M33.6506667,5.58566667 C33.6506667,4.09566667 33.219,3.468 32.121,3.468 C31.062,3.468 30.5913333,4.09566667 30.5913333,5.58566667 L30.5913333,21.47 C30.5913333,22.96 31.0226667,23.5876667 32.121,23.5876667 C33.18,23.5876667 33.6506667,22.96 33.6506667,21.47 L33.6506667,5.58566667 Z M37.2983333,19.9406667 C37.2983333,23.078 37.1803333,23.7056667 36.4746667,24.843 C35.6116667,26.1763333 33.9646667,26.9996667 32.121,26.9996667 C30.2776667,26.9996667 28.6306667,26.1763333 27.7676667,24.843 C27.0616667,23.7056667 26.944,23.039 26.944,19.9406667 L26.944,7.076 C26.944,3.97766667 27.0616667,3.311 27.7676667,2.17366667 C28.6306667,0.879333333 30.2776667,0.0556666667 32.121,0.0556666667 C33.9646667,0.0556666667 35.6116667,0.879333333 36.4746667,2.17366667 C37.1803333,3.311 37.2983333,3.97766667 37.2983333,7.076 L37.2983333,19.9406667 L37.2983333,19.9406667 Z" id="Fill-4" fill="#9A2445"></path>
            <polyline id="Fill-5" fill="#0F192B" points="57.6923333 0.447666667 62.085 0.447666667 62.085 26.608 58.9473333 26.608 58.9473333 8.13533333 55.888 26.608 54.3193333 26.608 51.26 8.13533333 51.26 26.608 48.201 26.608 48.201 0.447666667 52.5153333 0.447666667 55.104 13.4693333 57.6923333 0.447666667"></polyline>
            <polyline id="Fill-6" fill="#0F192B" points="81.891 0.447666667 81.891 3.86 76.714 3.86 76.714 11.1943333 80.3223333 11.1943333 80.3223333 14.6066667 76.714 14.6066667 76.714 23.1956667 82.2046667 23.1956667 82.2046667 26.608 73.0663333 26.608 73.0663333 0.447666667 81.891 0.447666667"></polyline>
            <polyline id="Fill-7" fill="#0F192B" points="104.050333 26.608 100.403 26.608 96.0886667 12.8806667 96.0886667 26.608 92.441 26.608 92.441 0.447666667 95.5786667 0.447666667 100.403 15.861 100.403 0.447666667 104.050333 0.447666667 104.050333 26.608"></polyline>
            <polyline id="Fill-8" fill="#0F192B" points="118.954 0.447666667 118.954 4.36966667 117.306667 8.998 115.306667 8.998 116.64 4.36966667 115.306667 4.36966667 115.306667 0.447666667 118.954 0.447666667"></polyline>
            <path d="M133.269667,18.8813333 L133.269667,20.0186667 C133.269667,22.725 133.740333,23.5876667 135.152,23.5876667 C136.250333,23.5876667 136.799333,22.686 136.799333,20.9993333 C136.799333,19.2733333 136.368,18.2536667 134.563667,15.861 L132.759667,13.1943333 C130.524,9.82133333 129.779,8.01733333 129.779,5.70366667 C129.779,2.25166667 131.857667,0.0556666667 135.152,0.0556666667 C137.623,0.0556666667 139.427,1.468 139.937,3.86 C140.133,4.84033333 140.133,4.958 140.133,7.115 L136.564,7.46866667 C136.564,6.13466667 136.524667,5.664 136.446333,5.115 C136.328667,4.05566667 135.740667,3.468 134.916667,3.468 C133.936333,3.468 133.387333,4.33066667 133.387333,5.89966667 C133.387333,7.50766667 133.544333,7.86066667 135.976,11.5083333 L137.819,14.175 C139.505667,16.6456667 140.447,19.313 140.447,21.5486667 C140.447,25.039 138.525,26.9996667 135.113,26.9996667 C133.152,26.9996667 131.779333,26.3723333 130.759333,24.9996667 C129.896333,23.8233333 129.622,22.725 129.622,20.4503333 C129.622,19.901 129.622,19.666 129.661333,19.0383333 L133.269667,18.8813333" id="Fill-9" fill="#0F192B"></path>
            <polyline id="Fill-10" fill="#0F192B" points="174.214667 0.447666667 174.214667 3.86 169.037333 3.86 169.037333 11.1943333 172.646 11.1943333 172.646 14.6066667 169.037333 14.6066667 169.037333 26.608 165.39 26.608 165.39 0.447666667 174.214667 0.447666667"></polyline>
            <path d="M191.197333,5.58566667 C191.197333,4.09566667 190.765667,3.468 189.667667,3.468 C188.608667,3.468 188.138,4.09566667 188.138,5.58566667 L188.138,21.47 C188.138,22.96 188.569333,23.5876667 189.667667,23.5876667 C190.726667,23.5876667 191.197333,22.96 191.197333,21.47 L191.197333,5.58566667 Z M194.844667,19.9406667 C194.844667,23.078 194.727,23.7056667 194.021,24.843 C193.158333,26.1763333 191.511,26.9996667 189.667667,26.9996667 C187.824333,26.9996667 186.177,26.1763333 185.314,24.843 C184.608,23.7056667 184.490667,23.039 184.490667,19.9406667 L184.490667,7.076 C184.490667,3.97766667 184.608,3.311 185.314,2.17366667 C186.177,0.879333333 187.824333,0.0556666667 189.667667,0.0556666667 C191.511,0.0556666667 193.158333,0.879333333 194.021,2.17366667 C194.727,3.311 194.844667,3.97766667 194.844667,7.076 L194.844667,19.9406667 L194.844667,19.9406667 Z" id="Fill-11" fill="#194F8D"></path>
            <path d="M209.905,11.8213333 C211.081333,11.8213333 211.748,11.5473333 212.101333,10.8806667 C212.375667,10.3703333 212.454,9.74333333 212.454,7.35066667 C212.454,4.52666667 211.944333,3.86 209.905,3.86 L209.395,3.86 L209.395,11.8213333 L209.905,11.8213333 Z M209.316333,0.447666667 C212.258,0.447666667 213.591333,0.918333333 214.650333,2.29166667 C215.591667,3.507 216.023,5.272 216.023,7.74266667 C216.023,10.998 215.670333,12.175 214.18,14.0963333 L216.729333,26.608 L212.807333,26.608 L210.689,15.3513333 C210.062,15.4693333 209.944,15.4693333 209.395,15.5083333 L209.395,26.608 L205.747333,26.608 L205.747333,0.447666667 L209.316333,0.447666667 L209.316333,0.447666667 Z" id="Fill-12" fill="#0F192B"></path>
            <path d="M230.691667,21.47 C230.691667,22.96 231.162333,23.5876667 232.221333,23.5876667 C233.319667,23.5876667 233.751,22.96 233.751,21.47 L233.751,0.447666667 L237.398333,0.447666667 L237.398333,19.9796667 C237.398333,23.078 237.281,23.7446667 236.575,24.882 C235.712,26.1763333 234.064667,26.9996667 232.221333,26.9996667 C230.378333,26.9996667 228.730667,26.1763333 227.868,24.882 C227.162,23.7446667 227.044333,23.078 227.044333,19.9796667 L227.044333,0.447666667 L230.691667,0.447666667 L230.691667,21.47" id="Fill-13" fill="#0F192B"></path>
            <polyline id="Fill-14" fill="#0F192B" points="257.871333 0.447666667 262.264 0.447666667 262.264 26.608 259.126333 26.608 259.126333 8.13533333 256.067 26.608 254.498333 26.608 251.439 8.13533333 251.439 26.608 248.38 26.608 248.38 0.447666667 252.694333 0.447666667 255.283 13.4693333 257.871333 0.447666667"></polyline>
        </g>
    </g>
</svg>