<?xml version="1.0" encoding="UTF-8"?>
<svg width="205px" height="25px" viewBox="0 0 205 25" version="1.1" xmlns="http://www.w3.org/2000/svg" xmlns:xlink="http://www.w3.org/1999/xlink">
    <title>Group</title>
    <defs>
        <polygon id="path-1" points="0.0113850064 0.0650842863 9.53323507 0.0650842863 9.53323507 14.9568623 0.0113850064 14.9568623"></polygon>
    </defs>
    <g id="Page-1" stroke="none" stroke-width="1" fill="none" fill-rule="evenodd">
        <g id="mobile/nav/giving/light/hamburger-short-logo" transform="translate(-71.105000, -21.000000)">
            <g id="Group" transform="translate(72.000000, 21.000000)">
                <rect id="Rectangle" fill="#041E42" x="41" y="0" width="2" height="22"></rect>
                <g transform="translate(0.000000, 3.000000)" fill="#041E42" id="logo/abbreviated-">
                    <path d="M17.5711604,2.47405132 C17.8738045,1.49756332 17.5711604,1.12829223 16.9878827,1.12829223 L16.2097475,1.12829223 C16.1016372,1.12829223 16.0365768,1.0850589 16.0585873,0.955033871 L16.1663739,0.434283612 C16.1883844,0.303933516 16.2311106,0.260050067 16.4473312,0.260050067 C16.7066017,0.260050067 17.4633738,0.325387646 19.4083882,0.325387646 C21.1591924,0.325387646 21.893954,0.260050067 22.1101746,0.260050067 C22.2830216,0.260050067 22.3260715,0.325387646 22.3043847,0.477191873 L22.2182849,0.955033871 C22.1965981,1.06327971 22.1318614,1.12829223 22.0017406,1.12829223 L21.3967761,1.12829223 C21.0073848,1.12829223 20.4244308,1.21508394 20.0997762,2.3004679 L18.3279325,8.09568364 C18.1981354,8.57352564 17.7009575,10.1793348 17.7009575,11.1561479 C17.7009575,13.7829786 19.9919896,14.0644828 20.6189646,14.0644828 C21.6563703,14.0644828 22.7585127,13.6744077 23.4499007,13.0879948 C24.4659433,12.2418569 25.1793418,11.0696812 25.849043,8.65999229 L27.4270002,3.10369755 C27.837431,1.67082168 27.5998473,1.12829223 26.9081356,1.12829223 L26.2167475,1.12829223 C26.0222137,1.12829223 26.0005269,1.06327971 26.0222137,0.955033871 L26.1083135,0.477191873 C26.1300003,0.325387646 26.1730503,0.260050067 26.3679077,0.260050067 C26.6275019,0.260050067 27.448687,0.325387646 28.8317868,0.325387646 C30.0850894,0.325387646 30.5822673,0.260050067 30.7984879,0.260050067 C30.9933454,0.260050067 31.0147085,0.325387646 30.9933454,0.477191873 L30.9286087,0.955033871 C30.9069219,1.06327971 30.8632246,1.12829223 30.6907013,1.12829223 L30.3663704,1.12829223 C29.6749824,1.12829223 29.2205307,1.77971765 28.8965235,2.84332242 L27.037609,8.81212158 C25.8707298,12.6761405 24.1416124,15.1937502 20.1434735,15.1937502 C17.3552635,15.1937502 15.2587653,13.9130036 15.2587653,11.2211604 C15.2587653,10.3096849 15.5827725,8.96392581 15.7125696,8.50818806 L17.5711604,2.47405132 Z M10.7200748,16.6913135 C10.5689146,17.4295307 10.1367971,18.6663938 9.85551613,19.2963651 C9.29360152,20.4464365 7.73765479,21.9004414 6.09463719,21.9004414 C4.08488615,21.9004414 3.30707463,20.9021743 3.30707463,19.8596985 C3.30707463,19.1006774 3.71750534,18.5145896 4.47427744,18.5145896 C5.27409944,18.5145896 5.40324917,19.1871441 5.40324917,19.42574 C5.40324917,19.6864402 5.31714935,20.0553862 5.20903905,20.1636321 C5.12229187,20.2510739 5.07924196,20.3593197 5.07924196,20.5329032 C5.07924196,20.9668617 5.57641986,21.2064328 6.02990048,21.2064328 C7.15405338,21.2064328 7.7590179,20.2939822 8.14840919,18.797069 C8.4076797,17.7763724 8.79642362,16.0619924 9.59592194,13.0662156 L9.46677221,13.0229823 C9.16412811,13.4351616 7.93218859,15.1937502 5.01450525,15.1937502 C2.03176152,15.1937502 0,13.0879948 0,9.3331969 C0,6.53310781 1.27563679,4.16730232 2.87495712,2.53906384 C4.08488615,1.3239799 5.96548746,0 8.96959431,0 C11.2175764,0 12.3624451,0.737892065 12.7948863,1.0850589 C13.0761673,1.30220071 13.2707011,1.34543403 13.3788114,1.34543403 C13.6380819,1.34543403 13.767879,1.12829223 13.8973524,0.651100355 C13.9190392,0.542529452 13.9837759,0.520750259 14.0918862,0.542529452 L14.4162171,0.629321162 C14.5026406,0.651100355 14.5673773,0.694333679 14.5456905,0.802904581 L13.3140746,5.16556952 C13.2707011,5.29591961 13.2270038,5.31737374 13.0761673,5.29591961 L12.7304732,5.25236123 C12.6220393,5.23058203 12.5573026,5.16556952 12.579313,5.03554448 C12.9463702,3.16871006 11.8872776,0.889696291 9.0777046,0.889696291 C7.6942812,0.889696291 6.13833447,1.36721323 4.62511396,3.36439774 C3.37148765,4.94842771 2.65841283,7.292454 2.65841283,9.91863461 C2.65841283,13.4790451 4.84165824,14.0436788 5.79231677,14.0436788 C8.3859929,14.0436788 9.6399429,11.8075733 9.72571903,10.5271518 C9.79077942,9.70214293 9.55319571,9.52855951 8.96959431,9.52855951 L8.2131459,9.52855951 C8.04062257,9.52855951 8.01861209,9.463547 8.061662,9.31109264 L8.14840919,8.83357571 C8.1697723,8.70387574 8.2131459,8.65999229 8.3859929,8.65999229 C8.7103238,8.65999229 9.46677221,8.72532987 11.3687366,8.72532987 C12.8382599,8.72532987 13.3568009,8.65999229 13.659445,8.65999229 C13.8112526,8.65999229 13.8759893,8.72532987 13.8543025,8.83357571 L13.7892421,9.35530116 C13.767879,9.48467606 13.7241817,9.52855951 13.5947083,9.52855951 L13.140904,9.52855951 C12.7304732,9.52855951 12.4275055,9.70214293 12.1468718,10.8522144 L10.7200748,16.6913135 Z" id="logo-abbreviated-"></path>
                </g>
                <g id="WF_Logo_RGB" transform="translate(53.105000, 3.000000)">
                    <g id="Group-3" transform="translate(0.000000, 0.189750)">
                        <mask id="mask-2" fill="white">
                            <use xlink:href="#path-1"></use>
                        </mask>
                        <g id="Clip-2"></g>
                        <polyline id="Fill-1" fill="#0F192B" mask="url(#mask-2)" points="0 0.0650842863 1.89769081 0.0650842863 2.94700889 8.52680051 3.95154596 0.0650842863 5.58149936 0.0650842863 6.58622618 8.83912918 7.63535451 0.0650842863 9.53323507 0.0650842863 7.63535451 14.9568623 5.827036 14.9568623 4.73293689 6.94162812 3.75079034 14.9568623 1.89769081 14.9568623 0 0.0650842863"></polyline>
                    </g>
                    <path d="M19.1556527,3.17964252 C19.1556527,2.33145955 18.9099263,1.9741601 18.2848895,1.9741601 C17.6820534,1.9741601 17.4141262,2.33145955 17.4141262,3.17964252 L17.4141262,12.2218043 C17.4141262,13.0699873 17.6596629,13.4272867 18.2848895,13.4272867 C18.8877255,13.4272867 19.1556527,13.0699873 19.1556527,12.2218043 L19.1556527,3.17964252 Z M21.2320881,11.3512308 C21.2320881,13.1371588 21.1649166,13.4944583 20.7632156,14.1418856 C20.2719526,14.9008861 19.3343973,15.3695688 18.2848895,15.3695688 C17.2355714,15.3695688 16.2980161,14.9008861 15.8067531,14.1418856 C15.4048623,13.4944583 15.3378806,13.1149581 15.3378806,11.3512308 L15.3378806,4.02801525 C15.3378806,2.26428801 15.4048623,1.8847878 15.8067531,1.23736044 C16.2980161,0.500560779 17.2355714,0.0316882677 18.2848895,0.0316882677 C19.3343973,0.0316882677 20.2719526,0.500560779 20.7632156,1.23736044 C21.1649166,1.8847878 21.2320881,2.26428801 21.2320881,4.02801525 L21.2320881,11.3512308 L21.2320881,11.3512308 Z" id="Fill-4" fill="#9A2445"></path>
                    <polyline id="Fill-5" fill="#0F192B" points="32.8413791 0.254834392 35.341906 0.254834392 35.341906 15.1466125 33.5557882 15.1466125 33.5557882 4.63104108 31.8142618 15.1466125 30.9212978 15.1466125 29.1797713 4.63104108 29.1797713 15.1466125 27.4384346 15.1466125 27.4384346 0.254834392 29.8943702 0.254834392 31.3679695 7.66742228 32.8413791 0.254834392"></polyline>
                    <polyline id="Fill-6" fill="#0F192B" points="46.6164778 0.254834392 46.6164778 2.19730623 43.6694689 2.19730623 43.6694689 6.37237781 45.7235138 6.37237781 45.7235138 8.31484964 43.6694689 8.31484964 43.6694689 13.2041406 46.7950326 13.2041406 46.7950326 15.1466125 41.5930335 15.1466125 41.5930335 0.254834392 46.6164778 0.254834392"></polyline>
                    <polyline id="Fill-7" fill="#0F192B" points="59.2306853 15.1466125 57.1544396 15.1466125 54.698504 7.33232359 54.698504 15.1466125 52.6220686 15.1466125 52.6220686 0.254834392 54.4081864 0.254834392 57.1544396 9.02887929 57.1544396 0.254834392 59.2306853 0.254834392 59.2306853 15.1466125"></polyline>
                    <polyline id="Fill-8" fill="#0F192B" points="67.7146023 0.254834392 67.7146023 2.48743414 66.7768573 5.12211436 65.6383566 5.12211436 66.3973571 2.48743414 65.6383566 2.48743414 65.6383566 0.254834392 67.7146023 0.254834392"></polyline>
                    <path d="M75.8638001,10.748205 L75.8638001,11.3956324 C75.8638001,12.9362135 76.1317272,13.4272867 76.9353189,13.4272867 C77.5605455,13.4272867 77.873064,12.9140127 77.873064,11.9538772 C77.873064,10.9713511 77.6275273,10.3909055 76.60041,9.02887929 L75.5734824,7.51087844 C74.3008285,5.59079712 73.876737,4.56386955 73.876737,3.24681406 C73.876737,1.28176197 75.0600186,0.0316882677 76.9353189,0.0316882677 C78.3419365,0.0316882677 79.368864,0.835659466 79.6591817,2.19730623 C79.7707548,2.75536129 79.7707548,2.82234307 79.7707548,4.05021601 L77.7391004,4.25154087 C77.7391004,3.49216095 77.7167099,3.2242338 77.6721186,2.91171537 C77.6051368,2.30868954 77.2704176,1.9741601 76.8013554,1.9741601 C76.2433003,1.9741601 75.9307819,2.46523338 75.9307819,3.35838712 C75.9307819,4.27374163 76.0201542,4.474687 77.4043812,6.55112241 L78.4535095,8.06912325 C79.4136451,9.47555104 79.9494994,10.9939314 79.9494994,12.2665853 C79.9494994,14.2534587 78.8554003,15.3695688 76.9131182,15.3695688 C75.7968183,15.3695688 75.0154274,15.0124591 74.434792,14.2310682 C73.943529,13.5614401 73.7873647,12.9362135 73.7873647,11.6413587 C73.7873647,11.3286506 73.7873647,11.1948767 73.8097552,10.8375773 L75.8638001,10.748205" id="Fill-9" fill="#0F192B"></path>
                    <polyline id="Fill-10" fill="#0F192B" points="99.1717543 0.254834392 99.1717543 2.19730623 96.2245557 2.19730623 96.2245557 6.37237781 98.2787903 6.37237781 98.2787903 8.31484964 96.2245557 8.31484964 96.2245557 15.1466125 94.14831 15.1466125 94.14831 0.254834392 99.1717543 0.254834392"></polyline>
                    <path d="M108.839143,3.17964252 C108.839143,2.33145955 108.593416,1.9741601 107.96838,1.9741601 C107.365543,1.9741601 107.097616,2.33145955 107.097616,3.17964252 L107.097616,12.2218043 C107.097616,13.0699873 107.343153,13.4272867 107.96838,13.4272867 C108.571216,13.4272867 108.839143,13.0699873 108.839143,12.2218043 L108.839143,3.17964252 Z M110.915388,11.3512308 C110.915388,13.1371588 110.848407,13.4944583 110.446516,14.1418856 C109.955443,14.9008861 109.017698,15.3695688 107.96838,15.3695688 C106.919061,15.3695688 105.981316,14.9008861 105.490053,14.1418856 C105.088163,13.4944583 105.021371,13.1149581 105.021371,11.3512308 L105.021371,4.02801525 C105.021371,2.26428801 105.088163,1.8847878 105.490053,1.23736044 C105.981316,0.500560779 106.919061,0.0316882677 107.96838,0.0316882677 C109.017698,0.0316882677 109.955443,0.500560779 110.446516,1.23736044 C110.848407,1.8847878 110.915388,2.26428801 110.915388,4.02801525 L110.915388,11.3512308 L110.915388,11.3512308 Z" id="Fill-11" fill="#194F8D"></path>
                    <path d="M119.488488,6.72929776 C120.158116,6.72929776 120.537616,6.57332317 120.738751,6.19382296 C120.894916,5.90331554 120.939507,5.5463956 120.939507,4.18436934 C120.939507,2.57680644 120.649379,2.19730623 119.488488,2.19730623 L119.19817,2.19730623 L119.19817,6.72929776 L119.488488,6.72929776 Z M119.153389,0.254834392 C120.827934,0.254834392 121.586934,0.522761542 122.18977,1.30453198 C122.725625,1.99636086 122.971161,3.00108767 122.971161,4.40751546 C122.971161,6.26061499 122.770406,6.93062262 121.922033,8.02434223 L123.373242,15.1466125 L121.140642,15.1466125 L119.93478,8.73875138 C119.57786,8.80592291 119.510689,8.80592291 119.19817,8.82812368 L119.19817,15.1466125 L117.121735,15.1466125 L117.121735,0.254834392 L119.153389,0.254834392 L119.153389,0.254834392 Z" id="Fill-12" fill="#0F192B"></path>
                    <path d="M131.321305,12.2218043 C131.321305,13.0699873 131.589232,13.4272867 132.192068,13.4272867 C132.817294,13.4272867 133.062831,13.0699873 133.062831,12.2218043 L133.062831,0.254834392 L135.139077,0.254834392 L135.139077,11.3734316 C135.139077,13.1371588 135.072285,13.516659 134.670394,14.1640864 C134.179131,14.9008861 133.241386,15.3695688 132.192068,15.3695688 C131.142939,15.3695688 130.205005,14.9008861 129.713931,14.1640864 C129.312041,13.516659 129.245059,13.1371588 129.245059,11.3734316 L129.245059,0.254834392 L131.321305,0.254834392 L131.321305,12.2218043" id="Fill-13" fill="#0F192B"></path>
                    <polyline id="Fill-14" fill="#0F192B" points="146.793338 0.254834392 149.293865 0.254834392 149.293865 15.1466125 147.507748 15.1466125 147.507748 4.63104108 145.766221 15.1466125 144.873257 15.1466125 143.131731 4.63104108 143.131731 15.1466125 141.390394 15.1466125 141.390394 0.254834392 143.84633 0.254834392 145.319929 7.66742228 146.793338 0.254834392"></polyline>
                </g>
            </g>
        </g>
    </g>
</svg>